<?xml version="1.0" encoding="utf-8"?>
<!-- Generator: Adobe Illustrator 15.1.0, SVG Export Plug-In . SVG Version: 6.00 Build 0)  -->
<!DOCTYPE svg PUBLIC "-//W3C//DTD SVG 1.1//EN" "http://www.w3.org/Graphics/SVG/1.1/DTD/svg11.dtd">
<svg version="1.1" id="Calque_1" xmlns="http://www.w3.org/2000/svg" xmlns:xlink="http://www.w3.org/1999/xlink" x="0px" y="0px"
	 width="470.637px" height="130.479px" viewBox="0 0 470.637 130.479" enable-background="new 0 0 470.637 130.479"
	 xml:space="preserve">
<g>
	<defs>
		<rect id="SVGID_1_" width="470.637" height="130.479"/>
	</defs>
	<clipPath id="SVGID_2_">
		<use xlink:href="#SVGID_1_"  overflow="visible"/>
	</clipPath>
	<path clip-path="url(#SVGID_2_)" fill="#2A314A" d="M35.272,129.125c-2.908,0.678-7.559,1.354-12.791,1.354
		C13.663,130.479,0,129.997,0,114.298c0-12.308,6.879-13.472,15.503-14.922l19.187-3.197v-4.265c0-3.005-0.195-5.329-3.392-6.591
		c-1.744-0.678-4.458-0.965-8.526-0.965c-7.269,0-13.955,1.837-17.637,2.71c0,0-0.484,0.099-0.677,0.099
		c-0.389,0-0.775-0.195-0.873-0.776l-0.969-4.459c0,0-0.097-0.483-0.097-0.675c0-0.681,0.388-0.972,1.066-1.164
		c3.003-0.872,11.337-3.005,20.446-3.005c6.976,0,11.434,0.969,14.342,2.521c5.038,2.809,5.231,7.559,5.231,12.498v27.034
		C43.604,126.024,41.958,127.571,35.272,129.125 M34.69,102.962l-16.958,2.81c-4.263,0.675-8.43,1.257-8.43,8.235
		c0,9.206,7.461,9.788,13.372,9.788c4.166,0,8.432-0.486,12.016-1.649V102.962z"/>
	<path clip-path="url(#SVGID_2_)" fill="#2A314A" d="M91.951,126.605c0,0.773-0.581,1.065-0.968,1.256
		c-2.422,1.164-9.303,2.523-15.311,2.523c-18.314,0-23.159-8.529-23.159-26.648c0-18.022,4.845-26.647,23.159-26.647
		c6.008,0,12.694,1.646,15.213,2.52c0.582,0.195,1.066,0.485,1.066,1.358c0,0.291-0.096,0.773-0.096,0.773l-0.775,3.487
		c-0.195,0.873-0.775,1.068-1.455,1.068H89.53c-2.326-0.582-7.85-2.229-12.888-2.229c-11.337,0-14.826,4.843-14.826,19.669
		c0,14.823,3.489,19.67,14.826,19.67c5.038,0,10.562-1.355,12.693-1.938c0,0,0.388-0.1,0.581-0.1c0.582,0,0.969,0.198,1.164,0.972
		l0.775,3.584C91.855,125.924,91.951,126.411,91.951,126.605"/>
	<path clip-path="url(#SVGID_2_)" fill="#2A314A" d="M128.283,127.378c0,0.582-0.389,0.969-0.873,1.164
		c-1.937,0.678-6.202,1.842-11.919,1.842c-9.882,0-14.728-4.169-14.728-13.858V64.104c0-0.969,0.484-1.26,1.356-1.452l6.3-1.455
		h0.096c0.775,0,1.259,0.582,1.259,1.356v15.795h15.699c0.775,0,1.355,0.582,1.355,1.455v4.164c0,0.774-0.58,1.356-1.452,1.356
		h-15.602v31.688c0,5.038,2.617,6.394,7.656,6.394c3.003,0,6.298-0.774,8.236-1.164c0,0,0.485-0.096,0.582-0.096
		c0.485,0,0.871,0.291,1.067,0.968l0.968,4.073V127.378z"/>
	<path clip-path="url(#SVGID_2_)" fill="#2A314A" d="M143.978,70.209h-5.718c-0.968,0-1.646-0.681-1.646-1.646V57.998
		c0-1.064,0.678-1.646,1.646-1.646h5.718c0.968,0,1.55,0.582,1.55,1.646v10.565C145.527,69.627,144.945,70.209,143.978,70.209
		 M144.17,129.22h-6.104c-0.873,0-1.453-0.582-1.453-1.451V79.995c0-0.873,0.58-1.455,1.453-1.455h6.104
		c0.873,0,1.455,0.582,1.455,1.455v47.774C145.625,128.638,145.043,129.22,144.17,129.22"/>
	<path clip-path="url(#SVGID_2_)" fill="#2A314A" d="M200.755,129.22h-6.006c-0.971,0-1.55-0.582-1.55-1.451V92.301
		c0-6.201-2.328-8.334-8.625-8.334c-8.236,0-16.668,2.424-16.668,2.424v41.378c0,0.869-0.484,1.451-1.453,1.451h-6.008
		c-0.968,0-1.55-0.582-1.55-1.451V87.167c0-3.781,0.582-5.428,5.62-7.074c5.039-1.649,14.342-3.005,20.543-3.005
		c11.628,0,17.152,3.488,17.152,14.146v36.535C202.21,128.638,201.724,129.22,200.755,129.22"/>
	<path clip-path="url(#SVGID_2_)" fill="#2A314A" d="M234.861,130.479c-16.766,0-21.708-6.782-21.708-19.768V79.899
		c0-0.873,0.582-1.26,1.357-1.455l6.298-1.355h0.098c0.775,0,1.26,0.582,1.26,1.355v33.044c0,8.431,3.002,12.209,12.695,12.209
		c11.53,0,12.595-5.62,12.595-12.403V79.995c0-0.969,0.485-1.26,1.354-1.455l6.202-1.451h0.194c0.777,0,1.259,0.486,1.259,1.355
		v32.172C256.466,120.791,254.143,130.479,234.861,130.479"/>
	<path clip-path="url(#SVGID_2_)" fill="#2A314A" d="M289.115,130.479c-16.761,0-21.706-6.782-21.706-19.768V79.899
		c0-0.873,0.582-1.26,1.358-1.455l6.298-1.355h0.1c0.773,0,1.256,0.582,1.256,1.355v33.044c0,8.431,3.006,12.209,12.694,12.209
		c11.533,0,12.598-5.62,12.598-12.403V79.995c0-0.969,0.485-1.26,1.358-1.455l6.202-1.451h0.191c0.773,0,1.26,0.486,1.26,1.355
		v32.172C310.725,120.791,308.4,130.479,289.115,130.479"/>
	<path clip-path="url(#SVGID_2_)" fill="#2A314A" d="M398.512,129.22h-6.105c-0.874,0-1.452-0.582-1.452-1.451V92.301
		c0-6.201-2.423-8.334-8.724-8.334c-8.234,0-16.667,2.424-16.667,2.424v41.378c0,0.869-0.483,1.451-1.355,1.451h-6.104
		c-0.971,0-1.553-0.582-1.553-1.451V92.301c0-6.201-2.324-8.334-8.621-8.334c-8.237,0-16.767,2.424-16.767,2.424v41.378
		c0,0.869-0.483,1.451-1.452,1.451h-6.006c-0.971,0-1.554-0.582-1.554-1.451V87.167c0-3.781,0.583-5.428,5.623-7.074
		c5.038-1.649,14.34-3.005,20.638-3.005c6.01,0,10.369,1.26,12.985,3.587c4.846-1.845,15.021-3.587,21.415-3.587
		c11.629,0,17.152,3.488,17.152,14.146v36.535C399.966,128.638,399.385,129.22,398.512,129.22"/>
</g>
<g>
	<defs>
		<path id="SVGID_3_" d="M440.927,17.844c-3.685,1.241-7.901,4.791-11.379,9.843c2.339-3.223,5.265-5.41,7.936-6.061
			c0.686-0.206,1.427-0.264,2.197-0.181l0.271,0.036c0.054,0.012,0.103,0.019,0.153,0.023c0.02,0.007,0.029,0.007,0.049,0.015
			c3.291,0.643,7.088,3.625,9.696,8.151c0.121,0.198,0.233,0.395,0.332,0.592l0.014-0.006c3.184,6.029,4.407,12.068,3.57,16.228
			c-0.147,0.991-0.507,1.935-1.062,2.8c-0.065,0.099-0.132,0.191-0.204,0.29c-0.035,0.055-0.076,0.116-0.112,0.171
			c-0.013,0.016-0.029,0.033-0.041,0.054c-2.14,2.823-6.393,4.745-11.64,5.105c-0.033,0-0.074,0.008-0.108,0.008
			c-0.414,0.028-0.848,0.039-1.276,0.044c-0.172,0.008-0.346,0.008-0.52,0.008h-0.425c-0.161,0-0.326,0-0.487-0.008
			c-11.442-0.082-21.376-3.243-26.617-7.877c-1.233-0.98-2.223-2.201-2.954-3.616c-0.092-0.162-0.169-0.333-0.243-0.497
			c-0.041-0.099-0.091-0.19-0.137-0.291c-0.012-0.027-0.022-0.066-0.036-0.096c-2.203-5.198-1.413-12.617,2.39-20.125l-0.02-0.012
			c-5.089,9.917-6.486,20.095-4.229,27.17c0.261,0.915,0.633,1.823,1.118,2.686c0.652,1.249,1.461,2.354,2.412,3.279
			c5.487,5.829,16.101,9.775,28.288,9.775c0.171,0,0.344,0,0.51-0.006c0.57,0,1.123-0.011,1.682-0.038
			c0.226-0.011,0.445-0.017,0.671-0.033c0.087,0,0.171-0.006,0.252-0.011c8.249-0.52,14.935-3.523,18.286-7.97
			c0.021-0.031,0.049-0.055,0.07-0.084c0.06-0.085,0.121-0.175,0.176-0.256c0.109-0.151,0.218-0.308,0.317-0.463
			c0.864-1.343,1.42-2.807,1.653-4.358c1.241-6.148-0.407-14.938-4.818-23.854h-0.006c-0.36-0.752-0.747-1.475-1.161-2.159
			c-0.019-0.034-0.038-0.061-0.058-0.099c-3.014-4.992-7.123-8.13-10.928-8.605c-0.029-0.004-0.043-0.004-0.065-0.01
			c-0.075-0.006-0.142-0.011-0.202-0.017c-0.119-0.014-0.247-0.025-0.359-0.021c-0.125-0.006-0.249-0.009-0.373-0.009
			C442.618,17.359,441.751,17.517,440.927,17.844"/>
	</defs>
	<clipPath id="SVGID_4_">
		<use xlink:href="#SVGID_3_"  overflow="visible"/>
	</clipPath>
	
		<linearGradient id="SVGID_5_" gradientUnits="userSpaceOnUse" x1="0" y1="130.4868" x2="1" y2="130.4868" gradientTransform="matrix(27.8568 -36.99 -36.99 -27.8568 5246.8022 3693.7019)">
		<stop  offset="0" style="stop-color:#A5D9CC"/>
		<stop  offset="0.2432" style="stop-color:#65C2A8"/>
		<stop  offset="0.7946" style="stop-color:#2A8EC4"/>
		<stop  offset="1" style="stop-color:#2679AD"/>
	</linearGradient>
	<polygon clip-path="url(#SVGID_4_)" fill="url(#SVGID_5_)" points="380.724,47.983 425.115,-10.962 485.785,34.728 441.394,93.673 
			"/>
</g>
<g>
	<defs>
		<path id="SVGID_6_" d="M441.472,7.483c-5.777,1.939-12.363,7.512-17.788,15.424c-0.035,0.045-0.061,0.084-0.086,0.126
			c-0.604,0.878-1.191,1.788-1.767,2.726c-0.023,0.042-0.043,0.081-0.071,0.125c-0.303,0.514-0.579,1.036-0.841,1.55l0.011,0.006
			c-2.438,4.822-2.943,9.585-1.535,12.917c0.009,0.017,0.018,0.044,0.025,0.06c0.029,0.066,0.061,0.127,0.09,0.186
			c0.049,0.107,0.093,0.215,0.154,0.323c0.474,0.91,1.1,1.689,1.891,2.319c3.413,3.015,9.918,5.052,17.391,5.052
			c-4.951-0.03-9.252-1.643-11.486-4.019c-0.395-0.384-0.724-0.839-0.996-1.352c-0.189-0.358-0.352-0.723-0.463-1.106
			c-0.999-3.135-0.25-7.746,2.245-12.12c0.019-0.019,0.031-0.035,0.038-0.057c0.396-0.69,0.82-1.337,1.265-1.956
			c3.478-5.052,7.694-8.602,11.379-9.843c0.938-0.373,1.932-0.526,2.956-0.476c0.112-0.004,0.24,0.007,0.359,0.021
			c0.061,0.006,0.127,0.011,0.202,0.017c0.022,0.006,0.036,0.006,0.065,0.01c3.805,0.475,7.914,3.613,10.928,8.605
			c0.02,0.038,0.039,0.065,0.058,0.099c0.414,0.684,0.801,1.407,1.161,2.159h0.006c4.411,8.916,6.06,17.706,4.818,23.854
			c-0.233,1.551-0.789,3.015-1.653,4.358c-0.1,0.155-0.208,0.312-0.317,0.463c-0.055,0.081-0.116,0.171-0.176,0.256
			c-0.021,0.029-0.05,0.053-0.07,0.084c-3.352,4.447-10.037,7.45-18.286,7.97c10.423-0.581,19.401-4.063,24.546-9.039
			c1.101-0.946,2.021-2.099,2.761-3.423c0.808-1.342,1.373-2.753,1.648-4.22c1.86-7.442,0.033-17.843-5.521-27.787
			c-0.009-0.043-0.035-0.08-0.066-0.121c-4.707-8.046-11.253-13.105-17.29-13.853c-0.04-0.005-0.075-0.011-0.108-0.02
			c-0.109-0.011-0.21-0.016-0.313-0.022c-0.183-0.016-0.366-0.035-0.559-0.04c-0.196-0.01-0.392-0.015-0.585-0.015
			C444.099,6.724,442.751,6.974,441.472,7.483"/>
	</defs>
	<clipPath id="SVGID_7_">
		<use xlink:href="#SVGID_6_"  overflow="visible"/>
	</clipPath>
	
		<linearGradient id="SVGID_8_" gradientUnits="userSpaceOnUse" x1="0" y1="130.4751" x2="1" y2="130.4751" gradientTransform="matrix(-45.6669 -14.6135 -14.6135 45.6669 2373.6621 -5915.3428)">
		<stop  offset="0" style="stop-color:#A5D9CC"/>
		<stop  offset="0.2432" style="stop-color:#65C2A8"/>
		<stop  offset="0.7946" style="stop-color:#2A8EC4"/>
		<stop  offset="1" style="stop-color:#2679AD"/>
	</linearGradient>
	<polygon clip-path="url(#SVGID_7_)" fill="url(#SVGID_8_)" points="466.795,80.883 400.993,59.826 422.984,-8.895 488.786,12.162 	
		"/>
</g>
<g>
	<defs>
		<path id="SVGID_9_" d="M437.584,0c-1.266,0.005-2.484,0.179-3.645,0.532c-7.719,1.908-16.325,9.047-22.344,19.488
			c-0.47,0.806-0.914,1.61-1.322,2.422l0.02,0.012c-3.803,7.508-4.593,14.927-2.39,20.125c0.014,0.03,0.024,0.069,0.036,0.096
			c0.046,0.101,0.096,0.192,0.137,0.291c0.074,0.164,0.151,0.335,0.243,0.497c0.731,1.415,1.721,2.636,2.954,3.616
			c5.241,4.634,15.175,7.795,26.617,7.877c0.161,0.008,0.326,0.008,0.487,0.008h0.425c0.174,0,0.348,0,0.52-0.008
			c0.429-0.011,0.854-0.022,1.276-0.044c0.034,0,0.075-0.008,0.108-0.008c5.247-0.36,9.5-2.282,11.64-5.105
			c0.012-0.021,0.028-0.038,0.041-0.054c0.036-0.055,0.077-0.116,0.112-0.171c0.072-0.099,0.139-0.191,0.204-0.29
			c0.556-0.865,0.915-1.809,1.062-2.8c0.837-4.16-0.387-10.199-3.57-16.228l-0.014,0.006c2.16,4.002,2.86,8.15,2.11,11.136
			c-0.115,0.603-0.34,1.181-0.675,1.737c-0.306,0.545-0.69,1.022-1.132,1.411c-2.325,2.244-6.557,3.751-11.391,3.751h-0.15
			c-7.473,0-13.978-2.037-17.391-5.052c-0.791-0.63-1.417-1.409-1.891-2.319c-0.062-0.108-0.105-0.216-0.154-0.323
			c-0.029-0.059-0.061-0.12-0.09-0.186c-0.008-0.016-0.017-0.043-0.025-0.06c-1.408-3.332-0.903-8.095,1.535-12.917l-0.011-0.006
			c0.262-0.514,0.538-1.036,0.841-1.55c0.028-0.044,0.048-0.083,0.071-0.125c0.557-0.954,1.145-1.865,1.767-2.726
			c0.025-0.042,0.051-0.081,0.086-0.126c5.425-7.912,12.011-13.485,17.788-15.424c1.458-0.58,3.006-0.823,4.604-0.744
			c0.192,0.005,0.376,0.024,0.559,0.04c0.104,0.006,0.204,0.011,0.313,0.022c0.033,0.009,0.068,0.015,0.108,0.02
			c6.037,0.748,12.583,5.807,17.29,13.853c-0.111-0.197-0.225-0.399-0.34-0.599c-6.351-11.002-15.549-18.364-23.572-19.811
			c-0.042-0.011-0.082-0.022-0.124-0.028c-0.125-0.021-0.242-0.032-0.366-0.055c-0.222-0.033-0.442-0.065-0.658-0.089
			c-0.544-0.06-1.082-0.091-1.612-0.092H437.584z"/>
	</defs>
	<clipPath id="SVGID_10_">
		<use xlink:href="#SVGID_9_"  overflow="visible"/>
	</clipPath>
	
		<linearGradient id="SVGID_11_" gradientUnits="userSpaceOnUse" x1="0" y1="130.4751" x2="1" y2="130.4751" gradientTransform="matrix(9.1333 51.832 51.832 -9.1333 -6332.5234 1192.2172)">
		<stop  offset="0" style="stop-color:#A5D9CC"/>
		<stop  offset="0.2432" style="stop-color:#65C2A8"/>
		<stop  offset="0.7946" style="stop-color:#2A8EC4"/>
		<stop  offset="1" style="stop-color:#2679AD"/>
	</linearGradient>
	<polygon clip-path="url(#SVGID_10_)" fill="url(#SVGID_11_)" points="462.58,-10.023 473.739,53.309 407.466,64.987 396.307,1.655 
			"/>
</g>
</svg>
