<svg xmlns="http://www.w3.org/2000/svg" viewBox="0 0 521 546.7">
  <path fill="#b4b3b4" d="M260.5 546.7L41.7 424.9 0 90.9 260.5 0 521 90.9l-41.7 334z"/>
  <path fill="#e52f2f" d="M260.5 517.7L65.1 408.9 30 108.2l230.5-80.4L491 108.2l-35.1 300.7z"/>
  <path fill="#823135" d="M455.9 408.9L491 108.2 260.5 27.8v489.9z"/>
  <path d="M400 360.1v-2.7h-3v-2.9h-3.4V253.8h1.8v-2.9h2.7v-6.1h-4.5v-13.2l8.5-8.4h2.4l1.8-3.3v-1.3h-12.7v-4.7h-3.1v-11.6l6.7-7.1v-1.7h-97l-.5-3.5h-2.9l-.2-1.1h-9c-1.1-3.4-3.1-10.3-1.7-11.1 2.6-1.5 4.4-.7 4.6 3.2.1 3.5 1.5 6.3 1.5 6.3l2.7.3s-1.1-3.1-1.2-5.5c-.1-7-2.7-7.5-2.7-7.5s3.3-3.1 1.5-6.6c0 0 1 2.2 2.9 1.5 1.8-.7 1.9-5.4.5-7.3l1.8-.5s-.3-.6-2.1-.6c0 0-2.9-4.5-6.6 1.5-3.7 6-5.4 7.2-7.2 6.8 0 0-4.8-2.2-6.2 1.9l-.5-.5c-1.2-1-1.6-3-1.7-4.6.4-.8.7-1.9.7-3 0-2.7-1.3-4.9-3-4.9s-3 2.2-3 4.9c0 1 .2 1.8.5 2.6-.3.9-.6 1.7-.9 2.3-1.1-1.4-2.6-4.3-1.2-8.6 2.1-6.2 1.9-18.8-4.2-10.3v-10.8c1.6-.6 2.7-2.2 2.7-4 0-1.5-.8-2.9-2-3.7 6-.9 9.8-10.7 6.9-9.8-3.1.9-6.9 4.1-6.9 4.1-.2 1.4-1 1.7-1.6 1.8.1-.3.2-.8.2-1.3 0-1.1-.4-2-.9-2s-.9.9-.9 2c0 .5.1.9.2 1.3-.6-.1-1.4-.5-1.6-1.8 0 0-3.9-3.2-6.9-4.1-3-.9.9 8.9 6.9 9.8-1.2.8-2 2.1-2 3.7 0 1.8 1.1 3.4 2.7 4v10.8c-6.1-8.5-6.2 4.1-4.2 10.3 1.4 4.3-.1 7.2-1.2 8.6-.3-.7-.7-1.4-.9-2.3.3-.8.5-1.6.5-2.6 0-1.4-.4-2.6-.9-3.5 0-.5-.1-1.6-.4-2.1 0 0-.3.5-.6 1.1-.3-.2-.7-.3-1.1-.3-.4 0-.7.1-1.1.3-.2-.4-.4-.9-.7-1.1 0 0-.3 1-.1 1.9-.6.9-1.1 2.2-1.1 3.7 0 1.1.3 2.2.7 3-.1 1.7-.5 3.7-1.7 4.6-.2.1-.3.3-.5.5-1.4-4.1-6.2-1.9-6.2-1.9-1.8.4-3.4-.8-7.2-6.8-3.7-6-6.6-1.5-6.6-1.5-1.8 0-2.1.6-2.1.6l1.8.5c-1.4 1.8-1.3 6.6.5 7.3 1.8.7 2.9-1.5 2.9-1.5-1.8 3.5 1.5 6.6 1.5 6.6s-2.6.6-2.7 7.5c0 2.4-1.2 5.5-1.2 5.5l2.7-.3s1.4-2.8 1.5-6.3c.1-4 1.9-4.7 4.6-3.2 1.4.8-.6 7.7-1.7 11.1h-9l-.2 1.1h-2.9l-.5 3.5h-97v1.7l6.7 7.1v11.6h-3.1v4.7h-12.7v1.3l1.8 3.3h2.4l8.5 8.4v13.2h-4.5v6.1h2.7v2.9h1.8v100.7H124v2.9h-3v2.7h-16.2v6.9h311.5v-6.9H400zm-226.8-5.6h-3.4v2.9h-3v2.7h-14.9v-2.7h-3v-2.9h-3.4V253.8h3.4v-2.9h3v-6.1h14.9v6.1h3v2.9h3.4v100.7zm45.8 0h-3.4v2.9h-3v2.7h-14.9v-2.7h-3v-2.9h-3.4V253.8h3.4v-2.9h3v-6.1h14.9v6.1h3v2.9h3.4v100.7zm56.7-172.3c.4-.9.6-1.7.9-2.5.4.8.7 1.3.7 1.3s2.3 4.1 1.2 7.9h-4.1c-.1-1.8.1-4.1 1.3-6.7zm-15.2-1.5c3.4.4 4.8 5.2 5.3 8.2h-10.5c.4-3 1.8-7.8 5.2-8.2zm-16.7.3s.3-.5.7-1.3c.2.8.5 1.6.9 2.5 1.1 2.6 1.4 4.9 1.3 6.7h-4.1c-1.1-3.8 1.2-7.9 1.2-7.9zm40.1 173.5h-3.4v2.9h-3v2.7H243.6v-2.7h-3v-2.9h-3.4V253.8h3.4v-2.9h3v-6.1H277.7v6.1h3v2.9h3.4v100.7zm45.8 0h-3.4v2.9h-3v2.7h-14.9v-2.7h-3v-2.9H302V253.8h3.4v-2.9h3v-6.1h14.9v6.1h3v2.9h3.4v100.7zm45.8-99.9v99.9H372v2.9h-3v2.7h-14.9v-2.7h-3v-2.9h-3.4V253.8h3.4v-2.9h3v-6.1H369v6.1h3v2.9h3.4v.8z" fill="#fff"/>
  <path d="M400 360.1v-2.7h-3v-2.9h-3.4V253.8h1.8v-2.9h2.7v-6.1h-4.5v-13.2l8.5-8.4h2.4l1.8-3.3v-1.3h-12.7v-4.7h-3.1v-11.6l6.7-7.1v-1.7h-97l-.5-3.5h-2.9l-.2-1.1h-9c-1.1-3.4-3.1-10.3-1.7-11.1 2.6-1.5 4.4-.7 4.6 3.2.1 3.5 1.5 6.3 1.5 6.3l2.7.3s-1.1-3.1-1.2-5.5c-.1-7-2.7-7.5-2.7-7.5s3.3-3.1 1.5-6.6c0 0 1 2.2 2.9 1.5 1.8-.7 1.9-5.4.5-7.3l1.8-.5s-.3-.6-2.1-.6c0 0-2.9-4.5-6.6 1.5-3.7 6-5.4 7.2-7.2 6.8 0 0-4.8-2.2-6.2 1.9l-.5-.5c-1.2-1-1.6-3-1.7-4.6.4-.8.7-1.9.7-3 0-1.5-.4-2.8-1.1-3.7.2-.9-.1-1.9-.1-1.9-.3.2-.5.6-.7 1.1-.3-.2-.7-.3-1.1-.3-.4 0-.7.1-1.1.3-.2-.6-.6-1.1-.6-1.1-.3.5-.4 1.6-.4 2.1-.6.9-.9 2.1-.9 3.5 0 1 .2 1.8.5 2.6-.3.9-.6 1.7-.9 2.3-1.1-1.4-2.6-4.3-1.2-8.6 2.1-6.2 1.9-18.8-4.2-10.3v-10.8c1.6-.6 2.7-2.2 2.7-4 0-1.5-.8-2.9-2-3.7 6-.9 9.8-10.7 6.9-9.8-3.1.9-6.9 4.1-6.9 4.1-.2 1.4-1 1.7-1.6 1.8.1-.3.2-.8.2-1.3 0-1.1-.4-2-.9-2v57.1c3.4.4 4.8 5.2 5.3 8.2H260.6v55.9h17v6.1h3v2.9h3.4v100.7h-3.4v2.9h-3v2.7H260.7v6.9h155.7V360H400zM278.4 188.9h-4.1c-.1-1.8.2-4.1 1.3-6.7.4-.9.6-1.7.9-2.5.4.8.7 1.3.7 1.3s2.3 4.1 1.2 7.9zm51.3 165.6h-3.4v2.9h-3v2.7h-14.9v-2.7h-3v-2.9H302V253.8h3.4v-2.9h3v-6.1h14.9v6.1h3v2.9h3.4v100.7zm45.8-99.9v99.9H372v2.9h-3v2.7h-14.9v-2.7h-3v-2.9h-3.4V253.8h3.4v-2.9h3v-6.1H369v6.1h3v2.9h3.4v.8z" fill="gray"/>
</svg>
