<?xml version="1.0" encoding="UTF-8" standalone="no"?>
<!-- Created with Inkscape (http://www.inkscape.org/) -->
<svg
   xmlns:dc="http://purl.org/dc/elements/1.1/"
   xmlns:cc="http://creativecommons.org/ns#"
   xmlns:rdf="http://www.w3.org/1999/02/22-rdf-syntax-ns#"
   xmlns:svg="http://www.w3.org/2000/svg"
   xmlns="http://www.w3.org/2000/svg"
   xmlns:sodipodi="http://sodipodi.sourceforge.net/DTD/sodipodi-0.dtd"
   xmlns:inkscape="http://www.inkscape.org/namespaces/inkscape"
   width="360"
   height="225"
   id="svg2665"
   sodipodi:version="0.32"
   inkscape:version="0.46"
   version="1.0"
   sodipodi:docname="003.svg"
   inkscape:output_extension="org.inkscape.output.svg.inkscape">
  <defs
     id="defs2667">
    <inkscape:perspective
       sodipodi:type="inkscape:persp3d"
       inkscape:vp_x="0 : 526.18109 : 1"
       inkscape:vp_y="0 : 1000 : 0"
       inkscape:vp_z="744.09448 : 526.18109 : 1"
       inkscape:persp3d-origin="372.04724 : 350.78739 : 1"
       id="perspective2673" />
  </defs>
  <sodipodi:namedview
     id="base"
     pagecolor="#ffffff"
     bordercolor="#666666"
     borderopacity="1.0"
     gridtolerance="5"
     guidetolerance="10"
     objecttolerance="10"
     inkscape:pageopacity="0.0"
     inkscape:pageshadow="2"
     inkscape:zoom="1.4"
     inkscape:cx="181.02041"
     inkscape:cy="170.21027"
     inkscape:document-units="pt"
     inkscape:current-layer="layer1"
     showgrid="true"
     units="pt"
     inkscape:snap-bbox="true"
     inkscape:object-nodes="true"
     inkscape:window-width="1279"
     inkscape:window-height="949"
     inkscape:window-x="0"
     inkscape:window-y="25">
    <inkscape:grid
       type="xygrid"
       id="grid2675"
       visible="true"
       enabled="true"
       units="pt"
       spacingx="9pt"
       spacingy="9pt"
       empspacing="8" />
  </sodipodi:namedview>
  <metadata
     id="metadata2670">
    <rdf:RDF>
      <cc:Work
         rdf:about="">
        <dc:format>image/svg+xml</dc:format>
        <dc:type
           rdf:resource="http://purl.org/dc/dcmitype/StillImage" />
        <dc:title>Bain &amp; Company Logo</dc:title>
        <dc:date>2008.11.23</dc:date>
        <dc:creator>
          <cc:Agent>
            <dc:title>Bain &amp; Company</dc:title>
          </cc:Agent>
        </dc:creator>
        <dc:source>Frank Trampe</dc:source>
      </cc:Work>
    </rdf:RDF>
  </metadata>
  <g
     inkscape:label="Layer 1"
     inkscape:groupmode="layer"
     id="layer1">
    <path
       d="M 209.475,98.04 L 194.33625,30.0375 L 152.05875,84.79125 L 209.475,98.04 z M 263.68875,94.03125 C 263.68875,140.1675 226.21875,177.57375 180,177.57375 C 133.78125,177.57375 96.314998,140.1675 96.311248,94.03125 C 96.311248,47.89875 133.7775,10.5 180,10.5 C 184.5375,10.5 188.98875,10.875 193.335,11.565 L 186.2025,20.805 C 184.215,20.64 182.21625,20.535 180.1875,20.535 C 141.27375,20.535 109.725,51.3225 109.725,89.295 C 109.725,127.26375 141.27,158.05125 180.1875,158.05125 C 219.1125,158.0475 250.66125,127.26375 250.66125,89.295 C 250.66125,60.075 231.975,35.13375 205.63125,25.17375 L 203.08875,13.74375 C 238.07625,23.7525 263.68875,55.8975 263.68875,94.03125"
       style="fill:#ec1d28;fill-opacity:1;fill-rule:nonzero;stroke:none"
       id="path2639" />
    <path
       style="fill:#ec1d28;fill-opacity:1;fill-rule:nonzero;stroke:none"
       d="M 194.81249,188.9375 C 187.42,188.9375 181.56249,194.85249 181.56249,202.25 C 181.56249,209.91247 187.43499,215.5 194.81249,215.5 C 202.19499,215.49998 208.06249,209.59 208.06249,202.25 C 208.06251,194.34997 202.40749,188.9375 194.81249,188.9375 z M 124.6875,189 C 120.30002,189.00001 117.375,191.54499 117.375,195.1875 C 117.37502,197.77747 118.945,199.90999 120.0625,201.1875 C 117.39498,202.64247 115.0625,204.7925 115.0625,208.5 C 115.0625,212.45501 118.2975,215.5 122.9375,215.5 C 125.73002,215.49998 128.0825,214.5325 130,212.5 L 132.0625,214.9375 L 137.6875,214.9375 C 137.68752,214.93745 133.41,210.07249 132.75,209.25 C 133.36252,208.52999 136.9375,202.875 136.9375,202.875 L 132.4375,202.875 L 130.25,206.25 L 126.1875,201.75 C 129.51998,200 131.625,197.53499 131.625,194.875 C 131.62498,191.31502 128.5725,189 124.6875,189 z M 165.81249,189 C 158.64497,188.99998 152.62499,194.5 152.62499,202.1875 C 152.62501,209.9175 158.06999,215.375 165.81249,215.375 C 170.11247,215.375 173.69749,213.69249 176.06249,210.4375 L 176.18749,210.25 L 172.49999,207.1875 L 172.37499,207.4375 C 170.97747,209.97001 168.78999,211.25 165.81249,211.25 C 160.75747,211.24998 157.49999,207.3025 157.49999,202.1875 C 157.49997,197.08749 161.11499,193.1875 165.81249,193.1875 C 168.62747,193.18745 171.17,194.7 172.37499,196.8125 L 172.49999,197.0625 L 176.24999,194.0625 L 176.06249,193.875 C 173.545,190.77999 169.795,189 165.81249,189 z M 40.375005,189.125 L 28.000005,214.875 L 32.875005,214.875 L 35.312505,209.5 L 45.062505,209.5 L 47.375005,214.875 L 52.687505,214.875 L 40.375005,189.125 z M 74.625005,189.125 L 74.625005,214.875 L 79.250005,214.875 L 79.250005,200.0625 L 96.000005,215.5 L 96.000005,189.5625 L 91.375005,189.5625 L 91.375005,204.625 L 74.625005,189.125 z M 219.49999,189.125 L 213.18749,214.875 L 217.87499,214.875 L 220.93749,201.25 L 228.74999,215.5 L 236.56249,201.1875 L 239.68749,214.875 L 244.68749,214.875 L 238.06249,189.125 L 228.87499,206.25 L 219.49999,189.125 z M 283.8125,189.125 L 271.5,214.875 L 276.3125,214.875 L 278.75,209.5 L 288.5,209.5 L 290.875,214.875 L 296.125,214.875 L 283.8125,189.125 z M 302.3125,189.125 L 302.3125,214.875 L 306.9375,214.875 L 306.9375,200 L 323.6875,215.5 L 323.6875,189.5625 L 319.0625,189.5625 L 319.0625,204.625 L 302.3125,189.125 z M 7.375005,189.5625 L 7.375005,214.875 L 14.500005,214.875 C 20.982505,214.875 24.437505,212.2875 24.437505,207.625 C 24.437525,204.53251 22.500005,202.36249 19.562505,201.375 C 21.542485,200.48997 23.000005,198.53999 23.000005,196.125 C 23.000025,191.74248 19.527505,189.5625 13.437505,189.5625 L 7.375005,189.5625 z M 58.812505,189.5625 L 58.812505,214.875 L 63.625005,214.875 L 63.625005,189.5625 L 58.812505,189.5625 z M 252.87499,189.5625 L 252.87499,214.875 L 257.625,214.875 L 257.625,205.4375 C 257.95002,205.47997 258.41749,205.5625 258.8125,205.5625 C 264.93001,205.56251 269.25,202.82749 269.25,197.5625 C 269.24998,192.51499 265.64999,189.5625 258.8125,189.5625 L 252.87499,189.5625 z M 329.375,189.5625 L 338.625,204.25 L 338.625,214.875 L 343.375,214.875 L 343.375,204.25 L 352.625,189.5625 L 347.375,189.5625 L 341,199.75 L 334.8125,189.5625 L 329.375,189.5625 z M 124.625,192.4375 C 126.28748,192.43751 127.4375,193.49749 127.4375,195.0625 C 127.43752,196.8075 125.6875,198.16499 123.9375,199.0625 C 123.04252,198.19 121.75,196.79999 121.75,195.3125 C 121.75002,193.53751 122.965,192.4375 124.625,192.4375 z M 194.81249,193.125 C 199.88999,193.12498 203.12499,196.75 203.12499,202.25 C 203.12499,207.10748 199.75249,211.3125 194.81249,211.3125 C 189.86749,211.31245 186.49999,207.39499 186.49999,202.25 C 186.50001,197.50247 189.86499,193.125 194.81249,193.125 z M 12.125005,193.375 L 12.937505,193.375 C 16.452505,193.37498 18.187505,194.34 18.187505,196.875 C 18.187505,199.45749 16.435005,200.3125 13.125005,200.3125 L 12.125005,200.3125 L 12.125005,193.375 z M 257.625,193.375 L 258.8125,193.375 C 262.70002,193.36497 264.375,194.87999 264.375,197.5625 C 264.375,200.20501 262.60249,201.625 258.8125,201.625 C 258.26502,201.60749 257.9375,201.61 257.625,201.5625 L 257.625,193.375 z M 40.375005,198.125 L 43.375005,205.4375 L 37.125005,205.4375 L 40.375005,198.125 z M 283.8125,198.125 L 286.8125,205.4375 L 280.625,205.4375 L 283.8125,198.125 z M 122.4375,203.9375 L 127.375,209.6875 C 126.67248,210.65499 125.1225,211.625 123.4375,211.625 C 121.09,211.62498 119.625,210.1525 119.625,208.0625 C 119.625,206.28247 120.9425,204.72 122.3125,204 C 122.35,203.98248 122.4075,203.955 122.4375,203.9375 z M 12.125005,204.125 L 14.250005,204.125 C 17.582505,204.11748 19.500005,204.995 19.500005,207.6875 C 19.500005,210.03747 17.757505,211.0425 14.250005,211.0625 L 12.125005,211.0625 L 12.125005,204.125 z"
       id="path2599" />
    <rect
       style="fill:none;fill-opacity:1;stroke:none;stroke-width:22.5;stroke-linecap:round;stroke-linejoin:round;stroke-miterlimit:4;stroke-dasharray:none;stroke-opacity:1"
       id="rect2697"
       width="360"
       height="225"
       x="0"
       y="0" />
  </g>
</svg>
