<?xml version="1.0" encoding="UTF-8" standalone="no"?>
<!-- Created with Inkscape (http://www.inkscape.org/) -->

<svg
   xmlns:dc="http://purl.org/dc/elements/1.1/"
   xmlns:cc="http://creativecommons.org/ns#"
   xmlns:rdf="http://www.w3.org/1999/02/22-rdf-syntax-ns#"
   xmlns:svg="http://www.w3.org/2000/svg"
   xmlns="http://www.w3.org/2000/svg"
   xmlns:sodipodi="http://sodipodi.sourceforge.net/DTD/sodipodi-0.dtd"
   xmlns:inkscape="http://www.inkscape.org/namespaces/inkscape"
   version="1.1"
   id="svg29"
   xml:space="preserve"
   width="284.04794"
   height="87.233864"
   viewBox="0 0 284.04794 87.23386"
   sodipodi:docname="logo.svg"
   inkscape:version="0.92+devel unknown"><metadata
     id="metadata35"><rdf:RDF><cc:Work
         rdf:about=""><dc:format>image/svg+xml</dc:format><dc:type
           rdf:resource="http://purl.org/dc/dcmitype/StillImage" /><dc:title></dc:title></cc:Work></rdf:RDF></metadata><defs
     id="defs33" /><sodipodi:namedview
     pagecolor="#ffffff"
     bordercolor="#666666"
     inkscape:document-rotation="0"
     borderopacity="1"
     objecttolerance="10"
     gridtolerance="10"
     guidetolerance="10"
     inkscape:pageopacity="0"
     inkscape:pageshadow="2"
     inkscape:window-width="1920"
     inkscape:window-height="1061"
     id="namedview31"
     showgrid="false"
     fit-margin-top="0"
     fit-margin-left="0"
     fit-margin-right="0"
     fit-margin-bottom="0"
     inkscape:zoom="1"
     inkscape:cx="219.15199"
     inkscape:cy="-50.599446"
     inkscape:window-x="0"
     inkscape:window-y="0"
     inkscape:window-maximized="0"
     inkscape:current-layer="g37" /><g
     id="g37"
     inkscape:groupmode="layer"
     inkscape:label="file"
     transform="matrix(1.3333333,0,0,-1.3333333,-57.661332,1059.1666)"><g
       id="g71"
       transform="matrix(1.1476932,0,0,1.1476932,-6.3871402,-117.32379)"><g
         transform="translate(114.435,774.87)"
         id="g39"><path
           inkscape:connector-curvature="0"
           id="path41"
           style="fill:#006f51;fill-opacity:1;fill-rule:nonzero;stroke:none"
           d="m 0,0 v -0.544 c 0,-0.297 0.049,-0.446 0.346,-0.446 5.05,-0.149 5.05,-0.693 5.05,-4.653 v -3.168 c 0,-3.366 -2.179,-5.446 -6.583,-5.446 -7.377,0 -10.546,7.078 -10.546,15.99 0,8.416 2.277,16.486 10.397,16.486 4.603,0 8.464,-3.121 8.762,-8.762 0,-0.35 0.198,-0.35 0.446,-0.35 h 0.494 c -0.048,2.281 -0.1,7.724 -0.1,10.052 H 7.97 c -0.346,0 -0.495,-0.049 -0.544,-0.247 L 6.979,16.437 H 6.931 c -2.325,2.128 -5.644,3.068 -8.763,3.068 -9.554,0 -15.89,-8.117 -15.89,-17.921 0,-1.632 0.147,-3.169 0.494,-4.605 l -0.099,-1.387 c -0.544,-7.523 -4.951,-9.849 -9.604,-9.849 -7.377,0 -10.891,6.781 -10.891,15.99 0,8.367 2.079,16.486 10.198,16.486 4.109,0 7.673,-2.626 8.415,-6.93 0.05,-0.349 0.198,-0.349 0.445,-0.349 h 0.496 c -0.049,2.278 -0.1,5.891 -0.1,8.219 h -0.297 c -0.346,0 -0.494,-0.049 -0.544,-0.247 l -0.445,-2.426 h -0.05 c -2.278,2.079 -5.446,3.019 -8.515,3.019 -9.356,0 -15.593,-8.117 -15.593,-17.921 0,-0.891 0.099,-1.781 0.198,-2.622 h -0.099 c -1.882,2.674 -5.643,4.009 -10.151,4.206 v 0.1 c 4.903,0.99 8.22,3.467 8.22,7.623 0,6.339 -6.832,7.92 -12.328,7.92 -1.484,0 -4.851,-0.098 -5.891,-0.098 -2.424,0 -5.049,0.049 -7.326,0.098 V 18.27 c 0,-0.299 0.048,-0.447 0.347,-0.447 4.008,-0.151 4.008,-0.694 4.008,-6.883 V -6.98 c 0,-6.185 0,-6.732 -3.958,-6.881 -0.349,0 -0.397,-0.149 -0.397,-0.446 v -0.543 c 2.325,0.048 4.555,0.096 6.93,0.096 2.971,0 4.259,-0.096 8.169,-0.096 8.218,0 13.317,3.911 13.665,8.91 h 0.098 c 2.524,-5.892 8.019,-9.603 15.296,-9.603 3.416,0 6.585,1.089 9.16,3.168 h 0.048 l 0.446,-2.576 c 0.05,-0.197 0.198,-0.245 0.543,-0.245 h 0.298 c 0,1.633 0.049,6.087 0.101,9.405 h 0.098 c 2.475,-6.14 8.069,-9.752 14.851,-9.752 6.584,0 9.011,4.109 11.832,4.109 0.249,0 0.347,0.098 0.347,0.495 0,0.494 -0.098,1.931 -0.098,2.771 v 2.277 c 0,4.208 0,4.752 2.871,4.901 0.345,0 0.394,0.149 0.394,0.446 L 13.86,0 C 11.534,-0.048 10,-0.097 7.624,-0.097 5.198,-0.097 2.277,-0.048 0,0 Z m -56.337,-13.563 c -4.456,0 -5.149,0.741 -5.149,6.93 V 2.28 h 1.981 c 5.94,0 11.335,-1.437 11.335,-7.825 0,-5.05 -2.969,-8.018 -8.167,-8.018 z M -61.486,3.465 V 16.93 c 0,0.347 0.049,0.448 0.544,0.497 0.693,0.048 2.376,0.101 3.17,0.101 4.156,-0.053 6.78,-2.478 6.78,-7.082 0,-5.151 -3.166,-6.981 -8.415,-6.981 h -2.079" /></g><g
         transform="translate(226.379,743.272)"
         id="g43"><path
           inkscape:connector-curvature="0"
           id="path45"
           style="fill:#006f51;fill-opacity:1;fill-rule:nonzero;stroke:none"
           d="m 0,0 c -0.291,0 -0.761,0.034 -0.761,-0.101 v -2.558 h 0.47 c 1.033,0 1.612,0.404 1.612,1.425 C 1.321,-0.37 0.763,-0.009 0,0 Z m -0.271,-3.155 h -0.49 v -0.897 c 0,-1.146 0,-1.157 0.953,-1.269 0.065,-0.012 0.075,-0.033 0.075,-0.09 v -0.314 c -0.402,0.014 -1.12,0.024 -1.56,0.024 -0.447,0 -0.985,-0.01 -1.409,-0.024 v 0.314 c 0,0.057 0.01,0.078 0.077,0.09 0.787,0.112 0.787,0.123 0.787,1.269 v 2.896 c 0,1.134 0,1.147 -0.787,1.27 -0.067,0 -0.077,0.022 -0.077,0.076 v 0.314 c 0.424,-0.009 0.962,-0.022 1.409,-0.022 0.465,0 0.899,0.022 1.24,0.022 1.094,0 2.541,-0.301 2.541,-1.637 0,-0.921 -0.446,-2.022 -2.759,-2.022 z M -6.168,-5.87 c -1.793,0 -2.587,0.739 -2.587,2.335 v 2.379 c 0,1.134 0,1.147 -0.777,1.27 -0.067,0 -0.079,0.022 -0.079,0.076 v 0.314 c 0.426,-0.009 0.966,-0.022 1.401,-0.022 0.44,0 0.965,0.013 1.391,0.022 V 0.19 c 0,-0.054 -0.012,-0.076 -0.066,-0.076 -0.787,-0.123 -0.787,-0.136 -0.787,-1.27 v -2.537 c 0,-0.919 0.474,-1.505 1.603,-1.505 1.065,0 1.594,0.552 1.594,1.606 v 1.516 c 0,1.919 0,2.054 -1.111,2.19 -0.045,0 -0.045,0.022 -0.045,0.076 v 0.314 c 0.415,-0.009 1.008,-0.022 1.469,-0.022 0.436,0 0.626,0.013 1.068,0.022 V 0.19 c 0,-0.054 -0.012,-0.076 -0.08,-0.076 -0.663,-0.123 -0.663,-0.261 -0.663,-2.19 v -1.358 c 0,-1.684 -0.795,-2.436 -2.331,-2.436 z m -6.795,6.006 c -1.134,0 -1.719,-0.922 -1.719,-2.773 0,-1.943 0.762,-2.717 1.876,-2.717 1.141,0 1.714,0.921 1.714,2.773 0,1.954 -0.749,2.717 -1.871,2.717 z m 0.087,-6.006 c -1.692,0 -3.007,1.224 -3.007,3.155 0,2.301 1.395,3.366 2.998,3.366 1.691,0 2.994,-1.222 2.994,-3.154 0,-2.289 -1.391,-3.367 -2.985,-3.367 z M -19.233,0 c -0.302,0 -0.852,0.047 -0.852,-0.101 v -2.178 h 0.583 c 0.942,0 1.482,0.339 1.482,1.213 0,0.774 -0.526,1.066 -1.213,1.066 z m 0.663,-2.459 v -0.022 c 1.905,-0.357 1.297,-2.704 2.063,-2.704 0.193,0 0.313,0.136 0.435,0.246 l 0.183,-0.224 c 0.006,-0.022 0.02,-0.035 0.02,-0.046 0,-0.021 -0.014,-0.034 -0.02,-0.056 -0.263,-0.335 -0.654,-0.536 -1.07,-0.536 -0.884,0 -1.085,0.783 -1.3,1.705 -0.202,0.885 -0.381,1.369 -1.188,1.369 h -0.638 v -1.325 c 0,-1.146 0,-1.157 0.784,-1.269 0.068,-0.012 0.078,-0.033 0.078,-0.09 v -0.314 c -0.436,0.014 -0.977,0.024 -1.414,0.024 -0.434,0 -0.962,-0.01 -1.39,-0.024 v 0.314 c 0,0.057 0.01,0.078 0.077,0.09 0.775,0.112 0.775,0.123 0.775,1.269 v 2.896 c 0,1.134 0,1.147 -0.775,1.27 -0.067,0 -0.077,0.022 -0.077,0.076 v 0.314 c 0.428,-0.009 0.956,-0.022 1.39,-0.022 0.418,0 1.079,0.022 1.392,0.022 1.291,0 2.388,-0.368 2.388,-1.457 0,-0.651 -0.402,-1.302 -1.713,-1.506 z m -3.646,0.327 c 0,-0.077 -0.013,-0.113 -0.103,-0.123 -0.797,-0.17 -0.797,-0.181 -0.797,-1.313 v -0.35 c 0,-0.223 0.026,-0.616 0.026,-0.751 0,-0.101 -0.026,-0.123 -0.092,-0.123 -0.793,0 -1.13,-1.111 -3.063,-1.111 -2.343,0 -4.101,1.625 -4.101,4.77 0,2.569 1.334,4.658 4.08,4.658 0.875,0 1.591,-0.192 2.073,-0.494 h 0.016 l 0.212,0.302 c 0.053,0.078 0.096,0.1 0.192,0.1 h 0.188 c 0,-0.627 0.024,-1.964 0.034,-2.569 H -23.9 c -0.065,0 -0.075,0 -0.097,0.091 -0.315,1.302 -1.046,1.965 -2.281,1.965 -2.184,0 -2.643,-2.135 -2.643,-4.053 0,-2.033 0.593,-4.2 2.791,-4.2 1.12,0 1.837,0.563 1.837,1.448 V -3.5 c 0,1.064 0,1.075 -1.32,1.245 -0.082,0.01 -0.091,0.046 -0.091,0.123 v 0.413 c 0.617,-0.02 1.164,-0.032 1.816,-0.032 0.639,0 1.053,0.012 1.672,0.032 z M -32.681,-3.3 c 0,-0.055 -0.01,-0.066 -0.067,-0.09 -0.571,-0.121 -0.571,-0.133 -0.571,-0.896 v -0.282 c 0,-0.157 0.026,-0.425 0.026,-0.519 0,-0.063 -0.026,-0.089 -0.073,-0.089 -0.568,0 -0.896,-0.694 -2.252,-0.694 -1.705,0 -2.971,1.134 -2.971,3.289 0,1.773 0.986,3.232 2.958,3.232 0.616,0 1.09,-0.113 1.425,-0.337 l 0.171,0.215 c 0.032,0.055 0.065,0.069 0.122,0.069 h 0.19 c 0,-0.44 0.011,-1.46 0.022,-1.877 h -0.289 c -0.045,0 -0.058,0 -0.078,0.068 -0.216,0.886 -0.679,1.347 -1.526,1.347 -1.484,0 -1.785,-1.415 -1.785,-2.717 0,-1.347 0.39,-2.807 1.853,-2.807 0.748,0 1.164,0.37 1.164,0.977 v 0.192 c 0,0.708 0,0.719 -0.987,0.829 -0.055,0.012 -0.067,0.035 -0.067,0.09 v 0.304 c 0.434,-0.014 1.064,-0.022 1.515,-0.022 0.445,0 0.794,0.008 1.22,0.022 z m -7.772,-2.57 c -0.167,0.304 -0.425,0.65 -0.649,0.967 l -2.959,4.218 h -0.025 v -2.444 c 0,-1.889 0.011,-2.091 1.1,-2.192 0.055,-0.012 0.069,-0.033 0.069,-0.09 v -0.314 c -0.415,0.014 -1.066,0.024 -1.517,0.024 -0.434,0 -0.741,-0.01 -1.165,-0.024 v 0.314 c 0,0.057 0.01,0.078 0.082,0.09 0.771,0.112 0.771,0.303 0.771,2.192 v 1.973 c 0,1.134 0,1.147 -0.771,1.27 -0.072,0 -0.082,0.022 -0.082,0.076 v 0.314 c 0.336,0 0.865,-0.022 1.089,-0.022 0.367,0 0.716,0.013 0.963,0.022 l 3.176,-4.544 v 1.964 c 0,1.873 0,2.076 -1.102,2.19 -0.069,0 -0.069,0.022 -0.069,0.076 v 0.314 c 0.43,-0.009 1.068,-0.022 1.513,-0.022 0.442,0 0.757,0.013 1.181,0.022 V 0.19 c 0,-0.054 -0.012,-0.076 -0.069,-0.076 -0.785,-0.123 -0.794,-0.317 -0.794,-2.19 V -5.87 Z m -7.007,0.169 c -0.449,0 -0.975,-0.01 -1.403,-0.024 v 0.314 c 0,0.057 0.01,0.078 0.078,0.09 0.786,0.112 0.786,0.123 0.786,1.269 v 2.896 c 0,1.134 0,1.147 -0.786,1.27 -0.068,0 -0.078,0.022 -0.078,0.076 v 0.314 c 0.428,-0.009 0.966,-0.022 1.403,-0.022 0.445,0 0.972,0.013 1.4,0.022 V 0.19 c 0,-0.054 -0.01,-0.076 -0.08,-0.076 -0.783,-0.123 -0.783,-0.136 -0.783,-1.27 v -2.896 c 0,-1.146 0,-1.157 0.783,-1.269 0.07,-0.012 0.08,-0.033 0.08,-0.09 v -0.314 c -0.428,0.014 -0.963,0.024 -1.4,0.024 z m -4.575,0 c -0.438,0 -0.965,-0.01 -1.391,-0.024 v 0.314 c 0,0.057 0.011,0.078 0.076,0.09 0.788,0.112 0.788,0.123 0.788,1.269 v 3.938 c 0,0.069 0,0.105 -0.103,0.105 h -0.514 c -0.777,0 -1.156,-0.092 -1.303,-1.282 -0.01,-0.057 -0.033,-0.057 -0.088,-0.057 h -0.281 c 0.01,0.414 0.01,1.406 0.01,1.852 0.393,0 0.885,-0.022 1.65,-0.022 h 2.343 c 0.765,0 1.244,0.022 1.64,0.022 0,-0.446 0.007,-1.438 0.007,-1.852 h -0.278 c -0.055,0 -0.078,0 -0.09,0.057 -0.136,1.19 -0.526,1.282 -1.301,1.282 h -0.516 c -0.1,0 -0.1,-0.036 -0.1,-0.105 v -3.938 c 0,-1.146 0,-1.157 0.785,-1.269 0.068,-0.012 0.077,-0.033 0.077,-0.09 v -0.314 c -0.425,0.014 -0.963,0.024 -1.411,0.024 z m -3.736,0 h -2.118 c -0.439,0 -0.911,-0.01 -1.334,-0.024 v 0.314 c 0,0.057 0.008,0.078 0.077,0.09 0.785,0.112 0.785,0.123 0.785,1.269 v 2.896 c 0,1.134 0,1.147 -0.785,1.27 -0.069,0 -0.077,0.022 -0.077,0.076 v 0.314 c 0.423,-0.009 0.964,-0.022 1.4,-0.022 0.448,0 1.143,0.013 1.571,0.022 V 0.19 c 0,-0.054 -0.012,-0.076 -0.078,-0.076 -0.955,-0.123 -0.955,-0.136 -0.955,-1.27 v -2.807 c 0,-1.155 0.011,-1.235 0.842,-1.235 h 0.438 c 0.771,0 1.131,0.25 1.291,1.425 0.009,0.059 0.032,0.068 0.075,0.068 h 0.293 c -0.012,-0.414 -0.012,-1.569 -0.012,-2.02 -0.392,0 -0.651,0.024 -1.413,0.024 z m -6.92,-0.169 c -1.795,0 -2.59,0.739 -2.59,2.335 v 2.379 c 0,1.134 0,1.147 -0.774,1.27 -0.068,0 -0.08,0.022 -0.08,0.076 v 0.314 c 0.429,-0.009 0.966,-0.022 1.404,-0.022 0.437,0 0.964,0.013 1.392,0.022 V 0.19 c 0,-0.054 -0.014,-0.076 -0.069,-0.076 -0.783,-0.123 -0.783,-0.136 -0.783,-1.27 v -2.537 c 0,-0.919 0.469,-1.505 1.603,-1.505 1.062,0 1.591,0.552 1.591,1.606 v 1.516 c 0,1.919 0,2.054 -1.111,2.19 -0.043,0 -0.043,0.022 -0.043,0.076 v 0.314 c 0.412,-0.009 1.008,-0.022 1.469,-0.022 0.436,0 0.628,0.013 1.066,0.022 V 0.19 c 0,-0.054 -0.012,-0.076 -0.08,-0.076 -0.66,-0.123 -0.66,-0.261 -0.66,-2.19 v -1.358 c 0,-1.684 -0.798,-2.436 -2.335,-2.436 z m -7.311,0.348 -0.167,-0.225 c -0.021,-0.045 -0.056,-0.054 -0.125,-0.054 h -0.166 c 0,0.425 -0.013,1.571 -0.025,2.008 h 0.295 c 0.033,0 0.065,0 0.065,-0.069 0.192,-0.989 0.673,-1.492 1.534,-1.492 0.798,0 1.294,0.361 1.294,0.932 0,1.662 -3.188,1.167 -3.188,3.277 0,1.067 0.798,1.796 1.886,1.796 0.414,0 0.861,-0.09 1.254,-0.337 l 0.145,0.215 c 0.034,0.055 0.068,0.069 0.137,0.069 h 0.19 c 0,-0.44 0.011,-1.36 0.023,-1.776 h -0.292 c -0.045,0 -0.068,0 -0.079,0.067 -0.146,0.663 -0.593,1.247 -1.378,1.247 -0.697,0 -0.989,-0.406 -0.989,-0.808 0,-1.663 3.229,-1.146 3.229,-3.268 0,-1.325 -1.119,-1.93 -2.185,-1.93 -0.708,0 -1.124,0.145 -1.458,0.348 z m -2.643,-0.348 c -0.182,0.304 -0.441,0.65 -0.665,0.967 l -2.949,4.218 h -0.023 v -2.444 c 0,-1.889 0.012,-2.091 1.1,-2.192 0.055,-0.012 0.066,-0.033 0.066,-0.09 v -0.314 c -0.416,0.014 -1.068,0.024 -1.515,0.024 -0.437,0 -0.74,-0.01 -1.166,-0.024 v 0.314 c 0,0.057 0.011,0.078 0.081,0.09 0.771,0.112 0.771,0.303 0.771,2.192 v 1.973 c 0,1.134 0,1.147 -0.771,1.27 -0.07,0 -0.081,0.022 -0.081,0.076 v 0.314 c 0.338,0 0.863,-0.022 1.089,-0.022 0.37,0 0.717,0.013 0.966,0.022 l 3.15,-4.544 h 0.021 v 1.964 c 0,1.873 -0.009,2.076 -1.099,2.19 -0.068,0 -0.068,0.022 -0.068,0.076 v 0.314 c 0.417,-0.009 1.069,-0.022 1.515,-0.022 0.438,0 0.754,0.013 1.179,0.022 V 0.19 c 0,-0.054 -0.011,-0.076 -0.078,-0.076 -0.776,-0.123 -0.785,-0.317 -0.785,-2.19 V -5.87 Z m -8.525,6.006 c -1.133,0 -1.718,-0.922 -1.718,-2.773 0,-1.943 0.763,-2.717 1.886,-2.717 1.13,0 1.714,0.921 1.714,2.773 0,1.954 -0.762,2.717 -1.882,2.717 z m 0.087,-6.006 c -1.69,0 -3.003,1.224 -3.003,3.155 0,2.301 1.39,3.366 2.991,3.366 1.695,0 3.008,-1.222 3.008,-3.154 0,-2.289 -1.404,-3.367 -2.996,-3.367 z m -15.106,0 c -0.167,0.304 -0.426,0.65 -0.649,0.967 l -2.96,4.218 h -0.024 v -2.444 c 0,-1.889 0.01,-2.091 1.1,-2.192 0.056,-0.012 0.067,-0.033 0.067,-0.09 v -0.314 c -0.414,0.014 -1.064,0.024 -1.513,0.024 -0.437,0 -0.741,-0.01 -1.168,-0.024 v 0.314 c 0,0.057 0.012,0.078 0.08,0.09 0.783,0.112 0.783,0.303 0.783,2.192 v 1.973 c 0,1.134 0,1.147 -0.783,1.27 -0.068,0 -0.08,0.022 -0.08,0.076 v 0.314 c 0.336,0 0.876,-0.022 1.099,-0.022 0.359,0 0.708,0.013 0.954,0.022 l 3.163,-4.544 h 0.021 v 1.964 c 0,1.873 -0.009,2.076 -1.111,2.19 -0.055,0 -0.055,0.022 -0.055,0.076 v 0.314 c 0.416,-0.009 1.054,-0.022 1.503,-0.022 0.438,0 0.751,0.013 1.19,0.022 V 0.19 c 0,-0.054 -0.012,-0.076 -0.08,-0.076 -0.783,-0.123 -0.796,-0.317 -0.796,-2.19 V -5.87 Z m -8.5,6.006 c -1.144,0 -1.714,-0.922 -1.714,-2.773 0,-1.943 0.75,-2.717 1.871,-2.717 1.131,0 1.716,0.921 1.716,2.773 0,1.954 -0.762,2.717 -1.873,2.717 z m 0.079,-6.006 c -1.693,0 -2.994,1.224 -2.994,3.155 0,2.301 1.389,3.366 2.982,3.366 1.693,0 3.007,-1.222 3.007,-3.154 0,-2.289 -1.392,-3.367 -2.995,-3.367 z m -5.966,0.169 c -0.439,0 -0.964,-0.01 -1.391,-0.024 v 0.314 c 0,0.057 0.013,0.078 0.079,0.09 0.773,0.112 0.773,0.123 0.773,1.269 v 3.938 c 0,0.069 0,0.105 -0.088,0.105 h -0.517 c -0.774,0 -1.154,-0.092 -1.313,-1.282 -0.011,-0.057 -0.033,-0.057 -0.077,-0.057 h -0.281 c 0.011,0.414 0.011,1.406 0.011,1.852 0.393,0 0.886,-0.022 1.649,-0.022 h 2.331 c 0.764,0 1.245,0.022 1.651,0.022 0,-0.446 0.01,-1.438 0.01,-1.852 h -0.28 c -0.057,0 -0.08,0 -0.09,0.057 -0.134,1.19 -0.538,1.282 -1.313,1.282 h -0.503 c -0.1,0 -0.1,-0.036 -0.1,-0.105 v -3.938 c 0,-1.146 0,-1.157 0.783,-1.269 0.066,-0.012 0.066,-0.033 0.066,-0.09 v -0.314 c -0.425,0.014 -0.965,0.024 -1.4,0.024 z m -6.573,0.179 -0.156,-0.225 c -0.034,-0.045 -0.066,-0.054 -0.137,-0.054 h -0.164 c 0,0.425 -0.014,1.571 -0.025,2.008 h 0.292 c 0.045,0 0.077,0 0.077,-0.069 0.18,-0.989 0.666,-1.492 1.527,-1.492 0.797,0 1.289,0.361 1.289,0.932 0,1.662 -3.185,1.167 -3.185,3.277 0,1.067 0.808,1.796 1.884,1.796 0.437,0 0.932,-0.1 1.257,-0.426 l 0.155,0.212 c 0.037,0.058 0.056,0.067 0.124,0.067 h 0.191 c 0,-0.435 0.012,-1.438 0.023,-1.852 h -0.282 c -0.043,0 -0.066,0 -0.076,0.069 -0.193,0.797 -0.607,1.415 -1.392,1.415 -0.694,0 -0.986,-0.406 -0.986,-0.808 0,-1.663 3.229,-1.146 3.229,-3.268 0,-1.325 -1.109,-1.93 -2.187,-1.93 -0.705,0 -1.109,0.145 -1.458,0.348 z m -4.047,5.658 c -1.145,0 -1.718,-0.922 -1.718,-2.773 0,-1.943 0.764,-2.717 1.874,-2.717 1.144,0 1.715,0.921 1.715,2.773 0,1.954 -0.763,2.717 -1.871,2.717 z m 0.078,-6.006 c -1.693,0 -2.995,1.224 -2.995,3.155 0,2.301 1.391,3.366 2.995,3.366 1.694,0 2.995,-1.222 2.995,-3.154 0,-2.289 -1.392,-3.367 -2.995,-3.367 z m -15.185,0.169 h -1.974 c -0.437,0 -0.977,-0.01 -1.401,-0.024 v 0.314 c 0,0.057 0.012,0.078 0.078,0.09 0.787,0.112 0.787,0.123 0.787,1.269 v 2.896 c 0,1.134 0,1.147 -0.787,1.27 -0.066,0 -0.078,0.022 -0.078,0.076 v 0.314 c 0.424,-0.009 0.964,-0.022 1.401,-0.022 h 1.491 c 0.762,0 1.256,0.022 1.649,0.022 0,-0.446 0.013,-1.255 0.023,-1.67 h -0.281 c -0.055,0 -0.078,0.01 -0.09,0.055 -0.146,0.975 -0.516,1.102 -1.289,1.102 h -0.863 c -0.09,0 -0.102,-0.036 -0.102,-0.105 v -2.131 h 0.102 c 0.761,0 0.963,0.113 1.053,0.806 0.011,0.07 0.036,0.07 0.089,0.07 h 0.291 c -0.009,-0.382 -0.021,-0.751 -0.021,-1.156 0,-0.403 0.012,-0.651 0.021,-1.031 h -0.291 c -0.053,0 -0.078,0 -0.089,0.056 -0.09,0.763 -0.292,0.852 -1.053,0.852 h -0.102 v -1.315 c 0,-1.146 0.012,-1.235 0.841,-1.235 h 0.595 c 0.763,0 1.144,0.214 1.29,1.27 0.01,0.056 0.023,0.066 0.089,0.066 h 0.291 c -0.011,-0.424 -0.022,-1.412 -0.022,-1.863 -0.393,0 -0.885,0.024 -1.648,0.024 z m -5.248,0 c -0.437,0 -0.966,-0.01 -1.39,-0.024 v 0.314 c 0,0.057 0.01,0.078 0.067,0.09 0.784,0.112 0.784,0.123 0.784,1.269 v 1.292 h -2.805 v -1.292 c 0,-1.146 0,-1.157 0.776,-1.269 0.066,-0.012 0.078,-0.033 0.078,-0.09 v -0.314 c -0.416,0.014 -0.964,0.024 -1.402,0.024 -0.439,0 -0.965,-0.01 -1.392,-0.024 v 0.314 c 0,0.057 0,0.078 0.069,0.09 0.785,0.112 0.785,0.123 0.785,1.269 v 2.896 c 0,1.134 0,1.147 -0.785,1.27 -0.069,0 -0.069,0.022 -0.069,0.076 v 0.314 c 0.416,-0.009 0.964,-0.022 1.403,-0.022 0.437,0 0.964,0.013 1.391,0.022 V 0.19 c 0,-0.054 -0.012,-0.076 -0.078,-0.076 -0.776,-0.123 -0.776,-0.136 -0.776,-1.27 v -1.066 h 2.805 v 1.066 c 0,1.134 0,1.147 -0.784,1.27 -0.057,0 -0.067,0.022 -0.067,0.076 v 0.314 c 0.413,-0.009 0.964,-0.022 1.401,-0.022 0.437,0 0.964,0.013 1.39,0.022 V 0.19 c 0,-0.054 -0.011,-0.076 -0.079,-0.076 -0.774,-0.123 -0.774,-0.136 -0.774,-1.27 v -2.896 c 0,-1.146 0,-1.157 0.774,-1.269 0.068,-0.012 0.079,-0.033 0.079,-0.09 v -0.314 c -0.414,0.014 -0.965,0.024 -1.401,0.024 z m 56.791,-0.111 c 0,0.627 0.022,2.323 0.034,2.927 h -0.347 c -0.07,0 -0.102,0 -0.113,-0.091 -0.213,-1.647 -1.078,-2.323 -2.445,-2.323 -1.893,0 -2.869,1.561 -2.869,4.177 0,1.943 0.446,4.053 2.567,4.053 1.231,0 1.939,-0.743 2.242,-2.11 0.023,-0.09 0.045,-0.09 0.111,-0.09 h 0.349 c -0.011,0.616 -0.033,2.075 -0.033,2.702 h -0.193 c -0.089,0 -0.133,-0.022 -0.189,-0.1 l -0.212,-0.302 h -0.014 c -0.48,0.302 -1.196,0.494 -2.073,0.494 -2.534,0 -3.971,-2.056 -3.971,-4.658 0,-3.119 1.741,-4.77 4.139,-4.77 1.257,0 2.03,0.337 2.411,0.504 h 0.013 l 0.21,-0.326 c 0.058,-0.087 0.103,-0.087 0.191,-0.087 z m -42.087,6.892 c 0,-1.317 -0.799,-1.788 -2.268,-1.788 h -0.561 v 3.289 c 0,0.089 0.013,0.123 0.146,0.134 0.191,0.014 0.64,0.023 0.852,0.023 1.123,-0.009 1.831,-0.47 1.831,-1.658 z m 0.749,-4.268 c 0,-1.334 -0.817,-1.93 -2.365,-1.93 -1.2,0 -1.213,0.125 -1.213,1.807 v 2.088 h 0.552 c 1.916,0 3.026,-0.516 3.026,-1.965 z m 1.379,0 c 0,1.537 -1.39,2.222 -2.868,2.302 v 0.035 c 1.075,0.234 1.981,0.898 1.981,2.04 0,1.709 -1.836,2.133 -3.317,2.133 -0.517,0 -0.763,-0.023 -1.28,-0.023 -0.637,0 -1.234,0.012 -1.826,0.023 V 2.964 c 0,-0.079 0.01,-0.102 0.098,-0.116 1.009,-0.178 1.009,-0.188 1.009,-1.849 V -3.4 c 0,-1.661 0,-1.673 -1.009,-1.854 -0.088,-0.011 -0.098,-0.033 -0.098,-0.111 v -0.36 c 0.628,0.014 1.198,0.024 1.837,0.024 0.685,0 1.01,-0.024 1.783,-0.024 2.287,0 3.69,1.134 3.69,2.537 z m -23.136,-2.537 v 0.36 c 0,0.078 -0.01,0.1 -0.101,0.111 -1.009,0.181 -1.009,0.193 -1.009,1.854 v 5.97 c 0,0.09 0.012,0.134 0.146,0.134 h 0.854 c 1.119,0 1.692,-0.153 1.905,-1.624 0.011,-0.081 0.033,-0.092 0.123,-0.092 h 0.338 c -0.013,0.607 -0.024,1.682 -0.024,2.334 -0.573,0 -1.279,-0.023 -2.39,-0.023 h -3.15 c -1.11,0 -1.815,0.023 -2.388,0.023 0,-0.652 -0.012,-1.952 -0.023,-2.556 h 0.337 c 0.089,0 0.112,0.01 0.124,0.088 0.21,1.727 0.784,1.85 1.907,1.85 h 0.851 c 0.135,0 0.146,-0.044 0.146,-0.134 V -3.4 c 0,-1.661 0,-1.673 -1.01,-1.854 -0.091,-0.011 -0.1,-0.033 -0.1,-0.111 v -0.36 c 0.617,0.014 1.099,0.024 1.739,0.024 0.637,0 1.121,-0.01 1.725,-0.024" /></g></g></g></svg>