<svg xmlns="http://www.w3.org/2000/svg" viewBox="0 0 300 297.21"><defs><style>.cls-1{fill:#30f2a2;}.cls-2{fill:#14cc80;}</style></defs><title>Buildkite portrait logo for light backgrounds</title><g id="Layer_2" data-name="Layer 2"><g id="Logo"><path d="M20.65,238.59c11.18,0,17.49,6.55,17.49,15.46a12.76,12.76,0,0,1-8.34,12.31c5.59,1.38,10.12,6.48,10.12,13.61,0,9.31-7,16-17.73,16H0V238.59ZM19,262.31c5.1,0,8.18-2.83,8.18-7.2S24.29,248,18.87,248H11v14.33Zm1.13,24.38c5.43,0,8.67-2.84,8.67-7.45s-2.92-7.7-8.5-7.7H11v15.15Z"/><path d="M70.86,291.71c-2.19,3.72-6.81,5.34-11,5.34-9.63,0-15.14-7-15.14-15.71V256.16H55.47v23c0,4.45,2.27,8,7.29,8,4.78,0,7.53-3.24,7.53-7.85V256.16H81.06v32.63a66.4,66.4,0,0,0,.4,7.21H71.18A27.57,27.57,0,0,1,70.86,291.71Z"/><path d="M95.07,236.4a6.64,6.64,0,1,1-6.64,6.72A6.64,6.64,0,0,1,95.07,236.4ZM89.72,296V256.16h10.77V296Z"/><path d="M109.16,296V237.37h10.77V296Z"/><path d="M165.82,288.79c0,2.68.16,5.59.33,7.21H155.86a27.81,27.81,0,0,1-.4-4.62c-1.79,3.16-5.83,5.59-11.18,5.59-11.34,0-19.43-8.91-19.43-21,0-11.66,7.85-20.81,19.11-20.81,6.88,0,10.12,2.83,11.25,4.94V237.37h10.61Zm-20.24-1.45c5.5,0,9.8-4.22,9.8-11.42s-4.3-11.1-9.8-11.1-9.88,4.05-9.88,11.18S139.91,287.34,145.58,287.34Z"/><path d="M196.57,272.92,212.85,296h-13.2l-10.53-15.22-4.45,4.69V296H173.9V237.37h10.77V271l13.76-14.82h14.1Z"/><path d="M222.42,236.4a6.64,6.64,0,1,1-6.64,6.72A6.64,6.64,0,0,1,222.42,236.4ZM217.08,296V256.16h10.77V296Z"/><path d="M233.92,256.16c4.21,0,6.16-2.76,6.16-6.32v-5.59h9.71v11.91h8v9.55h-8V282.4c0,3.48,1.62,4.61,4.7,4.61a15.8,15.8,0,0,0,3.32-.32v8.91a16,16,0,0,1-6.07,1c-7.78,0-12.64-4.62-12.64-12.31V265.71h-5.18"/><path d="M299.43,284.58c-2,6.89-8.34,12.63-18.14,12.63-10.93,0-20.57-7.85-20.57-21.29,0-12.72,9.4-21,19.6-21,12.31,0,19.68,7.86,19.68,20.65,0,1.54-.16,3.16-.16,3.32H271.33c.25,5.27,4.7,9.07,10.05,9.07,5,0,7.77-2.51,9.06-6.07Zm-10-13c-.16-4-2.75-7.85-8.91-7.85a8.62,8.62,0,0,0-8.9,7.85Z"/><polygon class="cls-1" points="0 0 100 49 100 149 0 100 0 0"/><polygon class="cls-1" points="201 0 300 49 201 100 201 0"/><polygon class="cls-2" points="201 0 100 49 100 149 201 100 201 0"/><polygon class="cls-2" points="300 49 201 100 201 200 300 149 300 49"/></g></g></svg>