<?xml version="1.0" encoding="UTF-8"?>
<svg width="214px" height="59px" viewBox="0 0 214 59" version="1.1" xmlns="http://www.w3.org/2000/svg" xmlns:xlink="http://www.w3.org/1999/xlink">
    <!-- Generator: Sketch 49.3 (51167) - http://www.bohemiancoding.com/sketch -->
    <title>Chewy</title>
    <desc>Created with Sketch.</desc>
    <defs></defs>
    <g id="Chewy" stroke="none" stroke-width="1" fill="none" fill-rule="evenodd">
        <path d="M164.838247,14.7214457 C164.580479,11.7448591 162.034648,9.29969929 158.001925,9.65099821 C154.164269,9.98438386 152.864483,11.8961267 152.495248,14.5273853 L149.949417,34.3384545 L149.81705,34.3503966 L144.353168,17.4999911 C142.709027,12.3777943 141.662032,11.0701264 136.437008,11.5229338 C131.213975,11.9777315 130.27148,13.3918838 129.671349,18.7758132 L127.592287,36.2800527 L127.460916,36.2909997 L121.143115,17.2502006 C120.32204,14.7214457 118.711737,13.0634741 114.876072,13.3958646 C112.32228,13.6177898 110.551743,14.8418626 109.660006,16.4640076 C109.547544,15.668858 109.225085,14.8010601 108.676706,13.8307587 C106.128885,9.32258846 96.9228912,2.47574285 83.6294357,9.98438386 C78.9587621,12.623604 75.4565035,16.1803811 73.8402295,20.4148764 C72.0278926,17.2840368 68.660987,15.1274795 63.3543534,14.6418312 C58.7274706,14.217884 55.3894269,15.712646 52.6166809,19.0584446 L52.4843137,19.0465025 L53.5502185,7.41084566 C53.9751871,2.78424898 51.3248561,0.406761446 47.3588143,0.0445155448 C43.3897868,-0.319720719 40.3552921,1.53629194 39.9293283,6.16388381 L36.6490086,41.9953775 C36.2270257,46.6229694 38.8743711,48.9984666 42.8424034,49.3617076 C46.8074498,49.7249487 49.8449304,47.8709264 50.269899,43.2423393 L51.3766087,31.1439234 C51.7528103,27.0447726 53.6467571,24.5528392 57.0196342,24.8603502 C60.3905209,25.1698514 61.855518,27.371192 61.5101688,31.1389475 L60.316873,44.1618866 C59.8938948,48.7904736 62.544226,51.1649756 66.5102676,51.5292119 C70.4782999,51.892453 73.5137899,50.0384308 73.9377632,45.4098436 L74.9718203,34.1185195 C75.1808213,34.5404762 75.3997747,34.9634282 75.6406233,35.3903609 C81.8449657,46.3721838 92.077055,47.0737864 101.556741,41.7177219 C108.468701,37.8136267 111.975935,34.204105 113.283684,31.2265233 L118.404207,43.2761755 C120.666394,48.6113411 122.197077,49.3437943 126.892632,48.9357701 C131.986283,48.4929145 134.854572,47.7773793 135.716452,41.5724256 L137.693005,26.7402472 L137.827362,26.7302953 L142.330835,40.9992013 C144.247672,46.9633212 147.198566,47.1733044 152.291223,46.7294538 C156.987772,46.3214295 158.368174,45.3362003 159.675923,39.6915333 L164.043048,20.9204284 C164.72877,18.0622685 164.988528,16.4401233 164.838247,14.7214457 Z M88.126937,16.5953715 C91.0738504,14.9304336 94.5243565,14.9632746 96.8761148,19.1251218 L85.7194451,25.4266082 C83.5080161,21.1095128 85.4676488,18.0970997 88.126937,16.5953715 Z M107.39782,24.3896296 C103.757222,26.4456736 103.302396,31.5827981 98.9671195,34.0309436 C95.0936353,36.2183515 91.4938428,34.9743751 89.0505221,31.3220607 L105.928841,21.7882263 C107.357015,20.9821297 108.384105,20.1660812 109.005136,19.2734037 C109.008122,19.3719267 109.008122,19.4704496 109.016084,19.5689725 C109.134518,20.9383416 109.504748,22.2121735 110.237247,24.0333547 C109.287785,23.820386 108.283586,23.8890534 107.39782,24.3896296 Z M193.938145,13.085368 C190.450815,12.6156426 188.456348,14.4895684 186.386244,19.9053437 L180.223701,35.8232646 L180.091334,35.8043562 L177.727633,16.0599642 C177.34347,12.4574088 175.712266,10.6302564 172.620048,10.2142707 C168.804288,9.69976208 165.637426,11.8194977 165.194543,15.1095663 C165.052224,16.163463 165.238334,18.263295 166.261443,23.089923 L170.728092,44.6574868 C170.978893,45.7641281 171.11126,46.7861791 171.031641,47.379307 C170.897283,48.3665266 170.085166,48.9258183 167.320381,48.5526254 C164.229158,48.1366397 161.991853,48.8402327 161.556932,52.0636241 C161.088173,55.5517338 163.427988,58.0775032 168.823198,58.8039853 C174.482147,59.5662941 180.66758,58.3879997 184.78888,50.1697946 L195.796263,28.1384766 C197.986792,23.8114293 199.390084,20.852756 199.539371,19.7341725 C200.062868,15.8529666 197.226426,13.5272284 193.938145,13.085368 Z M36.9227003,35.0410523 C36.4778269,32.6934202 34.1579164,30.4293834 30.9602019,31.0354485 C27.2419756,31.7420272 26.1233228,36.8871131 21.6228358,37.7409785 C16.9272813,38.6316655 14.6631043,34.5335099 13.8211291,30.0989832 C13.1284403,26.4456736 13.5016562,21.6449202 18.9804668,20.6069463 C23.7427026,19.703322 26.144223,24.1786512 29.602691,23.5238221 C32.2779031,23.0162797 34.0713303,20.7164162 33.4891134,17.6512587 C32.5983713,12.9540041 25.5470773,9.6300994 16.154973,11.4124687 C5.45711023,13.4416428 -1.9046993,20.5820668 0.435116059,32.9093745 C2.78587908,45.3013689 12.2526267,49.2492521 22.9494942,47.2180876 C34.886434,44.9550459 37.4442075,37.7807857 36.9227003,35.0410523 Z" id="Shape" fill="#00AEEF" fill-rule="nonzero"></path>
    </g>
</svg>