<?xml version="1.0" encoding="utf-8"?>
<!-- Generator: Adobe Illustrator 22.0.1, SVG Export Plug-In . SVG Version: 6.00 Build 0)  -->
<svg version="1.1" id="Layer_1" xmlns="http://www.w3.org/2000/svg" xmlns:xlink="http://www.w3.org/1999/xlink" x="0px" y="0px"
	 viewBox="0 0 595.3 353.9" style="enable-background:new 0 0 595.3 353.9;" xml:space="preserve">
<g>
	<g>
		<path d="M287.6,179.4c-2.1,2.1-5.2,3.2-8.7,3.2h-11.8v-33.5H279c3.5,0,6.5,1,8.7,3.2c3.6,3.6,3.4,8.5,3.4,13.4
			C291,170.4,291.3,175.8,287.6,179.4z M284.1,155.9c-1.4-1.6-3.3-2.3-5.7-2.3h-6.2V178h6.2c2.4,0,4.3-0.7,5.7-2.3
			c1.7-1.9,1.8-5.6,1.8-10.2C285.9,161,285.9,157.8,284.1,155.9z"/>
		<path d="M335.4,182.9c-6.8,0-12-4.7-12-11.6v-22.2h5.1v22c0,4.5,2.7,7.3,6.9,7.3c4.2,0,7-2.8,7-7.3v-22h5.1v22.2
			C347.5,178.2,342.2,182.9,335.4,182.9z"/>
		<g>
			<path d="M314.4,170.7c-1.6,1.6-3.9,2.8-7.2,2.8c-3.2,0-5.6-1.2-7.1-2.8c-2.3-2.4-2.8-5.4-2.8-9.4c0-4,0.6-7,2.8-9.4
				c1.6-1.6,3.9-2.8,7.1-2.8c3.3,0,5.6,1.2,7.2,2.8c2.3,2.4,2.8,5.4,2.8,9.4C317.3,165.3,316.7,168.3,314.4,170.7z M310.8,154.7
				c-0.9-0.9-2.1-1.4-3.5-1.4c-1.4,0-2.6,0.5-3.5,1.4c-1.5,1.5-1.6,4-1.6,6.5c0,2.6,0.2,5.1,1.6,6.5c0.9,0.9,2.1,1.4,3.5,1.4
				c1.4,0,2.6-0.5,3.5-1.4c1.5-1.5,1.6-4,1.6-6.5C312.5,158.7,312.3,156.2,310.8,154.7z"/>
			<circle cx="314.7" cy="180.7" r="2.4"/>
		</g>
		<path d="M368.3,182.6h-13.6v-33.5h13c6.2,0,10.1,3.5,10.1,9.2c0,3.6-2.3,6.2-4.5,7.1c2.6,1,5,3.5,5,7.8
			C378.5,179.3,374.3,182.6,368.3,182.6z M367.4,153.6h-7.5v9.6h7.5c3.2,0,5.5-1.7,5.5-4.8C372.9,155.3,370.6,153.6,367.4,153.6z
			 M367.9,167.8h-8V178h8c3.5,0,5.5-2.2,5.5-5.1C373.4,169.9,371.4,167.8,367.9,167.8z"/>
		<path d="M385.1,182.6v-33.5h5.1v29h16.2v4.6H385.1z"/>
		<path d="M411.2,182.6v-33.5h21.4v4.6h-16.3v9.8h13.9v4.5h-13.9V178h16.3v4.6H411.2z"/>
		<path d="M267.2,232.3v-33.5h21.4v4.6h-16.3v9.8h13.9v4.5h-13.9v10.1h16.3v4.6H267.2z"/>
		<path d="M304.5,232.6c-5,0-8.7-1.2-11.9-4.4l3.4-3.3c2.4,2.4,5.1,3.2,8.6,3.2c4.4,0,6.9-1.9,6.9-5.1c0-1.5-0.4-2.7-1.3-3.5
			c-0.8-0.8-1.7-1.1-3.7-1.4l-4-0.6c-2.7-0.4-4.9-1.3-6.4-2.7c-1.6-1.6-2.4-3.7-2.4-6.4c0-5.8,4.2-9.8,11.2-9.8
			c4.4,0,7.5,1.1,10.4,3.8l-3.3,3.2c-2.1-2-4.5-2.6-7.3-2.6c-4,0-6.1,2.3-6.1,5.2c0,1.2,0.4,2.3,1.3,3.1c0.8,0.8,2.2,1.3,3.8,1.6
			l3.8,0.6c3.1,0.5,4.9,1.2,6.3,2.5c1.8,1.6,2.7,4,2.7,6.9C316.6,229,311.5,232.6,304.5,232.6z"/>
		<path d="M336.1,219.2h-7.6v13.2h-5.1v-33.5h12.7c6.5,0,10.7,4.3,10.7,10.2C346.9,214.8,342.7,219.2,336.1,219.2z M335.8,203.4
			h-7.3v11.2h7.3c3.5,0,5.9-2,5.9-5.6C341.8,205.5,339.4,203.4,335.8,203.4z"/>
		<path d="M371.5,232.3l-7.1-14.1h-6.4v14.1H353v-33.5h13c6.4,0,10.4,4.1,10.4,9.8c0,4.8-2.9,7.9-6.7,8.9l7.7,14.8H371.5z
			 M365.7,203.4h-7.5v10.5h7.5c3.4,0,5.7-1.9,5.7-5.2C371.3,205.4,369,203.4,365.7,203.4z"/>
		<path d="M383.9,232.3v-33.5h21.4v4.6H389v9.8h13.9v4.5H389v10.1h16.3v4.6H383.9z"/>
		<path d="M421.2,232.6c-5,0-8.7-1.2-11.9-4.4l3.4-3.3c2.4,2.4,5.1,3.2,8.6,3.2c4.4,0,6.9-1.9,6.9-5.1c0-1.5-0.4-2.7-1.3-3.5
			c-0.8-0.8-1.7-1.1-3.7-1.4l-4-0.6c-2.7-0.4-4.9-1.3-6.4-2.7c-1.6-1.6-2.4-3.7-2.4-6.4c0-5.8,4.2-9.8,11.2-9.8
			c4.4,0,7.5,1.1,10.4,3.8l-3.2,3.2c-2.1-2-4.5-2.6-7.3-2.6c-4,0-6.1,2.3-6.1,5.2c0,1.2,0.4,2.3,1.3,3.1c0.8,0.8,2.2,1.3,3.8,1.6
			l3.8,0.6c3.1,0.5,4.9,1.2,6.3,2.5c1.8,1.6,2.7,4,2.7,6.9C433.3,229,428.2,232.6,421.2,232.6z"/>
		<path d="M448.7,232.6c-5,0-8.7-1.2-11.9-4.4l3.4-3.3c2.4,2.4,5.1,3.2,8.6,3.2c4.4,0,6.9-1.9,6.9-5.1c0-1.5-0.4-2.7-1.3-3.5
			c-0.8-0.8-1.7-1.1-3.7-1.4l-4-0.6c-2.7-0.4-4.9-1.3-6.4-2.7c-1.6-1.6-2.4-3.7-2.4-6.4c0-5.8,4.2-9.8,11.2-9.8
			c4.4,0,7.5,1.1,10.4,3.8l-3.2,3.2c-2.1-2-4.5-2.6-7.3-2.6c-4,0-6.1,2.3-6.1,5.2c0,1.2,0.4,2.3,1.3,3.1c0.8,0.8,2.2,1.3,3.8,1.6
			l3.8,0.6c3.1,0.5,4.9,1.2,6.3,2.5c1.8,1.6,2.7,4,2.7,6.9C460.8,229,455.7,232.6,448.7,232.6z"/>
		<path d="M487.3,229c-2.3,2.3-5.3,3.6-8.9,3.6c-3.6,0-6.5-1.3-8.8-3.6c-3.3-3.3-3.2-7-3.2-13.5c0-6.5,0-10.2,3.2-13.5
			c2.3-2.3,5.2-3.6,8.8-3.6c3.6,0,6.5,1.3,8.9,3.6c3.3,3.3,3.2,7,3.2,13.5C490.5,222,490.6,225.8,487.3,229z M483.4,205.2
			c-1.2-1.3-3-2.1-5-2.1s-3.8,0.8-5,2.1c-1.6,1.8-2,3.7-2,10.4s0.3,8.6,2,10.4c1.2,1.3,3,2.1,5,2.1s3.8-0.8,5-2.1
			c1.6-1.8,2-3.7,2-10.4S485.1,207,483.4,205.2z"/>
	</g>
	<g>
		<path d="M170.8,108.4c-39.6,0-71.6,32.1-71.6,71.6s32.1,71.6,71.6,71.6s71.6-32.1,71.6-71.6S210.4,108.4,170.8,108.4z
			 M170.8,237.7c-31.8,0-57.7-25.8-57.7-57.7s25.8-57.7,57.7-57.7s57.7,25.8,57.7,57.7S202.7,237.7,170.8,237.7z"/>
	</g>
	<circle cx="170.8" cy="180.1" r="36.2"/>
	<circle cx="239.8" cy="110.5" r="12.4"/>
</g>
</svg>
