<?xml version="1.0" encoding="UTF-8"?>
<svg width="238px" height="208px" viewBox="0 0 238 208" version="1.1" xmlns="http://www.w3.org/2000/svg" xmlns:xlink="http://www.w3.org/1999/xlink">
    <!-- Generator: Sketch 52.5 (67469) - http://www.bohemiancoding.com/sketch -->
    <title>Logo-DrizlyRed</title>
    <desc>Created with Sketch.</desc>
    <defs>
        <polygon id="path-1" points="0.06 0.117353872 237.458 0.117353872 237.458 208 0.06 208"></polygon>
    </defs>
    <g id="Page-1" stroke="none" stroke-width="1" fill="none" fill-rule="evenodd">
        <g id="Logo-DrizlyRed">
            <g id="Group-3">
                <mask id="mask-2" fill="white">
                    <use xlink:href="#path-1"></use>
                </mask>
                <g id="Clip-2"></g>
                <path d="M168.405,81.708 L145.681,87.143 L146.146,38.701 L153.835,36.862 L153.432,79.152 L168.462,75.556 L168.405,81.708 Z M134.91,47.005 L116.099,88.081 L134.56,83.666 L134.502,89.819 L107.582,96.257 L107.635,90.826 L126.443,49.748 L109.383,53.827 L109.441,47.48 L134.963,41.376 L134.91,47.005 Z M95.767,99.083 L88.078,100.923 L88.539,52.481 L96.228,50.641 L95.767,99.083 Z M68.574,105.588 L61.48,88.472 L56.445,89.677 L56.267,108.531 L48.787,110.321 L49.25,61.878 L60.576,59.169 C70.363,56.827 75.916,59.809 75.818,70.087 C75.765,75.521 73.9,81.062 68.351,84.937 L76.195,103.765 L68.574,105.588 Z M232.534,27.214 C228.4,26.819 216.966,27.41 214.116,26.228 C211.264,25.046 207.526,22.289 206.145,20.321 C204.766,18.352 199.055,12.05 194.723,10.474 C190.391,8.9 184.288,8.701 181.925,8.701 C179.557,8.701 173.454,8.703 171.093,7.718 C168.729,6.733 165.403,-0.907 162.229,0.233 C162.229,0.233 156.716,0.627 153.171,8.308 C149.626,15.988 150.612,17.169 136.433,20.321 C122.256,23.471 107.48,22.29 101.377,25.639 C95.275,28.985 88.771,40.408 72.427,40.998 C56.086,41.589 50.568,40.014 32.451,51.435 C20.199,59.159 15.338,65.888 12.801,70.596 L19.051,69.101 C31.076,66.224 37.738,70.05 37.558,88.775 C37.381,107.499 30.404,114.718 18.588,117.543 L8.383,119.985 L8.779,78.392 C5.908,83.684 0.976,93.888 0.15,103.426 C-0.832,114.847 3.304,133.162 3.894,139.268 C4.486,145.373 6.652,152.857 6.457,157.189 C6.256,161.521 4.289,172.746 6.457,175.11 C8.619,177.475 21.623,184.167 30.48,179.444 C39.343,174.715 35.008,171.76 33.433,170.383 C31.859,169.006 29.105,165.264 27.924,163.689 C26.742,162.113 27.135,160.341 27.728,159.159 C28.316,157.976 30.48,149.902 31.072,148.523 C31.664,147.147 40.724,133.754 41.51,131.192 C42.297,128.634 49.388,129.42 50.963,130.799 C52.541,132.178 55.297,141.039 55.492,144.977 C55.691,148.917 55.887,159.751 59.234,163.094 C62.582,166.444 75.955,167.007 78.334,167.037 C82.34,167.089 86.394,164.264 83.838,161.704 C81.277,159.146 75.183,153.056 74.199,151.675 C73.218,150.296 75.185,144.192 76.957,141.828 C78.732,139.465 79.957,138.873 81.117,141.434 C82.277,143.994 87.789,159.751 88.973,169.203 C90.152,178.656 90.351,191.851 91.138,194.214 C91.924,196.577 103.347,208 109.453,208 C115.556,208 134.851,204.256 125.601,193.031 C116.345,181.806 115.357,185.546 114.967,175.699 C114.574,165.854 116.345,146.555 116.937,141.237 C117.527,135.92 117.722,135.133 118.904,137.887 C120.09,140.647 122.449,162.116 124.224,168.809 C125.996,175.504 126.935,183.74 134.068,186.532 C141.101,189.286 160.489,192.692 165.182,189.093 C168.065,186.882 163.409,183.38 158.684,179.641 C153.958,175.899 146.279,171.565 146.082,166.248 C145.883,160.931 149.823,140.645 152.186,134.936 C154.548,129.223 155.927,122.726 156.518,113.863 C157.108,105.001 158.091,90.626 159.469,89.838 C160.567,89.212 170.864,84.234 180.781,78.459 L180.952,60.682 L169.987,32.998 L177.745,31.143 L185.087,51.725 L185.292,51.676 L192.989,27.497 L200.19,25.774 L188.575,58.859 L188.433,73.752 C199.688,66.39 203.404,65.014 205.755,63.253 C208.118,61.48 215.794,62.07 222.292,58.132 C228.792,54.194 228.57,50.845 228.57,50.845 C228.57,50.845 232.341,47.89 233.322,43.952 C234.306,40.015 237.458,38.044 237.458,33.319 C237.458,28.592 236.669,27.61 232.534,27.214 Z" id="Fill-1" fill="#E12C2C" mask="url(#mask-2)"></path>
            </g>
            <path d="M60.377,65.421 L56.67,66.306 L56.504,83.851 L60.492,82.898 C66.013,81.576 68.271,78.751 68.338,72.007 C68.4,65.591 66.25,64.015 60.377,65.421" id="Fill-4" fill="#E12C2C"></path>
            <path d="M29.799,90.631 C29.922,77.8 27.521,73.345 19.902,75.167 L16.474,75.988 L16.129,112.059 L19.627,111.223 C27.176,109.416 29.672,103.659 29.799,90.631" id="Fill-5" fill="#E12C2C"></path>
        </g>
    </g>
</svg>