<?xml version="1.0" encoding="UTF-8"?>
<svg width="370px" height="251px" viewBox="0 0 370 251" version="1.1" xmlns="http://www.w3.org/2000/svg" xmlns:xlink="http://www.w3.org/1999/xlink">
    <!-- Generator: Sketch 48.2 (47327) - http://www.bohemiancoding.com/sketch -->
    <title>GalsTech</title>
    <desc>Created with Sketch.</desc>
    <defs></defs>
    <g id="Artboard-3" stroke="none" stroke-width="1" fill="none" fill-rule="evenodd" transform="translate(-15.000000, -74.000000)">
        <g id="GalsTech" transform="translate(15.000000, 74.000000)">
            <path d="M111.741048,169.21402 L85.9310757,169.21402 L85.9310757,249.601328 L63.1457098,249.601328 L63.1457098,169.21402 L37.5373781,169.21402 L37.5373781,151.738518 L111.741048,151.738518 L111.741048,169.21402 Z M182.11355,207.727337 L143.734659,207.727337 L143.734659,232.125826 L188.969324,232.125826 L188.969324,249.601328 L120.949293,249.601328 L120.949293,151.738518 L189.10375,151.738518 L189.10375,169.21402 L143.734659,169.21402 L143.734659,190.251835 L182.11355,190.251835 L182.11355,207.727337 Z M275.473058,215.255246 L275.607485,215.658527 C275.159393,227.129683 271.765147,235.88975 265.424644,241.938993 C259.084142,247.988235 249.887191,251.012811 237.833515,251.012811 C225.735031,251.012811 215.899558,247.293703 208.326803,239.855375 C200.754047,232.417048 196.967726,222.760809 196.967726,210.88637 L196.967726,190.453476 C196.967726,178.623846 200.608419,168.97881 207.889915,161.518077 C215.171411,154.057345 224.637213,150.327035 236.287606,150.327035 C248.654946,150.327035 258.109546,153.441228 264.651689,159.669707 C271.193833,165.898186 274.890537,174.747871 275.741912,186.219027 L275.607485,186.622308 L253.494254,186.622308 C253.180589,180.259401 251.757918,175.532101 249.226198,172.440266 C246.694478,169.348431 242.381657,167.802537 236.287606,167.802537 C231.134547,167.802537 227.079375,169.874931 224.121968,174.019783 C221.16456,178.164634 219.685879,183.597668 219.685879,190.319049 L219.685879,210.88637 C219.685879,217.65256 221.298986,223.119201 224.525249,227.286457 C227.751511,231.453713 232.187556,233.537309 237.833515,233.537309 C243.300238,233.537309 247.176176,232.081032 249.461446,229.168434 C251.746715,226.255836 253.046162,221.618153 253.359827,215.255246 L275.473058,215.255246 Z M369.370274,249.601328 L346.719335,249.601328 L346.719335,210.214236 L310.491275,210.214236 L310.491275,249.601328 L287.705909,249.601328 L287.705909,151.738518 L310.491275,151.738518 L310.491275,192.738734 L346.719335,192.738734 L346.719335,151.738518 L369.370274,151.738518 L369.370274,249.601328 Z" id="TECH" fill="#444444"></path>
            <path d="M101.48894,73.3171545 C101.665136,75.2553113 100.960351,76.841076 100.079371,78.6030367 C97.9650182,82.8317426 95.6744692,87.0604484 93.3839202,91.2891542 C92.1505477,93.7558993 92.5029398,95.51786 91.4457634,98.3369972 C89.8599987,103.094291 87.5694497,107.851585 85.807489,112.785075 L75.2357244,138.685899 C72.064195,146.790918 67.8354892,154.543545 65.5449402,162.648565 C63.2543912,171.105977 58.4970972,179.0348 54.4445874,186.611231 C50.2158816,194.716251 46.515764,202.82127 40.8774896,210.045309 C37.8821563,214.097819 33.8296466,219.383701 29.0723525,221.498054 C24.3150585,223.612407 18.1481958,222.026643 13.5670978,220.088486 C-1.58576468,213.745427 -2.99533329,198.416368 4.22870582,185.377859 C8.63360772,177.625231 14.8004704,170.753584 21.6721173,165.11531 C24.3150585,163.177153 26.6056075,160.710408 29.0723525,158.596055 C30.8343133,157.010291 34.0058426,153.133977 36.6487838,152.957781 C42.1108621,152.605389 33.6534505,160.710408 32.7724701,161.767585 C27.1341957,168.815428 22.2007056,176.568055 18.3243919,184.849271 C15.6814508,190.135153 8.45741164,203.526055 13.5670978,209.164329 C18.3243919,214.626407 25.0198428,206.697584 27.83898,202.997466 C38.7631367,188.0208 45.6347837,169.872604 52.5064306,152.781585 C59.3780776,135.161977 65.3687442,117.189977 71.7118029,99.2179776 C65.5449402,109.43735 58.4970972,119.480526 50.7444699,128.466526 C45.8109797,133.928605 39.467921,140.976448 31.7152937,141.857428 C18.500588,143.443193 7.57643126,126.704565 7.92882341,115.075624 C7.92882341,114.899428 7.22403911,111.375507 7.92882341,110.670723 L7.92882341,113.842252 L8.45741164,109.789742 C7.92882341,110.670723 8.28121557,105.38484 8.45741164,104.327664 C9.33839202,100.803742 10.3955685,97.2798208 11.8051371,93.7558993 C13.91949,88.1176248 16.5624311,82.4793504 18.676784,76.841076 C20.791137,71.2028016 23.7864702,66.0931154 27.1341957,60.9834292 C27.83898,59.9262527 35.0630191,48.2973117 36.2963916,48.8258999 C36.2963916,48.8258999 35.0630191,50.9402528 35.2392152,50.9402528 C36.8249799,48.8258999 38.5869406,46.0067627 40.7012935,43.3638216 L39.2917249,44.7733902 C39.9965092,41.954253 43.8728229,38.9589197 45.6347837,36.8445668 C48.2777248,33.8492335 50.7444699,30.8539002 53.5636071,28.034763 C58.8494893,22.9250768 65.1925481,17.6391945 72.7689793,16.7582141 C81.226391,15.5248416 88.9790183,20.4583317 93.5601163,27.5061747 C95.145881,29.9729198 95.145881,31.7348806 95.4982731,34.2016256 C95.6744692,36.4921746 96.9078417,38.2541354 96.9078417,40.7208804 C97.0840378,47.0639392 91.7981555,53.0546057 87.3932536,57.2833116 C83.1645478,61.3358213 76.645293,67.1502918 70.8308225,68.7360565 C67.4830971,69.6170369 67.8354892,68.5598604 68.8926657,67.1502918 C68.3640774,67.502684 67.8354892,68.0312722 67.8354892,67.67888 C68.0116853,66.7978997 74.8833323,56.2261351 75.5881166,56.4023312 C75.5881166,56.4023312 72.9451754,61.3358213 72.7689793,61.6882135 C76.645293,55.6975469 79.8168224,49.3544882 81.7549792,42.6590373 C82.6359596,39.4875079 84.0455282,34.3778217 82.6359596,31.2062923 C79.6406263,25.0394297 68.3640774,37.5493511 63.6067834,42.8352333 C65.8973324,40.3684883 68.1878814,37.9017432 70.8308225,35.4349982 C72.9451754,33.6730374 76.8214891,29.7967237 79.6406263,29.7967237 C85.807489,29.7967237 81.226391,43.3638216 81.0501949,43.3638216 C80.1692145,43.1876255 86.1598811,28.9157433 79.2882341,30.325312 C73.4737636,31.5586845 67.6592931,39.1351157 63.9591755,43.3638216 C53.387411,55.3451547 44.225215,69.2646447 36.8249799,83.3603308 C33.1248623,90.5843699 29.7771368,98.1608012 26.6056075,105.561036 C24.6674506,110.142134 19.0291762,121.418683 23.0816859,125.999781 C27.83898,131.46186 39.467921,121.066291 42.2870582,118.599546 C41.75847,118.951938 39.6441171,121.066291 38.9393328,120.713899 C38.9393328,120.713899 47.2205483,112.432683 47.7491366,111.727899 L57.0875286,101.508527 C63.7829795,93.9320953 69.9498421,86.0032719 76.1167048,78.0744485 C78.5834498,74.9029192 81.4025871,71.7313898 83.3407439,68.3836643 C84.0455282,67.3264879 84.2217243,65.7407232 84.3979203,65.3883311 C88.0980379,57.8118998 100.960351,67.1502918 101.48894,73.3171545 Z M24.1388624,74.0219388 C18.500588,83.7127229 14.0956861,94.1082914 11.9813332,104.856252 C13.7432939,97.1036247 17.6196076,89.3509974 20.791137,82.3031543 C24.4912545,74.0219388 29.7771368,65.9169193 34.7106269,58.340488 C36.8249799,55.3451547 38.9393328,52.1736254 41.2298818,49.1782921 C42.2870582,47.7687235 43.6966268,44.5971941 45.2823915,43.1876255 C41.2298818,46.5353509 37.8821563,52.5260175 35.0630191,56.7547233 C31.1867054,62.2168017 27.6627839,68.2074683 24.1388624,74.0219388 Z M91.9743516,88.6462131 L93.7363124,84.2413112 C86.6884693,99.2179776 80.1692145,114.723232 74.8833323,130.404683 C76.9976852,124.061624 80.5216067,117.894762 83.1645478,111.551703 C86.3360772,104.151468 89.1552144,96.3988404 91.9743516,88.6462131 Z M69.2450578,143.443193 C70.1260382,142.20982 70.6546264,140.624055 71.3594107,139.390683 C70.6546264,140.095467 69.9498421,140.800252 69.59745,141.505036 L67.8354892,145.557546 C68.1878814,144.852761 68.7164696,144.147977 69.2450578,143.443193 Z M67.6592931,146.086134 L67.8354892,145.557546 C67.6592931,145.733742 67.6592931,145.909938 67.6592931,146.086134 Z M55.1493718,53.4069979 C55.1493718,53.583194 54.9731757,53.75939 54.7969796,53.75939 C54.9731757,53.75939 55.1493718,53.583194 55.1493718,53.4069979 Z M188.559167,108.027781 C188.911559,112.080291 185.035246,116.132801 183.625677,119.480526 C181.335128,124.766409 178.692187,129.523703 175.87305,134.280997 C172.525324,139.566879 169.177599,144.676565 165.301285,149.257663 C162.129756,153.310173 157.724854,158.419859 152.438972,159.30084 C146.448305,160.358016 141.691011,155.424526 139.752854,150.138644 C135.524148,139.743075 138.519482,128.818918 141.691011,118.775742 C141.691011,118.775742 141.691011,117.189977 141.867207,115.956605 C140.105246,118.599546 137.638501,121.771075 136.052737,124.23782 C133.938384,127.585546 132.352619,130.933271 130.06207,134.104801 C129.004894,135.690565 114.556815,153.133977 112.618659,150.138644 C112.618659,150.138644 114.733011,149.257663 114.556815,148.905271 C112.442462,150.31484 109.623325,150.667232 107.15658,149.962447 C107.685168,150.31484 108.037561,150.491036 107.861364,150.491036 C103.808855,151.019624 100.637325,144.676565 99.756345,141.857428 C98.3467764,136.923938 98.6991685,131.46186 99.5801489,126.528369 C101.518306,116.308997 105.747012,105.208644 111.737678,96.3988404 C113.323443,94.2844875 114.909208,91.8177424 117.199757,90.2319778 C118.609325,88.9986052 119.842698,88.8224091 121.428462,87.7652327 C124.071403,85.4746837 126.361952,83.5365269 130.238266,83.5365269 C138.871874,83.5365269 142.395795,93.4035071 144.157756,100.098958 C148.386462,94.6368797 155.962893,87.4128405 162.482148,95.341664 C166.00607,99.5703698 163.715521,102.741899 161.777364,106.618213 C158.429638,112.785075 155.786697,120.361507 154.377129,126.704565 C154.553325,126.175977 155.081913,123.533036 155.786697,123.35684 C157.196266,123.004448 144.510148,162.824761 162.658344,140.447859 C168.120422,133.576212 172.877716,126.352173 177.635011,119.128134 C179.749363,115.780409 181.863716,112.256487 184.154265,108.908762 C185.211442,107.499193 188.382971,104.151468 188.559167,108.027781 Z M137.990893,109.261154 C138.871874,107.851585 138.871874,107.851585 138.871874,106.442017 C138.871874,105.032448 135.347952,95.341664 136.228933,94.6368797 C136.405129,94.4606836 137.990893,99.5703698 138.16709,99.9227619 C137.638501,97.808409 136.933717,91.2891542 133.762188,91.2891542 C127.947717,91.2891542 123.542815,102.037115 121.604658,106.089625 C118.080737,114.018448 114.909208,122.47586 113.499639,131.109467 C114.028227,128.466526 124.2476,96.5750365 127.419129,96.7512326 C124.952384,97.2798208 115.613992,124.414016 115.085404,126.880762 C114.733011,128.29033 111.913874,137.452526 114.556815,138.333506 C116.318776,138.862095 120.547482,133.400016 121.428462,132.166644 C124.776188,128.114134 127.947717,123.885428 130.94305,119.480526 L135.524148,112.961272 C136.228933,111.727899 137.109913,110.494526 137.990893,109.261154 Z M142.043403,117.894762 L143.629168,113.666056 L142.748188,114.899428 C142.571991,115.428017 142.043403,117.894762 142.043403,117.894762 Z M139.400462,106.970605 C139.92905,106.442017 139.92905,105.913429 139.400462,105.208644 L139.400462,106.970605 Z M246.909434,105.561036 C250.961944,101.332331 251.314336,107.851585 250.609552,110.670723 C249.552376,114.547036 247.261827,118.070958 245.147474,121.594879 C239.861591,130.052291 235.280493,139.038291 229.466023,147.495702 C223.122964,156.657898 216.251317,165.99629 208.146298,173.925114 C201.274651,180.444369 191.760063,185.554055 183.478847,177.977624 C176.078612,171.105977 176.078612,158.772251 176.6072,149.433859 C177.311984,139.566879 179.954926,130.052291 182.245475,120.537703 C182.421671,120.185311 182.245475,115.956605 183.126455,114.723232 C182.950259,115.075624 182.950259,116.308997 182.774063,117.366173 C183.126455,116.132801 183.478847,114.899428 184.007435,113.666056 L183.478847,113.666056 C182.950259,110.142134 185.417004,104.680056 186.47418,101.332331 C187.707553,97.2798208 189.117122,93.051115 190.52669,88.9986052 C193.169631,81.422174 195.988768,74.0219388 198.455514,66.4455075 C200.746063,58.8690762 204.269984,51.6450371 207.793906,44.5971941 C209.37967,41.2494687 211.141631,37.9017432 213.079788,34.5540178 C213.608376,33.6730374 217.48469,26.0966061 218.36567,26.2728022 L216.956102,29.2681355 L222.594376,19.5773513 L222.41818,19.7535474 C223.29916,18.3439788 224.532533,15.7010377 225.413513,14.6438612 L229.466023,9.18178285 C231.932768,6.18644956 234.928101,1.95774374 238.980611,0.724371206 C246.733238,-1.74237386 253.076297,6.36264563 254.133474,13.2342926 L254.30967,13.4104887 L254.30967,14.291469 C255.366846,25.0394297 249.023787,37.7255471 244.266493,46.8877431 C241.447356,52.5260175 238.452023,59.3976645 234.047121,63.9787624 C231.051788,67.3264879 229.466023,70.8504094 226.999278,74.9029192 C220.303827,85.6508798 213.079788,96.3988404 205.150964,106.265821 C203.212808,108.732566 201.979435,110.31833 201.098455,113.48986 C200.041278,116.837585 199.160298,120.185311 198.279317,123.709232 C197.222141,127.233154 196.341161,130.757075 195.46018,134.280997 C195.107788,135.866761 193.522023,140.800252 193.698219,141.152644 C193.169631,143.266997 192.817239,145.557546 192.641043,147.671898 L194.050612,142.386016 C194.931592,143.795585 193.522023,149.081467 193.345827,150.667232 C192.993435,153.310173 192.817239,156.12931 192.817239,158.948447 C192.817239,162.296173 192.817239,169.872604 197.222141,170.577388 C203.212808,171.282173 209.555866,162.296173 212.5512,158.596055 C219.775239,149.962447 225.765905,140.271663 231.756572,130.757075 C234.928101,125.823585 237.923435,120.890095 240.918768,115.780409 C242.856925,112.608879 244.442689,108.203977 246.909434,105.561036 Z M224.884925,42.4828412 C218.36567,58.1642919 213.255984,75.0791152 208.146298,90.5843699 C221.184807,69.6170369 235.985278,47.5925274 243.914101,23.9822532 C240.918768,32.4396649 236.513866,40.5446844 232.461356,48.2973117 C229.994611,52.7022136 227.704062,57.1071155 225.061121,61.5120174 C223.475356,64.1549585 220.303827,68.2074683 219.246651,71.0266055 C220.656219,66.4455075 224.884925,61.1596252 227.35167,56.9309194 L234.751905,43.1876255 C238.980611,34.7302139 245.32367,24.3346454 245.676062,14.4676651 L245.676062,14.291469 C246.028454,4.95307703 238.099631,15.5248416 236.866258,17.4629984 C231.932768,25.3918218 228.408846,34.0254295 224.884925,42.4828412 Z M219.246651,30.1491159 C217.308494,33.8492335 215.546533,37.373155 213.960768,41.2494687 C213.784572,41.4256647 213.784572,41.7780569 213.784572,41.954253 C217.660886,34.9064099 222.241984,28.210959 225.942101,20.8107239 C224.180141,23.9822532 221.008611,26.8013904 219.246651,30.1491159 Z M185.945592,121.242487 C186.121788,121.066291 186.121788,120.537703 185.769396,120.713899 C185.064612,120.713899 184.183631,124.414016 183.655043,128.466526 L183.655043,128.29033 C182.421671,134.457193 181.716886,140.976448 181.364494,147.319506 L181.893082,141.681232 L181.893082,142.20982 C181.893082,140.976448 182.245475,139.919271 182.421671,138.685899 C183.478847,133.400016 183.655043,126.704565 185.769396,121.771075 C185.769396,121.771075 185.769396,121.594879 185.945592,121.242487 Z M309.488407,109.084958 L309.488407,109.261154 C310.193192,114.899428 301.383388,119.480526 297.68327,122.123467 C292.573584,125.823585 287.463898,129.347507 281.825623,132.34284 C280.416055,133.047624 278.301702,133.752408 276.892133,134.809585 C274.953977,136.39535 275.306369,136.219154 275.658761,139.038291 C276.187349,142.20982 276.539741,145.38135 276.539741,148.729075 C276.715937,153.662565 276.187349,158.596055 274.425388,163.353349 C270.196682,174.277506 261.739271,181.325349 249.581742,180.972957 C238.833781,180.796761 227.381036,175.158486 229.671585,163.529545 C229.495389,163.881937 228.966801,166.877271 228.790605,166.701075 C227.557232,165.99629 228.790605,162.119977 229.142997,161.238996 C231.25735,154.719742 236.895624,149.610055 242.181506,145.557546 C245.17684,143.266997 248.172173,140.976448 251.167506,139.038291 C253.458055,137.628722 258.743938,135.514369 259.09633,133.047624 C259.624918,130.580879 257.334369,125.294997 256.629585,122.652056 C255.9248,119.30433 254.691428,115.780409 254.339036,112.256487 C254.16284,109.965938 254.867624,108.55637 254.339036,106.442017 C253.458055,103.62288 252.577075,100.979938 252.400879,97.9846051 C252.224683,94.9892718 252.224683,91.9939385 253.281859,89.1748013 C254.691428,84.9460955 264.02982,75.2553113 268.787114,79.6602132 C268.787114,78.7792328 271.077663,82.1269583 271.253859,83.1841347 C271.253859,83.888919 270.549075,90.4081738 269.491898,90.2319778 C269.491898,90.2319778 269.84429,88.6462131 270.020486,87.4128405 C269.139506,89.8795856 267.729937,92.1701346 267.553741,94.8130757 C267.201349,97.1036247 267.729937,99.7465659 268.08233,101.860919 C268.08233,101.508527 268.08233,101.156134 268.434722,100.979938 C268.258526,100.979938 270.196682,110.142134 271.782447,117.54237 C270.549075,112.785075 268.96331,107.146801 268.258526,103.799076 C269.668094,111.551703 271.430055,119.128134 273.192016,126.704565 C273.368212,126.528369 273.544408,126.175977 273.368212,125.294997 C273.544408,125.823585 273.720604,126.175977 273.720604,126.352173 C281.473231,122.47586 288.69727,118.775742 295.92131,114.194644 C299.092839,112.080291 302.440564,108.55637 305.78829,106.970605 C307.550251,106.265821 308.959819,106.618213 309.488407,109.084958 Z M238.305193,169.696408 C240.771938,170.577388 243.591075,170.0488 246.05782,169.520212 L250.99131,167.582055 C251.167506,167.758251 249.581742,168.815428 249.581742,168.991624 C251.696095,167.758251 253.458055,166.172486 255.04382,164.23433 L254.16284,164.939114 C255.572408,163.529545 258.920134,156.481702 259.09633,155.776918 C260.329702,151.548212 260.329702,147.319506 260.153506,143.090801 C259.801114,143.443193 259.272526,143.619389 258.920134,143.795585 L260.153506,142.738408 L258.039153,143.971781 C259.09633,143.619389 255.748604,146.26233 255.220016,146.614722 L249.934134,150.138644 C246.410212,152.605389 242.533899,155.24833 239.890957,158.772251 C238.305193,161.0628 233.724095,168.286839 238.305193,169.696408 Z M260.505898,174.806094 C265.086996,172.691741 267.553741,169.696408 269.491898,165.820094 C264.382212,173.044133 255.396212,177.272839 246.762604,177.801427 C251.519898,177.625231 255.9248,176.744251 260.505898,174.806094 Z M273.368212,124.766409 C273.192016,123.533036 272.839624,121.771075 272.311035,119.832919 C272.663428,121.771075 273.01582,123.709232 273.368212,124.766409 Z M275.658761,143.090801 C275.658761,142.914604 275.482565,142.562212 275.482565,142.20982 C275.482565,142.562212 275.482565,142.914604 275.658761,143.090801 Z" id="Gals" fill="#2BA8A2"></path>
            <path d="M296.692167,5.10724859 C299.335108,4.57866037 301.449461,4.40246429 302.506638,7.57399366 C303.563814,10.745523 303.916206,14.2694445 304.444795,17.61717 C305.149579,20.9648954 305.501971,24.3126209 305.854363,27.6603463 L306.382951,32.9462286 C306.382951,34.003405 307.087736,37.3511305 306.382951,38.4083069 C305.678167,39.4654834 304.444795,38.9368952 303.563814,38.2321109 C302.330442,36.9987383 302.330442,35.4129736 302.154246,34.003405 L300.920873,23.7840326 L299.158912,13.2122681 C298.982716,11.8026995 298.982716,10.0407387 298.277932,8.80736619 C297.573148,7.57399366 296.339775,6.69301328 296.692167,5.10724859 Z M282.067893,48.0990911 C281.891697,47.3943068 281.891697,46.6895225 281.891697,45.9847382 C283.477462,46.6895225 288.763344,48.2752872 287.001383,51.0944244 C285.768011,52.8563852 281.186913,52.8563852 279.248756,53.3849734 C272.905697,55.1469341 266.562638,57.2612871 260.043383,58.3184635 C258.633815,58.4946596 253.171737,58.3184635 254.405109,55.4993263 C254.933697,54.0897577 261.276756,54.0897577 262.686325,53.7373655 C269.381776,52.503993 275.724834,50.5658362 282.067893,48.0990911 Z M311.668834,3.87387606 C312.197422,9.86454264 310.611657,16.2076014 310.259265,22.374464 C310.083069,24.8412091 309.378285,28.8937188 310.259265,31.1842678 C310.964049,32.9462286 313.254598,33.2986207 314.311775,31.7128561 C315.545147,29.9508953 314.135579,26.0745816 314.311775,23.9602287 C314.487971,20.9648954 315.016559,17.7933661 315.368951,14.9742288 C315.721343,12.3312877 316.954716,8.45497404 316.426128,5.8120329 C316.073736,3.69767999 313.430794,2.46430746 311.668834,3.87387606 Z M337.393461,40.3464638 L354.836872,31.3604639 C357.303617,31.7128561 358.889382,32.9462286 356.246441,34.8843854 C353.779696,36.6463462 350.255774,37.5273266 347.612833,39.1130912 C344.6175,40.6988559 341.622167,42.2846206 338.803029,44.0465814 C335.807696,45.632346 332.636167,47.922895 329.112245,47.922895 C328.231265,48.0990911 326.6455,47.922895 326.293108,46.6895225 C326.116912,45.2799539 327.702677,44.9275617 328.759853,44.5751696 C331.755186,43.5179931 334.574324,41.7560324 337.393461,40.3464638 Z M315.192755,84.924071 C315.368951,87.21462 316.073736,90.5623454 315.192755,93.0290905 C314.487971,94.9672473 312.373618,94.7910512 311.316442,93.0290905 C310.787853,91.7957179 311.140246,90.9147375 311.316442,89.681365 C311.316442,88.2717964 311.316442,86.6860317 311.140246,85.2764631 C310.964049,82.2811298 310.787853,79.4619926 310.259265,76.6428554 C310.083069,75.2332868 310.083069,73.471326 309.554481,72.0617574 C309.378285,71.1807771 308.497304,70.1236006 308.497304,69.2426202 C308.6735,67.1282673 311.668834,67.6568555 312.72601,68.714032 C314.135579,70.1236006 315.368951,84.7478749 315.192755,84.924071 Z M293.696834,62.1947772 C296.868363,62.8995615 295.811187,64.4853262 294.75401,66.9520712 C293.87303,69.2426202 292.815854,71.3569731 291.758677,73.29513 C290.349109,75.9380711 289.291932,78.5810122 288.05856,81.0477573 C287.353775,82.4573259 286.120403,85.6288553 284.182246,85.9812474 C278.720168,86.5098357 285.944207,75.5856789 286.648991,74.5285025 C287.706167,72.4141496 288.763344,70.1236006 289.644324,67.8330516 C290.349109,66.0710908 291.230089,62.1947772 293.696834,62.1947772 Z M270.791344,21.8458758 C275.02005,26.6031699 279.07256,31.53666 283.653658,35.9415619 C285.591814,37.8797187 288.587148,39.9940716 289.82052,42.4608167 C291.053893,44.9275617 289.468128,46.8657186 287.353775,44.3989735 C283.477462,39.9940716 279.07256,35.7653658 275.02005,31.53666 C273.081893,29.4223071 270.08656,27.3079542 268.853187,24.665013 C268.500795,23.9602287 268.148403,22.374464 268.500795,21.6696797 C269.029383,20.7886993 270.262756,20.6125033 270.791344,21.8458758 Z M328.759853,52.6801891 C329.993226,50.7420322 332.812363,51.2706205 334.75052,51.0944244 C337.041069,50.7420322 339.155422,50.213444 341.269774,49.5086597 C342.503147,48.9800715 350.784363,44.7513657 350.608167,48.6276793 C350.608167,50.213444 347.965225,50.9182283 346.908049,51.2706205 C344.441304,52.3277969 342.150755,53.2087773 339.507814,53.7373655 C336.864873,54.4421498 330.169422,56.3803067 328.759853,52.6801891 Z M340.036402,68.0092477 C338.098245,67.8330516 336.160088,66.7758752 334.398128,66.0710908 L327.174088,63.6043458 C325.059735,62.8995615 322.769187,62.1947772 320.83103,61.1376007 C318.540481,59.9042282 318.540481,57.6136792 321.535814,57.7898753 C323.473971,57.9660714 325.059735,59.7280321 326.997892,60.4328164 C329.288441,61.4899929 331.931382,62.1947772 334.398128,63.0757576 C336.336284,63.6043458 339.68401,64.132934 341.269774,65.5425026 C342.679343,66.9520712 341.798363,68.0092477 340.036402,68.0092477 Z M339.507814,27.4841502 C337.393461,31.1842678 334.574324,34.1796011 331.402794,36.9987383 C329.993226,38.4083069 327.702677,40.875052 325.588324,41.2274441 C324.178755,41.4036402 322.240598,40.5226598 322.59299,38.7606991 C322.945383,37.7035226 325.76452,36.9987383 326.6455,36.1177579 L331.57899,31.8890521 C333.164755,30.6556796 334.75052,29.4223071 336.160088,28.0127385 C337.569657,26.7793659 337.745853,26.4269738 339.507814,27.4841502 Z M320.654834,33.1224247 C320.83103,29.0699149 322.240598,25.0174052 323.121579,21.1410915 C323.473971,20.083915 323.826363,17.61717 325.059735,17.2647778 C326.116912,16.9123857 327.174088,17.61717 327.526481,18.6743464 C327.702677,19.7315229 326.6455,22.198268 326.469304,23.2554444 C325.940716,24.665013 325.412128,25.8983855 325.059735,27.3079542 C324.531147,29.0699149 323.121579,34.1796011 320.654834,33.1224247 Z M335.455304,18.8505425 C334.75052,19.3791307 332.812363,20.7886993 332.988559,21.8458758 C333.164755,22.9030523 334.75052,23.2554444 335.6315,23.2554444 C337.922049,22.9030523 340.56499,19.2029347 342.326951,17.7933661 C344.793696,15.5028171 345.850872,14.0932485 342.326951,12.5074838 L335.455304,18.8505425 Z M305.149579,68.5378359 C304.973383,66.9520712 302.506638,64.132934 300.920873,66.0710908 C300.392285,66.7758752 300.744677,68.5378359 300.744677,69.2426202 C300.568481,70.8283849 300.216089,72.2379535 300.216089,73.6475221 C300.039893,76.4666593 302.682834,78.2286201 304.092402,75.0570907 C304.973383,73.29513 305.149579,70.4759927 305.149579,68.5378359 Z M279.601148,64.8377183 C281.010717,62.1947772 283.125069,60.0804243 284.88703,57.7898753 C285.944207,56.2041106 289.82052,53.3849734 291.230089,56.5565028 C291.758677,57.9660714 287.177579,60.4328164 285.944207,61.666189 C284.182246,63.2519536 282.244089,65.8948948 279.601148,64.8377183 Z M291.934873,82.4573259 C293.168246,82.4573259 294.930207,81.9287377 295.811187,83.1621102 C296.515971,84.0430906 296.163579,85.100267 295.811187,86.1574435 C295.106403,87.9194043 294.75401,90.2099532 293.168246,91.2671297 C287.882363,94.6148551 291.406285,84.3954827 291.934873,82.4573259 Z M340.212598,60.6090125 C338.803029,60.6090125 334.398128,58.8470517 336.688677,57.085091 C337.393461,56.5565028 339.331618,56.9088949 340.388794,56.9088949 C341.974559,56.9088949 343.73652,56.7326988 345.49848,56.9088949 C346.555657,57.085091 350.608167,57.2612871 349.022402,59.1994439 C348.317618,59.9042282 346.203265,59.7280321 345.146088,59.9042282 C343.560323,60.0804243 341.798363,60.2566203 340.212598,60.6090125 Z M267.619815,43.5179931 C266.386442,43.3417971 262.862521,41.0512481 264.272089,39.4654834 C264.800678,38.7606991 266.210246,39.1130912 266.738834,39.4654834 C268.324599,39.9940716 268.853187,40.5226598 270.615148,39.9940716 C271.672325,39.6416795 273.434285,38.584503 274.315266,38.9368952 C275.196246,39.4654834 274.843854,41.0512481 274.315266,41.7560324 C273.081893,44.0465814 269.910364,44.0465814 267.619815,43.5179931 Z M298.80652,39.1130912 C295.811187,44.5751696 291.230089,34.5319933 291.758677,31.53666 C291.934873,30.8318757 292.463461,29.4223071 293.520638,29.5985031 C294.577814,29.7746992 294.75401,31.3604639 295.106403,32.2414443 C295.987383,35.0605815 296.692167,36.8225423 298.80652,39.1130912 Z M327.878873,82.4573259 C326.6455,81.4001495 323.297775,76.9952476 321.359618,78.4048162 C319.421461,79.8143848 323.297775,82.2811298 324.178755,83.3383063 C325.235932,84.5716788 325.76452,88.9765807 328.055069,87.9194043 C330.169422,87.0384239 328.407461,84.0430906 327.878873,82.4573259 Z M315.192755,63.7805419 C316.249932,59.7280321 323.826363,68.3616398 324.178755,70.1236006 C324.531147,72.7665417 322.240598,72.2379535 320.83103,71.004581 C318.716677,69.0664241 316.954716,66.0710908 315.192755,63.7805419 Z M264.976874,74.8808946 C266.386442,76.9952476 268.500795,74.7046986 269.557972,73.471326 C270.262756,72.5903457 270.791344,71.7093653 271.672325,71.004581 C272.200913,70.4759927 273.786677,70.1236006 274.13907,69.4188163 C274.315266,68.5378359 273.258089,67.6568555 272.377109,67.4806595 C271.496128,67.4806595 270.791344,68.0092477 270.262756,68.5378359 C268.324599,70.6521888 266.738834,72.7665417 264.976874,74.8808946 Z M289.115736,24.8412091 C292.815854,24.4888169 289.996716,19.5553268 287.706167,19.0267386 C283.829854,18.3219543 287.353775,25.1936012 289.115736,24.8412091 Z" id="j" fill="#43FFD7"></path>
        </g>
    </g>
</svg>
