<?xml version="1.0" encoding="UTF-8"?>
<svg width="344px" height="68px" viewBox="0 0 344 68" version="1.1" xmlns="http://www.w3.org/2000/svg" xmlns:xlink="http://www.w3.org/1999/xlink">
    <!-- Generator: Sketch 46.2 (44496) - http://www.bohemiancoding.com/sketch -->
    <title>logo_lockup_gdg_horizontal</title>
    <desc>Created with Sketch.</desc>
    <defs>
        <radialGradient cx="98.7985294%" cy="97.9036527%" fx="98.7985294%" fy="97.9036527%" r="325.466912%" gradientTransform="translate(0.987985,0.979037),scale(1.000000,0.706314),translate(-0.987985,-0.979037)" id="radialGradient-1">
            <stop stop-color="#BF360C" stop-opacity="0.2" offset="0%"></stop>
            <stop stop-color="#BF360C" stop-opacity="0.02" offset="100%"></stop>
        </radialGradient>
        <radialGradient cx="162.571513%" cy="157.70665%" fx="162.571513%" fy="157.70665%" r="262.641554%" gradientTransform="translate(1.625715,1.577067),scale(1.000000,0.680051),translate(-1.625715,-1.577067)" id="radialGradient-2">
            <stop stop-color="#263238" stop-opacity="0.2" offset="0%"></stop>
            <stop stop-color="#263238" stop-opacity="0.02" offset="100%"></stop>
        </radialGradient>
        <radialGradient cx="-1.24996094%" cy="0.78125%" fx="-1.24996094%" fy="0.78125%" r="167.932627%" gradientTransform="translate(-0.012500,0.007812),scale(1.000000,0.613175),translate(0.012500,-0.007812)" id="radialGradient-3">
            <stop stop-color="#FFFFFF" stop-opacity="0.1" offset="0%"></stop>
            <stop stop-color="#FFFFFF" stop-opacity="0" offset="100%"></stop>
        </radialGradient>
    </defs>
    <g id="Page-2" stroke="none" stroke-width="1" fill="none" fill-rule="evenodd">
        <g id="logo_lockup_gdg_horizontal">
            <path d="M247.96,53 L242.104,53 L226.732,9.324 L232.954,9.324 L244.91,44.765 L245.154,44.765 L257.598,9.324 L263.82,9.324 L247.96,53 Z M274.007,12.801 C274.007,13.8990055 273.620671,14.8343295 272.848,15.607 C272.075329,16.3796705 271.140005,16.766 270.042,16.766 C268.943995,16.766 268.008671,16.3796705 267.236,15.607 C266.463329,14.8343295 266.077,13.8990055 266.077,12.801 C266.077,11.7029945 266.463329,10.7676705 267.236,9.995 C268.008671,9.22232947 268.943995,8.836 270.042,8.836 C271.140005,8.836 272.075329,9.22232947 272.848,9.995 C273.620671,10.7676705 274.007,11.7029945 274.007,12.801 Z M272.848,23.11 L272.848,53 L267.236,53 L267.236,23.11 L272.848,23.11 Z M293.283,48.852 C296.048347,48.852 298.305325,47.8556766 300.054,45.863 C301.884009,43.8703234 302.799,41.2676827 302.799,38.055 C302.799,34.923651 301.884009,32.3413435 300.054,30.308 C298.264658,28.2746565 296.00768,27.258 293.283,27.258 C290.598987,27.258 288.342009,28.2746565 286.512,30.308 C284.681991,32.3413435 283.767,34.923651 283.767,38.055 C283.767,41.2270159 284.681991,43.8093234 286.512,45.802 C288.342009,47.8353435 290.598987,48.852 293.283,48.852 Z M293.1,67.152 C291.432658,67.152 289.867007,66.9385021 288.403,66.5115 C286.938993,66.0844979 285.607173,65.4846705 284.4075,64.712 C283.207827,63.9393295 282.181004,63.0243386 281.327,61.967 C280.472996,60.9096614 279.822336,59.7303398 279.375,58.429 L284.682,56.233 C285.292003,57.9816754 286.349326,59.3846614 287.854,60.442 C289.358674,61.4993386 291.107323,62.028 293.1,62.028 C296.150015,62.028 298.528991,61.1130091 300.237,59.283 C301.945009,57.4529908 302.799,54.9316827 302.799,51.719 L302.799,48.852 L302.555,48.852 C301.497661,50.4380079 300.064176,51.6884954 298.2545,52.6035 C296.444824,53.5185046 294.482677,53.976 292.368,53.976 C288.46398,53.976 285.109014,52.4510153 282.303,49.401 C279.537653,46.269651 278.155,42.4876888 278.155,38.055 C278.155,33.6223112 279.537653,29.8606821 282.303,26.77 C285.109014,23.6793179 288.46398,22.134 292.368,22.134 C294.482677,22.134 296.444824,22.5914954 298.2545,23.5065 C300.064176,24.4215046 301.497661,25.6719921 302.555,27.258 L302.799,27.258 L302.799,23.11 L308.167,23.11 L308.167,51.719 C308.167,56.5176907 306.80468,60.2793197 304.08,63.004 C301.314653,65.7693472 297.654689,67.152 293.1,67.152 Z M312.986,38.055 C312.986,33.4596437 314.429652,29.6573484 317.317,26.648 C320.245015,23.6386516 323.925311,22.134 328.358,22.134 C332.790689,22.134 336.450652,23.6386516 339.338,26.648 C342.266015,29.6573484 343.73,33.4596437 343.73,38.055 C343.73,42.6910232 342.266015,46.4933185 339.338,49.462 C336.450652,52.4713484 332.790689,53.976 328.358,53.976 C323.925311,53.976 320.245015,52.4713484 317.317,49.462 C314.429652,46.4526516 312.986,42.6503563 312.986,38.055 Z M318.598,38.055 C318.598,41.2676827 319.533324,43.8703234 321.404,45.863 C323.274676,47.8556766 325.592653,48.852 328.358,48.852 C331.123347,48.852 333.441324,47.8556766 335.312,45.863 C337.182676,43.8703234 338.118,41.2676827 338.118,38.055 C338.118,34.8829841 337.182676,32.3006766 335.312,30.308 C333.400657,28.2746565 331.08268,27.258 328.358,27.258 C325.63332,27.258 323.315343,28.2746565 321.404,30.308 C319.533324,32.3006766 318.598,34.8829841 318.598,38.055 Z" id="Vigo" fill-opacity="0.54" fill="#000000"></path>
            <g id="XMLID_50_">
                <g id="XMLID_72_">
                    <path d="M37.2165432,27.8645785 L21.4817284,0.129113372 L0.440987654,0.129113372 L17.8083951,30.7337645 L0.440987654,61.3384157 L21.4817284,61.3384157 L37.2165432,33.6029506 C38.2251852,31.8288372 38.2251852,29.6386919 37.2165432,27.8645785 Z" id="Shape"></path>
                    <polygon id="XMLID_80_" fill="#FFC107" fill-rule="nonzero" points="28.1903704 49.0343895 23.2034568 40.2403343 11.2311111 61.3384157 21.4817284 61.3384157 28.3264198 49.2734884"></polygon>
                    <path d="M37.2165432,27.8645785 L21.4817284,0.129113372 L0.440987654,0.129113372 L17.8083951,30.7337645 L0.440987654,61.3384157 L21.4817284,61.3384157 L37.2165432,33.6029506 C38.2251852,31.8288372 38.2251852,29.6386919 37.2165432,27.8645785 Z" id="Shape"></path>
                    <polygon id="Shape" fill="#0F9D58" fill-rule="nonzero" points="17.8083951 30.7337645 23.2034568 40.2403343 11.2311111 61.3384157 0.440987654 61.3384157"></polygon>
                    <path d="M37.2165432,27.8645785 L21.4817284,0.129113372 L0.440987654,0.129113372 L17.8083951,30.7337645 L0.440987654,61.3384157 L21.4817284,61.3384157 L37.2165432,33.6029506 C38.2251852,31.8288372 38.2251852,29.6386919 37.2165432,27.8645785 Z" id="Shape"></path>
                    <polygon id="Shape" fill="#BF360C" fill-rule="nonzero" opacity="0.2" points="21.4817284 60.860218 11.5032099 60.860218 11.2311111 61.3384157 21.4817284 61.3384157 28.3264198 49.2734884 28.1903704 49.0343895"></polygon>
                    <path d="M37.2165432,27.8645785 L21.4817284,0.129113372 L0.440987654,0.129113372 L17.8083951,30.7337645 L0.440987654,61.3384157 L21.4817284,61.3384157 L37.2165432,33.6029506 C38.2251852,31.8288372 38.2251852,29.6386919 37.2165432,27.8645785 Z" id="Shape"></path>
                    <polygon id="Shape" fill="#263238" fill-rule="nonzero" opacity="0.2" points="0.71308642 60.860218 0.440987654 61.516468 11.2311111 61.516468 11.5032099 60.860218"></polygon>
                    <path d="M37.2165432,27.8645785 L21.4817284,0.129113372 L0.440987654,0.129113372 L17.8083951,30.7337645 L0.440987654,61.3384157 L21.4817284,61.3384157 L37.2165432,33.6029506 C38.2251852,31.8288372 38.2251852,29.6386919 37.2165432,27.8645785 Z" id="Shape"></path>
                    <polygon id="Shape" fill="#FFFFFF" fill-rule="nonzero" opacity="0.2" points="0.440987654 61.3384157 0.71308642 61.3384157 17.9444444 30.9728634 17.8083951 30.7337645"></polygon>
                    <path d="M37.2165432,27.8645785 L21.4817284,0.129113372 L0.440987654,0.129113372 L17.8083951,30.7337645 L0.440987654,61.3384157 L21.4817284,61.3384157 L37.2165432,33.6029506 C38.2251852,31.8288372 38.2251852,29.6386919 37.2165432,27.8645785 Z" id="Shape"></path>
                    <polygon id="XMLID_79_" fill="url(#radialGradient-1)" fill-rule="nonzero" points="28.3264198 49.2734884 28.3264198 49.2734884 23.2034568 40.2403343 21.9461728 42.4543895"></polygon>
                    <path d="M37.2165432,27.8645785 L21.4817284,0.129113372 L0.440987654,0.129113372 L17.8083951,30.7337645 L0.440987654,61.3384157 L21.4817284,61.3384157 L37.2165432,33.6029506 C38.2251852,31.8288372 38.2251852,29.6386919 37.2165432,27.8645785 Z" id="Shape"></path>
                    <polygon id="XMLID_78_" fill="url(#radialGradient-2)" fill-rule="nonzero" points="21.9461728 42.4543895 23.2034568 40.2403343 17.8083951 30.7337645 15.2328395 35.2766424"></polygon>
                    <path d="M37.2165432,27.8645785 L21.4817284,0.129113372 L0.440987654,0.129113372 L17.8083951,30.7337645 L0.440987654,61.3384157 L21.4817284,61.3384157 L37.2165432,33.6029506 C38.2251852,31.8288372 38.2251852,29.6386919 37.2165432,27.8645785 Z" id="Shape"></path>
                    <g id="XMLID_75_" fill-rule="nonzero" fill="#4285F4">
                        <g id="XMLID_76_">
                            <polygon id="XMLID_77_" points="11.2311111 0.129113372 0.440987654 0.129113372 28.3264198 49.2734884 33.7167901 39.7717006 33.7214815 39.7621366"></polygon>
                        </g>
                    </g>
                    <path d="M37.2165432,27.8645785 L21.4817284,0.129113372 L0.440987654,0.129113372 L17.8083951,30.7337645 L0.440987654,61.3384157 L21.4817284,61.3384157 L37.2165432,33.6029506 C38.2251852,31.8288372 38.2251852,29.6386919 37.2165432,27.8645785 Z" id="Shape"></path>
                    <path d="M37.2165432,33.6029506 C38.2251852,31.8288372 38.2251852,29.6386919 37.2165432,27.8645785 L21.4817284,0.129113372 L11.2311111,0.129113372 L33.7214815,39.7621366 L37.2165432,33.6029506 Z" id="Shape" fill="#DB4437" fill-rule="nonzero"></path>
                    <path d="M37.2165432,27.8645785 L21.4817284,0.129113372 L0.440987654,0.129113372 L17.8083951,30.7337645 L0.440987654,61.3384157 L21.4817284,61.3384157 L37.2165432,33.6029506 C38.2251852,31.8288372 38.2251852,29.6386919 37.2165432,27.8645785 Z" id="Shape"></path>
                    <polygon id="Shape" fill="#1A237E" fill-rule="nonzero" opacity="0.2" points="33.7214815 39.7621366 33.5854321 39.5278198 28.3264198 48.7952907 0.71308642 0.129113372 0.440987654 0.129113372 28.3264198 49.2734884 33.7167901 39.7717006"></polygon>
                    <path d="M37.2165432,27.8645785 L21.4817284,0.129113372 L0.440987654,0.129113372 L17.8083951,30.7337645 L0.440987654,61.3384157 L21.4817284,61.3384157 L37.2165432,33.6029506 C38.2251852,31.8288372 38.2251852,29.6386919 37.2165432,27.8645785 Z" id="Shape"></path>
                    <path d="M21.4817284,0.607311047 L37.2165432,28.3427762 C37.6809877,29.1604942 37.9202469,30.0642878 37.9577778,30.9728634 C38,29.9017006 37.7607407,28.8209738 37.2165432,27.8645785 L21.4817284,0.129113372 L0.440987654,0.129113372 L0.71308642,0.607311047 L21.4817284,0.607311047 Z" id="Shape" fill="#FFFFFF" fill-rule="nonzero" opacity="0.2"></path>
                    <path d="M37.2165432,27.8645785 L21.4817284,0.129113372 L0.440987654,0.129113372 L17.8083951,30.7337645 L0.440987654,61.3384157 L21.4817284,61.3384157 L37.2165432,33.6029506 C38.2251852,31.8288372 38.2251852,29.6386919 37.2165432,27.8645785 Z" id="Shape"></path>
                    <path d="M33.7214815,39.7621366 L37.2165432,33.6029506 C37.7607407,32.6465552 38,31.5658285 37.9577778,30.4946657 C37.9202469,31.4032413 37.6809877,32.3070349 37.2165432,33.1247529 L33.5854321,39.5278198 L33.7214815,39.7621366 Z" id="XMLID_74_" fill="#3E2723" fill-rule="nonzero" opacity="0.2"></path>
                    <path d="M37.2165432,27.8645785 L21.4817284,0.129113372 L0.440987654,0.129113372 L17.8083951,30.7337645 L0.440987654,61.3384157 L21.4817284,61.3384157 L37.2165432,33.6029506 C38.2251852,31.8288372 38.2251852,29.6386919 37.2165432,27.8645785 Z" id="Shape"></path>
                    <path d="M37.2165432,27.8645785 L21.4817284,0.129113372 L0.440987654,0.129113372 L17.8083951,30.7337645 L0.440987654,61.3384157 L21.4817284,61.3384157 L37.2165432,33.6029506 C38.2251852,31.8288372 38.2251852,29.6386919 37.2165432,27.8645785 Z" id="XMLID_73_" fill="url(#radialGradient-3)" fill-rule="nonzero"></path>
                </g>
            </g>
            <g id="XMLID_8_" opacity="0.54" transform="translate(61.000000, 4.000000)">
                <path d="M54.8990291,1.66227273 L69.4563107,1.66227273 C84.28,1.66227273 93.5852427,11.6262727 93.5852427,25.6086364 C93.5852427,39.6536364 84.2752427,49.555 69.4563107,49.555 L54.8990291,49.555 L54.8990291,1.66227273 L54.8990291,1.66227273 Z M69.7084466,42.2988182 C80.0269903,42.2988182 86.4207767,36.4977273 86.4207767,25.6086364 C86.4207767,14.7821818 80.0269903,8.91845455 69.7084466,8.91845455 L62.0634951,8.91845455 L62.0634951,42.2988182 L69.7084466,42.2988182 L69.7084466,42.2988182 Z" id="XMLID_104_" fill="#000000" fill-rule="nonzero"></path>
                <rect id="XMLID_103_" x="0.190291262" y="0.409545455" width="146.157961" height="52.2483636"></rect>
                <path d="M48.9191262,23.4356364 L26.241165,23.4356364 L26.241165,30.5472727 L42.2303883,30.5472727 C41.7023301,34.1753636 40.4606796,37.0036364 38.6005825,38.8923636 C36.2314563,41.2918182 32.5302913,43.9321818 26.0366019,43.9321818 C16.0225243,43.9321818 8.19203883,35.7557273 8.19203883,25.6134545 C8.19203883,15.4711818 16.0225243,7.29472727 26.0366019,7.29472727 C31.4361165,7.29472727 35.3846602,9.44845455 38.2961165,12.2140909 L43.0914563,7.35736364 C39.0239806,3.42090909 33.624466,0.409545455 26.0366019,0.409545455 C12.3213592,0.409545455 0.789708738,11.7178182 0.789708738,25.6134545 C0.789708738,39.5042727 12.3213592,50.8173636 26.0366019,50.8173636 C33.438932,50.8173636 39.0239806,48.3600909 43.3959223,43.7490909 C47.8867961,39.2007273 49.2854369,32.807 49.2854369,27.6419091 C49.2854369,26.0422727 49.1617476,24.6642727 48.9191262,23.4356364 Z" id="XMLID_102_" fill="#000000" fill-rule="nonzero"></path>
                <path d="M146.357767,23.4356364 L123.679806,23.4356364 L123.679806,30.5472727 L139.669029,30.5472727 C139.140971,34.1753636 137.89932,37.0036364 136.039223,38.8923636 C133.670097,41.2918182 129.968932,43.9321818 123.475243,43.9321818 C113.461165,43.9321818 105.63068,35.7557273 105.63068,25.6134545 C105.63068,15.4711818 113.461165,7.29472727 123.475243,7.29472727 C128.874757,7.29472727 132.823301,9.44845455 135.734757,12.2140909 L140.530097,7.35736364 C136.462621,3.42090909 131.063107,0.409545455 123.475243,0.409545455 C109.76,0.409545455 98.2283495,11.7178182 98.2283495,25.6134545 C98.2283495,39.5042727 109.76,50.8173636 123.475243,50.8173636 C130.877573,50.8173636 136.462621,48.3600909 140.834563,43.7490909 C145.325437,39.2007273 146.724078,32.807 146.724078,27.6419091 C146.724078,26.0422727 146.600388,24.6642727 146.357767,23.4356364 Z" id="XMLID_86_" fill="#000000" fill-rule="nonzero"></path>
            </g>
        </g>
    </g>
</svg>
