<svg xmlns:svg="http://www.w3.org/2000/svg" xmlns="http://www.w3.org/2000/svg" viewBox="0 0 1045 340" height="340" width="1045" xml:space="preserve" version="1.1"><style>.s0{fill:#3f95d1;}.s1{fill:#ef4636;}</style><defs><clipPath clipPathUnits="userSpaceOnUse"><path d="M0 272 836 272 836 0 0 0 0 272Z"/></clipPath></defs><g transform="matrix(1.25,0,0,-1.25,0,340)"><g clip-path="url(#clipPath16)"><g transform="translate(108.0003,147.326)"><path d="m0 0 0 28.7 96 0c1-5.1 1.6-11.1 1.6-17.6 0-21.5-5.9-48.1-24.8-67.1C54.3-75.2 30.7-85.4-0.5-85.4c-57.9 0-106.5 47.1-106.5 105 0 57.9 48.6 105 106.5 105 32 0 54.8-12.5 71.9-28.9L51.2 75.4c-12.3 11.5-28.9 20.5-51.7 20.5-42.2 0-75.3-34-75.3-76.3 0-42.2 33-76.3 75.3-76.3 27.4 0 43 11 53 21 8.1 8.1 13.5 19.8 15.6 35.8L0 0Z" fill="#3f95d1"/></g><g transform="translate(322.1458,129.4901)"><path d="m0 0c0 24.3-17.7 41-38.1 41-20.5 0-38.1-16.6-38.1-41 0-24.1 17.7-41 38.1-41C-17.7-41 0-24.1 0 0m29.7 0c0-38.9-30.5-67.6-67.8-67.6-37.4 0-67.8 28.7-67.8 67.6 0 39.2 30.5 67.6 67.8 67.6C-0.8 67.6 29.7 39.2 29.7 0" fill="#ef4636"/></g><g transform="translate(470.1458,129.4901)"><path d="m0 0c0 24.3-17.7 41-38.1 41-20.5 0-38.1-16.6-38.1-41 0-24.1 17.7-41 38.1-41C-17.7-41 0-24.1 0 0m29.7 0c0-38.9-30.5-67.6-67.8-67.6-37.4 0-67.8 28.7-67.8 67.6 0 39.2 30.5 67.6 67.8 67.6C-0.8 67.6 29.7 39.2 29.7 0" fill="#ffc20d"/></g><g transform="translate(615.5872,129.2342)"><path d="M0 0C0 23.8-15.9 41.2-36.1 41.2-56.6 41.2-73.7 23.8-73.7 0c0-23.6 17.2-40.7 37.6-40.7C-15.9-40.7 0-23.6 0 0m26.1 63.7 0-121.3c0-49.9-29.4-70.4-64.3-70.4-32.8 0-52.5 22-59.9 39.9l25.9 10.8c4.6-11 15.9-24.1 34-24.1 22.3 0 36.1 13.8 36.1 39.7l0 9.7-1 0c-6.7-8.2-19.5-15.4-35.6-15.4-33.8 0-64.8 29.4-64.8 67.3 0 38.1 31 67.8 64.8 67.8 16.1 0 28.9-7.2 35.6-15.1l1 0 0 11 28.2 0z" fill="#3f95d1"/></g><path d="m692 66-29.7 0 0 198 29.7 0 0-198z" fill="#2fb455"/><g transform="translate(735.764,131.5389)"><path d="M0 0 60.4 25.1C57.1 33.5 47.1 39.4 35.3 39.4 20.2 39.4-0.8 26.1 0 0m70.9-24.3 23-15.4c-7.4-11-25.3-30-56.3-30-38.4 0-67.1 29.7-67.1 67.6 0 40.2 28.9 67.6 63.7 67.6 35.1 0 52.2-27.9 57.9-43L95.2 14.9 4.9-22.5c6.9-13.6 17.7-20.5 32.8-20.5 15.1 0 25.6 7.4 33.3 18.7" fill="#ef4636"/></g></g></g></svg>