<svg xmlns="http://www.w3.org/2000/svg" width="177.795" height="60" viewBox="0 0 177.795 60"><g fill-rule="evenodd" clip-rule="evenodd"><path fill="#6D6E71" d="M173.028 14.072h1.106l.018.041c.179.394.361.786.526 1.182.181.444.341.896.536 1.335l.018.041.508-1.168.401-.905.062-.181c0-.101-.104-.101-.195-.101l-.406.018.406-.264h1.483l-.106.102c-.108.097-.163.166-.163.356l.016.198.072.873c.034.384.07.767.139 1.145.06.31.126.421.347.587-.245.046-.411.069-.658.069-.1 0-.275 0-.436-.12-.189-.148-.217-.384-.249-.804l-.08-.86-.054-.817-.006-.055-.028.06-.466 1.062c-.365.841-.391.896-.464 1.122l.05.138c-.134.033-.662.207-.855.282-.149-.412-.67-1.75-1.084-2.664l-.116 1.163c-.012.129-.09.993-.09 1.072 0 .101.024.128.205.147l.405.06-.235.143h-.859l.12-.143.06-.101c.028-.074.042-.204.06-.389l.104-.84.128-1.233.01-.143c0-.12-.046-.18-.185-.18l-.428.008.383-.236zM172.825 14.072l-.201.471-.207.093.05-.235c0-.106-.124-.111-.253-.111l-.644.005c-.056 1.801-.056 1.957-.056 2.202l.01.393c.014.2.078.241.291.254l.393.042-.301.148h-1.538l.104-.148c.102-.152.116-.175.116-.278v-.683l.004-.586c.014-.397.038-.795.038-1.187l-.006-.156h-.562c-.283.009-.287.017-.44.249l-.245.093.245-.564h3.202v-.002z"/><path fill="#EF3E35" d="M166.847 40.433c-.65.355-1.299.768-1.949 1.064-1.953.887-3.962 1.123-5.735 1.123-1.891 0-4.847-.119-7.862-2.305-4.197-2.956-6.028-8.04-6.028-12.473 0-9.162 7.447-13.655 13.537-13.655 2.126 0 4.314.532 6.088 1.655 2.953 1.95 3.723 4.492 4.135 5.852l-13.89 5.615-4.552.356c1.479 7.507 6.56 11.88 12.176 11.88 3.015 0 5.203-1.063 7.214-2.069l-3.134 2.957zm-5.557-17.614c1.122-.415 1.714-.769 1.714-1.597 0-2.364-2.658-5.084-5.853-5.084-2.363 0-6.796 1.833-6.796 8.218 0 1.005.116 2.069.175 3.133l10.76-4.67z"/><path fill="#2FB457" d="M143.851 41.734h-10.462c1.359-1.773 1.596-1.951 1.596-3.133v-9.635c0-4.61.06-11.172.235-17.32.06-3.015.297-6.798.355-9.518h-4.609l4.433-2.128h8.452c-1.831 1.065-2.423 1.419-2.658 3.489-.472 4.551-.532 11.762-.532 20.156v13.655c0 2.306.413 2.66 2.366 2.838l3.013.295-2.189 1.301z"/><path fill="#0075BF" d="M124.463 17.084c1.359 1.123 4.197 3.487 4.197 7.98 0 4.374-2.483 6.443-4.964 8.394-.769.768-1.656 1.597-1.656 2.897 0 1.3.887 2.009 1.537 2.541l2.128 1.656c2.603 2.186 4.964 4.197 4.964 8.276 0 5.556-5.379 11.172-15.546 11.172-8.571 0-12.708-4.079-12.708-8.454 0-2.128 1.064-5.144 4.554-7.212 3.663-2.246 8.629-2.541 11.287-2.718-.827-1.064-1.772-2.187-1.772-4.02 0-1.005.295-1.596.592-2.306-.652.059-1.301.119-1.893.119-6.265 0-9.813-4.67-9.813-9.281 0-2.72 1.242-5.734 3.784-7.921 3.37-2.779 7.388-3.251 10.58-3.251h12.176l-3.782 2.128h-3.665zm-4.197 26.246c-.472-.06-.769-.06-1.359-.06-.532 0-3.725.119-6.208.947-1.299.473-5.084 1.891-5.084 6.089 0 4.196 4.079 7.21 10.405 7.21 5.676 0 8.691-2.718 8.691-6.382 0-3.016-1.951-4.612-6.445-7.804zm1.716-11.231c1.357-1.36 1.477-3.252 1.477-4.316 0-4.256-2.541-10.877-7.449-10.877-1.537 0-3.191.769-4.137 1.951-1.004 1.241-1.301 2.837-1.301 4.374 0 3.96 2.306 10.522 7.389 10.522 1.476.001 3.074-.709 4.021-1.654z"/><path fill="#FFDF1C" d="M87.813 42.502c-9.399 0-14.423-7.329-14.423-13.949 0-7.744 6.325-14.365 15.309-14.365 8.691 0 14.13 6.798 14.13 13.951-.001 6.974-5.381 14.363-15.016 14.363zm7.389-4.787c1.419-1.892 1.774-4.257 1.774-6.562 0-5.202-2.483-15.133-9.813-15.133-1.95 0-3.901.769-5.32 2.01-2.304 2.069-2.719 4.67-2.719 7.212 0 5.852 2.897 15.487 10.048 15.487 2.305 0 4.671-1.123 6.03-3.014z"/><path fill="#EF3E35" d="M56.365 42.502c-9.399 0-14.424-7.329-14.424-13.949 0-7.744 6.325-14.365 15.31-14.365 8.689 0 14.127 6.798 14.127 13.951.001 6.974-5.377 14.363-15.013 14.363zm7.388-4.787c1.419-1.892 1.774-4.257 1.774-6.562 0-5.202-2.482-15.133-9.812-15.133-1.951 0-3.902.769-5.321 2.01-2.305 2.069-2.719 4.67-2.719 7.212 0 5.852 2.897 15.487 10.05 15.487 2.305 0 4.669-1.123 6.028-3.014z"/><path fill="#0075BF" d="M38.183 40.44l-7.925 1.827c-3.214.499-6.097.943-9.144.943-15.296 0-21.114-11.249-21.114-20.062 0-10.751 8.258-20.726 22.389-20.726 2.993 0 5.875.444 8.479 1.164 4.156 1.164 6.097 2.605 7.315 3.437l-4.599 4.377-1.939.443 1.385-2.217c-1.884-1.827-5.321-5.208-11.859-5.208-8.758 0-15.352 6.65-15.352 16.349 0 10.418 7.538 20.227 19.618 20.227 3.548 0 5.376-.72 7.038-1.385v-8.923l-8.368.444 4.434-2.383h11.749l-1.44 1.385c-.389.332-.444.443-.555.887-.055.499-.111 2.106-.111 2.661v6.76h-.001z"/></g></svg>