<?xml version="1.0" encoding="utf-8"?>
<!-- Generator: Adobe Illustrator 19.1.0, SVG Export Plug-In . SVG Version: 6.00 Build 0)  -->
<!DOCTYPE svg PUBLIC "-//W3C//DTD SVG 1.1//EN" "http://www.w3.org/Graphics/SVG/1.1/DTD/svg11.dtd">
<svg version="1.1" id="Ebene_1" xmlns="http://www.w3.org/2000/svg" xmlns:xlink="http://www.w3.org/1999/xlink" x="0px" y="0px"
	 viewBox="0 0 286 286" enable-background="new 0 0 286 286" xml:space="preserve">
<rect fill="#911C80" width="286" height="286"/>
<path fill="#FFFFFF" d="M75.2,200.2L75.2,200.2L75.2,200.2C75.2,200.2,75.2,200.2,75.2,200.2z M115.5,224.8
	c23.8,0,40.1-12.7,40.1-40.5V92.5h-26.9v91.4c0,13.4-5.6,16.9-14.4,16.9c-9.2,0-13.1-6.3-17.3-13.8l-21.9,13.2
	C81.5,213.7,94,224.8,115.5,224.8z M218.6,201c-13.2,0-20.7-6.9-26.5-16.3l-21.9,12.7c7.9,15.6,24,27.5,49,27.5
	c25.5,0,44.5-13.2,44.5-37.4c0-22.5-12.9-32.4-35.7-42.2l-6.7-2.9c-11.5-5-16.5-8.3-16.5-16.3c0-6.5,5-11.5,12.9-11.5
	c7.7,0,12.7,3.3,17.3,11.5l20.9-13.4C247,96.9,234.7,91,217.7,91c-24,0-39.4,15.4-39.4,35.5c0,21.9,12.9,32.3,32.3,40.5l6.7,2.9
	c12.3,5.4,19.6,8.6,19.6,17.9C236.9,195.4,229.8,201,218.6,201z M94.4,253.8c0,4.2-1.8,5.8-5.6,5.8c-3.9,0-5.7-1.6-5.7-5.8v-17.9
	h-5.9v18.3c0,7.2,5,10.7,11.6,10.7c6.5,0,11.5-3.5,11.5-10.7v-18.3h-5.9V253.8z M126.9,247.9c0,2,0.4,5.2,0.4,5.2s-2-2.6-3.4-3.9
	l-14.4-13.5h-0.6v28.9h5.5v-12c0-2.1-0.4-5.2-0.4-5.2s2,2.6,3.4,3.9l14.4,13.5h0.6v-28.9h-5.5V247.9z M153.6,259.6
	c-5.2,0-8.7-4.1-8.7-9.4c0-5.3,3.5-9.3,8.7-9.3c3.3,0,5.6,1.6,6.9,3.7l4.5-3.2c-2.6-4-6.3-5.8-11.4-5.8c-8.2,0-14.7,6.2-14.7,14.6
	c0,8.5,6.5,14.7,14.7,14.7c5.5,0,9.5-2.4,11.9-6.3l-4.6-3.2C159.3,257.8,157.3,259.6,153.6,259.6z M200.2,250.2
	c0,8.5-6.6,14.7-14.8,14.7c-8.2,0-14.8-6.2-14.8-14.7c0-8.5,6.6-14.7,14.8-14.7C193.6,235.5,200.2,241.7,200.2,250.2z M194.1,250.2
	c0-5.3-3.5-9.4-8.7-9.4c-5.2,0-8.7,4.1-8.7,9.4c0,5.3,3.5,9.4,8.7,9.4C190.6,259.6,194.1,255.5,194.1,250.2z M225.6,247.9
	c0,2,0.4,5.2,0.4,5.2s-2-2.6-3.4-3.9l-14.4-13.5h-0.6v28.9h5.5v-12c0-2.1-0.4-5.2-0.4-5.2s2,2.6,3.4,3.9l14.4,13.5h0.6v-28.9h-5.5
	V247.9z M239.8,264.5h5.9v-8.7h11.4v-5.3h-11.4v-9.5h12.5v-5.2h-18.4V264.5z"/>
</svg>
