<?xml version="1.0" encoding="UTF-8"?>
<svg width="242px" height="59px" viewBox="0 0 242 59" version="1.1" xmlns="http://www.w3.org/2000/svg" xmlns:xlink="http://www.w3.org/1999/xlink">
    <!-- Generator: Sketch 49 (51002) - http://www.bohemiancoding.com/sketch -->
    <title>LinkedIn Learning</title>
    <desc>Created with Sketch.</desc>
    <defs>
        <path d="M5.24615385,58.4942857 L53.3076923,58.4942857 C55.8461538,58.4942857 58.0461538,56.3028571 58.0461538,53.7742857 L58.0461538,5.9 C58.0461538,3.37142857 55.8461538,1.18 53.3076923,1.18 L5.24615385,1.18 C2.70769231,1.18 0.507692308,3.37142857 0.507692308,5.9 L0.507692308,53.7742857 C0.507692308,56.3028571 2.70769231,58.4942857 5.24615385,58.4942857" id="path-1"></path>
        <polygon id="path-3" points="0.507692308 1.18 4943.73846 1.18 4943.73846 1076.66571 0.507692308 1076.66571"></polygon>
        <path d="M0.507692308,1.18 L8.63076923,1.18 L8.63076923,5.22571429 C9.64615385,3.03428571 12.8615385,0.842857143 16.9230769,0.842857143 C24.8769231,0.842857143 27.5846154,4.38285714 27.5846154,12.98 L27.5846154,28.32 L19.1230769,28.32 L19.1230769,14.8342857 C19.1230769,10.2828571 18.2769231,7.92285714 14.8923077,7.92285714 C10.4923077,7.92285714 8.96923077,11.2942857 8.96923077,14.8342857 L8.96923077,28.32 L0.507692308,28.32 L0.507692308,1.18 Z" id="path-5"></path>
        <polygon id="path-7" points="0.507692308 1.18 4943.73846 1.18 4943.73846 1076.66571 0.507692308 1076.66571"></polygon>
        <path d="M11.6769231,5.39428571 C11.6769231,8.26 9.30769231,10.4514286 6.43076923,10.4514286 C3.55384615,10.4514286 1.18461538,8.09142857 1.18461538,5.39428571 C1.18461538,2.52857143 3.55384615,0.337142857 6.43076923,0.337142857 C9.30769231,0.337142857 11.6769231,2.52857143 11.6769231,5.39428571 Z M2.2,41.6371429 L10.6615385,41.6371429 L10.6615385,14.6657143 L2.2,14.6657143 L2.2,41.6371429 Z" id="path-9"></path>
        <polygon id="path-11" points="0.507692308 1.18 4943.73846 1.18 4943.73846 1076.66571 0.507692308 1076.66571"></polygon>
    </defs>
    <g id="LinkedIn-Learning" stroke="none" stroke-width="1" fill="none" fill-rule="evenodd">
        <g id="Group-2">
            <g>
                <g id="Clipped">
                    <mask id="mask-2" fill="white">
                        <use xlink:href="#path-1"></use>
                    </mask>
                    <g id="a"></g>
                    <g mask="url(#mask-2)">
                        <g transform="translate(-1915.692308, -590.000000)">
                            <mask id="mask-4" fill="white">
                                <use xlink:href="#path-3"></use>
                            </mask>
                            <g id="c" stroke="none" fill="none"></g>
                            <polygon id="Shape" stroke="none" fill="#0077B5" fill-rule="nonzero" mask="url(#mask-4)" points="1907.73846 582.751429 1982.2 582.751429 1982.2 656.922857 1907.73846 656.922857"></polygon>
                        </g>
                    </g>
                </g>
                <g id="Clipped" transform="translate(22.000000, 21.914286)">
                    <mask id="mask-6" fill="white">
                        <use xlink:href="#path-5"></use>
                    </mask>
                    <g id="e"></g>
                    <g mask="url(#mask-6)">
                        <g transform="translate(-1937.692308, -611.914286)">
                            <mask id="mask-8" fill="white">
                                <use xlink:href="#path-7"></use>
                            </mask>
                            <g id="g" stroke="none" fill="none"></g>
                            <polygon id="Shape" stroke="none" fill="#FFFFFF" fill-rule="nonzero" mask="url(#mask-8)" points="1929.73846 604.16 1973.73846 604.16 1973.73846 648.325714 1929.73846 648.325714"></polygon>
                        </g>
                    </g>
                </g>
                <g id="Clipped" transform="translate(6.769231, 8.428571)">
                    <mask id="mask-10" fill="white">
                        <use xlink:href="#path-9"></use>
                    </mask>
                    <g id="i"></g>
                    <g mask="url(#mask-10)">
                        <g transform="translate(-1922.461538, -598.428571)">
                            <mask id="mask-12" fill="white">
                                <use xlink:href="#path-11"></use>
                            </mask>
                            <g id="k" stroke="none" fill="none"></g>
                            <polygon id="Shape" stroke="none" fill="#FFFFFF" fill-rule="nonzero" mask="url(#mask-12)" points="1915.35385 590.168571 1942.6 590.168571 1942.6 648.325714 1915.35385 648.325714"></polygon>
                        </g>
                    </g>
                </g>
                <g id="Group" opacity="0.7" transform="translate(77.846154, 18.542857)" fill="#000000" fill-rule="nonzero">
                    <path d="M0.169230769,0.842857143 L3.04615385,0.842857143 L3.04615385,20.5657143 L12.6923077,20.5657143 L12.6923077,22.9257143 L0.169230769,22.9257143 L0.169230769,0.842857143 Z M19.8,0.842857143 L32.6615385,0.842857143 L32.6615385,3.20285714 L22.6769231,3.20285714 L22.6769231,10.1142857 L31.1384615,10.1142857 L31.1384615,12.4742857 L22.6769231,12.4742857 L22.6769231,20.5657143 L33,20.5657143 L33,22.9257143 L19.8,22.9257143 L19.8,0.842857143 Z M50.9384615,16.3514286 L42.8153846,16.3514286 L40.6153846,23.0942857 L37.7384615,23.0942857 L45.1846154,1.01142857 L48.4,1.01142857 L55.8461538,23.0942857 L52.8,23.0942857 L50.9384615,16.3514286 Z M50.2615385,13.9914286 L49.2461538,10.62 C48.4,8.09142857 47.7230769,5.73142857 47.0461538,3.20285714 L46.8769231,3.20285714 C46.2,5.73142857 45.5230769,8.26 44.6769231,10.62 L43.6615385,13.9914286 L50.2615385,13.9914286 Z M74.6307692,23.0942857 L69.2153846,13.8228571 L65.1538462,13.8228571 L65.1538462,23.0942857 L62.2769231,23.0942857 L62.2769231,0.842857143 L69.3846154,0.842857143 C73.9538462,0.842857143 77.1692308,2.52857143 77.1692308,7.08 C77.1692308,10.4514286 75.1384615,12.6428571 72.2615385,13.3171429 L77.8461538,22.9257143 L74.6307692,22.9257143 L74.6307692,23.0942857 Z M65.3230769,11.4628571 L69.0461538,11.4628571 C72.4307692,11.4628571 74.4615385,10.1142857 74.4615385,7.24857143 C74.4615385,4.38285714 72.6,3.37142857 69.0461538,3.37142857 L65.3230769,3.37142857 L65.3230769,11.4628571 Z M85.2923077,0.842857143 L88.1692308,0.842857143 L96.2923077,14.6657143 L98.6615385,19.2171429 L98.8307692,19.2171429 C98.6615385,17.0257143 98.4923077,14.4971429 98.4923077,12.1371429 L98.4923077,0.674285714 L101.2,0.674285714 L101.2,22.7571429 L98.1538462,22.7571429 L90.2,8.76571429 L87.8307692,4.21428571 L87.6615385,4.21428571 C87.8307692,6.40571429 88,8.76571429 88,11.1257143 L88,22.7571429 L85.2923077,22.7571429 L85.2923077,0.842857143 Z M110.507692,0.842857143 L113.384615,0.842857143 L113.384615,22.9257143 L110.507692,22.9257143 L110.507692,0.842857143 Z M122.523077,0.842857143 L125.4,0.842857143 L133.523077,14.6657143 L135.892308,19.2171429 L136.061538,19.2171429 C135.892308,17.0257143 135.723077,14.4971429 135.723077,12.1371429 L135.723077,0.674285714 L138.430769,0.674285714 L138.430769,22.7571429 L135.384615,22.7571429 L127.430769,8.76571429 L125.061538,4.21428571 L124.892308,4.21428571 C125.061538,6.40571429 125.230769,8.76571429 125.230769,11.1257143 L125.230769,22.7571429 L122.523077,22.7571429 L122.523077,0.842857143 Z M156.707692,0.505714286 C159.753846,0.505714286 161.784615,1.85428571 163.138462,3.20285714 L161.446154,5.05714286 C160.261538,3.87714286 158.907692,3.03428571 156.707692,3.03428571 C152.138462,3.03428571 149.261538,6.40571429 149.261538,11.9685714 C149.261538,17.5314286 151.969231,21.0714286 156.707692,21.0714286 C158.230769,21.0714286 159.923077,20.5657143 160.769231,19.7228571 L160.769231,13.9914286 L156.030769,13.9914286 L156.030769,11.6314286 L163.307692,11.6314286 L163.307692,20.9028571 C161.784615,22.2514286 159.415385,23.4314286 156.369231,23.4314286 C150.615385,23.4314286 146.384615,19.2171429 146.384615,11.9685714 C146.384615,4.88857143 150.615385,0.505714286 156.707692,0.505714286 Z" id="Shape"></path>
                </g>
            </g>
        </g>
    </g>
</svg>