<svg id="Layer_1" xmlns="http://www.w3.org/2000/svg" viewBox="0 0 335 85"><style>.st0{fill-rule:evenodd;clip-rule:evenodd;fill:#017676}.st1{fill:#333}.st2{fill:#017676}</style><path class="st0" d="M106 25.2c-5 1.1-9.9 2.1-15 3.2 1-4.1 1.9-7.9 2.8-11.7-.1 0-.1 0-.2-.1-2.7 8-5.4 16-8.2 24.1-5.4-5.5-10.7-10.8-16.1-16.2 1.7-.6 3.2-1.2 4.7-1.8 6.4-2.3 12.7-4.7 19.1-7 .7-.3 1.2-.2 1.8.3 3.4 2.8 6.8 5.6 10.2 8.5.3.1.5.4.9.7zM40.9 42.6c4.7 4 9.2 7.9 13.8 11.8l.1-.1c-.2-.2-.4-.5-.6-.7-3.8-3.9-7.6-7.9-11.4-11.8-.5-.5-.6-1-.4-1.6 2.2-9.8 4.4-19.6 6.5-29.4 0-.1 0-.2-.2-.3-2 6.9-3.9 13.8-5.9 20.8C28.5 20.9 14.3 10.5 0 .2 0 .1.1 0 .1 0c2.4.5 4.7.9 7.1 1.4 8.7 1.7 17.5 3.4 26.2 5.1 5 1 10 1.9 15.1 3 .5.1 1.1.5 1.5.9 11.5 10 22.9 19.9 34.4 29.9.2.2.4.4.7.6-.4.2-.7.4-1 .5-8.7 4.5-17.3 8.9-26 13.4-.8.4-1.6.9-2.3 1.5C43.4 65.7 31.2 75.1 19 84.5c-.1.1-.3.2-.6.2 7.5-14 15-28 22.5-42.1z"/><path class="st1" d="M131.3 31.9V60h-5.8V31.9H116v-5.5h24.9v5.5h-9.6zm19.6 28.6c-3.5 0-6.2-1.1-8.3-3.4-2-2.3-3-5.4-3-9.4s1-7.1 3.1-9.4c2-2.3 4.8-3.4 8.3-3.4 3.1 0 5.7 1 7.7 2.9 2 2 3 4.8 3 8.6 0 1.3-.1 2.5-.2 3.5h-16.3c.1 1.7.7 3.1 1.8 4.2s2.4 1.6 4 1.6c2.2 0 3.9-.8 5.2-2.5l3.6 3.6c-2.3 2.4-5.2 3.7-8.9 3.7zm-5.7-15.3H156c-.1-1.8-.7-3.1-1.6-4s-2.1-1.4-3.5-1.4c-1.6 0-2.9.4-4 1.3-1 .9-1.6 2.2-1.7 4.1zm30.5 15.3c-3.4 0-6-1.1-8-3.4s-3-5.4-3-9.4 1-7.1 3-9.4c2-2.3 4.6-3.4 8-3.4 5.1 0 8.3 2.3 9.7 6.8l-5.3 1.8c-.8-2.1-2.2-3.2-4.2-3.2-1.7 0-3 .7-4 2s-1.4 3.2-1.4 5.5.5 4.1 1.4 5.4c.9 1.3 2.2 2 3.8 2 2.3 0 3.8-1.2 4.5-3.6l5.4 1.6c-1.5 4.9-4.8 7.3-9.9 7.3zm13.8-.6v-32l5.6-2.6v12.4c1.6-1.9 3.8-2.9 6.5-2.9 2.6 0 4.6.8 6.3 2.4 1.6 1.6 2.4 4.1 2.4 7.6v15.1h-5.6V45.8c0-3.7-1.5-5.6-4.6-5.6-3.3 0-5 1.8-5 5.5V60h-5.6z"/><path class="st2" d="M246.9 59.9h-5.8V42.1c0-1.5.1-2.8.2-4-.4 1.2-.9 2.5-1.5 4.1l-8.2 18.3-8.2-18.4c-.6-1.3-1.1-2.6-1.6-4 .1 1.2.2 2.6.2 4V60h-5.8V26.3h5.8l8.6 19.7c.4.9.7 1.7.9 2.5.3-.8.6-1.6.9-2.5l8.7-19.7h5.6v33.6zm20.2 0v-2c-1.6 1.7-3.8 2.5-6.5 2.5-2.6 0-4.8-.7-6.4-2.1-1.6-1.4-2.5-3.4-2.5-6 0-2.7.9-4.7 2.8-6s4.1-2.1 6.8-2.1c2.3 0 4.3.4 5.8 1.3v-1.3c0-1.6-.4-2.7-1.2-3.4-.8-.7-2-1.1-3.6-1.1-2.7 0-5.1.8-7.3 2.3l-1.7-4.6c2.7-1.8 5.9-2.7 9.6-2.7 1.3 0 2.4.1 3.4.3 1 .2 2 .6 3 1.2s1.8 1.6 2.4 2.9c.6 1.3.9 2.9.9 4.9v15.8h-5.5zm-5.5-4.3c2.1 0 4-.8 5.5-2.4V50c-1.4-.7-3-1-4.9-1-1.5 0-2.7.3-3.6.8-.9.5-1.4 1.4-1.4 2.5 0 1 .4 1.8 1.2 2.4.7.6 1.8.9 3.2.9zm24.9 13.9l-3-4.5c3.4-.2 5.7-.7 7-1.6 1.3-.8 1.9-2.1 1.9-3.8v-1.4c-1.3 1.5-3.2 2.2-5.6 2.2-3 0-5.4-1.1-7.3-3.3-1.9-2.2-2.8-5.4-2.8-9.5 0-4 .9-7.1 2.8-9.4 1.9-2.3 4.3-3.4 7.4-3.4 2.3 0 4.1.7 5.5 2.1v-1.5h5.6v22.1c0 4.1-.9 7-2.6 8.8s-4.7 2.9-8.9 3.2zm1.3-14.4c2 0 3.6-.8 4.6-2.4V42.6c-1.1-1.6-2.7-2.4-4.6-2.4-1.8 0-3.1.6-4.1 1.9-.9 1.3-1.4 3.1-1.4 5.6 0 2.3.5 4.1 1.4 5.5 1 1.3 2.4 1.9 4.1 1.9zm21-24c-.6.7-1.4 1-2.4 1-.9 0-1.7-.3-2.4-1s-1-1.4-1-2.4c0-.9.3-1.7 1-2.4.7-.6 1.4-1 2.4-1 .9 0 1.7.3 2.4 1 .6.6 1 1.4 1 2.4-.1.9-.4 1.7-1 2.4zm-5.2 28.8V35.4h5.6v24.5h-5.6zm20.9.6c-3.4 0-6-1.1-8-3.4s-3-5.4-3-9.4 1-7.1 3-9.4c2-2.3 4.6-3.4 8-3.4 5.1 0 8.3 2.3 9.7 6.8l-5.3 1.8c-.8-2.1-2.2-3.2-4.2-3.2-1.7 0-3 .7-4 2s-1.4 3.2-1.4 5.5.5 4.1 1.4 5.4c.9 1.3 2.2 2 3.8 2 2.3 0 3.8-1.2 4.5-3.6l5.4 1.6c-1.5 4.9-4.8 7.3-9.9 7.3z"/></svg>