<?xml version="1.0" encoding="utf-8"?>
<!-- Generator: Adobe Illustrator 18.0.0, SVG Export Plug-In . SVG Version: 6.00 Build 0)  -->
<!DOCTYPE svg PUBLIC "-//W3C//DTD SVG 1.1//EN" "http://www.w3.org/Graphics/SVG/1.1/DTD/svg11.dtd">
<svg version="1.1" id="Layer_1" xmlns="http://www.w3.org/2000/svg" xmlns:xlink="http://www.w3.org/1999/xlink" x="0px" y="0px"
	 width="786.5px" height="190.9px" viewBox="0 0 786.5 190.9" enable-background="new 0 0 786.5 190.9" xml:space="preserve">
<g>
	<g>
		<g>
			<polygon fill="#0073E7" points="189.8,0.6 189.8,153.4 152.9,153.4 152.9,37.4 36.8,37.4 36.8,0.6 			"/>
			<polygon fill="#0073E7" points="152.9,153.4 152.9,190.3 0,190.3 0,37.4 36.8,37.4 36.8,153.4 			"/>
			<polygon fill="#0073E7" points="322.9,82.6 322.9,0.6 307.5,0.6 278.9,41.2 250.8,0.6 234.9,0.6 234.9,82.6 250.8,82.6 
				250.8,28.6 273.9,62.7 283.8,62.7 306.9,28.6 306.9,82.6 			"/>
			<polygon fill="#0073E7" points="364.1,82.6 380,82.6 380,0.6 364.1,0.6 			"/>
			<path fill="#0073E7" d="M501.6,74.2V56h-16v10.5h-48.4V16.4h48.4v10.4h16V8.7c0-5-3.3-8.2-8.2-8.2h-63.8c-4.4,0-7.7,3.3-7.7,8.2
				v65.4c0,4.4,3.3,8.2,7.7,8.2h64.3C498.3,82.6,501.6,79.2,501.6,74.2L501.6,74.2z"/>
			<path fill="#0073E7" d="M623.2,82.6l-24.2-33h16c4.4,0,8.2-3.3,8.2-8.3v-33c0-4.9-3.3-8.2-8.2-8.2h-72.1v81.9h16v-33h19.8
				l24.2,33h20.4v0.6H623.2z M558.8,16.6h48.4v17.1h-48.4V16.6L558.8,16.6z"/>
			<path fill="#0073E7" d="M744.7,74.2V8.7c0-5-3.3-8.2-8.2-8.2h-64.3c-4.4,0-7.7,3.3-7.7,8.2v65.4c0,4.4,3.3,8.2,7.7,8.2H737
				C741.4,82.6,744.7,79.2,744.7,74.2L744.7,74.2z M680.3,16.6h48.4v50.1h-48.4V16.6L680.3,16.6z"/>
			<polygon fill="#0073E7" points="315.1,124.3 315.1,107.8 234.9,107.8 234.9,189.7 250.8,189.7 250.8,157.3 298.6,157.3 
				298.6,140.8 250.8,140.8 250.8,124.3 			"/>
			<path fill="#0073E7" d="M417.5,182.1v-66c0-5-3.3-8.2-8.2-8.2h-63.8c-4.4,0-7.7,3.3-7.7,8.2v65.4c0,4.4,3.3,8.2,7.7,8.2h64.4
				C414.2,189.7,417.5,186.4,417.5,182.1L417.5,182.1z M353.7,124.3h47.8v50h-48.4v-50H353.7z"/>
			<path fill="#0073E7" d="M526.9,182.1v-18.1h-16v10.4h-48.4v-50H511v10.5h16v-18.2c0-4.9-3.3-8.2-8.2-8.2h-64.4
				c-4.4,0-7.7,3.3-7.7,8.2v65.5c0,4.4,3.3,8.2,7.7,8.2h64.3C523,189.7,526.9,186.4,526.9,182.1L526.9,182.1z"/>
			<path fill="#0073E7" d="M635.8,182.1v-74.2h-16v66h-48.4v-66h-15.9v73.7c0,4.4,3.3,8.2,7.7,8.2h64.3
				C632.5,189.7,635.8,186.4,635.8,182.1L635.8,182.1z"/>
			<path fill="#0073E7" d="M744.7,182.1v-32.5c0-4.4-3.3-8.2-8.2-8.2h-56.1v-17h48.4v8.8h15.9v-16.5c0-4.9-3.3-8.2-8.2-8.2h-64.3
				c-4.4,0-7.7,3.3-7.7,8.2v32.5c0,4.4,3.3,8.2,7.7,8.2h56.1v17h-48.4v-8.2h-16v16.5c0,4.4,3.3,8.2,7.7,8.2h64.3
				C741.4,189.7,744.7,186.4,744.7,182.1L744.7,182.1z"/>
		</g>
		<g>
			<path fill="#0073E7" d="M771.7,31.3c-8.2,0-14.8-6.6-14.8-14.9s6.6-14.9,14.8-14.9s14.8,6.6,14.8,14.9S779.9,31.3,771.7,31.3z
				 M771.7,2.8c-7.7,0-13.8,6.1-13.8,13.8s6.1,13.2,13.8,13.2s13.2-6.1,13.2-13.2C784.8,8.8,779.3,2.8,771.7,2.8z M775.5,25.8
				l-3.8-8.2h-3.3v8.2h-2.2V7.1h5.5c4.4,0,6.1,1.7,6.1,5.5c0,2.8-1.1,4.4-3.8,5l3.8,8.2H775.5z M768.3,15.4h3.3
				c2.8,0,3.8-1.1,3.8-3.3s-1.1-3.3-3.8-3.3h-2.8v6.6H768.3z"/>
		</g>
	</g>
</g>
</svg>
