<?xml version="1.0" encoding="UTF-8" standalone="no"?>
<!DOCTYPE svg PUBLIC "-//W3C//DTD SVG 1.1//EN" "http://www.w3.org/Graphics/SVG/1.1/DTD/svg11.dtd">
<svg width="100%" height="100%" viewBox="0 0 646 442" version="1.1" xmlns="http://www.w3.org/2000/svg" xmlns:xlink="http://www.w3.org/1999/xlink" xml:space="preserve" style="fill-rule:evenodd;clip-rule:evenodd;stroke-linejoin:round;stroke-miterlimit:1.41421;">
    <g transform="matrix(1,0,0,1,-288.417,-639.721)">
        <g transform="matrix(4.16667,0,0,4.16667,0,0)">
            <path d="M146.356,221.222C145.891,221.222 145.427,221.112 145.002,220.893L120.032,207.986C119.146,207.528 118.551,206.652 118.452,205.658L114.313,163.86C114.168,162.398 115.122,161.053 116.549,160.705L145.658,153.616C145.889,153.56 146.123,153.533 146.356,153.533C147.01,153.533 147.653,153.75 148.178,154.162C148.889,154.722 149.304,155.576 149.304,156.481L149.304,160.259L175.55,164.038C177.111,164.263 178.219,165.677 178.063,167.246L174.259,205.658C174.161,206.652 173.566,207.528 172.679,207.986L147.71,220.893C147.285,221.112 146.821,221.222 146.356,221.222" style="fill:rgb(0,43,84);fill-rule:nonzero;"/>
        </g>
        <g transform="matrix(4.16667,0,0,4.16667,0,0)">
            <path d="M82.057,247.229L74.083,236.315L74.083,247.229L69.22,247.229L69.22,228.371L74.225,228.371L81.859,238.747L81.859,228.371L86.75,228.371L86.75,247.229L82.057,247.229Z" style="fill:rgb(231,54,75);fill-rule:nonzero;"/>
        </g>
        <g transform="matrix(4.16667,0,0,4.16667,0,0)">
            <path d="M89.18,237.815C89.18,231.821 93.76,228.06 99.387,228.06C103.6,228.06 106.144,230.294 107.445,232.64L103.373,234.761C102.667,233.517 101.225,232.358 99.387,232.358C96.305,232.358 94.128,234.733 94.128,237.815C94.128,240.897 96.305,243.272 99.387,243.272C100.772,243.272 102.186,242.707 102.865,242.141L102.865,240.67L98.623,240.67L98.623,236.401L107.728,236.401L107.728,243.894C105.692,246.128 102.95,247.57 99.387,247.57C93.76,247.57 89.18,243.809 89.18,237.815" style="fill:rgb(231,54,75);fill-rule:nonzero;"/>
        </g>
        <g transform="matrix(4.16667,0,0,4.16667,0,0)">
            <path d="M121.637,234.647C121.637,233.346 120.676,232.611 119.375,232.611L115.445,232.611L115.445,236.655L119.375,236.655C120.676,236.655 121.637,235.919 121.637,234.647M110.581,247.229L110.581,228.371L120.025,228.371C124.266,228.371 126.585,231.226 126.585,234.647C126.585,238.04 124.266,240.896 120.025,240.896L115.445,240.896L115.445,247.229L110.581,247.229Z" style="fill:rgb(0,43,84);fill-rule:nonzero;"/>
        </g>
        <g transform="matrix(4.16667,0,0,4.16667,0,0)">
            <path d="M143.01,237.815C143.01,234.733 141.003,232.358 137.892,232.358C134.754,232.358 132.746,234.733 132.746,237.815C132.746,240.869 134.754,243.272 137.892,243.272C141.003,243.272 143.01,240.869 143.01,237.815M127.799,237.815C127.799,232.075 132.124,228.06 137.892,228.06C143.66,228.06 147.958,232.075 147.958,237.815C147.958,243.554 143.66,247.57 137.892,247.57C132.124,247.57 127.799,243.554 127.799,237.815" style="fill:rgb(0,43,84);fill-rule:nonzero;"/>
        </g>
        <g transform="matrix(4.16667,0,0,4.16667,0,0)">
            <path d="M150.415,247.229L150.415,228.371L155.278,228.371L155.278,242.988L162.856,242.988L162.856,247.229L150.415,247.229Z" style="fill:rgb(0,43,84);fill-rule:nonzero;"/>
        </g>
        <g transform="matrix(4.16667,0,0,4.16667,0,0)">
            <path d="M173.513,233.178L171.11,240.275L175.916,240.275L173.513,233.178ZM178.179,247.23L177.245,244.516L169.809,244.516L168.876,247.23L163.363,247.23L170.46,228.371L176.567,228.371L183.692,247.23L178.179,247.23Z" style="fill:rgb(0,43,84);fill-rule:nonzero;"/>
        </g>
        <g transform="matrix(4.16667,0,0,4.16667,0,0)">
            <path d="M197.913,247.229L189.939,236.315L189.939,247.229L185.076,247.229L185.076,228.371L190.081,228.371L197.715,238.747L197.715,228.371L202.606,228.371L202.606,247.229L197.913,247.229Z" style="fill:rgb(0,43,84);fill-rule:nonzero;"/>
        </g>
        <g transform="matrix(4.16667,0,0,4.16667,0,0)">
            <path d="M219.144,237.786C219.144,234.874 217.391,232.611 213.941,232.611L210.859,232.611L210.859,242.988L213.913,242.988C217.221,242.988 219.144,240.585 219.144,237.786M205.996,247.229L205.996,228.371L213.913,228.371C219.851,228.371 224.12,231.933 224.12,237.786C224.12,243.639 219.851,247.229 213.941,247.229L205.996,247.229Z" style="fill:rgb(0,43,84);fill-rule:nonzero;"/>
        </g>
        <g transform="matrix(4.16667,0,0,4.16667,0,0)">
            <path d="M146.356,218.274L121.386,205.367L117.247,163.57L146.356,156.481L146.356,218.274Z" style="fill:rgb(231,54,75);fill-rule:nonzero;"/>
        </g>
        <g transform="matrix(4.16667,0,0,4.16667,0,0)">
            <path d="M146.356,218.274L171.326,205.367L175.13,166.956L146.356,162.812L146.356,218.274Z" style="fill:rgb(183,7,54);fill-rule:nonzero;"/>
        </g>
        <g transform="matrix(4.16667,0,0,4.16667,0,0)">
            <path d="M146.356,191.904L141.69,191.904L146.356,181L151.022,191.904L146.356,191.904ZM162.6,204.922L146.356,169.652L130.112,204.922L136.12,204.922L139.405,197.245L153.307,197.245L156.592,204.922L162.6,204.922Z" style="fill:white;fill-rule:nonzero;"/>
        </g>
        <g transform="matrix(4.16667,0,0,4.16667,0,0)">
            <path d="M146.356,169.652L146.356,181.001L151.022,191.904L146.356,191.904L146.356,197.245L153.307,197.245L156.592,204.922L162.6,204.922L146.356,169.652Z" style="fill:rgb(248,191,174);fill-rule:nonzero;"/>
        </g>
        <g transform="matrix(4.16667,0,0,4.16667,0,0)">
            <path d="M146.356,156.481L117.247,163.57L121.386,205.367L120.833,166.429L146.356,156.481Z" style="fill:rgb(183,7,54);fill-rule:nonzero;"/>
        </g>
        <g transform="matrix(4.16667,0,0,4.16667,0,0)">
            <g transform="matrix(1,0,0,1,10.7785,0.2865)">
                <path d="M90.748,254.942L90.051,256.999L91.444,256.999L90.748,254.942ZM92.1,259.014L91.83,258.228L89.675,258.228L89.404,259.014L87.806,259.014L89.863,253.549L91.633,253.549L93.698,259.014L92.1,259.014Z" style="fill:rgb(0,43,84);fill-rule:nonzero;"/>
            </g>
        </g>
        <g transform="matrix(4.16667,0,0,4.16667,0,0)">
            <g transform="matrix(1,0,0,1,10.7785,0.2865)">
                <path d="M97.818,259.015L95.507,255.852L95.507,259.015L94.098,259.015L94.098,253.55L95.548,253.55L97.76,256.557L97.76,253.55L99.178,253.55L99.178,259.015L97.818,259.015Z" style="fill:rgb(0,43,84);fill-rule:nonzero;"/>
            </g>
        </g>
        <g transform="matrix(4.16667,0,0,4.16667,0,0)">
            <g transform="matrix(1,0,0,1,10.7785,0.2865)">
                <path d="M99.88,256.286C99.88,254.549 101.208,253.459 102.838,253.459C104.059,253.459 104.797,254.106 105.173,254.787L103.993,255.401C103.789,255.041 103.371,254.705 102.838,254.705C101.945,254.705 101.314,255.393 101.314,256.286C101.314,257.18 101.945,257.868 102.838,257.868C103.24,257.868 103.65,257.704 103.846,257.54L103.846,257.114L102.617,257.114L102.617,255.877L105.255,255.877L105.255,258.048C104.666,258.695 103.871,259.113 102.838,259.113C101.208,259.113 99.88,258.023 99.88,256.286" style="fill:rgb(0,43,84);fill-rule:nonzero;"/>
            </g>
        </g>
        <g transform="matrix(4.16667,0,0,4.16667,0,0)">
            <g transform="matrix(1,0,0,1,10.7785,0.2865)">
                <path d="M106.081,256.803L106.081,253.55L107.515,253.55L107.515,256.753C107.515,257.401 107.9,257.868 108.67,257.868C109.424,257.868 109.817,257.401 109.817,256.753L109.817,253.55L111.243,253.55L111.243,256.794C111.243,258.155 110.415,259.114 108.67,259.114C106.909,259.114 106.081,258.147 106.081,256.803" style="fill:rgb(0,43,84);fill-rule:nonzero;"/>
            </g>
        </g>
        <g transform="matrix(4.16667,0,0,4.16667,0,0)">
            <g transform="matrix(1,0,0,1,10.7785,0.2865)">
                <path d="M112.224,259.015L112.224,253.55L113.633,253.55L113.633,257.786L115.829,257.786L115.829,259.015L112.224,259.015Z" style="fill:rgb(0,43,84);fill-rule:nonzero;"/>
            </g>
        </g>
        <g transform="matrix(4.16667,0,0,4.16667,0,0)">
            <g transform="matrix(1,0,0,1,10.7785,0.2865)">
                <path d="M118.917,254.942L118.22,256.999L119.613,256.999L118.917,254.942ZM120.269,259.014L119.999,258.228L117.844,258.228L117.573,259.014L115.975,259.014L118.032,253.549L119.802,253.549L121.867,259.014L120.269,259.014Z" style="fill:rgb(0,43,84);fill-rule:nonzero;"/>
            </g>
        </g>
        <g transform="matrix(4.16667,0,0,4.16667,0,0)">
            <g transform="matrix(1,0,0,1,10.7785,0.2865)">
                <path d="M125.47,255.36C125.47,254.991 125.159,254.778 124.79,254.778L123.676,254.778L123.676,255.95L124.79,255.95C125.159,255.95 125.47,255.745 125.47,255.36M125.315,259.014L124.397,257.179L123.676,257.179L123.676,259.014L122.266,259.014L122.266,253.549L125.003,253.549C126.216,253.549 126.904,254.352 126.904,255.368C126.904,256.319 126.323,256.827 125.814,257.007L126.928,259.014L125.315,259.014Z" style="fill:rgb(0,43,84);fill-rule:nonzero;"/>
            </g>
        </g>
        <g transform="matrix(4.16667,0,0,4.16667,0,0)">
            <g transform="matrix(1,0,0,1,10.7785,0.2865)">
                <path d="M129.499,256.286C129.499,254.599 130.777,253.459 132.457,253.459C133.776,253.459 134.481,254.205 134.842,254.926L133.629,255.5C133.449,255.065 132.981,254.705 132.457,254.705C131.564,254.705 130.933,255.393 130.933,256.286C130.933,257.18 131.564,257.868 132.457,257.868C132.981,257.868 133.449,257.507 133.629,257.073L134.842,257.646C134.489,258.351 133.776,259.113 132.457,259.113C130.777,259.113 129.499,257.966 129.499,256.286" style="fill:rgb(0,43,84);fill-rule:nonzero;"/>
            </g>
        </g>
        <g transform="matrix(4.16667,0,0,4.16667,0,0)">
            <g transform="matrix(1,0,0,1,10.7785,0.2865)">
                <path d="M139.576,256.286C139.576,255.393 138.994,254.705 138.093,254.705C137.183,254.705 136.601,255.393 136.601,256.286C136.601,257.171 137.183,257.868 138.093,257.868C138.994,257.868 139.576,257.171 139.576,256.286M135.167,256.286C135.167,254.623 136.421,253.459 138.093,253.459C139.764,253.459 141.01,254.623 141.01,256.286C141.01,257.949 139.764,259.113 138.093,259.113C136.421,259.113 135.167,257.949 135.167,256.286" style="fill:rgb(0,43,84);fill-rule:nonzero;"/>
            </g>
        </g>
        <g transform="matrix(4.16667,0,0,4.16667,0,0)">
            <g transform="matrix(1,0,0,1,10.7785,0.2865)">
                <path d="M145.44,259.015L143.129,255.852L143.129,259.015L141.72,259.015L141.72,253.55L143.17,253.55L145.382,256.557L145.382,253.55L146.8,253.55L146.8,259.015L145.44,259.015Z" style="fill:rgb(0,43,84);fill-rule:nonzero;"/>
            </g>
        </g>
        <g transform="matrix(4.16667,0,0,4.16667,0,0)">
            <g transform="matrix(1,0,0,1,10.7785,0.2865)">
                <path d="M147.782,259.015L147.782,253.55L151.789,253.55L151.789,254.779L149.191,254.779L149.191,255.631L151.731,255.631L151.731,256.861L149.191,256.861L149.191,259.015L147.782,259.015Z" style="fill:rgb(0,43,84);fill-rule:nonzero;"/>
            </g>
        </g>
        <g transform="matrix(4.16667,0,0,4.16667,0,0)">
            <g transform="matrix(1,0,0,1,10.7785,0.2865)">
                <path d="M152.549,259.015L152.549,253.55L156.556,253.55L156.556,254.779L153.958,254.779L153.958,255.631L156.498,255.631L156.498,256.861L153.958,256.861L153.958,257.786L156.556,257.786L156.556,259.015L152.549,259.015Z" style="fill:rgb(0,43,84);fill-rule:nonzero;"/>
            </g>
        </g>
        <g transform="matrix(4.16667,0,0,4.16667,0,0)">
            <g transform="matrix(1,0,0,1,10.7785,0.2865)">
                <path d="M160.577,255.36C160.577,254.991 160.266,254.778 159.897,254.778L158.783,254.778L158.783,255.95L159.897,255.95C160.266,255.95 160.577,255.745 160.577,255.36M160.421,259.014L159.504,257.179L158.783,257.179L158.783,259.014L157.373,259.014L157.373,253.549L160.11,253.549C161.323,253.549 162.011,254.352 162.011,255.368C162.011,256.319 161.43,256.827 160.921,257.007L162.035,259.014L160.421,259.014Z" style="fill:rgb(0,43,84);fill-rule:nonzero;"/>
            </g>
        </g>
        <g transform="matrix(4.16667,0,0,4.16667,0,0)">
            <g transform="matrix(1,0,0,1,10.7785,0.2865)">
                <path d="M162.787,259.015L162.787,253.55L166.794,253.55L166.794,254.779L164.196,254.779L164.196,255.631L166.736,255.631L166.736,256.861L164.196,256.861L164.196,257.786L166.794,257.786L166.794,259.015L162.787,259.015Z" style="fill:rgb(0,43,84);fill-rule:nonzero;"/>
            </g>
        </g>
        <g transform="matrix(4.16667,0,0,4.16667,0,0)">
            <g transform="matrix(1,0,0,1,10.7785,0.2865)">
                <path d="M171.332,259.015L169.021,255.852L169.021,259.015L167.612,259.015L167.612,253.55L169.062,253.55L171.274,256.557L171.274,253.55L172.692,253.55L172.692,259.015L171.332,259.015Z" style="fill:rgb(0,43,84);fill-rule:nonzero;"/>
            </g>
        </g>
        <g transform="matrix(4.16667,0,0,4.16667,0,0)">
            <g transform="matrix(1,0,0,1,10.7785,0.2865)">
                <path d="M173.394,256.286C173.394,254.599 174.672,253.459 176.352,253.459C177.671,253.459 178.376,254.205 178.737,254.926L177.524,255.5C177.344,255.065 176.876,254.705 176.352,254.705C175.459,254.705 174.828,255.393 174.828,256.286C174.828,257.18 175.459,257.868 176.352,257.868C176.876,257.868 177.344,257.507 177.524,257.073L178.737,257.646C178.384,258.351 177.671,259.113 176.352,259.113C174.672,259.113 173.394,257.966 173.394,256.286" style="fill:rgb(0,43,84);fill-rule:nonzero;"/>
            </g>
        </g>
        <g transform="matrix(4.16667,0,0,4.16667,0,0)">
            <g transform="matrix(1,0,0,1,10.7785,0.2865)">
                <path d="M179.342,259.015L179.342,253.55L183.349,253.55L183.349,254.779L180.751,254.779L180.751,255.631L183.291,255.631L183.291,256.861L180.751,256.861L180.751,257.786L183.349,257.786L183.349,259.015L179.342,259.015Z" style="fill:rgb(0,43,84);fill-rule:nonzero;"/>
            </g>
        </g>
    </g>
</svg>
