<svg id="Capa_1" data-name="Capa 1" xmlns="http://www.w3.org/2000/svg" viewBox="0 0 170.08 181.42"><defs><style>.cls-1{fill:#54284e;}.cls-2{fill:#93b7c6;}.cls-3{fill:#4f86a0;}.cls-4{fill:#6199af;}.cls-5{fill:#fff;}.cls-6{fill:#35647e;}.cls-7{fill:#42738d;}.cls-8{fill:#1c5a7d;}</style></defs><title>LOGO</title><polygon class="cls-1" points="14.34 39.55 24.77 132.19 87.84 170.76 151.63 131.78 161.34 39.54 87.84 10.66 14.34 39.55"/><polygon class="cls-2" points="87.84 18.68 152.06 43.92 160.08 39.05 87.84 10.66 15.59 39.05 23.61 43.92 87.84 18.68"/><polygon class="cls-3" points="28.89 106.52 22.5 45.74 14.49 40.87 24.04 131.78 86.77 170.14 86.77 161.39 31.08 127.34 28.89 106.52"/><polygon class="cls-4" points="153.17 45.74 146.18 112.25 144.59 127.34 88.9 161.39 88.9 170.14 151.63 131.78 161.19 40.87 153.17 45.74"/><path class="cls-5" d="M75.18,62.78h8.35v34.4H75.18l-14-21.65V97.18H52.85V62.78h8.35l14,21.65Z"/><path class="cls-5" d="M94,92.51a16.79,16.79,0,0,1-5.11-12.58A16.79,16.79,0,0,1,94,67.35a17.24,17.24,0,0,1,12.48-5,17.62,17.62,0,0,1,10.16,3,15.79,15.79,0,0,1,6.2,8.4h-10a6.56,6.56,0,0,0-6.25-3.76,8.73,8.73,0,0,0-6.77,2.69,10.2,10.2,0,0,0-2.47,7.18,10.2,10.2,0,0,0,2.47,7.18,8.55,8.55,0,0,0,6.62,2.69,7.6,7.6,0,0,0,4.86-1.49,7.19,7.19,0,0,0,2.52-4h-9.67V78h18.66v6.35a16.69,16.69,0,0,1-5.13,8.75,15.47,15.47,0,0,1-5,3.18,16.27,16.27,0,0,1-6.28,1.22A17.24,17.24,0,0,1,94,92.51Z"/><path class="cls-5" d="M54,108a4.08,4.08,0,0,1,0-5.69,3.9,3.9,0,0,1,2.82-1.12,4,4,0,0,1,2.3.68,3.57,3.57,0,0,1,1.4,1.9H58.28a1.48,1.48,0,0,0-1.41-.85,2,2,0,0,0-1.53.61,2.64,2.64,0,0,0,0,3.25,2,2,0,0,0,1.53.61,1.48,1.48,0,0,0,1.41-.85h2.25a3.57,3.57,0,0,1-1.4,1.9,4,4,0,0,1-2.3.68A3.9,3.9,0,0,1,54,108Z"/><path class="cls-5" d="M63.88,108a4.09,4.09,0,0,1,0-5.7,3.91,3.91,0,0,1,2.83-1.12,3.87,3.87,0,0,1,2.82,1.12,4.11,4.11,0,0,1,0,5.7,4.09,4.09,0,0,1-5.64,0Zm4.31-1.23a2.64,2.64,0,0,0,0-3.25,2.14,2.14,0,0,0-3,0,2.64,2.64,0,0,0,0,3.25,2.14,2.14,0,0,0,3,0Z"/><path class="cls-5" d="M73.31,101.32H75.2v6.32h2.35v1.44H73.31Z"/><path class="cls-5" d="M80.73,108a4.09,4.09,0,0,1,0-5.7,3.91,3.91,0,0,1,2.83-1.12,3.87,3.87,0,0,1,2.82,1.12,4.11,4.11,0,0,1,0,5.7,4.09,4.09,0,0,1-5.64,0ZM85,106.8a2.64,2.64,0,0,0,0-3.25,2.14,2.14,0,0,0-3,0,2.64,2.64,0,0,0,0,3.25,2.14,2.14,0,0,0,3,0Z"/><path class="cls-5" d="M98.94,101.32v7.76H97.05V104.7l-1.8,4.38h-1.4L92,104.7v4.38H90.16v-7.76h2.17l2.23,5.35,2.22-5.35Z"/><path class="cls-5" d="M102,101.32h3.37a2.89,2.89,0,0,1,1.88.57,1.82,1.82,0,0,1-.83,3.24,1.94,1.94,0,0,1,1.25.65,1.89,1.89,0,0,1,.46,1.27,1.79,1.79,0,0,1-.68,1.48,3,3,0,0,1-1.89.55H102Zm1.89,1.44v1.68h1.24a1,1,0,0,0,.66-.21.77.77,0,0,0,.25-.62.79.79,0,0,0-.25-.63,1,1,0,0,0-.66-.22Zm0,4.88h1.43a.91.91,0,0,0,.64-.23.82.82,0,0,0,.25-.64.88.88,0,0,0-.24-.65.86.86,0,0,0-.63-.24h-1.45Z"/><path class="cls-5" d="M110.9,109.07v-7.76h1.89v7.76Z"/><path class="cls-5" d="M120.8,109.07l-.43-1.3h-2.78l-.43,1.3h-2l2.7-7.78h2.3l2.68,7.78Zm-2.74-2.74h1.83l-.92-2.76Z"/><polygon class="cls-6" points="40 120.44 32.67 50.67 86.77 29.41 86.77 21.39 24.65 45.8 32.97 124.88 40 120.44"/><polygon class="cls-7" points="88.9 21.39 88.9 29.41 143 50.67 135.67 120.44 142.71 124.88 151.02 45.8 88.9 21.39"/><polygon class="cls-8" points="141.57 126.69 134.53 122.24 87.84 150.79 41.14 122.24 34.11 126.69 87.84 159.54 141.57 126.69"/></svg>