<?xml version="1.0" encoding="UTF-8"?>
<svg width="126px" height="59px" viewBox="0 0 126 59" version="1.1" xmlns="http://www.w3.org/2000/svg" xmlns:xlink="http://www.w3.org/1999/xlink">
    <!-- Generator: Sketch 49 (51002) - http://www.bohemiancoding.com/sketch -->
    <title>RueLaLa</title>
    <desc>Created with Sketch.</desc>
    <defs></defs>
    <g id="RueLaLa" stroke="none" stroke-width="1" fill="none" fill-rule="evenodd">
        <g id="ruelala_logo" transform="translate(2.000000, 2.000000)" fill="#000000">
            <g id="Group">
                <g fill-rule="nonzero">
                    <path d="M24.4315068,43.4319018 C22.780274,40.7815951 21.6682192,38.2969325 20.9268493,36.3423313 C23.6227397,36.7730061 28.1720548,37.0380368 34.8106849,35.9779141 C43.3027397,34.6196319 55.029863,29.7165644 56.4452055,19.8773006 C57.9953425,9.14355828 43.7745205,0.0331288344 24.7684932,0.331288344 C3.53835616,0.662576687 -2.86438356,13.9141104 1.68493151,21.6993865 C6.23424658,29.4846626 16.3438356,27.6625767 16.3438356,27.6625767 C16.3438356,27.6625767 9.40191781,27.2319018 6.06575342,23.0245399 C3.53835616,19.8441718 2.29150685,15.1398773 6.57123288,9.77300613 C11.9967123,2.98159509 29.4863014,1.35828221 41.1460274,6.29447853 C54.6254795,11.992638 51.7273973,22.196319 49.5706849,25.3435583 C45.7964384,30.809816 34.6084932,35.8785276 20.8931507,34.8515337 C21.7019178,32.7312883 22.6117808,30.6110429 23.5553425,28.7558282 C26.8241096,22.2625767 35.6531507,8.24907975 35.6531507,8.24907975 C35.6531507,8.24907975 32.4180822,7.38773006 31.2723288,8.81226994 C26.5545205,14.7754601 18.6016438,29.9153374 16.0742466,36.607362 C13.5468493,43.3325153 12.0641096,49.9251534 15.4676712,51.5484663 C17.6580822,52.5754601 18.9723288,51.0515337 18.9723288,51.0515337 C17.1863014,50.7533742 16.8830137,49.9582822 17.1189041,47.4736196 C17.2536986,46.0490798 18.2983562,42.2392638 19.7473973,37.998773 C20.1854795,39.9865031 20.9605479,42.6699387 22.3758904,45.4858896 C25.8805479,52.409816 31.1038356,54.0331288 36.7652055,53.7018405 C40.8764384,53.4699387 42.9994521,51.4159509 42.9994521,51.4159509 C42.9994521,51.4159509 31.2049315,54.2319018 24.4315068,43.4319018 Z" id="Shape"></path>
                    <path d="M48.5934247,47.1092025 C52.9068493,45.1877301 55.4679452,41.5104294 54.6591781,38.5288344 C53.850411,35.4478528 47.9194521,36.3423313 45.4594521,41.6760736 C44.8191781,43.0674847 44.5158904,44.3595092 44.4821918,45.4858896 C43.6734247,45.5190184 42.8646575,45.4196319 42.1906849,45.1546012 C40.0339726,44.3595092 41.0786301,42.0736196 41.4493151,41.0466258 C41.7526027,40.2515337 41.4156164,39.9865031 40.4720548,39.2245399 C39.3263014,38.2969325 39.1241096,38.8601227 38.9556164,39.2907975 C38.5175342,40.4503067 37.2032877,45.3865031 34.8443836,44.5251534 C32.4854795,43.6638037 34.0693151,38.7607362 34.0693151,38.7607362 C34.0693151,38.7607362 32.0136986,39.5558282 31.3060274,42.0736196 C30.2950685,45.6515337 32.9235616,47.6392638 35.1476712,47.6392638 C37.3717808,47.6392638 38.5512329,45.9496933 38.5512329,45.9496933 C38.5512329,45.9496933 39.7643836,49.0306748 44.9876712,48.1693252 C46.2345205,50.7533742 49.5032877,51.9791411 53.7156164,51.1840491 C60.1183562,49.9582822 62.0391781,45.3202454 62.0391781,45.3202454 C62.0391781,45.3202454 58.6693151,48.401227 52.9405479,48.6331288 C50.7164384,48.7325153 49.3684932,48.0699387 48.5934247,47.1092025 Z M48.0542466,42.404908 C49.2336986,39.6552147 51.929589,38.0981595 52.7383562,39.191411 C53.2438356,39.9202454 51.9969863,42.7693252 49.5369863,44.1607362 C49.0652055,44.4257669 48.4249315,44.6907975 47.7172603,44.9226994 C47.6161644,43.9619632 47.7846575,43.0343558 48.0542466,42.404908 Z" id="Shape"></path>
                    <path d="M73.4967123,50.8527607 C68.7789041,50.0576687 67.2961644,46.4134969 67.9364384,41.2453988 C69.4865753,40.6822086 71.2389041,39.8208589 73.1934247,38.5288344 C80.4049315,33.7251534 85.830411,25.5423313 88.1219178,19.2478528 C90.4134247,12.9865031 89.6046575,8.81226994 87.2457534,8.44785276 C84.8531507,8.08343558 79.7309589,8.08343558 70.0931507,25.3104294 C66.5884932,31.5386503 64.8024658,36.6736196 64.229589,40.7815951 C62.140274,41.7092025 60.8260274,42.007362 60.8260274,42.007362 C60.8260274,42.007362 62.0054795,42.404908 64.0947945,42.1730061 C63.5893151,48.5337423 66.2852055,52.1447853 69.9920548,53.3374233 C74.9457534,54.9276074 81.9550685,53.1717791 85.4934247,49.3619632 C85.459726,49.3619632 80.4049315,52.0122699 73.4967123,50.8527607 Z M71.2052055,30.5779141 C75.7208219,20.208589 80.7082192,14.808589 83.370411,12.5558282 C86.0326027,10.3030675 86.9424658,10.5018405 86.8750685,11.9595092 C86.8076712,13.4171779 85.459726,19.8110429 78.8547945,28.7558282 C75.3838356,33.4601227 71.6432877,36.5411043 68.4419178,38.5619632 C69.0147945,36.0773006 69.9583562,33.393865 71.2052055,30.5779141 Z" id="Shape"></path>
                    <path d="M113.800274,45.4858896 C112.587123,44.6907975 111.980548,43.597546 111.710959,42.4711656 C111.744658,42.4380368 111.778356,42.404908 111.812055,42.3717791 C114.946027,38.793865 115.013425,37.1042945 114.272055,36.607362 C113.90137,36.3423313 113.294795,36.0110429 112.519726,36.1435583 C112.115342,35.0503067 111.104384,33.6257669 108.779178,33.8907975 C106.251781,34.1889571 101.938356,35.6466258 99.6468493,40.9141104 C98.9054795,42.603681 98.9054795,43.9288344 99.3435616,44.8895706 C98.5347945,45.4527607 97.1194521,46.1484663 95.670411,45.3865031 C94.7268493,44.8895706 94.389863,43.3325153 96.3106849,39.6552147 C99.309863,33.8576687 109.554247,19.4134969 109.554247,19.4134969 C109.554247,19.4134969 105.982192,19.7116564 104.667945,21.6 C104.027671,22.4944785 98.9728767,28.9214724 95.2660274,34.9509202 C92.8060274,38.9263804 91.660274,42.3055215 91.8287671,44.6576687 C90.9863014,45.0552147 89.9753425,45.3202454 88.829589,45.1877301 C85.9315068,44.8233129 86.7739726,42.1067485 88.6273973,38.793865 C89.0317808,38.0650307 87.7512329,36.8723926 87.009863,36.2760736 C87.009863,35.6466258 86.8413699,34.0233129 84.9879452,33.8907975 C82.6964384,33.7582822 78.3156164,37.5349693 76.2936986,41.3447853 C74.3054795,45.1546012 75.7882192,47.3411043 78.450411,47.2748466 C81.1126027,47.208589 83.7073973,43.9288344 83.7073973,43.9288344 C83.7073973,43.9288344 83.4715068,47.5067485 87.650137,47.6723926 C89.2339726,47.7386503 90.8515068,47.009816 92.0646575,45.9496933 C92.5027397,47.3079755 93.6147945,48.1030675 95.3334247,48.2355828 C97.6249315,48.3680982 99.3772603,47.0429448 100.287123,46.1484663 C101.533973,47.2417178 103.454795,47.5067485 104.634247,47.1423313 C106.218082,46.6785276 107.566027,46.3141104 109.250959,44.9226994 C109.891233,46.4466258 111.340274,47.7386503 113.968767,48.3349693 C119.394247,49.4944785 122.966301,45.5521472 122.966301,45.5521472 C122.966301,45.5521472 117.271233,47.7717791 113.800274,45.4858896 Z M82.6964384,42.603681 C81.0789041,44.0613497 80.1690411,44.2269939 79.6635616,43.9288344 C78.5852055,43.3325153 79.9331507,40.4834356 81.2473973,38.8269939 C82.9323288,36.7067485 85.1564384,35.5141104 86.1673973,36.8723926 C85.6282192,38.3300613 84.4487671,41.0466258 82.6964384,42.603681 Z M103.791781,44.790184 C101.60137,45.1877301 102.207945,42.404908 103.55589,40.4171779 C105.712603,37.2699387 108.779178,36.0773006 110.093425,36.0441718 C110.801096,36.0110429 111.373973,36.209816 111.812055,36.4417178 C111.239178,36.7398773 110.632603,37.3361963 110.026027,38.3631902 C109.520548,39.2245399 109.082466,40.2846626 108.913973,41.4110429 C107.431233,42.9349693 105.54411,44.4920245 103.791781,44.790184 Z" id="Shape"></path>
                </g>
                <g transform="translate(115.923288, 35.779141)" fill-rule="nonzero">
                    <path d="M4.27972603,1.09325153 C4.07753425,0.76196319 3.80794521,0.496932515 3.4709589,0.298159509 C3.1339726,0.0993865031 2.76328767,0.0331288344 2.42630137,0.0331288344 C2.05561644,0.0331288344 1.71863014,0.132515337 1.38164384,0.298159509 C1.04465753,0.463803681 0.775068493,0.728834356 0.572876712,1.09325153 C0.370684932,1.42453988 0.269589041,1.78895706 0.269589041,2.15337423 C0.269589041,2.51779141 0.370684932,2.88220859 0.539178082,3.21349693 C0.741369863,3.54478528 0.977260274,3.80981595 1.34794521,4.00858896 C1.68493151,4.20736196 2.05561644,4.27361963 2.42630137,4.27361963 C2.7969863,4.27361963 3.16767123,4.17423313 3.50465753,4.00858896 C3.84164384,3.80981595 4.11123288,3.57791411 4.31342466,3.21349693 C4.51561644,2.88220859 4.5830137,2.51779141 4.5830137,2.15337423 C4.54931507,1.78895706 4.44821918,1.42453988 4.27972603,1.09325153 Z M3.97643836,3.04785276 C3.80794521,3.31288344 3.60575342,3.54478528 3.30246575,3.71042945 C3.03287671,3.87607362 2.72958904,3.94233129 2.42630137,3.94233129 C2.1230137,3.94233129 1.81972603,3.87607362 1.55013699,3.71042945 C1.28054795,3.54478528 1.04465753,3.34601227 0.876164384,3.04785276 C0.707671233,2.78282209 0.640273973,2.48466258 0.640273973,2.18650307 C0.640273973,1.88834356 0.707671233,1.59018405 0.876164384,1.29202454 C1.04465753,0.993865031 1.24684932,0.795092025 1.55013699,0.629447853 C1.85342466,0.463803681 2.1230137,0.397546012 2.42630137,0.397546012 C2.72958904,0.397546012 3.03287671,0.463803681 3.30246575,0.629447853 C3.60575342,0.795092025 3.80794521,0.993865031 3.97643836,1.29202454 C4.14493151,1.59018405 4.21232877,1.85521472 4.21232877,2.18650307 C4.21232877,2.45153374 4.11123288,2.74969325 3.97643836,3.04785276 Z" id="Shape"></path>
                    <path d="M2.7969863,2.41840491 C2.76328767,2.38527607 2.69589041,2.3190184 2.59479452,2.28588957 C2.7969863,2.28588957 2.96547945,2.18650307 3.06657534,2.08711656 C3.20136986,1.95460123 3.23506849,1.82208589 3.23506849,1.65644172 C3.23506849,1.52392638 3.20136986,1.42453988 3.1339726,1.32515337 C3.06657534,1.22576687 2.96547945,1.1595092 2.83068493,1.09325153 C2.69589041,1.0601227 2.52739726,1.02699387 2.25780822,1.02699387 L1.4490411,1.02699387 L1.4490411,3.31288344 L1.81972603,3.31288344 L1.81972603,2.35214724 L2.05561644,2.35214724 C2.19041096,2.35214724 2.29150685,2.38527607 2.35890411,2.41840491 C2.46,2.48466258 2.59479452,2.65030675 2.76328767,2.94846626 L2.96547945,3.31288344 L3.43726027,3.31288344 L3.16767123,2.88220859 C2.99917808,2.68343558 2.86438356,2.51779141 2.7969863,2.41840491 Z M2.29150685,2.05398773 L1.85342466,2.05398773 L1.85342466,1.35828221 L2.29150685,1.35828221 C2.46,1.35828221 2.59479452,1.35828221 2.66219178,1.39141104 C2.72958904,1.42453988 2.7969863,1.45766871 2.83068493,1.52392638 C2.86438356,1.59018405 2.89808219,1.62331288 2.89808219,1.68957055 C2.89808219,1.78895706 2.86438356,1.88834356 2.7969863,1.95460123 C2.66219178,2.0208589 2.49369863,2.05398773 2.29150685,2.05398773 Z" id="Shape"></path>
                </g>
            </g>
        </g>
    </g>
</svg>