<?xml version="1.0" encoding="utf-8"?>
<!-- Generator: Adobe Illustrator 19.0.0, SVG Export Plug-In . SVG Version: 6.00 Build 0)  -->
<svg version="1.1" id="Layer_1" xmlns="http://www.w3.org/2000/svg" xmlns:xlink="http://www.w3.org/1999/xlink" x="0px" y="0px"
	 viewBox="0 0 152 152" style="enable-background:new 0 0 152 152;" xml:space="preserve">
<style type="text/css">
	.st0{fill-rule:evenodd;clip-rule:evenodd;fill:#004B6D;}
	.st1{clip-path:url(#XMLID_8_);fill:#004B6D;}
	.st2{opacity:0.38;fill:#004B6D;}
	.st3{fill:#004B6D;}
	.st4{font-family:'Play';}
	.st5{font-size:8.9612px;}
</style>
<g id="XMLID_2_">
	<g id="XMLID_113_">
		<g id="XMLID_40_">
			<path id="XMLID_41_" class="st0" d="M82.8,81.7L89,64.3c0.1-0.3,0.2-0.7,0.3-1.1h2.6c0.1,0.5,0.2,0.9,0.2,1.1l5.7,17.4l6-17.4
				c0.1-0.3,0.1-0.5,0.1-0.7c0-0.1,0-0.2-0.1-0.4h1.6c-0.1,0.4-0.3,0.8-0.5,1.1l-6.5,19.3c-0.2,0.6-0.3,1-0.3,1.1h-1.9
				c0-0.4-0.1-0.8-0.2-1.1L90,65.1l-6.6,18.5c-0.2,0.6-0.3,1-0.4,1.1h-2c-0.1-0.4-0.1-0.8-0.2-1.1l-6.2-19.3
				c-0.2-0.4-0.3-0.8-0.4-1.1H77c0.1,0.4,0.1,0.8,0.2,1.1L82.8,81.7z"/>
		</g>
	</g>
	<g id="XMLID_102_">
		<g id="XMLID_37_">
			<path id="XMLID_38_" class="st0" d="M0.2,81.1H10c1,0,1.8-0.2,2.3-0.5c0.6-0.4,0.8-0.9,0.8-1.5c0-0.6-0.2-1-0.6-1.4
				c-0.4-0.4-1.2-0.8-2.4-1.3l-3.9-1.5C4,74,2.4,73.1,1.5,72.1c-0.9-0.9-1.3-2.1-1.3-3.5c0-1.8,0.7-3.1,2-4.1
				c1.3-0.9,3.2-1.4,5.7-1.4h8.4v3.6H6.8c-0.8,0-1.4,0.2-1.8,0.5c-0.4,0.3-0.6,0.8-0.6,1.4c0,0.4,0.2,0.8,0.6,1.2
				c0.4,0.4,1,0.7,1.9,1.1l4.1,1.6c2.5,1,4.3,2,5.2,2.9c0.9,0.9,1.3,2.1,1.3,3.5c0,2-0.8,3.5-2.3,4.5c-1.6,1-4,1.5-7.2,1.5H0.2V81.1
				z"/>
		</g>
	</g>
	<g id="XMLID_94_">
		<g id="XMLID_33_">
			<path id="XMLID_34_" class="st0" d="M36.2,84.5V74.1c0-2.2-0.6-3.9-1.9-5.3c-1.3-1.4-3-2-5-2c-2.1,0-3.7,0.7-5,2
				c-1.3,1.3-2,3.1-2,5.2c0,2.1,0.7,3.9,2,5.3c1.3,1.4,3.1,2.1,5.2,2.1c0.9,0,1.9-0.2,2.8-0.5c0.9-0.3,1.8-0.8,2.7-1.4v4
				C34,83.9,33,84.2,32,84.5c-1,0.2-2,0.3-3.1,0.3c-1,0-2.1-0.2-3.1-0.5c-1-0.3-2-0.7-2.8-1.3c-1.6-1-2.8-2.3-3.6-3.9
				c-0.8-1.5-1.2-3.3-1.2-5.2c0-3.1,1-5.7,3.1-7.7c2.1-2,4.7-3,7.9-3c2.1,0,4,0.5,5.7,1.5c1.7,1,3.1,2.4,4,4.1
				c0.4,0.8,0.7,1.7,0.9,2.6c0.2,0.9,0.3,2.3,0.3,4.2v8.7H36.2z"/>
		</g>
	</g>
	<g id="XMLID_88_">
		<g id="XMLID_28_">
			<path id="XMLID_29_" class="st0" d="M43.3,84.7V62.1c0-2.6,0.8-4.5,2.3-5.8c1.5-1.3,3.8-1.9,6.9-1.9h2.4v3.6h-2.3
				c-1.9,0-3.3,0.4-4.1,1.2c-0.9,0.8-1.3,2-1.3,3.7v1.2h7.7v3.5h-7.7v17.3H43.3z"/>
		</g>
	</g>
	<g id="XMLID_82_">
		<g id="XMLID_30_">
			<path id="XMLID_32_" class="st0" d="M76.2,75.1c-0.5,3-1.8,5.3-3.8,7c-2,1.7-4.4,2.6-7.2,2.6c-1,0-1.9-0.1-2.9-0.4
				c-0.9-0.2-1.8-0.6-2.7-1.1c-1.7-1-3.1-2.4-4.1-4c-1-1.6-1.4-3.4-1.4-5.4c0-1.4,0.3-2.8,0.8-4.1c0.6-1.3,1.4-2.5,2.4-3.5
				c1-1,2.3-1.8,3.6-2.4c1.3-0.5,2.8-0.8,4.2-0.8c2.2,0,4.2,0.6,5.9,1.7c1.7,1.1,3.2,2.7,4.2,4.8l-14.3,7.5l-1.6-2.8l10.6-5.7
				c-0.7-0.7-1.4-1.2-2.2-1.6c-0.8-0.4-1.7-0.5-2.7-0.5c-2,0-3.6,0.7-5,2.1c-1.3,1.4-2,3.1-2,5.2c0,2,0.7,3.8,2,5.2
				c1.3,1.4,3,2.1,4.9,2.1c1.9,0,3.4-0.6,4.7-1.7c1.3-1.2,2-2.8,2.3-4.8L76.2,75.1z"/>
		</g>
	</g>
	<g id="XMLID_74_">
		<g id="XMLID_51_">
			<path id="XMLID_52_" class="st0" d="M142.5,63.1c0.3,0,0.6,0,0.9,0c2.6,0,4.6,0.9,6.2,2.6c1.6,1.9,2.4,4.5,2.4,7.9
				c0,3.6-0.9,6.4-2.8,8.4c-1.7,1.9-3.9,2.8-6.7,2.8h0v-1.3h0c2.2,0,3.8-0.9,5-2.6c1.2-1.7,1.8-4.2,1.8-7.3c0-1.7-0.2-3-0.5-4.1
				c-0.3-1.1-0.9-2-1.6-2.8c-1.1-1.2-2.6-1.8-4.3-1.8c-0.1,0-0.3,0-0.4,0V63.1z M135.6,67.4c1.8-2.6,4.1-4,6.9-4.3v1.7
				c-0.9,0.1-1.8,0.3-2.7,0.7c-1,0.5-1.9,1.1-2.6,1.9c-1.1,1.2-1.6,2.9-1.6,5.1c0,2.4,0,4.1,0.1,5c0,0.9,0.1,1.5,0.2,1.9
				c0.3,1.1,1.1,2.1,2.4,2.9c1.3,0.8,2.6,1.2,4.2,1.2v1.3c-1.4,0-2.6-0.2-3.7-0.7c-1.1-0.4-2.3-1.2-3.5-2.2l-0.9,2.5H133
				c0.1-0.5,0.1-0.9,0.1-1.3V55.9c0-0.4,0-0.8-0.1-1.3h2.8c-0.1,0.5-0.1,0.9-0.1,1.3V67.4z"/>
		</g>
	</g>
	<g id="XMLID_4_">
		<g id="XMLID_188_">
			<g id="XMLID_194_">
				<defs>
					<path id="XMLID_195_" d="M130.4,75.4h-12.2v-3.8h6c-0.4-3.3-2.4-4.9-6-4.9h-0.1v-4.4c4,0.1,7.1,1.2,9.2,3.5
						C129.5,68,130.5,71.2,130.4,75.4L130.4,75.4z M118.2,80.9c0.1,0,0.3,0,0.4,0c2.7,0,4.6-1.1,5.2-3.1l6.3,0.9
						c-1.8,4.4-5.7,6.7-11.6,6.7c-0.1,0-0.2,0-0.3,0V80.9z M118.2,75.4h-6.1c0,1.7,0.6,3.1,1.7,4.1c1.1,0.9,2.5,1.4,4.4,1.5v4.5
						c-4-0.1-7.1-1.1-9.2-3.1c-2.2-2.1-3.3-4.9-3.3-8.3c0-3.4,1.1-6.2,3.3-8.4c2.2-2.2,5.2-3.3,9-3.3c0.1,0,0.2,0,0.3,0v4.4
						c-1.9,0-3.3,0.5-4.4,1.4c-1.1,0.9-1.6,2.1-1.6,3.5h6V75.4z"/>
				</defs>
				<clipPath id="XMLID_7_">
					<use xlink:href="#XMLID_195_"  style="overflow:visible;"/>
				</clipPath>
			</g>
		</g>
		<g id="XMLID_172_">
			<path id="XMLID_184_" class="st0" d="M130.4,74.8h-12.2V71h6c-0.4-3.3-2.4-4.9-6-4.9h-0.1v-4.4c4,0.1,7.1,1.2,9.2,3.5
				C129.5,67.5,130.5,70.7,130.4,74.8L130.4,74.8z M118.2,80.3c0.1,0,0.3,0,0.4,0c2.7,0,4.4-1,5-3l6.6,0.9
				c-1.8,4.4-5.9,6.6-11.8,6.6c-0.1,0-0.2,0-0.3,0V80.3z M118.2,74.8h-6.1c0,1.7,0.6,3.1,1.7,4.1c1.1,0.9,2.5,1.4,4.4,1.5v4.5
				c-4,0-7.1-1.1-9.2-3.1c-2.2-2.1-3.3-4.9-3.3-8.3c0-3.4,1.1-6.2,3.3-8.4c2.2-2.2,5.2-3.3,9-3.3c0.1,0,0.2,0,0.3,0v4.4
				c-1.9,0-3.3,0.5-4.4,1.4c-1.1,0.9-1.6,2.1-1.6,3.5h6V74.8z"/>
			<g id="XMLID_178_">
				<defs>
					<path id="XMLID_179_" d="M130.4,75.4h-12.2v-3.8h6c-0.4-3.3-2.4-4.9-6-4.9h-0.1v-4.4c4,0.1,7.1,1.2,9.2,3.5
						C129.5,68,130.5,71.2,130.4,75.4L130.4,75.4z M118.2,80.9c0.1,0,0.3,0,0.4,0c2.7,0,4.6-1.1,5.2-3.1l6.3,0.9
						c-1.8,4.4-5.7,6.7-11.6,6.7c-0.1,0-0.2,0-0.3,0V80.9z M118.2,75.4h-6.1c0,1.7,0.6,3.1,1.7,4.1c1.1,0.9,2.5,1.4,4.4,1.5v4.5
						c-4-0.1-7.1-1.1-9.2-3.1c-2.2-2.1-3.3-4.9-3.3-8.3c0-3.4,1.1-6.2,3.3-8.4c2.2-2.2,5.2-3.3,9-3.3c0.1,0,0.2,0,0.3,0v4.4
						c-1.9,0-3.3,0.5-4.4,1.4c-1.1,0.9-1.6,2.1-1.6,3.5h6V75.4z"/>
				</defs>
				<use xlink:href="#XMLID_179_"  style="overflow:visible;fill-rule:evenodd;clip-rule:evenodd;fill:#004B6D;"/>
				<clipPath id="XMLID_8_">
					<use xlink:href="#XMLID_179_"  style="overflow:visible;"/>
				</clipPath>
				<path id="XMLID_183_" class="st1" d="M131.3,73.9c0,7.3-5.9,13.3-13.3,13.3c-7.3,0-13.3-5.9-13.3-13.3c0-7.3,5.9-13.3,13.3-13.3
					C125.3,60.6,131.3,66.5,131.3,73.9z"/>
			</g>
			<path id="XMLID_177_" class="st2" d="M110.6,64.7c-0.8,0.6,0.9,1.8,1.6,2.1c1.1,0.4,2.4-0.4,3.5-0.5c4-0.6,5.9,0.5,6.5,1.1
				c1.5,1.4,2.6,1.4,3.9,1.5c0.3,0,1.5,0.1,1.8-0.1c0.4-0.2,0.2-0.7,0-1c-0.9-1.7-1.7-3.1-3.6-4c-2.1-1-5.1-1.5-8-1.2
				C116.4,62.6,112.8,63,110.6,64.7z"/>
			<path id="XMLID_175_" class="st0" d="M130.2,67.3c-3.8,7-17,11.9-26.4,9.8C115.5,82.2,128.6,77.2,130.2,67.3z"/>
			<path id="XMLID_173_" class="st0" d="M130.3,67.6c-3.8,7-17,11.9-26.4,9.8C115.6,82.4,128.8,77.5,130.3,67.6z"/>
		</g>
		<g id="XMLID_156_">
			<g id="XMLID_162_">
				<defs>
					<path id="XMLID_163_" d="M130.4,75.4h-12.2v-3.8h6c-0.4-3.3-2.4-4.9-6-4.9h-0.1v-4.4c4,0.1,7.1,1.2,9.2,3.5
						C129.5,68,130.5,71.2,130.4,75.4L130.4,75.4z M118.2,80.9c0.1,0,0.3,0,0.4,0c2.7,0,4.6-1.1,5.2-3.1l6.3,0.9
						c-1.8,4.4-5.7,6.7-11.6,6.7c-0.1,0-0.2,0-0.3,0V80.9z M118.2,75.4h-6.1c0,1.7,0.6,3.1,1.7,4.1c1.1,0.9,2.5,1.4,4.4,1.5v4.5
						c-4-0.1-7.1-1.1-9.2-3.1c-2.2-2.1-3.3-4.9-3.3-8.3c0-3.4,1.1-6.2,3.3-8.4c2.2-2.2,5.2-3.3,9-3.3c0.1,0,0.2,0,0.3,0v4.4
						c-1.9,0-3.3,0.5-4.4,1.4c-1.1,0.9-1.6,2.1-1.6,3.5h6V75.4z"/>
				</defs>
				<clipPath id="XMLID_9_">
					<use xlink:href="#XMLID_163_"  style="overflow:visible;"/>
				</clipPath>
			</g>
		</g>
	</g>
	<text id="XMLID_3_" transform="matrix(1 0 0 1 -7.813703e-005 95.5311)" class="st3 st4 st5">Segurança da Informação</text>
</g>
</svg>
