<?xml version="1.0" standalone="no"?>
<!DOCTYPE svg PUBLIC "-//W3C//DTD SVG 1.1//EN" "http://www.w3.org/Graphics/SVG/1.1/DTD/svg11.dtd">
<svg width="100%" height="100%" viewBox="0 0 2767 375" version="1.1" xmlns="http://www.w3.org/2000/svg" xmlns:xlink="http://www.w3.org/1999/xlink" xml:space="preserve" style="margin: 10px;background:#4502da; fill-rule:evenodd;clip-rule:evenodd;stroke-linejoin:round;stroke-miterlimit:1.41421;" >
    <g transform="matrix(4.16667,0,0,4.16667,0,0)">
        <path d="M341.698,12.848C346.705,12.848 349.27,16.056 349.655,23.501C349.655,24.4 350.299,24.786 351.069,24.652L361.466,22.859C362.236,22.729 362.493,22.091 362.366,21.321C361.596,6.817 353.763,0.395 341.313,0.395C330.655,0.395 324.241,5.399 321.543,13.748C320.389,17.341 319.874,20.932 319.874,45.196C319.874,69.461 320.389,73.056 321.543,76.647C324.241,84.989 330.655,90 341.313,90C353.763,90 361.596,83.58 362.366,69.075C362.493,68.305 362.236,67.663 361.466,67.535L351.069,65.736C350.299,65.608 349.655,65.997 349.655,66.892C349.27,74.337 346.705,77.549 341.698,77.549C337.844,77.549 335.794,75.877 334.764,72.669C334.124,70.615 333.865,68.819 333.865,45.196C333.865,21.578 334.124,19.779 334.764,17.723C335.794,14.518 337.844,12.848 341.698,12.848ZM438.221,40.96L433.733,40.96C433.217,40.96 432.958,40.703 432.958,40.189L432.958,14.771C432.958,14.262 433.217,14.005 433.733,14.005L438.221,14.005C445.923,14.005 449.263,17.213 449.263,27.48C449.263,37.877 445.923,40.96 438.221,40.96ZM452.601,49.818C459.146,46.092 462.998,38.905 462.998,27.48C462.998,8.354 453.626,1.552 438.096,1.552L420.506,1.552C419.737,1.552 419.227,2.062 419.227,2.835L419.227,87.559C419.227,88.33 419.737,88.843 420.506,88.843L431.677,88.843C432.448,88.843 432.958,88.33 432.958,87.559L432.958,53.928C432.958,53.414 433.217,53.158 433.733,53.158L440.276,53.158L450.933,87.944C451.188,88.585 451.573,88.843 452.343,88.843L464.28,88.843C464.923,88.843 465.179,88.202 464.923,87.559L452.601,49.818ZM410.244,1.552L399.072,1.552C398.301,1.552 397.791,2.062 397.791,2.835L397.791,37.238C397.791,37.752 397.534,38.004 397.022,38.004L382.256,38.004C381.746,38.004 381.487,37.752 381.487,37.238L381.487,2.835C381.487,2.062 380.976,1.552 380.203,1.552L369.036,1.552C368.265,1.552 367.75,2.062 367.75,2.835L367.75,87.559C367.75,88.33 368.265,88.843 369.036,88.843L380.203,88.843C380.976,88.843 381.487,88.33 381.487,87.559L381.487,51.228C381.487,50.713 381.746,50.456 382.256,50.456L397.022,50.456C397.534,50.456 397.791,50.713 397.791,51.228L397.791,87.559C397.791,88.33 398.301,88.843 399.072,88.843L410.244,88.843C411.014,88.843 411.524,88.33 411.524,87.559L411.524,2.835C411.524,2.062 411.014,1.552 410.244,1.552ZM485.588,58.419L492.002,25.939L492.391,25.939L498.549,58.419L485.588,58.419ZM499.066,2.835C498.94,2.062 498.424,1.552 497.656,1.552L486.87,1.552C486.103,1.552 485.713,2.062 485.459,2.835L466.589,87.559C466.459,88.33 466.845,88.843 467.618,88.843L478.526,88.843C479.425,88.843 479.81,88.33 479.939,87.559L483.405,69.972L500.734,69.972L504.199,87.559C504.328,88.33 504.713,88.843 505.613,88.843L516.524,88.843C517.294,88.843 517.68,88.33 517.55,87.559L499.066,2.835ZM636.792,40.96L632.304,40.96C631.788,40.96 631.53,40.703 631.53,40.189L631.53,14.771C631.53,14.262 631.788,14.005 632.304,14.005L636.792,14.005C644.496,14.005 647.835,17.213 647.835,27.48C647.835,37.877 644.496,40.96 636.792,40.96ZM663.495,87.559L651.173,49.818C657.718,46.092 661.571,38.905 661.571,27.48C661.571,8.354 652.198,1.552 636.667,1.552L619.078,1.552C618.309,1.552 617.798,2.062 617.798,2.835L617.798,87.559C617.798,88.33 618.309,88.843 619.078,88.843L630.25,88.843C631.02,88.843 631.53,88.33 631.53,87.559L631.53,53.928C631.53,53.414 631.788,53.158 632.304,53.158L638.848,53.158L649.503,87.944C649.759,88.585 650.145,88.843 650.914,88.843L662.851,88.843C663.495,88.843 663.75,88.202 663.495,87.559ZM610.096,1.552L574.28,1.552C573.511,1.552 573,2.062 573,2.835L573,87.559C573,88.33 573.511,88.843 574.28,88.843L610.096,88.843C610.865,88.843 611.379,88.33 611.379,87.559L611.379,77.676C611.379,76.906 610.865,76.391 610.096,76.391L587.506,76.391C586.992,76.391 586.732,76.135 586.732,75.622L586.732,51.742C586.732,51.228 586.992,50.971 587.506,50.971L607.016,50.971C607.786,50.971 608.301,50.456 608.301,49.687L608.301,39.804C608.301,39.037 607.786,38.523 607.016,38.523L587.506,38.523C586.992,38.523 586.732,38.264 586.732,37.752L586.732,14.771C586.732,14.262 586.992,14.005 587.506,14.005L610.096,14.005C610.865,14.005 611.379,13.489 611.379,12.719L611.379,2.835C611.379,2.062 610.865,1.552 610.096,1.552ZM550.796,70.104C549.255,74.469 546.427,76.391 541.549,76.391L536.031,76.391C535.52,76.391 535.26,76.135 535.26,75.622L535.26,14.771C535.26,14.262 535.52,14.005 536.031,14.005L541.549,14.005C546.427,14.005 549.255,15.927 550.796,20.292C551.821,23.501 552.335,27.738 552.335,45.196C552.335,62.66 551.821,66.892 550.796,70.104ZM542.964,1.552L522.809,1.552C522.039,1.552 521.525,2.062 521.525,2.835L521.525,87.559C521.525,88.33 522.039,88.843 522.809,88.843L542.964,88.843C554.39,88.843 561.063,84.223 564.146,74.848C565.683,70.104 566.327,64.197 566.327,45.196C566.327,26.196 565.683,20.292 564.146,15.542C561.063,6.174 554.39,1.552 542.964,1.552ZM169.568,1.552L160.066,1.552C159.297,1.552 158.787,2.062 158.787,2.835L158.787,63.174L158.142,63.174L141.97,2.835C141.711,1.935 141.197,1.552 140.171,1.552L126.565,1.552C125.795,1.552 125.281,2.062 125.281,2.835L125.281,87.559C125.281,88.33 125.795,88.843 126.565,88.843L136.063,88.843C136.837,88.843 137.348,88.33 137.348,87.559L137.348,27.223L138.117,27.223L155.063,87.559C155.322,88.458 155.832,88.843 156.861,88.843L169.568,88.843C170.338,88.843 170.853,88.33 170.853,87.559L170.853,2.835C170.853,2.062 170.338,1.552 169.568,1.552ZM62.513,1.552L51.346,1.552C50.575,1.552 50.061,2.062 50.061,2.835L50.061,87.559C50.061,88.33 50.575,88.843 51.346,88.843L62.513,88.843C63.282,88.843 63.797,88.33 63.797,87.559L63.797,2.835C63.797,2.062 63.282,1.552 62.513,1.552ZM216.162,1.552L180.35,1.552C179.577,1.552 179.066,2.062 179.066,2.835L179.066,87.559C179.066,88.33 179.577,88.843 180.35,88.843L216.162,88.843C216.935,88.843 217.446,88.33 217.446,87.559L217.446,77.676C217.446,76.906 216.935,76.391 216.162,76.391L193.572,76.391C193.053,76.391 192.802,76.135 192.802,75.622L192.802,51.742C192.802,51.228 193.053,50.971 193.572,50.971L213.081,50.971C213.852,50.971 214.366,50.456 214.366,49.687L214.366,39.804C214.366,39.037 213.852,38.523 213.081,38.523L193.572,38.523C193.053,38.523 192.802,38.264 192.802,37.752L192.802,14.771C192.802,14.262 193.053,14.005 193.572,14.005L216.162,14.005C216.935,14.005 217.446,13.489 217.446,12.719L217.446,2.835C217.446,2.062 216.935,1.552 216.162,1.552ZM299.083,38.264L293.82,36.206C286.887,33.516 285.347,31.074 285.347,22.987C285.347,15.799 287.916,12.462 293.305,12.462C298.953,12.462 301.268,16.439 301.522,23.629C301.522,24.4 302.163,24.786 302.933,24.652L313.201,23.116C313.975,22.859 314.354,22.477 314.354,21.706C313.589,8.097 307.297,0.395 292.92,0.395C278.543,0.395 271.741,8.612 271.741,23.629C271.741,37.238 275.334,43.526 287.402,48.277L292.665,50.332C299.469,53.029 301.268,56.109 301.268,65.482C301.268,74.978 298.569,77.934 293.049,77.934C287.142,77.934 284.447,74.337 284.063,65.096C284.063,64.326 283.553,63.811 282.653,63.94L271.867,65.736C271.101,65.868 270.841,66.378 270.841,67.15C271.226,82.423 278.543,90 292.665,90C309.221,90 314.999,81.01 314.999,63.811C314.999,48.919 310.506,42.757 299.083,38.264ZM242.089,40.96L237.596,40.96C237.085,40.96 236.825,40.703 236.825,40.189L236.825,14.771C236.825,14.262 237.085,14.005 237.596,14.005L242.089,14.005C249.792,14.005 253.13,17.213 253.13,27.48C253.13,37.877 249.792,40.96 242.089,40.96ZM256.463,49.818C263.013,46.092 266.863,38.905 266.863,27.48C266.863,8.354 257.495,1.552 241.96,1.552L224.374,1.552C223.608,1.552 223.094,2.062 223.094,2.835L223.094,87.559C223.094,88.33 223.608,88.843 224.374,88.843L235.54,88.843C236.315,88.843 236.825,88.33 236.825,87.559L236.825,53.928C236.825,53.414 237.085,53.158 237.596,53.158L244.143,53.158L254.8,87.944C255.056,88.585 255.441,88.843 256.213,88.843L268.148,88.843C268.792,88.843 269.047,88.202 268.792,87.559L256.463,49.818ZM28.242,38.264L22.979,36.206C16.045,33.516 14.509,31.074 14.509,22.987C14.509,15.799 17.075,12.462 22.463,12.462C28.116,12.462 30.425,16.439 30.681,23.629C30.681,24.4 31.321,24.786 32.095,24.652L42.362,23.116C43.132,22.859 43.517,22.477 43.517,21.706C42.748,8.097 36.458,0.395 22.079,0.395C7.702,0.395 0.899,8.612 0.899,23.629C0.899,37.238 4.493,43.526 16.56,48.277L21.823,50.332C28.626,53.029 30.425,56.109 30.425,65.482C30.425,74.978 27.727,77.934 22.208,77.934C16.305,77.934 13.606,74.337 13.225,65.096C13.225,64.326 12.71,63.811 11.811,63.94L1.029,65.736C0.259,65.868 0,66.378 0,67.15C0.385,82.423 7.702,90 21.823,90C38.384,90 44.157,81.01 44.157,63.811C44.157,48.919 39.667,42.757 28.242,38.264ZM116.553,1.552L107.055,1.552C106.286,1.552 105.771,2.062 105.771,2.835L105.771,63.174L105.127,63.174L88.955,2.835C88.7,1.935 88.185,1.552 87.156,1.552L73.55,1.552C72.78,1.552 72.27,2.062 72.27,2.835L72.27,87.559C72.27,88.33 72.78,88.843 73.55,88.843L83.052,88.843C83.821,88.843 84.332,88.33 84.332,87.559L84.332,27.223L85.106,27.223L102.047,87.559C102.307,88.458 102.821,88.843 103.846,88.843L116.553,88.843C117.323,88.843 117.837,88.33 117.837,87.559L117.837,2.835C117.837,2.062 117.323,1.552 116.553,1.552Z" style="fill:white;fill-rule:nonzero;"/>
    </g>
</svg>
