<?xml version="1.0" encoding="UTF-8"?>
<svg width="223px" height="57px" viewBox="0 0 223 57" version="1.1" xmlns="http://www.w3.org/2000/svg" xmlns:xlink="http://www.w3.org/1999/xlink">
    <!-- Generator: Sketch 49 (51002) - http://www.bohemiancoding.com/sketch -->
    <title>Square</title>
    <desc>Created with Sketch.</desc>
    <defs></defs>
    <g id="Square" stroke="none" stroke-width="1" fill="none" fill-rule="evenodd">
        <g id="Square,_Inc._logo" transform="translate(1.000000, 1.000000)" fill="#000000" fill-rule="nonzero">
            <g id="layer3" transform="translate(1.000000, 0.000000)">
                <g id="g3486">
                    <g id="g3478" transform="translate(70.000000, 9.000000)">
                        <path d="M39.09599,10.0625 C36.9375,10.12452 34.87919,10.998993 33.18974,12.3125 C32.58555,12.743988 31.84984,13.457043 31.45198,14.10292 C30.58662,15.289392 29.85252,16.556972 29.43825,17.973223 C28.239864,21.930029 28.45277,26.410207 30.36983,30.104223 C31.11631,31.418071 31.91587,32.5578 33.09599,33.53125 C34.05316,34.127361 35.16538,34.912265 36.35158,35.220614 C39.59522,36.250176 43.35367,35.721097 46.06474,33.625 C46.74305,33.203668 47.36131,32.392922 47.90849,31.71875 C47.86889,31.541672 48.42771,30.815616 48.47099,31.38125 C48.46899,35.403628 48.47299,39.462605 48.47099,43.5 C49.68974,43.5 50.90849,43.5 52.12724,43.5 C52.12724,32.541667 52.12724,21.583333 52.12724,10.625 C50.90849,10.625 49.68974,10.625 48.47099,10.625 C48.47099,12.083333 48.47099,13.541667 48.47099,15 C47.81622,14.040738 47.23773,12.989071 46.31474,12.375 C44.29663,10.755925 41.69256,9.859117 39.09599,10.0625 Z M40.37724,13.375 C42.05581,13.3707 43.96023,13.84443 45.15849,14.90625 C46.1138,15.680302 46.8287,16.498057 47.34479,17.635217 C48.71188,20.573978 48.83337,24.068523 47.76583,27.120731 C47.28661,28.596841 46.36541,29.843931 45.15849,30.8125 C43.38183,32.332191 40.80851,32.58628 38.56148,32.194496 C37.0739,31.939206 35.81141,31.088106 34.85593,29.956079 C33.07679,28.002557 32.56928,25.176021 32.60186,22.587673 C32.69146,20.341173 33.123,17.984429 34.50224,16.15625 C35.43089,15.007986 36.64541,14.015432 38.13334,13.663796 C38.85606,13.430277 39.62027,13.353565 40.37724,13.375 Z" id="path3299"></path>
                        <path d="M12.237735,0.65625 C9.455995,0.7676205 6.623658,1.497026 4.393985,3.21875 C3.936367,3.522587 3.430454,4.071025 3.113841,4.547685 C1.753566,6.266099 1.057816,8.499487 1.274857,10.693577 C1.352717,12.289839 1.941854,13.841694 3.018985,15.03125 C3.334358,15.506395 3.943108,16.045963 4.438228,16.357495 C7.317185,18.594973 11.061054,19.010556 14.458735,20.028 C16.580393,20.673968 19.036607,21.1124 20.425235,23 C21.60129,24.436089 21.568245,26.5945 20.925235,28.28125 C20.375114,29.662943 19.174542,30.650625 17.893985,31.34375 C15.212309,32.503875 12.106177,32.428492 9.3319,31.651602 C7.241881,31.011914 5.387971,29.770053 4.031166,28.047774 C3.684056,27.48197 3.375362,27.117479 2.832349,27.77127 C2.009145,28.347513 1.18594,28.923757 0.362735,29.5 C1.023887,30.538354 1.80464,31.535083 2.737735,32.25 C4.333899,33.470742 6.064947,34.550413 8.02824,35.056922 C11.701729,36.151418 15.779371,36.037447 19.331485,34.5625 C20.765237,33.813691 22.134595,33.057147 23.148752,31.801006 C24.460562,30.250509 25.303422,28.07582 25.343961,25.956639 C25.451356,23.92211 24.794933,21.858547 23.456485,20.3125 C23.201255,19.910381 22.740591,19.499216 22.298473,19.242241 C21.629669,18.648383 20.873183,18.275963 20.053503,17.83242 C16.398021,16.003828 12.229648,15.609166 8.495736,14.01105 C7.352079,13.442741 6.207129,12.655432 5.612735,11.5 C4.72371,9.527148 5.416387,7.030135 7.157422,5.778779 C8.678221,4.560081 10.766082,4.201552 12.693985,4.1875 C16.041643,4.15329 19.435943,5.613156 21.456485,8.3125 C22.456485,7.5625 23.456485,6.8125 24.456485,6.0625 C23.579348,4.841173 22.482753,3.895154 21.282577,3.086206 C18.633196,1.343693 15.406746,0.4930109 12.237735,0.65625 Z" id="path3297"></path>
                        <path d="M58.298,26.5625 C58.302,28.709886 58.73784,30.940984 60.048,32.6875 C60.62092,33.618835 61.75104,34.359087 62.75534,34.90732 C65.37957,36.121674 68.53004,35.936069 71.12857,34.745698 C72.31215,34.105054 73.44886,33.308083 74.20425,32.28125 C74.55055,31.961764 74.94088,31.054661 75.14175,31.00625 C75.14175,32.389583 75.14175,33.772917 75.14175,35.15625 C76.3605,35.15625 77.57925,35.15625 78.798,35.15625 C78.798,26.979167 78.798,18.802083 78.798,10.625 C77.57925,10.625 76.3605,10.625 75.14175,10.625 C75.11635,15.635103 75.20085,20.648066 75.07925,25.65625 C74.78383,27.6728 73.86749,29.620188 72.20425,30.84375 C70.18833,32.379821 67.26695,32.753096 64.89175,31.8125 C63.22819,31.064858 62.28034,29.239248 62.16164,27.446026 C61.87542,24.309158 62.07754,21.151937 62.01675,18.00625 C62.01675,15.545833 62.01675,13.085417 62.01675,10.625 C60.77717,10.625 59.53758,10.625 58.298,10.625 C58.298,15.9375 58.298,21.25 58.298,26.5625 Z" id="path3301"></path>
                        <path d="M93.8125,10.0625 C90.63895,10.165544 87.4946,11.197427 84.90625,13.03125 C85.4375,13.927083 85.96875,14.822917 86.5,15.71875 C88.65468,14.065144 91.42699,13.388919 94.10625,13.28125 C96.05772,13.2545 98.35575,13.627729 99.4779,15.358999 C100.11867,16.533739 99.97244,18.219807 98.875,19.0625 C97.95575,19.945164 96.39464,20.308165 95.0625,20.5625 C92.53478,21.026933 89.88478,21.126666 87.51292,22.196664 C86.44634,22.695875 85.45692,23.429988 84.84375,24.375 C83.53301,25.999927 83.44111,28.255726 83.82976,30.225279 C84.05215,31.336786 84.62177,32.306434 85.3125,33.1875 C85.67509,33.726696 86.39421,34.087399 87,34.53125 C89.28574,35.836728 92.09101,35.942861 94.63153,35.451493 C96.12869,35.110462 97.51027,34.342446 98.58698,33.367127 C99.15156,33.001833 99.26104,32.390147 99.75,32.03125 C100.21867,32.158634 99.85397,32.911126 99.96875,33.28125 C99.96875,33.90625 99.96875,34.53125 99.96875,35.15625 C101.14583,35.15625 102.32292,35.15625 103.5,35.15625 C103.4738,28.791989 103.5605,22.42488 103.4375,16.0625 C103.15181,14.316749 102.22351,12.511992 100.69885,11.662097 C98.7028,10.354064 96.17154,9.928881 93.8125,10.0625 Z M99.84375,21.625 C99.74207,24.185717 100.25856,26.951811 98.97884,29.303916 C97.92577,31.213625 95.83556,32.341286 93.6816,32.508305 C91.77209,32.667225 89.54502,32.427375 88.25,30.875 C87.32903,29.749152 87.15236,28.039251 87.59964,26.657152 C87.94297,25.458158 89.01619,24.716403 90.15648,24.340826 C92.8488,23.416278 95.78137,23.41007 98.4375,22.375 C98.96375,22.082893 99.44749,21.806857 99.84375,21.40625 C99.84375,21.47917 99.84375,21.552083 99.84375,21.625 Z" id="path3303"></path>
                        <path d="M120.35826,10.15625 C118.40701,10.308404 116.49838,11.19904 115.14524,12.475451 C114.55235,13.128951 113.99769,13.947827 113.48326,14.75 C113.48326,13.375 113.48326,12 113.48326,10.625 C112.26451,10.625 111.04576,10.625 109.82701,10.625 C109.82701,18.802083 109.82701,26.979167 109.82701,35.15625 C111.04576,35.15625 112.26451,35.15625 113.48326,35.15625 C113.51706,30.373891 113.40676,25.586014 113.55986,20.807255 C113.84346,18.493129 114.81095,16.137387 116.77998,14.781341 C118.53616,13.459736 121.05208,13.358452 123.07697,14.15625 C123.51125,13.93465 123.33641,13.184674 123.5672,12.760438 C123.72671,12.152792 123.88621,11.545146 124.04572,10.9375 C122.94057,10.298572 121.62019,10.080994 120.35822,10.15625 L120.35826,10.15625 Z" id="path3305"></path>
                        <path d="M136.34151,10.0625 C134.20322,10.09915 132.14265,10.860737 130.37276,12.03125 C130.01697,12.30197 129.59281,12.613822 129.2083,12.945711 C128.29339,13.831531 127.60259,14.921855 126.93526,16.0625 C125.12715,19.629989 124.92267,23.913 126.06101,27.720987 C126.55778,29.466228 127.6122,31.085546 128.74017,32.383793 C129.20086,32.856481 129.70529,33.247818 130.15401,33.5625 C132.01755,34.907407 134.28197,35.632295 136.57864,35.702481 C139.63448,35.872635 142.83375,35.151163 145.21869,33.159463 C145.96824,32.652218 146.58521,32.049663 147.18526,31.3125 C146.36234,30.5625 145.53943,29.8125 144.71651,29.0625 C143.44787,30.691234 141.6002,31.819821 139.55623,32.177203 C136.72564,32.725463 133.43999,32.123653 131.48134,29.889829 C129.8354,28.307043 129.29971,25.884016 129.24776,23.65625 C129.59463,23.092186 130.46434,23.5655 131.03526,23.40625 C136.74151,23.40625 142.44776,23.40625 148.15401,23.40625 C148.56652,20.08346 147.80549,16.556601 145.69776,13.9125 C145.19188,13.12974 144.37416,12.562702 143.59151,12 C141.52599,10.529767 138.85757,9.90816 136.34151,10.0625 Z M137.65401,13.1875 C140.09419,13.333741 142.45467,14.702269 143.58664,16.873288 C144.12388,18.030365 144.44002,19.312268 144.46651,20.59375 C139.40401,20.59375 134.34151,20.59375 129.27901,20.59375 C129.51645,18.79666 129.94485,16.863064 131.27901,15.5625 C131.51785,15.151262 132.18245,14.747983 132.57042,14.35781 C134.05786,13.388539 135.89815,13.063899 137.65401,13.1875 Z" id="path3307"></path>
                    </g>
                    <path d="M44.33346,0.90101419 L8.8676247,0.90101419 C3.9917557,0.90101419 -5.66e-06,4.8912136 -5.66e-06,9.7686446 L-5.66e-06,45.23448 C-5.66e-06,50.109568 3.9917557,54.098986 8.8676247,54.098986 L44.33346,54.098986 C49.209329,54.098986 53.201091,50.109568 53.201091,45.23448 L53.201091,9.7686446 C53.201091,4.8912136 49.209329,0.90101419 44.33346,0.90101419 Z M43.527454,41.609795 C43.527454,43.159327 42.258307,44.424569 40.707213,44.424569 L12.491529,44.424569 C10.941216,44.424569 9.672069,43.159327 9.672069,41.609795 L9.672069,13.394892 C9.672069,11.844579 10.941216,10.575432 12.491529,10.575432 L40.707213,10.575432 C42.258307,10.575432 43.527454,11.844579 43.527454,13.394892 L43.527454,41.609795 Z M33.856941,33.142044 C33.856941,34.031619 33.13138,34.754837 32.246491,34.754837 L20.962404,34.754837 C20.075172,34.754837 19.351954,34.031619 19.351954,33.142044 L19.351954,21.858738 C19.351954,20.972287 20.075172,20.247506 20.962404,20.247506 L32.246491,20.247506 C33.13138,20.247506 33.856941,20.972287 33.856941,21.858738 L33.856941,33.142044 Z" id="path3010"></path>
                </g>
            </g>
        </g>
    </g>
</svg>