<?xml version="1.0" encoding="UTF-8"?>
<svg width="84px" height="59px" viewBox="0 0 84 59" version="1.1" xmlns="http://www.w3.org/2000/svg" xmlns:xlink="http://www.w3.org/1999/xlink">
    <!-- Generator: Sketch 49 (51002) - http://www.bohemiancoding.com/sketch -->
    <title>TripAdvisor</title>
    <desc>Created with Sketch.</desc>
    <defs></defs>
    <g id="TripAdvisor" stroke="none" stroke-width="1" fill="none" fill-rule="evenodd">
        <g id="TripAdvisor_logo" fill-rule="nonzero">
            <g id="Group" transform="translate(42.000000, 29.000000) scale(-1, 1) rotate(-180.000000) translate(-42.000000, -29.000000) ">
                <g transform="translate(0.419301, 0.311601)" id="Shape">
                    <path d="M43.7751591,0.275516669 C36.5803445,0.275516669 30.0805839,2.0705937 24.9537635,5.38993579 L16.330581,5.39753232 C16.330581,5.39753232 18.3651714,8.088787 19.0254972,10.8025931 C17.3454972,13.0662449 16.337252,15.8504271 16.337252,18.8705735 C16.337252,26.3937222 22.5181804,32.5049743 30.1137425,32.5049743 C34.4529004,32.5049743 38.3229337,30.5098988 40.8505366,27.3949294 L43.7802114,31.7339961 L46.738581,27.3578944 C48.0672771,29.0346735 49.7805337,30.3893651 51.7942774,31.3049351 C55.1389734,32.8280337 58.8801985,32.9769511 62.3314336,31.7169173 C69.4580672,29.1106194 73.1128642,21.2460397 70.481273,14.1914171 C70.0159007,12.9423382 69.3770838,11.8048016 68.613113,10.7902287 C69.2624514,8.05936317 71.3214692,5.33267743 71.3214692,5.33267743 L62.1322371,5.32603349 C56.976967,2.02661834 50.7131422,0.275283378 43.7743743,0.275283378 L43.7751591,0.275516669 Z M15.4079299,40.0652405 C14.8040128,40.0652405 14.3138453,40.553645 14.3138453,41.1502381 C14.3138453,41.7468312 14.8039736,42.2324167 15.4079299,42.2324167 C16.0100321,42.2324167 16.5010336,41.7468507 16.5010336,41.1502381 C16.5010336,40.5536255 16.0100321,40.0652405 15.4079299,40.0652405 Z M4.09723796,41.0314541 L3.96886143,41.0770187 L2.31240596,41.6399305 L2.31240596,43.7833887 L0.474902891,43.7833887 L0.474902891,45.2215305 L2.25874406,45.2215305 L2.25874406,49.8339852 C2.25874406,52.031392 3.01437618,52.9266948 4.86360245,52.9266948 C5.33571924,52.9266948 5.78517442,52.8669674 6.2364445,52.7472843 L6.30638155,52.7273573 L6.28817869,51.2398842 L6.15788917,51.2816336 C5.79675048,51.4110372 5.51119953,51.4724365 5.28801705,51.4724365 C4.42226523,51.4724365 4.09720362,50.9863163 4.09720362,49.6783315 L4.09720362,45.22155 L6.21925209,45.22155 L6.21925209,43.7834082 L4.09720362,43.7834082 L4.09720362,41.0314978 L4.09723796,41.0314541 Z M22.8229839,43.5726249 C21.5623708,43.5726249 20.5006599,44.169218 19.7936864,45.2433286 L19.7936864,43.7833644 L18.112362,43.7833644 L18.112362,56.4301666 L19.9507971,56.4301666 L19.9507971,51.5252234 C20.6148508,52.4200888 21.5678155,52.9092223 22.7530371,52.9092223 C25.078059,52.9092223 26.5775019,51.0207316 26.5775019,48.102164 C26.5775019,45.3925863 25.071388,43.5722847 22.8229839,43.5722847 L22.8229839,43.5726249 Z M12.1646715,43.6248335 C11.0983988,43.6248335 10.2389746,44.1958618 9.70063883,45.2414429 L9.70063883,43.7833741 L8.02024642,43.7833741 L8.02024642,52.7679937 L9.85868146,52.7679937 L9.85868146,48.2590133 C9.85868146,46.3653709 10.6604216,45.3267399 12.1129226,45.3267399 C12.3220029,45.3267399 12.5281696,45.358103 12.7758972,45.4273612 L12.8946941,45.4615335 L12.95409,43.6873555 L12.1646617,43.6247022 L12.1646715,43.6248335 Z M14.4907627,43.7833596 L14.4907627,52.7679791 L16.3301886,52.7679791 L16.3301886,43.7833596 L16.232469,43.7833596 L14.4907627,43.7833596 Z M22.3811317,45.0800687 C23.8023872,45.0800687 24.6535708,46.2488566 24.6535708,48.2069457 C24.6535708,50.2014379 23.7545133,51.436325 22.3111848,51.436325 C20.8555936,51.436325 19.9506009,50.2072702 19.9506009,48.2230817 C19.9506009,46.3148585 20.9046937,45.0800687 22.3811317,45.0800687 Z" fill="#000A12" transform="translate(35.905106, 28.352725) scale(-1, 1) rotate(-180.000000) translate(-35.905106, -28.352725) "></path>
                    <path d="M57.12,51.4151489 C55.6766715,51.3720144 54.2149489,51.1119921 52.7844964,50.5913401 C49.3319124,49.3252504 46.5850511,46.8070442 45.0454599,43.4941905 C44.3501606,41.99967 43.9571387,40.4194881 43.8314453,38.8295856 C43.3200876,45.7991542 37.5148905,51.3282723 30.3853139,51.4680039 C34.329635,53.1393152 38.8601168,54.0487856 43.7719708,54.0487856 C48.715708,54.0487856 53.1799708,53.165439 57.12,51.4151489" fill="#FCC40F"></path>
                    <path d="M30.1134482,26.8877585 C24.0517139,26.8877585 19.1191358,31.7727748 19.1191358,37.780504 C19.1191358,43.781915 24.0522044,48.6674173 30.1134482,48.6674173 C36.1717489,48.6674173 41.1028555,43.7814289 41.1028555,37.780504 C41.1028555,31.7727748 36.1717489,26.8877585 30.1134482,26.8877585 Z M56.7918482,26.9361712 C55.5370231,26.9386986 54.262038,27.1555085 53.0181512,27.6101392 C50.2614797,28.6174217 48.0684053,30.6290705 46.8396753,33.2703621 C45.613398,35.9124798 45.4986674,38.8708041 46.5158596,41.5993367 L46.5158596,41.6012322 C47.529991,44.328404 49.5566351,46.5018012 52.2239355,47.7183166 C54.8929037,48.9388659 57.8800173,49.0559975 60.6337458,48.050557 C66.3197487,45.9643036 69.2368173,39.6851306 67.139883,34.0564993 C65.499271,29.6533261 61.2738625,26.9270291 56.792064,26.9362636 L56.7918482,26.9361712 Z" fill="#FFFFFF" transform="translate(43.469434, 37.807722) scale(-1, 1) rotate(-180.000000) translate(-43.469434, -37.807722) "></path>
                    <path d="M29.9422599,31.2167657 C26.1873985,31.2167657 23.1344584,34.24046 23.1344584,37.9535293 C23.1344584,41.6685912 26.1873495,44.6941811 29.9422599,44.6941811 C33.6873109,44.6941811 36.7358365,41.668494 36.7358365,37.9535293 C36.7358365,34.2403142 33.6875072,31.2167657 29.9422599,31.2167657 Z M57.5315387,31.2167657 C53.7803562,31.2167657 50.7286423,34.24046 50.7286423,37.9535293 C50.7286423,41.6685912 53.7804053,44.6941811 57.5315387,44.6941811 C61.2802686,44.6941811 64.3295299,41.668494 64.3295299,37.9535293 C64.3295299,34.2403142 61.2800724,31.2167657 57.5315387,31.2167657 Z" fill="#000A12" transform="translate(43.731994, 37.955473) scale(-1, 1) rotate(-180.000000) translate(-43.731994, -37.955473) "></path>
                    <path d="M29.9422599,33.5357754 C27.4786686,33.5357754 25.4749804,35.517388 25.4749804,37.951731 C25.4749804,40.387289 27.4786686,42.3734217 29.9422599,42.3734217 C32.3948146,42.3734217 34.3923223,40.3873376 34.3923223,37.951731 C34.3923223,35.5173394 32.3948146,33.5357754 29.9422599,33.5357754 Z M57.5315387,33.5357754 C55.0728526,33.5357754 53.0719112,35.517388 53.0719112,37.951731 C53.0719112,40.387289 55.0728526,42.3734217 57.5315387,42.3734217 C59.9884099,42.3734217 61.9863591,40.3873376 61.9863591,37.951731 C61.9863591,35.5173394 59.9883609,33.5357754 57.5315387,33.5357754 Z" fill="#FFFFFF" transform="translate(43.730670, 37.954599) scale(-1, 1) rotate(-180.000000) translate(-43.730670, -37.954599) "></path>
                    <path d="M32.220438,37.9583895 C32.220438,36.7093106 31.1940438,35.68927 29.9322044,35.68927 C28.6654599,35.68927 27.6427445,36.7093106 27.6427445,37.9583895 C27.6427445,39.2111136 28.6654599,40.2256864 29.9322044,40.2256864 C31.1940438,40.2256864 32.220438,39.2111136 32.220438,37.9583895" fill="#EF6A45"></path>
                    <path d="M57.5320292,3.72672649 C56.2640584,3.72672649 55.2452181,4.74178535 55.2452181,5.99450941 C55.2452181,7.24358829 56.2640584,8.26326437 57.5320292,8.26326437 C58.7956835,8.26326437 59.8179083,7.24358829 59.8179083,5.99450941 C59.8179083,4.74178535 58.7957326,3.72672649 57.5320292,3.72672649 Z M43.164473,26.7418555 L43.164473,32.2504392 C42.4869793,31.3154283 41.5442172,30.8189559 40.3277501,30.8189559 C38.0824362,30.8189559 36.5742131,32.6548589 36.5742131,35.3820793 C36.5742131,38.1925068 38.1010266,40.1559421 40.2942482,40.1559421 C41.5922382,40.1559421 42.6023965,39.5861289 43.3062797,38.4785798 L43.3062797,40.0145095 L45.0048701,40.0145095 L45.0048701,26.7417097 L43.164473,26.7417097 L43.164473,26.7418555 Z M56.9944292,27.3114258 C56.3905121,27.3114258 55.9013255,27.7998302 55.9013255,28.3964233 C55.9013255,28.9930165 56.3904974,29.478602 56.9944292,29.478602 C57.5965314,29.478602 58.0875328,28.9930359 58.0875328,28.3964233 C58.0875328,27.7998108 57.5965314,27.3114258 56.9944292,27.3114258 Z M31.9494307,30.8189559 C30.8280245,30.8189559 29.8436672,31.0296566 28.9393121,31.461624 L28.8827905,31.487252 L28.9038678,33.0431086 L29.0466163,32.9624191 C29.9117795,32.483079 30.7277935,32.2381477 31.4752341,32.2381477 C32.8057451,32.2381477 33.5675576,32.9949826 33.5675576,34.315118 L33.5675576,34.3910591 L32.5165888,34.3910591 C29.4913626,34.3910591 27.8231839,35.4775633 27.8231839,37.4496013 C27.8231839,39.0321891 29.0260148,40.1378912 30.7470706,40.1378912 C32.0131775,40.1378912 32.9939541,39.6451612 33.6911173,38.7168574 L33.6911173,40.01449 L35.3542437,40.01449 L35.3542437,34.5754076 C35.3542437,32.0851234 34.2106665,30.8191795 31.949411,30.8191795 L31.9494307,30.8189559 Z M71.814727,30.8189559 C69.0506978,30.8189559 67.3330756,32.6213233 67.3330756,35.5235119 C67.3330756,38.4238537 69.0506978,40.2252004 71.814727,40.2252004 C74.5904304,40.2252004 76.3155574,38.4238537 76.3155574,35.5235119 C76.3155574,32.6213719 74.5904304,30.8189559 71.814727,30.8189559 Z M82.1708847,30.8711645 C81.1089285,30.8711645 80.2470026,31.4421928 79.706852,32.4877739 L79.706852,31.0297052 L78.0283726,31.0297052 L78.0283726,40.0143248 L79.8668076,40.0143248 L79.8668076,35.5053444 C79.8668076,33.6117019 80.6666838,32.573071 82.1210488,32.573071 C82.3307422,32.573071 82.5349959,32.604434 82.7821104,32.6736923 L82.9009072,32.7078646 L82.9622211,30.9336865 L82.1708798,30.8710333 L82.1708847,30.8711645 Z M63.4039358,30.9262212 C61.4105974,30.9262212 60.0709629,31.8919001 60.0709629,33.3335413 C60.0709629,34.5984159 60.9481927,35.2661142 62.5656526,36.0455977 C63.5846891,36.5443545 64.1205232,36.8360654 64.1205232,37.5359384 C64.1205232,38.2528222 63.4628952,38.7187238 62.4487638,38.7187238 C61.7264864,38.7187238 60.9290137,38.5151628 60.1399288,38.1330176 L60.0048469,38.0656208 L59.9444896,39.6499583 L60.0086778,39.6755717 C60.7628384,39.9714381 61.5593301,40.1217261 62.3778948,40.1217261 C64.6274761,40.1217261 66.0806638,39.0577734 66.0806638,37.4144327 C66.0806638,36.042633 65.1590919,35.3494671 63.5667952,34.6131424 C62.3993792,34.0718101 61.9094078,33.7504031 61.9094078,33.1768961 C61.9094078,32.6313354 62.4541202,32.2760526 63.2947088,32.2760526 C64.0550008,32.2760526 64.7980267,32.4423648 65.5000951,32.7734485 L65.6294281,32.8342013 L65.7127757,31.2850033 L65.6418822,31.257475 C64.8754588,31.0381571 64.1262033,30.9261823 63.403926,30.9261823 L63.4039358,30.9262212 Z M46.1285816,31.0296906 L50.5729051,40.0143102 L55.1407883,31.0296906 L53.2189664,31.0296906 L50.611214,36.2155551 L48.2017752,31.0296906 L46.1285816,31.0296906 Z M56.0757022,31.0296906 L56.0757022,40.0143102 L57.9160993,40.0143102 L57.9160993,31.0296906 L57.8164618,31.0296906 L56.0757365,31.0296906 L56.0757022,31.0296906 Z M71.8323854,32.2570929 C73.3848526,32.2570929 74.3864759,33.5322226 74.3864759,35.5054756 C74.3864759,37.4665781 73.3848526,38.7339314 71.8323854,38.7339314 C70.3056701,38.7339314 69.2792269,37.4368335 69.2792269,35.5054756 C69.2792269,33.5650291 70.3056701,32.2570929 71.8323854,32.2570929 Z M40.7359533,32.2760769 C42.2577635,32.2760769 43.1635901,33.474415 43.1635901,35.4883968 C43.1635901,37.406389 42.2250464,38.6494412 40.7694552,38.6494412 C39.3702727,38.6494412 38.499861,37.4367168 38.499861,35.4883968 C38.499861,33.5370148 39.3771889,32.2760769 40.7359042,32.2760769 L40.7359533,32.2760769 Z M32.6214307,35.6744464 L33.5669886,35.6744464 L33.5669886,36.2240897 C33.5669886,37.7726559 32.6271696,38.7709469 31.1709407,38.7709469 C30.2831159,38.7709469 29.661099,38.1911702 29.661099,37.3612861 C29.661099,36.2738098 30.7127054,35.6744464 32.6214307,35.6744464 Z" fill="#00B087" transform="translate(55.392702, 21.975963) scale(-1, 1) rotate(-180.000000) translate(-55.392702, -21.975963) "></path>
                </g>
            </g>
        </g>
    </g>
</svg>