<?xml version="1.0" encoding="utf-8"?>
<!-- Generator: Adobe Illustrator 17.0.1, SVG Export Plug-In . SVG Version: 6.00 Build 0)  -->
<!DOCTYPE svg PUBLIC "-//W3C//DTD SVG 1.1//EN" "http://www.w3.org/Graphics/SVG/1.1/DTD/svg11.dtd">
<svg version="1.1" xmlns="http://www.w3.org/2000/svg" xmlns:xlink="http://www.w3.org/1999/xlink" x="0px" y="0px"
	 width="163.657px" height="96.005px" viewBox="0 0 163.657 96.005" enable-background="new 0 0 163.657 96.005"
	 xml:space="preserve">
<g id="Layer_2_xA0_Изображение_1_">
</g>
<g id="Label_1_">
	<g id="COMMUNITY">
		<g>
			<path fill="#0894D8" d="M48.849,95.666c-0.329,0.164-0.987,0.329-1.829,0.329c-1.953,0-3.422-1.233-3.422-3.504
				c0-2.168,1.469-3.638,3.617-3.638c0.863,0,1.408,0.185,1.644,0.308l-0.216,0.73c-0.339-0.164-0.822-0.288-1.398-0.288
				c-1.624,0-2.703,1.038-2.703,2.857c0,1.696,0.976,2.785,2.662,2.785c0.545,0,1.1-0.113,1.459-0.288L48.849,95.666z"/>
			<path fill="#0894D8" d="M57.728,92.357c0,2.384-1.449,3.648-3.217,3.648c-1.829,0-3.114-1.418-3.114-3.515
				c0-2.199,1.367-3.638,3.217-3.638C56.505,88.853,57.728,90.302,57.728,92.357z M52.353,92.47c0,1.48,0.802,2.805,2.209,2.805
				c1.418,0,2.22-1.305,2.22-2.877c0-1.377-0.719-2.816-2.209-2.816C53.093,89.583,52.353,90.949,52.353,92.47z"/>
			<path fill="#0894D8" d="M66.781,92.851c-0.051-0.966-0.113-2.127-0.103-2.991h-0.031c-0.236,0.812-0.524,1.675-0.874,2.631
				l-1.223,3.36h-0.678l-1.12-3.299c-0.329-0.976-0.606-1.87-0.802-2.692H61.93c-0.021,0.863-0.072,2.024-0.134,3.062l-0.185,2.97
				h-0.853l0.483-6.926h1.141l1.182,3.35c0.288,0.853,0.524,1.613,0.699,2.333h0.031c0.175-0.699,0.421-1.459,0.73-2.333l1.233-3.35
				h1.141l0.432,6.926h-0.874L66.781,92.851z"/>
			<path fill="#0894D8" d="M77.098,92.851c-0.051-0.966-0.113-2.127-0.103-2.991h-0.031c-0.236,0.812-0.524,1.675-0.874,2.631
				l-1.223,3.36H74.19l-1.12-3.299c-0.329-0.976-0.606-1.87-0.802-2.692h-0.021c-0.021,0.863-0.072,2.024-0.134,3.062l-0.185,2.97
				h-0.853l0.483-6.926H72.7l1.182,3.35c0.288,0.853,0.524,1.613,0.699,2.333h0.031c0.175-0.699,0.421-1.459,0.73-2.333l1.233-3.35
				h1.141l0.432,6.926h-0.874L77.098,92.851z"/>
			<path fill="#0894D8" d="M82.472,88.966v4.1c0,1.552,0.689,2.209,1.613,2.209c1.028,0,1.685-0.678,1.685-2.209v-4.1h0.904v4.039
				c0,2.127-1.12,3.001-2.621,3.001c-1.418,0-2.487-0.812-2.487-2.96v-4.08H82.472z"/>
			<path fill="#0894D8" d="M90.282,95.892v-6.926h0.976l2.22,3.504c0.514,0.812,0.915,1.541,1.244,2.25l0.021-0.01
				c-0.082-0.925-0.103-1.767-0.103-2.847v-2.898h0.843v6.926h-0.904l-2.199-3.514c-0.483-0.771-0.945-1.562-1.295-2.312
				l-0.031,0.01c0.051,0.873,0.072,1.706,0.072,2.857v2.96H90.282z"/>
			<path fill="#0894D8" d="M99.993,88.966v6.926h-0.894v-6.926H99.993z"/>
			<path fill="#0894D8" d="M104.925,89.726h-2.107v-0.76h5.128v0.76h-2.117v6.166h-0.904V89.726z"/>
			<path fill="#0894D8" d="M112.602,95.892v-2.939l-2.189-3.987h1.017l0.976,1.911c0.267,0.524,0.473,0.945,0.689,1.428h0.021
				c0.195-0.452,0.432-0.904,0.699-1.428l0.997-1.911h1.017l-2.322,3.977v2.949H112.602z"/>
		</g>
	</g>
	<g id="UZHHOROD_IT">
		<g>
			<path fill="#00386D" d="M1.809,68.691v8.201c0,3.103,1.377,4.419,3.227,4.419c2.055,0,3.371-1.356,3.371-4.419v-8.201h1.809
				v8.077c0,4.254-2.24,6.001-5.241,6.001C2.137,82.769,0,81.146,0,76.85v-8.159H1.809z"/>
			<path fill="#00386D" d="M16.483,81.495l7.687-11.242v-0.062H17.14v-1.5h9.351v1.089l-7.646,11.201v0.062h7.748v1.5H16.483V81.495
				z"/>
			<path fill="#00386D" d="M34.692,68.691v5.796h6.7v-5.796h1.809v13.853h-1.809v-6.495h-6.7v6.495h-1.788V68.691H34.692z"/>
			<path fill="#00386D" d="M52.202,68.691v5.796h6.7v-5.796h1.809v13.853h-1.809v-6.495h-6.7v6.495h-1.788V68.691H52.202z"/>
			<path fill="#00386D" d="M79.763,75.473c0,4.768-2.898,7.296-6.433,7.296c-3.658,0-6.227-2.836-6.227-7.029
				c0-4.398,2.733-7.276,6.433-7.276C77.317,68.465,79.763,71.362,79.763,75.473z M69.014,75.699c0,2.96,1.603,5.611,4.419,5.611
				c2.836,0,4.439-2.61,4.439-5.755c0-2.754-1.439-5.631-4.419-5.631C70.494,69.924,69.014,72.657,69.014,75.699z"/>
			<path fill="#00386D" d="M86.196,68.876c0.904-0.185,2.199-0.288,3.432-0.288c1.911,0,3.145,0.349,4.008,1.13
				c0.699,0.617,1.089,1.562,1.089,2.631c0,1.829-1.151,3.042-2.61,3.535v0.062c1.069,0.37,1.706,1.357,2.035,2.795
				c0.452,1.932,0.781,3.268,1.069,3.802h-1.85c-0.226-0.391-0.534-1.583-0.925-3.309c-0.411-1.911-1.151-2.631-2.775-2.692h-1.685
				v6.001h-1.788V68.876z M87.984,75.185h1.829c1.911,0,3.124-1.048,3.124-2.631c0-1.788-1.295-2.569-3.186-2.59
				c-0.863,0-1.48,0.082-1.767,0.164V75.185z"/>
			<path fill="#00386D" d="M113.263,75.473c0,4.768-2.898,7.296-6.433,7.296c-3.658,0-6.228-2.836-6.228-7.029
				c0-4.398,2.734-7.276,6.433-7.276C110.817,68.465,113.263,71.362,113.263,75.473z M102.514,75.699
				c0,2.96,1.603,5.611,4.419,5.611c2.836,0,4.439-2.61,4.439-5.755c0-2.754-1.439-5.631-4.419-5.631
				C103.994,69.924,102.514,72.657,102.514,75.699z"/>
			<path fill="#00386D" d="M119.696,68.876c1.089-0.164,2.384-0.288,3.802-0.288c2.569,0,4.398,0.596,5.611,1.726
				c1.233,1.13,1.952,2.733,1.952,4.974c0,2.261-0.699,4.111-1.994,5.385c-1.295,1.295-3.432,1.994-6.125,1.994
				c-1.274,0-2.343-0.062-3.247-0.164V68.876z M121.484,81.125c0.452,0.082,1.11,0.103,1.809,0.103c3.823,0,5.899-2.138,5.899-5.878
				c0.021-3.268-1.829-5.344-5.611-5.344c-0.925,0-1.624,0.082-2.096,0.185V81.125z"/>
			<path fill="#00386D" d="M147.749,68.691v13.853h-1.788V68.691H147.749z"/>
			<path fill="#00386D" d="M157.614,70.212h-4.213v-1.521h10.256v1.521h-4.234v12.332h-1.809V70.212z"/>
		</g>
	</g>
</g>
<g id="Meshes_1_">
	<g id="Shapes">
		<g>
			<path fill="#0894D8" d="M127.189,33.814v-0.031h-0.029l-6.65-7.193l-0.086,0.257l-0.171-0.257l-0.354,0.39l-0.031-0.004
				l0.004,0.034l-3.231,3.554l-3.527-3.327l0.01-0.116l-0.146-0.013l-0.024-0.022l-0.022-0.11l-0.088,0.006l-9.675-9.127
				l-0.055,0.092l-0.073-0.092l-0.383,0.386l-0.002-0.001l0,0.003l-3.761,3.793l-0.077-0.006l-0.007,0.092l-0.234,0.237
				l-0.031-0.008l0.003,0.035l-4.932,4.974l-0.081,0.001l-0.016,0.097l-3.604,3.635l-8.196-9.791l0.014-0.17l-0.168-0.014
				l-4.343-5.189L77.04,16.23l-0.13,0.112l-0.202-0.029l0.01,0.194l-2.284,1.961L66.559,8.221l-0.064,0.576l-0.064-0.062
				L43.288,36.846l-4.346-4.09l-0.16,0.281l-0.225-0.281l-0.314,0.385h-0.071l0.007,0.079l-4.777,5.864l-2.824,3.177l0.137,0.122
				l-0.12,0.147l-0.092-0.04l-0.139,0.324L19.931,55.62l0.128,0.128l9.587-11.271l-1.757,4.081l0.354,0.152l2.253-5.232l0.757-0.89
				l3.057,0.122l0.015-0.385l-2.755-0.11l6.703-7.881l0.283,3.302h0.257l0.32-3.731l3.904,3.333l-0.001,0.009l-0.172-0.038
				l-0.968,3.382l0.573,0.17l0.76-3.421l6.582,0.849l-0.004,0.019l-5.055,2.987l0.196,0.332l4.747-2.805l-1.388,6.36l-3.457-1.152
				l-0.128,0.257l3.468,1.298v2.684l0.128-0.128l0.315-2.39l0.007,0.003l0.013-0.092l3.696,0.924l-2.273,4.029l0.068,0.038
				l-0.028,0.056l3.85,2.333l-2.694,3.062l0.011,0.118l-0.011,0.011l0.012,0.007l0.501,5.516h0.257l-0.237-5.209l1.65,0.97
				l0.257-0.128l-1.925-1.246l-0.002-0.039h-0.058l-0.028-0.018l2.678-2.824l0.201-0.15l-3.931-2.725l2.016-3.573l3.585,0.618
				l0.065-0.38l-3.45-0.595l0.373-0.662l-0.336-0.189l-0.107,0.189l-1.389-6.777l4.233,4.884l0.257-0.257l-4.119-5.138h0.142
				l6.418,2.954v-0.257l-4.986-2.698h4.729V38.15l-6.013-0.437l-0.728-0.394l4.607-7.152l2.262,5.543l0.257-0.128l-2.229-5.865
				l0.095-0.147l3.804,0.746l0.128-0.257l-3.717-0.824l0.181-0.282l5.462-0.95l-0.128-0.257l-4.974,0.649l2.599-4.035l0.32,0.047
				l0.257-0.385h3.211v-0.257L60.3,23.446l2.295-2.639l-0.088-0.076l0.694-2.579l0.79,2.4h0.257l-0.771-2.826l-0.079,0.081
				l-0.019-0.211l2.411-1.54l-0.128-0.128l-2.328,1.164l-0.27-2.967l0.25-0.295l2.795-0.248l-0.447,2.346h0.257l0.574-2.066
				l3.917,4.73l0.012,0.354l3.473-0.116l-1.424,2.492l0.128,0.128l1.64-2.077l0.801,5.032l0.128-0.128l-0.511-4.888l2.296,1.682
				l0.013,0.251l0.133-0.066l-0.004,0.195l3.886,0.054l-0.762,3.482l-0.021-0.002l-0.021,0.192l-0.021,0.192l4.524,0.489
				l-0.907,3.173l0.044,0.088l-0.044,0.04l0.08,0.032l0.048,0.097l0.029-0.066l5.535,2.191l-0.94,3.527l0.311-0.068l1.05-3.151
				l0.082,0.039l0.078,0.091l0.04-0.033l3.716,1.797l-0.14,0.168l0.356,0.214l-0.87,6.337l0.313-0.074l1.389-5.165l2.653,5.881
				h-0.116v0.099l-3.82-0.674l-0.067,0.38l3.887,0.686v4.648l0.193-0.064l-0.193,0.193l4.128,2.342l2.77,4.818l0.168-0.095
				l-2.569-5.138l-0.257,0.257l0.097-0.167l-3.941-2.397l0.376-4.887h-0.227l-2.095-5.695l3.478,2.74l0.128-0.257l-3.982-3.597
				l-0.023,0.03l-0.019-0.051l4.923-1.007l-0.128-0.257l-5.284,0.705l-0.124-0.057l4.248-5.4l1.674,2.826l0.161-0.234l-1.483-3.04
				l3.771-4.795l5.513,5.001l0.192-0.211l3.81-0.054l-0.339,3.96l0.384,0.033l0.323-3.773l3.257,2.962l-0.047,0.024l1.636,4.658
				l-0.095,0.095l5.066,5.082l-0.057,0.057l2.441,4.239l0.128-0.257l-2.184-4.367l-0.053,0.053l-4.828-5.32l-0.092,0.092
				l-1.296-4.103l0.103-0.116l-0.111-0.105l3.058-2.772l0.393,3.534l0.257-0.128l0.106-3.599l5.681,5.912h-3.089v0.257l3.691,0.369
				l12.237,12.733l0.128-0.128L127.189,33.814z M54.715,23.97l0.659,4.672l-5.019,0.471L54.715,23.97z M43.687,36.976l6-7.076
				l0.955,7.041l-0.139-0.075l-0.197,0.591l-0.139-0.01l-0.178-0.067l-0.012,0.053L43.687,36.976z M52.489,46.123l-3.788-0.947
				l1.885-6.034L52.489,46.123z M56.495,28.472l-0.34,0.044l0.083,0.332l-0.188,0.275l-0.118-0.026l-0.026,0.141l-0.266,0.177
				l0.079,0.193l-4.719,6.921l-0.826-6.893l5.255-0.601l0.023,0.16l0.378-0.074l-0.018-0.13l0.243-0.028l-0.057-0.381l-0.241,0.023
				l-0.697-4.924l4.274,0.625L56.495,28.472z M59.623,23.884l-0.03,0.043l-4.33-0.604l3.325-3.921l1.034,4.338V23.884z
				 M62.134,20.631l0.083,0.022l-2.29,2.634l-1.014-4.182l-0.086,0.016l0.098-0.116l3.956-1.145L62.134,20.631z M59.376,18.473
				l3.337-3.936l0.263,2.893L59.376,18.473z M66.179,13.208l-2.51,0.202l2.596-3.062L66.179,13.208z M66.688,9.849l0.068-0.08
				l3.47,4.198l-3.538-0.59V9.849z M70.413,18.175l-3.479-4.365l3.479,0.58V18.175z M70.642,18.554l0.028-0.057h0.128V14.66
				l3.128,3.784L70.642,18.554z M74.715,18.757l2.04-1.508l0.17,3.306L74.715,18.757z M77.256,20.758l0.274-3.384l3.174,3.671
				L77.256,20.758z M80.556,25.024l0.98-3.017l2.978,3.445L80.556,25.024z M84.028,29l1.206-2.715l3.947,4.565L84.028,29z
				 M94.127,33.223l-3.92-1.781l-0.042-0.051l3.296-3.174l0.779,4.87L94.127,33.223z M94.519,32.751L94,28.086l4.684-0.356
				L94.519,32.751z M94.36,27.351l4.273-4.115l0.406,4.063L94.36,27.351z M99.296,26.993l-0.164-4.237l0.3-0.289l3.39,0.275
				L99.296,26.993z M99.802,22.11l2.913-2.806l0.175,3.056L99.802,22.11z M103.297,18.964l4.387,3.99l-4.387-0.711V18.964z
				 M103.685,22.828l4.274,0.509l0.416,3.745L103.685,22.828z M108.753,27.282l-0.05-3.402l3.465,3.151L108.753,27.282z
				 M56.532,29.937l3.861,3.717l0.128-0.128l-3.717-3.861L56.532,29.937z M53.663,50.167l0.359-0.14l-1.156-2.954l-0.359,0.14
				L53.663,50.167z"/>
		</g>
	</g>
	<g id="Ellipses">
		<g>
			<path fill="#0894D8" d="M30.721,41.233c-0.78,0-1.413,0.633-1.413,1.413c0,0.78,0.633,1.413,1.413,1.413
				c0.78,0,1.413-0.633,1.413-1.413C32.134,41.866,31.502,41.233,30.721,41.233z M20.06,54.978c-0.355,0-0.642,0.288-0.642,0.642
				c0,0.355,0.288,0.642,0.642,0.642c0.355,0,0.642-0.288,0.642-0.642C20.702,55.265,20.415,54.978,20.06,54.978z M118.197,33.526
				c-1.064,0-1.927,0.863-1.927,1.927c0,1.064,0.863,1.927,1.927,1.927s1.927-0.863,1.927-1.927
				C120.124,34.389,119.261,33.526,118.197,33.526z M133.483,39.949c-0.568,0-1.028,0.46-1.028,1.028
				c0,0.568,0.46,1.028,1.028,1.028c0.568,0,1.028-0.46,1.028-1.028C134.511,40.409,134.051,39.949,133.483,39.949z M139.263,46.371
				c-0.355,0-0.642,0.288-0.642,0.642c0,0.355,0.288,0.642,0.642,0.642c0.355,0,0.642-0.288,0.642-0.642
				C139.906,46.659,139.618,46.371,139.263,46.371z M104.324,52.665c-0.355,0-0.642,0.288-0.642,0.642
				c0,0.355,0.288,0.642,0.642,0.642c0.355,0,0.642-0.288,0.642-0.642C104.967,52.953,104.679,52.665,104.324,52.665z
				 M125.262,44.188c-0.355,0-0.642,0.288-0.642,0.642c0,0.355,0.288,0.642,0.642,0.642s0.642-0.288,0.642-0.642
				C125.904,44.475,125.617,44.188,125.262,44.188z M93.278,39.435c-0.568,0-1.028,0.46-1.028,1.028c0,0.568,0.46,1.028,1.028,1.028
				c0.568,0,1.028-0.46,1.028-1.028C94.305,39.895,93.845,39.435,93.278,39.435z M123.078,39.563c-0.568,0-1.028,0.46-1.028,1.028
				c0,0.568,0.46,1.028,1.028,1.028c0.568,0,1.028-0.46,1.028-1.028C124.106,40.023,123.646,39.563,123.078,39.563z M75.294,18.754
				c0-0.568-0.46-1.028-1.028-1.028c-0.568,0-1.028,0.46-1.028,1.028c0,0.568,0.46,1.028,1.028,1.028
				C74.834,19.782,75.294,19.322,75.294,18.754z M63.477,23.25c-0.355,0-0.642,0.288-0.642,0.642s0.288,0.642,0.642,0.642
				c0.355,0,0.642-0.288,0.642-0.642S63.831,23.25,63.477,23.25z M62.064,27.232c-0.355,0-0.642,0.288-0.642,0.642
				c0,0.355,0.288,0.642,0.642,0.642c0.355,0,0.642-0.288,0.642-0.642C62.706,27.519,62.418,27.232,62.064,27.232z M60.394,32.884
				c-0.355,0-0.642,0.288-0.642,0.642s0.288,0.642,0.642,0.642c0.355,0,0.642-0.288,0.642-0.642S60.748,32.884,60.394,32.884z
				 M58.339,40.719c-0.355,0-0.642,0.288-0.642,0.642c0,0.355,0.288,0.642,0.642,0.642c0.355,0,0.642-0.288,0.642-0.642
				C58.981,41.007,58.693,40.719,58.339,40.719z M56.283,46.5c-0.355,0-0.642,0.288-0.642,0.642c0,0.355,0.288,0.642,0.642,0.642
				c0.355,0,0.642-0.288,0.642-0.642C56.926,46.787,56.638,46.5,56.283,46.5z M77.093,19.653c-0.78,0-1.413,0.633-1.413,1.413
				c0,0.78,0.633,1.413,1.413,1.413c0.78,0,1.413-0.633,1.413-1.413C78.506,20.286,77.873,19.653,77.093,19.653z M38.685,36.48
				c-0.568,0-1.028,0.46-1.028,1.028c0,0.568,0.46,1.028,1.028,1.028c0.568,0,1.028-0.46,1.028-1.028
				C39.713,36.941,39.253,36.48,38.685,36.48z M34.125,41.49c-0.461,0-0.835,0.374-0.835,0.835s0.374,0.835,0.835,0.835
				c0.461,0,0.835-0.374,0.835-0.835S34.586,41.49,34.125,41.49z M28.281,47.784c-0.355,0-0.642,0.288-0.642,0.642
				s0.288,0.642,0.642,0.642c0.355,0,0.642-0.288,0.642-0.642S28.635,47.784,28.281,47.784z M51.916,60.886
				c-0.355,0-0.642,0.288-0.642,0.642s0.288,0.642,0.642,0.642c0.355,0,0.642-0.288,0.642-0.642S52.271,60.886,51.916,60.886z
				 M44.915,43.031c-0.603,0-1.092,0.489-1.092,1.092s0.489,1.092,1.092,1.092c0.603,0,1.092-0.489,1.092-1.092
				S45.518,43.031,44.915,43.031z M49.861,30.829c0.78,0,1.413-0.633,1.413-1.413c0-0.78-0.633-1.413-1.413-1.413
				c-0.78,0-1.413,0.633-1.413,1.413C48.448,30.196,49.08,30.829,49.861,30.829z M70.798,12.974c-0.78,0-1.413,0.633-1.413,1.413
				c0,0.78,0.633,1.413,1.413,1.413c0.78,0,1.413-0.633,1.413-1.413C72.211,13.606,71.579,12.974,70.798,12.974z M81.46,19.91
				c-0.851,0-1.541,0.69-1.541,1.541c0,0.851,0.69,1.541,1.541,1.541s1.541-0.69,1.541-1.541C83.001,20.6,82.311,19.91,81.46,19.91z
				 M89.809,30.315c-0.568,0-1.028,0.46-1.028,1.028c0,0.568,0.46,1.028,1.028,1.028c0.568,0,1.028-0.46,1.028-1.028
				C90.837,30.775,90.377,30.315,89.809,30.315z M93.727,29.03c0.745,0,1.349-0.604,1.349-1.349c0-0.745-0.604-1.349-1.349-1.349
				c-0.745,0-1.349,0.604-1.349,1.349C92.378,28.426,92.982,29.03,93.727,29.03z M117.555,30.829c0-0.568-0.46-1.028-1.028-1.028
				c-0.568,0-1.028,0.46-1.028,1.028c0,0.568,0.46,1.028,1.028,1.028C117.095,31.856,117.555,31.396,117.555,30.829z
				 M108.306,21.837c-0.851,0-1.541,0.69-1.541,1.541s0.69,1.541,1.541,1.541s1.541-0.69,1.541-1.541S109.158,21.837,108.306,21.837
				z M127.06,32.884c-0.78,0-1.413,0.633-1.413,1.413c0,0.78,0.633,1.413,1.413,1.413c0.78,0,1.413-0.633,1.413-1.413
				C128.473,33.516,127.841,32.884,127.06,32.884z M43.053,38.15c0.568,0,1.028-0.46,1.028-1.028c0-0.568-0.46-1.028-1.028-1.028
				c-0.568,0-1.028,0.46-1.028,1.028C42.025,37.69,42.485,38.15,43.053,38.15z M63.412,16.185c-0.958,0-1.734,0.776-1.734,1.734
				s0.776,1.734,1.734,1.734c0.958,0,1.734-0.776,1.734-1.734S64.37,16.185,63.412,16.185z M97.645,44.958
				c-0.568,0-1.028,0.46-1.028,1.028c0,0.568,0.46,1.028,1.028,1.028c0.568,0,1.028-0.46,1.028-1.028
				C98.673,45.418,98.212,44.958,97.645,44.958z M101.627,47.527c-0.568,0-1.028,0.46-1.028,1.028c0,0.568,0.46,1.028,1.028,1.028
				c0.568,0,1.028-0.46,1.028-1.028C102.655,47.987,102.194,47.527,101.627,47.527z M54.742,43.674c0,0.568,0.46,1.028,1.028,1.028
				s1.028-0.46,1.028-1.028c0-0.568-0.46-1.028-1.028-1.028S54.742,43.106,54.742,43.674z M58.21,33.911
				c-0.78,0-1.413,0.633-1.413,1.413c0,0.78,0.633,1.413,1.413,1.413c0.78,0,1.413-0.633,1.413-1.413
				C59.623,34.544,58.99,33.911,58.21,33.911z M54.228,52.023c-0.568,0-1.028,0.46-1.028,1.028c0,0.568,0.46,1.028,1.028,1.028
				c0.568,0,1.028-0.46,1.028-1.028C55.256,52.483,54.796,52.023,54.228,52.023z M70.541,17.598c-0.568,0-1.028,0.46-1.028,1.028
				c0,0.568,0.46,1.028,1.028,1.028c0.568,0,1.028-0.46,1.028-1.028C71.569,18.058,71.109,17.598,70.541,17.598z M83.836,28.003
				c-0.603,0-1.092,0.489-1.092,1.092c0,0.603,0.489,1.092,1.092,1.092c0.603,0,1.092-0.489,1.092-1.092
				C84.928,28.491,84.439,28.003,83.836,28.003z M88.717,33.783c-0.603,0-1.092,0.489-1.092,1.092s0.489,1.092,1.092,1.092
				c0.603,0,1.092-0.489,1.092-1.092S89.32,33.783,88.717,33.783z M54.87,25.048c0.922,0,1.67-0.748,1.67-1.67
				s-0.748-1.67-1.67-1.67s-1.67,0.748-1.67,1.67S53.948,25.048,54.87,25.048z M60.137,29.287c-0.497,0-0.899,0.403-0.899,0.899
				c0,0.497,0.403,0.899,0.899,0.899s0.899-0.403,0.899-0.899C61.036,29.69,60.633,29.287,60.137,29.287z M58.852,38.279
				c0-0.497-0.403-0.899-0.899-0.899c-0.497,0-0.899,0.403-0.899,0.899s0.403,0.899,0.899,0.899
				C58.45,39.178,58.852,38.775,58.852,38.279z M50.246,45.408c0-0.887-0.748-1.606-1.67-1.606c-0.922,0-1.67,0.719-1.67,1.606
				s0.748,1.606,1.67,1.606C49.498,47.014,50.246,46.295,50.246,45.408z M48.319,47.399c-0.355,0-0.642,0.288-0.642,0.642
				c0,0.355,0.288,0.642,0.642,0.642c0.355,0,0.642-0.288,0.642-0.642C48.962,47.686,48.674,47.399,48.319,47.399z M44.723,42.004
				c0.355,0,0.642-0.288,0.642-0.642c0-0.355-0.288-0.642-0.642-0.642c-0.355,0-0.642,0.288-0.642,0.642
				C44.08,41.716,44.368,42.004,44.723,42.004z M72.597,20.552c-0.426,0-0.771,0.345-0.771,0.771s0.345,0.771,0.771,0.771
				s0.771-0.345,0.771-0.771S73.022,20.552,72.597,20.552z M51.531,55.106c-0.568,0-1.028,0.46-1.028,1.028
				c0,0.568,0.46,1.028,1.028,1.028c0.568,0,1.028-0.46,1.028-1.028C52.558,55.566,52.098,55.106,51.531,55.106z M53.457,56.647
				c-0.355,0-0.642,0.288-0.642,0.642c0,0.355,0.288,0.642,0.642,0.642c0.355,0,0.642-0.288,0.642-0.642
				C54.1,56.935,53.812,56.647,53.457,56.647z M53.2,50.096c0,0.355,0.288,0.642,0.642,0.642c0.355,0,0.642-0.288,0.642-0.642
				c0-0.355-0.288-0.642-0.642-0.642C53.488,49.454,53.2,49.742,53.2,50.096z M64.119,19.91c-0.355,0-0.642,0.288-0.642,0.642
				c0,0.355,0.288,0.642,0.642,0.642c0.355,0,0.642-0.288,0.642-0.642C64.761,20.198,64.474,19.91,64.119,19.91z M65.66,15.414
				c-0.355,0-0.642,0.288-0.642,0.642c0,0.355,0.288,0.642,0.642,0.642c0.355,0,0.642-0.288,0.642-0.642
				C66.303,15.702,66.015,15.414,65.66,15.414z M62.128,20.167c-0.532,0-0.963,0.431-0.963,0.963s0.431,0.963,0.963,0.963
				c0.532,0,0.963-0.431,0.963-0.963S62.66,20.167,62.128,20.167z M75.037,23.635c-0.355,0-0.642,0.288-0.642,0.642
				c0,0.355,0.288,0.642,0.642,0.642s0.642-0.288,0.642-0.642C75.68,23.923,75.392,23.635,75.037,23.635z M66.431,12.075
				c-0.78,0-1.413,0.633-1.413,1.413c0,0.78,0.633,1.413,1.413,1.413c0.78,0,1.413-0.633,1.413-1.413
				C67.844,12.707,67.211,12.075,66.431,12.075z M80.432,24.021c-0.568,0-1.028,0.46-1.028,1.028c0,0.568,0.46,1.028,1.028,1.028
				c0.568,0,1.028-0.46,1.028-1.028C81.46,24.481,81,24.021,80.432,24.021z M85.249,24.663c-0.674,0-1.22,0.546-1.22,1.22
				s0.546,1.22,1.22,1.22c0.674,0,1.22-0.546,1.22-1.22S85.923,24.663,85.249,24.663z M100.085,30.829
				c0,0.355,0.288,0.642,0.642,0.642c0.355,0,0.642-0.288,0.642-0.642c0-0.355-0.288-0.642-0.642-0.642
				C100.373,30.186,100.085,30.474,100.085,30.829z M100.856,33.012c0-0.355-0.288-0.642-0.642-0.642
				c-0.355,0-0.642,0.288-0.642,0.642c0,0.355,0.288,0.642,0.642,0.642C100.569,33.654,100.856,33.367,100.856,33.012z
				 M99.315,37.251c-0.355,0-0.642,0.288-0.642,0.642s0.288,0.642,0.642,0.642c0.355,0,0.642-0.288,0.642-0.642
				S99.669,37.251,99.315,37.251z M98.994,23.892c0.816,0,1.477-0.661,1.477-1.477c0-0.816-0.661-1.477-1.477-1.477
				c-0.816,0-1.477,0.661-1.477,1.477C97.516,23.231,98.178,23.892,98.994,23.892z M104.581,22.736c0-0.78-0.633-1.413-1.413-1.413
				c-0.78,0-1.413,0.633-1.413,1.413c0,0.78,0.633,1.413,1.413,1.413C103.949,24.149,104.581,23.516,104.581,22.736z
				 M112.866,26.204c-0.674,0-1.22,0.546-1.22,1.22s0.546,1.22,1.22,1.22s1.22-0.546,1.22-1.22S113.54,26.204,112.866,26.204z
				 M108.628,26.333c-0.674,0-1.22,0.546-1.22,1.22s0.546,1.22,1.22,1.22s1.22-0.546,1.22-1.22S109.301,26.333,108.628,26.333z
				 M112.481,30.315c-0.674,0-1.22,0.546-1.22,1.22c0,0.674,0.546,1.22,1.22,1.22s1.22-0.546,1.22-1.22
				C113.701,30.861,113.155,30.315,112.481,30.315z M120.509,30.443c-0.568,0-1.028,0.46-1.028,1.028
				c0,0.568,0.46,1.028,1.028,1.028c0.568,0,1.028-0.46,1.028-1.028C121.537,30.903,121.077,30.443,120.509,30.443z M123.4,33.141
				c-0.461,0-0.835,0.374-0.835,0.835s0.374,0.835,0.835,0.835s0.835-0.374,0.835-0.835S123.861,33.141,123.4,33.141z
				 M56.283,37.765c0-3.051-2.473-5.523-5.523-5.523s-5.523,2.473-5.523,5.523c0,3.05,2.473,5.523,5.523,5.523
				S56.283,40.815,56.283,37.765z M98.287,33.783c0-2.057-1.668-3.725-3.725-3.725s-3.725,1.668-3.725,3.725
				s1.668,3.725,3.725,3.725S98.287,35.84,98.287,33.783z M99.122,30.186c1.383,0,2.505-1.121,2.505-2.505
				c0-1.383-1.121-2.505-2.505-2.505s-2.505,1.121-2.505,2.505C96.617,29.065,97.739,30.186,99.122,30.186z M77.157,14.772
				c-1.029,0-1.863,0.834-1.863,1.863c0,1.029,0.834,1.863,1.863,1.863c1.029,0,1.863-0.834,1.863-1.863
				C79.019,15.606,78.185,14.772,77.157,14.772z M59.687,21.58c-1.241,0-2.248,1.006-2.248,2.248c0,1.241,1.006,2.248,2.248,2.248
				c1.242,0,2.248-1.006,2.248-2.248C61.935,22.586,60.929,21.58,59.687,21.58z M55.834,32.755c1.809,0,3.276-1.467,3.276-3.276
				s-1.466-3.276-3.276-3.276s-3.276,1.466-3.276,3.276S54.025,32.755,55.834,32.755z M52.173,50.482
				c0-0.851-0.69-1.541-1.541-1.541c-0.851,0-1.541,0.69-1.541,1.541s0.69,1.541,1.541,1.541
				C51.483,52.023,52.173,51.333,52.173,50.482z M97.773,39.435c-0.993,0-1.798,0.805-1.798,1.798c0,0.993,0.805,1.798,1.798,1.798
				c0.993,0,1.798-0.805,1.798-1.798C99.572,40.24,98.767,39.435,97.773,39.435z M38.814,31.471c-0.993,0-1.798,0.805-1.798,1.798
				s0.805,1.798,1.798,1.798s1.798-0.805,1.798-1.798S39.807,31.471,38.814,31.471z M34.96,36.224c-0.993,0-1.798,0.805-1.798,1.798
				c0,0.993,0.805,1.798,1.798,1.798c0.993,0,1.798-0.805,1.798-1.798C36.759,37.029,35.953,36.224,34.96,36.224z M66.559,6.936
				c-1.206,0-2.184,0.978-2.184,2.184c0,1.206,0.978,2.184,2.184,2.184s2.184-0.978,2.184-2.184
				C68.743,7.914,67.765,6.936,66.559,6.936z M58.788,20.552c1.029,0,1.863-0.834,1.863-1.863c0-1.029-0.834-1.863-1.863-1.863
				c-1.029,0-1.863,0.834-1.863,1.863C56.926,19.718,57.759,20.552,58.788,20.552z M103.104,16.57c-1.029,0-1.863,0.834-1.863,1.863
				c0,1.029,0.834,1.863,1.863,1.863c1.029,0,1.863-0.834,1.863-1.863C104.967,17.404,104.133,16.57,103.104,16.57z M120.445,25.562
				c-0.958,0-1.734,0.776-1.734,1.734s0.776,1.734,1.734,1.734s1.734-0.776,1.734-1.734S121.403,25.562,120.445,25.562z
				 M42.218,39.049c-0.887,0-1.606,0.719-1.606,1.606s0.719,1.606,1.606,1.606s1.606-0.719,1.606-1.606S43.105,39.049,42.218,39.049
				z M54.485,46.371c0-0.993-0.805-1.798-1.798-1.798c-0.993,0-1.798,0.805-1.798,1.798s0.805,1.798,1.798,1.798
				C53.68,48.17,54.485,47.364,54.485,46.371z M62.77,15.671c1.029,0,1.863-0.834,1.863-1.863s-0.834-1.863-1.863-1.863
				c-1.029,0-1.863,0.834-1.863,1.863S61.741,15.671,62.77,15.671z"/>
		</g>
	</g>
</g>
<g id="Contour_1_">
	<g id="Shapes_1_">
		<g>
			<polygon fill-rule="evenodd" clip-rule="evenodd" fill="#0894D8" points="120.381,21.451 117.17,24.92 103.168,11.304 
				90.965,25.562 78.12,9.377 75.808,12.203 66.688,0 44.08,31.471 38.685,26.076 24.299,44.958 38.685,29.03 43.438,33.911 
				66.688,3.854 74.78,14.9 77.093,12.203 90.066,28.003 103.168,14.515 116.656,27.36 120.381,23.378 137.722,41.233 			"/>
		</g>
	</g>
</g>
</svg>
