<svg id="Layer_1" data-name="Layer 1" xmlns="http://www.w3.org/2000/svg" viewBox="0 0 396.51 22.68"><defs><style>.cls-1{fill:#702481}</style></defs><title>Untitled-1</title><g id="QGDevK"><path class="cls-1" d="M0 .05h4.2a.43.43 0 0 1 .46.45c1.21 4.85 2.72 9.63 3.57 14.57 0 .14.08.27.18.63.52-2.34 1-4.46 1.46-6.58.63-2.82 1.24-5.63 1.83-8.44a.64.64 0 0 1 .78-.68 30.25 30.25 0 0 0 3.08 0 .67.67 0 0 1 .82.68q1.57 7.3 3.17 14.6c0 .06 0 .12.15.37.32-1.41.58-2.64.89-3.86.93-3.73 1.89-7.48 2.81-11.25a.55.55 0 0 1 .67-.54h3.31c.53 0 .61.1.46.62Q25.44 9 23.08 17.33c-.4 1.42-.84 2.83-1.2 4.26a.68.68 0 0 1-.82.6h-3a.57.57 0 0 1-.69-.54c-1.08-5-2.32-9.89-3.33-15.1-.24 1.23-.41 2.27-.64 3.29-.89 3.93-1.8 7.85-2.68 11.78a.57.57 0 0 1-.68.57H6.88a.49.49 0 0 1-.6-.38Q3.15 11 0 .18a.49.49 0 0 1 0-.13zm191.06 6.59c-.82 4.76-2 9.27-3 13.81a3.08 3.08 0 0 1-.46 1.61 3.44 3.44 0 0 1-1.75.11c-.78 0-1.76.26-2.27-.12s-.53-1.4-.74-2.14q-2.76-9.44-5.5-18.88a2 2 0 0 1-.18-1h4.13c.44 0 .47.27.54.56 1.24 5 2.77 9.88 3.64 14.95a1.11 1.11 0 0 0 .07.15c.43-1.92.84-3.78 1.24-5.63.69-3.13 1.38-6.26 2-9.39a.63.63 0 0 1 .77-.67h3.16a.6.6 0 0 1 .73.59c1 4.75 2.06 9.49 3.1 14.23.05.24.11.48.21.91.46-2 .85-3.78 1.29-5.57.79-3.16 1.62-6.35 2.42-9.56a.59.59 0 0 1 .69-.6h3.92c-.46 1.64-.9 3.23-1.35 4.8-1.58 5.62-3.18 11.2-4.72 16.73a.71.71 0 0 1-.85.66c-1-.05-2 0-3 0a.57.57 0 0 1-.69-.57c-1-4.82-2.27-9.6-3.18-14.44a4.86 4.86 0 0 0-.22-.54zm-76.79 9.88c.71-3.4 1.7-6.55 2.51-9.76a.53.53 0 0 1 .62-.47h2.56a.65.65 0 0 1 .76.6c.86 3.14 1.81 6.25 2.57 9.41a.47.47 0 0 0 .27-.5l2.4-9a.53.53 0 0 1 .59-.52h3.16c.42 0 .5.11.38.53q-2.24 7.44-4.43 14.89a.58.58 0 0 1-.69.48h-2.71a.67.67 0 0 1-.81-.61c-.85-3.24-1.73-6.48-2.63-9.86-.1.31-.18.49-.23.68-.85 3.06-1.71 6.12-2.53 9.19a.63.63 0 0 1-.75.6h-2.78a.52.52 0 0 1-.61-.46q-2.16-7.46-4.36-14.91c-.12-.41-.07-.53.37-.52h3.16a.6.6 0 0 1 .71.55c.75 3 1.53 6 2.3 9 .01.16.07.34.17.68zm274.8-5.4V.74c0-.56.14-.72.7-.71h6.09c.45 0 .66.05.66.59v21a.48.48 0 0 1-.59.6h-6.24c-.52 0-.62-.17-.62-.64.01-3.49 0-6.98 0-10.46zm-14.65.04v10.38c0 .51-.11.69-.66.68h-6.17c-.51 0-.63-.15-.63-.64V.68c0-.47.1-.64.62-.64h6.17c.53 0 .67.14.67.67-.01 3.48 0 6.96 0 10.45zm-76.26-.07V.71c0-.52.12-.68.66-.67h6.17c.5 0 .63.14.63.63v20.9c0 .47-.09.65-.62.64h-6.17c-.53 0-.67-.15-.66-.67 0-3.48-.01-6.97-.01-10.45zm29.56.02v10.3c0 .6-.11.82-.77.81h-6.09a.48.48 0 0 1-.59-.59v-21c0-.53.19-.61.65-.6h6.09c.55 0 .72.12.71.7-.02 3.46 0 6.92 0 10.38zm15.9-.11V.7c0-.58.16-.71.71-.7h6c.53 0 .73.08.73.68v20.83a.54.54 0 0 1-.67.67h-6.09c-.59 0-.69-.2-.69-.73.02-3.45.01-6.93.01-10.45zm-202.99 4.43h-5.11c-.31 0-.59-.06-.53.44a4 4 0 0 0 5.07 3.34 2.54 2.54 0 0 0 1.67-1.29.91.91 0 0 1 1-.55h2.71c.63 0 .79.11.56.75a6.51 6.51 0 0 1-4.85 4.27 8.34 8.34 0 0 1-9-3.05 9.39 9.39 0 0 1 .85-11.1 7.61 7.61 0 0 1 7.87-2.1c3.09.79 4.58 3.11 5.28 6.05a16.21 16.21 0 0 1 .33 2.45c0 .6-.09.82-.75.8-1.73-.05-3.42-.01-5.1-.01zm-2.14-2.91h2.93c.47 0 .6-.1.51-.59a3.34 3.34 0 0 0-3.37-2.83 3.54 3.54 0 0 0-3.49 3c-.06.44.17.38.42.38h3zm80.23 9.66h-3.84a.52.52 0 0 1-.58-.45l-.3-1.17C211.84 23 209.22 23 206.49 22a4.1 4.1 0 0 1-2.72-3.89 4.24 4.24 0 0 1 2.28-4.38 15.6 15.6 0 0 1 5.13-1.34 16.91 16.91 0 0 0 1.75-.39 1.25 1.25 0 0 0 1-1.07 1.6 1.6 0 0 0-.67-1.51 3.37 3.37 0 0 0-5 1.42.36.36 0 0 1-.4.32h-3c-.52 0-.41-.33-.36-.61A4.65 4.65 0 0 1 206.89 7a9.3 9.3 0 0 1 8.67-.21c1.83.85 2.44 2.59 2.48 4.49.05 2.91 0 5.81 0 8.72a3.07 3.07 0 0 0 .68 2.18zm-4.64-6.59v-.68c0-.46 0-.71-.58-.44a10.74 10.74 0 0 1-1.72.51 11.91 11.91 0 0 0-2.92.92 1.85 1.85 0 0 0-1 2 1.72 1.72 0 0 0 1.56 1.57c2.84.59 4.66-.94 4.66-3.88zM90.21 14.14c.18-5 3.72-8.46 8.55-8.3s8.24 3.82 8.07 8.84c-.16 4.85-3.85 8.12-9 7.94a8.11 8.11 0 0 1-7.62-8.48zm12.3.51a6.94 6.94 0 0 0-.63-3.5 3.53 3.53 0 0 0-3.31-2.07 3.41 3.41 0 0 0-3.38 2.06 7 7 0 0 0 .06 6.3 3.71 3.71 0 0 0 6.4.28 5.77 5.77 0 0 0 .86-3.06zm143.67-.45a8 8 0 0 1 8.31-8.36c4.89 0 8.27 3.54 8.27 8.56 0 4.82-3.53 8.23-8.51 8.22-4.66 0-8.07-3.55-8.07-8.42zm8.27-5.13a3.46 3.46 0 0 0-3.31 2 7.24 7.24 0 0 0-.27 5.62 3.63 3.63 0 0 0 3.6 2.65 3.69 3.69 0 0 0 3.58-2.59 7.6 7.6 0 0 0 0-5.08 3.64 3.64 0 0 0-3.59-2.59zm14.66-.84A6.58 6.58 0 0 1 272.32 6a5.41 5.41 0 0 1 7 5c.2 3.56 0 7.12.08 10.68a.38.38 0 0 1-.48.46h-3.24c-.5 0-.56-.19-.56-.62v-8.73c0-2.11-.87-3.23-2.56-3.31a3.18 3.18 0 0 0-3.33 3.24c-.07 2.43 0 4.87 0 7.3 0 .67.22 1.57-.12 2s-1.32.11-2 .15h-1.43c-.43 0-.68-.12-.68-.64V6.93c0-.48.1-.67.62-.65h2.93a.47.47 0 0 1 .58.61c-.05.44-.02.89-.02 1.34z"/><path class="cls-1" d="M87.14 13v8.5c0 .51-.11.69-.65.67h-3.23c-.55 0-.65-.17-.65-.68V4.72c0-.8-.23-.94-1-.92-1.68.05-3.36 0-5 0-.59 0-.71-.17-.69-.72V.45c.08-.31.16-.45.52-.45h16.92a.38.38 0 0 1 .46.48v2.78c0 .44-.16.54-.57.54h-5.41c-.55 0-.73.12-.72.7.03 2.86.02 5.69.02 8.5zm-25.89 4a4.41 4.41 0 0 0 .53 0c.85-.1 1.5 0 1.74 1A2 2 0 0 0 65 19.38a5 5 0 0 0 3.24 0 1.6 1.6 0 0 0 1.25-1.51 1.48 1.48 0 0 0-1.2-1.44 33.52 33.52 0 0 0-3.8-.86 13.89 13.89 0 0 1-2-.6 3.9 3.9 0 0 1-2.72-3.28A4.58 4.58 0 0 1 61.66 7a8.08 8.08 0 0 1 5-1.17 7.91 7.91 0 0 1 3.54.86 5.33 5.33 0 0 1 2.78 4c.07.36-.05.49-.42.48H69.7a.51.51 0 0 1-.7-.47 2.23 2.23 0 0 0-2-1.8 4.76 4.76 0 0 0-2.44.18 1.51 1.51 0 0 0-1.15 1.42 1.32 1.32 0 0 0 1.14 1.3c1.31.46 2.7.54 4 .89a15.76 15.76 0 0 1 2.21.71c3.29 1.38 3.14 5.82 1.11 7.56a6.78 6.78 0 0 1-3.67 1.57 10.4 10.4 0 0 1-5.67-.66 5.43 5.43 0 0 1-3.28-4.19c-.08-.46 0-.7.55-.65s.97-.03 1.45-.03zM161 17h.3c.93-.06 1.81-.14 2 1.15a1.74 1.74 0 0 0 1.18 1.09 4.75 4.75 0 0 0 3.66 0 1.54 1.54 0 0 0 1.08-1.49 1.47 1.47 0 0 0-1.12-1.36 31.8 31.8 0 0 0-3.95-.89 13.77 13.77 0 0 1-2-.61 3.88 3.88 0 0 1-2.67-3.24 4.58 4.58 0 0 1 1.85-4.63 9 9 0 0 1 9.2 0 5.36 5.36 0 0 1 2.15 3.57c.06.35 0 .5-.39.5h-2.93a.46.46 0 0 1-.55-.44 2.23 2.23 0 0 0-2.1-1.84 4.39 4.39 0 0 0-2.71.33 1.43 1.43 0 0 0-.86 1.39 1.3 1.3 0 0 0 1 1.12 24.33 24.33 0 0 0 3.58.81 17.57 17.57 0 0 1 2.45.69 4.19 4.19 0 0 1 2.94 4.11 4.55 4.55 0 0 1-2.52 4.37 9.48 9.48 0 0 1-5.63.86 7.63 7.63 0 0 1-3.4-1.1 5.36 5.36 0 0 1-2.52-3.9c-.06-.38 0-.56.44-.53s1.01.04 1.52.04zm71.52 0h.3c.92 0 1.67-.1 2.08 1.13s2.2 1.74 3.94 1.41a4.3 4.3 0 0 0 .65-.17 1.68 1.68 0 0 0 1.29-1.57 1.52 1.52 0 0 0-1.25-1.41c-1.42-.5-2.94-.59-4.38-1-.34-.1-.68-.18-1-.3-2-.72-3.06-1.95-3.14-3.77a4.49 4.49 0 0 1 2.79-4.78 9.16 9.16 0 0 1 7.38 0 5.12 5.12 0 0 1 3.06 4c.08.38 0 .61-.46.59H241a.51.51 0 0 1-.62-.46 2.23 2.23 0 0 0-2.1-1.83 4.76 4.76 0 0 0-2.44.21 1.5 1.5 0 0 0-1.11 1.45 1.33 1.33 0 0 0 1.13 1.24c1.33.46 2.74.56 4.1.9a10.63 10.63 0 0 1 2.41.83 4.64 4.64 0 0 1 .53 7.71c-2.51 2-8.64 1.95-10.95-.73a5.91 5.91 0 0 1-1.37-3c-.06-.37 0-.55.45-.52s.97.07 1.49.07zM222 14.26V9.75c0-.46-.07-.66-.6-.65-1.64 0-1.64 0-1.64-1.69v-.68a.35.35 0 0 1 .44-.43h.08c.55 0 1.28.24 1.59-.1S222 5 222 4.45V1.89c0-.4.07-.59.53-.57h3.08a.45.45 0 0 1 .55.57V5.5c0 .7.22.87.85.81h1.35a.42.42 0 0 1 .53.51V8.7a.36.36 0 0 1-.44.43h-1.73c-.58 0-.55.16-.55.57v7.82c0 1.12.48 1.54 1.65 1.55s1.15 0 1.15 1.18c0 2 0 2-2 2a8.24 8.24 0 0 1-2.46-.23 3.32 3.32 0 0 1-2.51-3.4v-4.36zM41.59 11.12v10.23c0 .72-.22.88-.88.84a24.38 24.38 0 0 0-2.71 0c-.55 0-.73-.11-.72-.7V.87c0-.72.22-.88.88-.84a24.1 24.1 0 0 0 2.71 0c.56 0 .72.12.72.7-.02 3.47 0 6.93 0 10.39zm7.62-.01v10.38c0 .57-.15.73-.71.7a23 23 0 0 0-2.71 0c-.65 0-.84-.12-.83-.81C45 16.27 45 11.15 45 6V.66a.53.53 0 0 1 .66-.66h2.86c.55 0 .71.12.71.69-.04 3.5-.02 6.96-.02 10.42zm103.7-2.26c.4-.57.65-1 .95-1.35a3.87 3.87 0 0 1 3.55-1.4.48.48 0 0 1 .53.55v2.78c0 .4-.14.51-.52.48a4.12 4.12 0 0 0-2.39.5 4 4 0 0 0-1.9 3.77v7.3c0 .55-.12.74-.7.71-1-.05-2 0-3 0-.39 0-.58 0-.58-.52V6.85a.45.45 0 0 1 .55-.56h3a.42.42 0 0 1 .52.51c-.03.62-.01 1.2-.01 2.05zm209.2-3.23v5c0 .45-.11.6-.58.6h-6.24a.48.48 0 0 1-.6-.59v-10a.44.44 0 0 1 .56-.63h6.32c.51 0 .56.2.55.61-.03 1.7-.01 3.39-.01 5.01zm-29.51-.07v-5c0-.43.12-.54.55-.54h6.32c.42 0 .56.1.55.54v10a.48.48 0 0 1-.59.59h-6.24a.47.47 0 0 1-.59-.59c.02-1.64 0-3.32 0-5zm-15.95 11.14v4.89c0 .47-.09.65-.61.64h-6.24c-.49 0-.57-.17-.57-.6v-9.85c0-.56.19-.65.69-.65h6c.63 0 .73.22.72.77-.01 1.59.01 3.19.01 4.8zm61.41-.02v-5c0-.46.11-.6.58-.59h6.24a.48.48 0 0 1 .6.59v9.93a.47.47 0 0 1-.59.59h-6.24c-.45 0-.6-.1-.59-.58.02-1.61 0-3.28 0-4.94zM29.69 14.2V7.06c0-.64.19-.81.8-.78h2.93a.45.45 0 0 1 .56.56v14.81c0 .45-.16.54-.57.53h-3c-.55 0-.72-.12-.71-.7.01-2.41-.01-4.85-.01-7.28zm27.17.05v7.15c0 .7-.21.83-.83.8-1-.05-2 0-2.93 0a.38.38 0 0 1-.48-.46v-15a.38.38 0 0 1 .48-.46h3.16c.55 0 .59.22.59.66 0 2.45.01 4.88.01 7.31zM31.84.1c.67 0 1.57-.26 2 .07s.14 1.31.15 2c0 1.67 0 1.67-1.66 1.67h-2.1a.41.41 0 0 1-.51-.52V.54a.41.41 0 0 1 .47-.54h1.65zm22.93.01c.67 0 1.55-.26 2 .07s.12 1.27.13 1.93c0 1.72 0 1.72-1.75 1.72h-2c-.38 0-.53-.09-.52-.5V.55c0-.45.16-.55.56-.52s1.05 0 1.58 0v.08z"/></g></svg>