<?xml version="1.0" encoding="utf-8"?>
<!-- Generator: Adobe Illustrator 17.0.1, SVG Export Plug-In . SVG Version: 6.00 Build 0)  -->
<!DOCTYPE svg PUBLIC "-//W3C//DTD SVG 1.1//EN" "http://www.w3.org/Graphics/SVG/1.1/DTD/svg11.dtd">
<svg version="1.1" id="Layer_1" xmlns="http://www.w3.org/2000/svg" xmlns:xlink="http://www.w3.org/1999/xlink" x="0px" y="0px"
	 width="185px" height="188px" viewBox="0 0 185 188" enable-background="new 0 0 185 188" xml:space="preserve">
<g>
	<g>
		<path fill="#4E4E4E" d="M115.912,17.967c0,2.676-0.731,4.738-2.193,6.186c-1.462,1.448-3.518,2.171-6.166,2.171h-5.148V10.29
			h5.507c2.554,0,4.526,0.658,5.916,1.974C115.217,13.58,115.912,15.481,115.912,17.967z M111.45,18.121
			c0-1.469-0.289-2.559-0.866-3.268c-0.577-0.709-1.453-1.064-2.628-1.064h-1.251v8.982h0.958c1.306,0,2.264-0.382,2.874-1.146
			S111.45,19.693,111.45,18.121z"/>
		<path fill="#4E4E4E" d="M123.129,26.544c-2.053,0-3.646-0.55-4.783-1.65c-1.136-1.101-1.704-2.667-1.704-4.7
			c0-2.099,0.526-3.709,1.578-4.832c1.053-1.122,2.555-1.684,4.506-1.684c1.857,0,3.293,0.488,4.305,1.464s1.52,2.382,1.52,4.217
			v1.908h-7.609c0.029,0.695,0.281,1.239,0.758,1.634c0.475,0.395,1.121,0.592,1.941,0.592c0.748,0,1.436-0.071,2.063-0.214
			c0.629-0.143,1.309-0.386,2.041-0.729v3.082c-0.668,0.344-1.357,0.581-2.068,0.713C124.965,26.478,124.117,26.544,123.129,26.544z
			 M122.879,16.596c-0.5,0-0.92,0.159-1.256,0.477c-0.338,0.318-0.537,0.817-0.594,1.497h3.656
			c-0.014-0.599-0.184-1.078-0.506-1.437S123.424,16.596,122.879,16.596z"/>
		<path fill="#4E4E4E" d="M132.851,26.325l-4.702-12.426h4.44l2.09,7.348c0.008,0.037,0.022,0.099,0.044,0.187
			s0.043,0.192,0.065,0.313c0.021,0.121,0.041,0.249,0.06,0.384c0.018,0.136,0.027,0.262,0.027,0.378h0.076
			c0-0.38,0.065-0.793,0.195-1.239l2.188-7.37h4.43l-4.702,12.426H132.851z"/>
		<path fill="#4E4E4E" d="M146.381,26.325h-4.234V10.29h9.404v3.477h-5.17v3.06h4.767v3.477h-4.767V26.325z"/>
		<path fill="#4E4E4E" d="M158.528,26.544c-2.054,0-3.647-0.55-4.783-1.65s-1.703-2.667-1.703-4.7c0-2.099,0.525-3.709,1.578-4.832
			c1.052-1.122,2.554-1.684,4.506-1.684c1.857,0,3.292,0.488,4.305,1.464c1.012,0.976,1.519,2.382,1.519,4.217v1.908h-7.608
			c0.029,0.695,0.281,1.239,0.757,1.634c0.475,0.395,1.122,0.592,1.942,0.592c0.747,0,1.435-0.071,2.063-0.214
			s1.308-0.386,2.041-0.729v3.082c-0.668,0.344-1.357,0.581-2.068,0.713C160.364,26.478,159.516,26.544,158.528,26.544z
			 M158.278,16.596c-0.501,0-0.92,0.159-1.257,0.477c-0.338,0.318-0.536,0.817-0.594,1.497h3.657
			c-0.015-0.599-0.184-1.078-0.506-1.437C159.256,16.775,158.822,16.596,158.278,16.596z"/>
		<path fill="#4E4E4E" d="M174.541,22.508c0,1.331-0.45,2.336-1.35,3.016c-0.9,0.68-2.191,1.02-3.875,1.02
			c-0.914,0-1.709-0.049-2.384-0.148s-1.364-0.28-2.067-0.543V22.42c0.66,0.292,1.384,0.534,2.171,0.724
			c0.787,0.19,1.489,0.285,2.106,0.285c0.921,0,1.382-0.212,1.382-0.636c0-0.219-0.129-0.415-0.386-0.586
			c-0.258-0.172-1.007-0.506-2.248-1.004c-1.132-0.468-1.923-1-2.373-1.596c-0.449-0.596-0.675-1.351-0.675-2.265
			c0-1.155,0.442-2.055,1.328-2.698c0.885-0.644,2.137-0.965,3.755-0.965c0.813,0,1.576,0.09,2.291,0.269s1.457,0.44,2.227,0.784
			l-1.154,2.764c-0.565-0.256-1.164-0.473-1.796-0.652c-0.631-0.179-1.146-0.269-1.546-0.269c-0.696,0-1.044,0.172-1.044,0.516
			c0,0.212,0.121,0.393,0.364,0.543s0.945,0.455,2.106,0.916c0.863,0.358,1.507,0.709,1.932,1.053s0.736,0.748,0.936,1.212
			C174.441,21.278,174.541,21.843,174.541,22.508z"/>
		<path fill="#4E4E4E" d="M181.605,23.155c0.573,0,1.259-0.143,2.058-0.428v3.126c-0.573,0.249-1.119,0.426-1.639,0.532
			c-0.519,0.105-1.126,0.159-1.822,0.159c-1.43,0-2.46-0.353-3.092-1.058c-0.631-0.706-0.946-1.79-0.946-3.252v-5.122h-1.491v-1.744
			l1.894-1.349l1.1-2.61h2.786v2.49h3.025v3.213h-3.025v4.837C180.452,22.753,180.837,23.155,181.605,23.155z"/>
	</g>
	<g>
		<path fill="#4E4E4E" d="M60.282,47.886H50.031v-1.841l3.9-3.92c1.151-1.179,1.915-2.016,2.291-2.509
			c0.376-0.493,0.65-0.957,0.822-1.391s0.259-0.9,0.259-1.396c0-0.683-0.205-1.221-0.616-1.614c-0.41-0.393-0.978-0.59-1.702-0.59
			c-0.579,0-1.14,0.107-1.681,0.321c-0.542,0.214-1.167,0.6-1.877,1.159L50.114,34.5c0.841-0.71,1.659-1.214,2.452-1.51
			s1.638-0.445,2.535-0.445c1.407,0,2.534,0.367,3.382,1.102s1.272,1.723,1.272,2.964c0,0.683-0.123,1.331-0.367,1.945
			c-0.245,0.614-0.621,1.247-1.127,1.898c-0.507,0.652-1.35,1.533-2.529,2.643l-2.627,2.545v0.104h7.179V47.886z"/>
		<path fill="#4E4E4E" d="M71.104,40.324c0,2.628-0.422,4.58-1.267,5.855c-0.845,1.276-2.136,1.914-3.874,1.914
			c-1.683,0-2.958-0.659-3.827-1.976c-0.869-1.317-1.304-3.248-1.304-5.793c0-2.668,0.422-4.636,1.268-5.901
			c0.844-1.265,2.132-1.898,3.863-1.898c1.689,0,2.969,0.662,3.838,1.986C70.669,35.834,71.104,37.772,71.104,40.324z
			 M63.293,40.324c0,2.063,0.212,3.535,0.636,4.417c0.424,0.883,1.102,1.324,2.033,1.324c0.931,0,1.612-0.448,2.043-1.345
			c0.431-0.896,0.646-2.362,0.646-4.396c0-2.027-0.215-3.495-0.646-4.401c-0.431-0.907-1.112-1.36-2.043-1.36
			c-0.931,0-1.608,0.445-2.033,1.334C63.506,36.786,63.293,38.262,63.293,40.324z"/>
		<path fill="#4E4E4E" d="M78.812,47.886h-2.431v-9.765c0-1.166,0.027-2.089,0.083-2.772c-0.159,0.166-0.354,0.349-0.584,0.548
			c-0.231,0.2-1.005,0.834-2.323,1.903l-1.22-1.541l4.448-3.497h2.028V47.886z"/>
		<path fill="#4E4E4E" d="M93.285,44.586h-2.038v3.3h-2.369v-3.3h-6.91v-1.873l6.91-9.993h2.369v9.848h2.038V44.586z M88.878,42.569
			v-3.796c0-1.352,0.035-2.458,0.104-3.321h-0.083c-0.193,0.455-0.496,1.007-0.91,1.655l-3.755,5.462H88.878z"/>
		<path fill="#4E4E4E" d="M107.335,43.779c0,1.345-0.486,2.4-1.458,3.166c-0.973,0.766-2.314,1.148-4.024,1.148
			c-1.71,0-3.11-0.266-4.2-0.797v-2.337c0.689,0.324,1.422,0.579,2.198,0.765c0.776,0.187,1.499,0.279,2.167,0.279
			c0.979,0,1.702-0.186,2.167-0.559c0.465-0.372,0.698-0.872,0.698-1.5c0-0.565-0.214-1.044-0.641-1.438
			c-0.428-0.393-1.311-0.859-2.648-1.396c-1.379-0.559-2.352-1.197-2.917-1.914c-0.565-0.717-0.848-1.579-0.848-2.586
			c0-1.262,0.448-2.255,1.345-2.979s2.1-1.086,3.61-1.086c1.448,0,2.89,0.317,4.324,0.952l-0.786,2.017
			c-1.345-0.565-2.545-0.848-3.6-0.848c-0.8,0-1.407,0.174-1.82,0.522c-0.414,0.348-0.621,0.809-0.621,1.381
			c0,0.393,0.083,0.729,0.248,1.009s0.438,0.543,0.817,0.791c0.379,0.249,1.062,0.576,2.048,0.983
			c1.11,0.462,1.924,0.893,2.441,1.293c0.517,0.4,0.896,0.852,1.138,1.355C107.214,42.503,107.335,43.096,107.335,43.779z"/>
		<path fill="#4E4E4E" d="M113.729,48.093c-1.779,0-3.171-0.519-4.174-1.557c-1.003-1.038-1.505-2.467-1.505-4.288
			c0-1.869,0.465-3.338,1.396-4.407s2.21-1.604,3.838-1.604c1.51,0,2.703,0.459,3.579,1.376c0.875,0.917,1.313,2.179,1.313,3.786
			v1.313h-7.624c0.034,1.11,0.334,1.964,0.9,2.561c0.565,0.596,1.362,0.895,2.39,0.895c0.676,0,1.305-0.063,1.888-0.191
			c0.583-0.127,1.208-0.339,1.877-0.636v1.976c-0.593,0.283-1.193,0.483-1.8,0.6S114.509,48.093,113.729,48.093z M113.285,38.079
			c-0.772,0-1.392,0.245-1.857,0.734c-0.465,0.49-0.743,1.204-0.833,2.142h5.193c-0.014-0.945-0.242-1.66-0.683-2.146
			S114.057,38.079,113.285,38.079z"/>
		<path fill="#4E4E4E" d="M126.826,47.886l-0.486-1.593h-0.082c-0.553,0.697-1.107,1.171-1.666,1.422
			c-0.559,0.252-1.275,0.378-2.152,0.378c-1.123,0-2-0.304-2.631-0.911c-0.633-0.606-0.947-1.465-0.947-2.576
			c0-1.179,0.438-2.069,1.314-2.669c0.875-0.6,2.209-0.927,4.002-0.982l1.977-0.062v-0.61c0-0.731-0.172-1.278-0.512-1.64
			c-0.342-0.362-0.871-0.543-1.588-0.543c-0.586,0-1.148,0.086-1.688,0.258c-0.537,0.172-1.055,0.376-1.551,0.61l-0.787-1.738
			c0.621-0.324,1.301-0.57,2.039-0.74c0.738-0.169,1.434-0.253,2.09-0.253c1.455,0,2.553,0.317,3.295,0.952
			c0.74,0.635,1.111,1.631,1.111,2.99v7.707H126.826z M123.205,46.23c0.883,0,1.592-0.246,2.127-0.739
			c0.533-0.493,0.801-1.185,0.801-2.074v-0.993l-1.469,0.062c-1.145,0.042-1.977,0.233-2.498,0.574s-0.781,0.864-0.781,1.567
			c0,0.51,0.152,0.905,0.455,1.184C122.145,46.091,122.6,46.23,123.205,46.23z"/>
		<path fill="#4E4E4E" d="M138.372,44.627c0,1.117-0.407,1.974-1.221,2.57c-0.813,0.597-1.979,0.895-3.496,0.895
			c-1.524,0-2.749-0.231-3.673-0.693v-2.1c1.345,0.621,2.597,0.931,3.755,0.931c1.497,0,2.245-0.452,2.245-1.355
			c0-0.29-0.083-0.531-0.248-0.724c-0.166-0.193-0.438-0.393-0.817-0.6c-0.379-0.207-0.907-0.441-1.583-0.703
			c-1.317-0.51-2.208-1.021-2.674-1.531c-0.466-0.51-0.698-1.172-0.698-1.986c0-0.979,0.395-1.74,1.185-2.281
			c0.789-0.541,1.863-0.812,3.223-0.812c1.345,0,2.617,0.272,3.816,0.817l-0.786,1.831c-1.234-0.51-2.272-0.766-3.113-0.766
			c-1.283,0-1.924,0.366-1.924,1.097c0,0.358,0.167,0.662,0.501,0.91c0.335,0.248,1.064,0.59,2.188,1.024
			c0.944,0.366,1.631,0.7,2.059,1.003c0.427,0.304,0.744,0.654,0.951,1.05S138.372,44.076,138.372,44.627z"/>
		<path fill="#4E4E4E" d="M149.876,42.145c0,1.869-0.479,3.328-1.438,4.376c-0.959,1.048-2.293,1.572-4.004,1.572
			c-1.068,0-2.014-0.242-2.834-0.724c-0.821-0.483-1.452-1.176-1.894-2.08c-0.441-0.903-0.662-1.951-0.662-3.145
			c0-1.855,0.477-3.303,1.428-4.345c0.952-1.041,2.293-1.562,4.024-1.562c1.655,0,2.965,0.533,3.931,1.598
			S149.876,40.338,149.876,42.145z M141.549,42.145c0,2.642,0.976,3.962,2.928,3.962c1.931,0,2.896-1.32,2.896-3.962
			c0-2.614-0.973-3.92-2.918-3.92c-1.021,0-1.76,0.338-2.219,1.014C141.778,39.914,141.549,40.882,141.549,42.145z"/>
		<path fill="#4E4E4E" d="M161.463,47.886h-2.441v-7.034c0-0.883-0.178-1.542-0.532-1.976c-0.355-0.435-0.919-0.652-1.691-0.652
			c-1.027,0-1.779,0.304-2.255,0.91c-0.477,0.607-0.714,1.624-0.714,3.052v5.7h-2.431V36.445h1.903l0.341,1.5h0.124
			c0.345-0.545,0.835-0.965,1.469-1.262c0.635-0.296,1.338-0.445,2.11-0.445c2.745,0,4.117,1.396,4.117,4.189V47.886z"/>
	</g>
	<g>
		<path fill="#4E4E4E" d="M55.571,17.313h6.922v8.644c-1.879,0.644-3.945,0.965-6.198,0.965c-2.472,0-4.382-0.716-5.731-2.15
			c-1.349-1.433-2.024-3.477-2.024-6.132c0-2.589,0.739-4.603,2.216-6.044c1.477-1.44,3.547-2.161,6.208-2.161
			c1.009,0,1.962,0.095,2.858,0.285c0.896,0.19,1.676,0.432,2.342,0.724l-1.371,3.4c-1.156-0.57-2.424-0.855-3.807-0.855
			c-1.265,0-2.243,0.412-2.934,1.234c-0.691,0.823-1.037,1.999-1.037,3.527c0,1.499,0.313,2.642,0.938,3.428
			c0.625,0.786,1.526,1.179,2.704,1.179c0.644,0,1.236-0.062,1.777-0.187v-2.512h-2.863V17.313z"/>
		<path fill="#4E4E4E" d="M78.026,18.344c0,2.676-0.737,4.739-2.21,6.187s-3.545,2.172-6.214,2.172h-5.188V10.666h5.551
			c2.574,0,4.561,0.658,5.961,1.975S78.026,15.858,78.026,18.344z M73.529,18.498c0-1.47-0.291-2.56-0.872-3.269
			c-0.582-0.709-1.464-1.064-2.649-1.064h-1.262v8.983h0.965c1.316,0,2.282-0.382,2.896-1.146S73.529,20.07,73.529,18.498z"/>
		<path fill="#4E4E4E" d="M85.991,17.313h6.922v8.644c-1.879,0.644-3.945,0.965-6.198,0.965c-2.472,0-4.382-0.716-5.731-2.15
			c-1.349-1.433-2.024-3.477-2.024-6.132c0-2.589,0.739-4.603,2.216-6.044c1.477-1.44,3.547-2.161,6.208-2.161
			c1.009,0,1.962,0.095,2.858,0.285c0.896,0.19,1.676,0.432,2.342,0.724l-1.371,3.4c-1.156-0.57-2.424-0.855-3.807-0.855
			c-1.265,0-2.243,0.412-2.934,1.234c-0.691,0.823-1.037,1.999-1.037,3.527c0,1.499,0.313,2.642,0.938,3.428
			c0.625,0.786,1.526,1.179,2.704,1.179c0.644,0,1.236-0.062,1.777-0.187v-2.512h-2.863V17.313z"/>
	</g>
	
		<radialGradient id="SVGID_1_" cx="-310.583" cy="-60.055" r="20.1137" gradientTransform="matrix(0.498 0 0 0.498 172.2891 79.7388)" gradientUnits="userSpaceOnUse">
		<stop  offset="0" style="stop-color:#FFCF4F"/>
		<stop  offset="1" style="stop-color:#F4C236"/>
	</radialGradient>
	<path fill="url(#SVGID_1_)" d="M8.91,61h6.791c1.607,0,3.604-1.128,4.432-2.511l5.72-9.519c0.677-1.396,0.653-3.426-0.119-4.713
		l-3.378-5.592L8.91,61z"/>
	
		<radialGradient id="SVGID_2_" cx="-322.6347" cy="-70.2695" r="27.6582" gradientTransform="matrix(0.498 0 0 0.498 172.2891 79.7388)" gradientUnits="userSpaceOnUse">
		<stop  offset="0" style="stop-color:#08A960"/>
		<stop  offset="1" style="stop-color:#07914B"/>
	</radialGradient>
	<path fill="url(#SVGID_2_)" d="M16.209,33.514L1.108,58.763C0.524,60.011,1.131,61,2.629,61H8.91l13.446-22.335l-6.146-10.173
		C17.039,29.87,17.039,32.13,16.209,33.514"/>
	
		<radialGradient id="SVGID_3_" cx="-313.1831" cy="-109.9511" r="40.54" gradientTransform="matrix(0.498 0 0 0.498 172.2891 79.7388)" gradientUnits="userSpaceOnUse">
		<stop  offset="0" style="stop-color:#567FC0"/>
		<stop  offset="1" style="stop-color:#557FC0"/>
	</radialGradient>
	<path fill="url(#SVGID_3_)" d="M2.629,1C1.015,1,0.375,2.133,1.205,3.511l24.529,40.745c0.772,1.288,0.795,3.317,0.119,4.713
		l5.963-9.925L8.914,1H2.629z"/>
	
		<radialGradient id="SVGID_4_" cx="-301.1191" cy="-119.9164" r="33.0584" gradientTransform="matrix(0.498 0 0 0.498 172.2891 79.7388)" gradientUnits="userSpaceOnUse">
		<stop  offset="0" style="stop-color:#E14C40"/>
		<stop  offset="1" style="stop-color:#CD392D"/>
	</radialGradient>
	<path fill="url(#SVGID_4_)" d="M8.914,1l22.903,38.045l3.321-5.53c0.83-1.385,0.83-3.645,0-5.023L20.133,3.511
		C19.305,2.133,17.308,1,15.701,1H8.914z"/>
</g>
<g>
	<g>
		<path fill="#4E4E4E" d="M115.912,80.967c0,2.677-0.731,4.738-2.193,6.187c-1.462,1.447-3.518,2.171-6.166,2.171h-5.148V73.29
			h5.507c2.554,0,4.526,0.657,5.916,1.974S115.912,78.481,115.912,80.967z M111.45,81.12c0-1.469-0.289-2.559-0.866-3.268
			c-0.577-0.71-1.453-1.064-2.628-1.064h-1.251v8.982h0.958c1.306,0,2.264-0.382,2.874-1.146
			C111.145,83.86,111.45,82.692,111.45,81.12z"/>
		<path fill="#4E4E4E" d="M123.129,89.544c-2.053,0-3.646-0.55-4.783-1.65c-1.136-1.101-1.704-2.667-1.704-4.7
			c0-2.099,0.526-3.709,1.578-4.831c1.053-1.122,2.555-1.684,4.506-1.684c1.857,0,3.293,0.488,4.305,1.464
			c1.012,0.977,1.52,2.382,1.52,4.218v1.908h-7.609c0.029,0.694,0.281,1.239,0.758,1.634c0.475,0.396,1.121,0.593,1.941,0.593
			c0.748,0,1.436-0.071,2.063-0.214c0.629-0.143,1.309-0.386,2.041-0.729v3.082c-0.668,0.344-1.357,0.581-2.068,0.713
			C124.965,89.478,124.117,89.544,123.129,89.544z M122.879,79.596c-0.5,0-0.92,0.159-1.256,0.478
			c-0.338,0.318-0.537,0.817-0.594,1.497h3.656c-0.014-0.6-0.184-1.078-0.506-1.437S123.424,79.596,122.879,79.596z"/>
		<path fill="#4E4E4E" d="M132.851,89.324l-4.702-12.426h4.44l2.09,7.348c0.008,0.037,0.022,0.099,0.044,0.187
			s0.043,0.192,0.065,0.313c0.021,0.121,0.041,0.249,0.06,0.384c0.018,0.136,0.027,0.262,0.027,0.379h0.076
			c0-0.38,0.065-0.793,0.195-1.239l2.188-7.37h4.43l-4.702,12.426H132.851z"/>
		<path fill="#4E4E4E" d="M146.381,89.324h-4.234V73.29h9.404v3.477h-5.17v3.06h4.767v3.477h-4.767V89.324z"/>
		<path fill="#4E4E4E" d="M158.528,89.544c-2.054,0-3.647-0.55-4.783-1.65s-1.703-2.667-1.703-4.7c0-2.099,0.525-3.709,1.578-4.831
			c1.052-1.122,2.554-1.684,4.506-1.684c1.857,0,3.292,0.488,4.305,1.464c1.012,0.977,1.519,2.382,1.519,4.218v1.908h-7.608
			c0.029,0.694,0.281,1.239,0.757,1.634c0.475,0.396,1.122,0.593,1.942,0.593c0.747,0,1.435-0.071,2.063-0.214
			s1.308-0.386,2.041-0.729v3.082c-0.668,0.344-1.357,0.581-2.068,0.713C160.364,89.478,159.516,89.544,158.528,89.544z
			 M158.278,79.596c-0.501,0-0.92,0.159-1.257,0.478c-0.338,0.318-0.536,0.817-0.594,1.497h3.657
			c-0.015-0.6-0.184-1.078-0.506-1.437C159.256,79.775,158.822,79.596,158.278,79.596z"/>
		<path fill="#4E4E4E" d="M174.541,85.508c0,1.331-0.45,2.336-1.35,3.016c-0.9,0.681-2.191,1.021-3.875,1.021
			c-0.914,0-1.709-0.05-2.384-0.148s-1.364-0.279-2.067-0.543V85.42c0.66,0.293,1.384,0.534,2.171,0.724
			c0.787,0.19,1.489,0.285,2.106,0.285c0.921,0,1.382-0.212,1.382-0.636c0-0.22-0.129-0.415-0.386-0.587
			c-0.258-0.172-1.007-0.506-2.248-1.004c-1.132-0.468-1.923-0.999-2.373-1.596c-0.449-0.596-0.675-1.351-0.675-2.265
			c0-1.155,0.442-2.055,1.328-2.698c0.885-0.644,2.137-0.965,3.755-0.965c0.813,0,1.576,0.09,2.291,0.269
			c0.715,0.18,1.457,0.44,2.227,0.784l-1.154,2.764c-0.565-0.256-1.164-0.473-1.796-0.652c-0.631-0.179-1.146-0.269-1.546-0.269
			c-0.696,0-1.044,0.172-1.044,0.516c0,0.212,0.121,0.393,0.364,0.543c0.243,0.149,0.945,0.455,2.106,0.915
			c0.863,0.358,1.507,0.71,1.932,1.054s0.736,0.747,0.936,1.212C174.441,84.277,174.541,84.843,174.541,85.508z"/>
		<path fill="#4E4E4E" d="M181.605,86.154c0.573,0,1.259-0.143,2.058-0.428v3.126c-0.573,0.249-1.119,0.427-1.639,0.532
			c-0.519,0.105-1.126,0.159-1.822,0.159c-1.43,0-2.46-0.353-3.092-1.059c-0.631-0.705-0.946-1.789-0.946-3.252v-5.122h-1.491
			v-1.743l1.894-1.35l1.1-2.61h2.786v2.49h3.025v3.213h-3.025v4.837C180.452,85.753,180.837,86.154,181.605,86.154z"/>
	</g>
	<g>
		<path fill="#4E4E4E" d="M60.282,110.886H50.031v-1.841l3.9-3.921c1.151-1.18,1.915-2.016,2.291-2.509s0.65-0.957,0.822-1.392
			c0.172-0.434,0.259-0.899,0.259-1.396c0-0.683-0.205-1.221-0.616-1.613c-0.41-0.394-0.978-0.59-1.702-0.59
			c-0.579,0-1.14,0.107-1.681,0.321c-0.542,0.214-1.167,0.6-1.877,1.158L50.114,97.5c0.841-0.71,1.659-1.214,2.452-1.51
			c0.793-0.297,1.638-0.445,2.535-0.445c1.407,0,2.534,0.367,3.382,1.102s1.272,1.723,1.272,2.964c0,0.683-0.123,1.331-0.367,1.944
			c-0.245,0.614-0.621,1.247-1.127,1.898s-1.35,1.533-2.529,2.644l-2.627,2.544v0.104h7.179V110.886z"/>
		<path fill="#4E4E4E" d="M71.104,103.324c0,2.627-0.422,4.579-1.267,5.854c-0.845,1.276-2.136,1.914-3.874,1.914
			c-1.683,0-2.958-0.658-3.827-1.976c-0.869-1.317-1.304-3.248-1.304-5.793c0-2.669,0.422-4.636,1.268-5.901
			c0.844-1.266,2.132-1.898,3.863-1.898c1.689,0,2.969,0.662,3.838,1.986S71.104,100.772,71.104,103.324z M63.293,103.324
			c0,2.062,0.212,3.534,0.636,4.417c0.424,0.883,1.102,1.324,2.033,1.324c0.931,0,1.612-0.448,2.043-1.345
			c0.431-0.896,0.646-2.362,0.646-4.396c0-2.027-0.215-3.495-0.646-4.401c-0.431-0.907-1.112-1.36-2.043-1.36
			c-0.931,0-1.608,0.444-2.033,1.334C63.506,99.786,63.293,101.262,63.293,103.324z"/>
		<path fill="#4E4E4E" d="M78.812,110.886h-2.431v-9.766c0-1.165,0.027-2.089,0.083-2.771c-0.159,0.165-0.354,0.348-0.584,0.548
			c-0.231,0.2-1.005,0.835-2.323,1.903l-1.22-1.541l4.448-3.497h2.028V110.886z"/>
		<path fill="#4E4E4E" d="M93.285,107.586h-2.038v3.3h-2.369v-3.3h-6.91v-1.872l6.91-9.993h2.369v9.848h2.038V107.586z
			 M88.878,105.568v-3.796c0-1.352,0.035-2.459,0.104-3.32h-0.083c-0.193,0.455-0.496,1.007-0.91,1.654l-3.755,5.462H88.878z"/>
		<path fill="#4E4E4E" d="M107.335,106.779c0,1.345-0.486,2.399-1.458,3.165c-0.973,0.766-2.314,1.148-4.024,1.148
			c-1.71,0-3.11-0.266-4.2-0.797v-2.338c0.689,0.324,1.422,0.579,2.198,0.766c0.776,0.187,1.499,0.279,2.167,0.279
			c0.979,0,1.702-0.187,2.167-0.559s0.698-0.872,0.698-1.5c0-0.565-0.214-1.045-0.641-1.438c-0.428-0.394-1.311-0.858-2.648-1.396
			c-1.379-0.559-2.352-1.196-2.917-1.914c-0.565-0.717-0.848-1.579-0.848-2.586c0-1.262,0.448-2.255,1.345-2.979
			c0.896-0.724,2.1-1.086,3.61-1.086c1.448,0,2.89,0.317,4.324,0.952l-0.786,2.017c-1.345-0.565-2.545-0.848-3.6-0.848
			c-0.8,0-1.407,0.174-1.82,0.521c-0.414,0.349-0.621,0.81-0.621,1.382c0,0.393,0.083,0.729,0.248,1.008s0.438,0.543,0.817,0.792
			c0.379,0.248,1.062,0.575,2.048,0.982c1.11,0.462,1.924,0.894,2.441,1.293c0.517,0.4,0.896,0.852,1.138,1.355
			C107.214,105.503,107.335,106.097,107.335,106.779z"/>
		<path fill="#4E4E4E" d="M113.729,111.093c-1.779,0-3.171-0.519-4.174-1.557s-1.505-2.468-1.505-4.288
			c0-1.869,0.465-3.338,1.396-4.407c0.931-1.068,2.21-1.603,3.838-1.603c1.51,0,2.703,0.458,3.579,1.375
			c0.875,0.918,1.313,2.18,1.313,3.786v1.314h-7.624c0.034,1.11,0.334,1.964,0.9,2.56c0.565,0.597,1.362,0.896,2.39,0.896
			c0.676,0,1.305-0.064,1.888-0.191c0.583-0.128,1.208-0.34,1.877-0.637v1.976c-0.593,0.283-1.193,0.483-1.8,0.601
			S114.509,111.093,113.729,111.093z M113.285,101.079c-0.772,0-1.392,0.245-1.857,0.734c-0.465,0.49-0.743,1.204-0.833,2.142h5.193
			c-0.014-0.945-0.242-1.66-0.683-2.146S114.057,101.079,113.285,101.079z"/>
		<path fill="#4E4E4E" d="M126.826,110.886l-0.486-1.593h-0.082c-0.553,0.696-1.107,1.171-1.666,1.422
			c-0.559,0.252-1.275,0.378-2.152,0.378c-1.123,0-2-0.304-2.631-0.91c-0.633-0.607-0.947-1.466-0.947-2.576
			c0-1.179,0.438-2.068,1.314-2.669c0.875-0.6,2.209-0.928,4.002-0.982l1.977-0.063v-0.61c0-0.73-0.172-1.277-0.512-1.64
			c-0.342-0.361-0.871-0.543-1.588-0.543c-0.586,0-1.148,0.087-1.688,0.259c-0.537,0.173-1.055,0.376-1.551,0.61l-0.787-1.737
			c0.621-0.324,1.301-0.571,2.039-0.74s1.434-0.253,2.09-0.253c1.455,0,2.553,0.317,3.295,0.951c0.74,0.635,1.111,1.631,1.111,2.989
			v7.707H126.826z M123.205,109.23c0.883,0,1.592-0.246,2.127-0.739c0.533-0.493,0.801-1.185,0.801-2.074v-0.993l-1.469,0.063
			c-1.145,0.041-1.977,0.232-2.498,0.574c-0.521,0.341-0.781,0.863-0.781,1.566c0,0.511,0.152,0.905,0.455,1.185
			C122.145,109.091,122.6,109.23,123.205,109.23z"/>
		<path fill="#4E4E4E" d="M138.372,107.627c0,1.117-0.407,1.975-1.221,2.571c-0.813,0.596-1.979,0.895-3.496,0.895
			c-1.524,0-2.749-0.231-3.673-0.693v-2.1c1.345,0.62,2.597,0.931,3.755,0.931c1.497,0,2.245-0.451,2.245-1.354
			c0-0.29-0.083-0.531-0.248-0.725c-0.166-0.193-0.438-0.393-0.817-0.6s-0.907-0.441-1.583-0.704
			c-1.317-0.51-2.208-1.021-2.674-1.53c-0.466-0.511-0.698-1.173-0.698-1.986c0-0.979,0.395-1.739,1.185-2.281
			c0.789-0.541,1.863-0.812,3.223-0.812c1.345,0,2.617,0.272,3.816,0.816l-0.786,1.831c-1.234-0.51-2.272-0.766-3.113-0.766
			c-1.283,0-1.924,0.366-1.924,1.097c0,0.359,0.167,0.662,0.501,0.91c0.335,0.249,1.064,0.59,2.188,1.024
			c0.944,0.366,1.631,0.7,2.059,1.004c0.427,0.303,0.744,0.653,0.951,1.05S138.372,107.075,138.372,107.627z"/>
		<path fill="#4E4E4E" d="M149.876,105.145c0,1.869-0.479,3.327-1.438,4.376c-0.959,1.048-2.293,1.572-4.004,1.572
			c-1.068,0-2.014-0.241-2.834-0.725c-0.821-0.482-1.452-1.176-1.894-2.079s-0.662-1.951-0.662-3.145
			c0-1.855,0.477-3.303,1.428-4.345c0.952-1.041,2.293-1.562,4.024-1.562c1.655,0,2.965,0.532,3.931,1.598
			S149.876,103.338,149.876,105.145z M141.549,105.145c0,2.642,0.976,3.962,2.928,3.962c1.931,0,2.896-1.32,2.896-3.962
			c0-2.613-0.973-3.921-2.918-3.921c-1.021,0-1.76,0.339-2.219,1.015C141.778,102.914,141.549,103.883,141.549,105.145z"/>
		<path fill="#4E4E4E" d="M161.463,110.886h-2.441v-7.034c0-0.883-0.178-1.541-0.532-1.976c-0.355-0.435-0.919-0.652-1.691-0.652
			c-1.027,0-1.779,0.304-2.255,0.911c-0.477,0.606-0.714,1.624-0.714,3.051v5.7h-2.431V99.444h1.903l0.341,1.5h0.124
			c0.345-0.544,0.835-0.965,1.469-1.262c0.635-0.296,1.338-0.444,2.11-0.444c2.745,0,4.117,1.396,4.117,4.189V110.886z"/>
	</g>
	<g>
		<path fill="#4E4E4E" d="M55.571,80.313h6.922v8.644c-1.879,0.644-3.945,0.966-6.198,0.966c-2.472,0-4.382-0.717-5.731-2.15
			c-1.349-1.433-2.024-3.477-2.024-6.132c0-2.589,0.739-4.603,2.216-6.044c1.477-1.44,3.547-2.161,6.208-2.161
			c1.009,0,1.962,0.096,2.858,0.285c0.896,0.19,1.676,0.432,2.342,0.725l-1.371,3.4c-1.156-0.57-2.424-0.855-3.807-0.855
			c-1.265,0-2.243,0.411-2.934,1.233c-0.691,0.823-1.037,1.999-1.037,3.527c0,1.499,0.313,2.642,0.938,3.428
			c0.625,0.786,1.526,1.179,2.704,1.179c0.644,0,1.236-0.062,1.777-0.187v-2.512h-2.863V80.313z"/>
		<path fill="#4E4E4E" d="M78.026,81.344c0,2.677-0.737,4.739-2.21,6.187c-1.474,1.448-3.545,2.172-6.214,2.172h-5.188V73.665h5.551
			c2.574,0,4.561,0.658,5.961,1.975S78.026,78.857,78.026,81.344z M73.529,81.497c0-1.47-0.291-2.56-0.872-3.269
			s-1.464-1.063-2.649-1.063h-1.262v8.983h0.965c1.316,0,2.282-0.382,2.896-1.146C73.222,84.238,73.529,83.069,73.529,81.497z"/>
		<path fill="#4E4E4E" d="M85.991,80.313h6.922v8.644c-1.879,0.644-3.945,0.966-6.198,0.966c-2.472,0-4.382-0.717-5.731-2.15
			c-1.349-1.433-2.024-3.477-2.024-6.132c0-2.589,0.739-4.603,2.216-6.044c1.477-1.44,3.547-2.161,6.208-2.161
			c1.009,0,1.962,0.096,2.858,0.285c0.896,0.19,1.676,0.432,2.342,0.725l-1.371,3.4c-1.156-0.57-2.424-0.855-3.807-0.855
			c-1.265,0-2.243,0.411-2.934,1.233c-0.691,0.823-1.037,1.999-1.037,3.527c0,1.499,0.313,2.642,0.938,3.428
			c0.625,0.786,1.526,1.179,2.704,1.179c0.644,0,1.236-0.062,1.777-0.187v-2.512h-2.863V80.313z"/>
	</g>
	
		<radialGradient id="SVGID_5_" cx="-310.583" cy="66.4552" r="20.1137" gradientTransform="matrix(0.498 0 0 0.498 172.2891 79.7388)" gradientUnits="userSpaceOnUse">
		<stop  offset="0" style="stop-color:#CCCCCC"/>
		<stop  offset="1" style="stop-color:#C0C0C0"/>
	</radialGradient>
	<path fill="url(#SVGID_5_)" d="M8.91,124h6.791c1.607,0,3.604-1.128,4.432-2.511l5.72-9.519c0.677-1.396,0.653-3.426-0.119-4.713
		l-3.378-5.592L8.91,124z"/>
	
		<radialGradient id="SVGID_6_" cx="-322.6347" cy="56.2407" r="27.6582" gradientTransform="matrix(0.498 0 0 0.498 172.2891 79.7388)" gradientUnits="userSpaceOnUse">
		<stop  offset="0" style="stop-color:#A0A0A0"/>
		<stop  offset="1" style="stop-color:#7B7B7B"/>
	</radialGradient>
	<path fill="url(#SVGID_6_)" d="M16.209,96.514L1.108,121.763C0.524,123.011,1.131,124,2.629,124H8.91l13.446-22.335l-6.146-10.173
		C17.039,92.87,17.039,95.13,16.209,96.514"/>
	
		<radialGradient id="SVGID_7_" cx="-313.1831" cy="16.559" r="40.54" gradientTransform="matrix(0.498 0 0 0.498 172.2891 79.7388)" gradientUnits="userSpaceOnUse">
		<stop  offset="0" style="stop-color:#848484"/>
		<stop  offset="1" style="stop-color:#838383"/>
	</radialGradient>
	<path fill="url(#SVGID_7_)" d="M2.629,64c-1.613,0-2.254,1.133-1.424,2.511l24.529,40.745c0.772,1.288,0.795,3.317,0.119,4.713
		l5.963-9.925L8.914,64H2.629z"/>
	
		<radialGradient id="SVGID_8_" cx="-301.1191" cy="6.5938" r="33.0584" gradientTransform="matrix(0.498 0 0 0.498 172.2891 79.7388)" gradientUnits="userSpaceOnUse">
		<stop  offset="0" style="stop-color:#626262"/>
		<stop  offset="1" style="stop-color:#474747"/>
	</radialGradient>
	<path fill="url(#SVGID_8_)" d="M8.914,64l22.903,38.045l3.321-5.53c0.83-1.385,0.83-3.645,0-5.023l-15.004-24.98
		C19.305,65.133,17.308,64,15.701,64H8.914z"/>
</g>
<g>
	<g>
		<path fill="#E6E6E5" d="M116.071,143.967c0,2.676-0.731,4.738-2.193,6.186c-1.462,1.448-3.518,2.172-6.166,2.172h-5.148v-16.035
			h5.507c2.554,0,4.526,0.658,5.916,1.975S116.071,141.48,116.071,143.967z M111.608,144.12c0-1.47-0.289-2.559-0.866-3.269
			c-0.577-0.709-1.453-1.063-2.628-1.063h-1.251v8.982h0.958c1.306,0,2.264-0.382,2.874-1.146
			C111.303,146.86,111.608,145.692,111.608,144.12z"/>
		<path fill="#E6E6E5" d="M123.287,152.544c-2.053,0-3.646-0.551-4.782-1.651c-1.136-1.1-1.704-2.667-1.704-4.699
			c0-2.099,0.526-3.709,1.578-4.831c1.052-1.123,2.554-1.684,4.505-1.684c1.857,0,3.293,0.487,4.305,1.464s1.52,2.382,1.52,4.217
			v1.909H121.1c0.029,0.694,0.281,1.239,0.758,1.634c0.475,0.395,1.121,0.592,1.941,0.592c0.748,0,1.436-0.071,2.063-0.214
			c0.629-0.143,1.309-0.385,2.041-0.729v3.081c-0.668,0.344-1.357,0.582-2.068,0.713
			C125.123,152.478,124.275,152.544,123.287,152.544z M123.037,142.596c-0.5,0-0.92,0.159-1.256,0.478
			c-0.338,0.317-0.537,0.816-0.594,1.497h3.656c-0.014-0.6-0.184-1.079-0.506-1.438
			C124.016,142.775,123.582,142.596,123.037,142.596z"/>
		<path fill="#E6E6E5" d="M133.009,152.324l-4.702-12.427h4.44l2.09,7.349c0.008,0.037,0.022,0.099,0.044,0.187
			s0.043,0.192,0.065,0.313c0.021,0.121,0.041,0.249,0.06,0.384c0.018,0.136,0.027,0.262,0.027,0.379h0.076
			c0-0.381,0.065-0.794,0.195-1.239l2.188-7.371h4.43l-4.702,12.427H133.009z"/>
		<path fill="#E6E6E5" d="M146.539,152.324h-4.234v-16.035h9.404v3.478h-5.17v3.06h4.767v3.477h-4.767V152.324z"/>
		<path fill="#E6E6E5" d="M158.687,152.544c-2.054,0-3.647-0.551-4.783-1.651c-1.136-1.1-1.703-2.667-1.703-4.699
			c0-2.099,0.525-3.709,1.578-4.831c1.052-1.123,2.554-1.684,4.506-1.684c1.857,0,3.292,0.487,4.305,1.464
			c1.012,0.977,1.519,2.382,1.519,4.217v1.909h-7.608c0.029,0.694,0.281,1.239,0.757,1.634c0.475,0.395,1.122,0.592,1.942,0.592
			c0.747,0,1.435-0.071,2.063-0.214s1.308-0.385,2.041-0.729v3.081c-0.668,0.344-1.357,0.582-2.068,0.713
			C160.522,152.478,159.674,152.544,158.687,152.544z M158.437,142.596c-0.501,0-0.92,0.159-1.257,0.478
			c-0.338,0.317-0.536,0.816-0.594,1.497h3.657c-0.015-0.6-0.184-1.079-0.506-1.438C159.414,142.775,158.98,142.596,158.437,142.596
			z"/>
		<path fill="#E6E6E5" d="M174.699,148.508c0,1.33-0.45,2.336-1.35,3.016c-0.9,0.68-2.191,1.021-3.875,1.021
			c-0.914,0-1.709-0.05-2.384-0.148s-1.364-0.279-2.067-0.543v-3.433c0.66,0.292,1.384,0.533,2.171,0.724s1.489,0.285,2.106,0.285
			c0.921,0,1.382-0.212,1.382-0.636c0-0.22-0.129-0.415-0.386-0.587c-0.258-0.172-1.007-0.507-2.248-1.004
			c-1.132-0.468-1.923-1-2.373-1.596c-0.449-0.596-0.675-1.351-0.675-2.265c0-1.155,0.442-2.055,1.328-2.698
			c0.885-0.644,2.137-0.965,3.755-0.965c0.813,0,1.576,0.089,2.291,0.269c0.715,0.179,1.457,0.44,2.227,0.784l-1.154,2.764
			c-0.565-0.256-1.164-0.474-1.796-0.652c-0.631-0.18-1.146-0.269-1.546-0.269c-0.696,0-1.044,0.172-1.044,0.516
			c0,0.212,0.121,0.393,0.364,0.542c0.243,0.15,0.945,0.456,2.106,0.916c0.863,0.358,1.507,0.71,1.932,1.053
			c0.425,0.344,0.736,0.748,0.936,1.212C174.6,147.277,174.699,147.842,174.699,148.508z"/>
		<path fill="#E6E6E5" d="M181.764,149.154c0.573,0,1.259-0.143,2.058-0.428v3.126c-0.573,0.249-1.119,0.426-1.639,0.532
			c-0.519,0.105-1.126,0.159-1.822,0.159c-1.43,0-2.46-0.354-3.092-1.059c-0.631-0.706-0.946-1.79-0.946-3.252v-5.122h-1.491v-1.744
			l1.894-1.349l1.1-2.61h2.786v2.489h3.025v3.214h-3.025v4.837C180.61,148.753,180.995,149.154,181.764,149.154z"/>
	</g>
	<g>
		<path fill="#E6E6E5" d="M60.441,173.886H50.19v-1.841l3.9-3.921c1.151-1.18,1.915-2.016,2.291-2.509s0.65-0.957,0.822-1.392
			c0.172-0.434,0.259-0.899,0.259-1.396c0-0.683-0.205-1.221-0.616-1.613c-0.41-0.394-0.978-0.59-1.702-0.59
			c-0.579,0-1.14,0.107-1.681,0.321c-0.542,0.214-1.167,0.6-1.877,1.158l-1.314-1.604c0.841-0.71,1.659-1.214,2.452-1.51
			c0.793-0.297,1.638-0.445,2.535-0.445c1.407,0,2.534,0.367,3.382,1.102s1.272,1.723,1.272,2.964c0,0.683-0.123,1.331-0.367,1.944
			c-0.245,0.614-0.621,1.247-1.127,1.898s-1.35,1.533-2.529,2.644l-2.627,2.544v0.104h7.179V173.886z"/>
		<path fill="#E6E6E5" d="M71.262,166.324c0,2.627-0.422,4.579-1.267,5.854c-0.845,1.276-2.136,1.914-3.874,1.914
			c-1.683,0-2.958-0.658-3.827-1.976c-0.869-1.317-1.304-3.248-1.304-5.793c0-2.669,0.422-4.636,1.268-5.901
			c0.844-1.266,2.132-1.898,3.863-1.898c1.689,0,2.969,0.662,3.838,1.986S71.262,163.772,71.262,166.324z M63.452,166.324
			c0,2.062,0.212,3.534,0.636,4.417c0.424,0.883,1.102,1.324,2.033,1.324c0.931,0,1.612-0.448,2.043-1.345
			c0.431-0.896,0.646-2.362,0.646-4.396c0-2.027-0.215-3.495-0.646-4.401c-0.431-0.907-1.112-1.36-2.043-1.36
			c-0.931,0-1.608,0.444-2.033,1.334C63.665,162.786,63.452,164.262,63.452,166.324z"/>
		<path fill="#E6E6E5" d="M78.971,173.886H76.54v-9.766c0-1.165,0.027-2.089,0.083-2.771c-0.159,0.165-0.354,0.348-0.584,0.548
			c-0.231,0.2-1.005,0.835-2.323,1.903l-1.22-1.541l4.448-3.497h2.028V173.886z"/>
		<path fill="#E6E6E5" d="M93.443,170.586h-2.038v3.3h-2.369v-3.3h-6.91v-1.872l6.91-9.993h2.369v9.848h2.038V170.586z
			 M89.037,168.568v-3.796c0-1.352,0.035-2.459,0.104-3.32h-0.083c-0.193,0.455-0.496,1.007-0.91,1.654l-3.755,5.462H89.037z"/>
		<path fill="#E6E6E5" d="M107.494,169.779c0,1.345-0.486,2.399-1.458,3.165c-0.973,0.766-2.314,1.148-4.024,1.148
			c-1.71,0-3.11-0.266-4.2-0.797v-2.338c0.689,0.324,1.422,0.579,2.198,0.766c0.776,0.187,1.499,0.279,2.167,0.279
			c0.979,0,1.702-0.187,2.167-0.559s0.698-0.872,0.698-1.5c0-0.565-0.214-1.045-0.641-1.438c-0.428-0.394-1.311-0.858-2.648-1.396
			c-1.379-0.559-2.352-1.196-2.917-1.914c-0.565-0.717-0.848-1.579-0.848-2.586c0-1.262,0.448-2.255,1.345-2.979
			c0.896-0.724,2.1-1.086,3.61-1.086c1.448,0,2.89,0.317,4.324,0.952l-0.786,2.017c-1.345-0.565-2.545-0.848-3.6-0.848
			c-0.8,0-1.407,0.174-1.82,0.521c-0.414,0.349-0.621,0.81-0.621,1.382c0,0.393,0.083,0.729,0.248,1.008s0.438,0.543,0.817,0.792
			c0.379,0.248,1.062,0.575,2.048,0.982c1.11,0.462,1.924,0.894,2.441,1.293c0.517,0.4,0.896,0.852,1.138,1.355
			C107.373,168.503,107.494,169.097,107.494,169.779z"/>
		<path fill="#E6E6E5" d="M113.888,174.093c-1.779,0-3.171-0.519-4.174-1.557s-1.505-2.468-1.505-4.288
			c0-1.869,0.465-3.338,1.396-4.407c0.931-1.068,2.21-1.603,3.838-1.603c1.51,0,2.703,0.458,3.579,1.375
			c0.875,0.918,1.313,2.18,1.313,3.786v1.314h-7.624c0.034,1.11,0.334,1.964,0.9,2.56c0.565,0.597,1.362,0.896,2.39,0.896
			c0.676,0,1.305-0.064,1.888-0.191c0.583-0.128,1.208-0.34,1.877-0.637v1.976c-0.593,0.283-1.193,0.483-1.8,0.601
			S114.667,174.093,113.888,174.093z M113.443,164.079c-0.772,0-1.392,0.245-1.857,0.734c-0.465,0.49-0.743,1.204-0.833,2.142h5.193
			c-0.014-0.945-0.242-1.66-0.683-2.146S114.215,164.079,113.443,164.079z"/>
		<path fill="#E6E6E5" d="M126.984,173.886l-0.486-1.593h-0.082c-0.553,0.696-1.107,1.171-1.666,1.422
			c-0.559,0.252-1.275,0.378-2.152,0.378c-1.123,0-2-0.304-2.631-0.91c-0.633-0.607-0.947-1.466-0.947-2.576
			c0-1.179,0.438-2.068,1.314-2.669c0.875-0.6,2.209-0.928,4.002-0.982l1.977-0.063v-0.61c0-0.73-0.172-1.277-0.512-1.64
			c-0.342-0.361-0.871-0.543-1.588-0.543c-0.586,0-1.148,0.087-1.688,0.259c-0.537,0.173-1.055,0.376-1.551,0.61l-0.787-1.737
			c0.621-0.324,1.301-0.571,2.039-0.74s1.434-0.253,2.09-0.253c1.455,0,2.553,0.317,3.295,0.951c0.74,0.635,1.111,1.631,1.111,2.989
			v7.707H126.984z M123.363,172.23c0.883,0,1.592-0.246,2.127-0.739c0.533-0.493,0.801-1.185,0.801-2.074v-0.993l-1.469,0.063
			c-1.145,0.041-1.977,0.232-2.498,0.574c-0.521,0.341-0.781,0.863-0.781,1.566c0,0.511,0.152,0.905,0.455,1.185
			C122.303,172.091,122.758,172.23,123.363,172.23z"/>
		<path fill="#E6E6E5" d="M138.53,170.627c0,1.117-0.407,1.975-1.221,2.571c-0.813,0.596-1.979,0.895-3.496,0.895
			c-1.524,0-2.749-0.231-3.673-0.693v-2.1c1.345,0.62,2.597,0.931,3.755,0.931c1.497,0,2.245-0.451,2.245-1.354
			c0-0.29-0.083-0.531-0.248-0.725c-0.166-0.193-0.438-0.393-0.817-0.6s-0.907-0.441-1.583-0.704
			c-1.317-0.51-2.208-1.021-2.674-1.53c-0.466-0.511-0.698-1.173-0.698-1.986c0-0.979,0.395-1.739,1.185-2.281
			c0.789-0.541,1.863-0.812,3.223-0.812c1.345,0,2.617,0.272,3.816,0.816l-0.786,1.831c-1.234-0.51-2.272-0.766-3.113-0.766
			c-1.283,0-1.924,0.366-1.924,1.097c0,0.359,0.167,0.662,0.501,0.91c0.335,0.249,1.064,0.59,2.188,1.024
			c0.944,0.366,1.631,0.7,2.059,1.004c0.427,0.303,0.744,0.653,0.951,1.05S138.53,170.075,138.53,170.627z"/>
		<path fill="#E6E6E5" d="M150.034,168.145c0,1.869-0.479,3.327-1.438,4.376c-0.959,1.048-2.293,1.572-4.004,1.572
			c-1.068,0-2.014-0.241-2.834-0.725c-0.821-0.482-1.452-1.176-1.894-2.079s-0.662-1.951-0.662-3.145
			c0-1.855,0.477-3.303,1.428-4.345c0.952-1.041,2.293-1.562,4.024-1.562c1.655,0,2.965,0.532,3.931,1.598
			S150.034,166.338,150.034,168.145z M141.707,168.145c0,2.642,0.976,3.962,2.928,3.962c1.931,0,2.896-1.32,2.896-3.962
			c0-2.613-0.973-3.921-2.918-3.921c-1.021,0-1.76,0.339-2.219,1.015C141.937,165.914,141.707,166.883,141.707,168.145z"/>
		<path fill="#E6E6E5" d="M161.621,173.886h-2.441v-7.034c0-0.883-0.178-1.541-0.532-1.976c-0.355-0.435-0.919-0.652-1.691-0.652
			c-1.027,0-1.779,0.304-2.255,0.911c-0.477,0.606-0.714,1.624-0.714,3.051v5.7h-2.431v-11.441h1.903l0.341,1.5h0.124
			c0.345-0.544,0.835-0.965,1.469-1.262c0.635-0.296,1.338-0.444,2.11-0.444c2.745,0,4.117,1.396,4.117,4.189V173.886z"/>
	</g>
	<g>
		<path fill="#E6E6E5" d="M55.729,143.313h6.922v8.644c-1.879,0.644-3.945,0.966-6.198,0.966c-2.472,0-4.382-0.717-5.731-2.15
			s-2.024-3.478-2.024-6.132c0-2.589,0.739-4.604,2.216-6.044s3.547-2.161,6.208-2.161c1.009,0,1.962,0.096,2.858,0.285
			c0.896,0.19,1.676,0.432,2.342,0.725l-1.371,3.4c-1.156-0.57-2.424-0.855-3.807-0.855c-1.265,0-2.243,0.411-2.934,1.233
			c-0.691,0.823-1.037,1.998-1.037,3.526c0,1.5,0.313,2.643,0.938,3.429c0.625,0.786,1.526,1.179,2.704,1.179
			c0.644,0,1.236-0.062,1.777-0.187v-2.512h-2.863V143.313z"/>
		<path fill="#E6E6E5" d="M78.185,144.345c0,2.677-0.737,4.738-2.21,6.187s-3.545,2.172-6.214,2.172h-5.188v-16.037h5.551
			c2.574,0,4.561,0.658,5.961,1.975S78.185,141.858,78.185,144.345z M73.688,144.498c0-1.47-0.291-2.56-0.872-3.269
			s-1.464-1.064-2.649-1.064h-1.262v8.984h0.965c1.316,0,2.282-0.383,2.896-1.146C73.38,147.238,73.688,146.07,73.688,144.498z"/>
		<path fill="#E6E6E5" d="M86.15,143.313h6.922v8.644c-1.879,0.644-3.945,0.966-6.198,0.966c-2.472,0-4.382-0.717-5.731-2.15
			s-2.024-3.478-2.024-6.132c0-2.589,0.739-4.604,2.216-6.044s3.547-2.161,6.208-2.161c1.009,0,1.962,0.096,2.858,0.285
			c0.896,0.19,1.676,0.432,2.342,0.725l-1.371,3.4c-1.156-0.57-2.424-0.855-3.807-0.855c-1.265,0-2.243,0.411-2.934,1.233
			c-0.691,0.823-1.037,1.998-1.037,3.526c0,1.5,0.313,2.643,0.938,3.429c0.625,0.786,1.526,1.179,2.704,1.179
			c0.644,0,1.236-0.062,1.777-0.187v-2.512H86.15V143.313z"/>
	</g>
	
		<radialGradient id="SVGID_9_" cx="-310.265" cy="192.9653" r="20.1137" gradientTransform="matrix(0.498 0 0 0.498 172.2891 79.7388)" gradientUnits="userSpaceOnUse">
		<stop  offset="0" style="stop-color:#FFCF4F"/>
		<stop  offset="1" style="stop-color:#F4C236"/>
	</radialGradient>
	<path fill="url(#SVGID_9_)" d="M9.068,187h6.791c1.607,0,3.604-1.128,4.432-2.511l5.72-9.519c0.677-1.396,0.653-3.426-0.119-4.713
		l-3.378-5.592L9.068,187z"/>
	
		<radialGradient id="SVGID_10_" cx="-322.3167" cy="182.7508" r="27.6582" gradientTransform="matrix(0.498 0 0 0.498 172.2891 79.7388)" gradientUnits="userSpaceOnUse">
		<stop  offset="0" style="stop-color:#08A960"/>
		<stop  offset="1" style="stop-color:#07914B"/>
	</radialGradient>
	<path fill="url(#SVGID_10_)" d="M16.368,159.514L1.266,184.763C0.683,186.011,1.289,187,2.787,187h6.281l13.446-22.335
		l-6.146-10.173C17.197,155.87,17.197,158.13,16.368,159.514"/>
	
		<radialGradient id="SVGID_11_" cx="-312.8651" cy="143.0691" r="40.54" gradientTransform="matrix(0.498 0 0 0.498 172.2891 79.7388)" gradientUnits="userSpaceOnUse">
		<stop  offset="0" style="stop-color:#567FC0"/>
		<stop  offset="1" style="stop-color:#557FC0"/>
	</radialGradient>
	<path fill="url(#SVGID_11_)" d="M2.787,127c-1.613,0-2.254,1.133-1.424,2.511l24.529,40.745c0.772,1.288,0.795,3.317,0.119,4.713
		l5.963-9.925L9.072,127H2.787z"/>
	
		<radialGradient id="SVGID_12_" cx="-300.8011" cy="133.1039" r="33.0584" gradientTransform="matrix(0.498 0 0 0.498 172.2891 79.7388)" gradientUnits="userSpaceOnUse">
		<stop  offset="0" style="stop-color:#E14C40"/>
		<stop  offset="1" style="stop-color:#CD392D"/>
	</radialGradient>
	<path fill="url(#SVGID_12_)" d="M9.072,127l22.903,38.045l3.321-5.53c0.83-1.385,0.83-3.645,0-5.023l-15.004-24.981
		C19.463,128.133,17.467,127,15.86,127H9.072z"/>
</g>
</svg>
