<?xml version="1.0" encoding="UTF-8" standalone="no"?>
<!-- Created with Inkscape (http://www.inkscape.org/) -->

<svg
   xmlns:dc="http://purl.org/dc/elements/1.1/"
   xmlns:cc="http://creativecommons.org/ns#"
   xmlns:rdf="http://www.w3.org/1999/02/22-rdf-syntax-ns#"
   xmlns:svg="http://www.w3.org/2000/svg"
   xmlns="http://www.w3.org/2000/svg"
   xmlns:sodipodi="http://sodipodi.sourceforge.net/DTD/sodipodi-0.dtd"
   xmlns:inkscape="http://www.inkscape.org/namespaces/inkscape"
   width="210mm"
   height="297mm"
   viewBox="0 0 744.09448819 1052.3622047"
   id="svg3553"
   version="1.1"
   inkscape:version="0.91 r13725"
   sodipodi:docname="datalab_logo.svg">
  <defs
     id="defs3555" />
  <sodipodi:namedview
     id="base"
     pagecolor="#ffffff"
     bordercolor="#666666"
     borderopacity="1.0"
     inkscape:pageopacity="0.0"
     inkscape:pageshadow="2"
     inkscape:zoom="0.35"
     inkscape:cx="375"
     inkscape:cy="520"
     inkscape:document-units="px"
     inkscape:current-layer="layer1"
     showgrid="false"
     inkscape:window-width="1307"
     inkscape:window-height="744"
     inkscape:window-x="59"
     inkscape:window-y="24"
     inkscape:window-maximized="1" />
  <metadata
     id="metadata3558">
    <rdf:RDF>
      <cc:Work
         rdf:about="">
        <dc:format>image/svg+xml</dc:format>
        <dc:type
           rdf:resource="http://purl.org/dc/dcmitype/StillImage" />
        <dc:title></dc:title>
      </cc:Work>
    </rdf:RDF>
  </metadata>
  <g
     inkscape:label="Layer 1"
     inkscape:groupmode="layer"
     id="layer1">
    <path
       style="fill:#000000;stroke-width:0.14562516"
       d="m 319.4733,807.21195 c -20.73982,-4.06765 -54.8356,-15.65498 -73.90879,-25.11979 -42.541,-21.10368 -91.49253,-66.79035 -116.29639,-108.5436 -13.28113,-22.35423 -29.850684,-65.31494 -33.909574,-87.91764 -1.88903,-10.5301 -1.77434,-10.6446 10.979644,-10.6446 12.4362,0 13.01482,0.51282 16.378,13.91911 22.97309,91.71321 95.58652,165.76676 185.81137,189.49771 35.55552,9.35064 91.22451,9.33464 126.57897,0 90.1763,-23.89666 161.56932,-94.12342 184.47629,-181.4649 l 5.74914,-21.92018 12.33865,0 c 7.79151,0 12.33815,1.53818 12.33815,4.16209 0,12.13987 -15.31493,56.39854 -28.04575,81.04881 -27.27018,52.80042 -66.67116,92.03251 -120.27233,119.76028 -41.59452,21.51387 -81.59774,30.91553 -129.64595,30.46193 -20.93251,0 -44.5899,-1.65737 -52.57143,-3.19581 z m -10.04934,-269.88755 0,-99.88006 46.84234,0 c 44.04123,0 47.87819,0.51281 64.15965,8.62857 33.30696,16.59785 44.43657,42.48706 42.30491,98.42007 -1.56294,41.06692 -7.15551,55.36467 -28.94127,74.0104 -17.6328,15.09476 -33.70381,18.70482 -83.24292,18.70482 l -41.12271,0 z m 98.29682,67.62665 c 6.55174,-3.47176 14.87917,-12.1909 19.55667,-20.46431 7.20457,-12.74725 8.13201,-18.19595 8.02945,-47.16234 -0.11234,-38.1001 -5.99489,-54.26015 -24.02823,-66.27379 -9.57436,-6.37569 -15.40131,-7.40925 -41.75414,-7.40925 l -30.62675,0 0,73.68304 0,73.68678 28.7058,0 c 21.63077,0 31.51884,-1.49997 40.1172,-6.06013 z M 93.283306,493.73226 c 0,-10.55377 12.563714,-54.26396 21.227314,-73.85256 24.55919,-55.53431 76.48726,-109.90483 131.05389,-137.22217 36.03876,-18.03811 69.24113,-26.04324 115.34966,-27.80267 37.04268,-1.42128 47.86041,-0.59151 74.82678,5.62989 59.27606,13.69831 117.97693,49.93204 155.11722,95.75294 29.38895,36.25359 59.15059,103.85683 59.15059,134.35404 0,8.20239 -1.11315,9.07424 -11.56455,9.07424 -6.51018,0 -12.02271,-1.77428 -12.61213,-4.09507 -0.57565,-2.24883 -3.5113,-14.32549 -6.52268,-26.83207 C 598.53404,382.46619 525.33144,309.89598 435.50567,286.52774 404.51646,278.4637 350.81,276.93669 320.88576,283.25323 c -45.72672,9.67781 -88.66014,32.34778 -123.49423,65.20825 -38.24106,36.07614 -65.72665,83.84611 -74.95403,130.26684 l -4.15714,20.91404 -12.49833,0 c -9.882244,0 -12.498724,-1.2616 -12.498724,-5.93371 z"
       id="path4955"
       inkscape:connector-curvature="0" />
  </g>
</svg>
