<?xml version="1.0" encoding="UTF-8" standalone="no"?>
<!-- Created with Inkscape (http://www.inkscape.org/) -->

<svg
   xmlns:dc="http://purl.org/dc/elements/1.1/"
   xmlns:cc="http://creativecommons.org/ns#"
   xmlns:rdf="http://www.w3.org/1999/02/22-rdf-syntax-ns#"
   xmlns:svg="http://www.w3.org/2000/svg"
   xmlns="http://www.w3.org/2000/svg"
   xmlns:sodipodi="http://sodipodi.sourceforge.net/DTD/sodipodi-0.dtd"
   xmlns:inkscape="http://www.inkscape.org/namespaces/inkscape"
   width="210mm"
   height="297mm"
   viewBox="0 0 744.09448819 1052.3622047"
   id="svg3511"
   version="1.1"
   inkscape:version="0.91 r13725"
   sodipodi:docname="medialabprado_logo.svg">
  <defs
     id="defs3513" />
  <sodipodi:namedview
     id="base"
     pagecolor="#ffffff"
     bordercolor="#666666"
     borderopacity="1.0"
     inkscape:pageopacity="0.0"
     inkscape:pageshadow="2"
     inkscape:zoom="0.7"
     inkscape:cx="544.90713"
     inkscape:cy="886.29757"
     inkscape:document-units="px"
     inkscape:current-layer="layer1"
     showgrid="false"
     inkscape:window-width="1307"
     inkscape:window-height="744"
     inkscape:window-x="59"
     inkscape:window-y="24"
     inkscape:window-maximized="1" />
  <metadata
     id="metadata3516">
    <rdf:RDF>
      <cc:Work
         rdf:about="">
        <dc:format>image/svg+xml</dc:format>
        <dc:type
           rdf:resource="http://purl.org/dc/dcmitype/StillImage" />
        <dc:title></dc:title>
      </cc:Work>
    </rdf:RDF>
  </metadata>
  <g
     inkscape:label="Layer 1"
     inkscape:groupmode="layer"
     id="layer1">
    <path
       style="fill:#000000;stroke-width:0.13968498"
       d="m 440.74138,602.72193 c -13.00957,-2.74089 -23.67178,-10.87035 -28.90704,-22.03656 -2.56654,-5.47491 -2.94119,-7.68725 -2.94119,-17.37897 0,-9.88007 0.33792,-11.79664 3.06793,-17.3539 3.78479,-7.70679 12.16453,-15.71357 20.56822,-19.65274 5.56372,-2.60846 7.7293,-2.97667 17.48025,-2.97667 10.33765,0 11.65694,0.26478 18.54439,3.65043 8.60898,4.23772 15.34353,11.18569 19.60901,20.22878 2.46335,5.22253 2.87003,7.55755 2.80429,16.1041 -0.1113,14.14842 -4.29165,23.5347 -14.05804,31.54559 -7.9205,6.49739 -25.02165,10.21896 -36.16782,7.86994 z m 21.73617,-14.60036 c 9.87859,-4.69659 16.88737,-17.63282 15.40721,-28.43353 -2.08955,-15.24208 -15.32627,-25.80006 -30.61072,-24.4135 -14.64695,1.32517 -25.57058,12.84983 -25.59802,27.00103 -0.0397,21.6446 21.25795,35.1374 40.80153,25.846 z m -390.657374,-25.48192 0,-40.09217 23.60109,0.46036 c 21.006464,0.40472 24.281404,0.72513 29.797244,2.8958 13.25671,5.20853 21.01359,15.87114 21.01359,28.88412 0,10.7142 -1.83974,15.39687 -8.85624,22.54017 -8.89385,9.05424 -14.88395,11.02519 -35.84591,11.79658 l -16.381954,0.59948 0,6.50302 0,6.50161 -6.66344,0 -6.66438,0 z m 51.914164,11.00433 c 6.70387,-3.12875 9.56691,-7.6524 10.02554,-15.84325 0.45058,-8.06806 -1.61878,-12.71727 -7.89595,-17.73889 l -4.26447,-3.41052 -18.22533,-0.34904 -18.226134,-0.34904 0,20.02929 0,20.02939 12.49437,0.33472 c 16.065444,0.43252 20.329934,-0.009 26.091974,-2.69774 z m 35.82558,-10.89279 0,-39.98331 20.49116,0 c 11.27022,0 23.14049,0.55815 26.37738,1.24147 16.88059,3.57788 27.1649,14.18612 28.37581,29.26918 1.06431,13.26961 -5.84868,25.20293 -18.06305,31.17866 -6.65552,3.25706 -6.75593,4.11774 -1.08807,9.38488 1.64248,1.52736 3.97162,4.15115 5.17539,5.83063 l 2.18775,3.05489 -8.13518,0 -8.13559,0 -5.54516,-6.52672 c -4.9503,-5.82648 -6.1113,-6.60487 -10.82036,-7.25774 -2.90167,-0.40469 -7.77469,-0.40469 -10.82886,0.004 l -5.55304,0.73944 0,4.7636 c 0,7.74027 -0.51363,8.2787 -7.89333,8.2787 l -6.54429,0 z m 51.43895,12.35886 c 15.51025,-7.63571 15.68572,-29.91639 0.29258,-36.9076 -3.75519,-1.70594 -7.37873,-2.06308 -21.18877,-2.08256 l -16.65972,0 0.17726,20.82439 c 0.0978,11.45348 0.22193,20.99595 0.27589,21.20522 0.0557,0.20913 7.22346,0.20913 15.92769,0 13.95006,-0.33473 16.46006,-0.69728 21.17495,-3.01435 z m 31.18094,24.93092 c 1.7838,-7.10562 21.78869,-75.28114 22.36297,-76.21012 0.36017,-0.58598 6.29281,-1.06019 13.18161,-1.06019 l 12.52511,0 11.29144,39.14918 c 6.21004,21.53162 11.29026,39.52439 11.28764,39.98197 0,0.46036 -3.48711,0.83691 -7.74449,0.83691 l -7.74097,0 -1.53659,-5.27549 -1.53706,-5.27549 -16.72286,-0.3069 -16.72332,-0.30692 -1.85399,5.58241 -1.85352,5.58095 -7.80584,0 c -7.70585,0 -7.79688,0 -7.13013,-2.69209 z m 50.18628,-20.97641 c 0.0716,-0.13912 -2.46198,-9.70571 -5.63844,-21.31122 l -5.77449,-21.10202 -3.40521,-0.33473 c -2.5038,-0.25125 -3.56937,0.19567 -4.02457,1.66555 -1.07964,3.50116 -10.66156,40.84677 -10.66872,41.58746 0,0.59951 29.11628,0.13912 29.51143,-0.50248 z m 33.78625,-16.21152 0,-40.08516 16.38143,0 c 30.06673,0 42.49928,5.29084 51.18473,21.63769 2.67724,5.03974 2.9505,6.68575 2.95407,17.77093 0,9.38769 -0.48976,13.49423 -2.12607,17.73754 -2.9616,7.68023 -10.33533,15.18063 -18.71142,19.03338 -6.73107,3.09528 -7.51875,3.19426 -28.30387,3.57788 l -21.37887,0.3904 0,-40.08507 z m 40.53358,26.41793 c 2.6106,-0.72512 6.34209,-3.13433 9.05891,-5.85162 11.74225,-11.74218 10.28288,-34.207 -2.82073,-43.42588 -4.59792,-3.23617 -5.20997,-3.35472 -19.09698,-3.70901 l -14.34752,-0.36255 0,27.29958 0,27.29808 11.38407,-0.009 c 6.26107,-0.004 13.3811,-0.55815 15.82225,-1.24146 z M 68.488746,491.50265 c 0,-1.4423 5.06194,-50.87467 6.69326,-65.35934 0.58447,-5.19177 1.0671,-10.33758 1.07268,-11.43391 0,-1.75064 0.91088,-1.95425 7.39462,-1.66555 l 7.38571,0.33473 8.00183,20.61798 c 4.401464,11.3405 8.240914,21.33634 8.533434,22.21236 0.29289,0.87874 3.91199,-8.5479 8.04409,-20.94436 l 7.51194,-22.53876 7.3525,0.32122 7.35191,0.32043 4.69223,36.65091 c 2.58021,20.15765 4.72082,38.02485 4.75598,39.70433 0.0716,3.0241 0,3.0548 -7.10475,3.0548 l -7.16837,0 -0.58584,-3.60995 c -0.32503,-1.98492 -1.62643,-12.85536 -2.89774,-24.15547 -2.19585,-19.53135 -3.20519,-23.91966 -4.87879,-21.21215 -0.40456,0.65594 -3.15373,8.07228 -6.1052,16.47931 l -5.36686,15.28388 -4.97433,0.33475 -4.97393,0.33473 -6.538034,-16.14037 c -3.59603,-8.87715 -7.1324,-16.14872 -7.8583,-16.1585 -0.72669,-0.007 -1.59924,2.10493 -1.9407,4.7008 -0.65843,5.00072 -3.95817,40.77283 -3.95817,42.8973 0,0.79509 -2.60651,1.25536 -7.21958,1.25536 -4.70414,0 -7.21858,-0.44605 -7.21858,-1.28327 z M 168.2151,460.8512 c -0.17726,-17.56182 -0.16066,-35.55458 0.0397,-39.98338 l 0.36814,-8.0513 31.00588,0 31.00677,0 0,6.10818 0,6.10828 -24.4341,0 -24.43361,0 0,7.77382 0,7.77516 19.43569,0 19.43592,0 0,5.55304 0,5.55306 -19.43592,0 -19.43569,0 0,13.32829 0,13.3268 24.98875,0 24.98858,0 0,7.2186 0,7.22002 -31.60404,0 -31.60458,0 z m 79.08358,-8.0528 0,-39.98188 18.04747,0.0157 c 11.50134,0.009 20.06134,0.54383 23.59995,1.49667 12.59047,3.36315 21.01632,10.05022 25.96712,20.60686 2.56033,5.45962 2.90921,7.60357 2.90921,17.86578 0,10.23438 -0.35142,12.40903 -2.87632,17.77102 -3.99244,8.47681 -7.62139,12.40344 -15.1142,16.35239 -9.02292,4.75663 -15.68146,5.85996 -35.37397,5.85996 l -17.15926,0 z m 43.57169,24.57816 c 17.92973,-8.67911 18.42983,-39.15482 0.80343,-48.99858 -4.32041,-2.41317 -6.60526,-2.81636 -17.99808,-3.172 l -13.04953,-0.40469 0,28.02208 0,28.02351 12.53177,-0.47467 c 10.07313,-0.39038 13.54822,-0.97644 17.71265,-2.98793 z m 40.83501,-24.57816 0,-39.98188 6.66348,0 6.66396,0 0,39.98188 0,39.98337 -6.66396,0 -6.66348,0 z m 39.60341,7.49617 c 5.15306,-17.86578 10.36604,-35.85854 11.58444,-39.98187 l 2.21584,-7.49618 13.00277,0.009 13.00288,0.009 11.02882,38.58419 c 6.0666,21.222 11.25112,39.23433 11.52273,40.0252 0.38245,1.1159 -1.3503,1.36699 -7.58491,1.1159 l -8.07784,-0.33473 -1.49661,-5.14437 c -0.94987,-3.26407 -2.24914,-5.34108 -3.55602,-5.68281 -1.13259,-0.2926 -7.69016,-0.36257 -14.57229,-0.13912 -6.8822,0.22349 -13.60919,0.40469 -14.9498,0.40469 -1.99345,0 -2.69496,1.00435 -3.8596,5.55313 l -1.4232,5.55306 -8.10323,0 -8.10369,0 z m 41.49104,8.33038 c 0,-0.46036 -2.58523,-10.47848 -5.76829,-22.26677 l -5.78688,-21.43396 -3.28873,0.33472 -3.28929,0.33472 -5.35896,20.54684 c -2.94738,11.30002 -5.36906,21.17176 -5.38109,21.93471 0,1.04619 3.59381,1.381 14.41599,1.381 7.94047,0 14.4465,-0.37687 14.45725,-0.83691 z m 36.63097,-15.82655 0,-39.98188 7.21908,0 7.21901,0 0,33.87362 0,33.8737 18.88048,0 18.88086,0 0,6.10968 0,6.10825 -26.09987,0 -26.09956,0 z m 63.33813,36.92857 c 0.56612,-1.67945 5.558,-18.7977 11.09459,-38.03891 5.53619,-19.24121 10.32921,-35.85863 10.65021,-36.92849 0.51363,-1.70737 2.16636,-1.94305 13.5913,-1.94305 l 13.00645,0 10.96664,38.03885 c 6.03187,20.92067 11.1981,38.91343 11.48186,39.98187 0.4548,1.71579 -0.40071,1.94453 -7.30008,1.94453 l -7.81421,0 -1.84461,-5.55313 c -2.11103,-6.35512 -0.37767,-5.85574 -20.85452,-6.00498 l -14.19144,-0.13912 -1.83808,5.83063 -1.83832,5.8307 -8.06847,0 -8.06905,0 z m 44.82254,-41.64885 c -3.27147,-11.75904 -5.95584,-21.75346 -5.96556,-22.21238 0,-0.46034 -1.47894,-0.83689 -3.26398,-0.83689 -2.68518,0 -3.4444,0.62812 -4.3974,3.60992 -1.22468,3.83465 -10.12696,39.18553 -10.12696,40.21071 0,0.33472 6.68296,0.5995 14.85065,0.5995 l 14.85066,0 z m 40.66223,4.72028 0,-39.98188 23.60091,0 c 20.8683,0 24.14415,0.26478 28.29761,2.15645 8.75073,3.97274 12.35208,14.50693 8.18232,23.93508 -2.75012,6.21703 -2.7323,6.09148 -0.86202,6.09148 2.47805,0 10.95233,7.98444 12.5615,11.83578 2.20335,5.27405 1.89257,16.67036 -0.60267,22.16768 -1.14246,2.51494 -3.85744,5.92968 -6.03409,7.59103 -7.06848,5.39125 -12.05177,6.16264 -39.77453,6.16264 l -25.36793,0 z m 51.29482,26.61606 c 9.34067,-2.59312 13.16251,-14.66174 6.97339,-22.01703 -3.82938,-4.55155 -10.84715,-5.85305 -29.45286,-5.46521 l -14.93256,0.30692 -0.31087,14.16099 -0.3109,14.15955 16.97006,-0.004 c 9.33354,-0.004 18.81204,-0.51601 21.0638,-1.14382 z m -4.24984,-40.29436 c 2.32348,-1.52187 2.93333,-2.8038 2.93333,-6.16687 0,-7.50737 -2.13181,-8.41822 -20.65983,-8.83523 l -15.99081,-0.36257 0,8.22709 c 0,4.52366 0.27032,8.49766 0.60107,8.82825 0.33316,0.33475 7.25781,0.51601 15.39259,0.41822 11.92847,-0.15348 15.35827,-0.55815 17.72302,-2.10905 z"
       id="path4959"
       inkscape:connector-curvature="0" />
  </g>
</svg>
