<?xml version="1.0" encoding="utf-8"?>
<!DOCTYPE svg PUBLIC "-//W3C//DTD SVG 1.1//EN" "http://www.w3.org/Graphics/SVG/1.1/DTD/svg11.dtd">
<svg version="1.1" id="Layer_1" xmlns="http://www.w3.org/2000/svg" xmlns:xlink="http://www.w3.org/1999/xlink" x="0px" y="0px"
	 width="5573.111px" height="1990.154px" viewBox="0 0 5573.111 1990.154" enable-background="new 0 0 5573.111 1990.154"
	 xml:space="preserve">
<path fill="#F64060" d="M3283.748,1072.614c-7.664,11.584-12.557,19.528-17.893,27.18
	c-49.844,71.39-105.776,136.571-182.021,181.676c-102.199,60.419-212.97,85.341-328.428,60.315
	c-59.242-12.853-114.359-46.009-170.154-72.463c-12.86-6.069-19.889-6.223-31.32,0.524c-47.857,28.227-94.404,59.867-145.076,81.812
	c-89.938,38.936-184.639,60.752-282.521,34.857c-61.352-16.232-114.425-50.798-162.374-92.377
	c-34.004-29.479-36.188-29.453-70.677-1.086c-62.014,51.031-133.607,83.935-208.522,111.116
	c-92.929,33.748-188.767,54.427-286.788,64.135c-119.596,11.841-230.494-8.47-311.427-106.782
	c-64.874-78.774-82.223-170.154-42.536-265.149c43.469-104.014,93.732-205.229,140.932-307.659
	c24.611-53.367,49.382-106.683,73.253-160.368c4.366-9.862,6.131-21.368,6.629-32.254c0.934-20.015,5.007-41.936-18.136-53.979
	c-23.645-12.263-51.543-10.052-68.875,11.879c-21.728,27.438-40.951,57.492-57.123,88.557
	c-53.572,102.827-105.403,206.599-157.659,310.1c-39.201,77.61-77.65,155.565-117.208,232.974
	c-37.479,73.422-107.924,101.396-184.27,72.845c-25.715-9.655-41.845-28.624-46.178-57.479
	c-6.13-40.938,7.294-77.599,21.817-114.246c31.716-80.164,63.843-160.177,95.546-240.367
	c16.977-42.995,33.965-86.026,49.904-129.417c11.166-30.339,14.521-62.515,1.496-92.316c-10.08-22.977-29.918-39.582-57.748-37.116
	c-30.392,2.695-54.302,18.572-65.759,46.79c-40.312,99.527-78.979,199.708-118.641,299.492
	c-47.438,119.435-94.088,239.194-143.505,357.821c-18.292,43.838-45.883,83.755-92.305,102.518
	c-23.5,9.528-50.106,15.42-75.411,15.775c-78.952,1.034-147.138-25.342-193.707-92.351c-37.03-53.29-46.087-112.598-28.19-175.339
	c16.551-58.082,33.105-116.161,50.467-174.014c16.451-54.822,33.939-109.351,51.016-164.008
	c15.916-50.889,30.796-102.163,48.054-152.591c33.964-99.273,61.352-201.523,115.176-292.585
	c36.825-62.308,96.479-95.994,164.893-116.891c71.528-21.816,132.46,5.648,193.528,36.035c23.158,11.493,46.01,23.784,69.779,33.797
	c33.161,13.923,63.396,5.109,90.181-16.707c21.921-17.845,44.042-35.676,64.248-55.409c50.48-49.281,159.529-58.413,212.819-1.062
	c12.274,13.207,26.758,24.348,40.312,36.316c27.896,24.64,39.431,27.154,71.707,8.94c76.756-43.339,156.27-37.338,234.432-9.556
	c45.345,16.134,72.488,54.657,89.82,100.283c25.494,67.175,14.806,132.039-10.741,195.179
	c-46.994,116.158-98.179,230.597-144.034,347.19c-27.18,69.167-50.134,140.288-69.666,211.974
	c-7.955,29.214-8.007,63.854-0.586,93.206c11.228,44.429,51.922,58.986,93.08,64.2c62.677,7.945,124.181-3.704,184.229-20.311
	c51.284-14.127,101.777-31.563,151.862-49.663c24.166-8.736,46.687-22.147,69.754-33.861c19.733-9.978,21.257-24.587,10.858-42.957
	c-21.243-37.489-43.585-74.507-62.298-113.286c-39.57-81.967-72.13-166.551-63.444-260.025
	c7.588-81.814,37.133-152.871,112.622-195.932c111.446-63.521,201.883-45.982,283.798,48.922
	c70.842,82.097,94.204,180.921,63.791,286.801c-17.015,59.203-41.359,116.428-64.582,173.681
	c-6.426,15.852-2.696,26.006,7.333,35.342c46.916,43.824,100.41,77.867,159.794,101.955c22.391,9.122,46.062,15.916,69.793,20.683
	c51.041,10.229,98.393-1.918,140.914-30.76c20.248-13.72,20.691-26.541,6.643-45.688
	c-97.806-133.395-136.521-281.87-107.131-445.024c11.012-61.083,39.267-118.779,104.833-136.368
	c40.529-10.884,86.334-10.424,128.476-5.058c68.488,8.71,130.514,36.045,172.59,95.009c50.48,70.751,63.37,148.182,41.645,232.766
	c-15.599,60.752-47.467,112.433-82.557,162.631c-13.896,19.901-14.432,38.244,4.512,51.553
	c29.173,20.502,58.82,42.981,91.787,54.852c71.634,25.776,145.963,23.528,218.131,0.331
	c78.966-25.434,134.451-77.814,166.094-155.54c37.794-92.951,38.255-190.312,36.34-288.025
	c-1.521-76.349-4.189-152.691-6.452-229.065c-0.804-27.271-5.196-28.854-31.194-23.565
	c-68.488,13.836-137.322,26.084-206.056,38.652c-21.678,3.935-43.547,6.604-65.211,10.512c-47.221,8.496-86.18-10.906-88.849-66.141
	c-2.722-55.665-10.78-111.064-16.503-166.604c-0.334-3.126-0.59-6.27-0.755-9.426c-3.195-65.359,12.621-100.909,91.088-98.061
	c81.033,2.978,162.066,5.647,242.999,9.899c39.812,2.07,53.813-7.958,56.433-47.464c2.02-30.67,2.875-61.364,4.789-92.021
	c2.875-45.982,13.359-56.905,60.071-55.078c27.925,1.099,55.986,5.966,83.298,12.109c38.459,8.648,58.616,35.728,61.284,73.982
	c2.16,31.346,1.254,62.936,0.757,94.383c-0.41,22.251,6.5,34.194,31.445,36.712c72.005,7.33,143.727,17.346,215.579,25.877
	c33.927,4.038,52.966,17.771,57.554,42.996c7.959,43.812-1.51,73.816-34.578,85.786c-46.254,16.732-94.074,29.48-141.896,41.269
	c-33.466,8.266-68.134,11.804-102.148,18.052c-22.825,4.177-35.229,16.169-35.024,41.845c0.854,126.786-2.019,253.688,1.662,380.353
	c1.914,66.471,11.892,133.033,40.209,195.123c22.875,50.289,61.938,70.101,116.265,60.991
	c79.717-13.373,152.792-41.371,216.444-91.812c35.319-27.986,58.552-62.233,60.313-109.531
	c3.183-86.552,7.459-173.077,12.541-259.502c1.471-24.934,4.297-50.788,12.609-74.047c4.635-12.903,21.562-29.966,33.351-30.312
	c65.116-1.968,130.676-2.618,195.485,3.003c40.771,3.524,68.778,41.667,66.621,84.828c-2.922,60.428-10.737,120.642-16.487,180.946
	c-7.103,74.403-13.651,148.858-21.56,223.161c-8.01,75.211,52.148,112.507,111.672,113.235c49.935,0.6,79.414-18.035,100.631-70.878
	c21.97-54.696,35.027-113.99,44.502-172.469c13.402-83.024,19.746-167.188,29.635-250.791c4.025-34.144,25.34-60.393,51.847-66.089
	c30.646-6.578,70.853,5.853,80.884,33.864c8.417,23.411,6.5,52.013,3.57,77.686c-10.828,95.214-26.446,189.952-35.365,285.355
	c-5.494,58.604,27.361,100.323,84.299,117.643c28.373,8.609,57.801,15.417,87.185,18.815c51.604,5.901,88.147-31.769,98.927-90.423
	c9.124-49.317,10.336-100.094,14.77-150.252c5.186-59.563,5.938-119.892,16.117-178.596c14.971-86.91,71.11-165.747,175.125-191.041
	c62.434-15.199,125.379-17.012,187.715-9.809c95.045,10.933,194.463,75.541,224.852,184.716
	c23.077,83,13.906,163.178-13.246,243.024c-31.451,92.529-88.941,164.636-169.223,219.549c-7.412,5.059-11.742,14.663-17.438,22.174
	c10.077,4.458,20.258,12.925,30.29,12.747c95.952-1.468,186.444-23.414,269.3-73.675c18.695-11.318,39.059-19.89,58.805-29.279
	c18.142-8.596,28.832,1.585,23.785,17.232c-8.42,26.224-18.549,53.893-35.319,75.079c-71.008,89.761-167.865,132.794-279.89,140.331
	c-47.518,3.191-95.746-3.156-143.623-5.801c-36.137-2.02-72.207-5.161-108.342-7.611c-18.34-1.201-28.93,6.5-33.519,25.456
	c-28.767,118.729-43.99,239.46-58.908,360.516c-9.416,76.218-23.635,152.18-41.871,226.765
	c-9.876,40.465-41.476,68.363-85.226,75.414c-26.149,4.213-45.5-7.104-54.275-31.476c-7.395-20.551-14.303-42.124-16.064-63.659
	c-8.627-106.288-5.101-212.319,9.015-318.096c7.155-53.814,11.942-107.935,18.088-161.865c4.342-37.514,9.992-74.902,13.519-112.493
	c2.768-30.361-4.142-37.528-33.213-43.312c-60.127-11.995-120.285-23.786-180.153-37.043c-40.672-9.044-72.376,5.362-99.942,33.389
	c-36.629,37.26-77.1,69.641-125.127,90.576c-58.002,25.303-119.481,19.988-179.143,10.536
	c-86.069-13.705-154.814-58.959-203.686-131.577c-15.179-22.53-26.162-47.95-38.055-72.516
	c-6.654-13.755-12.644-19.106-28.773-10.881c-57.203,29.124-114.193,59.025-173.244,83.972
	c-65.771,27.797-135.566,37.565-205.46,18.075c-68.134-19.034-120.39-62.896-163.78-117.72
	C3313.23,1110.512,3301.787,1095.72,3283.748,1072.614z M5246.166,799.954c-0.752-9.426-0.752-18.917-2.314-28.19
	c-8.722-53.701-62.641-77.737-106.08-45.356c-19.643,14.636-37.49,33.859-50.893,54.427
	c-44.754,68.604-64.961,147.199-85.168,225.358c-5.086,19.633-8.625,40.391-8.217,60.545c0.759,37.542,22.832,48.578,54.275,28.294
	c65.26-42.102,113.598-100.5,154.405-165.416C5226.971,890.182,5247.279,848.581,5246.166,799.954z M2685.396,837.826
	c0.573-37.312-8.137-71.837-35.615-98.673c-15.234-14.87-34.281-21.345-56.124-14.536c-26.492,8.211-40.812,27.87-42.804,60.493
	c-3.855,63.2,23.287,117.502,51.223,170.957c14.384,27.528,28.051,26.657,46.634,1.216
	C2674.704,921.708,2684.846,881.268,2685.396,837.826z M2041.107,825.755c-6.908-22.854-11.479-46.789-21.345-68.312
	c-12.595-27.388-45.062-39.713-73.776-32.202c-30.389,7.972-42.406,22.456-39.253,59.894c2.772,32.585,10.259,65.081,18.93,96.732
	c6.36,23.262,16.159,46.061,27.743,67.252c15.586,28.547,31.871,28.829,47.198,1.188
	C2021.73,912.255,2038.056,872.29,2041.107,825.755z"/>
</svg>
