<?xml version="1.0" encoding="UTF-8"?>
<!-- Generator: Adobe Illustrator 22.1.0, SVG Export Plug-In . SVG Version: 6.00 Build 0)  -->
<svg version="1.1" id="Layer_1" xmlns="http://www.w3.org/2000/svg" xmlns:xlink="http://www.w3.org/1999/xlink" x="0px" y="0px" viewBox="0 0 1423.1 478.1" style="enable-background:new 0 0 1423.1 478.1;" xml:space="preserve">
<style type="text/css">
	.st0{fill:#1980BF;}
	.st1{fill:#3A3A3A;}
</style>
<path class="st0" d="M130.4,95.2c10.7-39.5,52.7-62.6,93.9-51.5c41.2,11.1,66,52.2,55.3,91.7l-9.1,36.4l40.3,10.9l9.8-36.2  C337.2,85.2,298.8,21.6,235,4.3c-63.9-17.2-129,18.5-144,76l-20,75.1L47.1,149l-13.9,51.6l216.9,58.5l-28.7,106.4  c-12.4,46.1-54,68.5-102.3,55.4c-48.3-13-72.9-53.2-60.5-99.3L79.2,242l-53.3-14.4L4.5,307.1C-14.8,378.5,30.2,452.8,105.1,473  c74.9,20.2,151.2-21.4,170.4-92.8l29.2-112.8l0,0l12.3-45.5l-205.8-55.5L130.4,95.2z"/>
<path class="st1" d="M239.1,131.9c-5,18.6-24.1,29.6-42.7,24.5c-18.6-5-29.6-24.1-24.6-42.7c5-18.6,24.1-29.6,42.7-24.5  C233.1,94.2,244.1,113.3,239.1,131.9z"/>
<polygon class="st1" points="158.3,392.5 101.2,377.1 135.4,252.4 192.5,267.8 "/>
<g>
	<path class="st1" d="M449.4,129.2c-2.3-3.3-5.3-5.7-9.1-7.2c-3.8-1.5-7.8-2.3-12-2.3c-2.5,0-4.9,0.3-7.2,0.9   c-2.3,0.6-4.4,1.5-6.3,2.7c-1.9,1.2-3.4,2.9-4.5,4.8c-1.1,2-1.7,4.3-1.7,7.1c0,4.1,1.4,7.2,4.2,9.3c2.8,2.2,6.3,4,10.5,5.6   c4.2,1.6,8.8,3.1,13.8,4.6c5,1.5,9.6,3.5,13.8,6.1c4.2,2.6,7.7,6.1,10.5,10.4c2.8,4.3,4.2,10,4.2,17.2c0,6.5-1.2,12.1-3.6,16.9   c-2.4,4.8-5.6,8.8-9.6,12c-4,3.2-8.7,5.6-14,7.1c-5.3,1.6-10.9,2.4-16.8,2.4c-7.5,0-14.7-1.2-21.6-3.7c-6.9-2.5-12.9-6.7-17.9-12.6   l16.1-15.6c2.6,4,6,7.1,10.3,9.3c4.2,2.2,8.8,3.3,13.5,3.3c2.5,0,5-0.3,7.5-1c2.5-0.7,4.8-1.7,6.8-3.1s3.7-3.1,4.9-5.2   c1.2-2.1,1.9-4.5,1.9-7.2c0-4.4-1.4-7.8-4.2-10.2c-2.8-2.4-6.3-4.4-10.5-6c-4.2-1.6-8.8-3.2-13.8-4.7c-5-1.5-9.6-3.5-13.8-6   c-4.2-2.6-7.7-6-10.5-10.2c-2.8-4.2-4.2-9.9-4.2-17.1c0-6.2,1.3-11.6,3.8-16.1c2.6-4.5,5.9-8.3,10-11.3c4.1-3,8.9-5.2,14.2-6.7   c5.3-1.5,10.8-2.2,16.3-2.2c6.3,0,12.5,1,18.4,2.9c5.9,1.9,11.3,5.1,16.1,9.5L449.4,129.2z"/>
	<path class="st1" d="M488,103.4h79.7v19.4h-58.3v29.6h55.2v19.4h-55.2v32.6h61.4v19.4H488V103.4z"/>
	<path class="st1" d="M674.4,131.6c-4.4-4.8-8.7-7.9-12.8-9.5c-4.1-1.6-8.3-2.4-12.5-2.4c-6.2,0-11.9,1.1-16.9,3.3   c-5,2.2-9.4,5.3-13,9.2c-3.6,3.9-6.4,8.5-8.4,13.7c-2,5.2-3,10.8-3,16.8c0,6.5,1,12.4,3,17.8c2,5.4,4.8,10.1,8.4,14.1   c3.6,4,8,7.1,13,9.3c5,2.3,10.7,3.4,16.9,3.4c4.9,0,9.6-1.2,14.2-3.5c4.6-2.3,8.9-6,12.8-11.1l17.7,12.6   c-5.4,7.5-12.1,12.9-19.9,16.3s-16.1,5.1-25,5.1c-9.3,0-17.8-1.5-25.6-4.5c-7.8-3-14.4-7.3-20.1-12.8c-5.6-5.5-10-12.1-13.2-19.8   c-3.2-7.7-4.8-16.3-4.8-25.7c0-9.6,1.6-18.4,4.8-26.3c3.2-7.9,7.6-14.6,13.2-20.1c5.6-5.6,12.3-9.8,20.1-12.8   c7.8-3,16.3-4.5,25.6-4.5c8.2,0,15.7,1.4,22.7,4.3c7,2.9,13.5,7.8,19.5,14.7L674.4,131.6z"/>
	<path class="st1" d="M804.7,179.5c0,7.3-1.2,13.8-3.7,19.6c-2.5,5.8-5.9,10.8-10.2,14.9c-4.3,4.1-9.4,7.2-15.3,9.4   c-5.9,2.2-12.3,3.3-19.2,3.3c-6.9,0-13.3-1.1-19.2-3.3c-5.9-2.2-11-5.4-15.4-9.4c-4.4-4.1-7.8-9-10.2-14.9   c-2.4-5.8-3.7-12.4-3.7-19.6v-76.2h21.4v75.5c0,2.9,0.5,6,1.4,9.3c0.9,3.2,2.4,6.2,4.5,8.9c2.1,2.7,4.9,5,8.3,6.7   c3.5,1.8,7.7,2.6,12.8,2.6c5.1,0,9.4-0.9,12.8-2.6c3.5-1.8,6.2-4,8.3-6.7c2.1-2.7,3.6-5.7,4.5-8.9c0.9-3.2,1.4-6.3,1.4-9.3v-75.5   h21.4V179.5z"/>
	<path class="st1" d="M831,103.4h41.8c5.8,0,11.4,0.5,16.7,1.6c5.4,1.1,10.2,2.9,14.4,5.5c4.2,2.6,7.5,6.1,10,10.5   c2.5,4.4,3.7,10,3.7,16.8c0,8.7-2.4,16-7.2,21.9c-4.8,5.9-11.7,9.5-20.7,10.7l32,53.2H896l-27.9-51h-15.6v51H831V103.4z    M869.1,154.4c3.1,0,6.1-0.1,9.2-0.4c3.1-0.3,5.9-1,8.4-2c2.5-1.1,4.6-2.7,6.2-4.9c1.6-2.2,2.4-5.3,2.4-9.3c0-3.5-0.7-6.3-2.2-8.5   c-1.5-2.2-3.4-3.8-5.8-4.8c-2.4-1.1-5-1.8-7.9-2.1c-2.9-0.3-5.7-0.5-8.4-0.5h-18.5v32.6H869.1z"/>
	<path class="st1" d="M937.6,103.4H959v120.4h-21.4V103.4z"/>
	<path class="st1" d="M1010,122.8h-36.9v-19.4h95.2v19.4h-36.9v101H1010V122.8z"/>
	<path class="st1" d="M1112.4,172.2l-45.2-68.9h26.9l29.6,47.9l29.9-47.9h25.5l-45.2,68.9v51.5h-21.4V172.2z"/>
	<path class="st1" d="M393.4,263.4h11.2v120.4h-11.2V263.4z"/>
	<path class="st1" d="M437.6,263.4h14.4l73.3,105.4h0.3V263.4h11.2v120.4h-14.5l-73.3-105.4h-0.3v105.4h-11.2V263.4z"/>
	<path class="st1" d="M569.9,263.4h14.4l73.3,105.4h0.3V263.4h11.2v120.4h-14.5l-73.3-105.4h-0.3v105.4h-11.2V263.4z"/>
	<path class="st1" d="M694.3,323.6c0-9.2,1.5-17.6,4.6-25.3c3.1-7.7,7.3-14.4,12.8-20c5.4-5.6,12-10,19.6-13.2   c7.6-3.2,16.1-4.8,25.2-4.8c9.2,0,17.6,1.6,25.2,4.8c7.7,3.2,14.2,7.6,19.6,13.2c5.4,5.6,9.7,12.3,12.8,20   c3.1,7.7,4.6,16.1,4.6,25.3c0,9.2-1.5,17.7-4.6,25.4c-3.1,7.8-7.3,14.5-12.8,20.1c-5.4,5.6-12,10-19.6,13.1   c-7.7,3.1-16.1,4.7-25.2,4.7c-9.2,0-17.6-1.6-25.2-4.7c-7.6-3.1-14.2-7.5-19.6-13.1c-5.4-5.6-9.7-12.3-12.8-20.1   C695.9,341.2,694.3,332.7,694.3,323.6z M705.6,323.6c0,7.5,1.2,14.5,3.6,20.9s5.8,12.1,10.2,16.8c4.4,4.8,9.8,8.5,16.1,11.2   s13.3,4.1,21.2,4.1c7.8,0,14.9-1.4,21.2-4.1s11.6-6.5,16.1-11.2c4.4-4.8,7.8-10.4,10.2-16.8c2.4-6.5,3.6-13.4,3.6-20.9   s-1.2-14.4-3.6-20.9c-2.4-6.5-5.8-12.1-10.2-16.8c-4.4-4.8-9.8-8.5-16.1-11.2c-6.3-2.7-13.3-4.1-21.2-4.1c-7.8,0-14.9,1.4-21.2,4.1   c-6.3,2.7-11.6,6.5-16.1,11.2c-4.4,4.8-7.8,10.4-10.2,16.8S705.6,316.1,705.6,323.6z"/>
	<path class="st1" d="M826.9,263.4H839L877.8,369l39.1-105.6h11.9L883,383.7h-11.2L826.9,263.4z"/>
	<path class="st1" d="M972.3,263.4h11.6l50.7,120.4h-12.6l-13.1-32h-63.8l-13.6,32h-11.7L972.3,263.4z M977.6,275.6l-28,66h55.2   L977.6,275.6z"/>
	<path class="st1" d="M1067,273.6h-41.1v-10.2h93.5v10.2h-41.1v110.2H1067V273.6z"/>
	<path class="st1" d="M1137.9,263.4h11.2v120.4h-11.2V263.4z"/>
	<path class="st1" d="M1174.2,323.6c0-9.2,1.5-17.6,4.6-25.3c3.1-7.7,7.3-14.4,12.8-20c5.4-5.6,12-10,19.6-13.2   c7.7-3.2,16.1-4.8,25.2-4.8c9.2,0,17.6,1.6,25.2,4.8c7.7,3.2,14.2,7.6,19.6,13.2c5.4,5.6,9.7,12.3,12.8,20   c3.1,7.7,4.6,16.1,4.6,25.3c0,9.2-1.5,17.7-4.6,25.4c-3.1,7.8-7.3,14.5-12.8,20.1c-5.4,5.6-12,10-19.6,13.1   c-7.6,3.1-16.1,4.7-25.2,4.7c-9.2,0-17.6-1.6-25.2-4.7c-7.6-3.1-14.2-7.5-19.6-13.1c-5.4-5.6-9.7-12.3-12.8-20.1   C1175.8,341.2,1174.2,332.7,1174.2,323.6z M1185.5,323.6c0,7.5,1.2,14.5,3.6,20.9s5.8,12.1,10.2,16.8c4.4,4.8,9.8,8.5,16.1,11.2   s13.3,4.1,21.2,4.1c7.8,0,14.9-1.4,21.2-4.1s11.6-6.5,16.1-11.2c4.4-4.8,7.8-10.4,10.2-16.8s3.6-13.4,3.6-20.9s-1.2-14.4-3.6-20.9   s-5.8-12.1-10.2-16.8c-4.4-4.8-9.8-8.5-16.1-11.2c-6.3-2.7-13.3-4.1-21.2-4.1c-7.8,0-14.9,1.4-21.2,4.1   c-6.3,2.7-11.6,6.5-16.1,11.2c-4.4,4.8-7.8,10.4-10.2,16.8S1185.5,316.1,1185.5,323.6z"/>
	<path class="st1" d="M1323.8,263.4h14.5l73.3,105.4h0.3V263.4h11.2v120.4h-14.4l-73.3-105.4h-0.3v105.4h-11.2V263.4z"/>
</g>
</svg>