<?xml version="1.0" encoding="utf-8"?>
<!-- Generator: Adobe Illustrator 17.0.1, SVG Export Plug-In . SVG Version: 6.00 Build 0)  -->
<!DOCTYPE svg PUBLIC "-//W3C//DTD SVG 1.1//EN" "http://www.w3.org/Graphics/SVG/1.1/DTD/svg11.dtd">
<svg version="1.1" id="Layer_1" xmlns="http://www.w3.org/2000/svg" xmlns:xlink="http://www.w3.org/1999/xlink" x="0px" y="0px"
	 width="153.029px" height="60px" viewBox="0 0 153.029 60" enable-background="new 0 0 153.029 60" xml:space="preserve">
<g>
	<path fill="#F16924" d="M136.52,16.069c0.444-0.736,0.102-1.341-0.76-1.341h-3.355h-3.623c-0.859,0-1.924,0.605-2.367,1.341
		l-8.011,13.336c-0.443,0.736-0.443,1.943,0,2.682l1.773,2.953l3.184,5.298l3.054,5.082c0.442,0.739,1.508,1.341,2.367,1.341h3.626
		h3.353c0.801,0,1.123-0.528,0.812-1.194l-8.062-13.48c-0.443-0.739-0.443-1.946,0-2.682"/>
	<radialGradient id="SVGID_1_" cx="112.5872" cy="40.7989" r="5.3475" gradientUnits="userSpaceOnUse">
		<stop  offset="0" style="stop-color:#FFCE4E"/>
		<stop  offset="1" style="stop-color:#F5C337"/>
	</radialGradient>
	<path fill="url(#SVGID_1_)" d="M107.935,46.761h3.626c0.858,0,1.924-0.602,2.366-1.341l3.053-5.082
		c0.361-0.745,0.349-1.829-0.063-2.516l-1.804-2.985L107.935,46.761z"/>
	<radialGradient id="SVGID_2_" cx="109.3829" cy="38.0831" r="7.3534" gradientUnits="userSpaceOnUse">
		<stop  offset="0" style="stop-color:#0DA960"/>
		<stop  offset="1" style="stop-color:#05924B"/>
	</radialGradient>
	<path fill="url(#SVGID_2_)" d="M111.832,32.087l-8.062,13.48c-0.312,0.667,0.012,1.194,0.811,1.194h3.354l7.179-11.924
		l-3.282-5.431C112.275,30.141,112.275,31.348,111.832,32.087"/>
	<radialGradient id="SVGID_3_" cx="111.8958" cy="27.5331" r="10.7783" gradientUnits="userSpaceOnUse">
		<stop  offset="0" style="stop-color:#577EC0"/>
		<stop  offset="1" style="stop-color:#557EBF"/>
	</radialGradient>
	<path fill="url(#SVGID_3_)" d="M104.581,14.728c-0.862,0-1.203,0.605-0.76,1.34l13.096,21.753c0.412,0.687,0.425,1.771,0.063,2.516
		l3.184-5.299l-12.228-20.311H104.581z"/>
	<radialGradient id="SVGID_4_" cx="115.1031" cy="24.8837" r="8.789" gradientUnits="userSpaceOnUse">
		<stop  offset="0" style="stop-color:#E04B3F"/>
		<stop  offset="1" style="stop-color:#CD382D"/>
	</radialGradient>
	<path fill="url(#SVGID_4_)" d="M107.937,14.728l12.228,20.311l1.773-2.953c0.442-0.739,0.442-1.946,0-2.682l-8.011-13.337
		c-0.443-0.736-1.509-1.34-2.366-1.34H107.937z"/>
	<g>
		<path fill="#4D4D4D" d="M13.3,28.035h13.085v16.358c-3.553,1.219-7.454,1.822-11.723,1.822c-4.67,0-8.281-1.354-10.836-4.062
			C1.272,39.442,0,35.57,0,30.546c0-4.892,1.396-8.697,4.191-11.425c2.795-2.728,6.707-4.074,11.74-4.074
			c1.912,0,3.708,0.173,5.4,0.537c1.702,0.356,3.182,0.809,4.441,1.357l-2.604,6.427c-2.182-1.079-4.582-1.616-7.197-1.616
			c-2.382,0-4.236,0.788-5.544,2.337c-1.315,1.556-1.96,3.773-1.96,6.668c0,2.836,0.587,4.996,1.778,6.484
			c1.172,1.491,2.871,2.222,5.102,2.222c1.221,0,2.344-0.108,3.361-0.349v-4.746H13.3V28.035z"/>
		<path fill="#4D4D4D" d="M48.1,30.285c0-2.786-0.546-4.843-1.642-6.189c-1.096-1.334-2.777-2.009-5.014-2.009H39.06v16.99h1.825
			c2.495,0,4.321-0.721,5.477-2.171C47.526,35.473,48.1,33.255,48.1,30.285 M56.603,29.998c0,5.052-1.384,8.954-4.179,11.693
			c-2.777,2.739-6.697,4.105-11.74,4.105h-9.809V15.468h10.489c4.862,0,8.621,1.251,11.271,3.74
			C55.287,21.687,56.603,25.289,56.603,29.998"/>
		<path fill="#4D4D4D" d="M72.515,28.035h13.097v16.358c-3.556,1.219-7.465,1.822-11.723,1.822c-4.67,0-8.283-1.354-10.84-4.062
			c-2.545-2.71-3.822-6.582-3.822-11.607c0-4.892,1.392-8.697,4.187-11.425c2.788-2.728,6.707-4.074,11.744-4.074
			c1.903,0,3.708,0.173,5.41,0.537c1.681,0.356,3.162,0.809,4.416,1.357l-2.591,6.427c-2.182-1.079-4.585-1.616-7.197-1.616
			c-2.393,0-4.237,0.788-5.555,2.337c-1.297,1.556-1.951,3.773-1.951,6.668c0,2.836,0.587,4.996,1.768,6.484
			c1.18,1.491,2.883,2.222,5.11,2.222c1.221,0,2.348-0.108,3.366-0.349v-4.746h-5.42V28.035z"/>
	</g>
	<text transform="matrix(1 0 0 1 87.1855 45.5847)" fill="#4D4D4D" font-family="'OpenSans'" font-size="53.1948">[</text>
	<text transform="matrix(1 0 0 1 135.5223 45.5847)" fill="#4D4D4D" font-family="'OpenSans'" font-size="53.1948">]</text>
</g>
</svg>
