<svg width="123" height="36" viewBox="0 0 123 36" xmlns="http://www.w3.org/2000/svg"><title>logo</title><g fill="none" fill-rule="evenodd"><path d="M26.232 32.96c-.084.384 3.45 1.625 8.804 1.625 12.59 0 12.674-6.29 11.524-8.328-1.542-2.658-6.925-3.958-14.888.206-3.87 2.01-10.29 7.206-16.487 7.56-5.523.325-13.037-2.008-13.402-5.463-.336-3.22 4.206-4.34 7.178-4.34 2.637 0 5.16.796 6.422.796.196 0 .308-.62.112-.62-1.29 0-3.365-.886-6.533-.886-3.644 0-9.308 1.063-8.943 5.11.42 4.813 9.365 7.146 15.533 6.555 8.72-.827 15.225-6.97 19.57-8.948 2.216-1.004 7.823-2.54 9.842.266 2.103 2.924-1.654 6.91-9.084 6.91-2.664 0-4.74-.088-6.786-.413-2.046-.384-2.775-.354-2.86-.03z" fill="#595951"/><path d="M21.576 16.643c-1.073 1.007-.688 1.628 2.283.563 1.32-.474 4.84-2.013 6.682-1.747 1.182.147 1.842.71 2.282 1.272.44.562.853 2.13.963 2.99.11.887.715 5.15.743 5.77.027.623-.523.238-.825.534-1.128 1.006-.88.237-.963-2.516-.083-2.753-.028-4.262-.605-5.89-.468-1.273-1.733-1.42-2.475-1.302-.798.118-1.568.355-2.833.888-1.816.74-3.3 1.48-5.062 1.835-1.567.326-2.392.15-2.64-.74-.137-.502.275-1.42 1.045-1.864 1.76-1.006 1.98-.326 1.403.207z" fill="#595951"/><path d="M25.675 14.363s.09.95 0 1.307c-.09.386-.447.594-.864.445-.267-.12-.297-.534-.356-1.277a152.22 152.22 0 0 1-.208-4.425c-.03-.594 1.042-1.188 1.1-.654.09.564.33 4.603.33 4.603z" fill="#595951"/><path d="M29.304 14.48s-2.434-.96-7.08-.274C17.576 14.89 16.22 17.41 16 18.59c-.747 4.217.387 9.64-4.204 10.71-1.632.383-.387 1.013.968.767 4.343-.795 3.68-6.11 4.37-11.177.11-.794.913-2.575 3.07-3.397 1.632-.63 3.043-1.095 6.25-.93 1.66.08 2.96.766 3.514.52.58-.275-.664-.603-.664-.603z" fill="#595951"/><path d="M32.99 5.147c-4.23.08-9.326 3.475-14.767 3.502-2.33 0-4.49-.69-4.346-1.38.173-.69 2.303-.93 4.203-.797 2.274.16 3.166.61 4.346.664 1.008.053 1.152-.398.518-.45-1.237-.107-3.57-.956-6.13-.983-2.592-.026-4.175.584-4.32 1.67-.114.877 1.642 2.15 5.528 2.176 5.095.053 10.737-3.527 14.97-3.554 2.13-.027 4.23.37 4.057 1.3-.173.955-1.872 1.193-3.8 1.22-2.246.026-3.656-.85-4.98-.822-1.123.026-.864.424-.634.424 1.584.027 3.8 1.22 6.39 1.194 2.735-.027 4.088-.902 4.175-2.07.087-1.14-1.496-2.174-5.21-2.095z" fill="#E5AC23"/><path d="M43.825 2.648h-.706c-.256 0-.34-.114-.34-.37v-.856c0-.313.084-.37.395-.37h5.344c3.335 0 5.202.883 5.202 3.535 0 2.08-1.245 3.022-2.49 3.222v.027c1.952.228 3.31 1.483 3.31 3.678 0 3.564-2.63 4.077-5.853 4.077h-5.543c-.255 0-.368-.057-.368-.37v-.8c0-.312.112-.398.34-.398 1.1 0 1.328-.142 1.328-.94V3.446c0-.542-.17-.742-.623-.8zm2.856 4.39h2.15c1.78 0 2.545-.712 2.545-2.337 0-1.738-1.103-2.08-2.573-2.08H46.71c-.03 1.482-.03 2.965-.03 4.42zm0 7.015h2.263c1.5 0 3.195-.314 3.195-2.51 0-2.11-1.272-2.822-3.364-2.822H46.71c-.03 1.77-.03 3.537-.03 5.333zm13.317 0h.48c.312 0 .37.085.37.313v.884c0 .285-.114.37-.37.37h-4.834c-.283 0-.367-.085-.367-.37v-.884c0-.228.028-.313.367-.313h.48c.65 0 .877-.114.877-.856V7.324c0-.513-.14-.713-.564-.713-.226 0-.453 0-.68-.027-.31-.03-.366-.17-.366-.428v-.74c0-.315.085-.372.367-.372l2.913-.17c.367 0 .452.17.452.57v7.783c0 .713.198.827.876.827zM58.048.68c.706 0 1.328.57 1.328 1.455 0 .912-.706 1.483-1.498 1.483-.707 0-1.272-.514-1.272-1.37 0-.94.622-1.567 1.442-1.567zm7.916 19.96c-2.205 0-4.24-.8-4.24-3.194 0-.8.62-1.37 1.272-1.37.65 0 1.215.514 1.215 1.284 0 .456-.225.855-.508 1.055.51.37 1.33.57 2.206.57 1.922 0 3.167-1.083 3.167-4.134v-1.196c-.707 1.283-1.697 2.166-3.59 2.166-2.546 0-4.016-1.625-4.016-4.846 0-3.194 1.526-6.3 4.918-6.3 1.188 0 2.093.37 2.687 1.14v-.4c0-.4.113-.57.452-.57l2.8.17c.282.03.367.086.367.37v.857c0 .23-.113.286-.368.37h-.565c-.452.087-.565.23-.593.714v7.3c0 4.22-2.064 6.015-5.203 6.015zm3.082-11.064c0-2.566-.99-3.335-2.262-3.335-2.12 0-3.138 2.14-3.138 4.562 0 1.968.678 3.308 2.318 3.308 1.838 0 3.082-1.625 3.082-4.534zm19.736 6.187h-.566c-.226 0-.424-.028-.565-.256-2.63-3.564-5.23-7.157-7.86-10.72v8.496c0 .656.227.77.877.77h.424c.312 0 .37.028.37.313v.884c0 .314-.086.37-.37.37h-4.38c-.284 0-.37-.056-.37-.37v-.855c0-.257.058-.314.37-.314h.423c.65 0 .905-.14.905-.77V3.334c-.03-.57-.283-.713-.82-.713h-.453c-.31 0-.367-.057-.367-.285v-.913c0-.285.084-.342.367-.342h2.63c.31 0 .51.114.65.314 2.488 3.478 4.948 6.956 7.436 10.463v-8.44c0-.655-.225-.77-.875-.77h-.424c-.31 0-.367-.027-.367-.312V1.48c0-.314.085-.37.368-.37h4.383c.283 0 .368.056.368.37v.855c0 .256-.056.313-.367.313h-.396c-.65 0-.904.143-.904.77v12.06c-.057.2-.142.285-.48.285zm11.621-7.613c0 2.025-1.273 3.394-4.213 3.394-.905 0-1.81-.114-2.63-.37.198 2.08 1.16 2.936 3.167 2.936 1.16 0 2.177-.285 2.686-.485.452-.17.68-.314.848-.314.143 0 .17.087.17.23v.94c0 .228-.056.37-.395.542-.65.342-2.064.684-3.478.684-3.704 0-5.23-2.195-5.23-5.445 0-3.392 1.64-5.673 4.863-5.673 2.714.057 4.213 1.34 4.213 3.564zm-6.87 1.54c.847.23 1.752.37 2.487.37 1.583 0 2.403-.655 2.403-1.966 0-1.312-.79-1.882-2.29-1.882-1.61-.028-2.46 1.255-2.6 3.48zm8.537-3.107c-.254 0-.338-.114-.338-.37v-.828c0-.285.084-.37.367-.37l2.883-.17c.368 0 .452.17.452.57v2.11c.283-1 1.188-2.88 3.365-2.88 1.47 0 2.064.797 2.064 1.966a1.31 1.31 0 0 1-1.3 1.34c-.65 0-1.188-.483-1.188-1.253 0-.17.028-.314.085-.456-1.922.058-2.996 2.91-2.996 5.047v1.94c0 .74.226.854.876.854h.877c.31 0 .367.087.367.315v.912c0 .257-.084.342-.367.342h-5.23c-.284 0-.37-.086-.37-.37v-.885c0-.228.058-.314.37-.314h.45c.652 0 .906-.17.906-.854V7.353c0-.656-.14-.77-1.272-.77zm16.71-1.055V2.734c0-.542-.17-.713-.593-.74h-.678c-.312-.03-.34-.173-.34-.43v-.74c0-.343.056-.37.34-.4l2.91-.17c.37 0 .482.17.482.57v12.402c0 .6.198.884.593.884.368 0 .453-.086.68-.114.17-.03.225 0 .225.2v.912c0 .17-.028.342-.254.427-.34.114-.65.17-1.386.17-.82 0-1.724-.284-1.95-1.48-.85 1.196-2.093 1.652-3.45 1.652-2.347 0-4.015-1.482-4.015-5.103 0-3.82 1.753-6.073 4.778-6.073 1.188 0 1.95.343 2.658.828zm0 4.847V7.153c-.45-.428-1.328-.77-2.26-.77-2.122 0-2.97 1.94-2.97 4.248 0 2.026.68 3.565 2.375 3.565 1.725 0 2.63-1.31 2.856-3.82zM56.577 29.677v3.393c0 .826.226.94.848.94h.453c.34 0 .367.058.367.314v.884c0 .257-.084.37-.367.37h-4.835c-.283 0-.368-.085-.368-.37v-.884c0-.228.057-.313.368-.313h.452c.65 0 .85-.17.85-.94v-9.637c0-.57-.17-.798-.623-.855h-.707c-.255 0-.34-.115-.34-.37v-.856c0-.314.085-.37.396-.37h4.723c3.817 0 5.683 1.14 5.683 4.276 0 2.223-1.13 3.563-2.884 4.105.905.57 1.47 1.71 2.375 3.992.226.57.48.713.85.713.225 0 .507-.057.79-.172.226-.114.31-.028.31.172v.855c0 .285-.084.37-.366.513-.34.17-.904.314-1.498.314-.763 0-1.555-.114-2.205-1.625-.65-1.57-1.386-4.505-3.365-4.505-.31.057-.594.057-.905.057zm1.47-1.51c2.065 0 3.026-.914 3.026-2.852 0-1.968-1.103-2.737-3.167-2.737h-1.33v5.588h1.472zm12.413-3.565c2.743 0 4.24.827 4.24 4.02v4.533c0 .6.2.884.595.884.368 0 .452-.087.68-.115.168-.03.253 0 .253.2v.912c0 .17-.057.342-.283.428-.31.114-.622.17-1.385.17-.792 0-1.668-.256-1.923-1.34-.678.8-1.838 1.37-3.478 1.37-2.206 0-3.31-.97-3.31-2.91 0-2.765 2.29-3.534 5.854-3.534h.848v-.655c0-1.768-.593-2.367-2.15-2.367-.62 0-1.243.114-1.723.314.112.17.197.428.197.713 0 .798-.622 1.34-1.33 1.34-.65 0-1.187-.485-1.187-1.255.057-1.967 1.5-2.708 4.1-2.708zm-.792 9.523c1.697 0 2.94-1.084 2.94-2.994v-.455h-.847c-2.403 0-3.76.513-3.76 2.024 0 .883.424 1.425 1.668 1.425zm8.03-7.585c-.254 0-.34-.113-.34-.37v-.827c0-.285.086-.37.37-.37l2.798-.172c.367 0 .452.172.452.572v1.368c.566-1.482 1.95-2.138 3.563-2.138 1.867 0 3.252.998 3.252 3.535v5.047c0 .598.198.884.594.884.368 0 .48-.086.707-.115.17-.028.226 0 .226.2v.912c0 .17-.057.343-.284.428-.31.114-.622.17-1.385.17-.904 0-1.978-.37-1.978-2.052v-5.16c0-1.197-.51-2.052-1.866-2.052-1.81 0-2.743 1.597-2.743 4.334v2.423c0 .74.226.856.876.856h.48c.31 0 .368.086.368.314v.884c0 .285-.113.37-.368.37h-4.835c-.283 0-.367-.085-.367-.37v-.884c0-.228.028-.313.367-.313h.48c.65 0 .877-.114.877-.855V27.14c0-.485-.198-.6-1.244-.6zm18.152 7.413c1.527 0 2.517-.456 3.026-.655.452-.17.565-.17.565.228v.94c0 .286-.055.37-.28.485-.426.23-1.754.743-3.65.743-3.844 0-5.54-2.053-5.54-5.39 0-3.648 2.12-5.73 5.4-5.73 2.884 0 3.902 1.568 3.902 2.823 0 .827-.51 1.425-1.358 1.425-.79 0-1.385-.54-1.385-1.367 0-.4.14-.74.367-.998-.396-.143-.905-.228-1.527-.228-2.347 0-3.167 1.796-3.167 3.934.057 2.425 1.074 3.793 3.647 3.793zm8.51-3.421v2.794c.03.6.256.713.878.713h.48c.31 0 .368.085.368.313v.883c0 .286-.085.37-.368.37h-4.835c-.31 0-.367-.084-.367-.37v-.883c0-.228.056-.314.367-.314h.48c.566 0 .85-.115.877-.714V22.663c0-.513-.17-.713-.593-.713-.226 0-.453 0-.68-.028-.31-.03-.338-.17-.338-.428v-.74c0-.315.055-.372.338-.372l2.912-.17c.368 0 .48.17.48.57v5.673c.623-1.254 1.924-1.825 3.45-1.825 1.895 0 3.28.998 3.28 3.536v5.046c0 .6.198.884.594.884.368 0 .453-.085.68-.114.168-.03.225 0 .225.2v.912c0 .17-.03.342-.256.428-.34.114-.65.17-1.385.17-.906 0-1.98-.37-1.98-2.052v-5.16c0-1.198-.51-2.053-1.866-2.053-1.81-.03-2.715 1.482-2.743 4.105z" fill="#595951"/></g></svg>