<?xml version="1.0" encoding="UTF-8"?>
<svg width="2350px" height="500px" viewBox="0 0 2350 500" version="1.1" xmlns="http://www.w3.org/2000/svg" xmlns:xlink="http://www.w3.org/1999/xlink">
    <!-- Generator: Sketch 49.3 (51167) - http://www.bohemiancoding.com/sketch -->
    <title>rw-logo-black-text</title>
    <desc>Created with Sketch.</desc>
    <defs></defs>
    <g id="Page-1" stroke="none" stroke-width="1" fill="none" fill-rule="evenodd">
        <g id="rw-logo-black-text" fill-rule="nonzero">
            <path d="M0,500 L500,500 L500,75.59 L326.92,375.52 L258.15,253.42 L179.92,377.9 C179.92,377.9 127.76,253.42 111.75,215.49 C131.31,201.26 221.41,149.1 221.41,80.34 C221.41,11.58 67.57,0 0,0 L0,500 Z" id="Shape" fill="#158443"></path>
            <path d="M623.08,207.88 L659.89,206.46 L661.49,218.73 C662.436667,217.663333 663.74,216.36 665.4,214.82 C668.204018,212.476516 671.216576,210.394504 674.4,208.6 C678.726667,205.993333 682.67,204.69 686.23,204.69 C689.006305,204.683264 691.776464,204.951236 694.5,205.49 C696.554538,205.837783 698.565981,206.404339 700.5,207.18 L702.28,207.89 L700.86,241.68 L685.33,241.68 L682.66,226.56 C679.361574,226.615327 676.125767,227.469745 673.23,229.05 C670.564862,230.344845 668.107817,232.030061 665.94,234.05 L663.45,236.54 L663.45,283.85 L680.35,288.3 L680.35,302.53 L623.08,302.53 L623.08,288.27 L637.31,283.82 L637.31,225.66 L623.08,222.1 L623.08,207.88 Z" id="Shape" fill="#333333"></path>
            <path d="M805.38,301.25 L770.17,302.5 L767,290.93 C765.933333,291.883333 764.51,293.1 762.73,294.58 C760.95,296.06 757.54,298.06 752.5,300.58 C748.078043,302.910647 743.177054,304.187231 738.18,304.31 C729.513333,304.31 722.753333,301.88 717.9,297.02 C713.046667,292.16 710.616667,285.283333 710.61,276.39 C710.61,256.823333 724.836667,247.04 753.29,247.04 L765.74,247.04 L765.74,237.26 C765.74,228.366667 761.176667,223.92 752.05,223.92 C749.36745,223.916568 746.690017,224.154191 744.05,224.63 C742.059515,224.950619 740.096945,225.42538 738.18,226.05 L736.4,226.58 L733.73,238.14 L717.73,238.14 L716.48,211.82 C730.826667,207.06 743.666667,204.68 755,204.68 C768.513333,204.68 778.056667,207.32 783.63,212.6 C789.203333,217.88 791.99,226.98 791.99,239.9 L791.99,283.83 L805.33,287.03 L805.38,301.25 Z M736.2,273.68 C736.2,280.793333 739.696667,284.35 746.69,284.35 C749.859968,284.265322 752.956608,283.377618 755.69,281.77 C758.383252,280.373475 760.867426,278.606278 763.07,276.52 L765.74,274.03 L765.74,262.12 L755.58,262.12 C748.7,262.12 743.75,263.04 740.73,264.88 C737.71,266.72 736.196667,269.653333 736.19,273.68 L736.2,273.68 Z" id="Shape" fill="#333333"></path>
            <path d="M852.15,302.67 L820.49,224.42 L811.06,221.58 L811.06,207.34 L858.55,206.45 L858.55,221.57 L848.55,223.35 L864.38,273.15 L879.5,223.89 L869.19,221.58 L869.19,207.34 L917.03,206.45 L917.03,221.57 L906.03,223.88 L879.9,296.8 C877.293333,303.793333 874.833333,309.693333 872.52,314.5 C869.932797,319.751201 866.866459,324.752412 863.36,329.44 C859.804855,334.395187 855.109292,338.421915 849.67,341.18 C844.020996,343.918332 837.806776,345.288612 831.53,345.18 L814.28,343.76 L816.77,324.76 L828.33,324.76 C831.520311,324.792146 834.668395,324.029183 837.49,322.54 C840.334877,321.001936 842.772215,318.807989 844.6,316.14 C846.184484,313.94284 847.64026,311.655669 848.96,309.29 C849.9,307.483333 850.963333,305.276667 852.15,302.67 Z" id="Shape" fill="#333333"></path>
            <polygon id="Shape" fill="#333333" points="1008.48 205.57 1027.87 273.69 1038.36 224.25 1027.51 221.58 1027.51 207.34 1073.04 206.45 1073.04 221.57 1063.61 223.7 1040 302.49 1012.79 302.49 998.7 257.14 995.5 243.27 991 262.66 978 302.5 951 302.5 926.81 224.07 919 221.57 919 207.34 965.6 206.45 965.6 221.57 954.39 223.7 966.13 273.7 985 209.48"></polygon>
            <path d="M1167.3,259.81 L1108.3,260.34 C1108.77333,267.673333 1110.93667,273.363333 1114.79,277.41 C1118.66187,281.430259 1124.0621,283.612168 1129.64,283.41 C1134.3748,283.368265 1139.08291,282.695678 1143.64,281.41 C1147.62552,280.413625 1151.49893,279.013033 1155.2,277.23 L1159.47,275.1 L1167.12,289.33 C1165.78667,290.396667 1163.95,291.76 1161.61,293.42 C1159.27,295.08 1154.52667,297.303333 1147.38,300.09 C1140.76712,302.776948 1133.70752,304.194974 1126.57,304.27 C1111.51,304.27 1100.04,300.09 1092.16,291.73 C1084.28,283.37 1080.33667,271.543333 1080.33,256.25 C1080.33,240.483333 1084.54,227.946667 1092.96,218.64 C1101.38,209.333333 1113,204.666667 1127.82,204.64 C1140.86,204.64 1150.88,208.376667 1157.88,215.85 C1164.88,223.323333 1168.37667,233.52 1168.37,246.44 L1167.3,259.81 Z M1126,225.48 C1121.5129,225.323945 1117.18503,227.153136 1114.17,230.48 C1111.14333,233.813333 1109.27667,238.26 1108.57,243.82 L1140.57034,243.82 C1140.60333,231.6 1135.74667,225.486667 1126,225.48 Z" id="Shape" fill="#333333"></path>
            <path d="M1179.39,207.88 L1216.2,206.46 L1217.45,218.73 C1218.78333,217.663333 1220.50333,216.39 1222.61,214.91 C1226.38267,212.58994 1230.33926,210.583213 1234.44,208.91 C1240.19333,206.363333 1245.44,205.09 1250.18,205.09 C1258.72,205.09 1265.27,207.906667 1269.83,213.54 C1274.39,219.173333 1276.67333,226.91 1276.68,236.75 L1276.68,283.88 C1278.22,284.353333 1280.41333,285.123333 1283.26,286.19 C1286.10667,287.256667 1288.06333,287.966667 1289.13,288.32 L1289.13,302.55 L1241.13,302.55 L1241.13,288.27 L1250.56,283.82 L1250.56,240.82 C1250.71124,237.127737 1249.54517,233.501921 1247.27,230.59 C1245.12841,227.947647 1241.86898,226.466092 1238.47,226.59 C1235.07332,226.613181 1231.7385,227.501088 1228.78,229.17 C1226.19772,230.486539 1223.83612,232.197015 1221.78,234.24 L1219.47,236.73 L1219.47,283.86 L1228.72,288.31 L1228.72,302.54 L1179.46,302.54 L1179.46,288.27 L1193.15,283.82 L1193.15,225.66 L1179.46,222.1 L1179.39,207.88 Z" id="Shape" fill="#333333"></path>
            <path d="M1401.17,301.25 L1363.82,302.5 L1362.22,293.07 C1355.19679,300.351332 1345.47559,304.404848 1335.36,304.27 C1323.14667,304.27 1314.01667,300.12 1307.97,291.82 C1301.92333,283.52 1298.9,271.853333 1298.9,256.82 C1298.9,239.986667 1303.14,227.093333 1311.62,218.14 C1320.1,209.186667 1332.64,204.71 1349.24,204.71 C1353.16139,204.712542 1357.05949,205.312768 1360.8,206.49 L1360.8,183.87 L1346.57,180.31 L1346.57,166.08 L1386.94,164.66 L1386.94,283.46 L1401.17,287.02 L1401.17,301.25 Z M1360.8,273.33 L1360.8,227.8 C1357.83333,226.02 1353.21,225.13 1346.93,225.13 C1333.29,225.13 1326.47333,235.206667 1326.48,255.36 C1326.48,274.093333 1332.17,283.46 1343.55,283.46 C1346.84063,283.469908 1350.07102,282.577573 1352.89,280.88 C1355.2558,279.618626 1357.34385,277.89446 1359.03,275.81 L1360.8,273.33 Z" id="Shape" fill="#333333"></path>
            <path d="M1497.56,259.81 L1438.56,260.34 C1439.03333,267.673333 1441.19667,273.363333 1445.05,277.41 C1448.92187,281.430259 1454.3221,283.612168 1459.9,283.41 C1464.6348,283.368265 1469.34291,282.695678 1473.9,281.41 C1477.88552,280.413625 1481.75893,279.013033 1485.46,277.23 L1489.73,275.1 L1497.38,289.33 C1496.04667,290.396667 1494.21,291.76 1491.87,293.42 C1489.53,295.08 1484.78667,297.303333 1477.64,300.09 C1471.02712,302.776948 1463.96752,304.194974 1456.83,304.27 C1441.77,304.27 1430.3,300.09 1422.42,291.73 C1414.54,283.37 1410.59667,271.543333 1410.59,256.25 C1410.59,240.483333 1414.8,227.946667 1423.22,218.64 C1431.64,209.333333 1443.26,204.666667 1458.08,204.64 C1471.12,204.64 1481.14,208.376667 1488.14,215.85 C1495.14,223.323333 1498.63667,233.52 1498.63,246.44 L1497.56,259.81 Z M1456.3,225.48 C1451.8129,225.323945 1447.48503,227.153136 1444.47,230.48 C1441.44333,233.813333 1439.57667,238.26 1438.87,243.82 L1470.87002,243.82 C1470.87667,231.6 1466.02,225.486667 1456.3,225.48 Z" id="Shape" fill="#333333"></path>
            <path d="M1509.65,207.88 L1546.46,206.46 L1548.06,218.73 C1549.00667,217.663333 1550.31,216.36 1551.97,214.82 C1554.77402,212.476516 1557.78658,210.394504 1560.97,208.6 C1565.29667,205.993333 1569.24,204.69 1572.8,204.69 C1575.5763,204.683264 1578.34646,204.951236 1581.07,205.49 C1583.12454,205.837783 1585.13598,206.404339 1587.07,207.18 L1588.85,207.89 L1587.43,241.68 L1571.9,241.68 L1569.23,226.56 C1565.93157,226.615327 1562.69577,227.469745 1559.8,229.05 C1557.13486,230.344845 1554.67782,232.030061 1552.51,234.05 L1550.02,236.54 L1550.02,283.85 L1566.92,288.3 L1566.92,302.53 L1509.65,302.53 L1509.65,288.27 L1523.88,283.82 L1523.88,225.66 L1509.65,222.1 L1509.65,207.88 Z" id="Shape" fill="#333333"></path>
            <polygon id="Shape" fill="#333333" points="1595 166.08 1636.08 164.66 1636.08 283.82 1652.98 288.27 1652.98 302.5 1594.98 302.5 1594.98 288.27 1609.21 283.82 1609.21 183.82 1595 180.31"></polygon>
            <path d="M1660.46,207.88 L1700.83,206.46 L1700.83,283.82 L1713.28,288.27 L1713.28,302.5 L1660.46,302.5 L1660.46,288.27 L1674.69,283.82 L1674.69,225.66 L1660.46,222.1 L1660.46,207.88 Z M1671.31,177.11 C1671.31,172.25 1672.82333,168.366667 1675.85,165.46 C1678.70604,162.6213 1682.5835,161.050136 1686.61,161.1 C1696.57,161.1 1701.55,166.433333 1701.55,177.1 C1701.55,182.08 1700.03667,186.023333 1697.01,188.93 C1694.26781,191.718476 1690.52091,193.289289 1686.61,193.29 C1681.75,193.29 1677.98667,191.896667 1675.32,189.11 C1672.65333,186.323333 1671.31667,182.323333 1671.31,177.11 Z" id="Shape" fill="#333333"></path>
            <path d="M1798.83,274 L1807.72,289.12 C1796.22,299.2 1783.47333,304.24 1769.48,304.24 C1754.89333,304.24 1743.54,299.973333 1735.42,291.44 C1727.3,282.906667 1723.24,271.05 1723.24,255.87 C1723.24,239.983333 1727.53667,227.473333 1736.13,218.34 C1744.72333,209.206667 1756.72333,204.643333 1772.13,204.65 C1777.02685,204.69061 1781.90877,205.196214 1786.71,206.16 C1790.87808,206.904051 1794.98582,207.953546 1799,209.3 L1803.27,210.9 L1802.38,239.9 L1786.38,239.9 L1783.89,227.09 C1779.88111,226.074427 1775.75488,225.596902 1771.62,225.67 C1764.95333,225.67 1759.82667,227.893333 1756.24,232.34 C1752.65333,236.786667 1750.84667,243.453333 1750.82,252.34 C1750.82,262.42 1752.68667,270.126667 1756.42,275.46 C1760.15333,280.793333 1765.69667,283.46 1773.05,283.46 C1775.31804,283.47154 1777.58189,283.263909 1779.81,282.84 C1781.92913,282.432979 1784.00263,281.816625 1786,281 C1788,280.173333 1789.57,279.463333 1790.71,278.87 C1791.85,278.276667 1793.39,277.386667 1795.33,276.2 C1797.30333,275 1798.47,274.266667 1798.83,274 Z" id="Shape" fill="#333333"></path>
            <path d="M1813.94,166.08 L1854.31,164.66 L1854.31,216.77 C1864.03,208.71 1873.99,204.68 1884.19,204.68 C1893.08333,204.68 1899.9,207.496667 1904.64,213.13 C1909.38,218.763333 1911.75,226.62 1911.75,236.7 L1911.75,283.83 L1924.2,288.28 L1924.2,302.51 L1876.2,302.51 L1876.2,288.27 L1885.45,284 L1885.45,240.78 C1885.45,231.293333 1881.53667,226.55 1873.71,226.55 C1870.48142,226.615738 1867.31326,227.437748 1864.46,228.95 C1861.78846,230.211711 1859.28008,231.793297 1856.99,233.66 L1854.32,235.97 L1854.32,283.81 L1863.75,288.26 L1863.75,302.49 L1813.95,302.49 L1813.95,288.27 L1828.18,283.82 L1828.18,183.82 L1813.95,180.26 L1813.94,166.08 Z" id="Shape" fill="#333333"></path>
            <path d="M1939.68,288.62 C1939.68,283.76 1941.19333,279.876667 1944.22,276.97 C1947.07604,274.1313 1950.9535,272.560136 1954.98,272.61 C1959.84,272.61 1963.54667,274.003333 1966.1,276.79 C1968.65333,279.576667 1969.92667,283.52 1969.92,288.62 C1969.92,293.6 1968.43667,297.543333 1965.47,300.45 C1962.59657,303.318088 1958.67904,304.892321 1954.62,304.81 C1949.76,304.81 1946.05333,303.416667 1943.5,300.63 C1940.94667,297.843333 1939.67333,293.84 1939.68,288.62 Z" id="Shape" fill="#333333"></path>
            <path d="M2062.4,274 L2071.29,289.12 C2059.79,299.2 2047.04333,304.24 2033.05,304.24 C2018.46333,304.24 2007.11,299.973333 1998.99,291.44 C1990.87,282.906667 1986.81,271.05 1986.81,255.87 C1986.81,239.983333 1991.10667,227.473333 1999.7,218.34 C2008.29333,209.206667 2020.29333,204.643333 2035.7,204.65 C2040.59685,204.69061 2045.47877,205.196214 2050.28,206.16 C2054.44055,206.895197 2058.54156,207.934654 2062.55,209.27 L2066.82,210.87 L2065.93,239.87 L2049.93,239.87 L2047.44,227.06 C2043.43111,226.044427 2039.30488,225.566902 2035.17,225.64 C2028.50333,225.64 2023.37667,227.863333 2019.79,232.31 C2016.20333,236.756667 2014.39667,243.423333 2014.37,252.31 C2014.37,262.39 2016.23667,270.096667 2019.97,275.43 C2023.70333,280.763333 2029.24667,283.43 2036.6,283.43 C2038.86804,283.44154 2041.13189,283.233909 2043.36,282.81 C2045.4904,282.39521 2047.57406,281.76877 2049.58,280.94 C2051.58,280.113333 2053.15,279.403333 2054.29,278.81 C2055.43,278.216667 2056.97,277.326667 2058.91,276.14 C2060.87667,274.98 2062.04,274.266667 2062.4,274 Z" id="Shape" fill="#333333"></path>
            <path d="M2127.31,204.68 C2141.65667,204.68 2152.71333,208.86 2160.48,217.22 C2168.24667,225.58 2172.13,237.406667 2172.13,252.7 C2172.13,268.586667 2167.83333,281.153333 2159.24,290.4 C2150.64667,299.646667 2139.11667,304.27 2124.65,304.27 C2094.41667,304.27 2079.3,287.966667 2079.3,255.36 C2079.3,239.473333 2083.63333,227.053333 2092.3,218.1 C2100.96667,209.146667 2112.63667,204.673333 2127.31,204.68 Z M2126.42,225.13 C2119.66,225.13 2114.71,227.323333 2111.57,231.71 C2108.43,236.096667 2106.86,243.683333 2106.86,254.47 C2106.86,264.67 2108.34333,272.11 2111.31,276.79 C2114.27667,281.47 2119.02,283.803333 2125.54,283.79 C2132.06,283.79 2136.86333,281.476667 2139.95,276.85 C2143.03667,272.223333 2144.57667,264.456667 2144.57,253.55 C2144.57,243.943333 2143.11667,236.8 2140.21,232.12 C2137.30333,227.44 2132.70667,225.11 2126.42,225.13 Z" id="Shape" fill="#333333"></path>
            <path d="M2337,236.69 L2337,283.82 L2349.09,288.27 L2349.09,302.5 L2301.43,302.5 L2301.43,288.27 L2310.86,283.82 L2310.86,242 C2310.86,237.02 2310.06,233.353333 2308.46,231 C2306.86,228.646667 2304.22333,227.46 2300.55,227.44 C2297.08633,227.456487 2293.66998,228.245664 2290.55,229.75 C2287.91198,230.883031 2285.47923,232.444044 2283.35,234.37 L2280.86,236.68 L2280.86,283.81 L2290.11,288.26 L2290.11,302.49 L2245.29,302.49 L2245.29,288.27 L2254.54,283.82 L2254.54,242 C2254.54,236.9 2253.77,233.193333 2252.23,230.88 C2250.69,228.566667 2248.08,227.41 2244.4,227.41 C2240.89127,227.425057 2237.42903,228.21379 2234.26,229.72 C2231.55152,230.874968 2229.03309,232.432548 2226.79,234.34 L2224.48,236.65 L2224.48,283.78 L2233.91,288.23 L2233.91,302.46 L2184.65,302.46 L2184.65,288.27 L2198.34,283.82 L2198.34,225.48 L2184.82,222.1 L2184.82,207.88 L2221.46,206.46 L2222.71,219.09 C2223.89667,218.023333 2225.49667,216.69 2227.51,215.09 C2229.52333,213.49 2233.26,211.356667 2238.72,208.69 C2244.17333,206.023333 2249.21333,204.69 2253.84,204.69 C2265.58,204.69 2273.64333,209.786667 2278.03,219.98 C2280.0005,218.030425 2282.07699,216.190968 2284.25,214.47 C2287.72553,211.938719 2291.48422,209.821102 2295.45,208.16 C2300.06437,205.958637 2305.09814,204.775223 2310.21,204.69 C2319.10333,204.69 2325.80333,207.476667 2330.31,213.05 C2334.81667,218.623333 2337.04667,226.503333 2337,236.69 Z" id="Shape" fill="#333333"></path>
        </g>
    </g>
</svg>