<?xml version="1.0" encoding="UTF-8" standalone="no"?>
<svg xmlns="http://www.w3.org/2000/svg" height="64px" width="266px" version="1.1" xmlns:xlink="http://www.w3.org/1999/xlink" viewBox="0 0 266 64"><!-- Generator: Sketch 3.8.3 (29802) - http://www.bohemiancoding.com/sketch -->
 <title>Group 3</title>
 <desc>Created with Sketch.</desc>
 <g id="Page-1" fill-rule="evenodd" fill="none">
  <g id="headers-copy" transform="translate(-131 -10)">
   <g id="header">
    <g id="logo" transform="translate(131 10)">
     <g id="Group-3">
      <path id="raywenderlich.com" fill="#fff" d="m80.665 23.892l3.933-0.152 0.171 1.311c0.101-0.114 0.241-0.253 0.418-0.418s0.497-0.386 0.959-0.665c0.463-0.279 0.884-0.418 1.264-0.418 0.304 0 0.598 0.028 0.884 0.086 0.285 0.057 0.497 0.117 0.636 0.18l0.19 0.076-0.152 3.61h-1.653l-0.285-1.615c-0.329 0-0.665 0.089-1.007 0.266s-0.602 0.355-0.779 0.532l-0.266 0.266v5.054l1.805 0.475v1.52h-6.118v-1.52l1.52-0.475v-6.213l-1.52-0.38v-1.52zm19.475 9.975l-3.762 0.133-0.342-1.235c-0.114 0.101-0.266 0.231-0.456 0.389-0.19 0.159-0.554 0.371-1.092 0.637-0.539 0.266-1.049 0.399-1.53 0.399-0.925 0-1.647-0.26-2.166-0.779s-0.779-1.254-0.779-2.204c0-2.09 1.52-3.135 4.56-3.135h1.33v-1.045c0-0.95-0.488-1.425-1.463-1.425-0.291 0-0.576 0.025-0.855 0.076s-0.488 0.101-0.627 0.152l-0.19 0.057-0.285 1.235h-1.71l-0.133-2.812c1.533-0.507 2.907-0.76 4.123-0.76 1.444 0 2.464 0.282 3.059 0.846 0.595 0.563 0.893 1.535 0.893 2.916v4.693l1.425 0.342v1.52zm-7.391-2.945c0 0.76 0.374 1.14 1.121 1.14 0.304 0 0.624-0.092 0.96-0.276 0.335-0.183 0.598-0.37 0.788-0.56l0.285-0.266v-1.273h-1.083c-0.735 0-1.263 0.098-1.586 0.295-0.324 0.196-0.485 0.509-0.485 0.94zm12.391 3.097l-3.38-8.36-1.01-0.304v-1.52l5.07-0.095v1.615l-1.06 0.19 1.69 5.32 1.61-5.263-1.1-0.247v-1.52l5.11-0.095v1.615l-1.18 0.247-2.79 7.79c-0.28 0.747-0.54 1.377-0.79 1.89-0.24 0.514-0.57 1.045-0.98 1.596-0.4 0.552-0.89 0.969-1.46 1.254-0.57 0.286-1.21 0.428-1.94 0.428l-1.84-0.152 0.27-2.033h1.23c0.36 0 0.68-0.079 0.98-0.237 0.3-0.159 0.55-0.387 0.76-0.684 0.21-0.298 0.36-0.542 0.47-0.732 0.1-0.19 0.21-0.424 0.34-0.703zm16.7-10.374l2.07 7.277 1.12-5.282-1.16-0.285v-1.52l4.87-0.095v1.615l-1.01 0.228-2.53 8.417h-2.91l-1.5-4.845-0.34-1.482-0.47 2.071-1.39 4.256h-2.89l-2.58-8.379-0.84-0.266v-1.52l4.98-0.095v1.615l-1.2 0.228 1.26 5.339 2.01-6.859 2.51-0.418zm16.96 5.795l-6.3 0.057c0.05 0.785 0.28 1.393 0.69 1.824s0.94 0.646 1.59 0.646c0.47 0 0.97-0.073 1.5-0.219 0.53-0.145 0.94-0.294 1.23-0.446l0.46-0.228 0.82 1.52c-0.14 0.114-0.34 0.26-0.59 0.437-0.26 0.177-0.76 0.415-1.52 0.713-0.76 0.297-1.5 0.446-2.23 0.446-1.6 0-2.83-0.446-3.67-1.34-0.84-0.893-1.27-2.156-1.27-3.79 0-1.685 0.45-3.024 1.35-4.018 0.9-0.995 2.14-1.492 3.73-1.492 1.39 0 2.46 0.399 3.21 1.197s1.12 1.887 1.12 3.268l-0.12 1.425zm-4.4-3.667c-0.52 0-0.94 0.177-1.27 0.532-0.32 0.355-0.52 0.83-0.59 1.425h3.42c0-1.305-0.52-1.957-1.56-1.957zm5.7-1.881l3.93-0.152 0.13 1.311c0.14-0.114 0.33-0.25 0.55-0.409 0.23-0.158 0.65-0.373 1.27-0.646 0.61-0.272 1.17-0.408 1.68-0.408 0.91 0 1.61 0.301 2.1 0.902 0.49 0.602 0.73 1.429 0.73 2.48v5.035c0.16 0.051 0.4 0.133 0.7 0.247 0.31 0.114 0.52 0.19 0.63 0.228v1.52h-5.13v-1.52l1.01-0.475v-4.598c0-0.443-0.12-0.807-0.35-1.093-0.24-0.285-0.55-0.427-0.95-0.427-0.35 0-0.69 0.092-1.03 0.275-0.34 0.184-0.59 0.365-0.75 0.542l-0.25 0.266v5.035l0.99 0.475v1.52h-5.26v-1.52l1.46-0.475v-6.213l-1.46-0.38v-1.52zm23.69 9.975l-3.99 0.133-0.17-1.007c-0.8 0.798-1.76 1.197-2.87 1.197-1.3 0-2.28-0.443-2.93-1.33-0.64-0.887-0.97-2.134-0.97-3.743 0-1.799 0.46-3.176 1.36-4.133 0.91-0.956 2.25-1.434 4.02-1.434 0.42 0 0.83 0.063 1.24 0.19v-2.413l-1.52-0.38v-1.52l4.31-0.152v12.692l1.52 0.38v1.52zm-4.31-2.983v-4.864c-0.32-0.19-0.81-0.285-1.48-0.285-1.46 0-2.19 1.077-2.19 3.23 0 2.001 0.61 3.002 1.82 3.002 0.36 0 0.69-0.092 1-0.275 0.31-0.184 0.53-0.365 0.66-0.542l0.19-0.266zm14.61-1.444l-6.31 0.057c0.05 0.785 0.28 1.393 0.69 1.824 0.42 0.431 0.94 0.646 1.59 0.646 0.47 0 0.97-0.073 1.5-0.219 0.53-0.145 0.94-0.294 1.24-0.446l0.45-0.228 0.82 1.52c-0.14 0.114-0.34 0.26-0.59 0.437s-0.76 0.415-1.52 0.713c-0.76 0.297-1.5 0.446-2.22 0.446-1.61 0-2.84-0.446-3.68-1.34-0.84-0.893-1.26-2.156-1.26-3.79 0-1.685 0.45-3.024 1.35-4.018 0.9-0.995 2.14-1.492 3.72-1.492 1.39 0 2.46 0.399 3.21 1.197s1.12 1.887 1.12 3.268l-0.11 1.425zm-4.41-3.667c-0.52 0-0.94 0.177-1.26 0.532-0.33 0.355-0.53 0.83-0.6 1.425h3.42c0-1.305-0.52-1.957-1.56-1.957zm5.7-1.881l3.93-0.152 0.17 1.311c0.11-0.114 0.24-0.253 0.42-0.418s0.5-0.386 0.96-0.665 0.88-0.418 1.26-0.418c0.31 0 0.6 0.028 0.89 0.086 0.28 0.057 0.5 0.117 0.63 0.18l0.2 0.076-0.16 3.61h-1.65l-0.29-1.615c-0.32 0-0.66 0.089-1 0.266s-0.6 0.355-0.78 0.532l-0.27 0.266v5.054l1.81 0.475v1.52h-6.12v-1.52l1.52-0.475v-6.213l-1.52-0.38v-1.52zm9.12-4.465l4.39-0.152v12.73l1.8 0.475v1.52h-6.19v-1.52l1.52-0.475v-10.678l-1.52-0.38v-1.52zm6.99 4.465l4.31-0.152v8.265l1.34 0.475v1.52h-5.65v-1.52l1.52-0.475v-6.213l-1.52-0.38v-1.52zm1.16-3.287c0-0.519 0.16-0.934 0.49-1.245 0.32-0.31 0.7-0.465 1.14-0.465 1.07 0 1.6 0.57 1.6 1.71 0 0.532-0.16 0.953-0.48 1.263-0.33 0.311-0.7 0.466-1.12 0.466-0.51 0-0.92-0.149-1.2-0.446-0.29-0.298-0.43-0.726-0.43-1.283zm13.62 10.355l0.95 1.615c-1.22 1.077-2.59 1.615-4.08 1.615-1.56 0-2.77-0.456-3.64-1.368s-1.3-2.179-1.3-3.8c0-1.697 0.46-3.034 1.38-4.009 0.91-0.975 2.2-1.463 3.84-1.463 0.49 0 1 0.054 1.56 0.162 0.56 0.107 1 0.218 1.31 0.332l0.46 0.171-0.1 3.097h-1.71l-0.26-1.368c-0.37-0.101-0.81-0.152-1.31-0.152-0.71 0-1.26 0.237-1.65 0.712-0.38 0.476-0.58 1.188-0.58 2.138 0 1.077 0.2 1.9 0.6 2.47s0.99 0.855 1.78 0.855c0.25 0 0.49-0.022 0.72-0.067 0.23-0.044 0.45-0.11 0.67-0.199 0.21-0.089 0.38-0.165 0.5-0.228s0.28-0.158 0.49-0.285 0.34-0.203 0.37-0.228zm1.62-11.533l4.31-0.152v5.567c1.04-0.861 2.1-1.292 3.19-1.292 0.95 0 1.68 0.301 2.19 0.902 0.51 0.602 0.76 1.441 0.76 2.518v5.035l1.33 0.475v1.52h-5.13v-1.52l0.99-0.456v-4.617c0-1.013-0.42-1.52-1.26-1.52-0.31 0-0.64 0.085-0.99 0.257-0.34 0.171-0.6 0.338-0.79 0.503l-0.29 0.247v5.111l1.01 0.475v1.52h-5.32v-1.52l1.52-0.475v-10.678l-1.52-0.38v-1.52zm13.43 13.091c0-0.519 0.16-0.934 0.49-1.244 0.32-0.311 0.7-0.466 1.15-0.466 0.52 0 0.91 0.149 1.18 0.446 0.28 0.298 0.41 0.719 0.41 1.264 0 0.532-0.16 0.953-0.47 1.264-0.32 0.31-0.71 0.465-1.16 0.465-0.52 0-0.92-0.149-1.19-0.447-0.27-0.297-0.41-0.725-0.41-1.282zm13.11-1.558l0.95 1.615c-1.23 1.077-2.59 1.615-4.08 1.615-1.56 0-2.77-0.456-3.64-1.368s-1.3-2.179-1.3-3.8c0-1.697 0.46-3.034 1.37-4.009 0.92-0.975 2.21-1.463 3.85-1.463 0.48 0 1 0.054 1.56 0.162 0.56 0.107 0.99 0.218 1.31 0.332l0.46 0.171-0.1 3.097h-1.71l-0.26-1.368c-0.37-0.101-0.81-0.152-1.32-0.152-0.7 0-1.25 0.237-1.64 0.712-0.38 0.476-0.58 1.188-0.58 2.138 0 1.077 0.2 1.9 0.6 2.47s0.99 0.855 1.78 0.855c0.25 0 0.49-0.022 0.72-0.067 0.23-0.044 0.45-0.11 0.66-0.199 0.22-0.089 0.39-0.165 0.51-0.228s0.28-0.158 0.49-0.285 0.33-0.203 0.37-0.228zm6.94-7.41c1.53 0 2.71 0.446 3.54 1.34 0.83 0.893 1.25 2.156 1.25 3.79 0 1.697-0.46 3.04-1.38 4.028s-2.15 1.482-3.7 1.482c-3.23 0-4.84-1.742-4.84-5.225 0-1.697 0.46-3.024 1.38-3.981 0.93-0.956 2.18-1.434 3.75-1.434zm-0.1 2.185c-0.72 0-1.25 0.234-1.58 0.703-0.34 0.469-0.51 1.279-0.51 2.432 0 1.089 0.16 1.884 0.48 2.384 0.31 0.501 0.82 0.751 1.52 0.751 0.69 0 1.21-0.247 1.54-0.741s0.49-1.324 0.49-2.489c0-1.026-0.16-1.789-0.47-2.289-0.31-0.501-0.8-0.751-1.47-0.751zm22.5 1.235v5.035l1.29 0.475v1.52h-5.09v-1.52l1.01-0.475v-4.465c0-0.532-0.09-0.925-0.26-1.178s-0.45-0.38-0.85-0.38c-0.36 0-0.72 0.082-1.07 0.247s-0.61 0.329-0.77 0.494l-0.27 0.247v5.035l0.99 0.475v1.52h-4.79v-1.52l0.99-0.475v-4.465c0-0.545-0.08-0.94-0.25-1.188-0.16-0.247-0.44-0.37-0.83-0.37-0.37 0-0.73 0.082-1.08 0.247-0.36 0.165-0.62 0.329-0.8 0.494l-0.25 0.247v5.035l1.01 0.475v1.52h-5.27v-1.52l1.47-0.475v-6.232l-1.45-0.361v-1.52l3.92-0.152 0.13 1.349c0.13-0.114 0.3-0.256 0.51-0.427 0.22-0.172 0.62-0.399 1.2-0.684 0.58-0.286 1.12-0.428 1.62-0.428 1.25 0 2.11 0.545 2.58 1.634 0.19-0.19 0.41-0.386 0.66-0.589 0.26-0.203 0.66-0.427 1.2-0.675 0.55-0.247 1.07-0.37 1.58-0.37 0.95 0 1.66 0.298 2.15 0.893 0.48 0.595 0.72 1.438 0.72 2.527z"/>
      <path id="Page-1" fill="#006837" d="m0 64h64v-54.324l-22.154 38.391-8.802-15.629-10.014 15.933s-6.677-15.933-8.726-20.789c2.504-1.821 14.037-8.498 14.037-17.299 0-8.8011-19.692-10.283-28.341-10.283v64z"/>
     </g>
    </g>
   </g>
  </g>
 </g>
</svg>
