<?xml version="1.0" encoding="utf-8"?>
<!-- Generator: Adobe Illustrator 17.0.1, SVG Export Plug-In . SVG Version: 6.00 Build 0)  -->
<!DOCTYPE svg PUBLIC "-//W3C//DTD SVG 1.1//EN" "http://www.w3.org/Graphics/SVG/1.1/DTD/svg11.dtd">
<svg version="1.1"
	 id="svg2" xmlns:inkscape="http://www.inkscape.org/namespaces/inkscape" xmlns:rdf="http://www.w3.org/1999/02/22-rdf-syntax-ns#" xmlns:cc="http://creativecommons.org/ns#" xmlns:sodipodi="http://sodipodi.sourceforge.net/DTD/sodipodi-0.dtd" xmlns:dc="http://purl.org/dc/elements/1.1/" xmlns:svg="http://www.w3.org/2000/svg" inkscape:version="0.48.2 r9819" sodipodi:docname="РќРѕРІРёР№ РґРѕРєСѓРјРµРЅС‚ 1"
	 xmlns="http://www.w3.org/2000/svg" xmlns:xlink="http://www.w3.org/1999/xlink" x="0px" y="0px" width="241.911px" height="60px"
	 viewBox="251.092 496.181 241.911 60" enable-background="new 251.092 496.181 241.911 60" xml:space="preserve">
<g id="layer1" inkscape:label="Layer 1" inkscape:groupmode="layer">
	<g id="g4264" transform="translate(-985.90425,-3367.8867)">
		<g id="Layer_9">
		</g>
		<g id="Layer_10">
		</g>
		<g id="Layer_11">
		</g>
		<g id="Layer_11_copy">
		</g>
		<g id="Layer_8_copy">
		</g>
		<g id="Layer_18">
		</g>
		<g id="Layer_19">
		</g>
		<g id="Layer_13">
		</g>
		<g id="Layer_15">
		</g>
		<g id="Layer_24">
			<g id="g4210">
				<path id="path4212" inkscape:connector-curvature="0" fill="none" d="M1249.415,3902.277l-12.117,19.772
					c-0.681,1.11-0.172,2.019,1.131,2.019h14.209c1.302,0,2.929-0.906,3.615-2.013l6.416-10.365L1249.415,3902.277
					L1249.415,3902.277z"/>
				<path id="path4214" inkscape:connector-curvature="0" fill="none" d="M1267.028,3883.49l-10.774-17.406
					c-0.686-1.107-2.312-2.014-3.615-2.014l-14.21,0c-1.303,0-1.811,0.909-1.13,2.019l13.796,22.511l7.755-10.919L1267.028,3883.49
					L1267.028,3883.49z"/>
			</g>
			
				<linearGradient id="path4221_1_" gradientUnits="userSpaceOnUse" x1="2465.9128" y1="241.4677" x2="2481.4009" y2="231.7898" gradientTransform="matrix(1 0 0 -1 -1221.8945 4148.6489)">
				<stop  offset="0.54" style="stop-color:#0A985C"/>
				<stop  offset="0.54" style="stop-color:#F6C25B"/>
			</linearGradient>
			<path id="path4221" inkscape:connector-curvature="0" fill="url(#path4221_1_)" d="M1261.928,3907.385
				c-1.179-1.983-4.039-7.077-6.177-10.872l-2.412-4.248c0.555,1.118,0.515,2.779-0.122,3.819l-15.911,25.963
				c-0.68,1.109-0.172,2.02,1.132,2.02h14.207c1.303,0,2.93-0.907,3.615-2.014l6.427-10.378
				C1262.55,3911.863,1263.446,3909.935,1261.928,3907.385L1261.928,3907.385z"/>
			<g id="g4223">
				<path id="path4225" inkscape:connector-curvature="0" fill="none" d="M1249.422,3902.275l-12.116,19.773
					c-0.68,1.109-0.171,2.02,1.132,2.02h14.208c1.303,0,2.929-0.907,3.615-2.014l6.419-10.366L1249.422,3902.275L1249.422,3902.275z
					"/>
				<path id="path4227" inkscape:connector-curvature="0" fill="none" d="M1267.036,3883.487l-10.776-17.406
					c-0.683-1.108-2.311-2.013-3.613-2.013h-14.209c-1.304,0-1.812,0.909-1.132,2.02l13.797,22.513l7.757-10.921L1267.036,3883.487
					L1267.036,3883.487z"/>
				<path id="path4229" inkscape:connector-curvature="0" opacity="0.09" fill="#010101" enable-background="new    " d="
					M1272.339,3896.083c0.688-1.108,0.688-2.922,0.002-4.03l-5.304-8.567l-8.177-5.808l-7.757,10.921l2.114,3.448
					c0.681,1.11,0.681,2.928,0,4.038l-3.795,6.19l13.257,9.413L1272.339,3896.083L1272.339,3896.083z"/>
			</g>
			
				<linearGradient id="path4236_1_" gradientUnits="userSpaceOnUse" x1="2470.3823" y1="259.6602" x2="2486.2651" y2="269.5848" gradientTransform="matrix(1 0 0 -1 -1221.8945 4148.6489)">
				<stop  offset="0.57" style="stop-color:#5586C5"/>
				<stop  offset="0.57" style="stop-color:#D9423E"/>
			</linearGradient>
			<path id="path4236" inkscape:connector-curvature="0" fill="url(#path4236_1_)" d="M1272.336,3892.058l-16.076-25.973
				c-0.685-1.108-2.313-2.014-3.615-2.014h-14.212c-1.302,0-1.81,0.908-1.13,2.02l15.911,25.961l2.536,4.462
				c2.138,3.794,4.998,8.888,6.177,10.872c1.775,2.985,0.247,5.115,0.935,4.006l9.474-15.304
				C1273.022,3894.979,1273.022,3893.168,1272.336,3892.058z M1253.233,3892.082c0.016,0.027,0.036,0.057,0.057,0.094l0,0
				c0,0.004,0.002,0.004,0.004,0.007C1253.272,3892.144,1253.251,3892.111,1253.233,3892.082z M1254.367,3894.061
				c0.053,0.096,0.11,0.196,0.168,0.296C1254.477,3894.257,1254.421,3894.157,1254.367,3894.061z M1254.353,3894.025
				c0.088,0.155,0.178,0.314,0.271,0.479C1254.531,3894.338,1254.44,3894.179,1254.353,3894.025z">
				
					<namedview  zoom="0.0875" showgrid="false" document-units="px" guide-bbox="true" pageshadow="2" window-y="-4" cx="1267.4286" pageopacity="0.0" cy="885.96512" window-x="-4" pagecolor="#ffffff" showguides="true" window-height="712" window-width="1280" current-layer="layer1" borderopacity="1.0" bordercolor="#666666">
					<guide  orientation="0,1" position="-3095.1074,2723.3713" id="guide5732"></guide>
				</namedview>
			</path>
			<g enable-background="new    ">
				<path fill="#4E4E4E" d="M1306.167,3890.121h14.065v17.564c-3.819,1.308-8.017,1.961-12.594,1.961
					c-5.023,0-8.905-1.456-11.646-4.368s-4.112-7.066-4.112-12.46c0-5.261,1.5-9.354,4.502-12.282
					c3.001-2.927,7.207-4.391,12.616-4.391c2.051,0,3.986,0.193,5.807,0.58s3.407,0.877,4.759,1.471l-2.786,6.91
					c-2.348-1.159-4.926-1.739-7.734-1.739c-2.571,0-4.559,0.836-5.963,2.508c-1.404,1.671-2.106,4.061-2.106,7.166
					c0,3.047,0.635,5.368,1.906,6.966s3.102,2.396,5.494,2.396c1.308,0,2.511-0.126,3.611-0.379v-5.104h-5.817V3890.121z"/>
				<path fill="#4E4E4E" d="M1351.843,3892.217c0,5.439-1.498,9.629-4.492,12.572s-7.203,4.413-12.627,4.413h-10.543v-32.588h11.278
					c5.23,0,9.27,1.337,12.115,4.012C1350.419,3883.301,1351.843,3887.164,1351.843,3892.217z M1342.703,3892.529
					c0-2.987-0.59-5.201-1.771-6.642s-2.976-2.162-5.383-2.162h-2.563v18.255h1.961c2.675,0,4.637-0.776,5.885-2.329
					S1342.703,3895.724,1342.703,3892.529z"/>
				<path fill="#4E4E4E" d="M1368.074,3890.121h14.064v17.564c-3.819,1.308-8.018,1.961-12.594,1.961
					c-5.022,0-8.904-1.456-11.646-4.368c-2.741-2.912-4.112-7.066-4.112-12.46c0-5.261,1.501-9.354,4.503-12.282
					c3.001-2.927,7.207-4.391,12.615-4.391c2.051,0,3.986,0.193,5.807,0.58s3.406,0.877,4.759,1.471l-2.786,6.91
					c-2.348-1.159-4.926-1.739-7.734-1.739c-2.571,0-4.559,0.836-5.963,2.508c-1.403,1.671-2.105,4.061-2.105,7.166
					c0,3.047,0.635,5.368,1.905,6.966s3.102,2.396,5.494,2.396c1.308,0,2.511-0.126,3.611-0.379v-5.104h-5.817V3890.121z"/>
			</g>
			<g>
			</g>
			<g enable-background="new    ">
				<path fill="#4E4E4E" d="M1404.968,3909.201v-32.588h5.327v28.019h13.798v4.569H1404.968z"/>
				<path fill="#4E4E4E" d="M1432.077,3909.201l-9.361-24.652h5.528l5.015,14.332c0.861,2.407,1.382,4.354,1.561,5.84h0.178
					c0.134-1.069,0.654-3.017,1.561-5.84l5.016-14.332h5.572l-9.406,24.652H1432.077z"/>
				<path fill="#4E4E4E" d="M1447.883,3878.018c0-0.936,0.256-1.657,0.769-2.162c0.513-0.505,1.245-0.758,2.196-0.758
					c0.921,0,1.638,0.253,2.15,0.758c0.513,0.505,0.77,1.226,0.77,2.162c0,0.892-0.257,1.594-0.77,2.106s-1.229,0.769-2.15,0.769
					c-0.951,0-1.684-0.256-2.196-0.769S1447.883,3878.909,1447.883,3878.018z M1453.433,3909.201h-5.237v-24.652h5.237V3909.201z"/>
				<path fill="#4E4E4E" d="M1463.846,3909.201l-9.361-24.652h5.528l5.015,14.332c0.861,2.407,1.382,4.354,1.561,5.84h0.178
					c0.134-1.069,0.654-3.017,1.561-5.84l5.016-14.332h5.572l-9.406,24.652H1463.846z"/>
			</g>
		</g>
		<g id="Layer_25">
		</g>
		<g id="Layer_26">
		</g>
		<g id="Layer_27">
		</g>
		<g id="Layer_28">
		</g>
		<g id="Layer_29">
		</g>
		<g id="Layer_30">
		</g>
		<g id="Layer_31">
		</g>
		<g id="Layer_32">
		</g>
		<g id="Layer_33">
		</g>
		<g id="Layer_34">
		</g>
		<g id="Layer_36">
		</g>
		<g id="Layer_35">
		</g>
	</g>
</g>
</svg>
