<svg xmlns="http://www.w3.org/2000/svg" width="1000" height="328.556" id="svg2"><g id="layer1"><path d="M246.105 116.177H129.533v34.59h82.673c-4.084 48.507-44.44 69.193-82.533 69.193-48.736 0-91.264-38.346-91.264-92.093 0-52.356 40.54-92.68 91.37-92.68 39.218 0 62.327 25.002 62.327 25.002l24.22-25.082S185.24.5 128.543.5C56.353.5.5 61.434.5 127.25c0 64.494 52.54 127.384 129.886 127.384 68.03 0 117.83-46.603 117.83-115.515 0-14.54-2.11-22.943-2.11-22.943z" id="path2998" fill="#4885ed"/><path d="M341.598 91.13c-47.83 0-82.11 37.393-82.11 81.007 0 44.258 33.248 82.348 82.673 82.348 44.743 0 81.398-34.197 81.398-81.397 0-54.098-42.638-81.96-81.96-81.96zm.476 32.082c23.523 0 45.812 19.016 45.812 49.66 0 29.993-22.196 49.55-45.92 49.55-26.068 0-46.633-20.877-46.633-49.788 0-28.292 20.31-49.422 46.74-49.422z" id="path3000" fill="#db3236"/><path id="path3005" d="M520.185 91.13c-47.832 0-82.11 37.393-82.11 81.007 0 44.258 33.248 82.348 82.672 82.348 44.742 0 81.397-34.197 81.397-81.397 0-54.098-42.638-81.96-81.96-81.96zm.476 32.082c23.523 0 45.812 19.016 45.812 49.66 0 29.993-22.195 49.55-45.92 49.55-26.068 0-46.633-20.877-46.633-49.788 0-28.292 20.31-49.422 46.74-49.422z" fill="#f4c20d"/><path d="M695.336 91.215c-43.904 0-78.414 38.453-78.414 81.613 0 49.164 40.01 81.765 77.657 81.765 23.278 0 35.656-9.24 44.795-19.846v16.106c0 28.18-17.11 45.055-42.936 45.055-24.95 0-37.465-18.55-41.814-29.078l-31.39 13.123c11.136 23.546 33.553 48.103 73.462 48.103 43.65 0 76.922-27.495 76.922-85.16V96.124h-34.245v13.836c-10.523-11.347-24.922-18.745-44.04-18.745zm3.178 32.018c21.525 0 43.628 18.38 43.628 49.768 0 31.905-22.055 49.488-44.104 49.488-23.406 0-45.184-19.005-45.184-49.184 0-31.358 22.62-50.07 45.66-50.07z" id="path3007" fill="#4885ed"/><path d="M925.886 91.02c-41.415 0-76.187 32.95-76.187 81.57 0 51.447 38.758 81.96 80.164 81.96 34.558 0 55.768-18.906 68.425-35.845l-28.236-18.787c-7.327 11.37-19.575 22.484-40.017 22.484-22.962 0-33.52-12.574-40.06-24.754L999.5 152.203l-5.686-13.317c-10.585-26.08-35.268-47.866-67.928-47.866zm1.427 31.413c14.923 0 25.663 7.935 30.224 17.447l-73.14 30.57c-3.152-23.667 19.27-48.017 42.916-48.017z" id="path3011" fill="#db3236"/><path d="M797.488 249.698h35.975V8.944h-35.975z" id="path3015" fill="#3cba54"/></g></svg>