<?xml version="1.0" encoding="UTF-8" standalone="no"?>
<!-- Created with Inkscape (http://www.inkscape.org/) -->

<svg
   xmlns:dc="http://purl.org/dc/elements/1.1/"
   xmlns:cc="http://creativecommons.org/ns#"
   xmlns:rdf="http://www.w3.org/1999/02/22-rdf-syntax-ns#"
   xmlns:svg="http://www.w3.org/2000/svg"
   xmlns="http://www.w3.org/2000/svg"
   xmlns:sodipodi="http://sodipodi.sourceforge.net/DTD/sodipodi-0.dtd"
   xmlns:inkscape="http://www.inkscape.org/namespaces/inkscape"
   version="1.1"
   id="svg20988"
   xml:space="preserve"
   width="297mm"
   height="210mm"
   viewBox="0 0 1122.5197 793.70079"
   sodipodi:docname="New DevCycle Logo.svg"
   inkscape:version="0.92.3 (2405546, 2018-03-11)"><metadata
     id="metadata20994"><rdf:RDF><cc:Work
         rdf:about=""><dc:format>image/svg+xml</dc:format><dc:type
           rdf:resource="http://purl.org/dc/dcmitype/StillImage" /><dc:title></dc:title></cc:Work></rdf:RDF></metadata><defs
     id="defs20992" /><sodipodi:namedview
     pagecolor="#ffffff"
     bordercolor="#666666"
     borderopacity="1"
     objecttolerance="10"
     gridtolerance="10"
     guidetolerance="10"
     inkscape:pageopacity="0"
     inkscape:pageshadow="2"
     inkscape:window-width="2560"
     inkscape:window-height="1412"
     id="namedview20990"
     showgrid="false"
     inkscape:showpageshadow="false"
     units="mm"
     inkscape:zoom="0.49775788"
     inkscape:cx="-106.47747"
     inkscape:cy="202"
     inkscape:window-x="0"
     inkscape:window-y="0"
     inkscape:window-maximized="1"
     inkscape:current-layer="g20996" /><g
     id="g20996"
     inkscape:groupmode="layer"
     inkscape:label="ink_ext_XXXXXX"
     transform="matrix(1.3333333,0,0,-1.3333333,0,793.70079)"><g
       id="g20998"
       transform="matrix(0.09217827,0,0,0.09207967,9.1508391,120.70052)"
       style="stroke-width:1.08543515"><path
         d="m 1589.1,384.609 c 0,-153.238 -124.22,-277.5 -277.5,-277.5 -153.24,0 -277.5,124.262 -277.5,277.5 0,153.282 124.26,277.5 277.5,277.5 153.28,0 277.5,-124.218 277.5,-277.5 z"
         style="fill:#040402;fill-opacity:1;fill-rule:nonzero;stroke:none;stroke-width:1.08543515"
         id="path21000"
         inkscape:connector-curvature="0" /><path
         d="m 1589.1,384.609 c 0,-153.238 -124.22,-277.5 -277.5,-277.5 -153.24,0 -277.5,124.262 -277.5,277.5 0,153.282 124.26,277.5 277.5,277.5 153.28,0 277.5,-124.218 277.5,-277.5 z"
         style="fill:none;stroke:#040402;stroke-width:30.64519691;stroke-linecap:butt;stroke-linejoin:miter;stroke-miterlimit:4;stroke-dasharray:none;stroke-opacity:1"
         id="path21002"
         inkscape:connector-curvature="0" /><path
         d="m 1566.6,2574.61 c 0,-153.24 -124.22,-277.5 -277.5,-277.5 -153.24,0 -277.5,124.26 -277.5,277.5 0,153.28 124.26,277.5 277.5,277.5 153.28,0 277.5,-124.22 277.5,-277.5 z"
         style="fill:#040402;fill-opacity:1;fill-rule:nonzero;stroke:none;stroke-width:1.08543515"
         id="path21004"
         inkscape:connector-curvature="0" /><path
         d="m 1566.6,2574.61 c 0,-153.24 -124.22,-277.5 -277.5,-277.5 -153.24,0 -277.5,124.26 -277.5,277.5 0,153.28 124.26,277.5 277.5,277.5 153.28,0 277.5,-124.22 277.5,-277.5 z"
         style="fill:none;stroke:#040402;stroke-width:30.64519691;stroke-linecap:butt;stroke-linejoin:miter;stroke-miterlimit:4;stroke-dasharray:none;stroke-opacity:1"
         id="path21006"
         inkscape:connector-curvature="0" /><path
         d="m 2820.7,2640.2 c 0,-207.47 -168.2,-375.59 -375.66,-375.59 -207.46,0 -375.63,168.12 -375.63,375.59 0,207.5 168.17,375.7 375.63,375.7 207.46,0 375.66,-168.2 375.66,-375.7 z"
         style="fill:#040402;fill-opacity:1;fill-rule:nonzero;stroke:none;stroke-width:1.08543515"
         id="path21008"
         inkscape:connector-curvature="0" /><path
         d="m 2820.7,2640.2 c 0,-207.47 -168.2,-375.59 -375.66,-375.59 -207.46,0 -375.63,168.12 -375.63,375.59 0,207.5 168.17,375.7 375.63,375.7 207.46,0 375.66,-168.2 375.66,-375.7 z"
         style="fill:none;stroke:#040402;stroke-width:30.64519691;stroke-linecap:butt;stroke-linejoin:miter;stroke-miterlimit:4;stroke-dasharray:none;stroke-opacity:1"
         id="path21010"
         inkscape:connector-curvature="0" /><path
         d="m 1694.77,1495.55 c 0,-207.46 -168.21,-375.63 -375.67,-375.63 -207.46,0 -375.62,168.17 -375.62,375.63 0,207.46 168.16,375.66 375.62,375.66 207.46,0 375.67,-168.2 375.67,-375.66 z"
         style="fill:#040402;fill-opacity:1;fill-rule:nonzero;stroke:none;stroke-width:1.08543515"
         id="path21012"
         inkscape:connector-curvature="0" /><path
         d="m 1694.77,1495.55 c 0,-207.46 -168.21,-375.63 -375.67,-375.63 -207.46,0 -375.62,168.17 -375.62,375.63 0,207.46 168.16,375.66 375.62,375.66 207.46,0 375.67,-168.2 375.67,-375.66 z"
         style="fill:none;stroke:#040402;stroke-width:30.64519691;stroke-linecap:butt;stroke-linejoin:miter;stroke-miterlimit:4;stroke-dasharray:none;stroke-opacity:1"
         id="path21014"
         inkscape:connector-curvature="0" /><path
         d="m 2805.7,395.859 c 0,-207.461 -168.2,-375.6598 -375.66,-375.6598 -207.46,0 -375.63,168.1988 -375.63,375.6598 0,207.461 168.17,375.621 375.63,375.621 207.46,0 375.66,-168.16 375.66,-375.621 z"
         style="fill:#040402;fill-opacity:1;fill-rule:nonzero;stroke:none;stroke-width:1.08543515"
         id="path21016"
         inkscape:connector-curvature="0" /><path
         d="m 2805.7,395.859 c 0,-207.461 -168.2,-375.6598 -375.66,-375.6598 -207.46,0 -375.63,168.1988 -375.63,375.6598 0,207.461 168.17,375.621 375.63,375.621 207.46,0 375.66,-168.16 375.66,-375.621 z"
         style="fill:none;stroke:#040402;stroke-width:30.64519691;stroke-linecap:butt;stroke-linejoin:miter;stroke-miterlimit:4;stroke-dasharray:none;stroke-opacity:1"
         id="path21018"
         inkscape:connector-curvature="0" /><path
         d="M 2091.6,2739.61 C 1874.1,2233.36 1112.85,1805.86 1112.85,1805.86"
         style="fill:none;stroke:#040402;stroke-width:30.64519691;stroke-linecap:butt;stroke-linejoin:miter;stroke-miterlimit:4;stroke-dasharray:none;stroke-opacity:1"
         id="path21020"
         inkscape:connector-curvature="0" /><path
         d="m 1700.55,1416.84 c 217.5,506.25 978.75,933.75 978.75,933.75"
         style="fill:none;stroke:#040402;stroke-width:30.64519691;stroke-linecap:butt;stroke-linejoin:miter;stroke-miterlimit:4;stroke-dasharray:none;stroke-opacity:1"
         id="path21022"
         inkscape:connector-curvature="0" /><path
         d="m 1714.57,1478.87 c -0.08,16.48 -0.78,17.81 -9.45,17.81 -8.13,0 -9.38,1.68 -9.38,12.7 0,10.62 1.64,13.16 9.81,15.23 8.67,2.15 9.53,3.83 7.5,13.94 -1.25,6.37 -2.31,15.79 -2.31,20.94 0,8.36 -1.21,9.14 -10.78,7.23 -10.04,-1.99 -10.94,-1.21 -13.05,11.72 -3.39,20.27 -3,23.24 3.01,23.24 8.95,0 9.77,5.7 3.4,24.3 -5.47,16.09 -6.91,17.54 -15.86,15.74 -8.67,-1.72 -10.62,-0.12 -16.48,13.67 -3.68,8.56 -5.36,16.06 -3.75,16.64 13,4.61 13.39,7.74 3.32,24.88 -11.1,18.95 -11.02,18.91 -20.9,13.6 -5.59,-2.97 -8.75,-1.21 -16.99,9.61 -9.77,12.81 -9.89,13.55 -3.48,20.66 6.44,7.11 6.21,7.77 -7.85,22.19 -13.6,14.02 -14.85,14.49 -21.33,8.67 -6.45,-5.86 -7.62,-5.59 -18.98,4.73 -6.61,6.01 -12.82,11.33 -13.68,11.87 -0.86,0.51 1.41,4.18 5.04,8.17 6.33,6.99 6.02,7.65 -9.33,18.79 -18.48,13.32 -20.67,13.75 -25.59,4.96 -3.4,-6.1 -4.57,-5.98 -17.97,1.83 -7.89,4.57 -14.06,9.61 -13.71,11.17 0.39,1.61 1.68,5.51 2.93,8.68 1.6,4.14 -2.58,8.12 -14.84,14.06 -20,9.69 -24.38,10.23 -24.38,2.89 0,-8.4 -4.76,-9.49 -21.95,-5.12 -14.77,3.75 -15.74,4.77 -13.63,14.34 2.07,9.53 1.21,10.47 -12,12.81 -7.85,1.37 -17.03,3.32 -20.43,4.3 -4.21,1.25 -6.87,-1.25 -8.59,-8.13 -2.19,-8.75 -3.83,-9.69 -14.02,-7.61 -6.37,1.24 -13.87,2.3 -16.72,2.3 -2.97,0 -5.16,3.91 -5.16,9.34 0,8.9 -1.09,9.41 -20.62,9.41 -19.26,0 -20.63,-0.63 -20.63,-8.98 0,-8.17 -1.76,-9.18 -18.75,-10.32 -17.3,-1.21 -18.75,-0.66 -18.75,7.11 0,5.39 -2.26,8.44 -6.25,8.44 -3.44,0 23.99,20.47 60.94,45.47 348.12,235.55 611.25,496.6 738.32,732.58 19.49,36.17 27.03,46.95 32.85,46.95 5.98,0 7.07,-1.72 5.31,-8.44 -1.29,-4.61 -2.34,-12.77 -2.34,-18.08 -0.04,-7.62 -1.84,-9.61 -8.52,-9.38 -6.91,0.24 -8.63,-1.99 -9.64,-12.42 -2,-20.82 1.99,-30.43 12.57,-30.43 7.11,0 9.3,-1.95 9.34,-8.44 0,-4.61 1.09,-12.22 2.3,-16.87 1.8,-6.72 0.71,-8.44 -5.46,-8.44 -11.06,0 -12.19,-3.98 -7.07,-24.69 4.14,-16.79 5.43,-18.32 14.41,-17.26 8.71,1.01 10.59,-0.86 15.62,-15.63 5.67,-16.64 5.63,-16.83 -3.24,-19.02 l -8.94,-2.23 8.79,-19.69 c 8.75,-19.53 9.92,-20.43 21.52,-15.89 4.34,1.68 8.55,-1.61 14.49,-11.14 7.93,-12.85 8.01,-13.9 1.92,-20.66 -6.14,-6.76 -5.9,-7.85 4.25,-22.23 11.37,-16.05 15.82,-18.08 23.17,-10.74 3.55,3.55 7.03,2.07 16.09,-6.99 10.47,-10.47 11.06,-12.35 6.49,-19.89 -4.65,-7.65 -3.87,-9.29 9.68,-21.13 13.75,-11.99 15.12,-12.42 21.49,-6.64 6.33,5.7 7.69,5.55 19.96,-2.81 13.24,-9.02 16.44,-15.9 9.41,-20.27 -5.7,-3.48 -1.13,-8.56 15.16,-16.88 18.2,-9.34 21.29,-9.34 24.22,-0.08 2.3,7.23 2.58,7.23 18.79,-0.66 13.67,-6.64 15.86,-9.1 12.93,-14.61 -5.2,-9.69 -5.2,-9.69 15.66,-16.6 16.06,-5.35 19.69,-5.55 22.42,-1.25 1.8,2.81 3.28,6.95 3.32,9.18 0.04,2.81 5.39,2.93 17.97,0.35 15.9,-3.24 17.89,-4.81 17.81,-13.4 -0.07,-9.14 1.14,-9.8 19.57,-10.9 17.74,-1.01 19.69,-0.35 19.69,6.53 0,6.79 2.35,7.73 18.75,7.73 17.74,0 18.75,-0.55 18.75,-9.8 0,-7.35 1.49,-9.18 5.94,-7.5 3.28,1.24 12.54,2.3 20.62,2.3 13.68,0 14.69,0.74 14.69,10.78 0,9.81 1.41,10.94 15.78,12.85 28.83,3.87 29.69,-5.9 2.03,-22.42 -37.38,-22.38 -158.67,-107.23 -229.68,-160.62 -276.68,-208.13 -483.64,-427.39 -587.5,-622.5 l -17.97,-33.75 z"
         style="fill:#040402;fill-opacity:1;fill-rule:nonzero;stroke:none;stroke-width:1.08543515"
         id="path21024"
         inkscape:connector-curvature="0" /><path
         d="m 1714.57,1478.87 c -0.08,16.48 -0.78,17.81 -9.45,17.81 -8.13,0 -9.38,1.68 -9.38,12.7 0,10.62 1.64,13.16 9.81,15.23 8.67,2.15 9.53,3.83 7.5,13.94 -1.25,6.37 -2.31,15.79 -2.31,20.94 0,8.36 -1.21,9.14 -10.78,7.23 -10.04,-1.99 -10.94,-1.21 -13.05,11.72 -3.39,20.27 -3,23.24 3.01,23.24 8.95,0 9.77,5.7 3.4,24.3 -5.47,16.09 -6.91,17.54 -15.86,15.74 -8.67,-1.72 -10.62,-0.12 -16.48,13.67 -3.68,8.56 -5.36,16.06 -3.75,16.64 13,4.61 13.39,7.74 3.32,24.88 -11.1,18.95 -11.02,18.91 -20.9,13.6 -5.59,-2.97 -8.75,-1.21 -16.99,9.61 -9.77,12.81 -9.89,13.55 -3.48,20.66 6.44,7.11 6.21,7.77 -7.85,22.19 -13.6,14.02 -14.85,14.49 -21.33,8.67 -6.45,-5.86 -7.62,-5.59 -18.98,4.73 -6.61,6.01 -12.82,11.33 -13.68,11.87 -0.86,0.51 1.41,4.18 5.04,8.17 6.33,6.99 6.02,7.65 -9.33,18.79 -18.48,13.32 -20.67,13.75 -25.59,4.96 -3.4,-6.1 -4.57,-5.98 -17.97,1.83 -7.89,4.57 -14.06,9.61 -13.71,11.17 0.39,1.61 1.68,5.51 2.93,8.68 1.6,4.14 -2.58,8.12 -14.84,14.06 -20,9.69 -24.38,10.23 -24.38,2.89 0,-8.4 -4.76,-9.49 -21.95,-5.12 -14.77,3.75 -15.74,4.77 -13.63,14.34 2.07,9.53 1.21,10.47 -12,12.81 -7.85,1.37 -17.03,3.32 -20.43,4.3 -4.21,1.25 -6.87,-1.25 -8.59,-8.13 -2.19,-8.75 -3.83,-9.69 -14.02,-7.61 -6.37,1.24 -13.87,2.3 -16.72,2.3 -2.97,0 -5.16,3.91 -5.16,9.34 0,8.9 -1.09,9.41 -20.62,9.41 -19.26,0 -20.63,-0.63 -20.63,-8.98 0,-8.17 -1.76,-9.18 -18.75,-10.32 -17.3,-1.21 -18.75,-0.66 -18.75,7.11 0,5.39 -2.26,8.44 -6.25,8.44 -3.44,0 23.99,20.47 60.94,45.47 348.12,235.55 611.25,496.6 738.32,732.58 19.49,36.17 27.03,46.95 32.85,46.95 5.98,0 7.07,-1.72 5.31,-8.44 -1.29,-4.61 -2.34,-12.77 -2.34,-18.08 -0.04,-7.62 -1.84,-9.61 -8.52,-9.38 -6.91,0.24 -8.63,-1.99 -9.64,-12.42 -2,-20.82 1.99,-30.43 12.57,-30.43 7.11,0 9.3,-1.95 9.34,-8.44 0,-4.61 1.09,-12.22 2.3,-16.87 1.8,-6.72 0.71,-8.44 -5.46,-8.44 -11.06,0 -12.19,-3.98 -7.07,-24.69 4.14,-16.79 5.43,-18.32 14.41,-17.26 8.71,1.01 10.59,-0.86 15.62,-15.63 5.67,-16.64 5.63,-16.83 -3.24,-19.02 l -8.94,-2.23 8.79,-19.69 c 8.75,-19.53 9.92,-20.43 21.52,-15.89 4.34,1.68 8.55,-1.61 14.49,-11.14 7.93,-12.85 8.01,-13.9 1.92,-20.66 -6.14,-6.76 -5.9,-7.85 4.25,-22.23 11.37,-16.05 15.82,-18.08 23.17,-10.74 3.55,3.55 7.03,2.07 16.09,-6.99 10.47,-10.47 11.06,-12.35 6.49,-19.89 -4.65,-7.65 -3.87,-9.29 9.68,-21.13 13.75,-11.99 15.12,-12.42 21.49,-6.64 6.33,5.7 7.69,5.55 19.96,-2.81 13.24,-9.02 16.44,-15.9 9.41,-20.27 -5.7,-3.48 -1.13,-8.56 15.16,-16.88 18.2,-9.34 21.29,-9.34 24.22,-0.08 2.3,7.23 2.58,7.23 18.79,-0.66 13.67,-6.64 15.86,-9.1 12.93,-14.61 -5.2,-9.69 -5.2,-9.69 15.66,-16.6 16.06,-5.35 19.69,-5.55 22.42,-1.25 1.8,2.81 3.28,6.95 3.32,9.18 0.04,2.81 5.39,2.93 17.97,0.35 15.9,-3.24 17.89,-4.81 17.81,-13.4 -0.07,-9.14 1.14,-9.8 19.57,-10.9 17.74,-1.01 19.69,-0.35 19.69,6.53 0,6.79 2.35,7.73 18.75,7.73 17.74,0 18.75,-0.55 18.75,-9.8 0,-7.35 1.49,-9.18 5.94,-7.5 3.28,1.24 12.54,2.3 20.62,2.3 13.68,0 14.69,0.74 14.69,10.78 0,9.81 1.41,10.94 15.78,12.85 28.83,3.87 29.69,-5.9 2.03,-22.42 -37.38,-22.38 -158.67,-107.23 -229.68,-160.62 -276.68,-208.13 -483.64,-427.39 -587.5,-622.5 l -17.97,-33.75 z"
         style="fill:none;stroke:#040402;stroke-width:30.64519691;stroke-linecap:butt;stroke-linejoin:miter;stroke-miterlimit:4;stroke-dasharray:none;stroke-opacity:1"
         id="path21026"
         inkscape:connector-curvature="0" /><path
         d="m 1281.6,1131.48 c 16.49,0.12 17.81,0.79 17.81,9.5 0,8.16 1.64,9.37 12.7,9.37 10.62,0 13.16,-1.64 15.19,-9.8 2.19,-8.67 3.83,-9.53 13.99,-7.5 6.37,1.25 15.78,2.3 20.94,2.3 8.32,0 9.14,1.21 7.22,10.78 -2.03,10.08 -1.25,10.94 11.72,13.09 20.24,3.36 23.24,2.97 23.24,-3.05 0,-8.94 5.67,-9.72 24.26,-3.44 16.1,5.51 17.54,6.96 15.78,15.9 -1.72,8.64 -0.11,10.63 13.64,16.49 8.59,3.67 16.09,5.39 16.64,3.75 4.61,-12.97 7.77,-13.4 24.92,-3.32 18.9,11.09 18.87,11.01 13.59,20.9 -3.01,5.58 -1.25,8.75 9.61,16.99 12.77,9.72 13.56,9.88 20.63,3.44 7.14,-6.41 7.85,-6.22 22.22,7.89 13.99,13.63 14.53,14.88 8.64,21.28 -5.82,6.49 -5.55,7.66 4.72,19.03 6.06,6.64 11.37,12.81 11.88,13.67 0.54,0.86 4.18,-1.45 8.16,-5 7.03,-6.37 7.66,-6.05 18.79,9.34 13.36,18.39 13.79,20.62 5,25.54 -6.09,3.4 -5.98,4.53 1.8,17.97 4.57,7.89 9.65,14.02 11.21,13.71 1.6,-0.35 5.47,-1.68 8.63,-2.93 4.14,-1.6 8.13,2.62 14.06,14.85 9.73,20 10.24,24.37 2.89,24.37 -8.36,0 -9.49,4.77 -5.11,21.92 3.75,14.8 4.76,15.78 14.33,13.67 9.53,-2.07 10.47,-1.21 12.82,12.03 1.4,7.81 3.39,16.99 4.33,20.39 1.25,4.22 -1.29,6.84 -8.12,8.55 -8.79,2.27 -9.65,3.87 -7.62,14.07 1.25,6.32 2.3,13.82 2.3,16.72 0,2.96 3.91,5.15 9.38,5.15 8.87,0 9.37,1.1 9.37,20.63 0,19.22 -0.58,20.62 -9.02,20.62 -8.12,0 -9.14,1.8 -10.31,18.75 -1.21,17.35 -0.67,18.75 7.15,18.75 5.39,0 8.43,2.27 8.43,6.25 0,3.44 20.47,-23.98 45.47,-60.98 235.51,-348.08 496.6,-611.241 732.54,-738.319 36.17,-19.449 46.99,-27.031 46.99,-32.852 0,-5.929 -1.75,-7.027 -8.43,-5.23 -4.65,1.25 -12.82,2.261 -18.13,2.261 -7.62,0.04 -9.61,1.918 -9.37,8.559 0.23,6.871 -2,8.633 -12.39,9.652 -20.86,1.989 -30.43,-1.992 -30.43,-12.543 0,-7.148 -1.99,-9.378 -8.43,-9.418 -4.65,0 -12.23,-1.011 -16.88,-2.261 -6.76,-1.797 -8.44,-0.699 -8.44,5.472 0,11.008 -3.98,12.149 -24.72,7.071 -16.76,-4.141 -18.32,-5.43 -17.27,-14.461 1.02,-8.711 -0.86,-10.539 -15.62,-15.582 -16.57,-5.699 -16.76,-5.668 -18.99,3.242 l -2.26,8.949 -19.61,-8.789 c -19.61,-8.75 -20.47,-9.922 -15.94,-21.57 1.68,-4.289 -1.56,-8.512 -11.17,-14.41 -12.85,-7.969 -13.91,-8.09 -20.63,-1.95 -6.79,6.129 -7.85,5.938 -22.26,-4.261 -16.02,-11.41 -18.09,-15.782 -10.71,-23.16 3.56,-3.559 2.07,-7.071 -6.99,-16.098 -10.47,-10.473 -12.34,-11.051 -19.88,-6.481 -7.66,4.649 -9.34,3.829 -21.13,-9.652 -12,-13.789 -12.46,-15.199 -6.68,-21.519 5.74,-6.329 5.54,-7.7 -2.82,-20 -9.02,-13.25 -15.89,-16.411 -20.23,-9.379 -3.52,5.66 -8.59,1.089 -16.91,-15.192 -9.26,-18.168 -9.26,-21.25 -0.08,-24.179 7.22,-2.309 7.22,-2.579 -0.63,-18.79 -6.68,-13.71 -9.14,-15.859 -14.61,-12.929 -9.72,5.148 -9.72,5.148 -16.64,-15.711 -5.31,-16.008 -5.54,-19.641 -1.25,-22.379 2.85,-1.832 6.96,-3.281 9.18,-3.32 2.85,-0.039 2.93,-5.391 0.39,-17.969 -3.28,-15.942 -4.8,-17.891 -13.43,-17.813 -9.11,0.121 -9.81,-1.129 -10.86,-19.57 -1.02,-17.769 -0.39,-19.687 6.56,-19.687 6.72,0 7.69,-2.34 7.69,-18.75 0,-17.692 -0.54,-18.75 -9.76,-18.75 -7.38,0 -9.22,-1.481 -7.5,-5.973 1.25,-3.289 2.26,-12.5 2.26,-20.59 0,-13.668 0.75,-14.687 10.75,-14.687 9.8,0 10.93,-1.403 12.89,-15.782 3.86,-28.871 -5.86,-29.73 -22.43,-2.031 -22.42,37.383 -107.22,158.672 -160.62,229.691 -208.09,276.68 -427.42,483.63 -622.46,587.5 l -33.75,17.97 z"
         style="fill:#040402;fill-opacity:1;fill-rule:nonzero;stroke:none;stroke-width:1.08543515"
         id="path21028"
         inkscape:connector-curvature="0" /><path
         d="m 1281.6,1131.48 c 16.49,0.12 17.81,0.79 17.81,9.5 0,8.16 1.64,9.37 12.7,9.37 10.62,0 13.16,-1.64 15.19,-9.8 2.19,-8.67 3.83,-9.53 13.99,-7.5 6.37,1.25 15.78,2.3 20.94,2.3 8.32,0 9.14,1.21 7.22,10.78 -2.03,10.08 -1.25,10.94 11.72,13.09 20.24,3.36 23.24,2.97 23.24,-3.05 0,-8.94 5.67,-9.72 24.26,-3.44 16.1,5.51 17.54,6.96 15.78,15.9 -1.72,8.64 -0.11,10.63 13.64,16.49 8.59,3.67 16.09,5.39 16.64,3.75 4.61,-12.97 7.77,-13.4 24.92,-3.32 18.9,11.09 18.87,11.01 13.59,20.9 -3.01,5.58 -1.25,8.75 9.61,16.99 12.77,9.72 13.56,9.88 20.63,3.44 7.14,-6.41 7.85,-6.22 22.22,7.89 13.99,13.63 14.53,14.88 8.64,21.28 -5.82,6.49 -5.55,7.66 4.72,19.03 6.06,6.64 11.37,12.81 11.88,13.67 0.54,0.86 4.18,-1.45 8.16,-5 7.03,-6.37 7.66,-6.05 18.79,9.34 13.36,18.39 13.79,20.62 5,25.54 -6.09,3.4 -5.98,4.53 1.8,17.97 4.57,7.89 9.65,14.02 11.21,13.71 1.6,-0.35 5.47,-1.68 8.63,-2.93 4.14,-1.6 8.13,2.62 14.06,14.85 9.73,20 10.24,24.37 2.89,24.37 -8.36,0 -9.49,4.77 -5.11,21.92 3.75,14.8 4.76,15.78 14.33,13.67 9.53,-2.07 10.47,-1.21 12.82,12.03 1.4,7.81 3.39,16.99 4.33,20.39 1.25,4.22 -1.29,6.84 -8.12,8.55 -8.79,2.27 -9.65,3.87 -7.62,14.07 1.25,6.32 2.3,13.82 2.3,16.72 0,2.96 3.91,5.15 9.38,5.15 8.87,0 9.37,1.1 9.37,20.63 0,19.22 -0.58,20.62 -9.02,20.62 -8.12,0 -9.14,1.8 -10.31,18.75 -1.21,17.35 -0.67,18.75 7.15,18.75 5.39,0 8.43,2.27 8.43,6.25 0,3.44 20.47,-23.98 45.47,-60.98 235.51,-348.08 496.6,-611.241 732.54,-738.319 36.17,-19.449 46.99,-27.031 46.99,-32.852 0,-5.929 -1.75,-7.027 -8.43,-5.23 -4.65,1.25 -12.82,2.261 -18.13,2.261 -7.62,0.04 -9.61,1.918 -9.37,8.559 0.23,6.871 -2,8.633 -12.39,9.652 -20.86,1.989 -30.43,-1.992 -30.43,-12.543 0,-7.148 -1.99,-9.378 -8.43,-9.418 -4.65,0 -12.23,-1.011 -16.88,-2.261 -6.76,-1.797 -8.44,-0.699 -8.44,5.472 0,11.008 -3.98,12.149 -24.72,7.071 -16.76,-4.141 -18.32,-5.43 -17.27,-14.461 1.02,-8.711 -0.86,-10.539 -15.62,-15.582 -16.57,-5.699 -16.76,-5.668 -18.99,3.242 l -2.26,8.949 -19.61,-8.789 c -19.61,-8.75 -20.47,-9.922 -15.94,-21.57 1.68,-4.289 -1.56,-8.512 -11.17,-14.41 -12.85,-7.969 -13.91,-8.09 -20.63,-1.95 -6.79,6.129 -7.85,5.938 -22.26,-4.261 -16.02,-11.41 -18.09,-15.782 -10.71,-23.16 3.56,-3.559 2.07,-7.071 -6.99,-16.098 -10.47,-10.473 -12.34,-11.051 -19.88,-6.481 -7.66,4.649 -9.34,3.829 -21.13,-9.652 -12,-13.789 -12.46,-15.199 -6.68,-21.519 5.74,-6.329 5.54,-7.7 -2.82,-20 -9.02,-13.25 -15.89,-16.411 -20.23,-9.379 -3.52,5.66 -8.59,1.089 -16.91,-15.192 -9.26,-18.168 -9.26,-21.25 -0.08,-24.179 7.22,-2.309 7.22,-2.579 -0.63,-18.79 -6.68,-13.71 -9.14,-15.859 -14.61,-12.929 -9.72,5.148 -9.72,5.148 -16.64,-15.711 -5.31,-16.008 -5.54,-19.641 -1.25,-22.379 2.85,-1.832 6.96,-3.281 9.18,-3.32 2.85,-0.039 2.93,-5.391 0.39,-17.969 -3.28,-15.942 -4.8,-17.891 -13.43,-17.813 -9.11,0.121 -9.81,-1.129 -10.86,-19.57 -1.02,-17.769 -0.39,-19.687 6.56,-19.687 6.72,0 7.69,-2.34 7.69,-18.75 0,-17.692 -0.54,-18.75 -9.76,-18.75 -7.38,0 -9.22,-1.481 -7.5,-5.973 1.25,-3.289 2.26,-12.5 2.26,-20.59 0,-13.668 0.75,-14.687 10.75,-14.687 9.8,0 10.93,-1.403 12.89,-15.782 3.86,-28.871 -5.86,-29.73 -22.43,-2.031 -22.42,37.383 -107.22,158.672 -160.62,229.691 -208.09,276.68 -427.42,483.63 -622.46,587.5 l -33.75,17.97 z"
         style="fill:none;stroke:#040402;stroke-width:30.64519691;stroke-linecap:butt;stroke-linejoin:miter;stroke-miterlimit:4;stroke-dasharray:none;stroke-opacity:1"
         id="path21030"
         inkscape:connector-curvature="0" /><path
         d="m 569.102,1539.61 c 0,-153.24 -124.223,-277.5 -277.5,-277.5 -153.243,0 -277.5004,124.26 -277.5004,277.5 0,153.28 124.2574,277.5 277.5004,277.5 153.277,0 277.5,-124.22 277.5,-277.5 z"
         style="fill:#040402;fill-opacity:1;fill-rule:nonzero;stroke:none;stroke-width:1.08543515"
         id="path21032"
         inkscape:connector-curvature="0" /><path
         d="m 569.102,1539.61 c 0,-153.24 -124.223,-277.5 -277.5,-277.5 -153.243,0 -277.5004,124.26 -277.5004,277.5 0,153.28 124.2574,277.5 277.5004,277.5 153.277,0 277.5,-124.22 277.5,-277.5 z"
         style="fill:none;stroke:#040402;stroke-width:30.64519691;stroke-linecap:butt;stroke-linejoin:miter;stroke-miterlimit:4;stroke-dasharray:none;stroke-opacity:1"
         id="path21034"
         inkscape:connector-curvature="0" /><g
         id="g21036"
         transform="scale(10)"
         style="stroke-width:1.08543515"><text
           transform="matrix(0.821816,0,0,-1,308.22,110.118)"
           style="font-variant:normal;font-weight:normal;font-size:158.84599304px;font-family:Aero;-inkscape-font-specification:Aero;writing-mode:lr-tb;fill:#000000;fill-opacity:1;fill-rule:nonzero;stroke:none;stroke-width:1.08543515"
           id="text21040"><tspan
             x="0 109.60374 209.04134 299.26587 388.21964 487.65723 565.65063 613.14557"
             y="0"
             sodipodi:role="line"
             id="tspan21038"
             style="stroke-width:1.08543515">DevCycle</tspan></text>
</g><path
         d="m 2852.85,1539.61 c 0,-153.24 -124.22,-277.5 -277.5,-277.5 -153.24,0 -277.5,124.26 -277.5,277.5 0,153.28 124.26,277.5 277.5,277.5 153.28,0 277.5,-124.22 277.5,-277.5 z"
         style="fill:#040402;fill-opacity:1;fill-rule:nonzero;stroke:none;stroke-width:1.08543515"
         id="path21042"
         inkscape:connector-curvature="0" /><path
         d="m 2852.85,1539.61 c 0,-153.24 -124.22,-277.5 -277.5,-277.5 -153.24,0 -277.5,124.26 -277.5,277.5 0,153.28 124.26,277.5 277.5,277.5 153.28,0 277.5,-124.22 277.5,-277.5 z"
         style="fill:none;stroke:#040402;stroke-width:30.64519691;stroke-linecap:butt;stroke-linejoin:miter;stroke-miterlimit:4;stroke-dasharray:none;stroke-opacity:1"
         id="path21044"
         inkscape:connector-curvature="0" /><path
         d="m 1589.1,384.609 c 0,-153.238 -124.22,-277.5 -277.5,-277.5 -153.24,0 -277.5,124.262 -277.5,277.5 0,153.282 124.26,277.5 277.5,277.5 153.28,0 277.5,-124.218 277.5,-277.5 z"
         style="fill:#040402;fill-opacity:1;fill-rule:nonzero;stroke:none;stroke-width:1.08543515"
         id="path21046"
         inkscape:connector-curvature="0" /><path
         d="m 1589.1,384.609 c 0,-153.238 -124.22,-277.5 -277.5,-277.5 -153.24,0 -277.5,124.262 -277.5,277.5 0,153.282 124.26,277.5 277.5,277.5 153.28,0 277.5,-124.218 277.5,-277.5 z"
         style="fill:none;stroke:#040402;stroke-width:30.64519691;stroke-linecap:butt;stroke-linejoin:miter;stroke-miterlimit:4;stroke-dasharray:none;stroke-opacity:1"
         id="path21048"
         inkscape:connector-curvature="0" /><path
         d="m 1566.6,2574.61 c 0,-153.24 -124.22,-277.5 -277.5,-277.5 -153.24,0 -277.5,124.26 -277.5,277.5 0,153.28 124.26,277.5 277.5,277.5 153.28,0 277.5,-124.22 277.5,-277.5 z"
         style="fill:#040402;fill-opacity:1;fill-rule:nonzero;stroke:none;stroke-width:1.08543515"
         id="path21050"
         inkscape:connector-curvature="0" /><path
         d="m 1566.6,2574.61 c 0,-153.24 -124.22,-277.5 -277.5,-277.5 -153.24,0 -277.5,124.26 -277.5,277.5 0,153.28 124.26,277.5 277.5,277.5 153.28,0 277.5,-124.22 277.5,-277.5 z"
         style="fill:none;stroke:#040402;stroke-width:30.64519691;stroke-linecap:butt;stroke-linejoin:miter;stroke-miterlimit:4;stroke-dasharray:none;stroke-opacity:1"
         id="path21052"
         inkscape:connector-curvature="0" /><path
         d="m 2820.7,2640.2 c 0,-207.47 -168.2,-375.59 -375.66,-375.59 -207.46,0 -375.63,168.12 -375.63,375.59 0,207.5 168.17,375.7 375.63,375.7 207.46,0 375.66,-168.2 375.66,-375.7 z"
         style="fill:#040402;fill-opacity:1;fill-rule:nonzero;stroke:none;stroke-width:1.08543515"
         id="path21054"
         inkscape:connector-curvature="0" /><path
         d="m 2820.7,2640.2 c 0,-207.47 -168.2,-375.59 -375.66,-375.59 -207.46,0 -375.63,168.12 -375.63,375.59 0,207.5 168.17,375.7 375.63,375.7 207.46,0 375.66,-168.2 375.66,-375.7 z"
         style="fill:none;stroke:#040402;stroke-width:30.64519691;stroke-linecap:butt;stroke-linejoin:miter;stroke-miterlimit:4;stroke-dasharray:none;stroke-opacity:1"
         id="path21056"
         inkscape:connector-curvature="0" /><path
         d="m 1694.77,1495.55 c 0,-207.46 -168.21,-375.63 -375.67,-375.63 -207.46,0 -375.62,168.17 -375.62,375.63 0,207.46 168.16,375.66 375.62,375.66 207.46,0 375.67,-168.2 375.67,-375.66 z"
         style="fill:#040402;fill-opacity:1;fill-rule:nonzero;stroke:none;stroke-width:1.08543515"
         id="path21058"
         inkscape:connector-curvature="0" /><path
         d="m 1694.77,1495.55 c 0,-207.46 -168.21,-375.63 -375.67,-375.63 -207.46,0 -375.62,168.17 -375.62,375.63 0,207.46 168.16,375.66 375.62,375.66 207.46,0 375.67,-168.2 375.67,-375.66 z"
         style="fill:none;stroke:#040402;stroke-width:30.64519691;stroke-linecap:butt;stroke-linejoin:miter;stroke-miterlimit:4;stroke-dasharray:none;stroke-opacity:1"
         id="path21060"
         inkscape:connector-curvature="0" /><path
         d="m 2805.7,395.859 c 0,-207.461 -168.2,-375.6598 -375.66,-375.6598 -207.46,0 -375.63,168.1988 -375.63,375.6598 0,207.461 168.17,375.621 375.63,375.621 207.46,0 375.66,-168.16 375.66,-375.621 z"
         style="fill:#040402;fill-opacity:1;fill-rule:nonzero;stroke:none;stroke-width:1.08543515"
         id="path21062"
         inkscape:connector-curvature="0" /><path
         d="m 2805.7,395.859 c 0,-207.461 -168.2,-375.6598 -375.66,-375.6598 -207.46,0 -375.63,168.1988 -375.63,375.6598 0,207.461 168.17,375.621 375.63,375.621 207.46,0 375.66,-168.16 375.66,-375.621 z"
         style="fill:none;stroke:#040402;stroke-width:30.64519691;stroke-linecap:butt;stroke-linejoin:miter;stroke-miterlimit:4;stroke-dasharray:none;stroke-opacity:1"
         id="path21064"
         inkscape:connector-curvature="0" /><path
         d="M 2091.6,2739.61 C 1874.1,2233.36 1112.85,1805.86 1112.85,1805.86"
         style="fill:none;stroke:#040402;stroke-width:30.64519691;stroke-linecap:butt;stroke-linejoin:miter;stroke-miterlimit:4;stroke-dasharray:none;stroke-opacity:1"
         id="path21066"
         inkscape:connector-curvature="0" /><path
         d="m 1700.55,1416.84 c 217.5,506.25 978.75,933.75 978.75,933.75"
         style="fill:none;stroke:#040402;stroke-width:30.64519691;stroke-linecap:butt;stroke-linejoin:miter;stroke-miterlimit:4;stroke-dasharray:none;stroke-opacity:1"
         id="path21068"
         inkscape:connector-curvature="0" /><path
         d="m 1714.57,1478.87 c -0.08,16.48 -0.78,17.81 -9.45,17.81 -8.13,0 -9.38,1.68 -9.38,12.7 0,10.62 1.64,13.16 9.81,15.23 8.67,2.15 9.53,3.83 7.5,13.94 -1.25,6.37 -2.31,15.79 -2.31,20.94 0,8.36 -1.21,9.14 -10.78,7.23 -10.04,-1.99 -10.94,-1.21 -13.05,11.72 -3.39,20.27 -3,23.24 3.01,23.24 8.95,0 9.77,5.7 3.4,24.3 -5.47,16.09 -6.91,17.54 -15.86,15.74 -8.67,-1.72 -10.62,-0.12 -16.48,13.67 -3.68,8.56 -5.36,16.06 -3.75,16.64 13,4.61 13.39,7.74 3.32,24.88 -11.1,18.95 -11.02,18.91 -20.9,13.6 -5.59,-2.97 -8.75,-1.21 -16.99,9.61 -9.77,12.81 -9.89,13.55 -3.48,20.66 6.44,7.11 6.21,7.77 -7.85,22.19 -13.6,14.02 -14.85,14.49 -21.33,8.67 -6.45,-5.86 -7.62,-5.59 -18.98,4.73 -6.61,6.01 -12.82,11.33 -13.68,11.87 -0.86,0.51 1.41,4.18 5.04,8.17 6.33,6.99 6.02,7.65 -9.33,18.79 -18.48,13.32 -20.67,13.75 -25.59,4.96 -3.4,-6.1 -4.57,-5.98 -17.97,1.83 -7.89,4.57 -14.06,9.61 -13.71,11.17 0.39,1.61 1.68,5.51 2.93,8.68 1.6,4.14 -2.58,8.12 -14.84,14.06 -20,9.69 -24.38,10.23 -24.38,2.89 0,-8.4 -4.76,-9.49 -21.95,-5.12 -14.77,3.75 -15.74,4.77 -13.63,14.34 2.07,9.53 1.21,10.47 -12,12.81 -7.85,1.37 -17.03,3.32 -20.43,4.3 -4.21,1.25 -6.87,-1.25 -8.59,-8.13 -2.19,-8.75 -3.83,-9.69 -14.02,-7.61 -6.37,1.24 -13.87,2.3 -16.72,2.3 -2.97,0 -5.16,3.91 -5.16,9.34 0,8.9 -1.09,9.41 -20.62,9.41 -19.26,0 -20.63,-0.63 -20.63,-8.98 0,-8.17 -1.76,-9.18 -18.75,-10.32 -17.3,-1.21 -18.75,-0.66 -18.75,7.11 0,5.39 -2.26,8.44 -6.25,8.44 -3.44,0 23.99,20.47 60.94,45.47 348.12,235.55 611.25,496.6 738.32,732.58 19.49,36.17 27.03,46.95 32.85,46.95 5.98,0 7.07,-1.72 5.31,-8.44 -1.29,-4.61 -2.34,-12.77 -2.34,-18.08 -0.04,-7.62 -1.84,-9.61 -8.52,-9.38 -6.91,0.24 -8.63,-1.99 -9.64,-12.42 -2,-20.82 1.99,-30.43 12.57,-30.43 7.11,0 9.3,-1.95 9.34,-8.44 0,-4.61 1.09,-12.22 2.3,-16.87 1.8,-6.72 0.71,-8.44 -5.46,-8.44 -11.06,0 -12.19,-3.98 -7.07,-24.69 4.14,-16.79 5.43,-18.32 14.41,-17.26 8.71,1.01 10.59,-0.86 15.62,-15.63 5.67,-16.64 5.63,-16.83 -3.24,-19.02 l -8.94,-2.23 8.79,-19.69 c 8.75,-19.53 9.92,-20.43 21.52,-15.89 4.34,1.68 8.55,-1.61 14.49,-11.14 7.93,-12.85 8.01,-13.9 1.92,-20.66 -6.14,-6.76 -5.9,-7.85 4.25,-22.23 11.37,-16.05 15.82,-18.08 23.17,-10.74 3.55,3.55 7.03,2.07 16.09,-6.99 10.47,-10.47 11.06,-12.35 6.49,-19.89 -4.65,-7.65 -3.87,-9.29 9.68,-21.13 13.75,-11.99 15.12,-12.42 21.49,-6.64 6.33,5.7 7.69,5.55 19.96,-2.81 13.24,-9.02 16.44,-15.9 9.41,-20.27 -5.7,-3.48 -1.13,-8.56 15.16,-16.88 18.2,-9.34 21.29,-9.34 24.22,-0.08 2.3,7.23 2.58,7.23 18.79,-0.66 13.67,-6.64 15.86,-9.1 12.93,-14.61 -5.2,-9.69 -5.2,-9.69 15.66,-16.6 16.06,-5.35 19.69,-5.55 22.42,-1.25 1.8,2.81 3.28,6.95 3.32,9.18 0.04,2.81 5.39,2.93 17.97,0.35 15.9,-3.24 17.89,-4.81 17.81,-13.4 -0.07,-9.14 1.14,-9.8 19.57,-10.9 17.74,-1.01 19.69,-0.35 19.69,6.53 0,6.79 2.35,7.73 18.75,7.73 17.74,0 18.75,-0.55 18.75,-9.8 0,-7.35 1.49,-9.18 5.94,-7.5 3.28,1.24 12.54,2.3 20.62,2.3 13.68,0 14.69,0.74 14.69,10.78 0,9.81 1.41,10.94 15.78,12.85 28.83,3.87 29.69,-5.9 2.03,-22.42 -37.38,-22.38 -158.67,-107.23 -229.68,-160.62 -276.68,-208.13 -483.64,-427.39 -587.5,-622.5 l -17.97,-33.75 z"
         style="fill:#040402;fill-opacity:1;fill-rule:nonzero;stroke:none;stroke-width:1.08543515"
         id="path21070"
         inkscape:connector-curvature="0" /><path
         d="m 1714.57,1478.87 c -0.08,16.48 -0.78,17.81 -9.45,17.81 -8.13,0 -9.38,1.68 -9.38,12.7 0,10.62 1.64,13.16 9.81,15.23 8.67,2.15 9.53,3.83 7.5,13.94 -1.25,6.37 -2.31,15.79 -2.31,20.94 0,8.36 -1.21,9.14 -10.78,7.23 -10.04,-1.99 -10.94,-1.21 -13.05,11.72 -3.39,20.27 -3,23.24 3.01,23.24 8.95,0 9.77,5.7 3.4,24.3 -5.47,16.09 -6.91,17.54 -15.86,15.74 -8.67,-1.72 -10.62,-0.12 -16.48,13.67 -3.68,8.56 -5.36,16.06 -3.75,16.64 13,4.61 13.39,7.74 3.32,24.88 -11.1,18.95 -11.02,18.91 -20.9,13.6 -5.59,-2.97 -8.75,-1.21 -16.99,9.61 -9.77,12.81 -9.89,13.55 -3.48,20.66 6.44,7.11 6.21,7.77 -7.85,22.19 -13.6,14.02 -14.85,14.49 -21.33,8.67 -6.45,-5.86 -7.62,-5.59 -18.98,4.73 -6.61,6.01 -12.82,11.33 -13.68,11.87 -0.86,0.51 1.41,4.18 5.04,8.17 6.33,6.99 6.02,7.65 -9.33,18.79 -18.48,13.32 -20.67,13.75 -25.59,4.96 -3.4,-6.1 -4.57,-5.98 -17.97,1.83 -7.89,4.57 -14.06,9.61 -13.71,11.17 0.39,1.61 1.68,5.51 2.93,8.68 1.6,4.14 -2.58,8.12 -14.84,14.06 -20,9.69 -24.38,10.23 -24.38,2.89 0,-8.4 -4.76,-9.49 -21.95,-5.12 -14.77,3.75 -15.74,4.77 -13.63,14.34 2.07,9.53 1.21,10.47 -12,12.81 -7.85,1.37 -17.03,3.32 -20.43,4.3 -4.21,1.25 -6.87,-1.25 -8.59,-8.13 -2.19,-8.75 -3.83,-9.69 -14.02,-7.61 -6.37,1.24 -13.87,2.3 -16.72,2.3 -2.97,0 -5.16,3.91 -5.16,9.34 0,8.9 -1.09,9.41 -20.62,9.41 -19.26,0 -20.63,-0.63 -20.63,-8.98 0,-8.17 -1.76,-9.18 -18.75,-10.32 -17.3,-1.21 -18.75,-0.66 -18.75,7.11 0,5.39 -2.26,8.44 -6.25,8.44 -3.44,0 23.99,20.47 60.94,45.47 348.12,235.55 611.25,496.6 738.32,732.58 19.49,36.17 27.03,46.95 32.85,46.95 5.98,0 7.07,-1.72 5.31,-8.44 -1.29,-4.61 -2.34,-12.77 -2.34,-18.08 -0.04,-7.62 -1.84,-9.61 -8.52,-9.38 -6.91,0.24 -8.63,-1.99 -9.64,-12.42 -2,-20.82 1.99,-30.43 12.57,-30.43 7.11,0 9.3,-1.95 9.34,-8.44 0,-4.61 1.09,-12.22 2.3,-16.87 1.8,-6.72 0.71,-8.44 -5.46,-8.44 -11.06,0 -12.19,-3.98 -7.07,-24.69 4.14,-16.79 5.43,-18.32 14.41,-17.26 8.71,1.01 10.59,-0.86 15.62,-15.63 5.67,-16.64 5.63,-16.83 -3.24,-19.02 l -8.94,-2.23 8.79,-19.69 c 8.75,-19.53 9.92,-20.43 21.52,-15.89 4.34,1.68 8.55,-1.61 14.49,-11.14 7.93,-12.85 8.01,-13.9 1.92,-20.66 -6.14,-6.76 -5.9,-7.85 4.25,-22.23 11.37,-16.05 15.82,-18.08 23.17,-10.74 3.55,3.55 7.03,2.07 16.09,-6.99 10.47,-10.47 11.06,-12.35 6.49,-19.89 -4.65,-7.65 -3.87,-9.29 9.68,-21.13 13.75,-11.99 15.12,-12.42 21.49,-6.64 6.33,5.7 7.69,5.55 19.96,-2.81 13.24,-9.02 16.44,-15.9 9.41,-20.27 -5.7,-3.48 -1.13,-8.56 15.16,-16.88 18.2,-9.34 21.29,-9.34 24.22,-0.08 2.3,7.23 2.58,7.23 18.79,-0.66 13.67,-6.64 15.86,-9.1 12.93,-14.61 -5.2,-9.69 -5.2,-9.69 15.66,-16.6 16.06,-5.35 19.69,-5.55 22.42,-1.25 1.8,2.81 3.28,6.95 3.32,9.18 0.04,2.81 5.39,2.93 17.97,0.35 15.9,-3.24 17.89,-4.81 17.81,-13.4 -0.07,-9.14 1.14,-9.8 19.57,-10.9 17.74,-1.01 19.69,-0.35 19.69,6.53 0,6.79 2.35,7.73 18.75,7.73 17.74,0 18.75,-0.55 18.75,-9.8 0,-7.35 1.49,-9.18 5.94,-7.5 3.28,1.24 12.54,2.3 20.62,2.3 13.68,0 14.69,0.74 14.69,10.78 0,9.81 1.41,10.94 15.78,12.85 28.83,3.87 29.69,-5.9 2.03,-22.42 -37.38,-22.38 -158.67,-107.23 -229.68,-160.62 -276.68,-208.13 -483.64,-427.39 -587.5,-622.5 l -17.97,-33.75 z"
         style="fill:none;stroke:#040402;stroke-width:30.64519691;stroke-linecap:butt;stroke-linejoin:miter;stroke-miterlimit:4;stroke-dasharray:none;stroke-opacity:1"
         id="path21072"
         inkscape:connector-curvature="0" /><path
         d="m 1281.6,1131.48 c 16.49,0.12 17.81,0.79 17.81,9.5 0,8.16 1.64,9.37 12.7,9.37 10.62,0 13.16,-1.64 15.19,-9.8 2.19,-8.67 3.83,-9.53 13.99,-7.5 6.37,1.25 15.78,2.3 20.94,2.3 8.32,0 9.14,1.21 7.22,10.78 -2.03,10.08 -1.25,10.94 11.72,13.09 20.24,3.36 23.24,2.97 23.24,-3.05 0,-8.94 5.67,-9.72 24.26,-3.44 16.1,5.51 17.54,6.96 15.78,15.9 -1.72,8.64 -0.11,10.63 13.64,16.49 8.59,3.67 16.09,5.39 16.64,3.75 4.61,-12.97 7.77,-13.4 24.92,-3.32 18.9,11.09 18.87,11.01 13.59,20.9 -3.01,5.58 -1.25,8.75 9.61,16.99 12.77,9.72 13.56,9.88 20.63,3.44 7.14,-6.41 7.85,-6.22 22.22,7.89 13.99,13.63 14.53,14.88 8.64,21.28 -5.82,6.49 -5.55,7.66 4.72,19.03 6.06,6.64 11.37,12.81 11.88,13.67 0.54,0.86 4.18,-1.45 8.16,-5 7.03,-6.37 7.66,-6.05 18.79,9.34 13.36,18.39 13.79,20.62 5,25.54 -6.09,3.4 -5.98,4.53 1.8,17.97 4.57,7.89 9.65,14.02 11.21,13.71 1.6,-0.35 5.47,-1.68 8.63,-2.93 4.14,-1.6 8.13,2.62 14.06,14.85 9.73,20 10.24,24.37 2.89,24.37 -8.36,0 -9.49,4.77 -5.11,21.92 3.75,14.8 4.76,15.78 14.33,13.67 9.53,-2.07 10.47,-1.21 12.82,12.03 1.4,7.81 3.39,16.99 4.33,20.39 1.25,4.22 -1.29,6.84 -8.12,8.55 -8.79,2.27 -9.65,3.87 -7.62,14.07 1.25,6.32 2.3,13.82 2.3,16.72 0,2.96 3.91,5.15 9.38,5.15 8.87,0 9.37,1.1 9.37,20.63 0,19.22 -0.58,20.62 -9.02,20.62 -8.12,0 -9.14,1.8 -10.31,18.75 -1.21,17.35 -0.67,18.75 7.15,18.75 5.39,0 8.43,2.27 8.43,6.25 0,3.44 20.47,-23.98 45.47,-60.98 235.51,-348.08 496.6,-611.241 732.54,-738.319 36.17,-19.449 46.99,-27.031 46.99,-32.852 0,-5.929 -1.75,-7.027 -8.43,-5.23 -4.65,1.25 -12.82,2.261 -18.13,2.261 -7.62,0.04 -9.61,1.918 -9.37,8.559 0.23,6.871 -2,8.633 -12.39,9.652 -20.86,1.989 -30.43,-1.992 -30.43,-12.543 0,-7.148 -1.99,-9.378 -8.43,-9.418 -4.65,0 -12.23,-1.011 -16.88,-2.261 -6.76,-1.797 -8.44,-0.699 -8.44,5.472 0,11.008 -3.98,12.149 -24.72,7.071 -16.76,-4.141 -18.32,-5.43 -17.27,-14.461 1.02,-8.711 -0.86,-10.539 -15.62,-15.582 -16.57,-5.699 -16.76,-5.668 -18.99,3.242 l -2.26,8.949 -19.61,-8.789 c -19.61,-8.75 -20.47,-9.922 -15.94,-21.57 1.68,-4.289 -1.56,-8.512 -11.17,-14.41 -12.85,-7.969 -13.91,-8.09 -20.63,-1.95 -6.79,6.129 -7.85,5.938 -22.26,-4.261 -16.02,-11.41 -18.09,-15.782 -10.71,-23.16 3.56,-3.559 2.07,-7.071 -6.99,-16.098 -10.47,-10.473 -12.34,-11.051 -19.88,-6.481 -7.66,4.649 -9.34,3.829 -21.13,-9.652 -12,-13.789 -12.46,-15.199 -6.68,-21.519 5.74,-6.329 5.54,-7.7 -2.82,-20 -9.02,-13.25 -15.89,-16.411 -20.23,-9.379 -3.52,5.66 -8.59,1.089 -16.91,-15.192 -9.26,-18.168 -9.26,-21.25 -0.08,-24.179 7.22,-2.309 7.22,-2.579 -0.63,-18.79 -6.68,-13.71 -9.14,-15.859 -14.61,-12.929 -9.72,5.148 -9.72,5.148 -16.64,-15.711 -5.31,-16.008 -5.54,-19.641 -1.25,-22.379 2.85,-1.832 6.96,-3.281 9.18,-3.32 2.85,-0.039 2.93,-5.391 0.39,-17.969 -3.28,-15.942 -4.8,-17.891 -13.43,-17.813 -9.11,0.121 -9.81,-1.129 -10.86,-19.57 -1.02,-17.769 -0.39,-19.687 6.56,-19.687 6.72,0 7.69,-2.34 7.69,-18.75 0,-17.692 -0.54,-18.75 -9.76,-18.75 -7.38,0 -9.22,-1.481 -7.5,-5.973 1.25,-3.289 2.26,-12.5 2.26,-20.59 0,-13.668 0.75,-14.687 10.75,-14.687 9.8,0 10.93,-1.403 12.89,-15.782 3.86,-28.871 -5.86,-29.73 -22.43,-2.031 -22.42,37.383 -107.22,158.672 -160.62,229.691 -208.09,276.68 -427.42,483.63 -622.46,587.5 l -33.75,17.97 z"
         style="fill:#040402;fill-opacity:1;fill-rule:nonzero;stroke:none;stroke-width:1.08543515"
         id="path21074"
         inkscape:connector-curvature="0" /><path
         d="m 1281.6,1131.48 c 16.49,0.12 17.81,0.79 17.81,9.5 0,8.16 1.64,9.37 12.7,9.37 10.62,0 13.16,-1.64 15.19,-9.8 2.19,-8.67 3.83,-9.53 13.99,-7.5 6.37,1.25 15.78,2.3 20.94,2.3 8.32,0 9.14,1.21 7.22,10.78 -2.03,10.08 -1.25,10.94 11.72,13.09 20.24,3.36 23.24,2.97 23.24,-3.05 0,-8.94 5.67,-9.72 24.26,-3.44 16.1,5.51 17.54,6.96 15.78,15.9 -1.72,8.64 -0.11,10.63 13.64,16.49 8.59,3.67 16.09,5.39 16.64,3.75 4.61,-12.97 7.77,-13.4 24.92,-3.32 18.9,11.09 18.87,11.01 13.59,20.9 -3.01,5.58 -1.25,8.75 9.61,16.99 12.77,9.72 13.56,9.88 20.63,3.44 7.14,-6.41 7.85,-6.22 22.22,7.89 13.99,13.63 14.53,14.88 8.64,21.28 -5.82,6.49 -5.55,7.66 4.72,19.03 6.06,6.64 11.37,12.81 11.88,13.67 0.54,0.86 4.18,-1.45 8.16,-5 7.03,-6.37 7.66,-6.05 18.79,9.34 13.36,18.39 13.79,20.62 5,25.54 -6.09,3.4 -5.98,4.53 1.8,17.97 4.57,7.89 9.65,14.02 11.21,13.71 1.6,-0.35 5.47,-1.68 8.63,-2.93 4.14,-1.6 8.13,2.62 14.06,14.85 9.73,20 10.24,24.37 2.89,24.37 -8.36,0 -9.49,4.77 -5.11,21.92 3.75,14.8 4.76,15.78 14.33,13.67 9.53,-2.07 10.47,-1.21 12.82,12.03 1.4,7.81 3.39,16.99 4.33,20.39 1.25,4.22 -1.29,6.84 -8.12,8.55 -8.79,2.27 -9.65,3.87 -7.62,14.07 1.25,6.32 2.3,13.82 2.3,16.72 0,2.96 3.91,5.15 9.38,5.15 8.87,0 9.37,1.1 9.37,20.63 0,19.22 -0.58,20.62 -9.02,20.62 -8.12,0 -9.14,1.8 -10.31,18.75 -1.21,17.35 -0.67,18.75 7.15,18.75 5.39,0 8.43,2.27 8.43,6.25 0,3.44 20.47,-23.98 45.47,-60.98 235.51,-348.08 496.6,-611.241 732.54,-738.319 36.17,-19.449 46.99,-27.031 46.99,-32.852 0,-5.929 -1.75,-7.027 -8.43,-5.23 -4.65,1.25 -12.82,2.261 -18.13,2.261 -7.62,0.04 -9.61,1.918 -9.37,8.559 0.23,6.871 -2,8.633 -12.39,9.652 -20.86,1.989 -30.43,-1.992 -30.43,-12.543 0,-7.148 -1.99,-9.378 -8.43,-9.418 -4.65,0 -12.23,-1.011 -16.88,-2.261 -6.76,-1.797 -8.44,-0.699 -8.44,5.472 0,11.008 -3.98,12.149 -24.72,7.071 -16.76,-4.141 -18.32,-5.43 -17.27,-14.461 1.02,-8.711 -0.86,-10.539 -15.62,-15.582 -16.57,-5.699 -16.76,-5.668 -18.99,3.242 l -2.26,8.949 -19.61,-8.789 c -19.61,-8.75 -20.47,-9.922 -15.94,-21.57 1.68,-4.289 -1.56,-8.512 -11.17,-14.41 -12.85,-7.969 -13.91,-8.09 -20.63,-1.95 -6.79,6.129 -7.85,5.938 -22.26,-4.261 -16.02,-11.41 -18.09,-15.782 -10.71,-23.16 3.56,-3.559 2.07,-7.071 -6.99,-16.098 -10.47,-10.473 -12.34,-11.051 -19.88,-6.481 -7.66,4.649 -9.34,3.829 -21.13,-9.652 -12,-13.789 -12.46,-15.199 -6.68,-21.519 5.74,-6.329 5.54,-7.7 -2.82,-20 -9.02,-13.25 -15.89,-16.411 -20.23,-9.379 -3.52,5.66 -8.59,1.089 -16.91,-15.192 -9.26,-18.168 -9.26,-21.25 -0.08,-24.179 7.22,-2.309 7.22,-2.579 -0.63,-18.79 -6.68,-13.71 -9.14,-15.859 -14.61,-12.929 -9.72,5.148 -9.72,5.148 -16.64,-15.711 -5.31,-16.008 -5.54,-19.641 -1.25,-22.379 2.85,-1.832 6.96,-3.281 9.18,-3.32 2.85,-0.039 2.93,-5.391 0.39,-17.969 -3.28,-15.942 -4.8,-17.891 -13.43,-17.813 -9.11,0.121 -9.81,-1.129 -10.86,-19.57 -1.02,-17.769 -0.39,-19.687 6.56,-19.687 6.72,0 7.69,-2.34 7.69,-18.75 0,-17.692 -0.54,-18.75 -9.76,-18.75 -7.38,0 -9.22,-1.481 -7.5,-5.973 1.25,-3.289 2.26,-12.5 2.26,-20.59 0,-13.668 0.75,-14.687 10.75,-14.687 9.8,0 10.93,-1.403 12.89,-15.782 3.86,-28.871 -5.86,-29.73 -22.43,-2.031 -22.42,37.383 -107.22,158.672 -160.62,229.691 -208.09,276.68 -427.42,483.63 -622.46,587.5 l -33.75,17.97 z"
         style="fill:none;stroke:#040402;stroke-width:30.64519691;stroke-linecap:butt;stroke-linejoin:miter;stroke-miterlimit:4;stroke-dasharray:none;stroke-opacity:1"
         id="path21076"
         inkscape:connector-curvature="0" /><path
         d="m 569.102,1539.61 c 0,-153.24 -124.223,-277.5 -277.5,-277.5 -153.243,0 -277.5004,124.26 -277.5004,277.5 0,153.28 124.2574,277.5 277.5004,277.5 153.277,0 277.5,-124.22 277.5,-277.5 z"
         style="fill:#040402;fill-opacity:1;fill-rule:nonzero;stroke:none;stroke-width:1.08543515"
         id="path21078"
         inkscape:connector-curvature="0" /><path
         d="m 569.102,1539.61 c 0,-153.24 -124.223,-277.5 -277.5,-277.5 -153.243,0 -277.5004,124.26 -277.5004,277.5 0,153.28 124.2574,277.5 277.5004,277.5 153.277,0 277.5,-124.22 277.5,-277.5 z"
         style="fill:none;stroke:#040402;stroke-width:30.64519691;stroke-linecap:butt;stroke-linejoin:miter;stroke-miterlimit:4;stroke-dasharray:none;stroke-opacity:1"
         id="path21080"
         inkscape:connector-curvature="0" /><g
         id="g21082"
         transform="scale(10)"
         style="stroke-width:1.08543515"><text
           transform="matrix(0.821816,0,0,-1,308.22,110.118)"
           style="font-variant:normal;font-weight:normal;font-size:158.84599304px;font-family:Aero;-inkscape-font-specification:Aero;writing-mode:lr-tb;fill:#000000;fill-opacity:1;fill-rule:nonzero;stroke:none;stroke-width:1.08543515"
           id="text21086"><tspan
             x="0 109.60374 209.04134 299.26587 388.21964 487.65723 565.65063 613.14557"
             y="0"
             sodipodi:role="line"
             id="tspan21084"
             style="stroke-width:1.08543515">DevCycle</tspan></text>
</g><path
         d="m 2852.85,1539.61 c 0,-153.24 -124.22,-277.5 -277.5,-277.5 -153.24,0 -277.5,124.26 -277.5,277.5 0,153.28 124.26,277.5 277.5,277.5 153.28,0 277.5,-124.22 277.5,-277.5 z"
         style="fill:#040402;fill-opacity:1;fill-rule:nonzero;stroke:none;stroke-width:1.08543515"
         id="path21088"
         inkscape:connector-curvature="0" /><path
         d="m 2852.85,1539.61 c 0,-153.24 -124.22,-277.5 -277.5,-277.5 -153.24,0 -277.5,124.26 -277.5,277.5 0,153.28 124.26,277.5 277.5,277.5 153.28,0 277.5,-124.22 277.5,-277.5 z"
         style="fill:none;stroke:#040402;stroke-width:30.64519691;stroke-linecap:butt;stroke-linejoin:miter;stroke-miterlimit:4;stroke-dasharray:none;stroke-opacity:1"
         id="path21090"
         inkscape:connector-curvature="0" /></g></g></svg>