<?xml version="1.0"?>
<svg width="185" height="188" xmlns="http://www.w3.org/2000/svg" xmlns:svg="http://www.w3.org/2000/svg">
 <g>
  <title>Layer 1</title>
  <g id="svg_1">
   <g id="svg_2">
    <path id="svg_3" d="m115.912003,28.967001c0,2.675999 -0.731003,4.737997 -2.193001,6.185999c-1.461998,1.447998 -3.518005,2.170998 -6.166,2.170998l-5.148003,0l0,-16.033997l5.507004,0c2.554001,0 4.526001,0.657999 5.916,1.973999c1.389,1.316 2.084,3.216999 2.084,5.703001zm-4.462006,0.153999c0,-1.469 -0.288994,-2.559 -0.865997,-3.268002c-0.576996,-0.709 -1.453003,-1.063999 -2.627998,-1.063999l-1.250999,0l0,8.982l0.958,0c1.306,0 2.264,-0.382 2.874001,-1.146s0.912994,-1.931999 0.912994,-3.504z" fill="#4E4E4E"/>
    <path id="svg_4" d="m123.128998,37.543999c-2.053001,0 -3.645996,-0.549999 -4.782997,-1.650002c-1.136002,-1.100998 -1.704002,-2.667 -1.704002,-4.699997c0,-2.099001 0.526001,-3.709 1.578003,-4.832001c1.053001,-1.122 2.555,-1.683998 4.505997,-1.683998c1.857002,0 3.292999,0.487999 4.305,1.463999s1.519997,2.382 1.519997,4.216999l0,1.907999l-7.608994,0c0.028999,0.695 0.280998,1.239002 0.757996,1.634003c0.475006,0.395 1.121002,0.591999 1.941002,0.591999c0.748001,0 1.436005,-0.070999 2.063004,-0.214001c0.628998,-0.142998 1.308998,-0.386002 2.041,-0.729l0,3.082001c-0.667999,0.343998 -1.357002,0.581001 -2.068001,0.713001c-0.712006,0.132999 -1.560005,0.198997 -2.548004,0.198997zm-0.25,-9.947998c-0.5,0 -0.919998,0.158998 -1.255997,0.476999c-0.337997,0.318001 -0.537003,0.816999 -0.594002,1.497l3.655998,0c-0.014,-0.598999 -0.183998,-1.077999 -0.505997,-1.437s-0.754997,-0.536999 -1.300003,-0.536999z" fill="#4E4E4E"/>
    <path id="svg_5" d="m132.850998,37.325001l-4.701996,-12.426001l4.440002,0l2.089996,7.348001c0.007996,0.036999 0.022003,0.098999 0.044006,0.186996s0.042999,0.192001 0.064987,0.313004c0.021011,0.120998 0.041,0.248997 0.060013,0.383999c0.01799,0.135998 0.026993,0.261997 0.026993,0.378002l0.076004,0c0,-0.380001 0.065002,-0.793003 0.194992,-1.239002l2.188004,-7.370001l4.430008,0l-4.702011,12.426001l-4.210999,0l0,-0.000999z" fill="#4E4E4E"/>
    <path id="svg_6" d="m146.380997,37.325001l-4.233994,0l0,-16.035l9.403992,0l0,3.476999l-5.169998,0l0,3.059999l4.766998,0l0,3.477001l-4.766998,0l0,6.021z" fill="#4E4E4E"/>
    <path id="svg_7" d="m158.528,37.543999c-2.054001,0 -3.647003,-0.549999 -4.783005,-1.650002s-1.702988,-2.667 -1.702988,-4.699997c0,-2.099001 0.524994,-3.709 1.577988,-4.832001c1.052002,-1.122 2.554001,-1.683998 4.506012,-1.683998c1.856995,0 3.291992,0.487999 4.304993,1.463999c1.011993,0.976 1.518997,2.382 1.518997,4.216999l0,1.907999l-7.608002,0c0.029007,0.695 0.281006,1.239002 0.757004,1.634003c0.475006,0.395 1.121994,0.591999 1.942001,0.591999c0.746994,0 1.434998,-0.070999 2.063004,-0.214001s1.307999,-0.386002 2.041,-0.729l0,3.082001c-0.667999,0.343998 -1.35701,0.581001 -2.068008,0.713001c-0.712997,0.132999 -1.560989,0.198997 -2.548996,0.198997zm-0.25,-9.947998c-0.501007,0 -0.919998,0.158998 -1.257004,0.476999c-0.337997,0.318001 -0.535995,0.816999 -0.593994,1.497l3.656998,0c-0.014999,-0.598999 -0.184006,-1.077999 -0.505997,-1.437c-0.322006,-0.358 -0.755997,-0.536999 -1.300003,-0.536999z" fill="#4E4E4E"/>
    <path id="svg_8" d="m174.541,33.507999c0,1.331001 -0.449997,2.336002 -1.350006,3.016003c-0.899994,0.68 -2.190994,1.019997 -3.875,1.019997c-0.914001,0 -1.709,-0.048996 -2.383987,-0.147999s-1.364014,-0.279999 -2.067001,-0.542999l0,-3.433002c0.659988,0.292 1.383987,0.534004 2.17099,0.724003c0.787003,0.189999 1.488998,0.285 2.106003,0.285c0.921005,0 1.382004,-0.212002 1.382004,-0.636002c0,-0.219002 -0.128998,-0.415001 -0.386002,-0.585999c-0.257996,-0.172001 -1.007004,-0.506001 -2.248001,-1.004002c-1.132004,-0.467999 -1.923004,-1 -2.373001,-1.595999c-0.449005,-0.596001 -0.675003,-1.351 -0.675003,-2.265001c0,-1.154999 0.442001,-2.055 1.328003,-2.697998c0.884995,-0.644001 2.137009,-0.965 3.755005,-0.965c0.813004,0 1.576004,0.09 2.291,0.268999s1.457001,0.440001 2.22699,0.784l-1.153992,2.764c-0.565002,-0.256001 -1.164001,-0.473 -1.796005,-0.652c-0.630997,-0.178999 -1.145996,-0.268999 -1.54599,-0.268999c-0.695999,0 -1.044006,0.171999 -1.044006,0.515999c0,0.212 0.121002,0.393 0.363998,0.543001s0.945007,0.455 2.106003,0.915998c0.862991,0.358002 1.507004,0.709002 1.931992,1.053001s0.736008,0.747999 0.936005,1.212c0.199997,0.462999 0.300003,1.028002 0.300003,1.692999z" fill="#4E4E4E"/>
    <path id="svg_9" d="m181.604996,34.154999c0.572998,0 1.259003,-0.142998 2.057999,-0.428001l0,3.126003c-0.572998,0.249001 -1.118988,0.425999 -1.638992,0.532001c-0.518997,0.104996 -1.126007,0.158997 -1.822006,0.158997c-1.429993,0 -2.459991,-0.353001 -3.091995,-1.057999c-0.630997,-0.706001 -0.945999,-1.790001 -0.945999,-3.251999l0,-5.122002l-1.490997,0l0,-1.743999l1.893997,-1.348999l1.100006,-2.610001l2.785995,0l0,2.49l3.024994,0l0,3.212999l-3.024994,0l0,4.837002c-0.001007,0.803997 0.384003,1.205997 1.151993,1.205997z" fill="#4E4E4E"/>
   </g>
   <g id="svg_21">
    <path id="svg_22" d="m55.570999,28.313l6.922001,0l0,8.644001c-1.879002,0.643997 -3.945,0.965 -6.198002,0.965c-2.471996,0 -4.382,-0.716 -5.730999,-2.150002c-1.348999,-1.432999 -2.023998,-3.477001 -2.023998,-6.132c0,-2.588999 0.738998,-4.602999 2.216,-6.043999c1.477001,-1.440001 3.547001,-2.161001 6.208,-2.161001c1.008999,0 1.961998,0.094999 2.857998,0.285c0.896,0.190001 1.676003,0.432001 2.342003,0.724001l-1.371002,3.4c-1.155998,-0.57 -2.424,-0.855 -3.806999,-0.855c-1.264999,0 -2.243,0.412001 -2.934002,1.233999c-0.690998,0.823 -1.036999,1.999001 -1.036999,3.527c0,1.499001 0.313,2.641998 0.938,3.428001c0.625,0.785999 1.526001,1.179001 2.704002,1.179001c0.643997,0 1.236,-0.062004 1.776997,-0.187l0,-2.512001l-2.862999,0l0,-3.345001z" fill="#4E4E4E"/>
    <path id="svg_23" d="m78.026001,29.344c0,2.676001 -0.737,4.739 -2.209999,6.186998s-3.544998,2.172001 -6.214005,2.172001l-5.187996,0l0,-16.036999l5.550995,0c2.574005,0 4.561005,0.658001 5.961006,1.975s2.099998,3.216999 2.099998,5.702999zm-4.497002,0.153999c0,-1.469999 -0.291,-2.559999 -0.872002,-3.268999c-0.582001,-0.709 -1.463997,-1.064001 -2.648994,-1.064001l-1.262001,0l0,8.983004l0.964996,0c1.316002,0 2.281998,-0.382004 2.896004,-1.146004s0.921997,-1.931999 0.921997,-3.504z" fill="#4E4E4E"/>
    <path id="svg_24" d="m85.990997,28.313l6.922005,0l0,8.644001c-1.879005,0.643997 -3.945,0.965 -6.198006,0.965c-2.472,0 -4.381996,-0.716 -5.730995,-2.150002c-1.348999,-1.432999 -2.024002,-3.477001 -2.024002,-6.132c0,-2.588999 0.738998,-4.602999 2.216003,-6.043999c1.476997,-1.440001 3.546997,-2.161001 6.208,-2.161001c1.008995,0 1.961998,0.094999 2.857994,0.285c0.896004,0.190001 1.676003,0.432001 2.342003,0.724001l-1.371002,3.4c-1.155998,-0.57 -2.423996,-0.855 -3.806999,-0.855c-1.264999,0 -2.242996,0.412001 -2.933998,1.233999c-0.691002,0.823 -1.037003,1.999001 -1.037003,3.527c0,1.499001 0.313004,2.641998 0.938004,3.428001c0.625,0.785999 1.526001,1.179001 2.704002,1.179001c0.643997,0 1.236,-0.062004 1.776993,-0.187l0,-2.512001l-2.862999,0l0,-3.345001z" fill="#4E4E4E"/>
   </g>
   <radialGradient gradientUnits="userSpaceOnUse" gradientTransform="matrix(0.498 0 0 0.498 172.2891 79.7388)" r="20.1137" cy="-60.055" cx="-310.583" id="SVGID_1_">
    <stop stop-color="#FFCF4F" offset="0"/>
    <stop stop-color="#F4C236" offset="1"/>
   </radialGradient>
   <path id="svg_25" d="m8.91,61l6.791,0c1.607,0 3.604,-1.127998 4.431999,-2.511002l5.720001,-9.518997c0.677,-1.396 0.653,-3.426003 -0.119001,-4.713001l-3.377998,-5.591999l-13.446001,22.334999z" fill="url(#SVGID_1_)"/>
   <radialGradient gradientUnits="userSpaceOnUse" gradientTransform="matrix(0.498 0 0 0.498 172.2891 79.7388)" r="27.6582" cy="-70.2695" cx="-322.6347" id="SVGID_2_">
    <stop stop-color="#08A960" offset="0"/>
    <stop stop-color="#07914B" offset="1"/>
   </radialGradient>
   <path id="svg_26" d="m16.209,33.514l-15.101,25.249001c-0.584,1.248001 0.023,2.237 1.521,2.237l6.281,0l13.446001,-22.334999l-6.146002,-10.173c0.829,1.378 0.829,3.638 -0.000999,5.021999" fill="url(#SVGID_2_)"/>
   <radialGradient gradientUnits="userSpaceOnUse" gradientTransform="matrix(0.498 0 0 0.498 172.2891 79.7388)" r="40.54" cy="-109.9511" cx="-313.1831" id="SVGID_3_">
    <stop stop-color="#567FC0" offset="0"/>
    <stop stop-color="#557FC0" offset="1"/>
   </radialGradient>
   <path id="svg_27" d="m2.629,1c-1.614,0 -2.254,1.133 -1.424,2.511l24.528999,40.745001c0.772001,1.287998 0.795,3.317001 0.119001,4.713001l5.962999,-9.925003l-22.902,-38.043999l-6.285,0z" fill="url(#SVGID_3_)"/>
   <radialGradient gradientUnits="userSpaceOnUse" gradientTransform="matrix(0.498 0 0 0.498 172.2891 79.7388)" r="33.0584" cy="-119.9164" cx="-301.1191" id="SVGID_4_">
    <stop stop-color="#E14C40" offset="0"/>
    <stop stop-color="#CD392D" offset="1"/>
   </radialGradient>
   <path id="svg_28" d="m8.914,1l22.903,38.044998l3.321001,-5.529999c0.829998,-1.384998 0.829998,-3.644999 0,-5.022999l-15.005001,-24.981001c-0.827999,-1.378 -2.824999,-2.511 -4.431999,-2.511l-6.787001,0z" fill="url(#SVGID_4_)"/>
  </g>
  <g id="svg_29">
   <g id="svg_30">
    <path id="svg_31" d="m115.912003,89.967003c0,2.676994 -0.731003,4.737999 -2.193001,6.186996c-1.461998,1.446999 -3.518005,2.170998 -6.166,2.170998l-5.148003,0l0,-16.034996l5.507004,0c2.554001,0 4.526001,0.656998 5.916,1.973999s2.084,3.217003 2.084,5.703003zm-4.462006,0.153c0,-1.469002 -0.288994,-2.559006 -0.865997,-3.268005c-0.576996,-0.709999 -1.453003,-1.063995 -2.627998,-1.063995l-1.250999,0l0,8.981995l0.958,0c1.306,0 2.264,-0.381996 2.874001,-1.145996c0.607994,-0.764 0.912994,-1.931999 0.912994,-3.503998z" fill="#4E4E4E"/>
    <path id="svg_32" d="m123.128998,98.543999c-2.053001,0 -3.645996,-0.549995 -4.782997,-1.650002c-1.136002,-1.100998 -1.704002,-2.667 -1.704002,-4.699997c0,-2.098999 0.526001,-3.709 1.578003,-4.831001c1.053001,-1.122002 2.555,-1.683998 4.505997,-1.683998c1.857002,0 3.292999,0.487999 4.305,1.463997c1.012001,0.977005 1.519997,2.382004 1.519997,4.218002l0,1.907997l-7.608994,0c0.028999,0.694 0.280998,1.239006 0.757996,1.634003c0.475006,0.396004 1.121002,0.593002 1.941002,0.593002c0.748001,0 1.436005,-0.070999 2.063004,-0.214005c0.628998,-0.142998 1.308998,-0.385994 2.041,-0.728996l0,3.082001c-0.667999,0.343994 -1.357002,0.581001 -2.068001,0.712997c-0.712006,0.129997 -1.560005,0.195999 -2.548004,0.195999zm-0.25,-9.947998c-0.5,0 -0.919998,0.158997 -1.255997,0.477997c-0.337997,0.318001 -0.537003,0.817001 -0.594002,1.497002l3.655998,0c-0.014,-0.599998 -0.183998,-1.078003 -0.505997,-1.436996s-0.754997,-0.538002 -1.300003,-0.538002z" fill="#4E4E4E"/>
    <path id="svg_33" d="m132.850998,98.323997l-4.701996,-12.425995l4.440002,0l2.089996,7.348c0.007996,0.036995 0.022003,0.098999 0.044006,0.186996s0.042999,0.192001 0.064987,0.313004c0.021011,0.120995 0.041,0.249001 0.060013,0.383995c0.01799,0.136002 0.026993,0.262001 0.026993,0.379005l0.076004,0c0,-0.380005 0.065002,-0.792999 0.194992,-1.239006l2.188004,-7.369995l4.430008,0l-4.702011,12.425995l-4.210999,0l0,-0.001999z" fill="#4E4E4E"/>
    <path id="svg_34" d="m146.380997,98.323997l-4.233994,0l0,-16.033997l9.403992,0l0,3.476997l-5.169998,0l0,3.060005l4.766998,0l0,3.476997l-4.766998,0l0,6.019997z" fill="#4E4E4E"/>
    <path id="svg_35" d="m158.528,98.543999c-2.054001,0 -3.647003,-0.549995 -4.783005,-1.650002s-1.702988,-2.667 -1.702988,-4.699997c0,-2.098999 0.524994,-3.709 1.577988,-4.831001c1.052002,-1.122002 2.554001,-1.683998 4.506012,-1.683998c1.856995,0 3.291992,0.487999 4.304993,1.463997c1.011993,0.977005 1.518997,2.382004 1.518997,4.218002l0,1.907997l-7.608002,0c0.029007,0.694 0.281006,1.239006 0.757004,1.634003c0.475006,0.396004 1.121994,0.593002 1.942001,0.593002c0.746994,0 1.434998,-0.070999 2.063004,-0.214005s1.307999,-0.385994 2.041,-0.728996l0,3.082001c-0.667999,0.343994 -1.35701,0.581001 -2.068008,0.712997c-0.712997,0.129997 -1.560989,0.195999 -2.548996,0.195999zm-0.25,-9.947998c-0.501007,0 -0.919998,0.158997 -1.257004,0.477997c-0.337997,0.318001 -0.535995,0.817001 -0.593994,1.497002l3.656998,0c-0.014999,-0.599998 -0.184006,-1.078003 -0.505997,-1.436996c-0.322006,-0.359001 -0.755997,-0.538002 -1.300003,-0.538002z" fill="#4E4E4E"/>
    <path id="svg_36" d="m174.541,94.508003c0,1.330994 -0.449997,2.335999 -1.350006,3.015999c-0.899994,0.681 -2.190994,1.020996 -3.875,1.020996c-0.914001,0 -1.709,-0.049995 -2.383987,-0.147995s-1.364014,-0.279007 -2.067001,-0.543007l0,-3.433998c0.659988,0.292999 1.383987,0.534004 2.17099,0.723999c0.787003,0.190002 1.488998,0.285004 2.106003,0.285004c0.921005,0 1.382004,-0.211998 1.382004,-0.636002c0,-0.220001 -0.128998,-0.415001 -0.386002,-0.586998c-0.257996,-0.172005 -1.007004,-0.506004 -2.248001,-1.003998c-1.132004,-0.468002 -1.923004,-0.999001 -2.373001,-1.596001c-0.449005,-0.596001 -0.675003,-1.351006 -0.675003,-2.264999c0,-1.155006 0.442001,-2.055 1.328003,-2.698006c0.884995,-0.643997 2.137009,-0.964996 3.755005,-0.964996c0.813004,0 1.576004,0.089996 2.291,0.268997c0.714996,0.18 1.457001,0.440002 2.22699,0.784004l-1.153992,2.764c-0.565002,-0.256004 -1.164001,-0.473 -1.796005,-0.652c-0.630997,-0.179001 -1.145996,-0.269005 -1.54599,-0.269005c-0.695999,0 -1.044006,0.172005 -1.044006,0.515999c0,0.212006 0.121002,0.393005 0.363998,0.543007c0.242996,0.148994 0.945007,0.454994 2.106003,0.914993c0.862991,0.358002 1.507004,0.710007 1.931992,1.054001s0.736008,0.747002 0.936005,1.212006c0.199997,0.462997 0.300003,1.028999 0.300003,1.694z" fill="#4E4E4E"/>
    <path id="svg_37" d="m181.604996,95.153999c0.572998,0 1.259003,-0.142998 2.057999,-0.428001l0,3.125999c-0.572998,0.249001 -1.118988,0.427002 -1.638992,0.532005c-0.518997,0.104996 -1.126007,0.158997 -1.822006,0.158997c-1.429993,0 -2.459991,-0.352997 -3.091995,-1.058998c-0.630997,-0.705002 -0.945999,-1.789001 -0.945999,-3.251999l0,-5.122002l-1.490997,0l0,-1.743004l1.893997,-1.349998l1.100006,-2.610001l2.785995,0l0,2.490005l3.024994,0l0,3.212997l-3.024994,0l0,4.836998c-0.001007,0.806 0.384003,1.207001 1.151993,1.207001z" fill="#4E4E4E"/>
   </g>
   <g id="svg_49">
    <path id="svg_50" d="m55.570999,89.313004l6.922001,0l0,8.643997c-1.879002,0.643997 -3.945,0.965996 -6.198002,0.965996c-2.471996,0 -4.382,-0.716995 -5.730999,-2.149994c-1.348999,-1.433006 -2.023998,-3.477005 -2.023998,-6.132004c0,-2.588997 0.738998,-4.602997 2.216,-6.043999c1.477001,-1.440002 3.547001,-2.161003 6.208,-2.161003c1.008999,0 1.961998,0.096001 2.857998,0.285004c0.896,0.190002 1.676003,0.431999 2.342003,0.724998l-1.371002,3.400002c-1.155998,-0.57 -2.424,-0.855003 -3.806999,-0.855003c-1.264999,0 -2.243,0.411003 -2.934002,1.233002c-0.690998,0.822998 -1.036999,1.999001 -1.036999,3.527c0,1.499001 0.313,2.641998 0.938,3.428001c0.625,0.785995 1.526001,1.179001 2.704002,1.179001c0.643997,0 1.236,-0.062004 1.776997,-0.187004l0,-2.512001l-2.862999,0l0,-3.345993z" fill="#4E4E4E"/>
    <path id="svg_51" d="m78.026001,90.344002c0,2.677002 -0.737,4.738998 -2.209999,6.186996c-1.473999,1.447998 -3.544998,2.172005 -6.214005,2.172005l-5.187996,0l0,-16.038002l5.550995,0c2.574005,0 4.561005,0.657997 5.961006,1.974998s2.099998,3.217003 2.099998,5.704002zm-4.497002,0.153c0,-1.470001 -0.291,-2.560005 -0.872002,-3.269005s-1.463997,-1.062996 -2.648994,-1.062996l-1.262001,0l0,8.983002l0.964996,0c1.316002,0 2.281998,-0.382004 2.896004,-1.146004c0.614998,-0.764 0.921997,-1.932999 0.921997,-3.504997z" fill="#4E4E4E"/>
    <path id="svg_52" d="m85.990997,89.313004l6.922005,0l0,8.643997c-1.879005,0.643997 -3.945,0.965996 -6.198006,0.965996c-2.472,0 -4.381996,-0.716995 -5.730995,-2.149994c-1.348999,-1.433006 -2.024002,-3.477005 -2.024002,-6.132004c0,-2.588997 0.738998,-4.602997 2.216003,-6.043999c1.476997,-1.440002 3.546997,-2.161003 6.208,-2.161003c1.008995,0 1.961998,0.096001 2.857994,0.285004c0.896004,0.190002 1.676003,0.431999 2.342003,0.724998l-1.371002,3.400002c-1.155998,-0.57 -2.423996,-0.855003 -3.806999,-0.855003c-1.264999,0 -2.242996,0.411003 -2.933998,1.233002c-0.691002,0.822998 -1.037003,1.999001 -1.037003,3.527c0,1.499001 0.313004,2.641998 0.938004,3.428001c0.625,0.785995 1.526001,1.179001 2.704002,1.179001c0.643997,0 1.236,-0.062004 1.776993,-0.187004l0,-2.512001l-2.862999,0l0,-3.345993z" fill="#4E4E4E"/>
   </g>
   <radialGradient transform="translate(1,0) " gradientUnits="userSpaceOnUse" gradientTransform="matrix(0.498 0 0 0.498 172.2891 79.7388)" r="20.1137" cy="66.4552" cx="-310.583" id="SVGID_5_">
    <stop stop-color="#CCCCCC" offset="0"/>
    <stop stop-color="#C0C0C0" offset="1"/>
   </radialGradient>
   <path id="svg_53" d="m9.91,124l6.791,0c1.607,0 3.604,-1.127998 4.431999,-2.511002l5.720001,-9.518997c0.677,-1.396004 0.653,-3.426003 -0.119001,-4.712997l-3.377998,-5.592003l-13.446001,22.334999z" fill="url(#SVGID_5_)"/>
   <radialGradient transform="translate(1,0) " gradientUnits="userSpaceOnUse" gradientTransform="matrix(0.498 0 0 0.498 172.2891 79.7388)" r="27.6582" cy="56.2407" cx="-322.6347" id="SVGID_6_">
    <stop stop-color="#A0A0A0" offset="0"/>
    <stop stop-color="#7B7B7B" offset="1"/>
   </radialGradient>
   <path id="svg_54" d="m17.209,96.514l-15.101,25.249001c-0.584,1.248001 0.023,2.237 1.521,2.237l6.281,0l13.446001,-22.334999l-6.146002,-10.173004c0.829,1.378006 0.829,3.638 -0.000999,5.022003" fill="url(#SVGID_6_)"/>
   <radialGradient transform="translate(1,0) " gradientUnits="userSpaceOnUse" gradientTransform="matrix(0.498 0 0 0.498 172.2891 79.7388)" r="40.54" cy="16.559" cx="-313.1831" id="SVGID_7_">
    <stop stop-color="#848484" offset="0"/>
    <stop stop-color="#838383" offset="1"/>
   </radialGradient>
   <path id="svg_55" d="m3.629,64c-1.613,0 -2.254,1.133003 -1.424,2.511002l24.528999,40.744995c0.772001,1.288002 0.795,3.317001 0.119001,4.713005l5.962997,-9.925003l-22.901999,-38.043999l-6.285,0z" fill="url(#SVGID_7_)"/>
   <radialGradient transform="translate(1,0) " gradientUnits="userSpaceOnUse" gradientTransform="matrix(0.498 0 0 0.498 172.2891 79.7388)" r="33.0584" cy="6.5938" cx="-301.1191" id="SVGID_8_">
    <stop stop-color="#626262" offset="0"/>
    <stop stop-color="#474747" offset="1"/>
   </radialGradient>
   <path id="svg_56" d="m9.914,64l22.903002,38.044998l3.320999,-5.529999c0.829998,-1.385002 0.829998,-3.644997 0,-5.023003l-15.004,-24.979996c-0.829,-1.378998 -2.826,-2.512001 -4.433001,-2.512001l-6.787001,0z" fill="url(#SVGID_8_)"/>
  </g>
  <g id="svg_57">
   <g id="svg_58">
    <path id="svg_59" d="m116.070999,152.966995c0,2.67601 -0.731003,4.738007 -2.193001,6.186005c-1.461998,1.447998 -3.517998,2.171997 -6.166,2.171997l-5.147995,0l0,-16.035004l5.506996,0c2.554001,0 4.526001,0.658005 5.916,1.975006s2.084,3.214996 2.084,5.701996zm-4.462997,0.153c0,-1.470001 -0.289001,-2.55899 -0.866005,-3.268997c-0.576996,-0.709 -1.452995,-1.063004 -2.627998,-1.063004l-1.250999,0l0,8.98201l0.958,0c1.306,0 2.264,-0.382004 2.874001,-1.146011c0.608002,-0.763992 0.913002,-1.931992 0.913002,-3.503998z" fill="#E6E6E5"/>
    <path id="svg_60" d="m123.287003,161.544006c-2.053001,0 -3.646004,-0.550995 -4.782005,-1.651001c-1.135994,-1.099991 -1.703995,-2.666992 -1.703995,-4.69899c0,-2.098999 0.526001,-3.709 1.577995,-4.831009c1.052002,-1.123001 2.554001,-1.68399 4.505005,-1.68399c1.856995,0 3.292999,0.487 4.305,1.463989s1.519997,2.382004 1.519997,4.21701l0,1.908997l-7.609001,0c0.028999,0.694 0.280998,1.238998 0.758003,1.634003c0.474998,0.394989 1.120995,0.591995 1.941002,0.591995c0.747993,0 1.435997,-0.070999 2.062996,-0.214005c0.628998,-0.14299 1.308998,-0.384995 2.041,-0.728989l0,3.080994c-0.667999,0.343994 -1.357002,0.582001 -2.068001,0.712997c-0.711998,0.131989 -1.559998,0.197998 -2.547997,0.197998zm-0.25,-9.948013c-0.5,0 -0.920006,0.158997 -1.256004,0.477997c-0.337997,0.317001 -0.536995,0.815994 -0.594002,1.496994l3.656006,0c-0.014,-0.599991 -0.184006,-1.078995 -0.506004,-1.437988c-0.320999,-0.358002 -0.754997,-0.537003 -1.299995,-0.537003z" fill="#E6E6E5"/>
    <path id="svg_61" d="m133.009003,161.324005l-4.701996,-12.427002l4.439987,0l2.090012,7.349014c0.007996,0.036987 0.021988,0.098999 0.043991,0.186996s0.042999,0.192001 0.065002,0.313004c0.020996,0.120987 0.041,0.248993 0.059998,0.383987c0.018005,0.136002 0.027008,0.262009 0.027008,0.378998l0.075989,0c0,-0.380997 0.065002,-0.793991 0.195007,-1.238998l2.188004,-7.370987l4.429993,0l-4.701996,12.426987l-4.210999,0l0,-0.001999z" fill="#E6E6E5"/>
    <path id="svg_62" d="m146.539001,161.324005l-4.234009,0l0,-16.034988l9.404007,0l0,3.477997l-5.169998,0l0,3.059998l4.766998,0l0,3.477005l-4.766998,0l0,6.019989z" fill="#E6E6E5"/>
    <path id="svg_63" d="m158.686996,161.544006c-2.054001,0 -3.647003,-0.550995 -4.78299,-1.651001c-1.136002,-1.099991 -1.703003,-2.666992 -1.703003,-4.69899c0,-2.098999 0.524994,-3.709 1.578003,-4.831009c1.051987,-1.123001 2.553986,-1.68399 4.505997,-1.68399c1.856995,0 3.291992,0.487 4.304993,1.463989c1.012009,0.977005 1.518997,2.382004 1.518997,4.21701l0,1.908997l-7.607986,0c0.028992,0.694 0.280991,1.238998 0.756989,1.634003c0.475006,0.394989 1.122009,0.591995 1.942001,0.591995c0.747009,0 1.434998,-0.070999 2.063004,-0.214005s1.307999,-0.384995 2.041,-0.728989l0,3.080994c-0.667999,0.343994 -1.356995,0.582001 -2.068008,0.712997c-0.713989,0.131989 -1.561996,0.197998 -2.548996,0.197998zm-0.25,-9.948013c-0.500992,0 -0.919998,0.158997 -1.257004,0.477997c-0.337997,0.317001 -0.535995,0.815994 -0.593994,1.496994l3.656998,0c-0.014999,-0.599991 -0.18399,-1.078995 -0.505997,-1.437988c-0.322998,-0.358002 -0.757004,-0.537003 -1.300003,-0.537003z" fill="#E6E6E5"/>
    <path id="svg_64" d="m174.699005,157.507996c0,1.330002 -0.449997,2.335999 -1.349991,3.016006c-0.900009,0.679993 -2.19101,1.020996 -3.875,1.020996c-0.914001,0 -1.709,-0.050003 -2.384003,-0.147995s-1.364014,-0.279007 -2.067001,-0.542999l0,-3.432999c0.660004,0.291992 1.384003,0.53299 2.171005,0.723999s1.488998,0.284988 2.105988,0.284988c0.921005,0 1.382004,-0.21199 1.382004,-0.635986c0,-0.220001 -0.128998,-0.415009 -0.386002,-0.587006c-0.257996,-0.171997 -1.006989,-0.507004 -2.248001,-1.003998c-1.131989,-0.468002 -1.922989,-1 -2.373001,-1.596008c-0.44899,-0.595993 -0.674988,-1.350998 -0.674988,-2.264999c0,-1.154999 0.442001,-2.054993 1.327988,-2.697998c0.88501,-0.643997 2.137009,-0.964996 3.755005,-0.964996c0.813004,0 1.576004,0.089005 2.291,0.268997c0.714996,0.179001 1.457001,0.440002 2.227005,0.783997l-1.154007,2.764008c-0.565002,-0.255997 -1.164001,-0.473999 -1.79599,-0.652008c-0.631012,-0.179993 -1.146011,-0.268997 -1.546005,-0.268997c-0.695999,0 -1.044006,0.171997 -1.044006,0.516006c0,0.21199 0.121002,0.39299 0.363998,0.541992c0.243011,0.150009 0.945007,0.456009 2.106003,0.916c0.863007,0.358002 1.507004,0.710007 1.932007,1.053009c0.425003,0.343994 0.735992,0.748001 0.936005,1.21199c0.200989,0.462997 0.299988,1.028 0.299988,1.694z" fill="#E6E6E5"/>
    <path id="svg_65" d="m181.764008,158.154007c0.572998,0 1.259003,-0.14299 2.057999,-0.427994l0,3.125992c-0.572998,0.249008 -1.119003,0.42601 -1.638992,0.531998c-0.518997,0.105011 -1.126007,0.159012 -1.822006,0.159012c-1.429993,0 -2.459991,-0.354004 -3.091995,-1.059006c-0.630997,-0.705994 -0.945999,-1.789993 -0.945999,-3.251999l0,-5.121994l-1.490997,0l0,-1.744003l1.893997,-1.348999l1.099991,-2.610001l2.786011,0l0,2.488998l3.024994,0l0,3.214005l-3.024994,0l0,4.83699c-0.002014,0.806 0.38298,1.207001 1.151993,1.207001z" fill="#E6E6E5"/>
   </g>
   <g id="svg_77">
    <path id="svg_78" d="m55.729,152.313004l6.922001,0l0,8.643997c-1.879002,0.643997 -3.945,0.966003 -6.198002,0.966003c-2.472,0 -4.382,-0.71701 -5.730999,-2.150009s-2.023998,-3.477997 -2.023998,-6.131989c0,-2.589005 0.738998,-4.604004 2.216,-6.044006s3.546997,-2.160995 6.208,-2.160995c1.008999,0 1.961998,0.095993 2.857998,0.284988c0.896,0.190002 1.675999,0.432007 2.341999,0.725006l-1.370998,3.399994c-1.156002,-0.569992 -2.424,-0.854996 -3.806999,-0.854996c-1.264999,0 -2.243,0.410995 -2.934002,1.233002c-0.690998,0.822998 -1.036999,1.998001 -1.036999,3.526001c0,1.5 0.313,2.643005 0.938,3.429001c0.625,0.785995 1.526001,1.179001 2.703999,1.179001c0.644001,0 1.236,-0.061996 1.777,-0.186996l0,-2.512009l-2.862999,0l0,-3.345993z" fill="#E6E6E5"/>
    <path id="svg_79" d="m78.184998,153.345001c0,2.677002 -0.737,4.737991 -2.209999,6.186996s-3.544998,2.171997 -6.213997,2.171997l-5.188004,0l0,-16.036987l5.551003,0c2.573997,0 4.560997,0.65799 5.960999,1.974991s2.099998,3.216003 2.099998,5.703003zm-4.496994,0.153c0,-1.470001 -0.291,-2.559998 -0.872002,-3.268997s-1.464005,-1.064011 -2.649002,-1.064011l-1.262001,0l0,8.984009l0.965004,0c1.315994,0 2.281998,-0.382996 2.895996,-1.145996c0.613998,-0.764999 0.922005,-1.932999 0.922005,-3.505005z" fill="#E6E6E5"/>
    <path id="svg_80" d="m86.150002,152.313004l6.921997,0l0,8.643997c-1.878998,0.643997 -3.945,0.966003 -6.197998,0.966003c-2.472,0 -4.382004,-0.71701 -5.731003,-2.150009s-2.023994,-3.477997 -2.023994,-6.131989c0,-2.589005 0.738998,-4.604004 2.215996,-6.044006s3.547005,-2.160995 6.208,-2.160995c1.009003,0 1.961998,0.095993 2.858002,0.284988c0.895996,0.190002 1.676003,0.432007 2.341995,0.725006l-1.370995,3.399994c-1.155998,-0.569992 -2.424004,-0.854996 -3.806999,-0.854996c-1.264999,0 -2.243004,0.410995 -2.934006,1.233002c-0.690994,0.822998 -1.036995,1.998001 -1.036995,3.526001c0,1.5 0.312996,2.643005 0.937996,3.429001c0.625,0.785995 1.526001,1.179001 2.704002,1.179001c0.643997,0 1.236,-0.061996 1.777,-0.186996l0,-2.512009l-2.862999,0l0,-3.345993z" fill="#E6E6E5"/>
   </g>
   <radialGradient gradientUnits="userSpaceOnUse" gradientTransform="matrix(0.498 0 0 0.498 172.2891 79.7388)" r="20.1137" cy="192.9653" cx="-310.265" id="SVGID_9_">
    <stop stop-color="#FFCF4F" offset="0"/>
    <stop stop-color="#F4C236" offset="1"/>
   </radialGradient>
   <path id="svg_81" d="m9.068,187l6.791,0c1.606999,0 3.603999,-1.128006 4.432,-2.511002l5.719999,-9.518997c0.677,-1.395996 0.653,-3.425995 -0.118999,-4.712997l-3.378,-5.59201l-13.446,22.335007z" fill="url(#SVGID_9_)"/>
   <radialGradient gradientUnits="userSpaceOnUse" gradientTransform="matrix(0.498 0 0 0.498 172.2891 79.7388)" r="27.6582" cy="182.7508" cx="-322.3167" id="SVGID_10_">
    <stop stop-color="#08A960" offset="0"/>
    <stop stop-color="#07914B" offset="1"/>
   </radialGradient>
   <path id="svg_82" d="m16.368,159.514008l-15.102,25.248993c-0.583,1.248001 0.023,2.237 1.521,2.237l6.281,0l13.446,-22.335007l-6.146,-10.172989c0.829,1.377991 0.829,3.638 0,5.022003" fill="url(#SVGID_10_)"/>
   <radialGradient gradientUnits="userSpaceOnUse" gradientTransform="matrix(0.498 0 0 0.498 172.2891 79.7388)" r="40.54" cy="143.0691" cx="-312.8651" id="SVGID_11_">
    <stop stop-color="#567FC0" offset="0"/>
    <stop stop-color="#557FC0" offset="1"/>
   </radialGradient>
   <path id="svg_83" d="m2.787,127c-1.613,0 -2.254,1.132996 -1.424,2.511002l24.529,40.744995c0.771999,1.28801 0.795,3.317001 0.118999,4.712997l5.963001,-9.924988l-22.902001,-38.044006l-6.285,0z" fill="url(#SVGID_11_)"/>
   <radialGradient gradientUnits="userSpaceOnUse" gradientTransform="matrix(0.498 0 0 0.498 172.2891 79.7388)" r="33.0584" cy="133.1039" cx="-300.8011" id="SVGID_12_">
    <stop stop-color="#E14C40" offset="0"/>
    <stop stop-color="#CD392D" offset="1"/>
   </radialGradient>
   <path id="svg_84" d="m9.072,127l22.903001,38.044998l3.321001,-5.529999c0.829998,-1.384995 0.829998,-3.645004 0,-5.022995l-15.004002,-24.981003c-0.829,-1.378006 -2.825001,-2.511002 -4.432,-2.511002l-6.788,0z" fill="url(#SVGID_12_)"/>
  </g>
 </g>
</svg>