<?xml version="1.0" encoding="utf-8"?>
<!-- Generator: Adobe Illustrator 19.0.0, SVG Export Plug-In . SVG Version: 6.00 Build 0)  -->
<svg version="1.1" id="Layer_1" xmlns="http://www.w3.org/2000/svg" xmlns:xlink="http://www.w3.org/1999/xlink" x="0px" y="0px"
	 viewBox="-564.1 308 218.8 186" style="enable-background:new -564.1 308 218.8 186;" xml:space="preserve">
<style type="text/css">
	.st0{fill:#15156E;}
	.st1{fill:#4F4F8A;}
	.st2{fill:#9F9FC3;}
	.st3{fill:#4A4AA6;}
	.st4{fill:#40409B;}
	.st5{fill:#B6B6E3;}
	.st6{fill:#8484CD;}
	.st7{fill:#303099;}
	.st8{fill:#7474A5;}
	.st9{fill:#8B8BCA;}
	.st10{fill:#6F6FA8;}
	.st11{fill:#5C5CB1;}
	.st12{fill:#1E1E7C;}
	.st13{fill:#252584;}
	.st14{fill:#CECEE6;}
	.st15{fill:#C7C7E1;}
	.st16{fill:#0A0A55;}
	.st17{fill:#9B9BC6;}
	.st18{fill:#F5F5F5;}
</style>
<g>
	<g id="XMLID_43_">
		<g id="XMLID_11_">
			<g id="XMLID_19_">
				<path id="XMLID_22_" class="st0" d="M-476.9,338.8c-4.7,0-6.5-1.6-7.3-2.3c-2.2-2-2.5-4.1-2.5-6.1v-0.2h3.4v0.2
					c0,4.8,4.4,5.3,6.3,5.3c1.8,0,6-0.4,6-3.8c0-2.3-0.9-3-4.9-4l-4.8-1.1c-4.3-1-5.2-3.7-5.2-5.8c0-3.5,2.2-7.5,8.3-7.5
					c6.1,0,9.2,2.6,9.4,7.7v0.2h-3.4v-0.2c-0.2-4.3-4.4-4.6-5.7-4.6c-1.9,0-5.2,0.5-5.2,4c0,1.9,1.4,2.5,2.7,2.8l6.8,1.6
					c3.6,0.8,5.5,3.1,5.5,6.5C-467.4,336.9-472.3,338.8-476.9,338.8z"/>
				<path id="XMLID_21_" class="st0" d="M-477.5,313.7c8.3,0,9.1,4.9,9.2,7.6h-3c-0.2-3.6-3.2-4.8-5.9-4.8c-2,0-5.4,0.6-5.4,4.2
					c0,2,1.4,2.7,2.8,3l6.8,1.6c3.1,0.7,5.4,2.6,5.4,6.3c0,5.6-5.2,7.1-9.3,7.1c-4.4,0-6.1-1.3-7.1-2.3c-2-1.8-2.4-3.8-2.4-6h3
					c0,4.3,3.5,5.5,6.5,5.5c2.3,0,6.2-0.6,6.2-4c0-2.5-1.1-3.2-5.1-4.2l-4.8-1.1c-1.6-0.4-5.1-1.5-5.1-5.6
					C-485.6,317.4-483.2,313.7-477.5,313.7 M-477.5,313.3c-6.3,0-8.5,4.2-8.5,7.7c0,2.1,0.9,4.9,5.4,6l4.8,1.1
					c3.9,0.9,4.7,1.6,4.7,3.8c0,3.2-4.1,3.6-5.8,3.6c-1.8,0-6.1-0.5-6.1-5.2V330h-0.4h-3h-0.4v0.4c0,2.1,0.3,4.3,2.6,6.3
					c1.3,1.1,3.2,2.4,7.4,2.4c1.4,0,4.1-0.2,6.4-1.5c2.2-1.3,3.3-3.4,3.3-6c0-3.5-2-5.8-5.7-6.7l-6.8-1.6c-1.7-0.4-2.5-1.2-2.5-2.6
					c0-3.2,3.1-3.8,5-3.8c1.3,0,5.3,0.3,5.5,4.4v0.4h0.4h3h0.4v-0.4c-0.1-1.4-0.3-3.3-1.7-5C-471.1,314.3-473.8,313.3-477.5,313.3
					L-477.5,313.3z"/>
			</g>
			<g id="XMLID_25_">
				<polygon id="XMLID_17_" class="st0" points="-463.4,338.2 -463.4,314.1 -445.8,314.1 -445.8,317.4 -459.9,317.4 -459.9,324.3 
					-446.9,324.3 -446.9,327.5 -459.9,327.5 -459.9,335 -445.6,335 -445.6,338.2 				"/>
				<path id="XMLID_16_" class="st0" d="M-446,314.4v2.9h-14v7.2h13v2.9h-13v7.9h14.3v2.8h-17.4v-23.7H-446 M-445.6,313.9h-0.4
					h-17.2h-0.4v0.4V338v0.4h0.4h17.4h0.4V338v-2.9v-0.4h-0.4h-13.9v-7h12.6h0.4v-0.4v-2.9V324h-0.4h-12.6v-6.4h13.6h0.4v-0.4v-2.9
					L-445.6,313.9L-445.6,313.9z"/>
			</g>
			<g id="XMLID_27_">
				<path id="XMLID_14_" class="st0" d="M-432,338.8c-5.3,0-10.8-3.3-10.8-12.8c0-7.6,4.4-12.5,11.3-12.5c6.7,0,9.5,4.3,9.9,7.9v0.2
					h-3.5l-0.1-0.2c-0.9-4.1-4.4-4.7-6.4-4.7c-4.6,0-7.6,3.6-7.6,9.2c0,6.4,2.6,9.6,7.6,9.6c1.6,0,5.4-0.6,6.6-6.3l0.1-0.2h3.5
					l-0.1,0.2C-422.8,338.2-429.9,338.8-432,338.8z"/>
				<path id="XMLID_238_" class="st0" d="M-431.6,313.7c6.1,0,9.3,3.8,9.7,7.8h-3.1c-0.9-4.2-4.4-4.9-6.6-4.9
					c-4.3,0-7.8,3.2-7.8,9.4c0,5.6,2,9.8,7.8,9.8c2.1,0,5.7-1,6.8-6.5h3.1c-1.3,8.9-8.5,9.3-10.4,9.3c-5.4,0-10.6-3.5-10.6-12.6
					C-442.7,318.8-438.5,313.7-431.6,313.7 M-431.6,313.3c-3.4,0-6.4,1.3-8.4,3.6c-2,2.3-3,5.4-3,9.2c0,9.6,5.7,13,11,13
					c1.1,0,3.4-0.2,5.5-1.4c2.9-1.6,4.6-4.4,5.2-8.3l0.1-0.5h-0.5h-3.1h-0.4l-0.1,0.3c-1.1,5.6-4.8,6.1-6.4,6.1
					c-4.9,0-7.4-3.2-7.4-9.4c0-5.5,2.9-9,7.3-9c2,0,5.4,0.6,6.2,4.6l0.1,0.3h0.3h3.1h0.5l-0.1-0.5c-0.3-2.2-1.3-4.2-2.9-5.6
					C-426.2,314.2-428.7,313.3-431.6,313.3L-431.6,313.3z"/>
			</g>
			<g id="XMLID_139_">
				<path id="XMLID_227_" class="st0" d="M-408.2,338.8c-5.3,0-10.8-3.3-10.8-12.8c0-7.6,4.4-12.5,11.2-12.5c6.7,0,9.5,4.3,9.9,7.9
					v0.2h-3.5l-0.1-0.2c-0.9-4.1-4.4-4.7-6.4-4.7c-4.6,0-7.6,3.6-7.6,9.2c0,6.4,2.6,9.6,7.6,9.6c1.6,0,5.4-0.6,6.6-6.3l0.1-0.2h3.5
					l-0.1,0.2C-399,338.2-406.1,338.8-408.2,338.8z"/>
				<path id="XMLID_222_" class="st0" d="M-407.8,313.7c6.1,0,9.3,3.8,9.7,7.8h-3.1c-0.9-4.2-4.4-4.9-6.6-4.9
					c-4.3,0-7.8,3.2-7.8,9.4c0,5.6,2,9.8,7.8,9.8c2.1,0,5.7-1,6.8-6.5h3.1c-1.3,8.9-8.5,9.3-10.4,9.3c-5.4,0-10.6-3.5-10.6-12.6
					C-418.9,318.8-414.7,313.7-407.8,313.7 M-407.8,313.3c-3.4,0-6.4,1.3-8.4,3.6c-2,2.3-3,5.4-3,9.2c0,9.6,5.7,13,11,13
					c1.1,0,3.4-0.2,5.5-1.4c2.9-1.6,4.6-4.4,5.2-8.3l0.1-0.5h-0.5h-3.1h-0.3l-0.1,0.3c-1.1,5.6-4.8,6.1-6.4,6.1
					c-4.9,0-7.4-3.2-7.4-9.4c0-5.5,2.9-9,7.3-9c2,0,5.4,0.6,6.2,4.6l0.1,0.3h0.3h3.1h0.5l-0.1-0.5c-0.3-2.2-1.3-4.2-2.9-5.6
					C-402.4,314.2-404.9,313.3-407.8,313.3L-407.8,313.3z"/>
			</g>
			<g id="XMLID_141_">
				<path id="XMLID_269_" class="st0" d="M-383.8,338.8c-9.3,0-11.7-8-11.7-12.7s2.5-12.7,11.7-12.7s11.7,8,11.7,12.7
					S-374.5,338.8-383.8,338.8z M-383.8,316.8c-4.8,0-8,3.8-8,9.4s3.2,9.4,8,9.4c4.8,0,8-3.8,8-9.4
					C-375.7,320.6-378.9,316.8-383.8,316.8z"/>
				<path id="XMLID_252_" class="st0" d="M-383.8,313.7c8.9,0,11.5,7.3,11.5,12.4c0,5.1-2.7,12.4-11.5,12.4
					c-8.9,0-11.5-7.3-11.5-12.4C-395.3,321.1-392.6,313.7-383.8,313.7 M-383.8,335.8c5.2,0,8.2-4.1,8.2-9.6c0-5.6-3.1-9.6-8.2-9.6
					s-8.2,4.1-8.2,9.6C-392,331.8-388.9,335.8-383.8,335.8 M-383.8,313.3c-4.1,0-7.3,1.6-9.4,4.5c-1.6,2.2-2.6,5.3-2.6,8.4
					s0.9,6.1,2.6,8.4c2.1,2.9,5.4,4.5,9.4,4.5s7.3-1.6,9.4-4.5c1.6-2.2,2.6-5.3,2.6-8.4s-0.9-6.1-2.6-8.4
					C-376.4,314.9-379.7,313.3-383.8,313.3L-383.8,313.3z M-383.8,335.4c-4.7,0-7.8-3.6-7.8-9.2c0-5.6,3.1-9.2,7.8-9.2
					c4.7,0,7.8,3.6,7.8,9.2C-375.9,331.8-379,335.4-383.8,335.4L-383.8,335.4z"/>
			</g>
			<g id="XMLID_168_">
				<path id="XMLID_220_" class="st0" d="M-349.2,338.2V324c0-0.3,0-0.8,0-1.5c0-0.9,0.1-2.2,0.1-3.3l-6.4,19h-3.4l-6.4-19
					c0,1.1,0,2.3,0.1,3.3c0,0.7,0,1.3,0,1.5v14.2h-3.5v-24.1h4.9l6.7,19.6l6.6-19.6h4.9v24.1H-349.2z"/>
				<path id="XMLID_216_" class="st0" d="M-345.8,314.4V338h-3.1v-14c0-0.7,0.1-3.7,0.1-5.9h-0.1l-6.7,19.8h-3.2l-6.7-19.8h-0.1
					c0,2.2,0.1,5.2,0.1,5.9v14h-3.1v-23.6h4.6l6.8,20h0.1l6.7-20L-345.8,314.4 M-345.5,313.9h-0.4h-4.5h-0.3l-0.1,0.3l-6.4,19
					l-6.4-18.9l-0.1-0.3h-0.3h-4.6h-0.4v0.4v23.6v0.4h0.4h3.1h0.4v-0.4v-14c0-0.3,0-0.8,0-1.5c0-0.6,0-1.3,0-2l5.9,17.6l0.1,0.3h0.3
					h3.2h0.3l0.1-0.3l5.9-17.6c0,0.7,0,1.4,0,2c0,0.7,0,1.3,0,1.5v14v0.4h0.4h3.1h0.4v-0.4v-23.8L-345.5,313.9L-345.5,313.9z"/>
			</g>
		</g>
		<g id="XMLID_12_">
			<path id="XMLID_13_" class="st0" d="M-486.4,352.4c0-5.7,4.1-6.2,6-6.2c3,0,5.4,1.9,5.4,5.2c0,3.1-2,4.4-4.6,5.8l-1.8,1
				c-2.4,1.3-2.9,2.7-3,3.3h9.4v2h-11.9c0.1-3.6,1.8-5.5,4.1-6.9l2.3-1.4c1.9-1,3.2-1.8,3.2-4.1c0-1.4-0.9-3.1-3.4-3.1
				c-3.3,0-3.4,3.1-3.5,4.3H-486.4L-486.4,352.4z"/>
			<path id="XMLID_15_" class="st0" d="M-466.8,364c-5,0-5.9-5.3-5.9-8.9s1-8.9,5.9-8.9c5,0,5.9,5.3,5.9,8.9S-461.8,364-466.8,364z
				 M-466.8,348.2c-2.5,0-3.6,2.6-3.6,7s1.1,7,3.6,7s3.6-2.6,3.6-7C-463.2,350.8-464.3,348.2-466.8,348.2z"/>
			<path id="XMLID_18_" class="st0" d="M-451.1,363.6h-2.3v-12.3h-4v-1.7c2.8-0.2,4-0.5,4.7-3.3h1.7L-451.1,363.6L-451.1,363.6z"/>
			<path id="XMLID_20_" class="st0" d="M-445.3,346.6h12v1.9c-1.7,1.8-5.9,7.3-7.1,15.1h-2.4c0.6-4.7,3.8-11,7.1-14.8h-9.5V346.6
				L-445.3,346.6z"/>
		</g>
	</g>
	<g id="XMLID_5_">
		<polygon id="XMLID_272_" class="st1" points="-518.2,366.1 -512.4,362.6 -509.1,367.5 		"/>
		<polygon id="XMLID_273_" class="st2" points="-524.2,349 -518.3,360 -517.2,356.2 		"/>
		<polygon id="XMLID_274_" class="st3" points="-539.9,335.7 -536.7,344.3 -537.2,336.3 		"/>
		<polygon id="XMLID_275_" class="st4" points="-551.8,336.8 -545.5,340 -544.7,331.1 		"/>
		<polygon id="XMLID_276_" class="st5" points="-521.7,308.3 -518.8,310.4 -516.1,308 		"/>
		<polygon id="XMLID_277_" class="st6" points="-541.2,322.3 -536.5,334.4 -534.5,328.9 		"/>
		<polygon id="XMLID_278_" class="st7" points="-545.7,352.8 -544.2,354.9 -541.8,347.1 		"/>
		<polygon id="XMLID_279_" class="st0" points="-564.1,368 -550.4,366.4 -544.2,354.9 		"/>
		<polygon id="XMLID_280_" class="st1" points="-530.5,357.5 -524.4,363 -518.3,360 		"/>
		<polygon id="XMLID_281_" class="st8" points="-506.1,364.2 -509.1,367.5 -512.4,362.6 		"/>
		<polygon id="XMLID_282_" class="st8" points="-512.4,362.6 -518.2,366.1 -518.3,360 		"/>
		<polygon id="XMLID_283_" class="st1" points="-502.6,366.5 -494.3,363 -506.1,364.2 		"/>
		<polygon id="XMLID_284_" class="st1" points="-518.2,366.1 -518.3,360 -524.4,363 		"/>
		<polygon id="XMLID_285_" class="st2" points="-518.3,360 -526.1,354.6 -530.5,357.5 		"/>
		<polygon id="XMLID_286_" class="st8" points="-526.8,353.8 -524.7,348.2 -532,347.4 		"/>
		<polygon id="XMLID_287_" class="st9" points="-515.9,316.8 -518.8,315 -525.8,318.9 		"/>
		<polygon id="XMLID_288_" class="st10" points="-534.2,329.9 -526.5,325 -525.8,318.9 		"/>
		<polygon id="XMLID_289_" class="st10" points="-534.2,329.9 -536.2,336.4 -533.3,337.2 		"/>
		<polygon id="XMLID_290_" class="st3" points="-540.7,343.5 -536.7,344.3 -536.5,347.4 		"/>
		<polygon id="XMLID_291_" class="st11" points="-545.5,340 -544.7,331.1 -539.9,335.7 		"/>
		<polygon id="XMLID_292_" class="st6" points="-544.7,331.1 -544.4,322.3 -541.2,322.3 		"/>
		<polygon id="XMLID_293_" class="st9" points="-541.2,322.3 -537.4,315 -529.2,310.4 		"/>
		<polygon id="XMLID_294_" class="st5" points="-518.8,310.4 -516.1,308 -509.3,308.7 		"/>
		<polygon id="XMLID_295_" class="st5" points="-527.4,315 -529.2,310.4 -518.8,310.4 		"/>
		<polygon id="XMLID_296_" class="st5" points="-534.5,328.9 -541.2,322.3 -526.1,318.1 		"/>
		<polygon id="XMLID_297_" class="st12" points="-531.5,357 -536.5,347.4 -544.2,354.9 		"/>
		<polygon id="XMLID_298_" class="st13" points="-544.2,354.9 -545.7,352.8 -557.8,363.8 		"/>
		<polygon id="XMLID_299_" class="st9" points="-518.8,310.4 -521.7,308.3 -529.2,310.4 		"/>
		<polygon id="XMLID_300_" class="st14" points="-499.1,314.3 -509.3,308.7 -511.6,312.4 		"/>
		<polygon id="XMLID_301_" class="st14" points="-518.8,314 -518.8,310.4 -526.1,318.1 		"/>
		<polygon id="XMLID_302_" class="st9" points="-526.1,318.1 -518.8,310.4 -541.2,322.3 		"/>
		<polygon id="XMLID_303_" class="st9" points="-541.2,322.3 -537.4,315 -544.4,322.3 		"/>
		<polygon id="XMLID_304_" class="st11" points="-544.7,331.1 -544.4,322.3 -549.2,330.1 		"/>
		<polygon id="XMLID_305_" class="st12" points="-540.7,343.5 -539.9,335.7 -545.5,340 		"/>
		<polygon id="XMLID_306_" class="st4" points="-544.7,331.1 -549.2,330.1 -551.8,336.8 		"/>
		<polygon id="XMLID_307_" class="st6" points="-539.9,335.7 -541.2,322.3 -544.7,331.1 		"/>
		<polygon id="XMLID_308_" class="st14" points="-511.6,313.3 -500.5,314.7 -510.2,316 		"/>
		<polygon id="XMLID_309_" class="st15" points="-526.5,325 -522.8,322.3 -527.1,331.4 		"/>
		<polygon id="XMLID_311_" class="st8" points="-518.3,360 -524.2,349 -526.1,354.6 		"/>
		<polygon id="XMLID_312_" class="st15" points="-527.1,331.4 -533.3,337.2 -528.3,341.2 		"/>
		<polygon id="XMLID_313_" class="st3" points="-536.5,347.4 -540.7,343.5 -544.2,354.9 		"/>
		<polygon id="XMLID_314_" class="st16" points="-531.5,357 -544.2,354.9 -550.4,366.4 		"/>
		<polygon id="XMLID_321_" class="st14" points="-515.9,316.8 -510.2,316 -520.2,320.2 		"/>
		<polygon id="XMLID_322_" class="st7" points="-536.7,344.3 -539.9,335.7 -540.7,343.5 		"/>
		<polygon id="XMLID_323_" class="st4" points="-539.9,335.7 -536.5,334.4 -537.2,336.3 		"/>
		<polygon id="XMLID_324_" class="st5" points="-518.8,314 -518.8,310.4 -511.6,312.4 		"/>
		<polygon id="XMLID_325_" class="st14" points="-509.3,308.7 -518.8,310.4 -511.6,312.4 		"/>
		<polygon id="XMLID_326_" class="st11" points="-541.2,322.3 -536.5,334.4 -539.9,335.7 		"/>
		<polygon id="XMLID_327_" class="st8" points="-532.7,341.7 -528.3,341.2 -532,347.4 		"/>
		<polygon id="XMLID_328_" class="st2" points="-532,347.4 -528.3,341.2 -524.7,348.2 		"/>
		<polygon id="XMLID_329_" class="st8" points="-532,347.4 -526.8,353.8 -530.9,356.5 		"/>
		<polygon id="XMLID_330_" class="st1" points="-535.6,347.4 -532,347.4 -530.9,356.5 		"/>
		<polygon id="XMLID_331_" class="st1" points="-536.2,336.4 -533.3,337.2 -535.9,340.9 		"/>
		<polygon id="XMLID_332_" class="st1" points="-535.9,340.9 -532,347.4 -535.6,347.4 		"/>
		<polygon id="XMLID_366_" class="st5" points="-527.4,315 -529.2,310.4 -541.2,322.3 		"/>
		<polygon id="XMLID_367_" class="st17" points="-531.1,331.1 -533.3,337.2 -527.1,331.4 		"/>
		<polygon id="XMLID_368_" class="st8" points="-532.7,341.7 -535.9,340.9 -532,347.4 		"/>
		<polygon id="XMLID_369_" class="st5" points="-522.8,322.3 -515.9,316.8 -525.8,318.9 		"/>
		<polygon id="XMLID_370_" class="st17" points="-531.1,331.1 -534.2,329.9 -533.3,337.2 		"/>
		<polygon id="XMLID_371_" class="st17" points="-526.5,325 -534.2,329.9 -531.1,331.1 		"/>
		<polygon id="XMLID_372_" class="st17" points="-527.1,331.4 -531.1,331.1 -526.5,325 		"/>
		<polygon id="XMLID_373_" class="st5" points="-526.5,325 -525.8,318.9 -522.8,322.3 		"/>
		<polygon id="XMLID_374_" class="st9" points="-515.9,316.8 -518.8,315 -511.6,313.3 		"/>
		<polygon id="XMLID_375_" class="st2" points="-517.2,356.2 -518.3,360 -513.3,358.5 		"/>
		<polygon id="XMLID_376_" class="st8" points="-535.9,340.9 -533.3,337.2 -532.7,341.7 		"/>
		<polygon id="XMLID_377_" class="st8" points="-533.3,337.2 -528.3,341.2 -532.7,341.7 		"/>
		<polygon id="XMLID_379_" class="st1" points="-509.1,367.5 -502.6,366.5 -506.1,364.2 		"/>
		<polygon id="XMLID_380_" class="st2" points="-506.1,364.2 -494.3,363 -505.2,361.4 		"/>
		<polygon id="XMLID_381_" class="st2" points="-505.2,361.4 -506.1,364.2 -513.3,358.5 		"/>
		<polygon id="XMLID_382_" class="st2" points="-506.1,364.2 -512.4,362.6 -513.3,358.5 		"/>
		<polygon id="XMLID_385_" class="st5" points="-511.6,313.3 -510.2,316 -515.9,316.8 		"/>
		<polygon id="XMLID_310_" class="st8" points="-513.3,358.5 -512.4,362.6 -518.3,360 		"/>
	</g>
</g>
<g>
	<g id="XMLID_90_">
		<g id="XMLID_96_">
			<g id="XMLID_112_">
				<path id="XMLID_114_" class="st0" d="M-476.9,401.8c-4.7,0-6.5-1.6-7.3-2.3c-2.2-2-2.5-4.1-2.5-6.1v-0.2h3.4v0.2
					c0,4.8,4.4,5.3,6.3,5.3c1.8,0,6-0.4,6-3.8c0-2.3-0.9-3-4.9-4l-4.8-1.1c-4.3-1-5.2-3.7-5.2-5.8c0-3.5,2.2-7.5,8.3-7.5
					c6.1,0,9.2,2.6,9.4,7.7v0.2h-3.4v-0.2c-0.2-4.3-4.4-4.6-5.7-4.6c-1.9,0-5.2,0.5-5.2,4c0,1.9,1.4,2.5,2.7,2.8l6.8,1.6
					c3.6,0.8,5.5,3.1,5.5,6.5C-467.4,399.9-472.3,401.8-476.9,401.8z"/>
				<path id="XMLID_113_" class="st0" d="M-477.5,376.7c8.3,0,9.1,4.9,9.2,7.6h-3c-0.2-3.6-3.2-4.8-5.9-4.8c-2,0-5.4,0.6-5.4,4.2
					c0,2,1.4,2.7,2.8,3l6.8,1.6c3.1,0.7,5.4,2.6,5.4,6.3c0,5.6-5.2,7.1-9.3,7.1c-4.4,0-6.1-1.3-7.1-2.3c-2-1.8-2.4-3.8-2.4-6h3
					c0,4.3,3.5,5.5,6.5,5.5c2.3,0,6.2-0.6,6.2-4c0-2.5-1.1-3.2-5.1-4.2l-4.8-1.1c-1.6-0.4-5.1-1.5-5.1-5.6
					C-485.6,380.4-483.2,376.7-477.5,376.7 M-477.5,376.3c-6.3,0-8.5,4.2-8.5,7.7c0,2.1,0.9,4.9,5.4,6l4.8,1.1
					c3.9,0.9,4.7,1.6,4.7,3.8c0,3.2-4.1,3.6-5.8,3.6c-1.8,0-6.1-0.5-6.1-5.2V393h-0.4h-3h-0.4v0.4c0,2.1,0.3,4.3,2.6,6.3
					c1.3,1.1,3.2,2.4,7.4,2.4c1.4,0,4.1-0.2,6.4-1.5c2.2-1.3,3.3-3.4,3.3-6c0-3.5-2-5.8-5.7-6.7l-6.8-1.6c-1.7-0.4-2.5-1.2-2.5-2.6
					c0-3.2,3.1-3.8,5-3.8c1.3,0,5.3,0.3,5.5,4.4v0.4h0.4h3h0.4v-0.4c-0.1-1.4-0.3-3.3-1.7-5C-471.1,377.3-473.8,376.3-477.5,376.3
					L-477.5,376.3z"/>
			</g>
			<g id="XMLID_109_">
				<polygon id="XMLID_111_" class="st0" points="-463.4,401.2 -463.4,377.1 -445.8,377.1 -445.8,380.4 -459.9,380.4 -459.9,387.3 
					-446.9,387.3 -446.9,390.5 -459.9,390.5 -459.9,398 -445.6,398 -445.6,401.2 				"/>
				<path id="XMLID_110_" class="st0" d="M-446,377.4v2.9h-14v7.2h13v2.9h-13v7.9h14.3v2.8h-17.4v-23.7H-446 M-445.6,376.9h-0.4
					h-17.2h-0.4v0.4V401v0.4h0.4h17.4h0.4V401v-2.9v-0.4h-0.4h-13.9v-7h12.6h0.4v-0.4v-2.9V387h-0.4h-12.6v-6.4h13.6h0.4v-0.4v-2.9
					L-445.6,376.9L-445.6,376.9z"/>
			</g>
			<g id="XMLID_106_">
				<path id="XMLID_108_" class="st0" d="M-432,401.8c-5.3,0-10.8-3.3-10.8-12.8c0-7.6,4.4-12.5,11.3-12.5c6.7,0,9.5,4.3,9.9,7.9
					v0.2h-3.5l-0.1-0.2c-0.9-4.1-4.4-4.7-6.4-4.7c-4.6,0-7.6,3.6-7.6,9.2c0,6.4,2.6,9.6,7.6,9.6c1.6,0,5.4-0.6,6.6-6.3l0.1-0.2h3.5
					l-0.1,0.2C-422.8,401.2-429.9,401.8-432,401.8z"/>
				<path id="XMLID_107_" class="st0" d="M-431.6,376.7c6.1,0,9.3,3.8,9.7,7.8h-3.1c-0.9-4.2-4.4-4.9-6.6-4.9
					c-4.3,0-7.8,3.2-7.8,9.4c0,5.6,2,9.8,7.8,9.8c2.1,0,5.7-1,6.8-6.5h3.1c-1.3,8.9-8.5,9.3-10.4,9.3c-5.4,0-10.6-3.5-10.6-12.6
					C-442.7,381.8-438.5,376.7-431.6,376.7 M-431.6,376.3c-3.4,0-6.4,1.3-8.4,3.6c-2,2.3-3,5.4-3,9.2c0,9.6,5.7,13,11,13
					c1.1,0,3.4-0.2,5.5-1.4c2.9-1.6,4.6-4.4,5.2-8.3l0.1-0.5h-0.5h-3.1h-0.4l-0.1,0.3c-1.1,5.6-4.8,6.1-6.4,6.1
					c-4.9,0-7.4-3.2-7.4-9.4c0-5.5,2.9-9,7.3-9c2,0,5.4,0.6,6.2,4.6l0.1,0.3h0.3h3.1h0.5l-0.1-0.5c-0.3-2.2-1.3-4.2-2.9-5.6
					C-426.2,377.2-428.7,376.3-431.6,376.3L-431.6,376.3z"/>
			</g>
			<g id="XMLID_103_">
				<path id="XMLID_105_" class="st0" d="M-408.2,401.8c-5.3,0-10.8-3.3-10.8-12.8c0-7.6,4.4-12.5,11.2-12.5c6.7,0,9.5,4.3,9.9,7.9
					v0.2h-3.5l-0.1-0.2c-0.9-4.1-4.4-4.7-6.4-4.7c-4.6,0-7.6,3.6-7.6,9.2c0,6.4,2.6,9.6,7.6,9.6c1.6,0,5.4-0.6,6.6-6.3l0.1-0.2h3.5
					l-0.1,0.2C-399,401.2-406.1,401.8-408.2,401.8z"/>
				<path id="XMLID_104_" class="st0" d="M-407.8,376.7c6.1,0,9.3,3.8,9.7,7.8h-3.1c-0.9-4.2-4.4-4.9-6.6-4.9
					c-4.3,0-7.8,3.2-7.8,9.4c0,5.6,2,9.8,7.8,9.8c2.1,0,5.7-1,6.8-6.5h3.1c-1.3,8.9-8.5,9.3-10.4,9.3c-5.4,0-10.6-3.5-10.6-12.6
					C-418.9,381.8-414.7,376.7-407.8,376.7 M-407.8,376.3c-3.4,0-6.4,1.3-8.4,3.6c-2,2.3-3,5.4-3,9.2c0,9.6,5.7,13,11,13
					c1.1,0,3.4-0.2,5.5-1.4c2.9-1.6,4.6-4.4,5.2-8.3l0.1-0.5h-0.5h-3.1h-0.3l-0.1,0.3c-1.1,5.6-4.8,6.1-6.4,6.1
					c-4.9,0-7.4-3.2-7.4-9.4c0-5.5,2.9-9,7.3-9c2,0,5.4,0.6,6.2,4.6l0.1,0.3h0.3h3.1h0.5l-0.1-0.5c-0.3-2.2-1.3-4.2-2.9-5.6
					C-402.4,377.2-404.9,376.3-407.8,376.3L-407.8,376.3z"/>
			</g>
			<g id="XMLID_100_">
				<path id="XMLID_102_" class="st0" d="M-383.8,401.8c-9.3,0-11.7-8-11.7-12.7s2.5-12.7,11.7-12.7s11.7,8,11.7,12.7
					S-374.5,401.8-383.8,401.8z M-383.8,379.8c-4.8,0-8,3.8-8,9.4s3.2,9.4,8,9.4c4.8,0,8-3.8,8-9.4
					C-375.7,383.6-378.9,379.8-383.8,379.8z"/>
				<path id="XMLID_101_" class="st0" d="M-383.8,376.7c8.9,0,11.5,7.3,11.5,12.4c0,5.1-2.7,12.4-11.5,12.4
					c-8.9,0-11.5-7.3-11.5-12.4C-395.3,384.1-392.6,376.7-383.8,376.7 M-383.8,398.8c5.2,0,8.2-4.1,8.2-9.6c0-5.6-3.1-9.6-8.2-9.6
					s-8.2,4.1-8.2,9.6C-392,394.8-388.9,398.8-383.8,398.8 M-383.8,376.3c-4.1,0-7.3,1.6-9.4,4.5c-1.6,2.2-2.6,5.3-2.6,8.4
					s0.9,6.1,2.6,8.4c2.1,2.9,5.4,4.5,9.4,4.5s7.3-1.6,9.4-4.5c1.6-2.2,2.6-5.3,2.6-8.4s-0.9-6.1-2.6-8.4
					C-376.4,377.9-379.7,376.3-383.8,376.3L-383.8,376.3z M-383.8,398.4c-4.7,0-7.8-3.6-7.8-9.2c0-5.6,3.1-9.2,7.8-9.2
					c4.7,0,7.8,3.6,7.8,9.2C-375.9,394.8-379,398.4-383.8,398.4L-383.8,398.4z"/>
			</g>
			<g id="XMLID_97_">
				<path id="XMLID_99_" class="st0" d="M-349.2,401.2V387c0-0.3,0-0.8,0-1.5c0-0.9,0.1-2.2,0.1-3.3l-6.4,19h-3.4l-6.4-19
					c0,1.1,0,2.3,0.1,3.3c0,0.7,0,1.3,0,1.5v14.2h-3.5v-24.1h4.9l6.7,19.6l6.6-19.6h4.9v24.1H-349.2z"/>
				<path id="XMLID_98_" class="st0" d="M-345.8,377.4V401h-3.1v-14c0-0.7,0.1-3.7,0.1-5.9h-0.1l-6.7,19.8h-3.2l-6.7-19.8h-0.1
					c0,2.2,0.1,5.2,0.1,5.9v14h-3.1v-23.6h4.6l6.8,20h0.1l6.7-20L-345.8,377.4 M-345.5,376.9h-0.4h-4.5h-0.3l-0.1,0.3l-6.4,19
					l-6.4-18.9l-0.1-0.3h-0.3h-4.6h-0.4v0.4v23.6v0.4h0.4h3.1h0.4v-0.4v-14c0-0.3,0-0.8,0-1.5c0-0.6,0-1.3,0-2l5.9,17.6l0.1,0.3h0.3
					h3.2h0.3l0.1-0.3l5.9-17.6c0,0.7,0,1.4,0,2c0,0.7,0,1.3,0,1.5v14v0.4h0.4h3.1h0.4v-0.4v-23.8L-345.5,376.9L-345.5,376.9z"/>
			</g>
		</g>
		<g id="XMLID_91_">
			<path id="XMLID_95_" class="st0" d="M-486.4,415.4c0-5.7,4.1-6.2,6-6.2c3,0,5.4,1.9,5.4,5.2c0,3.1-2,4.4-4.6,5.8l-1.8,1
				c-2.4,1.3-2.9,2.7-3,3.3h9.4v2h-11.9c0.1-3.6,1.8-5.5,4.1-6.9l2.3-1.4c1.9-1,3.2-1.8,3.2-4.1c0-1.4-0.9-3.1-3.4-3.1
				c-3.3,0-3.4,3.1-3.5,4.3H-486.4L-486.4,415.4z"/>
			<path id="XMLID_94_" class="st0" d="M-466.8,427c-5,0-5.9-5.3-5.9-8.9s1-8.9,5.9-8.9c5,0,5.9,5.3,5.9,8.9S-461.8,427-466.8,427z
				 M-466.8,411.2c-2.5,0-3.6,2.6-3.6,7s1.1,7,3.6,7c2.5,0,3.6-2.6,3.6-7C-463.2,413.8-464.3,411.2-466.8,411.2z"/>
			<path id="XMLID_93_" class="st0" d="M-451.1,426.6h-2.3v-12.3h-4v-1.7c2.8-0.2,4-0.5,4.7-3.3h1.7L-451.1,426.6L-451.1,426.6z"/>
			<path id="XMLID_92_" class="st0" d="M-445.3,409.6h12v1.9c-1.7,1.8-5.9,7.3-7.1,15.1h-2.4c0.6-4.7,3.8-11,7.1-14.8h-9.5V409.6
				L-445.3,409.6z"/>
		</g>
	</g>
	<g id="XMLID_1_">
		<polygon id="XMLID_89_" class="st1" points="-518.2,429.1 -512.4,425.6 -509.1,430.5 		"/>
		<polygon id="XMLID_88_" class="st2" points="-524.2,412 -518.3,423 -517.2,419.2 		"/>
		<polygon id="XMLID_87_" class="st3" points="-539.9,398.7 -536.7,407.3 -537.2,399.3 		"/>
		<polygon id="XMLID_86_" class="st4" points="-551.8,399.8 -545.5,403 -544.7,394.1 		"/>
		<polygon id="XMLID_85_" class="st5" points="-521.7,371.3 -518.8,373.4 -516.1,371 		"/>
		<polygon id="XMLID_84_" class="st6" points="-541.2,385.3 -536.5,397.4 -534.5,391.9 		"/>
		<polygon id="XMLID_83_" class="st7" points="-545.7,415.8 -544.2,417.9 -541.8,410.1 		"/>
		<polygon id="XMLID_82_" class="st0" points="-564.1,431 -550.4,429.4 -544.2,417.9 		"/>
		<polygon id="XMLID_81_" class="st1" points="-530.5,420.5 -524.4,426 -518.3,423 		"/>
		<polygon id="XMLID_80_" class="st8" points="-506.1,427.2 -509.1,430.5 -512.4,425.6 		"/>
		<polygon id="XMLID_79_" class="st8" points="-512.4,425.6 -518.2,429.1 -518.3,423 		"/>
		<polygon id="XMLID_78_" class="st1" points="-502.6,429.5 -494.3,426 -506.1,427.2 		"/>
		<polygon id="XMLID_77_" class="st1" points="-518.2,429.1 -518.3,423 -524.4,426 		"/>
		<polygon id="XMLID_76_" class="st2" points="-518.3,423 -526.1,417.6 -530.5,420.5 		"/>
		<polygon id="XMLID_75_" class="st8" points="-526.8,416.8 -524.7,411.2 -532,410.4 		"/>
		<polygon id="XMLID_74_" class="st9" points="-515.9,379.8 -518.8,378 -525.8,381.9 		"/>
		<polygon id="XMLID_73_" class="st10" points="-534.2,392.9 -526.5,388 -525.8,381.9 		"/>
		<polygon id="XMLID_72_" class="st10" points="-534.2,392.9 -536.2,399.4 -533.3,400.2 		"/>
		<polygon id="XMLID_71_" class="st3" points="-540.7,406.5 -536.7,407.3 -536.5,410.4 		"/>
		<polygon id="XMLID_70_" class="st11" points="-545.5,403 -544.7,394.1 -539.9,398.7 		"/>
		<polygon id="XMLID_69_" class="st6" points="-544.7,394.1 -544.4,385.3 -541.2,385.3 		"/>
		<polygon id="XMLID_68_" class="st9" points="-541.2,385.3 -537.4,378 -529.2,373.4 		"/>
		<polygon id="XMLID_67_" class="st5" points="-518.8,373.4 -516.1,371 -509.3,371.7 		"/>
		<polygon id="XMLID_66_" class="st5" points="-527.4,378 -529.2,373.4 -518.8,373.4 		"/>
		<polygon id="XMLID_65_" class="st5" points="-534.5,391.9 -541.2,385.3 -526.1,381.1 		"/>
		<polygon id="XMLID_64_" class="st12" points="-531.5,420 -536.5,410.4 -544.2,417.9 		"/>
		<polygon id="XMLID_63_" class="st13" points="-544.2,417.9 -545.7,415.8 -557.8,426.8 		"/>
		<polygon id="XMLID_62_" class="st9" points="-518.8,373.4 -521.7,371.3 -529.2,373.4 		"/>
		<polygon id="XMLID_61_" class="st14" points="-499.1,377.3 -509.3,371.7 -511.6,375.4 		"/>
		<polygon id="XMLID_60_" class="st14" points="-518.8,377 -518.8,373.4 -526.1,381.1 		"/>
		<polygon id="XMLID_59_" class="st9" points="-526.1,381.1 -518.8,373.4 -541.2,385.3 		"/>
		<polygon id="XMLID_58_" class="st9" points="-541.2,385.3 -537.4,378 -544.4,385.3 		"/>
		<polygon id="XMLID_57_" class="st11" points="-544.7,394.1 -544.4,385.3 -549.2,393.1 		"/>
		<polygon id="XMLID_56_" class="st12" points="-540.7,406.5 -539.9,398.7 -545.5,403 		"/>
		<polygon id="XMLID_55_" class="st4" points="-544.7,394.1 -549.2,393.1 -551.8,399.8 		"/>
		<polygon id="XMLID_54_" class="st6" points="-539.9,398.7 -541.2,385.3 -544.7,394.1 		"/>
		<polygon id="XMLID_53_" class="st14" points="-511.6,376.3 -500.5,377.7 -510.2,379 		"/>
		<polygon id="XMLID_52_" class="st15" points="-526.5,388 -522.8,385.3 -527.1,394.4 		"/>
		<polygon id="XMLID_51_" class="st8" points="-518.3,423 -524.2,412 -526.1,417.6 		"/>
		<polygon id="XMLID_50_" class="st15" points="-527.1,394.4 -533.3,400.2 -528.3,404.2 		"/>
		<polygon id="XMLID_49_" class="st3" points="-536.5,410.4 -540.7,406.5 -544.2,417.9 		"/>
		<polygon id="XMLID_48_" class="st16" points="-531.5,420 -544.2,417.9 -550.4,429.4 		"/>
		<polygon id="XMLID_47_" class="st14" points="-515.9,379.8 -510.2,379 -520.2,383.2 		"/>
		<polygon id="XMLID_46_" class="st7" points="-536.7,407.3 -539.9,398.7 -540.7,406.5 		"/>
		<polygon id="XMLID_45_" class="st4" points="-539.9,398.7 -536.5,397.4 -537.2,399.3 		"/>
		<polygon id="XMLID_44_" class="st5" points="-518.8,377 -518.8,373.4 -511.6,375.4 		"/>
		<polygon id="XMLID_42_" class="st14" points="-509.3,371.7 -518.8,373.4 -511.6,375.4 		"/>
		<polygon id="XMLID_41_" class="st11" points="-541.2,385.3 -536.5,397.4 -539.9,398.7 		"/>
		<polygon id="XMLID_40_" class="st8" points="-532.7,404.7 -528.3,404.2 -532,410.4 		"/>
		<polygon id="XMLID_39_" class="st2" points="-532,410.4 -528.3,404.2 -524.7,411.2 		"/>
		<polygon id="XMLID_38_" class="st8" points="-532,410.4 -526.8,416.8 -530.9,419.5 		"/>
		<polygon id="XMLID_37_" class="st1" points="-535.6,410.4 -532,410.4 -530.9,419.5 		"/>
		<polygon id="XMLID_36_" class="st1" points="-536.2,399.4 -533.3,400.2 -535.9,403.9 		"/>
		<polygon id="XMLID_35_" class="st1" points="-535.9,403.9 -532,410.4 -535.6,410.4 		"/>
		<polygon id="XMLID_34_" class="st5" points="-527.4,378 -529.2,373.4 -541.2,385.3 		"/>
		<polygon id="XMLID_33_" class="st17" points="-531.1,394.1 -533.3,400.2 -527.1,394.4 		"/>
		<polygon id="XMLID_32_" class="st8" points="-532.7,404.7 -535.9,403.9 -532,410.4 		"/>
		<polygon id="XMLID_31_" class="st5" points="-522.8,385.3 -515.9,379.8 -525.8,381.9 		"/>
		<polygon id="XMLID_30_" class="st17" points="-531.1,394.1 -534.2,392.9 -533.3,400.2 		"/>
		<polygon id="XMLID_29_" class="st17" points="-526.5,388 -534.2,392.9 -531.1,394.1 		"/>
		<polygon id="XMLID_28_" class="st17" points="-527.1,394.4 -531.1,394.1 -526.5,388 		"/>
		<polygon id="XMLID_26_" class="st5" points="-526.5,388 -525.8,381.9 -522.8,385.3 		"/>
		<polygon id="XMLID_24_" class="st9" points="-515.9,379.8 -518.8,378 -511.6,376.3 		"/>
		<polygon id="XMLID_23_" class="st2" points="-517.2,419.2 -518.3,423 -513.3,421.5 		"/>
		<polygon id="XMLID_10_" class="st8" points="-535.9,403.9 -533.3,400.2 -532.7,404.7 		"/>
		<polygon id="XMLID_9_" class="st8" points="-533.3,400.2 -528.3,404.2 -532.7,404.7 		"/>
		<polygon id="XMLID_8_" class="st1" points="-509.1,430.5 -502.6,429.5 -506.1,427.2 		"/>
		<polygon id="XMLID_7_" class="st2" points="-506.1,427.2 -494.3,426 -505.2,424.4 		"/>
		<polygon id="XMLID_6_" class="st2" points="-505.2,424.4 -506.1,427.2 -513.3,421.5 		"/>
		<polygon id="XMLID_4_" class="st2" points="-506.1,427.2 -512.4,425.6 -513.3,421.5 		"/>
		<polygon id="XMLID_3_" class="st5" points="-511.6,376.3 -510.2,379 -515.9,379.8 		"/>
		<polygon id="XMLID_2_" class="st8" points="-513.3,421.5 -512.4,425.6 -518.3,423 		"/>
	</g>
</g>
<g>
	<g id="XMLID_191_">
		<g id="XMLID_197_">
			<g id="XMLID_213_">
				<path id="XMLID_215_" class="st18" d="M-476.7,464.8c-4.7,0-6.5-1.6-7.3-2.3c-2.2-2-2.5-4.1-2.5-6.1v-0.2h3.4v0.2
					c0,4.8,4.4,5.3,6.3,5.3c1.8,0,6-0.4,6-3.8c0-2.3-0.9-3-4.9-4l-4.8-1.1c-4.3-1-5.2-3.7-5.2-5.8c0-3.5,2.2-7.5,8.3-7.5
					c6.1,0,9.2,2.6,9.4,7.7v0.2h-3.4v-0.2c-0.2-4.3-4.4-4.6-5.7-4.6c-1.9,0-5.2,0.5-5.2,4c0,1.9,1.4,2.5,2.7,2.8l6.8,1.6
					c3.6,0.8,5.5,3.1,5.5,6.5C-467.2,462.9-472.1,464.8-476.7,464.8z"/>
				<path id="XMLID_214_" class="st18" d="M-477.3,439.7c8.3,0,9.1,4.9,9.2,7.6h-3c-0.2-3.6-3.2-4.8-5.9-4.8c-2,0-5.4,0.6-5.4,4.2
					c0,2,1.4,2.7,2.8,3l6.8,1.6c3.1,0.7,5.4,2.6,5.4,6.3c0,5.6-5.2,7.1-9.3,7.1c-4.4,0-6.1-1.3-7.1-2.3c-2-1.8-2.4-3.8-2.4-6h3
					c0,4.3,3.5,5.5,6.5,5.5c2.3,0,6.2-0.6,6.2-4c0-2.5-1.1-3.2-5.1-4.2l-4.8-1.1c-1.6-0.4-5.1-1.5-5.1-5.6
					C-485.5,443.4-483.1,439.7-477.3,439.7 M-477.3,439.3c-6.3,0-8.5,4.2-8.5,7.7c0,2.1,0.9,4.9,5.4,6l4.8,1.1
					c3.9,0.9,4.7,1.6,4.7,3.8c0,3.2-4.1,3.6-5.8,3.6c-1.8,0-6.1-0.5-6.1-5.2V456h-0.4h-3h-0.4v0.4c0,2.1,0.3,4.3,2.6,6.3
					c1.3,1.1,3.2,2.4,7.4,2.4c1.4,0,4.1-0.2,6.4-1.5c2.2-1.3,3.3-3.4,3.3-6c0-3.5-2-5.8-5.7-6.7l-6.8-1.6c-1.7-0.4-2.5-1.2-2.5-2.6
					c0-3.2,3.1-3.8,5-3.8c1.3,0,5.3,0.3,5.5,4.4v0.4h0.4h3h0.4v-0.4c-0.1-1.4-0.3-3.3-1.7-5C-470.9,440.3-473.6,439.3-477.3,439.3
					L-477.3,439.3z"/>
			</g>
			<g id="XMLID_210_">
				<polygon id="XMLID_212_" class="st18" points="-463.3,464.2 -463.3,440.1 -445.6,440.1 -445.6,443.4 -459.7,443.4 -459.7,450.3 
					-446.7,450.3 -446.7,453.5 -459.7,453.5 -459.7,461 -445.4,461 -445.4,464.2 				"/>
				<path id="XMLID_211_" class="st18" d="M-445.8,440.4v2.9h-14v7.2h13v2.9h-13v7.9h14.3v2.8H-463v-23.7H-445.8 M-445.4,439.9h-0.4
					h-17.2h-0.4v0.4V464v0.4h0.4h17.4h0.4V464v-2.9v-0.4h-0.4h-13.9v-7h12.6h0.4v-0.4v-2.9V450h-0.4h-12.6v-6.4h13.6h0.4v-0.4v-2.9
					L-445.4,439.9L-445.4,439.9z"/>
			</g>
			<g id="XMLID_207_">
				<path id="XMLID_209_" class="st18" d="M-431.8,464.8c-5.3,0-10.8-3.3-10.8-12.8c0-7.6,4.4-12.5,11.3-12.5c6.7,0,9.5,4.3,9.9,7.9
					v0.2h-3.5l-0.1-0.2c-0.9-4.1-4.4-4.7-6.4-4.7c-4.6,0-7.6,3.6-7.6,9.2c0,6.4,2.6,9.6,7.6,9.6c1.6,0,5.4-0.6,6.6-6.3l0.1-0.2h3.5
					l-0.1,0.2C-422.6,464.2-429.7,464.8-431.8,464.8z"/>
				<path id="XMLID_208_" class="st18" d="M-431.5,439.7c6.1,0,9.3,3.8,9.7,7.8h-3.1c-0.9-4.2-4.4-4.9-6.6-4.9
					c-4.3,0-7.8,3.2-7.8,9.4c0,5.6,2,9.8,7.8,9.8c2.1,0,5.7-1,6.8-6.5h3.1c-1.3,8.9-8.5,9.3-10.4,9.3c-5.4,0-10.6-3.5-10.6-12.6
					C-442.5,444.8-438.3,439.7-431.5,439.7 M-431.5,439.3c-3.4,0-6.4,1.3-8.4,3.6c-2,2.3-3,5.4-3,9.2c0,9.6,5.7,13,11,13
					c1.1,0,3.4-0.2,5.5-1.4c2.9-1.6,4.6-4.4,5.2-8.3l0.1-0.5h-0.5h-3.1h-0.4l-0.1,0.3c-1.1,5.6-4.8,6.1-6.4,6.1
					c-4.9,0-7.4-3.2-7.4-9.4c0-5.5,2.9-9,7.3-9c2,0,5.4,0.6,6.2,4.6l0.1,0.3h0.3h3.1h0.5l-0.1-0.5c-0.3-2.2-1.3-4.2-2.9-5.6
					C-426,440.2-428.5,439.3-431.5,439.3L-431.5,439.3z"/>
			</g>
			<g id="XMLID_204_">
				<path id="XMLID_206_" class="st18" d="M-408.1,464.8c-5.3,0-10.8-3.3-10.8-12.8c0-7.6,4.4-12.5,11.3-12.5c6.7,0,9.5,4.3,9.9,7.9
					v0.2h-3.5l-0.1-0.2c-0.9-4.1-4.4-4.7-6.4-4.7c-4.6,0-7.6,3.6-7.6,9.2c0,6.4,2.6,9.6,7.6,9.6c1.6,0,5.4-0.6,6.6-6.3l0.1-0.2h3.5
					l-0.1,0.2C-398.8,464.2-405.9,464.8-408.1,464.8z"/>
				<path id="XMLID_205_" class="st18" d="M-407.7,439.7c6.1,0,9.3,3.8,9.7,7.8h-3.1c-0.9-4.2-4.4-4.9-6.6-4.9
					c-4.3,0-7.8,3.2-7.8,9.4c0,5.6,2,9.8,7.8,9.8c2.1,0,5.7-1,6.8-6.5h3.1c-1.3,8.9-8.5,9.3-10.4,9.3c-5.4,0-10.6-3.5-10.6-12.6
					C-418.7,444.8-414.6,439.7-407.7,439.7 M-407.7,439.3c-3.4,0-6.4,1.3-8.4,3.6c-2,2.3-3,5.4-3,9.2c0,9.6,5.7,13,11,13
					c1.1,0,3.4-0.2,5.5-1.4c2.9-1.6,4.6-4.4,5.2-8.3l0.1-0.5h-0.5h-3.1h-0.3l-0.1,0.3c-1.1,5.6-4.8,6.1-6.4,6.1
					c-4.9,0-7.4-3.2-7.4-9.4c0-5.5,2.9-9,7.3-9c2,0,5.4,0.6,6.2,4.6l0.1,0.3h0.3h3.1h0.5l-0.1-0.5c-0.3-2.2-1.3-4.2-2.9-5.6
					C-402.2,440.2-404.7,439.3-407.7,439.3L-407.7,439.3z"/>
			</g>
			<g id="XMLID_201_">
				<path id="XMLID_203_" class="st18" d="M-383.6,464.8c-9.3,0-11.7-8-11.7-12.7s2.5-12.7,11.7-12.7c9.2,0,11.7,8,11.7,12.7
					S-374.3,464.8-383.6,464.8z M-383.6,442.8c-4.8,0-8,3.8-8,9.4s3.2,9.4,8,9.4c4.8,0,8-3.8,8-9.4
					C-375.6,446.6-378.8,442.8-383.6,442.8z"/>
				<path id="XMLID_202_" class="st18" d="M-383.6,439.7c8.9,0,11.5,7.3,11.5,12.4c0,5.1-2.7,12.4-11.5,12.4
					c-8.9,0-11.5-7.3-11.5-12.4C-395.1,447.1-392.4,439.7-383.6,439.7 M-383.6,461.8c5.2,0,8.2-4.1,8.2-9.6c0-5.6-3.1-9.6-8.2-9.6
					c-5.2,0-8.2,4.1-8.2,9.6C-391.8,457.8-388.7,461.8-383.6,461.8 M-383.6,439.3c-4.1,0-7.3,1.6-9.4,4.5c-1.6,2.2-2.6,5.3-2.6,8.4
					s0.9,6.1,2.6,8.4c2.1,2.9,5.4,4.5,9.4,4.5s7.3-1.6,9.4-4.5c1.6-2.2,2.6-5.3,2.6-8.4s-0.9-6.1-2.6-8.4
					C-376.3,440.9-379.5,439.3-383.6,439.3L-383.6,439.3z M-383.6,461.4c-4.7,0-7.8-3.6-7.8-9.2c0-5.6,3.1-9.2,7.8-9.2
					c4.7,0,7.8,3.6,7.8,9.2C-375.8,457.8-378.8,461.4-383.6,461.4L-383.6,461.4z"/>
			</g>
			<g id="XMLID_198_">
				<path id="XMLID_200_" class="st18" d="M-349,464.2V450c0-0.3,0-0.8,0-1.5c0-0.9,0.1-2.2,0.1-3.3l-6.4,19h-3.4l-6.4-19
					c0,1.1,0,2.3,0.1,3.3c0,0.7,0,1.3,0,1.5v14.2h-3.5v-24.1h4.9l6.7,19.6l6.6-19.6h4.9v24.1H-349z"/>
				<path id="XMLID_199_" class="st18" d="M-345.7,440.4V464h-3.1v-14c0-0.7,0.1-3.7,0.1-5.9h-0.1l-6.7,19.8h-3.2l-6.7-19.8h-0.1
					c0,2.2,0.1,5.2,0.1,5.9v14h-3.1v-23.6h4.6l6.8,20h0.1l6.7-20L-345.7,440.4 M-345.3,439.9h-0.4h-4.5h-0.3l-0.1,0.3l-6.4,19
					l-6.4-18.9l-0.1-0.3h-0.3h-4.6h-0.4v0.4v23.6v0.4h0.4h3.1h0.4v-0.4v-14c0-0.3,0-0.8,0-1.5c0-0.6,0-1.3,0-2l5.9,17.6l0.1,0.3h0.3
					h3.2h0.3l0.1-0.3l5.9-17.6c0,0.7,0,1.4,0,2c0,0.7,0,1.3,0,1.5v14v0.4h0.4h3.1h0.4v-0.4v-23.8L-345.3,439.9L-345.3,439.9z"/>
			</g>
		</g>
		<g id="XMLID_192_">
			<path id="XMLID_196_" class="st18" d="M-486.2,478.4c0-5.7,4.1-6.2,6-6.2c3,0,5.4,1.9,5.4,5.2c0,3.1-2,4.4-4.6,5.8l-1.8,1
				c-2.4,1.3-2.9,2.7-3,3.3h9.4v2h-11.9c0.1-3.6,1.8-5.5,4.1-6.9l2.3-1.4c1.9-1,3.2-1.8,3.2-4.1c0-1.4-0.9-3.1-3.4-3.1
				c-3.3,0-3.4,3.1-3.5,4.3H-486.2L-486.2,478.4z"/>
			<path id="XMLID_195_" class="st18" d="M-466.7,490c-5,0-5.9-5.3-5.9-8.9s1-8.9,5.9-8.9c5,0,5.9,5.3,5.9,8.9S-461.7,490-466.7,490
				z M-466.7,474.2c-2.5,0-3.6,2.6-3.6,7s1.1,7,3.6,7s3.6-2.6,3.6-7C-463,476.8-464.2,474.2-466.7,474.2z"/>
			<path id="XMLID_194_" class="st18" d="M-450.9,489.6h-2.3v-12.3h-4v-1.7c2.8-0.2,4-0.5,4.7-3.3h1.7L-450.9,489.6L-450.9,489.6z"
				/>
			<path id="XMLID_193_" class="st18" d="M-445.2,472.6h12v1.9c-1.7,1.8-5.9,7.3-7.1,15.1h-2.4c0.6-4.7,3.8-11,7.1-14.8h-9.5V472.6
				L-445.2,472.6z"/>
		</g>
	</g>
	<g id="XMLID_115_">
		<polygon id="XMLID_190_" class="st1" points="-518.1,492.1 -512.2,488.6 -509,493.5 		"/>
		<polygon id="XMLID_189_" class="st2" points="-524,475 -518.1,486 -517,482.2 		"/>
		<polygon id="XMLID_188_" class="st3" points="-539.7,461.7 -536.5,470.3 -537,462.3 		"/>
		<polygon id="XMLID_187_" class="st4" points="-551.6,462.8 -545.3,466 -544.5,457.1 		"/>
		<polygon id="XMLID_186_" class="st5" points="-521.6,434.3 -518.7,436.4 -515.9,434 		"/>
		<polygon id="XMLID_185_" class="st6" points="-541,448.3 -536.3,460.4 -534.3,454.9 		"/>
		<polygon id="XMLID_184_" class="st7" points="-545.5,478.8 -544,480.9 -541.6,473.1 		"/>
		<polygon id="XMLID_183_" class="st0" points="-563.9,494 -550.3,492.4 -544,480.9 		"/>
		<polygon id="XMLID_182_" class="st1" points="-530.3,483.5 -524.2,489 -518.1,486 		"/>
		<polygon id="XMLID_181_" class="st8" points="-505.9,490.2 -509,493.5 -512.2,488.6 		"/>
		<polygon id="XMLID_180_" class="st8" points="-512.2,488.6 -518.1,492.1 -518.1,486 		"/>
		<polygon id="XMLID_179_" class="st1" points="-502.5,492.5 -494.2,489 -505.9,490.2 		"/>
		<polygon id="XMLID_178_" class="st1" points="-518.1,492.1 -518.1,486 -524.2,489 		"/>
		<polygon id="XMLID_177_" class="st2" points="-518.1,486 -525.9,480.6 -530.3,483.5 		"/>
		<polygon id="XMLID_176_" class="st8" points="-526.7,479.8 -524.6,474.2 -531.8,473.4 		"/>
		<polygon id="XMLID_175_" class="st9" points="-515.8,442.8 -518.6,441 -525.6,444.9 		"/>
		<polygon id="XMLID_174_" class="st10" points="-534,455.9 -526.3,451 -525.6,444.9 		"/>
		<polygon id="XMLID_173_" class="st10" points="-534,455.9 -536,462.4 -533.1,463.2 		"/>
		<polygon id="XMLID_172_" class="st3" points="-540.5,469.5 -536.5,470.3 -536.3,473.4 		"/>
		<polygon id="XMLID_171_" class="st11" points="-545.3,466 -544.5,457.1 -539.7,461.7 		"/>
		<polygon id="XMLID_170_" class="st6" points="-544.5,457.1 -544.2,448.3 -541,448.3 		"/>
		<polygon id="XMLID_169_" class="st9" points="-541,448.3 -537.2,441 -529.1,436.4 		"/>
		<polygon id="XMLID_167_" class="st5" points="-518.7,436.4 -515.9,434 -509.1,434.7 		"/>
		<polygon id="XMLID_166_" class="st5" points="-527.2,441 -529.1,436.4 -518.7,436.4 		"/>
		<polygon id="XMLID_165_" class="st5" points="-534.3,454.9 -541,448.3 -525.9,444.1 		"/>
		<polygon id="XMLID_164_" class="st12" points="-531.4,483 -536.3,473.4 -544,480.9 		"/>
		<polygon id="XMLID_163_" class="st13" points="-544,480.9 -545.5,478.8 -557.6,489.8 		"/>
		<polygon id="XMLID_162_" class="st9" points="-518.7,436.4 -521.6,434.3 -529.1,436.4 		"/>
		<polygon id="XMLID_161_" class="st14" points="-498.9,440.3 -509.1,434.7 -511.5,438.4 		"/>
		<polygon id="XMLID_160_" class="st14" points="-518.7,440 -518.7,436.4 -525.9,444.1 		"/>
		<polygon id="XMLID_159_" class="st9" points="-525.9,444.1 -518.7,436.4 -541,448.3 		"/>
		<polygon id="XMLID_158_" class="st9" points="-541,448.3 -537.2,441 -544.2,448.3 		"/>
		<polygon id="XMLID_157_" class="st11" points="-544.5,457.1 -544.2,448.3 -549,456.1 		"/>
		<polygon id="XMLID_156_" class="st12" points="-540.5,469.5 -539.7,461.7 -545.3,466 		"/>
		<polygon id="XMLID_155_" class="st4" points="-544.5,457.1 -549,456.1 -551.6,462.8 		"/>
		<polygon id="XMLID_154_" class="st6" points="-539.7,461.7 -541,448.3 -544.5,457.1 		"/>
		<polygon id="XMLID_153_" class="st14" points="-511.5,439.3 -500.3,440.7 -510.1,442 		"/>
		<polygon id="XMLID_152_" class="st15" points="-526.3,451 -522.7,448.3 -527,457.4 		"/>
		<polygon id="XMLID_151_" class="st8" points="-518.1,486 -524,475 -525.9,480.6 		"/>
		<polygon id="XMLID_150_" class="st15" points="-527,457.4 -533.1,463.2 -528.2,467.2 		"/>
		<polygon id="XMLID_149_" class="st3" points="-536.3,473.4 -540.5,469.5 -544,480.9 		"/>
		<polygon id="XMLID_148_" class="st16" points="-531.4,483 -544,480.9 -550.3,492.4 		"/>
		<polygon id="XMLID_147_" class="st14" points="-515.8,442.8 -510.1,442 -520.1,446.2 		"/>
		<polygon id="XMLID_146_" class="st7" points="-536.5,470.3 -539.7,461.7 -540.5,469.5 		"/>
		<polygon id="XMLID_145_" class="st4" points="-539.7,461.7 -536.3,460.4 -537,462.3 		"/>
		<polygon id="XMLID_144_" class="st5" points="-518.7,440 -518.7,436.4 -511.5,438.4 		"/>
		<polygon id="XMLID_143_" class="st14" points="-509.1,434.7 -518.7,436.4 -511.5,438.4 		"/>
		<polygon id="XMLID_142_" class="st11" points="-541,448.3 -536.3,460.4 -539.7,461.7 		"/>
		<polygon id="XMLID_140_" class="st8" points="-532.6,467.7 -528.2,467.2 -531.8,473.4 		"/>
		<polygon id="XMLID_138_" class="st2" points="-531.8,473.4 -528.2,467.2 -524.6,474.2 		"/>
		<polygon id="XMLID_137_" class="st8" points="-531.8,473.4 -526.7,479.8 -530.7,482.5 		"/>
		<polygon id="XMLID_136_" class="st1" points="-535.4,473.4 -531.8,473.4 -530.7,482.5 		"/>
		<polygon id="XMLID_135_" class="st1" points="-536,462.4 -533.1,463.2 -535.8,466.9 		"/>
		<polygon id="XMLID_134_" class="st1" points="-535.8,466.9 -531.8,473.4 -535.4,473.4 		"/>
		<polygon id="XMLID_133_" class="st5" points="-527.2,441 -529.1,436.4 -541,448.3 		"/>
		<polygon id="XMLID_132_" class="st17" points="-530.9,457.1 -533.1,463.2 -527,457.4 		"/>
		<polygon id="XMLID_131_" class="st8" points="-532.6,467.7 -535.8,466.9 -531.8,473.4 		"/>
		<polygon id="XMLID_130_" class="st5" points="-522.7,448.3 -515.8,442.8 -525.6,444.9 		"/>
		<polygon id="XMLID_129_" class="st17" points="-530.9,457.1 -534,455.9 -533.1,463.2 		"/>
		<polygon id="XMLID_128_" class="st17" points="-526.3,451 -534,455.9 -530.9,457.1 		"/>
		<polygon id="XMLID_127_" class="st17" points="-527,457.4 -530.9,457.1 -526.3,451 		"/>
		<polygon id="XMLID_126_" class="st5" points="-526.3,451 -525.6,444.9 -522.7,448.3 		"/>
		<polygon id="XMLID_125_" class="st9" points="-515.8,442.8 -518.6,441 -511.5,439.3 		"/>
		<polygon id="XMLID_124_" class="st2" points="-517,482.2 -518.1,486 -513.2,484.5 		"/>
		<polygon id="XMLID_123_" class="st8" points="-535.8,466.9 -533.1,463.2 -532.6,467.7 		"/>
		<polygon id="XMLID_122_" class="st8" points="-533.1,463.2 -528.2,467.2 -532.6,467.7 		"/>
		<polygon id="XMLID_121_" class="st1" points="-509,493.5 -502.5,492.5 -505.9,490.2 		"/>
		<polygon id="XMLID_120_" class="st2" points="-505.9,490.2 -494.2,489 -505.1,487.4 		"/>
		<polygon id="XMLID_119_" class="st2" points="-505.1,487.4 -505.9,490.2 -513.2,484.5 		"/>
		<polygon id="XMLID_118_" class="st2" points="-505.9,490.2 -512.2,488.6 -513.2,484.5 		"/>
		<polygon id="XMLID_117_" class="st5" points="-511.5,439.3 -510.1,442 -515.8,442.8 		"/>
		<polygon id="XMLID_116_" class="st8" points="-513.2,484.5 -512.2,488.6 -518.1,486 		"/>
	</g>
</g>
</svg>
