<svg id="Layer_1" data-name="Layer 1" xmlns="http://www.w3.org/2000/svg" viewBox="0 0 141.73 141.73"><defs><style>.cls-1{fill:#ae2b24;}.cls-2{fill:#fbb03b;}</style></defs><title>DevOps-SYD19-RGB-07</title><path class="cls-1" d="M90.24,41.65h4.9a5.21,5.21,0,0,1,4,1.39,6.46,6.46,0,0,1,1.31,4.51,6.28,6.28,0,0,1-1.31,4.38,5.18,5.18,0,0,1-4,1.4h-4.9Zm4.56,9.8a4,4,0,0,0,1.77-.33,2.17,2.17,0,0,0,1-1.18A6.55,6.55,0,0,0,98,47.55a6.86,6.86,0,0,0-.32-2.4,2,2,0,0,0-1-1.15,4.46,4.46,0,0,0-1.85-.32H92.69v7.77Z"/><path class="cls-1" d="M102.14,41.65h8.38v1.91h-5.93v3h5.26v1.89h-5.26v3h5.93v1.88h-8.38Z"/><path class="cls-1" d="M111.41,41.65H114l3.23,9,3.25-9H123l-4.44,11.68h-2.68Z"/><path class="cls-2" d="M90.24,60.75c0-2.17.48-3.75,1.45-4.76a7.2,7.2,0,0,1,8.8,0,6.71,6.71,0,0,1,1.45,4.76q0,6.15-5.85,6.14T90.24,60.75Zm8.33,3a4.7,4.7,0,0,0,.81-3,5,5,0,0,0-.79-3.17,3.79,3.79,0,0,0-5,0,5,5,0,0,0-.79,3.17,4.76,4.76,0,0,0,.8,3,3.06,3.06,0,0,0,2.49,1A3,3,0,0,0,98.57,63.77Z"/><path class="cls-2" d="M103.69,54.68h5.64a4,4,0,0,1,3.08,1.14,4.25,4.25,0,0,1,1,3A4.41,4.41,0,0,1,113,61a3.6,3.6,0,0,1-1.47,1.45,4.66,4.66,0,0,1-2.22.51h-3.05v3.78h-2.52Zm5,6.26a2.18,2.18,0,0,0,1.63-.57,2.1,2.1,0,0,0,.56-1.55,2.21,2.21,0,0,0-.52-1.59,2.07,2.07,0,0,0-1.57-.55h-2.62v4.26Z"/><path class="cls-2" d="M114.24,66.24V64a11.83,11.83,0,0,0,1.8.54,8.51,8.51,0,0,0,1.85.2,5.1,5.1,0,0,0,2-.26,1.06,1.06,0,0,0,.57-1.08,1.28,1.28,0,0,0-.27-.86,2.12,2.12,0,0,0-.85-.55c-.4-.16-1-.35-1.87-.59a5.86,5.86,0,0,1-2.65-1.31A2.91,2.91,0,0,1,114,58a3,3,0,0,1,1.21-2.56,5.88,5.88,0,0,1,3.53-.9,14,14,0,0,1,2,.14,7.25,7.25,0,0,1,1.54.37v2.22a8.84,8.84,0,0,0-3.19-.58,4.84,4.84,0,0,0-1.9.28,1,1,0,0,0-.62,1,1.13,1.13,0,0,0,.23.74,1.89,1.89,0,0,0,.79.5,16.46,16.46,0,0,0,1.71.51,6,6,0,0,1,2.89,1.45,3.23,3.23,0,0,1,.8,2.27A3,3,0,0,1,121.77,66a6,6,0,0,1-3.64.92A9.67,9.67,0,0,1,114.24,66.24Z"/><path class="cls-1" d="M90.24,68.19h3.89A4.16,4.16,0,0,1,97.3,69.3a5.09,5.09,0,0,1,1,3.57,5,5,0,0,1-1,3.48,4.16,4.16,0,0,1-3.17,1.11H90.24ZM93.86,76a3.32,3.32,0,0,0,1.41-.26,1.74,1.74,0,0,0,.81-.94,5,5,0,0,0,.28-1.9,5.55,5.55,0,0,0-.25-1.9,1.57,1.57,0,0,0-.79-.91,3.42,3.42,0,0,0-1.46-.25H92.19V76Z"/><path class="cls-1" d="M102.29,68.19h2.13L108,77.46h-2l-.88-2.23h-3.41l-.86,2.23h-2Zm2.48,5.55L103.34,70l-1.41,3.73Z"/><path class="cls-1" d="M110.68,74l-3.32-5.85h2l2.27,4.19,2.28-4.19h2L112.63,74v3.42h-1.95Z"/><path class="cls-1" d="M116.25,77.1V75.39a9.79,9.79,0,0,0,1.39.42,7,7,0,0,0,1.42.16,4.1,4.1,0,0,0,1.52-.2.84.84,0,0,0,.44-.84,1,1,0,0,0-.2-.66,1.69,1.69,0,0,0-.67-.43,14.66,14.66,0,0,0-1.44-.45,4.54,4.54,0,0,1-2-1,2.59,2.59,0,0,1,.35-3.64,4.53,4.53,0,0,1,2.72-.69,10.8,10.8,0,0,1,1.53.11,5.65,5.65,0,0,1,1.19.28v1.71a6.86,6.86,0,0,0-2.46-.44,3.82,3.82,0,0,0-1.46.21.79.79,0,0,0-.49.79.89.89,0,0,0,.18.58,1.49,1.49,0,0,0,.61.38c.28.11.72.24,1.31.4a4.65,4.65,0,0,1,2.24,1.11,2.52,2.52,0,0,1,.61,1.75,2.31,2.31,0,0,1-1,2,4.64,4.64,0,0,1-2.8.71A7.43,7.43,0,0,1,116.25,77.1Z"/><path class="cls-2" d="M90.35,84.43V83.36a4.64,4.64,0,0,0,.87.26,3.92,3.92,0,0,0,.89.1,2.36,2.36,0,0,0,1-.13.5.5,0,0,0,.27-.52.65.65,0,0,0-.12-.41,1.17,1.17,0,0,0-.42-.27c-.19-.07-.49-.17-.9-.28a2.92,2.92,0,0,1-1.28-.63,1.62,1.62,0,0,1,.22-2.28,2.83,2.83,0,0,1,1.7-.43,7.27,7.27,0,0,1,1,.06,4.22,4.22,0,0,1,.74.18v1.07a4.21,4.21,0,0,0-1.54-.28,2.34,2.34,0,0,0-.91.14.49.49,0,0,0-.3.49.52.52,0,0,0,.11.36A.89.89,0,0,0,92,81c.18.07.45.15.82.25a2.84,2.84,0,0,1,1.4.7,1.55,1.55,0,0,1,.39,1.09A1.45,1.45,0,0,1,94,84.3a2.86,2.86,0,0,1-1.75.45A4.71,4.71,0,0,1,90.35,84.43Z"/><path class="cls-2" d="M96.92,82.51l-2.08-3.65h1.27l1.42,2.62L99,78.86h1.26l-2.08,3.65v2.15H96.92Z"/><path class="cls-2" d="M101.06,78.86h2.44a2.62,2.62,0,0,1,2,.68,3.22,3.22,0,0,1,.65,2.24,3.14,3.14,0,0,1-.65,2.18,2.55,2.55,0,0,1-2,.7h-2.44Zm2.27,4.86a2,2,0,0,0,.88-.16,1.08,1.08,0,0,0,.51-.59,3.37,3.37,0,0,0,.17-1.19,3.7,3.7,0,0,0-.15-1.19,1,1,0,0,0-.5-.57,2.22,2.22,0,0,0-.91-.16h-1v3.86Z"/><path class="cls-2" d="M107,78.86H108l2.75,3.86V78.86H112v5.8h-1l-2.75-3.87v3.87H107Z"/><path class="cls-2" d="M113,78.86h4.16v.94h-2.94v1.49h2.61v.94h-2.61v1.49h2.94v.94H113Z"/><path class="cls-2" d="M119.71,82.51l-2.08-3.65h1.27l1.42,2.62,1.42-2.62H123l-2.08,3.65v2.15h-1.21Z"/><path class="cls-1" d="M90.24,95.52a6.21,6.21,0,0,1,1-1.56c.43-.47,1-1,1.7-1.66l.42-.37c.51-.47.88-.82,1.09-1a2.34,2.34,0,0,0,.46-.68,2.54,2.54,0,0,0,.13-.89,1.36,1.36,0,0,0-.49-1.14,2.3,2.3,0,0,0-1.43-.38,7,7,0,0,0-2.53.5V86.36A7.77,7.77,0,0,1,92.05,86a11,11,0,0,1,1.59-.12,3.83,3.83,0,0,1,2.73.88A3.62,3.62,0,0,1,96.84,91,7.76,7.76,0,0,1,95.4,92.6l-.26.23c-.49.42-.9.79-1.22,1.1a5.69,5.69,0,0,0-.8.95h4.29v1.7H90.24Z"/><path class="cls-1" d="M99.74,95.6a6.52,6.52,0,0,1-1.12-4.15,6.51,6.51,0,0,1,1.12-4.14,5.41,5.41,0,0,1,7.26,0,8.23,8.23,0,0,1,0,8.29,5.38,5.38,0,0,1-7.26,0Zm5.57-1.39a6.94,6.94,0,0,0,0-5.51,2.55,2.55,0,0,0-3.89,0,6.94,6.94,0,0,0,0,5.51,2.55,2.55,0,0,0,3.89,0Z"/><path class="cls-1" d="M111,88.06l-1.71.28V86.49l3.91-.58V96.58H111Z"/><path class="cls-1" d="M117,96.65a7.72,7.72,0,0,1-1.17-.3V94.46a6.61,6.61,0,0,0,2.43.41,3.14,3.14,0,0,0,2-.57,2,2,0,0,0,.69-1.57v-.51a3.91,3.91,0,0,1-1.2.56,4.82,4.82,0,0,1-1.31.19,3.75,3.75,0,0,1-2.74-.89,3.53,3.53,0,0,1-.9-2.6,3.41,3.41,0,0,1,1-2.61,4.33,4.33,0,0,1,3.07-1A3.62,3.62,0,0,1,123,90v2.25a4.66,4.66,0,0,1-.56,2.32,3.84,3.84,0,0,1-1.62,1.57,5.06,5.06,0,0,1-2.45.56A9.83,9.83,0,0,1,117,96.65Zm2.94-5.55a4.5,4.5,0,0,0,1-.51v-1a1.82,1.82,0,0,0-2.07-2,2.2,2.2,0,0,0-1.57.5,1.75,1.75,0,0,0-.54,1.36,1.92,1.92,0,0,0,.48,1.42,2.22,2.22,0,0,0,1.6.47A3.23,3.23,0,0,0,119.9,91.1Z"/><path class="cls-2" d="M81.94,72.21a6.54,6.54,0,0,1-.89.07A6.19,6.19,0,0,1,79,71.92h-.09a.17.17,0,0,0-.13,0,10.73,10.73,0,0,1-2.68,1.78A21.21,21.21,0,0,1,61.52,89.28a30.69,30.69,0,0,0,2.27,2.94,2.14,2.14,0,0,1,1.47.64l1.28,1.33,2.77-1.42L69,91a2.17,2.17,0,0,1,3.16-2.29l1.62.86c1.14-1.13,1.07-1.06,2.2-2.2l-.86-1.62a2.17,2.17,0,0,1,2.29-3.16l1.82.32,1.41-2.78-1.32-1.27a2.17,2.17,0,0,1,1.2-3.72l1.82-.25c.23-1.42.24-1.5.42-2.62a3.88,3.88,0,0,0-.48,0A1.83,1.83,0,0,0,81.94,72.21Z"/><path class="cls-2" d="M56.68,90.13c-.41,0-.81,0-1.22,0A21.14,21.14,0,0,1,34.31,69c0-.56,0-1.1.07-1.64a36.22,36.22,0,0,1-3.92.27A2.16,2.16,0,0,1,29.75,71l-1.66.8c.26,1.59.24,1.49.49,3.08l1.82.25a2.18,2.18,0,0,1,1.21,3.72l-1.32,1.27c.72,1.44.68,1.35,1.41,2.78l1.81-.32a2.17,2.17,0,0,1,2.3,3.16l-.87,1.62,2.2,2.2,1.63-.86A2.17,2.17,0,0,1,41.93,91l-.33,1.81,2.78,1.42,1.28-1.33a2.17,2.17,0,0,1,3.71,1.21l.25,1.82,3.08.49.81-1.66a2.17,2.17,0,0,1,3.9,0l.81,1.66,3.07-.49.05-.37c-1.57-1.68-3.09-3.47-4.26-4.88Z"/><path class="cls-2" d="M55.46,47.87a21.16,21.16,0,0,1,19.06,12,15.9,15.9,0,0,1,3.87,4,13.2,13.2,0,0,1,4.31,1.63c-.13-.85-.16-1.05-.37-2.33l-1.82-.25a2.17,2.17,0,0,1-1.2-3.71l1.32-1.28-1.41-2.78-1.82.32a2.16,2.16,0,0,1-2.29-3.15L76,50.7c-1.13-1.14-1.06-1.06-2.2-2.2l-1.62.86A2.17,2.17,0,0,1,69,47.07l.32-1.81-2.77-1.42-1.28,1.33A2.17,2.17,0,0,1,61.55,44l-.26-1.82-3.07-.49-.81,1.66a2.17,2.17,0,0,1-3.9,0l-.81-1.66-3.08.49L49.37,44a2.17,2.17,0,0,1-3.71,1.21l-1.28-1.33L41.6,45.26l.33,1.81a2.17,2.17,0,0,1-3.16,2.29l-1.63-.86-2.2,2.2.87,1.63a2.17,2.17,0,0,1-2.3,3.15l-1.81-.32c-.73,1.43-.69,1.35-1.41,2.78l1.32,1.28a2.15,2.15,0,0,1-.29,3.34,31.63,31.63,0,0,0,4.51-1.41A21.15,21.15,0,0,1,55.46,47.87Z"/><path class="cls-2" d="M54,86.77l-.56,1.14-2-.32-.18-1.25-2.65-.86-.07,0-.88.91L46,85.47l.22-1.25-2.31-1.68-1.12.59-1.41-1.41.6-1.11-1.68-2.32L39,78.51l-.9-1.77.91-.88-.89-2.72L36.88,73l-.31-2,1.14-.55V67.58L36.57,67v0l-.25,0v.11l1.16.56V70.3l-1.16.56.36,2.32,1.28.18.8,2.43-.94.9,1.07,2.09,1.27-.23,1.51,2.08-.61,1.14,1.65,1.65,1.15-.6,2.07,1.5L45.7,85.6l2.08,1.06.9-.93,2.44.79.18,1.28,2.31.37L54.18,87h.51l-.12-.24Z"/><path class="cls-2" d="M39,59.52l.63.11.42-.17-1.18-.21-.44.86.34-.14Z"/><path class="cls-2" d="M71.9,75.86l.91.88-.9,1.77-1.25-.22L69,80.61l.59,1.12-1.4,1.4-1.12-.59-2.32,1.68L65,85.47l-1.77.9-.88-.91-2.43.79.1.22,2.27-.74.89.93,2.09-1.06L65,84.32l2.08-1.5,1.14.6,1.59-1.59.07-.06-.61-1.14,1.51-2.08,1.27.23,1.06-2.09-.93-.9.39-1.19H72.3Z"/><path class="cls-2" d="M41.94,57.42l-.6-1.11,1.41-1.41,1.12.6,2.31-1.69L46,52.57l1.77-.91.88.92,2.72-.89.18-1.25,2-.31L54,51.26h2.86l.55-1.13,2,.31.17,1.25,2.72.89.88-.92,1.77.91-.22,1.24,2.32,1.69,1.12-.6,1.4,1.41L69,57.42l1.37,1.89a1.08,1.08,0,0,1,.12-.24L69.26,57.4l.61-1.14-1.66-1.65-1.14.61L65,53.71l.23-1.28-2.09-1.06-.89.93-2.44-.79-.18-1.28-2.31-.37L56.74,51H54.18l-.57-1.17-2.31.37-.18,1.28-2.44.79-.9-.93L45.7,52.43l.22,1.28-2.07,1.51-1.14-.61-1.66,1.65.61,1.14-1.46,2,.41-.16Z"/><path class="cls-2" d="M40.2,59.41l-.14.05.09,0Z"/><path class="cls-2" d="M40.26,59.74l.35-.49-.41.16-.05.07-.09,0-.42.17Z"/><path class="cls-1" d="M71.2,59.76c1.66,3.93,2,5.15,4.59,5.61a.56.56,0,0,1,.43.75,2.7,2.7,0,0,1-3.16,1.65c-3-.38-9.41-10.3-19.64-10.3-11.22,0-17.49,6.37-25.45,6.37-5.32,0-7.81-5.17-8.82-7.68a.22.22,0,0,0-.42.12c.48,3.14,2.43,10.49,11,10.49,8.84,0,11-2.69,17.12-2.69s3.08,16.55,10.91,26c3.9,4.7,8.67,9.77,10.37,10,5.47.67-10.83-8.88-9.75-17.69.92-7.48,6.6-9.13,7.64-9s1.34.57,1,2.24c-.64,3.76-5.22,3.55-5.44,5.37-.17,1.35,4.87,1.74,9.62-6.67a1.12,1.12,0,0,1,1-.58,8.86,8.86,0,0,0,6-2.42,1.09,1.09,0,0,1,1.09-.22,5.37,5.37,0,0,0,2.55.25c1.12-.17,2.17.34,3,.28a2.23,2.23,0,0,0,1.1-.68c.8-.78-2.19-5.21-7.77-6.2a.55.55,0,0,1-.37-.24c-.58-.87-3.07-4.4-6.28-5.06A.24.24,0,0,0,71.2,59.76Z"/></svg>