<?xml version="1.0" encoding="UTF-8"?>
<svg width="223px" height="180px" viewBox="0 0 223 180" version="1.1" xmlns="http://www.w3.org/2000/svg" xmlns:xlink="http://www.w3.org/1999/xlink">
    <!-- Generator: Sketch 48.2 (47327) - http://www.bohemiancoding.com/sketch -->
    <title>logos</title>
    <desc>Created with Sketch.</desc>
    <defs>
        <linearGradient x1="50%" y1="-7.686%" x2="50%" y2="100%" id="linearGradient-1">
            <stop stop-color="#E6AA4B" offset="0%"></stop>
            <stop stop-color="#D04436" offset="100%"></stop>
        </linearGradient>
        <linearGradient x1="50%" y1="-7.686%" x2="50%" y2="100%" id="linearGradient-2">
            <stop stop-color="#FBAC3F" offset="0%"></stop>
            <stop stop-color="#FF422A" offset="100%"></stop>
        </linearGradient>
        <linearGradient x1="50%" y1="-7.686%" x2="50%" y2="100%" id="linearGradient-3">
            <stop stop-color="#D8D8D8" offset="0%"></stop>
            <stop stop-color="#0F0F0F" offset="100%"></stop>
        </linearGradient>
    </defs>
    <g id="Page-1" stroke="none" stroke-width="1" fill="none" fill-rule="evenodd">
        <g id="logos" fill-rule="nonzero">
            <g id="swiftfest_logo-copy" transform="translate(0.000000, 4.000000)">
                <g id="Group-3" fill="url(#linearGradient-2)">
                    <g id="Group" transform="translate(26.097341, 26.327900) rotate(42.000000) translate(-26.097341, -26.327900) translate(6.097341, 9.827900)">
                        <path d="M8.96633365,1.4052247 C8.96633365,0.681059823 9.58938333,0.0933942795 10.346698,0.0933942795 L18.3158504,0.0933942795 C19.0776908,0.0933942795 19.6962147,0.675312482 19.6962147,1.4052247 C19.6933092,2.12958426 19.0763917,2.71555119 18.3158504,2.7163367 L10.346698,2.7163367 C9.58485755,2.7163367 8.96633365,2.13441849 8.96633365,1.4052247 Z M13.4310202,4.70994536 C13.4310202,3.98434365 14.0540699,3.39811494 14.8113845,3.39811494 L22.7805369,3.39811494 C23.5431316,3.39811494 24.1609012,3.98003314 24.1609012,4.70922694 C24.1584099,5.4338672 23.5413715,6.02027015 22.7805369,6.02105736 L14.8121388,6.02105736 C14.0495441,6.02105736 13.4310202,5.43913915 13.4310202,4.70922694 L13.4310202,4.70994536 Z M19.6962147,8.01322918 C19.6962147,7.2890643 20.3200187,6.70211718 21.076579,6.70211718 L29.0457315,6.70211718 C29.8083262,6.70211718 30.4260958,7.28403538 30.4260958,8.01322918 C30.4236044,8.73786945 29.806566,9.32427239 29.0457315,9.3250596 L21.0773333,9.3250596 C20.3147386,9.3250596 19.696969,8.74314139 19.696969,8.01322918 L19.6962147,8.01322918 Z M16.5998237,11.3179498 C16.5998237,10.5930665 17.216839,10.0061194 17.9718908,10.0061194 L34.0957528,10.0061194 C34.8538217,10.0061194 35.4685741,10.5880376 35.4685741,11.3179498 C35.468577,12.0406565 34.8545508,12.6270818 34.0957528,12.6290618 L17.9718908,12.6290618 C17.2138218,12.6290618 16.5990694,12.0471436 16.5990694,11.3179498 L16.5998237,11.3179498 Z M3.02473273,14.6219521 C3.02473273,13.8977872 3.63948514,13.3101217 4.40283415,13.3101217 L37.9419154,13.3101217 C38.7037559,13.3101217 39.3207712,13.8920399 39.3207712,14.6219521 C39.3209724,14.970113 39.1756928,15.3040378 38.9169983,15.5500225 C38.6583038,15.7960072 38.3074637,15.9338276 37.9419154,15.9330641 L4.40283415,15.9330641 C3.64174803,15.9330641 3.02473273,15.3511459 3.02473273,14.6219521 Z M3.89635156e-20,17.9259543 C-0.00120551484,17.5779337 0.14331293,17.2438151 0.401550828,16.9975912 C0.659788725,16.7513673 1.0104356,16.6133571 1.37583853,16.6141239 L30.6350362,16.6141239 C31.0004391,16.6133571 31.351086,16.7513673 31.6093239,16.9975912 C31.8675618,17.2438151 32.0120802,17.5779337 32.0108747,17.9259543 C32.0118783,18.2737259 31.8673745,18.60755 31.6093219,18.8535974 C31.3512693,19.0996447 31.0009317,19.2376409 30.6357905,19.2370663 L1.37583853,19.2370663 C1.01056672,19.2378322 0.660034885,19.0999206 0.40181888,18.8538524 C0.143602876,18.6077842 -0.00100438164,18.2738507 1.52453225e-16,17.9259543 Z M19.6962147,21.230675 C19.6962147,20.5057917 20.3200187,19.9188446 21.076579,19.9188446 L29.0457315,19.9188446 C29.8083262,19.9188446 30.4260958,20.5007628 30.4260958,21.2299566 C30.4236044,21.9545968 29.806566,22.5409998 29.0457315,22.541787 L21.0773333,22.541787 C20.3147386,22.541787 19.696969,21.9598688 19.696969,21.2299566 L19.6962147,21.230675 Z M17.3563841,24.5339588 C17.3563841,23.8097939 17.980188,23.2228468 18.7367484,23.2228468 L26.7059008,23.2228468 C27.4684955,23.2228468 28.0870194,23.804765 28.0870194,24.5339588 C28.084528,25.2585991 27.4674897,25.845002 26.7066551,25.8457892 L18.7367484,25.8457892 C17.9741537,25.8457892 17.3563841,25.263871 17.3563841,24.5339588 Z M13.4317745,27.8386795 C13.4317745,27.1137962 14.0548242,26.526849 14.8121388,26.526849 L22.7812912,26.526849 C23.5438859,26.526849 24.1616555,27.1087672 24.1616555,27.8386795 C24.15875,28.563039 23.5418326,29.149006 22.7812912,29.1497915 L14.8121388,29.1497915 C14.0495441,29.1497915 13.4310202,28.5678733 13.4310202,27.8386795 L13.4317745,27.8386795 Z M8.03100482,31.1426817 C8.03100482,30.4185168 8.65405451,29.8308513 9.41136914,29.8308513 L17.379013,29.8308513 C18.1416077,29.8308513 18.7601316,30.4127695 18.7601316,31.1426817 C18.757226,31.8670413 18.1403086,32.4530082 17.3797673,32.4537937 L9.40986054,32.4537937 C8.64726583,32.4537937 8.02949623,31.8718755 8.02949623,31.1426817 L8.03100482,31.1426817 Z" id="Combined-Shape"></path>
                    </g>
                </g>
                <path d="M52.9698163,28.5193029 C53.0392932,31.6424625 55.3357667,34.4269663 60.4284994,34.4269663 C65.3404426,34.4269663 68.0395834,31.9088718 68.0395834,28.2942848 C68.0395834,24.9190147 65.9246464,23.4560214 62.9050152,22.8231112 L60.025085,22.1909536 C58.368845,21.8522977 57.4365096,21.1779963 57.4365096,20.0807512 C57.4365096,18.7441894 58.6056642,17.7462835 60.5950946,17.7462835 C62.6823903,17.7462835 63.8791862,18.8713735 63.9904987,20.2636254 L67.7474816,20.2636254 C67.7198402,17.1833622 65.1872946,14.4831461 60.6092888,14.4831461 C56.3652204,14.4831461 53.4150662,16.77547 53.4150662,20.3908095 C53.4150662,23.4424751 55.3350197,25.1161877 58.3135623,25.7769429 L61.1658511,26.4098531 C63.0999988,26.8463429 64.0599756,27.4506555 64.0599756,28.7164758 C64.0599756,30.1230265 62.890821,31.121685 60.623483,31.121685 C58.3546508,31.121685 56.9628713,29.9679974 56.8381117,28.5193029 L52.9698163,28.5193029 Z M81.422481,34.061218 L84.8597206,21.2758302 L85.0128687,21.2758302 L88.4359141,34.061218 L92.1510615,34.061218 L97.1190345,14.8631932 L92.8047421,14.8631932 L90.1056013,28.3085836 L89.9113648,28.3085836 L86.6272731,14.8624406 L83.231869,14.8624406 L79.9619716,28.3085836 L79.766988,28.3085836 L77.053653,14.8624406 L72.7259135,14.8624406 L77.7073336,34.0604654 L81.422481,34.0604654 L81.422481,34.061218 Z M106.759143,34.061218 L106.759143,14.8631932 L102.723506,14.8631932 L102.723506,34.061218 L106.759143,34.061218 Z M118.291564,34.061218 L118.291564,26.6348711 L125.818977,26.6348711 L125.818977,23.2731472 L118.292311,23.2731472 L118.292311,18.3235036 L126.543629,18.3235036 L126.543629,14.8616881 L114.256674,14.8616881 L114.256674,34.0597128 L118.292311,34.0597128 L118.291564,34.061218 Z M140.621296,34.061218 L140.621296,18.3791937 L145.9374,18.3791937 L145.9374,14.8616881 L131.271047,14.8616881 L131.271047,18.3784411 L136.586405,18.3784411 L136.586405,34.0604654 L140.622043,34.0604654 L140.621296,34.061218 Z M155.716463,34.061218 L155.716463,26.6348711 L163.244623,26.6348711 L163.244623,23.2731472 L155.716463,23.2731472 L155.716463,18.3235036 L163.967781,18.3235036 L163.967781,14.8616881 L151.680825,14.8616881 L151.680825,34.0597128 L155.716463,34.0597128 L155.716463,34.061218 Z M182.638394,30.6430514 L174.233929,30.6430514 L174.233929,25.9598171 L182.137862,25.9598171 L182.137862,22.7952662 L174.233929,22.7952662 L174.233929,18.2798546 L182.638394,18.2798546 L182.638394,14.8631932 L170.240874,14.8631932 L170.240874,34.061218 L182.638394,34.061218 L182.638394,30.6430514 Z M188.438596,28.5193029 C188.508073,31.6424625 190.8038,34.4269663 195.896532,34.4269663 C200.808475,34.4269663 203.508363,31.9088718 203.508363,28.2942848 C203.508363,24.9190147 201.392679,23.4560214 198.373795,22.8231112 L195.493118,22.1909536 C193.837625,21.8522977 192.905289,21.1779963 192.905289,20.0807512 C192.905289,18.7441894 194.073697,17.7462835 196.063874,17.7462835 C198.15117,17.7462835 199.347219,18.8713735 199.458531,20.2636254 L203.216261,20.2636254 C203.187873,17.1833622 200.655327,14.4831461 196.077322,14.4831461 C191.834,14.4831461 188.883099,16.77547 188.883099,20.3908095 C188.883099,23.4424751 190.8038,25.1161877 193.781595,25.7769429 L196.633884,26.4098531 C198.568779,26.8463429 199.528755,27.4506555 199.528755,28.7164758 C199.528755,30.1230265 198.359601,31.121685 196.091516,31.121685 C193.823431,31.121685 192.431651,29.9679974 192.306892,28.5193029 L188.438596,28.5193029 Z M217.684642,34.061218 L217.684642,18.3791937 L223,18.3791937 L223,14.8616881 L208.333647,14.8616881 L208.333647,18.3784411 L213.649005,18.3784411 L213.649005,34.0604654 L217.684642,34.0604654 L217.684642,34.061218 Z" id="swiftfest" fill="#383838"></path>
            </g>
            <g id="swiftfest_logo-copy" transform="translate(0.000000, 65.000000)">
                <g id="Group-3" fill="url(#linearGradient-3)">
                    <g id="Group" transform="translate(26.097341, 26.327900) rotate(42.000000) translate(-26.097341, -26.327900) translate(6.097341, 9.827900)">
                        <path d="M8.96633365,1.4052247 C8.96633365,0.681059823 9.58938333,0.0933942795 10.346698,0.0933942795 L18.3158504,0.0933942795 C19.0776908,0.0933942795 19.6962147,0.675312482 19.6962147,1.4052247 C19.6933092,2.12958426 19.0763917,2.71555119 18.3158504,2.7163367 L10.346698,2.7163367 C9.58485755,2.7163367 8.96633365,2.13441849 8.96633365,1.4052247 Z M13.4310202,4.70994536 C13.4310202,3.98434365 14.0540699,3.39811494 14.8113845,3.39811494 L22.7805369,3.39811494 C23.5431316,3.39811494 24.1609012,3.98003314 24.1609012,4.70922694 C24.1584099,5.4338672 23.5413715,6.02027015 22.7805369,6.02105736 L14.8121388,6.02105736 C14.0495441,6.02105736 13.4310202,5.43913915 13.4310202,4.70922694 L13.4310202,4.70994536 Z M19.6962147,8.01322918 C19.6962147,7.2890643 20.3200187,6.70211718 21.076579,6.70211718 L29.0457315,6.70211718 C29.8083262,6.70211718 30.4260958,7.28403538 30.4260958,8.01322918 C30.4236044,8.73786945 29.806566,9.32427239 29.0457315,9.3250596 L21.0773333,9.3250596 C20.3147386,9.3250596 19.696969,8.74314139 19.696969,8.01322918 L19.6962147,8.01322918 Z M16.5998237,11.3179498 C16.5998237,10.5930665 17.216839,10.0061194 17.9718908,10.0061194 L34.0957528,10.0061194 C34.8538217,10.0061194 35.4685741,10.5880376 35.4685741,11.3179498 C35.468577,12.0406565 34.8545508,12.6270818 34.0957528,12.6290618 L17.9718908,12.6290618 C17.2138218,12.6290618 16.5990694,12.0471436 16.5990694,11.3179498 L16.5998237,11.3179498 Z M3.02473273,14.6219521 C3.02473273,13.8977872 3.63948514,13.3101217 4.40283415,13.3101217 L37.9419154,13.3101217 C38.7037559,13.3101217 39.3207712,13.8920399 39.3207712,14.6219521 C39.3209724,14.970113 39.1756928,15.3040378 38.9169983,15.5500225 C38.6583038,15.7960072 38.3074637,15.9338276 37.9419154,15.9330641 L4.40283415,15.9330641 C3.64174803,15.9330641 3.02473273,15.3511459 3.02473273,14.6219521 Z M3.89635156e-20,17.9259543 C-0.00120551484,17.5779337 0.14331293,17.2438151 0.401550828,16.9975912 C0.659788725,16.7513673 1.0104356,16.6133571 1.37583853,16.6141239 L30.6350362,16.6141239 C31.0004391,16.6133571 31.351086,16.7513673 31.6093239,16.9975912 C31.8675618,17.2438151 32.0120802,17.5779337 32.0108747,17.9259543 C32.0118783,18.2737259 31.8673745,18.60755 31.6093219,18.8535974 C31.3512693,19.0996447 31.0009317,19.2376409 30.6357905,19.2370663 L1.37583853,19.2370663 C1.01056672,19.2378322 0.660034885,19.0999206 0.40181888,18.8538524 C0.143602876,18.6077842 -0.00100438164,18.2738507 1.52453225e-16,17.9259543 Z M19.6962147,21.230675 C19.6962147,20.5057917 20.3200187,19.9188446 21.076579,19.9188446 L29.0457315,19.9188446 C29.8083262,19.9188446 30.4260958,20.5007628 30.4260958,21.2299566 C30.4236044,21.9545968 29.806566,22.5409998 29.0457315,22.541787 L21.0773333,22.541787 C20.3147386,22.541787 19.696969,21.9598688 19.696969,21.2299566 L19.6962147,21.230675 Z M17.3563841,24.5339588 C17.3563841,23.8097939 17.980188,23.2228468 18.7367484,23.2228468 L26.7059008,23.2228468 C27.4684955,23.2228468 28.0870194,23.804765 28.0870194,24.5339588 C28.084528,25.2585991 27.4674897,25.845002 26.7066551,25.8457892 L18.7367484,25.8457892 C17.9741537,25.8457892 17.3563841,25.263871 17.3563841,24.5339588 Z M13.4317745,27.8386795 C13.4317745,27.1137962 14.0548242,26.526849 14.8121388,26.526849 L22.7812912,26.526849 C23.5438859,26.526849 24.1616555,27.1087672 24.1616555,27.8386795 C24.15875,28.563039 23.5418326,29.149006 22.7812912,29.1497915 L14.8121388,29.1497915 C14.0495441,29.1497915 13.4310202,28.5678733 13.4310202,27.8386795 L13.4317745,27.8386795 Z M8.03100482,31.1426817 C8.03100482,30.4185168 8.65405451,29.8308513 9.41136914,29.8308513 L17.379013,29.8308513 C18.1416077,29.8308513 18.7601316,30.4127695 18.7601316,31.1426817 C18.757226,31.8670413 18.1403086,32.4530082 17.3797673,32.4537937 L9.40986054,32.4537937 C8.64726583,32.4537937 8.02949623,31.8718755 8.02949623,31.1426817 L8.03100482,31.1426817 Z" id="Combined-Shape"></path>
                    </g>
                </g>
                <path d="M52.9698163,28.5193029 C53.0392932,31.6424625 55.3357667,34.4269663 60.4284994,34.4269663 C65.3404426,34.4269663 68.0395834,31.9088718 68.0395834,28.2942848 C68.0395834,24.9190147 65.9246464,23.4560214 62.9050152,22.8231112 L60.025085,22.1909536 C58.368845,21.8522977 57.4365096,21.1779963 57.4365096,20.0807512 C57.4365096,18.7441894 58.6056642,17.7462835 60.5950946,17.7462835 C62.6823903,17.7462835 63.8791862,18.8713735 63.9904987,20.2636254 L67.7474816,20.2636254 C67.7198402,17.1833622 65.1872946,14.4831461 60.6092888,14.4831461 C56.3652204,14.4831461 53.4150662,16.77547 53.4150662,20.3908095 C53.4150662,23.4424751 55.3350197,25.1161877 58.3135623,25.7769429 L61.1658511,26.4098531 C63.0999988,26.8463429 64.0599756,27.4506555 64.0599756,28.7164758 C64.0599756,30.1230265 62.890821,31.121685 60.623483,31.121685 C58.3546508,31.121685 56.9628713,29.9679974 56.8381117,28.5193029 L52.9698163,28.5193029 Z M81.422481,34.061218 L84.8597206,21.2758302 L85.0128687,21.2758302 L88.4359141,34.061218 L92.1510615,34.061218 L97.1190345,14.8631932 L92.8047421,14.8631932 L90.1056013,28.3085836 L89.9113648,28.3085836 L86.6272731,14.8624406 L83.231869,14.8624406 L79.9619716,28.3085836 L79.766988,28.3085836 L77.053653,14.8624406 L72.7259135,14.8624406 L77.7073336,34.0604654 L81.422481,34.0604654 L81.422481,34.061218 Z M106.759143,34.061218 L106.759143,14.8631932 L102.723506,14.8631932 L102.723506,34.061218 L106.759143,34.061218 Z M118.291564,34.061218 L118.291564,26.6348711 L125.818977,26.6348711 L125.818977,23.2731472 L118.292311,23.2731472 L118.292311,18.3235036 L126.543629,18.3235036 L126.543629,14.8616881 L114.256674,14.8616881 L114.256674,34.0597128 L118.292311,34.0597128 L118.291564,34.061218 Z M140.621296,34.061218 L140.621296,18.3791937 L145.9374,18.3791937 L145.9374,14.8616881 L131.271047,14.8616881 L131.271047,18.3784411 L136.586405,18.3784411 L136.586405,34.0604654 L140.622043,34.0604654 L140.621296,34.061218 Z M155.716463,34.061218 L155.716463,26.6348711 L163.244623,26.6348711 L163.244623,23.2731472 L155.716463,23.2731472 L155.716463,18.3235036 L163.967781,18.3235036 L163.967781,14.8616881 L151.680825,14.8616881 L151.680825,34.0597128 L155.716463,34.0597128 L155.716463,34.061218 Z M182.638394,30.6430514 L174.233929,30.6430514 L174.233929,25.9598171 L182.137862,25.9598171 L182.137862,22.7952662 L174.233929,22.7952662 L174.233929,18.2798546 L182.638394,18.2798546 L182.638394,14.8631932 L170.240874,14.8631932 L170.240874,34.061218 L182.638394,34.061218 L182.638394,30.6430514 Z M188.438596,28.5193029 C188.508073,31.6424625 190.8038,34.4269663 195.896532,34.4269663 C200.808475,34.4269663 203.508363,31.9088718 203.508363,28.2942848 C203.508363,24.9190147 201.392679,23.4560214 198.373795,22.8231112 L195.493118,22.1909536 C193.837625,21.8522977 192.905289,21.1779963 192.905289,20.0807512 C192.905289,18.7441894 194.073697,17.7462835 196.063874,17.7462835 C198.15117,17.7462835 199.347219,18.8713735 199.458531,20.2636254 L203.216261,20.2636254 C203.187873,17.1833622 200.655327,14.4831461 196.077322,14.4831461 C191.834,14.4831461 188.883099,16.77547 188.883099,20.3908095 C188.883099,23.4424751 190.8038,25.1161877 193.781595,25.7769429 L196.633884,26.4098531 C198.568779,26.8463429 199.528755,27.4506555 199.528755,28.7164758 C199.528755,30.1230265 198.359601,31.121685 196.091516,31.121685 C193.823431,31.121685 192.431651,29.9679974 192.306892,28.5193029 L188.438596,28.5193029 Z M217.684642,34.061218 L217.684642,18.3791937 L223,18.3791937 L223,14.8616881 L208.333647,14.8616881 L208.333647,18.3784411 L213.649005,18.3784411 L213.649005,34.0604654 L217.684642,34.0604654 L217.684642,34.061218 Z" id="swiftfest" fill="#383838"></path>
            </g>
            <g id="swiftfest_logo-copy" transform="translate(0.000000, 125.000000)">
                <g id="Group-3" fill="url(#linearGradient-2)">
                    <g id="Group" transform="translate(26.097341, 26.327900) rotate(42.000000) translate(-26.097341, -26.327900) translate(6.097341, 9.827900)">
                        <path d="M8.96633365,1.4052247 C8.96633365,0.681059823 9.58938333,0.0933942795 10.346698,0.0933942795 L18.3158504,0.0933942795 C19.0776908,0.0933942795 19.6962147,0.675312482 19.6962147,1.4052247 C19.6933092,2.12958426 19.0763917,2.71555119 18.3158504,2.7163367 L10.346698,2.7163367 C9.58485755,2.7163367 8.96633365,2.13441849 8.96633365,1.4052247 Z M13.4310202,4.70994536 C13.4310202,3.98434365 14.0540699,3.39811494 14.8113845,3.39811494 L22.7805369,3.39811494 C23.5431316,3.39811494 24.1609012,3.98003314 24.1609012,4.70922694 C24.1584099,5.4338672 23.5413715,6.02027015 22.7805369,6.02105736 L14.8121388,6.02105736 C14.0495441,6.02105736 13.4310202,5.43913915 13.4310202,4.70922694 L13.4310202,4.70994536 Z M19.6962147,8.01322918 C19.6962147,7.2890643 20.3200187,6.70211718 21.076579,6.70211718 L29.0457315,6.70211718 C29.8083262,6.70211718 30.4260958,7.28403538 30.4260958,8.01322918 C30.4236044,8.73786945 29.806566,9.32427239 29.0457315,9.3250596 L21.0773333,9.3250596 C20.3147386,9.3250596 19.696969,8.74314139 19.696969,8.01322918 L19.6962147,8.01322918 Z M16.5998237,11.3179498 C16.5998237,10.5930665 17.216839,10.0061194 17.9718908,10.0061194 L34.0957528,10.0061194 C34.8538217,10.0061194 35.4685741,10.5880376 35.4685741,11.3179498 C35.468577,12.0406565 34.8545508,12.6270818 34.0957528,12.6290618 L17.9718908,12.6290618 C17.2138218,12.6290618 16.5990694,12.0471436 16.5990694,11.3179498 L16.5998237,11.3179498 Z M3.02473273,14.6219521 C3.02473273,13.8977872 3.63948514,13.3101217 4.40283415,13.3101217 L37.9419154,13.3101217 C38.7037559,13.3101217 39.3207712,13.8920399 39.3207712,14.6219521 C39.3209724,14.970113 39.1756928,15.3040378 38.9169983,15.5500225 C38.6583038,15.7960072 38.3074637,15.9338276 37.9419154,15.9330641 L4.40283415,15.9330641 C3.64174803,15.9330641 3.02473273,15.3511459 3.02473273,14.6219521 Z M3.89635156e-20,17.9259543 C-0.00120551484,17.5779337 0.14331293,17.2438151 0.401550828,16.9975912 C0.659788725,16.7513673 1.0104356,16.6133571 1.37583853,16.6141239 L30.6350362,16.6141239 C31.0004391,16.6133571 31.351086,16.7513673 31.6093239,16.9975912 C31.8675618,17.2438151 32.0120802,17.5779337 32.0108747,17.9259543 C32.0118783,18.2737259 31.8673745,18.60755 31.6093219,18.8535974 C31.3512693,19.0996447 31.0009317,19.2376409 30.6357905,19.2370663 L1.37583853,19.2370663 C1.01056672,19.2378322 0.660034885,19.0999206 0.40181888,18.8538524 C0.143602876,18.6077842 -0.00100438164,18.2738507 1.52453225e-16,17.9259543 Z M19.6962147,21.230675 C19.6962147,20.5057917 20.3200187,19.9188446 21.076579,19.9188446 L29.0457315,19.9188446 C29.8083262,19.9188446 30.4260958,20.5007628 30.4260958,21.2299566 C30.4236044,21.9545968 29.806566,22.5409998 29.0457315,22.541787 L21.0773333,22.541787 C20.3147386,22.541787 19.696969,21.9598688 19.696969,21.2299566 L19.6962147,21.230675 Z M17.3563841,24.5339588 C17.3563841,23.8097939 17.980188,23.2228468 18.7367484,23.2228468 L26.7059008,23.2228468 C27.4684955,23.2228468 28.0870194,23.804765 28.0870194,24.5339588 C28.084528,25.2585991 27.4674897,25.845002 26.7066551,25.8457892 L18.7367484,25.8457892 C17.9741537,25.8457892 17.3563841,25.263871 17.3563841,24.5339588 Z M13.4317745,27.8386795 C13.4317745,27.1137962 14.0548242,26.526849 14.8121388,26.526849 L22.7812912,26.526849 C23.5438859,26.526849 24.1616555,27.1087672 24.1616555,27.8386795 C24.15875,28.563039 23.5418326,29.149006 22.7812912,29.1497915 L14.8121388,29.1497915 C14.0495441,29.1497915 13.4310202,28.5678733 13.4310202,27.8386795 L13.4317745,27.8386795 Z M8.03100482,31.1426817 C8.03100482,30.4185168 8.65405451,29.8308513 9.41136914,29.8308513 L17.379013,29.8308513 C18.1416077,29.8308513 18.7601316,30.4127695 18.7601316,31.1426817 C18.757226,31.8670413 18.1403086,32.4530082 17.3797673,32.4537937 L9.40986054,32.4537937 C8.64726583,32.4537937 8.02949623,31.8718755 8.02949623,31.1426817 L8.03100482,31.1426817 Z" id="Combined-Shape"></path>
                    </g>
                </g>
                <path d="M52.9698163,28.5193029 C53.0392932,31.6424625 55.3357667,34.4269663 60.4284994,34.4269663 C65.3404426,34.4269663 68.0395834,31.9088718 68.0395834,28.2942848 C68.0395834,24.9190147 65.9246464,23.4560214 62.9050152,22.8231112 L60.025085,22.1909536 C58.368845,21.8522977 57.4365096,21.1779963 57.4365096,20.0807512 C57.4365096,18.7441894 58.6056642,17.7462835 60.5950946,17.7462835 C62.6823903,17.7462835 63.8791862,18.8713735 63.9904987,20.2636254 L67.7474816,20.2636254 C67.7198402,17.1833622 65.1872946,14.4831461 60.6092888,14.4831461 C56.3652204,14.4831461 53.4150662,16.77547 53.4150662,20.3908095 C53.4150662,23.4424751 55.3350197,25.1161877 58.3135623,25.7769429 L61.1658511,26.4098531 C63.0999988,26.8463429 64.0599756,27.4506555 64.0599756,28.7164758 C64.0599756,30.1230265 62.890821,31.121685 60.623483,31.121685 C58.3546508,31.121685 56.9628713,29.9679974 56.8381117,28.5193029 L52.9698163,28.5193029 Z M81.422481,34.061218 L84.8597206,21.2758302 L85.0128687,21.2758302 L88.4359141,34.061218 L92.1510615,34.061218 L97.1190345,14.8631932 L92.8047421,14.8631932 L90.1056013,28.3085836 L89.9113648,28.3085836 L86.6272731,14.8624406 L83.231869,14.8624406 L79.9619716,28.3085836 L79.766988,28.3085836 L77.053653,14.8624406 L72.7259135,14.8624406 L77.7073336,34.0604654 L81.422481,34.0604654 L81.422481,34.061218 Z M106.759143,34.061218 L106.759143,14.8631932 L102.723506,14.8631932 L102.723506,34.061218 L106.759143,34.061218 Z M118.291564,34.061218 L118.291564,26.6348711 L125.818977,26.6348711 L125.818977,23.2731472 L118.292311,23.2731472 L118.292311,18.3235036 L126.543629,18.3235036 L126.543629,14.8616881 L114.256674,14.8616881 L114.256674,34.0597128 L118.292311,34.0597128 L118.291564,34.061218 Z M140.621296,34.061218 L140.621296,18.3791937 L145.9374,18.3791937 L145.9374,14.8616881 L131.271047,14.8616881 L131.271047,18.3784411 L136.586405,18.3784411 L136.586405,34.0604654 L140.622043,34.0604654 L140.621296,34.061218 Z M155.716463,34.061218 L155.716463,26.6348711 L163.244623,26.6348711 L163.244623,23.2731472 L155.716463,23.2731472 L155.716463,18.3235036 L163.967781,18.3235036 L163.967781,14.8616881 L151.680825,14.8616881 L151.680825,34.0597128 L155.716463,34.0597128 L155.716463,34.061218 Z M182.638394,30.6430514 L174.233929,30.6430514 L174.233929,25.9598171 L182.137862,25.9598171 L182.137862,22.7952662 L174.233929,22.7952662 L174.233929,18.2798546 L182.638394,18.2798546 L182.638394,14.8631932 L170.240874,14.8631932 L170.240874,34.061218 L182.638394,34.061218 L182.638394,30.6430514 Z M188.438596,28.5193029 C188.508073,31.6424625 190.8038,34.4269663 195.896532,34.4269663 C200.808475,34.4269663 203.508363,31.9088718 203.508363,28.2942848 C203.508363,24.9190147 201.392679,23.4560214 198.373795,22.8231112 L195.493118,22.1909536 C193.837625,21.8522977 192.905289,21.1779963 192.905289,20.0807512 C192.905289,18.7441894 194.073697,17.7462835 196.063874,17.7462835 C198.15117,17.7462835 199.347219,18.8713735 199.458531,20.2636254 L203.216261,20.2636254 C203.187873,17.1833622 200.655327,14.4831461 196.077322,14.4831461 C191.834,14.4831461 188.883099,16.77547 188.883099,20.3908095 C188.883099,23.4424751 190.8038,25.1161877 193.781595,25.7769429 L196.633884,26.4098531 C198.568779,26.8463429 199.528755,27.4506555 199.528755,28.7164758 C199.528755,30.1230265 198.359601,31.121685 196.091516,31.121685 C193.823431,31.121685 192.431651,29.9679974 192.306892,28.5193029 L188.438596,28.5193029 Z M217.684642,34.061218 L217.684642,18.3791937 L223,18.3791937 L223,14.8616881 L208.333647,14.8616881 L208.333647,18.3784411 L213.649005,18.3784411 L213.649005,34.0604654 L217.684642,34.0604654 L217.684642,34.061218 Z" id="swiftfest" fill="#E6E6E5"></path>
            </g>
        </g>
    </g>
</svg>