<svg xmlns="http://www.w3.org/2000/svg" width="185" height="188"><g fill="#4E4E4E"><path d="M115.9 17.97c0 2.67-.72 4.74-2.18 6.18-1.46 1.45-3.52 2.17-6.17 2.17h-5.14V10.3h5.5c2.57 0 4.54.65 5.93 1.96 1.4 1.32 2.08 3.22 2.08 5.7zm-4.45.15c0-1.47-.3-2.56-.87-3.27-.57-.7-1.45-1.06-2.62-1.06h-1.25v8.97h.96c1.3 0 2.27-.38 2.88-1.15s.9-1.93.9-3.5zM123.13 26.54c-2.05 0-3.65-.55-4.78-1.65-1.14-1.1-1.7-2.67-1.7-4.7 0-2.1.52-3.7 1.57-4.84 1.05-1.12 2.56-1.68 4.5-1.68 1.86 0 3.3.5 4.3 1.46s1.53 2.38 1.53 4.22v1.9h-7.6c.02.7.27 1.25.75 1.64.48.4 1.12.6 1.94.6.75 0 1.44-.08 2.06-.22.63-.14 1.3-.4 2.05-.73v3.08c-.67.35-1.36.58-2.07.72-.72.13-1.56.2-2.55.2zm-.25-9.94c-.5 0-.92.15-1.26.47-.33.32-.53.82-.6 1.5h3.67c-.03-.6-.2-1.08-.52-1.44s-.76-.53-1.3-.53zM132.85 26.32l-4.7-12.42h4.44l2.08 7.35c0 .03.02.1.04.18s.05.2.07.32c0 .12.03.25.05.38.02.14.03.26.03.38h.07c0-.37.07-.78.2-1.23l2.18-7.37h4.43l-4.7 12.43h-4.2zM146.38 26.32h-4.23V10.3h9.4v3.47h-5.17v3.06h4.77v3.47h-4.77v6.02zM158.53 26.54c-2.06 0-3.65-.55-4.8-1.65s-1.7-2.67-1.7-4.7c0-2.1.54-3.7 1.6-4.84 1.04-1.12 2.54-1.68 4.5-1.68 1.85 0 3.3.5 4.3 1.46 1 .98 1.52 2.38 1.52 4.22v1.9h-7.6c.02.7.27 1.25.75 1.64.47.4 1.12.6 1.94.6.75 0 1.44-.08 2.06-.22s1.3-.4 2.05-.73v3.08c-.67.35-1.36.58-2.07.72-.72.13-1.56.2-2.55.2zm-.25-9.94c-.5 0-.92.15-1.26.47-.34.32-.54.82-.6 1.5h3.66c0-.6-.18-1.08-.5-1.44-.32-.36-.76-.53-1.3-.53zM174.54 22.5c0 1.34-.45 2.34-1.35 3.02-.9.68-2.2 1.02-3.88 1.02-.92 0-1.7-.04-2.4-.14s-1.35-.28-2.05-.55v-3.43c.66.3 1.38.53 2.17.72.78.2 1.5.3 2.1.3.92 0 1.38-.22 1.38-.65 0-.23-.13-.42-.38-.6-.26-.16-1-.5-2.25-1-1.14-.46-1.93-1-2.38-1.6-.45-.6-.68-1.34-.68-2.26 0-1.15.44-2.05 1.33-2.7.9-.64 2.14-.96 3.76-.96.8 0 1.57.1 2.3.27s1.44.44 2.2.78l-1.14 2.77c-.58-.26-1.17-.48-1.8-.66-.64-.17-1.15-.26-1.55-.26-.7 0-1.05.17-1.05.5 0 .22.12.4.37.55s.94.46 2.1.92c.87.36 1.5.7 1.94 1.05s.74.75.94 1.22c.2.46.3 1.02.3 1.7zM181.6 23.16c.58 0 1.26-.15 2.06-.43v3.12c-.57.25-1.12.43-1.64.54-.52.1-1.12.14-1.82.14-1.43 0-2.46-.35-3.1-1.05-.62-.72-.94-1.8-.94-3.27V17.1h-1.5v-1.73l1.9-1.35 1.1-2.6h2.8v2.48h3.02v3.2h-3.03v4.85c0 .8.4 1.2 1.16 1.2z"/></g><g fill="#4E4E4E"><path d="M60.28 47.9H50.03v-1.85l3.9-3.92c1.15-1.18 1.92-2.02 2.3-2.5.37-.5.64-.97.8-1.4s.27-.9.27-1.4c0-.68-.2-1.22-.6-1.6-.42-.4-1-.6-1.72-.6-.57 0-1.13.1-1.68.32-.54.2-1.16.6-1.87 1.15l-1.32-1.6c.85-.7 1.67-1.2 2.47-1.5s1.63-.45 2.53-.45c1.4 0 2.53.36 3.38 1.1s1.28 1.72 1.28 2.96c0 .7-.13 1.34-.37 1.96-.26.6-.63 1.24-1.14 1.9-.5.65-1.35 1.53-2.53 2.64l-2.62 2.54v.1h7.18v2.15zM71.1 40.32c0 2.63-.42 4.58-1.26 5.86-.85 1.28-2.14 1.9-3.88 1.9-1.68 0-2.95-.65-3.82-1.96-.87-1.32-1.3-3.25-1.3-5.8 0-2.66.4-4.63 1.26-5.9.84-1.26 2.13-1.9 3.86-1.9 1.7 0 2.97.67 3.84 2 .87 1.3 1.3 3.25 1.3 5.8zm-7.8 0c0 2.07.2 3.54.63 4.42.42.88 1.1 1.32 2.03 1.32.93 0 1.6-.44 2.05-1.34.44-.9.65-2.36.65-4.4 0-2.02-.2-3.5-.64-4.4-.43-.9-1.1-1.36-2.04-1.36-.93 0-1.6.45-2.03 1.34-.42.9-.64 2.36-.64 4.42zM78.8 47.9H76.4V38.1c0-1.16.03-2.1.08-2.77-.15.17-.35.35-.58.55-.23.2-1 .83-2.32 1.9l-1.22-1.54 4.45-3.5h2V47.9zM93.28 44.6h-2.03v3.3h-2.37v-3.3h-6.9v-1.9l6.9-9.98h2.37v9.85h2.03v2.02zm-4.4-2.03v-3.8c0-1.35.03-2.46.1-3.32h-.08c-.2.46-.5 1-.9 1.66l-3.77 5.47h4.65zM107.33 43.78c0 1.34-.48 2.4-1.45 3.17-.98.76-2.32 1.14-4.03 1.14-1.7 0-3.1-.27-4.2-.8v-2.34c.7.32 1.42.58 2.2.76.78.2 1.5.28 2.17.28.98 0 1.7-.18 2.16-.56.47-.37.7-.87.7-1.5 0-.56-.2-1.04-.64-1.43-.43-.4-1.3-.85-2.65-1.4-1.4-.55-2.36-1.2-2.92-1.9-.57-.72-.85-1.58-.85-2.6 0-1.25.45-2.24 1.34-2.97s2.1-1.08 3.6-1.08c1.46 0 2.9.3 4.34.95l-.78 2c-1.34-.55-2.54-.83-3.6-.83-.8 0-1.4.17-1.82.52-.4.34-.62.8-.62 1.37 0 .4.08.73.25 1s.44.55.82.8c.37.25 1.06.58 2.04.98 1.1.46 1.92.9 2.43 1.3.52.4.9.85 1.14 1.35.24.5.36 1.1.36 1.78zM113.73 48.1c-1.78 0-3.17-.53-4.18-1.56-1-1.04-1.5-2.47-1.5-4.3 0-1.86.47-3.33 1.4-4.4s2.2-1.6 3.83-1.6c1.5 0 2.7.46 3.58 1.37.88.93 1.32 2.2 1.32 3.8v1.3h-7.63c.04 1.12.34 1.98.9 2.57.57.6 1.36.9 2.4.9.67 0 1.3-.06 1.88-.2.58-.12 1.2-.33 1.88-.63v1.98c-.6.28-1.2.48-1.8.6s-1.3.17-2.07.17zm-.45-10.02c-.77 0-1.4.24-1.85.73-.47.5-.75 1.22-.84 2.16h5.2c-.03-.95-.25-1.66-.7-2.15s-1.04-.72-1.8-.72zM126.83 47.9l-.5-1.6h-.07c-.56.7-1.1 1.16-1.67 1.42-.57.25-1.28.37-2.16.37-1.12 0-2-.3-2.63-.92-.62-.6-.94-1.46-.94-2.57 0-1.17.44-2.06 1.32-2.66.87-.6 2.2-.93 4-.98l1.97-.07v-.62c0-.73-.17-1.27-.5-1.64-.35-.36-.88-.54-1.6-.54-.58 0-1.14.1-1.68.26-.54.17-1.06.37-1.55.6l-.8-1.73c.63-.32 1.3-.57 2.05-.74.74-.18 1.43-.26 2.1-.26 1.44 0 2.54.3 3.28.95.74.62 1.1 1.62 1.1 2.98v7.7h-1.72zm-3.63-1.67c.9 0 1.6-.25 2.13-.74.53-.5.8-1.2.8-2.08v-1l-1.47.07c-1.14.03-1.97.22-2.5.56s-.77.86-.77 1.57c-.02.5.14.9.44 1.18.3.3.76.43 1.36.43zM138.37 44.63c0 1.1-.4 1.97-1.22 2.57-.8.6-1.98.9-3.5.9s-2.74-.24-3.67-.7v-2.1c1.35.62 2.6.93 3.76.93 1.5 0 2.24-.45 2.24-1.35 0-.3-.08-.54-.25-.73-.16-.2-.43-.4-.8-.6-.4-.2-.92-.44-1.6-.7-1.3-.5-2.2-1.02-2.67-1.53-.47-.5-.7-1.17-.7-2 0-.97.4-1.73 1.2-2.27.78-.54 1.85-.8 3.2-.8s2.63.26 3.83.8l-.8 1.84c-1.23-.52-2.27-.78-3.1-.78-1.3 0-1.94.37-1.94 1.1 0 .36.17.66.5.9.34.26 1.07.6 2.2 1.03.94.37 1.62.7 2.05 1 .44.3.75.66.96 1.05s.3.88.3 1.43zM149.88 42.15c0 1.86-.48 3.32-1.44 4.37-.96 1.05-2.3 1.57-4 1.57-1.07 0-2.02-.25-2.84-.73-.82-.48-1.45-1.18-1.9-2.08-.43-.9-.66-1.96-.66-3.16 0-1.85.48-3.3 1.43-4.34s2.3-1.56 4.03-1.56c1.65 0 2.96.53 3.93 1.6s1.45 2.5 1.45 4.3zm-8.33 0c0 2.64.97 3.96 2.93 3.96 1.93 0 2.9-1.3 2.9-3.95 0-2.62-.98-3.92-2.93-3.92-1.02 0-1.76.33-2.2 1-.47.68-.7 1.65-.7 2.92zM161.46 47.9h-2.44v-7.05c0-.88-.18-1.54-.53-1.97-.37-.44-.93-.66-1.7-.66-1.03 0-1.78.3-2.26.9-.47.62-.7 1.64-.7 3.07v5.7h-2.44V36.44h1.9l.34 1.5h.13c.34-.55.83-.97 1.47-1.27.63-.3 1.33-.44 2.1-.44 2.75 0 4.12 1.4 4.12 4.2v7.45z"/></g><g fill="#4E4E4E"><path d="M55.57 17.3h6.92v8.66c-1.9.64-3.95.96-6.2.96-2.48 0-4.4-.7-5.74-2.15-1.35-1.43-2.02-3.47-2.02-6.13 0-2.6.74-4.6 2.22-6.04 1.47-1.44 3.54-2.16 6.2-2.16 1 0 1.97.1 2.86.28.9.2 1.68.43 2.34.72l-1.37 3.4c-1.16-.57-2.43-.85-3.8-.85-1.28 0-2.26.4-2.95 1.22-.7.83-1.04 2-1.04 3.53 0 1.5.33 2.64.95 3.43.63.78 1.53 1.18 2.7 1.18.65 0 1.24-.07 1.78-.2v-2.5h-2.86V17.3zM78.03 18.34c0 2.68-.74 4.74-2.2 6.2s-3.56 2.16-6.23 2.16h-5.2V10.67h5.56c2.58 0 4.57.65 5.97 1.97s2.1 3.22 2.1 5.7zm-4.5.16c0-1.47-.3-2.56-.87-3.27-.6-.7-1.47-1.06-2.65-1.06h-1.25v8.98h.96c1.33 0 2.3-.38 2.9-1.15s.93-1.93.93-3.5zM86 17.3h6.9v8.66c-1.87.64-3.93.96-6.2.96-2.46 0-4.37-.7-5.72-2.15-1.34-1.43-2.02-3.47-2.02-6.13 0-2.6.74-4.6 2.22-6.04 1.47-1.44 3.54-2.16 6.2-2.16 1 0 1.97.1 2.86.28.9.2 1.68.43 2.34.72l-1.37 3.4c-1.14-.57-2.4-.85-3.8-.85-1.26 0-2.24.4-2.93 1.22-.7.83-1.03 2-1.03 3.53 0 1.5.3 2.64.93 3.43.63.78 1.53 1.18 2.7 1.18.65 0 1.24-.07 1.78-.2v-2.5H86V17.3z"/></g><radialGradient id="a" cx="-310.583" cy="-60.055" r="20.114" gradientTransform="matrix(.498 0 0 .498 172.289 79.739)" gradientUnits="userSpaceOnUse"><stop offset="0" stop-color="#FFCF4F"/><stop offset="1" stop-color="#F4C236"/></radialGradient><path fill="url(#a)" d="M8.9 61h6.8c1.6 0 3.6-1.13 4.43-2.5l5.72-9.53c.68-1.4.66-3.43-.12-4.7l-3.37-5.6L8.9 61z"/><radialGradient id="b" cx="-322.635" cy="-70.269" r="27.658" gradientTransform="matrix(.498 0 0 .498 172.289 79.739)" gradientUnits="userSpaceOnUse"><stop offset="0" stop-color="#08A960"/><stop offset="1" stop-color="#07914B"/></radialGradient><path fill="url(#b)" d="M16.2 33.5L1.1 58.77C.53 60 1.14 61 2.64 61H8.9l13.46-22.34L16.2 28.5c.84 1.37.84 3.63 0 5"/><radialGradient id="c" cx="-313.183" cy="-109.951" r="40.54" gradientTransform="matrix(.498 0 0 .498 172.289 79.739)" gradientUnits="userSpaceOnUse"><stop offset="0" stop-color="#567FC0"/><stop offset="1" stop-color="#557FC0"/></radialGradient><path fill="url(#c)" d="M2.63 1C1.03 1 .38 2.13 1.2 3.5l24.53 40.76c.78 1.28.8 3.3.12 4.7l5.97-9.92L8.92 1H2.6z"/><radialGradient id="d" cx="-301.119" cy="-119.916" r="33.058" gradientTransform="matrix(.498 0 0 .498 172.289 79.739)" gradientUnits="userSpaceOnUse"><stop offset="0" stop-color="#E14C40"/><stop offset="1" stop-color="#CD392D"/></radialGradient><path fill="url(#d)" d="M8.9 1l22.92 38.05 3.32-5.53c.83-1.4.83-3.65 0-5.03l-15-25C19.3 2.14 17.3 1 15.7 1H8.9z"/><g fill="#4E4E4E"><path d="M115.9 80.97c0 2.67-.72 4.74-2.18 6.18-1.46 1.45-3.52 2.17-6.17 2.17h-5.14V73.3h5.5c2.57 0 4.54.65 5.93 1.96s2.08 3.22 2.08 5.7zm-4.45.15c0-1.47-.3-2.56-.87-3.27-.57-.7-1.45-1.06-2.62-1.06h-1.25v8.97h.96c1.3 0 2.27-.38 2.88-1.15.6-.76.9-1.93.9-3.5zM123.13 89.54c-2.05 0-3.65-.55-4.78-1.65-1.14-1.1-1.7-2.67-1.7-4.7 0-2.1.52-3.72 1.57-4.84 1.05-1.12 2.56-1.68 4.5-1.68 1.86 0 3.3.5 4.3 1.46 1.02.98 1.53 2.38 1.53 4.22v1.9h-7.6c.02.7.27 1.25.75 1.64.48.4 1.12.6 1.94.6.75 0 1.44-.08 2.06-.22.63-.14 1.3-.38 2.05-.73v3.08c-.67.35-1.36.6-2.07.72-.72.13-1.56.2-2.55.2zm-.25-9.94c-.5 0-.92.16-1.26.47-.33.32-.53.82-.6 1.5h3.67c-.03-.6-.2-1.08-.52-1.44s-.76-.53-1.3-.53zM132.85 89.32l-4.7-12.42h4.44l2.08 7.35c0 .03.02.1.04.18s.05.2.07.32c0 .12.03.24.05.38.02.14.03.26.03.38h.07c0-.37.07-.78.2-1.23l2.18-7.37h4.43l-4.7 12.43h-4.2zM146.38 89.32h-4.23V73.3h9.4v3.47h-5.17v3.06h4.77v3.47h-4.77v6.02zM158.53 89.54c-2.06 0-3.65-.55-4.8-1.65s-1.7-2.67-1.7-4.7c0-2.1.54-3.72 1.6-4.84 1.04-1.12 2.54-1.68 4.5-1.68 1.85 0 3.3.5 4.3 1.46 1 .98 1.52 2.38 1.52 4.22v1.9h-7.6c.02.7.27 1.25.75 1.64.47.4 1.12.6 1.94.6.75 0 1.44-.08 2.06-.22s1.3-.38 2.05-.73v3.08c-.67.35-1.36.6-2.07.72-.72.13-1.56.2-2.55.2zm-.25-9.94c-.5 0-.92.16-1.26.47-.34.32-.54.82-.6 1.5h3.66c0-.6-.18-1.08-.5-1.44-.32-.35-.76-.53-1.3-.53zM174.54 85.5c0 1.34-.45 2.34-1.35 3.02-.9.7-2.2 1.03-3.88 1.03-.92 0-1.7-.05-2.4-.15s-1.35-.28-2.05-.55v-3.43c.66.3 1.38.53 2.17.72.78.2 1.5.3 2.1.3.92 0 1.38-.22 1.38-.65 0-.23-.13-.42-.38-.6-.26-.17-1-.5-2.25-1-1.14-.47-1.93-1-2.38-1.6-.45-.6-.68-1.34-.68-2.26 0-1.15.44-2.05 1.33-2.7.9-.64 2.14-.96 3.76-.96.8 0 1.57.1 2.3.27.7.18 1.44.44 2.2.78l-1.14 2.77c-.58-.26-1.17-.48-1.8-.66-.64-.18-1.15-.27-1.55-.27-.7 0-1.05.18-1.05.52 0 .2.12.38.37.53.24.15.94.46 2.1.92.87.36 1.5.7 1.94 1.05s.74.75.94 1.2c.2.48.3 1.04.3 1.7zM181.6 86.15c.58 0 1.26-.14 2.06-.42v3.12c-.57.25-1.12.43-1.64.53-.52.1-1.12.16-1.82.16-1.43 0-2.46-.35-3.1-1.06-.62-.7-.94-1.78-.94-3.25V80.1h-1.5v-1.73l1.9-1.35 1.1-2.6h2.8v2.48h3.02v3.2h-3.03v4.85c0 .8.4 1.2 1.16 1.2z"/></g><g fill="#4E4E4E"><path d="M60.28 110.9H50.03v-1.86l3.9-3.92c1.15-1.18 1.92-2 2.3-2.5s.64-.96.8-1.4c.2-.43.27-.9.27-1.4 0-.68-.2-1.2-.6-1.6-.42-.4-1-.6-1.72-.6-.57 0-1.13.1-1.68.32-.54.22-1.16.6-1.87 1.16l-1.32-1.6c.85-.7 1.67-1.2 2.47-1.5.8-.3 1.63-.46 2.53-.46 1.4 0 2.53.37 3.38 1.1s1.28 1.73 1.28 2.97c0 .7-.13 1.34-.37 1.96-.26.6-.63 1.24-1.14 1.9s-1.35 1.53-2.53 2.64l-2.62 2.54v.1h7.18v2.15zM71.1 103.32c0 2.63-.42 4.58-1.26 5.86-.85 1.27-2.14 1.9-3.88 1.9-1.68 0-2.95-.65-3.82-1.96-.87-1.32-1.3-3.25-1.3-5.8 0-2.67.4-4.63 1.26-5.9.84-1.26 2.13-1.9 3.86-1.9 1.7 0 2.97.67 3.84 2s1.3 3.25 1.3 5.8zm-7.8 0c0 2.07.2 3.54.63 4.42.42.88 1.1 1.33 2.03 1.33.93 0 1.6-.45 2.05-1.35.44-.9.65-2.36.65-4.4 0-2.02-.2-3.5-.64-4.4-.43-.9-1.1-1.36-2.04-1.36-.93 0-1.6.45-2.03 1.34-.42.9-.64 2.36-.64 4.42zM78.8 110.9H76.4v-9.78c0-1.17.03-2.1.08-2.77-.15.16-.35.35-.58.55-.23.2-1 .83-2.32 1.9l-1.22-1.54 4.45-3.5h2v15.13zM93.28 107.6h-2.03v3.3h-2.37v-3.3h-6.9v-1.9l6.9-9.98h2.37v9.85h2.03v2.02zm-4.4-2.03v-3.8c0-1.35.03-2.46.1-3.32h-.08c-.2.46-.5 1-.9 1.66l-3.77 5.47h4.65zM107.33 106.78c0 1.34-.48 2.4-1.45 3.16-.98.77-2.32 1.15-4.03 1.15-1.7 0-3.1-.27-4.2-.8v-2.34c.7.32 1.42.58 2.2.76.78.2 1.5.28 2.17.28.98 0 1.7-.18 2.16-.56s.7-.87.7-1.5c0-.56-.2-1.04-.64-1.43-.43-.4-1.3-.85-2.65-1.4-1.4-.55-2.36-1.2-2.92-1.9-.57-.72-.85-1.58-.85-2.6 0-1.25.45-2.25 1.34-2.97.9-.72 2.1-1.1 3.6-1.1 1.46 0 2.9.33 4.34.97l-.78 2c-1.34-.55-2.54-.83-3.6-.83-.8 0-1.4.17-1.82.52-.4.34-.62.8-.62 1.37 0 .4.08.73.25 1s.44.55.82.8c.37.25 1.06.57 2.04.98 1.1.46 1.92.9 2.43 1.3.52.4.9.85 1.14 1.35.24.5.36 1.1.36 1.78zM113.73 111.1c-1.78 0-3.17-.53-4.18-1.56s-1.5-2.47-1.5-4.3c0-1.86.47-3.33 1.4-4.4.93-1.07 2.2-1.6 3.83-1.6 1.5 0 2.7.46 3.58 1.37.88.93 1.32 2.2 1.32 3.8v1.3h-7.63c.04 1.12.34 1.98.9 2.57.57.6 1.36.9 2.4.9.67 0 1.3-.06 1.88-.2.58-.12 1.2-.33 1.88-.63v1.98c-.6.28-1.2.48-1.8.6s-1.3.17-2.07.17zm-.45-10.02c-.77 0-1.4.24-1.85.73-.47.5-.75 1.22-.84 2.15h5.2c-.03-.94-.25-1.66-.7-2.14s-1.04-.72-1.8-.72zM126.83 110.9l-.5-1.6h-.07c-.56.7-1.1 1.16-1.67 1.4-.57.27-1.28.4-2.16.4-1.12 0-2-.3-2.63-.92-.62-.6-.94-1.46-.94-2.57 0-1.17.44-2.06 1.32-2.66.87-.6 2.2-.93 4-.98l1.97-.07v-.62c0-.73-.17-1.27-.5-1.64-.35-.36-.88-.54-1.6-.54-.58 0-1.14.1-1.68.26-.54.17-1.06.37-1.55.6l-.8-1.73c.63-.32 1.3-.57 2.05-.74s1.43-.26 2.1-.26c1.44 0 2.54.32 3.28.95.74.62 1.1 1.62 1.1 2.98v7.7h-1.72zm-3.63-1.67c.9 0 1.6-.25 2.13-.74.53-.5.8-1.2.8-2.08v-1l-1.47.07c-1.14.03-1.97.22-2.5.56-.5.34-.77.86-.77 1.57-.02.5.14.9.44 1.18.3.3.76.43 1.36.43zM138.37 107.63c0 1.1-.4 1.97-1.22 2.57-.8.6-1.98.9-3.5.9s-2.74-.24-3.67-.7v-2.1c1.35.62 2.6.93 3.76.93 1.5 0 2.24-.45 2.24-1.35 0-.3-.08-.53-.25-.73-.16-.2-.43-.4-.8-.6s-.92-.44-1.6-.7c-1.3-.5-2.2-1.02-2.67-1.53-.47-.5-.7-1.17-.7-2 0-.97.4-1.73 1.2-2.27.78-.54 1.85-.8 3.2-.8s2.63.26 3.83.8l-.8 1.84c-1.23-.52-2.27-.78-3.1-.78-1.3 0-1.94.37-1.94 1.1 0 .36.17.66.5.9.34.26 1.07.6 2.2 1.03.94.37 1.62.7 2.05 1 .44.3.75.66.96 1.05s.3.88.3 1.43zM149.88 105.14c0 1.87-.48 3.33-1.44 4.38-.96 1.05-2.3 1.57-4 1.57-1.07 0-2.02-.25-2.84-.73-.82-.48-1.45-1.18-1.9-2.08s-.66-1.96-.66-3.16c0-1.85.48-3.3 1.43-4.34s2.3-1.56 4.03-1.56c1.65 0 2.96.53 3.93 1.6s1.45 2.5 1.45 4.3zm-8.33 0c0 2.65.97 3.97 2.93 3.97 1.93 0 2.9-1.3 2.9-3.95 0-2.62-.98-3.93-2.93-3.93-1.02 0-1.76.34-2.2 1.02-.47.67-.7 1.64-.7 2.9zM161.46 110.9h-2.44v-7.05c0-.88-.18-1.54-.53-1.97-.37-.44-.93-.66-1.7-.66-1.03 0-1.78.3-2.26.9-.47.62-.7 1.64-.7 3.07v5.7h-2.44V99.43h1.9l.34 1.5h.13c.34-.54.83-.96 1.47-1.26.63-.3 1.33-.44 2.1-.44 2.75 0 4.12 1.4 4.12 4.2v7.45z"/></g><g fill="#4E4E4E"><path d="M55.57 80.3h6.92v8.66c-1.9.64-3.95.96-6.2.96-2.48 0-4.4-.7-5.74-2.15-1.35-1.43-2.02-3.47-2.02-6.13 0-2.6.74-4.6 2.22-6.04 1.47-1.44 3.54-2.16 6.2-2.16 1 0 1.97.1 2.86.28.9.2 1.68.43 2.34.73l-1.37 3.4c-1.16-.57-2.43-.86-3.8-.86-1.28 0-2.26.4-2.95 1.22-.7.83-1.04 2-1.04 3.53 0 1.5.33 2.64.95 3.43.63.78 1.53 1.18 2.7 1.18.65 0 1.24-.06 1.78-.2v-2.5h-2.86V80.3zM78.03 81.34c0 2.68-.74 4.74-2.2 6.2-1.5 1.44-3.56 2.16-6.23 2.16h-5.2V73.67h5.56c2.58 0 4.57.65 5.97 1.97s2.1 3.22 2.1 5.7zm-4.5.16c0-1.47-.3-2.56-.87-3.27S71.2 77.16 70 77.16h-1.25v9h.96c1.33 0 2.3-.4 2.9-1.16.62-.76.93-1.93.93-3.5zM86 80.3h6.9v8.66c-1.87.64-3.93.96-6.2.96-2.46 0-4.37-.7-5.72-2.15-1.34-1.43-2.02-3.47-2.02-6.13 0-2.6.74-4.6 2.22-6.04 1.47-1.44 3.54-2.16 6.2-2.16 1 0 1.97.1 2.86.28.9.2 1.68.43 2.34.73l-1.37 3.4c-1.14-.57-2.4-.86-3.8-.86-1.26 0-2.24.4-2.93 1.22-.7.83-1.03 2-1.03 3.53 0 1.5.3 2.64.93 3.43.63.78 1.53 1.18 2.7 1.18.65 0 1.24-.06 1.78-.2v-2.5H86V80.3z"/></g><radialGradient id="e" cx="-310.583" cy="66.455" r="20.114" gradientTransform="matrix(.498 0 0 .498 172.289 79.739)" gradientUnits="userSpaceOnUse"><stop offset="0" stop-color="#ccc"/><stop offset="1" stop-color="#C0C0C0"/></radialGradient><path fill="url(#e)" d="M8.9 124h6.8c1.6 0 3.6-1.13 4.43-2.5l5.72-9.53c.68-1.4.66-3.43-.12-4.7l-3.37-5.6L8.9 124z"/><radialGradient id="f" cx="-322.635" cy="56.241" r="27.658" gradientTransform="matrix(.498 0 0 .498 172.289 79.739)" gradientUnits="userSpaceOnUse"><stop offset="0" stop-color="#A0A0A0"/><stop offset="1" stop-color="#7B7B7B"/></radialGradient><path fill="url(#f)" d="M16.2 96.5L1.1 121.77C.53 123 1.14 124 2.64 124H8.9l13.46-22.34L16.2 91.5c.84 1.37.84 3.63 0 5"/><radialGradient id="g" cx="-313.183" cy="16.559" r="40.54" gradientTransform="matrix(.498 0 0 .498 172.289 79.739)" gradientUnits="userSpaceOnUse"><stop offset="0" stop-color="#848484"/><stop offset="1" stop-color="#838383"/></radialGradient><path fill="url(#g)" d="M2.63 64c-1.6 0-2.25 1.13-1.42 2.5l24.53 40.76c.78 1.28.8 3.3.12 4.7l5.97-9.92L8.92 64H2.6z"/><radialGradient id="h" cx="-301.119" cy="6.594" r="33.058" gradientTransform="matrix(.498 0 0 .498 172.289 79.739)" gradientUnits="userSpaceOnUse"><stop offset="0" stop-color="#626262"/><stop offset="1" stop-color="#474747"/></radialGradient><path fill="url(#h)" d="M8.9 64l22.92 38.05 3.32-5.53c.83-1.4.83-3.65 0-5.03l-15-25C19.3 65.14 17.3 64 15.7 64H8.9z"/><g fill="#E6E6E5"><path d="M116.07 143.97c0 2.67-.73 4.74-2.2 6.18-1.45 1.45-3.5 2.18-6.16 2.18h-5.14V136.3h5.5c2.57 0 4.54.65 5.93 1.97s2.07 3.2 2.07 5.7zm-4.46.15c0-1.47-.28-2.56-.86-3.27-.57-.7-1.45-1.06-2.63-1.06h-1.24v8.97h.96c1.3 0 2.27-.38 2.88-1.15.6-.76.9-1.93.9-3.5zM123.3 152.54c-2.07 0-3.66-.55-4.8-1.65-1.13-1.1-1.7-2.67-1.7-4.7 0-2.1.53-3.72 1.58-4.84 1.05-1.12 2.55-1.68 4.5-1.68 1.86 0 3.3.5 4.3 1.46s1.53 2.4 1.53 4.22v1.9h-7.6c.03.7.28 1.25.76 1.64.47.4 1.12.6 1.94.6.75 0 1.43-.08 2.06-.22.63-.14 1.3-.38 2.04-.73v3.08c-.67.35-1.35.58-2.07.72-.7.13-1.55.2-2.54.2zm-.26-9.94c-.5 0-.92.16-1.26.47-.34.32-.54.82-.6 1.5h3.66c0-.6-.18-1.08-.5-1.44-.32-.35-.76-.53-1.3-.53zM133 152.32l-4.7-12.42h4.45l2.1 7.35c0 .03 0 .1.03.18s.04.2.07.32c.02.12.04.25.06.38.02.14.03.26.03.38h.08c0-.37.07-.8.2-1.23l2.2-7.37h4.42l-4.7 12.43h-4.2zM146.54 152.32h-4.24V136.3h9.4v3.47h-5.16v3.06h4.77v3.47h-4.76v6.02zM158.7 152.54c-2.07 0-3.66-.55-4.8-1.65-1.13-1.1-1.7-2.67-1.7-4.7 0-2.1.53-3.72 1.58-4.84 1.05-1.12 2.55-1.68 4.5-1.68 1.86 0 3.3.5 4.3 1.46 1.02.98 1.53 2.4 1.53 4.22v1.9h-7.6c.03.7.28 1.25.76 1.64.47.4 1.12.6 1.94.6.75 0 1.44-.08 2.06-.22s1.3-.38 2.04-.73v3.08c-.66.35-1.35.58-2.06.72-.72.13-1.57.2-2.55.2zm-.26-9.94c-.5 0-.92.16-1.26.47-.34.32-.54.82-.6 1.5h3.66c0-.6-.18-1.08-.5-1.44-.33-.35-.76-.53-1.3-.53zM174.7 148.5c0 1.34-.45 2.34-1.35 3.02-.9.68-2.2 1.02-3.88 1.02-.9 0-1.7-.05-2.38-.14s-1.37-.28-2.08-.55v-3.43c.66.3 1.4.53 2.17.73s1.48.28 2.1.28c.92 0 1.38-.2 1.38-.64 0-.23-.13-.42-.38-.6-.26-.16-1-.5-2.25-1-1.13-.46-1.92-1-2.37-1.6-.45-.6-.68-1.34-.68-2.26 0-1.15.44-2.05 1.33-2.7.88-.64 2.14-.96 3.75-.96.82 0 1.58.1 2.3.27.7.18 1.45.44 2.22.78l-1.15 2.77c-.57-.26-1.17-.48-1.8-.66-.63-.18-1.14-.26-1.54-.26-.7 0-1.04.17-1.04.5 0 .22.12.4.37.55.24.15.94.46 2.1.92.86.36 1.5.7 1.93 1.05.43.35.74.75.94 1.2.2.48.3 1.04.3 1.7zM181.76 149.15c.58 0 1.26-.14 2.06-.42v3.12c-.57.25-1.12.43-1.64.53-.52.1-1.12.16-1.82.16-1.43 0-2.46-.35-3.1-1.06-.62-.7-.94-1.8-.94-3.25v-5.12h-1.5v-1.73l1.9-1.35 1.1-2.6h2.8v2.48h3.02v3.2h-3.03v4.85c0 .8.4 1.2 1.16 1.2z"/></g><g fill="#E6E6E5"><path d="M60.44 173.9H50.2v-1.86l3.9-3.92c1.14-1.18 1.9-2 2.28-2.5s.65-.96.82-1.4c.17-.43.26-.9.26-1.4 0-.68-.2-1.2-.6-1.6-.42-.4-1-.6-1.72-.6-.58 0-1.14.1-1.68.33-.54.2-1.16.6-1.87 1.15l-1.33-1.6c.84-.7 1.66-1.22 2.45-1.5.8-.3 1.64-.46 2.54-.46 1.4 0 2.53.37 3.38 1.1s1.27 1.73 1.27 2.97c0 .7-.1 1.34-.35 1.95-.25.62-.62 1.25-1.13 1.9s-1.35 1.54-2.53 2.65l-2.64 2.54v.1h7.18v2.15zM71.26 166.32c0 2.63-.42 4.58-1.27 5.86-.85 1.27-2.14 1.9-3.88 1.9-1.68 0-2.96-.65-3.83-1.96-.87-1.32-1.3-3.25-1.3-5.8 0-2.67.4-4.63 1.26-5.9.84-1.26 2.13-1.9 3.86-1.9 1.7 0 2.97.67 3.84 2s1.3 3.25 1.3 5.8zm-7.8 0c0 2.07.2 3.54.63 4.42.4.88 1.1 1.33 2.02 1.33.93 0 1.6-.45 2.04-1.35.44-.9.65-2.36.65-4.4 0-2.02-.2-3.5-.64-4.4-.43-.9-1.1-1.36-2.04-1.36-.93 0-1.6.45-2.03 1.34-.43.9-.65 2.36-.65 4.42zM78.97 173.9h-2.43v-9.78c0-1.17.03-2.1.08-2.77-.16.16-.35.35-.58.55-.23.2-1 .83-2.32 1.9l-1.22-1.54 4.44-3.5h2.03v15.13zM93.44 170.6H91.4v3.3h-2.36v-3.3h-6.9v-1.9l6.9-9.98h2.36v9.85h2.04v2.02zm-4.4-2.03v-3.8c0-1.35.03-2.46.1-3.32h-.08c-.2.46-.5 1-.9 1.66l-3.77 5.47h4.64zM107.5 169.78c0 1.34-.5 2.4-1.46 3.16-.98.77-2.32 1.15-4.03 1.15-1.7 0-3.1-.27-4.2-.8v-2.34c.7.32 1.43.58 2.2.76.8.2 1.5.28 2.18.28.98 0 1.7-.2 2.16-.56s.7-.87.7-1.5c0-.56-.2-1.04-.64-1.44-.43-.4-1.3-.85-2.65-1.4-1.38-.55-2.35-1.2-2.9-1.9-.58-.72-.86-1.58-.86-2.6 0-1.25.44-2.25 1.33-2.97.9-.72 2.1-1.1 3.6-1.1 1.46 0 2.9.33 4.34.97l-.8 2c-1.33-.55-2.53-.84-3.6-.84-.8 0-1.4.18-1.8.53-.42.33-.63.8-.63 1.37 0 .4.08.73.25 1s.43.55.8.8c.38.25 1.07.57 2.05.98 1.1.46 1.93.9 2.44 1.3.5.4.9.84 1.13 1.35.24.5.36 1.1.36 1.78zM113.9 174.1c-1.8 0-3.18-.53-4.2-1.56s-1.5-2.47-1.5-4.3c0-1.86.47-3.33 1.4-4.4.94-1.07 2.22-1.6 3.84-1.6 1.5 0 2.7.46 3.58 1.37.88.93 1.3 2.2 1.3 3.8v1.3h-7.6c.02 1.12.32 1.98.9 2.57.56.6 1.35.9 2.38.9.68 0 1.3-.07 1.9-.2.57-.12 1.2-.33 1.87-.63v1.98c-.6.28-1.2.48-1.8.6s-1.3.17-2.08.17zm-.46-10.02c-.77 0-1.4.24-1.85.73-.48.5-.76 1.22-.85 2.16h5.2c-.02-.95-.25-1.66-.7-2.15s-1.03-.72-1.8-.72zM126.98 173.9l-.48-1.6h-.08c-.56.7-1.1 1.16-1.67 1.4-.56.27-1.27.4-2.15.4-1.12 0-2-.3-2.63-.92-.64-.6-.95-1.46-.95-2.57 0-1.17.44-2.06 1.3-2.66.9-.6 2.22-.93 4.02-.98l1.97-.07v-.62c0-.73-.16-1.27-.5-1.64-.34-.36-.87-.54-1.6-.54-.57 0-1.13.1-1.67.26-.54.17-1.06.37-1.56.6l-.78-1.73c.6-.32 1.3-.57 2.03-.74s1.43-.26 2.1-.26c1.44 0 2.54.32 3.28.95.75.63 1.12 1.62 1.12 2.98v7.7h-1.74zm-3.62-1.67c.9 0 1.6-.25 2.13-.74.52-.5.8-1.2.8-2.08v-1l-1.48.07c-1.14.03-1.97.22-2.5.56-.52.34-.78.86-.78 1.57 0 .5.15.9.46 1.18.3.3.76.43 1.36.43zM138.53 170.63c0 1.1-.4 1.97-1.22 2.57-.8.6-1.97.9-3.5.9-1.5 0-2.74-.24-3.66-.7v-2.1c1.34.62 2.6.93 3.75.93 1.5 0 2.24-.45 2.24-1.35 0-.3-.08-.53-.25-.73-.17-.2-.45-.4-.83-.6s-.9-.44-1.58-.7c-1.33-.5-2.22-1.02-2.68-1.53-.47-.5-.7-1.17-.7-2 0-.97.4-1.73 1.18-2.27.8-.54 1.87-.8 3.23-.8 1.34 0 2.6.26 3.8.8l-.77 1.84c-1.24-.52-2.27-.78-3.12-.78-1.28 0-1.92.37-1.92 1.1 0 .36.17.66.5.9.34.26 1.07.6 2.2 1.03.93.37 1.62.7 2.05 1 .43.3.74.66.95 1.05s.3.88.3 1.43zM150.03 168.15c0 1.86-.48 3.32-1.43 4.37-.96 1.05-2.3 1.57-4 1.57-1.08 0-2.02-.25-2.84-.73-.82-.48-1.45-1.18-1.9-2.08s-.66-1.96-.66-3.16c0-1.85.48-3.3 1.43-4.34s2.3-1.56 4.02-1.56c1.66 0 2.97.53 3.93 1.6s1.45 2.5 1.45 4.3zm-8.32 0c0 2.64.98 3.96 2.94 3.96 1.93 0 2.9-1.3 2.9-3.95 0-2.62-.98-3.93-2.93-3.93-1 0-1.75.34-2.2 1.02-.46.67-.7 1.64-.7 2.9zM161.62 173.9h-2.44v-7.05c0-.88-.18-1.54-.53-1.97-.36-.44-.92-.66-1.7-.66-1.02 0-1.77.3-2.25.92-.47.6-.7 1.62-.7 3.05v5.7h-2.44v-11.46h1.9l.34 1.5h.12c.35-.54.84-.96 1.47-1.26.63-.3 1.33-.44 2.1-.44 2.75 0 4.12 1.4 4.12 4.2v7.45z"/></g><g fill="#E6E6E5"><path d="M55.73 143.3h6.92v8.66c-1.88.64-3.94.96-6.2.96-2.47 0-4.38-.7-5.73-2.15s-2.02-3.48-2.02-6.13c0-2.6.74-4.6 2.2-6.04s3.56-2.16 6.22-2.16c1 0 1.96.1 2.86.28.9.2 1.68.43 2.34.73l-1.37 3.4c-1.16-.57-2.42-.86-3.8-.86-1.27 0-2.25.4-2.94 1.22-.68.83-1.03 2-1.03 3.53 0 1.5.32 2.64.94 3.43.64.78 1.54 1.18 2.7 1.18.66 0 1.25-.06 1.8-.2v-2.5h-2.87v-3.35zM78.19 144.34c-.02 2.68-.75 4.74-2.23 6.2s-3.54 2.16-6.2 2.16h-5.2v-16.03h5.55c2.58 0 4.57.66 5.97 1.97s2.1 3.22 2.1 5.7zm-4.5.16c0-1.47-.3-2.56-.88-3.27s-1.47-1.07-2.65-1.07H68.9v9h.97c1.32 0 2.28-.4 2.9-1.16.6-.76.92-1.93.92-3.5zM86.15 143.3h6.92v8.66c-1.88.64-3.94.96-6.2.96-2.47 0-4.38-.7-5.73-2.15s-2.02-3.48-2.02-6.13c0-2.6.74-4.6 2.2-6.04s3.56-2.16 6.22-2.16c1 0 1.96.1 2.86.28.9.2 1.68.43 2.34.73l-1.37 3.4c-1.15-.57-2.42-.86-3.8-.86-1.27 0-2.25.4-2.94 1.22-.7.83-1.04 2-1.04 3.53 0 1.5.3 2.64.93 3.43.63.78 1.53 1.18 2.7 1.18.65 0 1.24-.06 1.78-.2v-2.5h-2.85v-3.35z"/></g><radialGradient id="i" cx="-310.265" cy="192.965" r="20.114" gradientTransform="matrix(.498 0 0 .498 172.289 79.739)" gradientUnits="userSpaceOnUse"><stop offset="0" stop-color="#FFCF4F"/><stop offset="1" stop-color="#F4C236"/></radialGradient><path fill="url(#i)" d="M9.07 187h6.8c1.6 0 3.6-1.13 4.42-2.5l5.7-9.53c.7-1.4.66-3.43-.1-4.7l-3.4-5.6L9.08 187z"/><radialGradient id="j" cx="-322.317" cy="182.751" r="27.658" gradientTransform="matrix(.498 0 0 .498 172.289 79.739)" gradientUnits="userSpaceOnUse"><stop offset="0" stop-color="#08A960"/><stop offset="1" stop-color="#07914B"/></radialGradient><path fill="url(#j)" d="M16.37 159.5l-15.1 25.26C.67 186 1.3 187 2.8 187h6.27l13.44-22.34-6.13-10.17c.83 1.37.83 3.63 0 5"/><radialGradient id="k" cx="-312.865" cy="143.069" r="40.54" gradientTransform="matrix(.498 0 0 .498 172.289 79.739)" gradientUnits="userSpaceOnUse"><stop offset="0" stop-color="#567FC0"/><stop offset="1" stop-color="#557FC0"/></radialGradient><path fill="url(#k)" d="M2.8 127c-1.63 0-2.27 1.13-1.44 2.5l24.53 40.76c.76 1.28.8 3.3.1 4.7l5.97-9.92L9.07 127H2.8z"/><radialGradient id="l" cx="-300.801" cy="133.104" r="33.058" gradientTransform="matrix(.498 0 0 .498 172.289 79.739)" gradientUnits="userSpaceOnUse"><stop offset="0" stop-color="#E14C40"/><stop offset="1" stop-color="#CD392D"/></radialGradient><path fill="url(#l)" d="M9.07 127l22.9 38.05 3.33-5.53c.83-1.4.83-3.65 0-5.03l-15-25c-.84-1.37-2.83-2.5-4.44-2.5h-6.8z"/></svg>