<svg width="185" height="188" xmlns="http://www.w3.org/2000/svg">
 <g>
  <title>Layer 1</title>
  <g id="svg_1">
   <g id="svg_2">
    <path id="svg_3" d="m115.912003,17.967001c0,2.675999 -0.731003,4.737999 -2.193001,6.185999c-1.461998,1.448 -3.518005,2.171 -6.166,2.171l-5.148003,0l0,-16.033999l5.507004,0c2.554001,0 4.526001,0.658 5.916,1.974c1.389,1.316 2.084,3.217 2.084,5.703001zm-4.462006,0.153999c0,-1.469 -0.288994,-2.559 -0.865997,-3.268001c-0.576996,-0.709 -1.453003,-1.064 -2.627998,-1.064l-1.250999,0l0,8.982l0.958,0c1.306,0 2.264,-0.382 2.874001,-1.146s0.912994,-1.931999 0.912994,-3.504z" fill="#4E4E4E"/>
    <path id="svg_4" d="m123.128998,26.544001c-2.053001,0 -3.645996,-0.550001 -4.782997,-1.650002c-1.136002,-1.101 -1.704002,-2.667 -1.704002,-4.699999c0,-2.099001 0.526001,-3.709 1.578003,-4.832c1.053001,-1.122001 2.555,-1.684 4.505997,-1.684c1.857002,0 3.292999,0.488 4.305,1.464s1.519997,2.382 1.519997,4.216999l0,1.908001l-7.608994,0c0.028999,0.695 0.280998,1.239 0.757996,1.634001c0.475006,0.394999 1.121002,0.591999 1.941002,0.591999c0.748001,0 1.436005,-0.070999 2.063004,-0.214001c0.628998,-0.143 1.308998,-0.386 2.041,-0.729l0,3.082001c-0.667999,0.344 -1.357002,0.580999 -2.068001,0.712999c-0.712006,0.133001 -1.560005,0.199001 -2.548004,0.199001zm-0.25,-9.948c-0.5,0 -0.919998,0.158998 -1.255997,0.476999c-0.337997,0.318001 -0.537003,0.816999 -0.594002,1.497l3.655998,0c-0.014,-0.598999 -0.183998,-1.077999 -0.505997,-1.437s-0.754997,-0.536999 -1.300003,-0.536999z" fill="#4E4E4E"/>
    <path id="svg_5" d="m132.850998,26.325001l-4.701996,-12.426001l4.440002,0l2.089996,7.348c0.007996,0.037001 0.022003,0.099001 0.044006,0.187s0.042999,0.191999 0.064987,0.313c0.021011,0.121 0.041,0.249001 0.060013,0.384001c0.01799,0.136 0.026993,0.261999 0.026993,0.378l0.076004,0c0,-0.380001 0.065002,-0.793001 0.194992,-1.239l2.188004,-7.370001l4.430008,0l-4.702011,12.426001l-4.210999,0l0,-0.000999z" fill="#4E4E4E"/>
    <path id="svg_6" d="m146.380997,26.325001l-4.233994,0l0,-16.035001l9.403992,0l0,3.477l-5.169998,0l0,3.059999l4.766998,0l0,3.477001l-4.766998,0l0,6.021z" fill="#4E4E4E"/>
    <path id="svg_7" d="m158.528,26.544001c-2.054001,0 -3.647003,-0.550001 -4.783005,-1.650002s-1.702988,-2.667 -1.702988,-4.699999c0,-2.099001 0.524994,-3.709 1.577988,-4.832c1.052002,-1.122001 2.554001,-1.684 4.506012,-1.684c1.856995,0 3.291992,0.488 4.304993,1.464c1.011993,0.976 1.518997,2.382 1.518997,4.216999l0,1.908001l-7.608002,0c0.029007,0.695 0.281006,1.239 0.757004,1.634001c0.475006,0.394999 1.121994,0.591999 1.942001,0.591999c0.746994,0 1.434998,-0.070999 2.063004,-0.214001s1.307999,-0.386 2.041,-0.729l0,3.082001c-0.667999,0.344 -1.35701,0.580999 -2.068008,0.712999c-0.712997,0.133001 -1.560989,0.199001 -2.548996,0.199001zm-0.25,-9.948c-0.501007,0 -0.919998,0.158998 -1.257004,0.476999c-0.337997,0.318001 -0.535995,0.816999 -0.593994,1.497l3.656998,0c-0.014999,-0.598999 -0.184006,-1.077999 -0.505997,-1.437c-0.322006,-0.358 -0.755997,-0.536999 -1.300003,-0.536999z" fill="#4E4E4E"/>
    <path id="svg_8" d="m174.541,22.507999c0,1.331001 -0.449997,2.336 -1.350006,3.016001c-0.899994,0.68 -2.190994,1.02 -3.875,1.02c-0.914001,0 -1.709,-0.049 -2.383987,-0.148001s-1.364014,-0.280001 -2.067001,-0.542999l0,-3.433001c0.659988,0.292 1.383987,0.534 2.17099,0.723999c0.787003,0.190001 1.488998,0.285002 2.106003,0.285002c0.921005,0 1.382004,-0.212002 1.382004,-0.636002c0,-0.219 -0.128998,-0.414999 -0.386002,-0.585999c-0.257996,-0.172001 -1.007004,-0.506001 -2.248001,-1.004002c-1.132004,-0.467999 -1.923004,-1 -2.373001,-1.595999c-0.449005,-0.596001 -0.675003,-1.351 -0.675003,-2.265001c0,-1.154999 0.442001,-2.054999 1.328003,-2.697999c0.884995,-0.644 2.137009,-0.965 3.755005,-0.965c0.813004,0 1.576004,0.09 2.291,0.269s1.457001,0.440001 2.22699,0.784l-1.153992,2.764c-0.565002,-0.256001 -1.164001,-0.473 -1.796005,-0.652c-0.630997,-0.178999 -1.145996,-0.268999 -1.54599,-0.268999c-0.695999,0 -1.044006,0.171999 -1.044006,0.515999c0,0.212 0.121002,0.393 0.363998,0.543001s0.945007,0.455 2.106003,0.915998c0.862991,0.358002 1.507004,0.709002 1.931992,1.053001s0.736008,0.747999 0.936005,1.212c0.199997,0.462999 0.300003,1.028 0.300003,1.692999z" fill="#4E4E4E"/>
    <path id="svg_9" d="m181.604996,23.155001c0.572998,0 1.259003,-0.143002 2.057999,-0.428001l0,3.126001c-0.572998,0.248999 -1.118988,0.425999 -1.638992,0.532c-0.518997,0.105 -1.126007,0.159 -1.822006,0.159c-1.429993,0 -2.459991,-0.353001 -3.091995,-1.058001c-0.630997,-0.705999 -0.945999,-1.790001 -0.945999,-3.252001l0,-5.122l-1.490997,0l0,-1.743999l1.893997,-1.349l1.100006,-2.61l2.785995,0l0,2.49l3.024994,0l0,3.212999l-3.024994,0l0,4.837c-0.001007,0.804001 0.384003,1.206001 1.151993,1.206001z" fill="#4E4E4E"/>
   </g>
   <g id="svg_10">
    <path id="svg_11" d="m60.282001,47.886002l-10.251003,0l0,-1.841003l3.900002,-3.919998c1.151001,-1.179001 1.915001,-2.015999 2.291,-2.508999c0.375999,-0.493 0.650002,-0.957001 0.821999,-1.391003s0.259003,-0.899998 0.259003,-1.396c0,-0.682999 -0.205002,-1.220997 -0.616001,-1.613998c-0.41,-0.393002 -0.978001,-0.59 -1.702,-0.59c-0.579002,0 -1.139999,0.106998 -1.681,0.320999c-0.542,0.214001 -1.167,0.600002 -1.877003,1.159l-1.313,-1.605c0.841003,-0.709999 1.659,-1.214001 2.452003,-1.509998s1.637997,-0.445004 2.535,-0.445004c1.406998,0 2.533997,0.367001 3.382,1.102001s1.271999,1.723 1.271999,2.964001c0,0.682999 -0.123001,1.331001 -0.367001,1.945c-0.244999,0.613998 -0.621002,1.247002 -1.126999,1.897999c-0.507,0.652 -1.350002,1.533001 -2.529003,2.643002l-2.626999,2.544998l0,0.104l7.179001,0l0,2.140003l-0.001999,0z" fill="#4E4E4E"/>
    <path id="svg_12" d="m71.103996,40.324001c0,2.627998 -0.421997,4.579998 -1.266998,5.855c-0.845001,1.276001 -2.136002,1.913998 -3.874001,1.913998c-1.682999,0 -2.957996,-0.659 -3.826996,-1.975998c-0.869003,-1.317001 -1.304001,-3.248001 -1.304001,-5.792999c0,-2.668003 0.422001,-4.636002 1.267998,-5.901001c0.844002,-1.264999 2.132004,-1.897999 3.862999,-1.897999c1.689003,0 2.969002,0.661999 3.838005,1.986c0.867996,1.322998 1.302994,3.260998 1.302994,5.813zm-7.810997,0c0,2.063 0.212002,3.535 0.636002,4.417c0.423996,0.882999 1.101997,1.323997 2.032997,1.323997c0.931,0 1.612,-0.447998 2.042999,-1.344997c0.431,-0.896 0.646004,-2.362 0.646004,-4.396c0,-2.027 -0.215004,-3.495003 -0.646004,-4.401001c-0.431,-0.907001 -1.112,-1.360001 -2.042999,-1.360001c-0.931,0 -1.608002,0.445 -2.032997,1.334c-0.423,0.889 -0.636002,2.365002 -0.636002,4.427002z" fill="#4E4E4E"/>
    <path id="svg_13" d="m78.811996,47.886002l-2.431,0l0,-9.765003c0,-1.165997 0.027,-2.088997 0.083,-2.771999c-0.158997,0.166 -0.353996,0.349003 -0.584,0.548c-0.230995,0.200001 -1.004997,0.834 -2.322998,1.903l-1.220001,-1.541l4.448006,-3.496998l2.028,0l0,15.124001l-0.001007,0z" fill="#4E4E4E"/>
    <path id="svg_15" d="m107.334999,43.778999c0,1.345001 -0.486,2.400002 -1.458,3.166c-0.973,0.765999 -2.313995,1.147999 -4.024002,1.147999c-1.709999,0 -3.110001,-0.265999 -4.199997,-0.796997l0,-2.337002c0.689003,0.324001 1.421997,0.578999 2.197998,0.764999c0.776001,0.187 1.499001,0.278999 2.167,0.278999c0.979004,0 1.702003,-0.185997 2.167,-0.558998c0.465004,-0.372002 0.698006,-0.872002 0.698006,-1.5c0,-0.564999 -0.214005,-1.043999 -0.641006,-1.438c-0.427994,-0.393002 -1.310997,-0.859001 -2.647995,-1.396c-1.379005,-0.559002 -2.352005,-1.197002 -2.917,-1.914001c-0.565002,-0.716999 -0.848,-1.578999 -0.848,-2.585999c0,-1.262001 0.447998,-2.255001 1.345001,-2.979s2.099998,-1.086002 3.609993,-1.086002c1.448006,0 2.890007,0.317001 4.324005,0.952003l-0.786003,2.016998c-1.345001,-0.564999 -2.544998,-0.848 -3.599998,-0.848c-0.800003,0 -1.406998,0.174 -1.82,0.521999c-0.414001,0.348 -0.621002,0.809002 -0.621002,1.381001c0,0.393002 0.083,0.729 0.248001,1.008999s0.438004,0.542999 0.817001,0.791c0.378998,0.249001 1.061996,0.576 2.047997,0.983002c1.110001,0.461998 1.924004,0.892998 2.441002,1.292999c0.516998,0.399998 0.896004,0.852001 1.138,1.355c0.240997,0.502998 0.362,1.096001 0.362,1.778999z" fill="#4E4E4E"/>
    <path id="svg_16" d="m113.728996,48.092999c-1.778999,0 -3.170998,-0.518997 -4.173996,-1.556999c-1.002998,-1.037998 -1.504997,-2.466999 -1.504997,-4.287998c0,-1.868999 0.464996,-3.338001 1.395996,-4.407001s2.209999,-1.604 3.837997,-1.604c1.510002,0 2.703003,0.459 3.579002,1.375999c0.875,0.917 1.313004,2.179001 1.313004,3.785999l0,1.313004l-7.624001,0c0.033997,1.109997 0.334,1.963997 0.900002,2.560997c0.564995,0.596001 1.362,0.895 2.389999,0.895c0.675995,0 1.305,-0.063 1.888,-0.190998c0.583,-0.127003 1.208,-0.339001 1.876999,-0.636002l0,1.976002c-0.593002,0.282997 -1.193001,0.482998 -1.800003,0.599998s-1.297997,0.175999 -2.078003,0.175999zm-0.443993,-10.014c-0.772003,0 -1.392006,0.245003 -1.857002,0.734001c-0.465004,0.490002 -0.743004,1.203999 -0.833,2.142002l5.193001,0c-0.014,-0.945004 -0.242004,-1.660004 -0.682999,-2.146004s-1.048004,-0.73 -1.82,-0.73z" fill="#4E4E4E"/>
    <path id="svg_17" d="m126.825996,47.886002l-0.486,-1.593002l-0.081993,0c-0.553001,0.697002 -1.107002,1.171001 -1.666,1.422001c-0.559006,0.251999 -1.275002,0.377998 -2.152,0.377998c-1.123001,0 -2,-0.303997 -2.631004,-0.910999c-0.632996,-0.605999 -0.946999,-1.465 -0.946999,-2.576c0,-1.179001 0.438004,-2.069 1.314003,-2.668999c0.875,-0.599998 2.209,-0.927002 4.001999,-0.981998l1.976997,-0.062l0,-0.610001c0,-0.731003 -0.171997,-1.278 -0.512001,-1.639999c-0.341995,-0.362003 -0.870995,-0.543003 -1.587997,-0.543003c-0.585999,0 -1.148003,0.086002 -1.688004,0.258003c-0.536995,0.171997 -1.055,0.375999 -1.550995,0.609997l-0.787003,-1.737999c0.621002,-0.324001 1.301003,-0.57 2.039001,-0.739998c0.737999,-0.169003 1.433998,-0.253002 2.089996,-0.253002c1.455002,0 2.553001,0.317001 3.295006,0.952c0.73999,0.635002 1.110992,1.631001 1.110992,2.990002l0,7.707001l-1.737999,0zm-3.620995,-1.656002c0.882996,0 1.591995,-0.245998 2.126999,-0.738998c0.532997,-0.493 0.801003,-1.185001 0.801003,-2.074001l0,-0.993l-1.469002,0.062c-1.145004,0.042 -1.977005,0.233002 -2.498001,0.574001s-0.780998,0.863998 -0.780998,1.566998c0,0.510002 0.152,0.905003 0.454994,1.184002c0.305,0.279999 0.760002,0.418999 1.365005,0.418999z" fill="#4E4E4E"/>
    <path id="svg_18" d="m138.371994,44.626999c0,1.117001 -0.406998,1.974003 -1.221008,2.57c-0.812988,0.597 -1.978989,0.895 -3.496002,0.895c-1.523987,0 -2.748993,-0.230999 -3.672989,-0.693001l0,-2.099998c1.345001,0.620998 2.597,0.931 3.75499,0.931c1.497009,0 2.24501,-0.452 2.24501,-1.355c0,-0.290001 -0.083008,-0.530998 -0.248001,-0.723999c-0.166,-0.193001 -0.438004,-0.393002 -0.817001,-0.600002c-0.378998,-0.206997 -0.906998,-0.440998 -1.583008,-0.702999c-1.317001,-0.509998 -2.207993,-1.021 -2.673996,-1.530998c-0.466003,-0.510002 -0.697998,-1.172001 -0.697998,-1.986c0,-0.979 0.395004,-1.740002 1.184998,-2.281002c0.789001,-0.541 1.863007,-0.812 3.223007,-0.812c1.345001,0 2.616989,0.271999 3.815994,0.817001l-0.785995,1.831001c-1.234009,-0.510002 -2.272003,-0.766003 -3.113007,-0.766003c-1.283005,0 -1.923996,0.366001 -1.923996,1.097c0,0.358002 0.166992,0.662003 0.500992,0.91c0.335007,0.248001 1.064011,0.59 2.188004,1.024002c0.944,0.365997 1.630997,0.700001 2.059006,1.002998c0.427002,0.304001 0.744003,0.653999 0.951004,1.049999s0.309998,0.872002 0.309998,1.423z" fill="#4E4E4E"/>
    <path id="svg_19" d="m149.876007,42.145c0,1.868999 -0.479004,3.327999 -1.438004,4.375999c-0.959,1.048 -2.292999,1.571999 -4.003998,1.571999c-1.067993,0 -2.013992,-0.241997 -2.834,-0.723999c-0.820999,-0.482998 -1.451996,-1.175999 -1.893997,-2.079998c-0.440994,-0.903 -0.662003,-1.951 -0.662003,-3.145c0,-1.855 0.477005,-3.303001 1.428009,-4.345001c0.951996,-1.041 2.292999,-1.562 4.024002,-1.562c1.654999,0 2.964996,0.533001 3.931,1.598s1.44899,2.503002 1.44899,4.310001zm-8.327011,0c0,2.641998 0.975998,3.961998 2.928009,3.961998c1.931,0 2.895996,-1.32 2.895996,-3.961998c0,-2.614002 -0.973007,-3.920002 -2.917999,-3.920002c-1.020996,0 -1.759995,0.338001 -2.219009,1.014c-0.457993,0.675003 -0.686996,1.643002 -0.686996,2.906002z" fill="#4E4E4E"/>
    <path id="svg_20" d="m161.462997,47.886002l-2.440994,0l0,-7.034c0,-0.882999 -0.178009,-1.542 -0.531998,-1.976002c-0.355011,-0.434998 -0.919006,-0.652 -1.69101,-0.652c-1.026993,0 -1.778992,0.304001 -2.25499,0.91c-0.477005,0.607002 -0.714005,1.624001 -0.714005,3.052002l0,5.700001l-2.431,0l0,-11.441002l1.903,0l0.341003,1.5l0.123993,0c0.345001,-0.544998 0.835007,-0.965 1.468994,-1.262001c0.63501,-0.295998 1.338013,-0.445 2.110001,-0.445c2.74501,0 4.117004,1.396 4.117004,4.188999l0,7.459003z" fill="#4E4E4E"/>
    <text font-style="normal" font-weight="normal" transform="matrix(0.9879886286549322,0,0,0.9067413336588437,-46.59904377686406,10.266260246502146) " xml:space="preserve" text-anchor="middle" font-family="Sans-serif" font-size="24" id="svg_91" y="41.581958" x="135.2001" stroke-linecap="null" stroke-linejoin="null" stroke-dasharray="null" stroke-width="0" fill="#4c4c4c">5</text>
    <text xml:space="preserve" text-anchor="middle" font-family="serif" font-size="24" id="svg_86" y="40.085647" x="96.234252" stroke-linecap="null" stroke-linejoin="null" stroke-dasharray="null" stroke-width="0" fill="#000000"/>
    <text transform="matrix(0.9171465635299683,0,0,0.5007196664810181,6.800454715266824,26.844119181856513) " xml:space="preserve" text-anchor="middle" font-family="serif" font-size="24" id="svg_88" y="47.768267" x="87.418131" stroke-linecap="null" stroke-linejoin="null" stroke-dasharray="null" stroke-width="0" fill="#000000"/>
   </g>
   <g id="svg_21">
    <path id="svg_22" d="m55.570999,17.313l6.922001,0l0,8.644001c-1.879002,0.643999 -3.945,0.965 -6.198002,0.965c-2.471996,0 -4.382,-0.716002 -5.730999,-2.150002c-1.348999,-1.432999 -2.023998,-3.476999 -2.023998,-6.132c0,-2.588999 0.738998,-4.603 2.216,-6.044c1.477001,-1.44 3.547001,-2.160999 6.208,-2.160999c1.008999,0 1.961998,0.094999 2.857998,0.285c0.896,0.19 1.676003,0.432 2.342003,0.724l-1.371002,3.4c-1.155998,-0.57 -2.424,-0.855 -3.806999,-0.855c-1.264999,0 -2.243,0.412 -2.934002,1.233999c-0.690998,0.823 -1.036999,1.999001 -1.036999,3.527c0,1.499001 0.313,2.642 0.938,3.427999c0.625,0.786001 1.526001,1.179001 2.704002,1.179001c0.643997,0 1.236,-0.062 1.776997,-0.187l0,-2.511999l-2.862999,0l0,-3.345001z" fill="#4E4E4E"/>
    <path id="svg_23" d="m78.026001,18.344c0,2.676001 -0.737,4.739 -2.209999,6.187s-3.544998,2.171999 -6.214005,2.171999l-5.187996,0l0,-16.036999l5.550995,0c2.574005,0 4.561005,0.658 5.961006,1.974999s2.099998,3.217 2.099998,5.703zm-4.497002,0.153999c0,-1.469999 -0.291,-2.559999 -0.872002,-3.268999c-0.582001,-0.709 -1.463997,-1.064 -2.648994,-1.064l-1.262001,0l0,8.983001l0.964996,0c1.316002,0 2.281998,-0.382 2.896004,-1.146s0.921997,-1.932001 0.921997,-3.504002z" fill="#4E4E4E"/>
    <path id="svg_24" d="m85.990997,17.313l6.922005,0l0,8.644001c-1.879005,0.643999 -3.945,0.965 -6.198006,0.965c-2.472,0 -4.381996,-0.716002 -5.730995,-2.150002c-1.348999,-1.432999 -2.024002,-3.476999 -2.024002,-6.132c0,-2.588999 0.738998,-4.603 2.216003,-6.044c1.476997,-1.44 3.546997,-2.160999 6.208,-2.160999c1.008995,0 1.961998,0.094999 2.857994,0.285c0.896004,0.19 1.676003,0.432 2.342003,0.724l-1.371002,3.4c-1.155998,-0.57 -2.423996,-0.855 -3.806999,-0.855c-1.264999,0 -2.242996,0.412 -2.933998,1.233999c-0.691002,0.823 -1.037003,1.999001 -1.037003,3.527c0,1.499001 0.313004,2.642 0.938004,3.427999c0.625,0.786001 1.526001,1.179001 2.704002,1.179001c0.643997,0 1.236,-0.062 1.776993,-0.187l0,-2.511999l-2.862999,0l0,-3.345001z" fill="#4E4E4E"/>
   </g>
   <radialGradient transform="translate(-3.5264484882354736,0.755667507648468) " gradientUnits="userSpaceOnUse" gradientTransform="matrix(0.498 0 0 0.498 172.2891 79.7388)" r="20.1137" cy="-60.055" cx="-310.583" id="SVGID_1_">
    <stop stop-color="#FFCF4F" offset="0"/>
    <stop stop-color="#F4C236" offset="1"/>
   </radialGradient>
   <path id="svg_25" d="m5.383552,61.755669l6.791,0c1.607,0 3.604,-1.127998 4.431998,-2.511002l5.720001,-9.518997c0.677,-1.396 0.653,-3.426003 -0.119001,-4.713001l-3.377998,-5.591999l-13.446,22.334999z" fill="url(#SVGID_1_)"/>
   <radialGradient transform="translate(-3.5264484882354736,0.755667507648468) " gradientUnits="userSpaceOnUse" gradientTransform="matrix(0.498 0 0 0.498 172.2891 79.7388)" r="27.6582" cy="-70.2695" cx="-322.6347" id="SVGID_2_">
    <stop stop-color="#08A960" offset="0"/>
    <stop stop-color="#07914B" offset="1"/>
   </radialGradient>
   <path id="svg_26" d="m12.682551,34.269669l-15.101,25.249001c-0.584,1.248001 0.023,2.237 1.521,2.237l6.281,0l13.446,-22.334999l-6.146001,-10.173002c0.829,1.378 0.829,3.638002 -0.000999,5.022001" fill="url(#SVGID_2_)"/>
   <radialGradient transform="translate(-3.5264484882354736,0.755667507648468) " gradientUnits="userSpaceOnUse" gradientTransform="matrix(0.498 0 0 0.498 172.2891 79.7388)" r="40.54" cy="-109.9511" cx="-313.1831" id="SVGID_3_">
    <stop stop-color="#567FC0" offset="0"/>
    <stop stop-color="#557FC0" offset="1"/>
   </radialGradient>
   <path id="svg_27" d="m-0.897449,1.755667c-1.614,0 -2.254,1.133 -1.424,2.511l24.528998,40.745002c0.772001,1.287998 0.795,3.317001 0.119001,4.713001l5.962999,-9.925003l-22.901999,-38.044l-6.285,0z" fill="url(#SVGID_3_)"/>
   <radialGradient transform="translate(-3.5264484882354736,0.755667507648468) " gradientUnits="userSpaceOnUse" gradientTransform="matrix(0.498 0 0 0.498 172.2891 79.7388)" r="33.0584" cy="-119.9164" cx="-301.1191" id="SVGID_4_">
    <stop stop-color="#E14C40" offset="0"/>
    <stop stop-color="#CD392D" offset="1"/>
   </radialGradient>
   <path id="svg_28" d="m5.387551,1.755667l22.902999,38.044999l3.321001,-5.529999c0.83,-1.384998 0.83,-3.645 0,-5.023001l-15.005001,-24.981c-0.827998,-1.378 -2.824998,-2.511 -4.431998,-2.511l-6.787001,0z" fill="url(#SVGID_4_)"/>
  </g>
  <g id="svg_29">
   <g id="svg_30">
    <path id="svg_31" d="m115.912003,80.967003c0,2.676994 -0.731003,4.737999 -2.193001,6.186996c-1.461998,1.446999 -3.518005,2.170998 -6.166,2.170998l-5.148003,0l0,-16.034996l5.507004,0c2.554001,0 4.526001,0.656998 5.916,1.973999s2.084,3.217003 2.084,5.703003zm-4.462006,0.153c0,-1.469002 -0.288994,-2.559006 -0.865997,-3.268005c-0.576996,-0.709999 -1.453003,-1.063995 -2.627998,-1.063995l-1.250999,0l0,8.981995l0.958,0c1.306,0 2.264,-0.381996 2.874001,-1.145996c0.607994,-0.764 0.912994,-1.931999 0.912994,-3.503998z" fill="#4E4E4E"/>
    <path id="svg_32" d="m123.128998,89.543999c-2.053001,0 -3.645996,-0.549995 -4.782997,-1.650002c-1.136002,-1.100998 -1.704002,-2.667 -1.704002,-4.699997c0,-2.098999 0.526001,-3.709 1.578003,-4.831001c1.053001,-1.122002 2.555,-1.683998 4.505997,-1.683998c1.857002,0 3.292999,0.487999 4.305,1.463997c1.012001,0.977005 1.519997,2.382004 1.519997,4.218002l0,1.907997l-7.608994,0c0.028999,0.694 0.280998,1.239006 0.757996,1.634003c0.475006,0.396004 1.121002,0.593002 1.941002,0.593002c0.748001,0 1.436005,-0.070999 2.063004,-0.214005c0.628998,-0.142998 1.308998,-0.385994 2.041,-0.728996l0,3.082001c-0.667999,0.343994 -1.357002,0.581001 -2.068001,0.712997c-0.712006,0.129997 -1.560005,0.195999 -2.548004,0.195999zm-0.25,-9.947998c-0.5,0 -0.919998,0.158997 -1.255997,0.477997c-0.337997,0.318001 -0.537003,0.817001 -0.594002,1.497002l3.655998,0c-0.014,-0.599998 -0.183998,-1.078003 -0.505997,-1.436996s-0.754997,-0.538002 -1.300003,-0.538002z" fill="#4E4E4E"/>
    <path id="svg_33" d="m132.850998,89.323997l-4.701996,-12.425995l4.440002,0l2.089996,7.348c0.007996,0.036995 0.022003,0.098999 0.044006,0.186996s0.042999,0.192001 0.064987,0.313004c0.021011,0.120995 0.041,0.249001 0.060013,0.383995c0.01799,0.136002 0.026993,0.262001 0.026993,0.379005l0.076004,0c0,-0.380005 0.065002,-0.792999 0.194992,-1.239006l2.188004,-7.369995l4.430008,0l-4.702011,12.425995l-4.210999,0l0,-0.001999z" fill="#4E4E4E"/>
    <path id="svg_34" d="m146.380997,89.323997l-4.233994,0l0,-16.033997l9.403992,0l0,3.476997l-5.169998,0l0,3.060005l4.766998,0l0,3.476997l-4.766998,0l0,6.019997z" fill="#4E4E4E"/>
    <path id="svg_35" d="m158.528,89.543999c-2.054001,0 -3.647003,-0.549995 -4.783005,-1.650002s-1.702988,-2.667 -1.702988,-4.699997c0,-2.098999 0.524994,-3.709 1.577988,-4.831001c1.052002,-1.122002 2.554001,-1.683998 4.506012,-1.683998c1.856995,0 3.291992,0.487999 4.304993,1.463997c1.011993,0.977005 1.518997,2.382004 1.518997,4.218002l0,1.907997l-7.608002,0c0.029007,0.694 0.281006,1.239006 0.757004,1.634003c0.475006,0.396004 1.121994,0.593002 1.942001,0.593002c0.746994,0 1.434998,-0.070999 2.063004,-0.214005s1.307999,-0.385994 2.041,-0.728996l0,3.082001c-0.667999,0.343994 -1.35701,0.581001 -2.068008,0.712997c-0.712997,0.129997 -1.560989,0.195999 -2.548996,0.195999zm-0.25,-9.947998c-0.501007,0 -0.919998,0.158997 -1.257004,0.477997c-0.337997,0.318001 -0.535995,0.817001 -0.593994,1.497002l3.656998,0c-0.014999,-0.599998 -0.184006,-1.078003 -0.505997,-1.436996c-0.322006,-0.359001 -0.755997,-0.538002 -1.300003,-0.538002z" fill="#4E4E4E"/>
    <path id="svg_36" d="m174.541,85.508003c0,1.330994 -0.449997,2.335999 -1.350006,3.015999c-0.899994,0.681 -2.190994,1.020996 -3.875,1.020996c-0.914001,0 -1.709,-0.049995 -2.383987,-0.147995s-1.364014,-0.279007 -2.067001,-0.543007l0,-3.433998c0.659988,0.292999 1.383987,0.534004 2.17099,0.723999c0.787003,0.190002 1.488998,0.285004 2.106003,0.285004c0.921005,0 1.382004,-0.211998 1.382004,-0.636002c0,-0.220001 -0.128998,-0.415001 -0.386002,-0.586998c-0.257996,-0.172005 -1.007004,-0.506004 -2.248001,-1.003998c-1.132004,-0.468002 -1.923004,-0.999001 -2.373001,-1.596001c-0.449005,-0.596001 -0.675003,-1.351006 -0.675003,-2.264999c0,-1.155006 0.442001,-2.055 1.328003,-2.698006c0.884995,-0.643997 2.137009,-0.964996 3.755005,-0.964996c0.813004,0 1.576004,0.089996 2.291,0.268997c0.714996,0.18 1.457001,0.440002 2.22699,0.784004l-1.153992,2.764c-0.565002,-0.256004 -1.164001,-0.473 -1.796005,-0.652c-0.630997,-0.179001 -1.145996,-0.269005 -1.54599,-0.269005c-0.695999,0 -1.044006,0.172005 -1.044006,0.515999c0,0.212006 0.121002,0.393005 0.363998,0.543007c0.242996,0.148994 0.945007,0.454994 2.106003,0.914993c0.862991,0.358002 1.507004,0.710007 1.931992,1.054001s0.736008,0.747002 0.936005,1.212006c0.199997,0.462997 0.300003,1.028999 0.300003,1.694z" fill="#4E4E4E"/>
    <path id="svg_37" d="m181.604996,86.153999c0.572998,0 1.259003,-0.142998 2.057999,-0.428001l0,3.125999c-0.572998,0.249001 -1.118988,0.427002 -1.638992,0.532005c-0.518997,0.104996 -1.126007,0.158997 -1.822006,0.158997c-1.429993,0 -2.459991,-0.352997 -3.091995,-1.058998c-0.630997,-0.705002 -0.945999,-1.789001 -0.945999,-3.251999l0,-5.122002l-1.490997,0l0,-1.743004l1.893997,-1.349998l1.100006,-2.610001l2.785995,0l0,2.490005l3.024994,0l0,3.212997l-3.024994,0l0,4.836998c-0.001007,0.806 0.384003,1.207001 1.151993,1.207001z" fill="#4E4E4E"/>
   </g>
   <g id="svg_38">
    <path id="svg_39" d="m60.282001,110.886002l-10.251003,0l0,-1.841003l3.900002,-3.920998c1.151001,-1.18 1.915001,-2.015999 2.291,-2.509003s0.650002,-0.957001 0.821999,-1.391998c0.172001,-0.433998 0.259003,-0.899002 0.259003,-1.395996c0,-0.683006 -0.205002,-1.221001 -0.616001,-1.613007c-0.41,-0.393997 -0.978001,-0.589996 -1.702,-0.589996c-0.579002,0 -1.139999,0.107002 -1.681,0.320999c-0.542,0.213997 -1.167,0.599998 -1.877003,1.157997l-1.313,-1.602997c0.841003,-0.709999 1.659,-1.213997 2.452003,-1.510002c0.792999,-0.296997 1.637997,-0.445 2.535,-0.445c1.406998,0 2.533997,0.367004 3.382,1.102005s1.271999,1.723 1.271999,2.963997c0,0.682999 -0.123001,1.331001 -0.367001,1.944c-0.244999,0.613998 -0.621002,1.247002 -1.126999,1.898003s-1.350002,1.532997 -2.529003,2.643997l-2.626999,2.543999l0,0.104004l7.179001,0l0,2.140999l-0.001999,0z" fill="#4E4E4E"/>
    <path id="svg_40" d="m71.103996,103.323997c0,2.626999 -0.421997,4.579002 -1.266998,5.854004c-0.845001,1.276001 -2.136002,1.914001 -3.874001,1.914001c-1.682999,0 -2.957996,-0.658005 -3.826996,-1.976006c-0.869003,-1.316994 -1.304001,-3.248001 -1.304001,-5.792999c0,-2.668999 0.422001,-4.636002 1.267998,-5.901001c0.844002,-1.265999 2.132004,-1.897995 3.862999,-1.897995c1.689003,0 2.969002,0.661995 3.838005,1.986s1.302994,3.262001 1.302994,5.813995zm-7.810997,0c0,2.062004 0.212002,3.534004 0.636002,4.417c0.423996,0.883003 1.101997,1.324005 2.032997,1.324005c0.931,0 1.612,-0.448006 2.042999,-1.345001c0.431,-0.896004 0.646004,-2.362 0.646004,-4.396004c0,-2.027 -0.215004,-3.494995 -0.646004,-4.401001c-0.431,-0.906998 -1.112,-1.359993 -2.042999,-1.359993c-0.931,0 -1.608002,0.444 -2.032997,1.334c-0.423,0.889 -0.636002,2.364998 -0.636002,4.426994z" fill="#4E4E4E"/>
    <path id="svg_41" d="m78.811996,110.886002l-2.431,0l0,-9.765999c0,-1.165001 0.027,-2.089005 0.083,-2.771004c-0.158997,0.165001 -0.353996,0.348 -0.584,0.548004c-0.230995,0.199997 -1.004997,0.834999 -2.322998,1.903l-1.220001,-1.541l4.448006,-3.497002l2.028,0l0,15.124001l-0.001007,0z" fill="#4E4E4E"/>
    <path id="svg_43" d="m107.334999,106.778999c0,1.345001 -0.486,2.399002 -1.458,3.165001c-0.973,0.765999 -2.313995,1.148003 -4.024002,1.148003c-1.709999,0 -3.110001,-0.266006 -4.199997,-0.797005l0,-2.337997c0.689003,0.323997 1.421997,0.579002 2.197998,0.765999c0.776001,0.187004 1.499001,0.278999 2.167,0.278999c0.979004,0 1.702003,-0.186996 2.167,-0.558998s0.698006,-0.872002 0.698006,-1.5c0,-0.565002 -0.214005,-1.044998 -0.641006,-1.438004c-0.427994,-0.393997 -1.310997,-0.857994 -2.647995,-1.395996c-1.379005,-0.558998 -2.352005,-1.195999 -2.917,-1.914001c-0.565002,-0.717003 -0.848,-1.579002 -0.848,-2.585999c0,-1.262001 0.447998,-2.255005 1.345001,-2.979004c0.895996,-0.723999 2.099998,-1.085999 3.609993,-1.085999c1.448006,0 2.890007,0.317001 4.324005,0.952003l-0.786003,2.016998c-1.345001,-0.565002 -2.544998,-0.848 -3.599998,-0.848c-0.800003,0 -1.406998,0.173996 -1.82,0.520996c-0.414001,0.349007 -0.621002,0.810005 -0.621002,1.382004c0,0.392998 0.083,0.728996 0.248001,1.007996s0.438004,0.543007 0.817001,0.792c0.378998,0.248001 1.061996,0.575005 2.047997,0.982002c1.110001,0.461998 1.924004,0.894005 2.441002,1.292999c0.516998,0.400002 0.896004,0.852005 1.138,1.355003c0.240997,0.504997 0.362,1.098999 0.362,1.780998z" fill="#4E4E4E"/>
    <path id="svg_44" d="m113.728996,111.093002c-1.778999,0 -3.170998,-0.519005 -4.173996,-1.556999s-1.504997,-2.468002 -1.504997,-4.288002c0,-1.869003 0.464996,-3.337997 1.395996,-4.406998c0.931,-1.068001 2.209999,-1.603004 3.837997,-1.603004c1.510002,0 2.703003,0.458 3.579002,1.375c0.875,0.917999 1.313004,2.18 1.313004,3.786003l0,1.313995l-7.624001,0c0.033997,1.110001 0.334,1.964005 0.900002,2.560005c0.564995,0.597 1.362,0.895996 2.389999,0.895996c0.675995,0 1.305,-0.063995 1.888,-0.191002c0.583,-0.127998 1.208,-0.339996 1.876999,-0.636993l0,1.975998c-0.593002,0.282997 -1.193001,0.483002 -1.800003,0.600998s-1.297997,0.175003 -2.078003,0.175003zm-0.443993,-10.014c-0.772003,0 -1.392006,0.244995 -1.857002,0.734001c-0.465004,0.489998 -0.743004,1.203995 -0.833,2.141998l5.193001,0c-0.014,-0.945 -0.242004,-1.660004 -0.682999,-2.146004s-1.048004,-0.729996 -1.82,-0.729996z" fill="#4E4E4E"/>
    <path id="svg_45" d="m126.825996,110.886002l-0.486,-1.593002l-0.081993,0c-0.553001,0.695999 -1.107002,1.170998 -1.666,1.421997c-0.559006,0.252007 -1.275002,0.378006 -2.152,0.378006c-1.123001,0 -2,-0.304001 -2.631004,-0.910004c-0.632996,-0.607002 -0.946999,-1.465996 -0.946999,-2.575996c0,-1.179001 0.438004,-2.068001 1.314003,-2.668999c0.875,-0.600006 2.209,-0.928001 4.001999,-0.982002l1.976997,-0.063004l0,-0.610001c0,-0.729996 -0.171997,-1.277 -0.512001,-1.639999c-0.341995,-0.361 -0.870995,-0.542999 -1.587997,-0.542999c-0.585999,0 -1.148003,0.086998 -1.688004,0.259003c-0.536995,0.172997 -1.055,0.375999 -1.550995,0.610001l-0.787003,-1.737c0.621002,-0.324005 1.301003,-0.570999 2.039001,-0.740005s1.433998,-0.252998 2.089996,-0.252998c1.455002,0 2.553001,0.317001 3.295006,0.951004c0.73999,0.634995 1.110992,1.630997 1.110992,2.988998l0,7.707001l-1.737999,0zm-3.620995,-1.655998c0.882996,0 1.591995,-0.246002 2.126999,-0.739006c0.532997,-0.492996 0.801003,-1.184998 0.801003,-2.073997l0,-0.992996l-1.469002,0.062996c-1.145004,0.041 -1.977005,0.232002 -2.498001,0.573997c-0.521004,0.341003 -0.780998,0.863007 -0.780998,1.566002c0,0.511002 0.152,0.904999 0.454994,1.184998c0.305,0.279007 0.760002,0.418007 1.365005,0.418007z" fill="#4E4E4E"/>
    <path id="svg_46" d="m138.371994,107.626999c0,1.117004 -0.406998,1.974998 -1.221008,2.570999c-0.812988,0.596001 -1.978989,0.895004 -3.496002,0.895004c-1.523987,0 -2.748993,-0.231003 -3.672989,-0.693001l0,-2.099998c1.345001,0.619995 2.597,0.931 3.75499,0.931c1.497009,0 2.24501,-0.451004 2.24501,-1.354004c0,-0.290001 -0.083008,-0.530998 -0.248001,-0.724998c-0.166,-0.193001 -0.438004,-0.392998 -0.817001,-0.599998s-0.906998,-0.441002 -1.583008,-0.704002c-1.317001,-0.510002 -2.207993,-1.020996 -2.673996,-1.529999c-0.466003,-0.511002 -0.697998,-1.173004 -0.697998,-1.986c0,-0.979004 0.395004,-1.738998 1.184998,-2.280998c0.789001,-0.541 1.863007,-0.812004 3.223007,-0.812004c1.345001,0 2.616989,0.272003 3.815994,0.816002l-0.785995,1.831001c-1.234009,-0.510002 -2.272003,-0.765999 -3.113007,-0.765999c-1.283005,0 -1.923996,0.365997 -1.923996,1.097c0,0.358994 0.166992,0.661995 0.500992,0.909996c0.335007,0.249001 1.064011,0.590004 2.188004,1.024002c0.944,0.365997 1.630997,0.699997 2.059006,1.003998c0.427002,0.303001 0.744003,0.653 0.951004,1.050003s0.309998,0.869995 0.309998,1.421997z" fill="#4E4E4E"/>
    <path id="svg_47" d="m149.876007,105.144997c0,1.869003 -0.479004,3.327003 -1.438004,4.376007c-0.959,1.047997 -2.292999,1.571999 -4.003998,1.571999c-1.067993,0 -2.013992,-0.241005 -2.834,-0.725006c-0.820999,-0.481995 -1.451996,-1.175995 -1.893997,-2.078995s-0.662003,-1.951004 -0.662003,-3.145004c0,-1.854996 0.477005,-3.302994 1.428009,-4.344994c0.951996,-1.041 2.292999,-1.562004 4.024002,-1.562004c1.654999,0 2.964996,0.531998 3.931,1.598s1.44899,2.502998 1.44899,4.309998zm-8.327011,0c0,2.642006 0.975998,3.962006 2.928009,3.962006c1.931,0 2.895996,-1.32 2.895996,-3.962006c0,-2.612999 -0.973007,-3.920998 -2.917999,-3.920998c-1.020996,0 -1.759995,0.339005 -2.219009,1.014999c-0.457993,0.675003 -0.686996,1.644005 -0.686996,2.905998z" fill="#4E4E4E"/>
    <path id="svg_48" d="m161.462997,110.886002l-2.440994,0l0,-7.034004c0,-0.882996 -0.178009,-1.541 -0.531998,-1.975998c-0.355011,-0.434998 -0.919006,-0.652 -1.69101,-0.652c-1.026993,0 -1.778992,0.304001 -2.25499,0.911003c-0.477005,0.605995 -0.714005,1.624001 -0.714005,3.050995l0,5.700005l-2.431,0l0,-11.442001l1.903,0l0.341003,1.5l0.123993,0c0.345001,-0.543999 0.835007,-0.965004 1.468994,-1.262001c0.63501,-0.295998 1.338013,-0.444 2.110001,-0.444c2.74501,0 4.117004,1.396004 4.117004,4.189003l0,7.459z" fill="#4E4E4E"/>
    <text id="svg_92" font-style="normal" font-weight="normal" transform="matrix(0.9879886286549322,0,0,0.9067413336588441,-46.42904560791873,73.24456606315255) " xml:space="preserve" text-anchor="middle" font-family="Sans-serif" font-size="24" y="41.581958" x="135.2001" stroke-linecap="null" stroke-linejoin="null" stroke-dasharray="null" stroke-width="0" fill="#4c4c4c">5</text>
   </g>
   <g id="svg_49">
    <path id="svg_50" d="m55.570999,80.313004l6.922001,0l0,8.643997c-1.879002,0.643997 -3.945,0.965996 -6.198002,0.965996c-2.471996,0 -4.382,-0.716995 -5.730999,-2.149994c-1.348999,-1.433006 -2.023998,-3.477005 -2.023998,-6.132004c0,-2.588997 0.738998,-4.602997 2.216,-6.043999c1.477001,-1.440002 3.547001,-2.161003 6.208,-2.161003c1.008999,0 1.961998,0.096001 2.857998,0.285004c0.896,0.190002 1.676003,0.431999 2.342003,0.724998l-1.371002,3.400002c-1.155998,-0.57 -2.424,-0.855003 -3.806999,-0.855003c-1.264999,0 -2.243,0.411003 -2.934002,1.233002c-0.690998,0.822998 -1.036999,1.999001 -1.036999,3.527c0,1.499001 0.313,2.641998 0.938,3.428001c0.625,0.785995 1.526001,1.179001 2.704002,1.179001c0.643997,0 1.236,-0.062004 1.776997,-0.187004l0,-2.512001l-2.862999,0l0,-3.345993z" fill="#4E4E4E"/>
    <path id="svg_51" d="m78.026001,81.344002c0,2.677002 -0.737,4.738998 -2.209999,6.186996c-1.473999,1.447998 -3.544998,2.172005 -6.214005,2.172005l-5.187996,0l0,-16.038002l5.550995,0c2.574005,0 4.561005,0.657997 5.961006,1.974998s2.099998,3.217003 2.099998,5.704002zm-4.497002,0.153c0,-1.470001 -0.291,-2.560005 -0.872002,-3.269005s-1.463997,-1.062996 -2.648994,-1.062996l-1.262001,0l0,8.983002l0.964996,0c1.316002,0 2.281998,-0.382004 2.896004,-1.146004c0.614998,-0.764 0.921997,-1.932999 0.921997,-3.504997z" fill="#4E4E4E"/>
    <path id="svg_52" d="m85.990997,80.313004l6.922005,0l0,8.643997c-1.879005,0.643997 -3.945,0.965996 -6.198006,0.965996c-2.472,0 -4.381996,-0.716995 -5.730995,-2.149994c-1.348999,-1.433006 -2.024002,-3.477005 -2.024002,-6.132004c0,-2.588997 0.738998,-4.602997 2.216003,-6.043999c1.476997,-1.440002 3.546997,-2.161003 6.208,-2.161003c1.008995,0 1.961998,0.096001 2.857994,0.285004c0.896004,0.190002 1.676003,0.431999 2.342003,0.724998l-1.371002,3.400002c-1.155998,-0.57 -2.423996,-0.855003 -3.806999,-0.855003c-1.264999,0 -2.242996,0.411003 -2.933998,1.233002c-0.691002,0.822998 -1.037003,1.999001 -1.037003,3.527c0,1.499001 0.313004,2.641998 0.938004,3.428001c0.625,0.785995 1.526001,1.179001 2.704002,1.179001c0.643997,0 1.236,-0.062004 1.776993,-0.187004l0,-2.512001l-2.862999,0l0,-3.345993z" fill="#4E4E4E"/>
   </g>
   <radialGradient gradientUnits="userSpaceOnUse" gradientTransform="matrix(0.498 0 0 0.498 172.2891 79.7388)" r="20.1137" cy="66.4552" cx="-310.583" id="SVGID_5_">
    <stop stop-color="#CCCCCC" offset="0"/>
    <stop stop-color="#C0C0C0" offset="1"/>
   </radialGradient>
   <path id="svg_53" d="m8.91,124l6.791,0c1.607,0 3.604,-1.127998 4.431999,-2.511002l5.720001,-9.518997c0.677,-1.396004 0.653,-3.426003 -0.119001,-4.712997l-3.377998,-5.592003l-13.446001,22.334999z" fill="url(#SVGID_5_)"/>
   <radialGradient gradientUnits="userSpaceOnUse" gradientTransform="matrix(0.498 0 0 0.498 172.2891 79.7388)" r="27.6582" cy="56.2407" cx="-322.6347" id="SVGID_6_">
    <stop stop-color="#A0A0A0" offset="0"/>
    <stop stop-color="#7B7B7B" offset="1"/>
   </radialGradient>
   <path id="svg_54" d="m16.209,96.514l-15.101,25.249001c-0.584,1.248001 0.023,2.237 1.521,2.237l6.281,0l13.446001,-22.334999l-6.146002,-10.173004c0.829,1.378006 0.829,3.638 -0.000999,5.022003" fill="url(#SVGID_6_)"/>
   <radialGradient gradientUnits="userSpaceOnUse" gradientTransform="matrix(0.498 0 0 0.498 172.2891 79.7388)" r="40.54" cy="16.559" cx="-313.1831" id="SVGID_7_">
    <stop stop-color="#848484" offset="0"/>
    <stop stop-color="#838383" offset="1"/>
   </radialGradient>
   <path id="svg_55" d="m2.629,64c-1.613,0 -2.254,1.133003 -1.424,2.511002l24.528999,40.744995c0.772001,1.288002 0.795,3.317001 0.119001,4.713005l5.962999,-9.925003l-22.902,-38.043999l-6.285,0z" fill="url(#SVGID_7_)"/>
   <radialGradient gradientUnits="userSpaceOnUse" gradientTransform="matrix(0.498 0 0 0.498 172.2891 79.7388)" r="33.0584" cy="6.5938" cx="-301.1191" id="SVGID_8_">
    <stop stop-color="#626262" offset="0"/>
    <stop stop-color="#474747" offset="1"/>
   </radialGradient>
   <path id="svg_56" d="m8.914,64l22.903,38.044998l3.321001,-5.529999c0.829998,-1.385002 0.829998,-3.644997 0,-5.023003l-15.004,-24.979996c-0.829,-1.378998 -2.826,-2.512001 -4.433001,-2.512001l-6.787001,0z" fill="url(#SVGID_8_)"/>
  </g>
  <g id="svg_57">
   <g id="svg_58">
    <path id="svg_59" d="m116.070999,143.966995c0,2.67601 -0.731003,4.738007 -2.193001,6.186005c-1.461998,1.447998 -3.517998,2.171997 -6.166,2.171997l-5.147995,0l0,-16.035004l5.506996,0c2.554001,0 4.526001,0.658005 5.916,1.975006s2.084,3.214996 2.084,5.701996zm-4.462997,0.153c0,-1.470001 -0.289001,-2.55899 -0.866005,-3.268997c-0.576996,-0.709 -1.452995,-1.063004 -2.627998,-1.063004l-1.250999,0l0,8.98201l0.958,0c1.306,0 2.264,-0.382004 2.874001,-1.146011c0.608002,-0.763992 0.913002,-1.931992 0.913002,-3.503998z" fill="#E6E6E5"/>
    <path id="svg_60" d="m123.287003,152.544006c-2.053001,0 -3.646004,-0.550995 -4.782005,-1.651001c-1.135994,-1.099991 -1.703995,-2.666992 -1.703995,-4.69899c0,-2.098999 0.526001,-3.709 1.577995,-4.831009c1.052002,-1.123001 2.554001,-1.68399 4.505005,-1.68399c1.856995,0 3.292999,0.487 4.305,1.463989s1.519997,2.382004 1.519997,4.21701l0,1.908997l-7.609001,0c0.028999,0.694 0.280998,1.238998 0.758003,1.634003c0.474998,0.394989 1.120995,0.591995 1.941002,0.591995c0.747993,0 1.435997,-0.070999 2.062996,-0.214005c0.628998,-0.14299 1.308998,-0.384995 2.041,-0.728989l0,3.080994c-0.667999,0.343994 -1.357002,0.582001 -2.068001,0.712997c-0.711998,0.131989 -1.559998,0.197998 -2.547997,0.197998zm-0.25,-9.948013c-0.5,0 -0.920006,0.158997 -1.256004,0.477997c-0.337997,0.317001 -0.536995,0.815994 -0.594002,1.496994l3.656006,0c-0.014,-0.599991 -0.184006,-1.078995 -0.506004,-1.437988c-0.320999,-0.358002 -0.754997,-0.537003 -1.299995,-0.537003z" fill="#E6E6E5"/>
    <path id="svg_61" d="m133.009003,152.324005l-4.701996,-12.427002l4.439987,0l2.090012,7.349014c0.007996,0.036987 0.021988,0.098999 0.043991,0.186996s0.042999,0.192001 0.065002,0.313004c0.020996,0.120987 0.041,0.248993 0.059998,0.383987c0.018005,0.136002 0.027008,0.262009 0.027008,0.378998l0.075989,0c0,-0.380997 0.065002,-0.793991 0.195007,-1.238998l2.188004,-7.370987l4.429993,0l-4.701996,12.426987l-4.210999,0l0,-0.001999z" fill="#E6E6E5"/>
    <path id="svg_62" d="m146.539001,152.324005l-4.234009,0l0,-16.034988l9.404007,0l0,3.477997l-5.169998,0l0,3.059998l4.766998,0l0,3.477005l-4.766998,0l0,6.019989z" fill="#E6E6E5"/>
    <path id="svg_63" d="m158.686996,152.544006c-2.054001,0 -3.647003,-0.550995 -4.78299,-1.651001c-1.136002,-1.099991 -1.703003,-2.666992 -1.703003,-4.69899c0,-2.098999 0.524994,-3.709 1.578003,-4.831009c1.051987,-1.123001 2.553986,-1.68399 4.505997,-1.68399c1.856995,0 3.291992,0.487 4.304993,1.463989c1.012009,0.977005 1.518997,2.382004 1.518997,4.21701l0,1.908997l-7.607986,0c0.028992,0.694 0.280991,1.238998 0.756989,1.634003c0.475006,0.394989 1.122009,0.591995 1.942001,0.591995c0.747009,0 1.434998,-0.070999 2.063004,-0.214005s1.307999,-0.384995 2.041,-0.728989l0,3.080994c-0.667999,0.343994 -1.356995,0.582001 -2.068008,0.712997c-0.713989,0.131989 -1.561996,0.197998 -2.548996,0.197998zm-0.25,-9.948013c-0.500992,0 -0.919998,0.158997 -1.257004,0.477997c-0.337997,0.317001 -0.535995,0.815994 -0.593994,1.496994l3.656998,0c-0.014999,-0.599991 -0.18399,-1.078995 -0.505997,-1.437988c-0.322998,-0.358002 -0.757004,-0.537003 -1.300003,-0.537003z" fill="#E6E6E5"/>
    <path id="svg_64" d="m174.699005,148.507996c0,1.330002 -0.449997,2.335999 -1.349991,3.016006c-0.900009,0.679993 -2.19101,1.020996 -3.875,1.020996c-0.914001,0 -1.709,-0.050003 -2.384003,-0.147995s-1.364014,-0.279007 -2.067001,-0.542999l0,-3.432999c0.660004,0.291992 1.384003,0.53299 2.171005,0.723999s1.488998,0.284988 2.105988,0.284988c0.921005,0 1.382004,-0.21199 1.382004,-0.635986c0,-0.220001 -0.128998,-0.415009 -0.386002,-0.587006c-0.257996,-0.171997 -1.006989,-0.507004 -2.248001,-1.003998c-1.131989,-0.468002 -1.922989,-1 -2.373001,-1.596008c-0.44899,-0.595993 -0.674988,-1.350998 -0.674988,-2.264999c0,-1.154999 0.442001,-2.054993 1.327988,-2.697998c0.88501,-0.643997 2.137009,-0.964996 3.755005,-0.964996c0.813004,0 1.576004,0.089005 2.291,0.268997c0.714996,0.179001 1.457001,0.440002 2.227005,0.783997l-1.154007,2.764008c-0.565002,-0.255997 -1.164001,-0.473999 -1.79599,-0.652008c-0.631012,-0.179993 -1.146011,-0.268997 -1.546005,-0.268997c-0.695999,0 -1.044006,0.171997 -1.044006,0.516006c0,0.21199 0.121002,0.39299 0.363998,0.541992c0.243011,0.150009 0.945007,0.456009 2.106003,0.916c0.863007,0.358002 1.507004,0.710007 1.932007,1.053009c0.425003,0.343994 0.735992,0.748001 0.936005,1.21199c0.200989,0.462997 0.299988,1.028 0.299988,1.694z" fill="#E6E6E5"/>
    <path id="svg_65" d="m181.764008,149.154007c0.572998,0 1.259003,-0.14299 2.057999,-0.427994l0,3.125992c-0.572998,0.249008 -1.119003,0.42601 -1.638992,0.531998c-0.518997,0.105011 -1.126007,0.159012 -1.822006,0.159012c-1.429993,0 -2.459991,-0.354004 -3.091995,-1.059006c-0.630997,-0.705994 -0.945999,-1.789993 -0.945999,-3.251999l0,-5.121994l-1.490997,0l0,-1.744003l1.893997,-1.348999l1.099991,-2.610001l2.786011,0l0,2.488998l3.024994,0l0,3.214005l-3.024994,0l0,4.83699c-0.002014,0.806 0.38298,1.207001 1.151993,1.207001z" fill="#E6E6E5"/>
   </g>
   <g id="svg_66">
    <path id="svg_67" d="m60.441002,173.886002l-10.251003,0l0,-1.841003l3.900002,-3.921005c1.151001,-1.179993 1.915001,-2.015991 2.291,-2.508987s0.649998,-0.957001 0.821999,-1.391998c0.172001,-0.434006 0.259003,-0.899002 0.259003,-1.396011c0,-0.682999 -0.205002,-1.220993 -0.616001,-1.612991c-0.41,-0.393997 -0.978001,-0.590012 -1.702,-0.590012c-0.579002,0 -1.139999,0.10701 -1.681,0.321014c-0.542,0.213989 -1.167,0.599991 -1.877003,1.15799l-1.313999,-1.604004c0.841,-0.709991 1.659,-1.213989 2.452,-1.509995c0.792999,-0.296997 1.638,-0.444992 2.535,-0.444992c1.407001,0 2.534,0.366989 3.382,1.10199s1.271999,1.723007 1.271999,2.964005c0,0.682999 -0.122997,1.330994 -0.366997,1.944c-0.245003,0.613998 -0.621002,1.246994 -1.127003,1.897995s-1.349998,1.533005 -2.528999,2.643997l-2.626999,2.544006l0,0.104004l7.179001,0l0,2.141998l-0.000999,0z" fill="#E6E6E5"/>
    <path id="svg_68" d="m71.262001,166.324005c0,2.626999 -0.422005,4.57901 -1.266998,5.854004c-0.845001,1.276001 -2.136002,1.914001 -3.874001,1.914001c-1.682999,0 -2.958004,-0.658005 -3.827003,-1.975998c-0.868999,-1.317001 -1.303997,-3.248001 -1.303997,-5.793015c0,-2.668991 0.421997,-4.636002 1.267998,-5.901001c0.844002,-1.265991 2.132,-1.897995 3.863003,-1.897995c1.688995,0 2.968994,0.662003 3.837997,1.985992s1.303001,3.262009 1.303001,5.814011zm-7.810001,0c0,2.062012 0.212002,3.534012 0.635998,4.416992c0.424004,0.882996 1.102005,1.324005 2.033005,1.324005c0.931,0 1.612,-0.447998 2.042999,-1.345001c0.431,-0.895996 0.645996,-2.362 0.645996,-4.395996c0,-2.026993 -0.214996,-3.494995 -0.645996,-4.401001c-0.431,-0.906998 -1.112,-1.360001 -2.042999,-1.360001c-0.931,0 -1.608002,0.444 -2.033005,1.334c-0.422997,0.888992 -0.635998,2.36499 -0.635998,4.427002z" fill="#E6E6E5"/>
    <path id="svg_69" d="m78.971001,173.886002l-2.431,0l0,-9.766006c0,-1.164993 0.027,-2.088989 0.083,-2.770996c-0.159004,0.165009 -0.354004,0.348007 -0.584,0.548004c-0.231003,0.199997 -1.005005,0.834991 -2.322998,1.903l-1.220001,-1.541l4.447998,-3.497009l2.028,0l0,15.124008l-0.000999,0z" fill="#E6E6E5"/>
    <path id="svg_71" d="m107.494003,169.779007c0,1.345001 -0.486,2.399002 -1.458,3.165009c-0.973,0.765991 -2.314003,1.147995 -4.024002,1.147995c-1.709999,0 -3.110001,-0.266006 -4.200005,-0.796997l0,-2.337997c0.689003,0.32399 1.422005,0.578995 2.198006,0.765991c0.776001,0.186996 1.499001,0.279007 2.167,0.279007c0.978996,0 1.701996,-0.187012 2.167,-0.559006s0.697998,-0.871994 0.697998,-1.5c0,-0.565002 -0.213997,-1.044998 -0.640999,-1.438004c-0.428001,-0.393997 -1.311005,-0.858002 -2.648003,-1.395996c-1.378998,-0.559006 -2.351997,-1.195999 -2.917,-1.914001c-0.564995,-0.716995 -0.848,-1.578995 -0.848,-2.585999c0,-1.261993 0.447998,-2.255005 1.345001,-2.979004c0.895996,-0.723999 2.099998,-1.085999 3.610001,-1.085999c1.447998,0 2.889999,0.317001 4.323997,0.952011l-0.785995,2.016998c-1.345001,-0.565002 -2.545006,-0.848007 -3.600006,-0.848007c-0.799995,0 -1.406998,0.173996 -1.82,0.520996c-0.413994,0.348999 -0.620995,0.810013 -0.620995,1.382004c0,0.393005 0.083,0.729004 0.248001,1.007996s0.437996,0.542999 0.816994,0.792007c0.379005,0.248001 1.062004,0.574997 2.048004,0.981995c1.110001,0.462006 1.923996,0.893997 2.441002,1.292999c0.516998,0.400009 0.895996,0.852005 1.138,1.355011c0.240997,0.50499 0.362,1.098984 0.362,1.780991z" fill="#E6E6E5"/>
    <path id="svg_72" d="m113.888,174.093002c-1.778999,0 -3.170998,-0.518997 -4.174004,-1.557007s-1.504997,-2.468002 -1.504997,-4.287994c0,-1.869003 0.465004,-3.337997 1.396004,-4.406998c0.931,-1.068008 2.209999,-1.602997 3.837997,-1.602997c1.510002,0 2.703003,0.457993 3.579002,1.375c0.875,0.917999 1.312996,2.179993 1.312996,3.785995l0,1.313995l-7.624001,0c0.034004,1.110001 0.334,1.964005 0.900002,2.559998c0.565002,0.597 1.362,0.896011 2.389999,0.896011c0.676003,0 1.305,-0.064011 1.888,-0.19101c0.583,-0.127991 1.208,-0.339996 1.876999,-0.636993l0,1.975998c-0.593002,0.283005 -1.193001,0.483002 -1.799995,0.600998s-1.299004,0.175003 -2.078003,0.175003zm-0.445,-10.014008c-0.772003,0 -1.391998,0.244995 -1.857002,0.733994c-0.464996,0.490005 -0.742996,1.203995 -0.833,2.141998l5.193001,0c-0.014,-0.944992 -0.241997,-1.660004 -0.682999,-2.145996s-1.048004,-0.729996 -1.82,-0.729996z" fill="#E6E6E5"/>
    <path id="svg_73" d="m126.984001,173.886002l-0.486,-1.593002l-0.082001,0c-0.553001,0.695999 -1.107002,1.171005 -1.666,1.421997c-0.558998,0.251999 -1.275002,0.378006 -2.152,0.378006c-1.123001,0 -2,-0.304001 -2.630997,-0.910004c-0.633003,-0.606995 -0.947006,-1.466003 -0.947006,-2.576004c0,-1.179001 0.438004,-2.067993 1.314003,-2.668991c0.875,-0.600006 2.209,-0.928009 4.001999,-0.98201l1.977005,-0.062988l0,-0.610001c0,-0.730011 -0.172005,-1.277008 -0.512001,-1.639999c-0.342003,-0.361008 -0.871002,-0.542999 -1.588005,-0.542999c-0.585999,0 -1.147995,0.08699 -1.687996,0.258987c-0.537003,0.173004 -1.055,0.376007 -1.551003,0.610001l-0.787003,-1.737c0.621002,-0.32399 1.301003,-0.570999 2.039001,-0.73999s1.434006,-0.253006 2.090004,-0.253006c1.455002,0 2.553001,0.317001 3.294998,0.951004c0.739998,0.634995 1.111,1.630997 1.111,2.988998l0,7.707001l-1.737999,0zm-3.621002,-1.656006c0.883003,0 1.592003,-0.246002 2.126999,-0.738998c0.533005,-0.492996 0.801003,-1.184998 0.801003,-2.07399l0,-0.993011l-1.469002,0.063004c-1.144997,0.041 -1.976997,0.231995 -2.498001,0.574005c-0.520996,0.340988 -0.780998,0.862991 -0.780998,1.565994c0,0.511002 0.152,0.904999 0.455002,1.184998c0.305,0.279007 0.760002,0.417999 1.364998,0.417999z" fill="#E6E6E5"/>
    <path id="svg_74" d="m138.529999,170.626999c0,1.117004 -0.406998,1.975006 -1.220993,2.570999c-0.813004,0.596008 -1.979004,0.895004 -3.496002,0.895004c-1.524002,0 -2.749008,-0.231003 -3.673004,-0.693008l0,-2.099991c1.345001,0.619995 2.597,0.931 3.755005,0.931c1.496994,0 2.244995,-0.451004 2.244995,-1.354004c0,-0.289993 -0.082993,-0.531006 -0.248001,-0.725006c-0.166,-0.192993 -0.438004,-0.39299 -0.817001,-0.599991s-0.906998,-0.44101 -1.582993,-0.703995c-1.317001,-0.51001 -2.208008,-1.021011 -2.674011,-1.530014c-0.465988,-0.510986 -0.697998,-1.172989 -0.697998,-1.985992c0,-0.979004 0.395004,-1.738998 1.184998,-2.281006c0.789001,-0.541 1.863007,-0.811996 3.223007,-0.811996c1.345001,0 2.617004,0.272003 3.815994,0.815994l-0.785995,1.831009c-1.233994,-0.509995 -2.272003,-0.766006 -3.112991,-0.766006c-1.283005,0 -1.924011,0.365997 -1.924011,1.097c0,0.359009 0.167007,0.662003 0.501007,0.910004c0.334991,0.249008 1.063995,0.589996 2.188004,1.024002c0.944,0.365997 1.630997,0.699997 2.05899,1.003998c0.427002,0.302994 0.744003,0.653 0.951004,1.050003s0.309998,0.869995 0.309998,1.421997z" fill="#E6E6E5"/>
    <path id="svg_75" d="m150.033997,168.145004c0,1.869003 -0.479004,3.326996 -1.438004,4.375992c-0.959,1.048004 -2.292999,1.572006 -4.003998,1.572006c-1.067993,0 -2.013992,-0.240997 -2.834,-0.725006c-0.820999,-0.481995 -1.451996,-1.175995 -1.893997,-2.078995s-0.662003,-1.951004 -0.662003,-3.145004c0,-1.854996 0.477005,-3.302994 1.428009,-4.345001c0.951996,-1.041 2.292999,-1.561996 4.024002,-1.561996c1.654999,0 2.964996,0.531998 3.931,1.598007s1.44899,2.502991 1.44899,4.309998zm-8.326996,0c0,2.641998 0.975998,3.96199 2.927994,3.96199c1.931,0 2.896011,-1.319992 2.896011,-3.96199c0,-2.613007 -0.973007,-3.921005 -2.917999,-3.921005c-1.021011,0 -1.76001,0.339005 -2.219009,1.014999c-0.457001,0.675003 -0.686996,1.643997 -0.686996,2.906006z" fill="#E6E6E5"/>
    <path id="svg_76" d="m161.621002,173.886002l-2.44101,0l0,-7.033997c0,-0.883011 -0.177994,-1.541 -0.531998,-1.975998c-0.354996,-0.435013 -0.918991,-0.652008 -1.690994,-0.652008c-1.027008,0 -1.779007,0.304001 -2.255005,0.910995c-0.47699,0.606003 -0.713989,1.624008 -0.713989,3.05101l0,5.699997l-2.431,0l0,-11.440994l1.903,0l0.340988,1.5l0.124008,0c0.345001,-0.544006 0.834991,-0.965012 1.468994,-1.262009c0.63501,-0.296005 1.337997,-0.444 2.110001,-0.444c2.744995,0 4.117004,1.395996 4.117004,4.188995l0,7.458008z" fill="#E6E6E5"/>
    <text transform="matrix(1,0,0,0.9498175401798399,0,8.365573012350023) " xml:space="preserve" text-anchor="middle" font-family="Sans-serif" font-size="24" id="svg_93" y="175" x="87" stroke-linecap="null" stroke-linejoin="null" stroke-dasharray="null" stroke-width="0" fill="#e5e5e5">5</text>
   </g>
   <g id="svg_77">
    <path id="svg_78" d="m55.729,143.313004l6.922001,0l0,8.643997c-1.879002,0.643997 -3.945,0.966003 -6.198002,0.966003c-2.472,0 -4.382,-0.71701 -5.730999,-2.150009s-2.023998,-3.477997 -2.023998,-6.131989c0,-2.589005 0.738998,-4.604004 2.216,-6.044006s3.546997,-2.160995 6.208,-2.160995c1.008999,0 1.961998,0.095993 2.857998,0.284988c0.896,0.190002 1.675999,0.432007 2.341999,0.725006l-1.370998,3.399994c-1.156002,-0.569992 -2.424,-0.854996 -3.806999,-0.854996c-1.264999,0 -2.243,0.410995 -2.934002,1.233002c-0.690998,0.822998 -1.036999,1.998001 -1.036999,3.526001c0,1.5 0.313,2.643005 0.938,3.429001c0.625,0.785995 1.526001,1.179001 2.703999,1.179001c0.644001,0 1.236,-0.061996 1.777,-0.186996l0,-2.512009l-2.862999,0l0,-3.345993z" fill="#E6E6E5"/>
    <path id="svg_79" d="m78.184998,144.345001c0,2.677002 -0.737,4.737991 -2.209999,6.186996s-3.544998,2.171997 -6.213997,2.171997l-5.188004,0l0,-16.036987l5.551003,0c2.573997,0 4.560997,0.65799 5.960999,1.974991s2.099998,3.216003 2.099998,5.703003zm-4.496994,0.153c0,-1.470001 -0.291,-2.559998 -0.872002,-3.268997s-1.464005,-1.064011 -2.649002,-1.064011l-1.262001,0l0,8.984009l0.965004,0c1.315994,0 2.281998,-0.382996 2.895996,-1.145996c0.613998,-0.764999 0.922005,-1.932999 0.922005,-3.505005z" fill="#E6E6E5"/>
    <path id="svg_80" d="m86.150002,143.313004l6.921997,0l0,8.643997c-1.878998,0.643997 -3.945,0.966003 -6.197998,0.966003c-2.472,0 -4.382004,-0.71701 -5.731003,-2.150009s-2.023994,-3.477997 -2.023994,-6.131989c0,-2.589005 0.738998,-4.604004 2.215996,-6.044006s3.547005,-2.160995 6.208,-2.160995c1.009003,0 1.961998,0.095993 2.858002,0.284988c0.895996,0.190002 1.676003,0.432007 2.341995,0.725006l-1.370995,3.399994c-1.155998,-0.569992 -2.424004,-0.854996 -3.806999,-0.854996c-1.264999,0 -2.243004,0.410995 -2.934006,1.233002c-0.690994,0.822998 -1.036995,1.998001 -1.036995,3.526001c0,1.5 0.312996,2.643005 0.937996,3.429001c0.625,0.785995 1.526001,1.179001 2.704002,1.179001c0.643997,0 1.236,-0.061996 1.777,-0.186996l0,-2.512009l-2.862999,0l0,-3.345993z" fill="#E6E6E5"/>
   </g>
   <radialGradient gradientUnits="userSpaceOnUse" gradientTransform="matrix(0.498 0 0 0.498 172.2891 79.7388)" r="20.1137" cy="192.9653" cx="-310.265" id="SVGID_9_">
    <stop stop-color="#FFCF4F" offset="0"/>
    <stop stop-color="#F4C236" offset="1"/>
   </radialGradient>
   <path id="svg_81" d="m9.068,187l6.791,0c1.606999,0 3.603999,-1.128006 4.432,-2.511002l5.719999,-9.518997c0.677,-1.395996 0.653,-3.425995 -0.118999,-4.712997l-3.378,-5.59201l-13.446,22.335007z" fill="url(#SVGID_9_)"/>
   <radialGradient gradientUnits="userSpaceOnUse" gradientTransform="matrix(0.498 0 0 0.498 172.2891 79.7388)" r="27.6582" cy="182.7508" cx="-322.3167" id="SVGID_10_">
    <stop stop-color="#08A960" offset="0"/>
    <stop stop-color="#07914B" offset="1"/>
   </radialGradient>
   <path id="svg_82" d="m16.368,159.514008l-15.102,25.248993c-0.583,1.248001 0.023,2.237 1.521,2.237l6.281,0l13.446,-22.335007l-6.146,-10.172989c0.829,1.377991 0.829,3.638 0,5.022003" fill="url(#SVGID_10_)"/>
   <radialGradient gradientUnits="userSpaceOnUse" gradientTransform="matrix(0.498 0 0 0.498 172.2891 79.7388)" r="40.54" cy="143.0691" cx="-312.8651" id="SVGID_11_">
    <stop stop-color="#567FC0" offset="0"/>
    <stop stop-color="#557FC0" offset="1"/>
   </radialGradient>
   <path id="svg_83" d="m2.787,127c-1.613,0 -2.254,1.132996 -1.424,2.511002l24.529,40.744995c0.771999,1.28801 0.795,3.317001 0.118999,4.712997l5.963001,-9.924988l-22.902001,-38.044006l-6.285,0z" fill="url(#SVGID_11_)"/>
   <radialGradient gradientUnits="userSpaceOnUse" gradientTransform="matrix(0.498 0 0 0.498 172.2891 79.7388)" r="33.0584" cy="133.1039" cx="-300.8011" id="SVGID_12_">
    <stop stop-color="#E14C40" offset="0"/>
    <stop stop-color="#CD392D" offset="1"/>
   </radialGradient>
   <path id="svg_84" d="m9.072,127l22.903001,38.044998l3.321001,-5.529999c0.829998,-1.384995 0.829998,-3.645004 0,-5.022995l-15.004002,-24.981003c-0.829,-1.378006 -2.825001,-2.511002 -4.432,-2.511002l-6.788,0z" fill="url(#SVGID_12_)"/>
  </g>
 </g>

</svg>