<svg xmlns="http://www.w3.org/2000/svg" width="725" height="80" xmlns:xlink="http://www.w3.org/1999/xlink"><defs><path id="a" d="M29.92 13.54h-.4l-4.58-8.28c-.2-.36-.7-.65-1.1-.65H9.96c-.4 0-.9.3-1.1.66L4.3 13.54h-.4c-.83 0-1.5.66-1.5 1.48v7.44c0 .82.67 1.48 1.5 1.48h1.48v2.24c0 1.22 1 2.23 2.23 2.23h.75c1.23 0 2.23-1 2.23-2.22v-2.23h12.64v2.23c0 1.22 1 2.23 2.23 2.23h.75c1.22 0 2.23-1 2.23-2.22v-2.23h1.5c.8 0 1.47-.67 1.47-1.5v-7.43c0-.82-.66-1.48-1.48-1.48zM6.5 19.48c-1.03-.02-1.87-.85-1.87-1.87 0-1.03.84-1.86 1.86-1.86s1.85.83 1.85 1.86-.83 1.86-1.86 1.86zm1.48-5.96l3-6.03c.2-.36.68-.66 1.1-.66h9.66c.4 0 .9.3 1.07.67l3.03 6.04H7.98zm19.34 5.95c-1.03-.02-1.86-.85-1.86-1.87 0-1.03.83-1.86 1.86-1.86s1.85.83 1.85 1.86-.83 1.86-1.86 1.86z" class="path1"/><path id="b" d="M1.88 5.12c-1.88 0-.94.5 0 1.26L16 17.13l14.12-10.7c.94-.78 1.88-1.3 0-1.3H1.88zM0 7.64v15.83c0 .93.95 2.13 1.7 2.13h28.6c.75 0 1.7-1.2 1.7-2.13V7.65l-16 12.2L0 7.65z" class="path1"/><path id="c" d="M20.8 30.8L16.3 17.27H1.6L29.86 1.4z" class="path1"/><path id="d" d="M16 .64C7.53.64.64 7.54.64 16S7.54 31.36 16 31.36c8.47 0 15.36-6.9 15.36-15.36S24.46.64 16 .64zm1.92 28v-5.6h-3.84v5.6c-5.52-.84-9.88-5.2-10.72-10.72h5.6v-3.84h-5.6C4.2 8.56 8.56 4.2 14.08 3.36v5.6h3.84v-5.6c5.52.84 9.88 5.2 10.72 10.72h-5.6v3.84h5.6c-.84 5.52-5.2 9.88-10.72 10.72z" class="path1"/><path id="e" d="M7.34.64c-.88 0-1.58.72-1.58 1.62v27.48c0 .8.8 1.62 1.58 1.62s1.57-.8 1.57-1.62V13.17c.55-.23 1.07-.4 1.6-.4 3.14 0 7.8 4.04 11.02 4.04 1.37 0 3.34-.55 4.72-1.6V3.86c-1.56 1.2-3.14 2.43-4.72 2.43-3.16 0-7.87-4.04-11.03-4.04-.54 0-1.06.1-1.6.2v-.2c0-.9-.7-1.62-1.56-1.62z" class="path1"/><path id="f" d="M26.34 16H5.84c-.6 0-1.08-.5-1.08-1.1 0-.1.02-.2.04-.3L5.9 7c.08-.5.53-.6 1.06-.6h18.28c.53 0 .98.1 1.07.58l1.1 7.76c0 .1.04.14.04.24 0 .58-.5 1.02-1.1 1.02zm-.82 8.54c-1.15 0-2.1-.9-2.1-2.04 0-1.12.95-2.03 2.1-2.03 1.15 0 2.1.9 2.1 2.03s-.95 2.04-2.1 2.04zm-18.88 0c-1.14 0-2.08-.9-2.08-2.04 0-1.12.94-2.03 2.08-2.03 1.16 0 2.1.9 2.1 2.03s-.94 2.04-2.1 2.04zm3.6-22.62h12.8v1.92h-12.8c-1.28 0-1.28-1.92 0-1.92zM28.3 4.86c-.38-1.8-1.48-2.53-3.26-3.25-1.78-.7-5.9-1.58-9-1.58-3.1 0-7.25.87-9.03 1.6-1.77.7-2.84 1.44-3.2 3.24L2.55 14.88V28.8h1.92v1.28c0 2.56 3.2 2.56 3.2 0V28.8h16v1.28c0 2.56 3.84 2.56 3.84 0V28.8h1.92V14.88L28.3 4.86z" class="path1"/><path id="g" d="M15.26 6.05c1.3-.04 2.3-1.13 2.27-2.44-.03-1.32-1.1-2.34-2.4-2.32-1.27.03-2.3 1.13-2.26 2.44.03 1.32 1.1 2.36 2.4 2.33zm7.9 7.9l-3.4-1.9-2.82-4.5c-.46-.58-1.17-1-1.97-1-.6.03-1.15.3-1.57.68l-4.26 4.35c-.14.15-.23.34-.27.55l-.54 4.8c0 .04 0 .08 0 .13 0 .6.5 1.06 1.07 1.05.55 0 .96-.48 1.02-1l.45-4.1 1.48-1.5L11.03 23l-2.46 5.44c-.08.2-.15.46-.15.7.03.9.75 1.6 1.62 1.58.62-.02 1.12-.4 1.4-.94l2.62-5.86c.06-.16.24-.54.25-.7l.32-2.85 2.7 9.23c.24.64.84 1.13 1.55 1.1.87 0 1.56-.75 1.54-1.64 0-.1-.03-.2-.03-.32l-3.77-12.8.48-4.16 1.06 1.68c.08.1.18.2.3.28l3.7 2.1c.2.05.34.1.5.1.6-.02 1.05-.52 1.04-1.12-.02-.36-.22-.7-.5-.88z" class="path1"/><path id="h" d="M7.23 27.6c2.68 0 4.86-2.22 4.86-4.96 0-2.76-2.18-5-4.87-5-2.67 0-4.85 2.24-4.85 5 0 2.74 2.18 4.97 4.85 4.97zm-5.95-4.96c0-3.38 2.67-6.1 5.95-6.1 3.3 0 5.96 2.72 5.96 6.1 0 3.37-2.67 6.1-5.97 6.1-3.28 0-5.95-2.73-5.95-6.1zm23.5 5.03c2.66 0 4.84-2.23 4.84-4.97 0-2.75-2.18-5-4.85-5-2.68.02-4.86 2.25-4.86 5 0 2.74 2.2 4.97 4.87 4.97zM18.8 22.7c0-3.38 2.68-6.1 5.97-6.1 3.28 0 5.95 2.72 5.95 6.1 0 3.37-2.67 6.1-5.95 6.1-3.3 0-5.96-2.73-5.96-6.1zm.02-14.9c1.24 0 2.25-1.04 2.25-2.3s-1-2.3-2.25-2.3-2.24 1.03-2.24 2.3c0 1.27 1 2.3 2.25 2.3zm.1 5.64c-.33 0-.68-.2-.93-.61l-1.47-2.36-3 3.04 2.78 1.5c1.15.57.98 1.6.98 1.6v6.46c0 .73-.57 1.33-1.28 1.33s-1.28-.6-1.28-1.34V17.9l-4.84-2.76c-.57-.33-.96-.96-.96-1.68 0-.5.17-.95.48-1.3l4.73-4.85c.6-.68 1.4-.57 1.4-.57 1 0 1.52.9 1.52.9l2.36 3.94h3.64c1.28 0 1.28 1.87 0 1.87h-4.12z" class="path1"/><path id="i" d="M25.33 5.33q.58 0 .96.38t.37.97q0 .56-.4.94l-8.4 8.4 8.4 8.38q.4.4.4.95 0 .58-.38.96t-.97.36q-.56 0-.94-.38l-8.4-8.4-8.4 8.4q-.37.38-.93.38-.58 0-.96-.38t-.37-.95q0-.56.4-.95L14.1 16 5.73 7.6q-.4-.37-.4-.93 0-.58.4-.96t.95-.37q.56 0 .94.4l8.4 8.38 8.38-8.38q.4-.4.95-.4z" class="path1"/><path id="j" d="M4 6.67h24q.55 0 .94.4t.4.93-.4.94-.94.4H4q-.55 0-.94-.4T2.66 8t.4-.94.94-.4zm0 16h24q.55 0 .94.4t.4.93-.4.94-.94.4H4q-.55 0-.94-.4t-.4-.94.4-.94.94-.4zm0-8h24q.55 0 .94.4t.4.93-.4.94-.94.4H4q-.55 0-.94-.4t-.4-.94.4-.94.94-.4z" class="path1"/><path id="k" d="M28.93 7.3q-1.2 1.74-2.9 2.97.02.25.02.75 0 2.32-.68 4.63t-2.06 4.44-3.28 3.75-4.6 2.6-5.78.98q-4.84 0-8.85-2.6.6.08 1.38.08 4.02 0 7.16-2.45-1.88-.04-3.36-1.16t-2.03-2.85q.6.1 1.1.1.75 0 1.5-.2-2-.42-3.3-2t-1.32-3.67v-.07q1.2.7 2.6.74-1.17-.8-1.87-2.05t-.7-2.76q0-1.58.8-2.92Q4.9 8.3 8 9.88t6.64 1.78q-.14-.68-.14-1.32 0-2.4 1.7-4.08t4.07-1.7q2.5 0 4.2 1.83Q26.44 6 28.15 5q-.66 2.05-2.53 3.18 1.67-.18 3.33-.9z" class="path1"/><path id="l" d="M9.13 9.93h4.58L13.2 15H9.12v14.7H3.04V15H0V9.93h3.04V6.87q0-3.25 1.53-4.92T9.62.28h4.06v5.08h-2.54q-.7 0-1.1.1t-.62.43-.24.6-.05.9v2.53z" class="path1"/><path id="m" d="M27.43 16q0 4.48-2.62 8.06t-6.75 4.96q-.48.1-.7-.13t-.22-.54V24.6q0-1.74-.93-2.55 1.02-.1 1.83-.32t1.68-.7 1.45-1.18.95-1.88.36-2.7q0-2.15-1.4-3.66.65-1.62-.15-3.64-.5-.16-1.44.2t-1.64.78l-.68.43q-1.66-.46-3.43-.46t-3.42.47q-.28-.2-.76-.48t-1.5-.7-1.52-.24q-.8 2.02-.13 3.65-1.4 1.52-1.4 3.68 0 1.52.36 2.68t.94 1.88 1.43 1.2 1.68.7 1.83.3q-.7.66-.86 1.85-.38.17-.8.26t-1.02.1-1.17-.4-1-1.1q-.33-.58-.86-.94t-.9-.43l-.35-.06q-.38 0-.52.08t-.1.2.17.25.23.2l.13.1q.4.18.78.68t.56.9l.18.42q.23.68.78 1.1t1.2.54 1.24.13 1-.06l.4-.07q0 .68 0 1.6t.02.95q0 .32-.23.54t-.73.1q-4.14-1.36-6.75-4.94T0 16q0-3.74 1.84-6.9t5-4.98 6.87-1.84 6.9 1.84 5 5T27.42 16z" class="path1"/><path id="n" d="M6.86 24q0 1.43-1 2.43t-2.43 1-2.43-1T0 24t1-2.43 2.43-1 2.43 1 1 2.43zM16 26.2q.04.5-.3.85-.32.38-.84.38h-2.4q-.46 0-.78-.3t-.36-.74q-.4-4.1-3.3-7t-6.98-3.3q-.45-.03-.75-.35t-.3-.77v-2.4q0-.53.37-.85.3-.3.77-.3h.1q2.85.23 5.46 1.44t4.62 3.24q2.04 2.02 3.24 4.63T16 26.2zm9.14.03q.04.48-.32.84-.32.36-.82.36h-2.55q-.47 0-.8-.32t-.35-.74q-.2-3.84-1.8-7.3t-4.13-6-6-4.13-7.3-1.82q-.45 0-.76-.34T0 5.98V3.43q0-.5.36-.82.32-.32.78-.32h.06q4.67.24 8.95 2.15t7.6 5.25Q21.1 13 23 17.28t2.14 8.95z" class="path1"/><path id="o" d="M26 21.7q0-.7-.5-1.2l-3.7-3.7q-.5-.5-1.23-.5-.75 0-1.28.56.04.05.33.33t.38.37.28.34.23.47.07.5q0 .7-.5 1.2t-1.2.5q-.28 0-.5-.06t-.46-.23-.33-.26-.38-.38-.34-.34q-.6.56-.6 1.3 0 .72.5 1.22l3.7 3.7q.47.48 1.2.48.72 0 1.22-.46l2.62-2.6q.5-.5.5-1.2zM13.45 9.14q0-.72-.5-1.22L9.27 4.2q-.5-.5-1.22-.5-.7 0-1.2.5L4.2 6.8q-.5.5-.5 1.2t.5 1.2l3.73 3.73q.48.48 1.2.48.76 0 1.3-.54-.06-.06-.34-.33t-.4-.4-.26-.33-.24-.45-.06-.5q0-.7.5-1.2t1.22-.5q.26 0 .5.06t.44.24.34.27.38.4.33.33q.6-.55.6-1.3zM29.43 21.7q0 2.16-1.52 3.64l-2.6 2.6q-1.5 1.5-3.64 1.5-2.16 0-3.64-1.53l-3.68-3.7q-1.48-1.47-1.48-3.6 0-2.2 1.57-3.74l-1.57-1.57q-1.54 1.56-3.72 1.56-2.14 0-3.64-1.5l-3.7-3.72Q.3 10.14.3 8t1.5-3.63l2.63-2.6Q5.9.3 8.05.3q2.16 0 3.65 1.5l3.68 3.7q1.48 1.48 1.48 3.62 0 2.2-1.57 3.74l1.56 1.57q1.53-1.57 3.7-1.57 2.16 0 3.66 1.5l3.7 3.7q1.5 1.5 1.5 3.65z" class="path1"/><path id="p" d="M27.43 16q0 3.73-1.84 6.88t-5 5-6.9 1.83q-1.97 0-3.88-.56 1.06-1.66 1.4-2.93.16-.6.96-3.75.36.7 1.3 1.2t2.04.5q2.16 0 3.86-1.2T22 19.56t.93-4.82q0-2.04-1.06-3.82t-3.08-2.9-4.57-1.14q-1.87 0-3.5.5T7.97 8.8t-1.94 1.96-1.2 2.3-.38 2.4q0 1.86.7 3.27t2.1 2q.54.2.68-.37.04-.13.14-.56t.15-.53q.1-.4-.2-.77-.9-1.1-.9-2.7 0-2.7 1.86-4.63t4.88-1.94q2.7 0 4.2 1.47t1.5 3.8q0 3.04-1.2 5.16T15.2 21.8q-1.1 0-1.75-.8t-.4-1.86q.13-.62.46-1.67t.53-1.84.2-1.34q0-.9-.47-1.5t-1.4-.6q-1.1 0-1.86 1.03t-.77 2.54q0 1.3.45 2.18L8.45 25.4q-.3 1.26-.23 3.17-3.68-1.62-5.95-5T0 15.98q0-3.73 1.84-6.88t5-5T13.7 2.3t6.88 1.83 5 5T27.42 16z" class="path1"/><path id="q" d="M15.64 26.16q0-.37-.08-.72t-.17-.64-.32-.62-.38-.55-.47-.52-.5-.45-.56-.45-.55-.4-.6-.42-.54-.38q-.3-.04-.9-.04-.96 0-1.88.13t-1.93.43-1.75.83-1.24 1.34-.48 1.9q0 1.22.64 2.18t1.66 1.5 2.15.8 2.27.28q1.05 0 2-.23t1.8-.7 1.33-1.3.5-1.97zm-2.14-15.4q0-1.06-.3-2.27t-.83-2.34-1.5-1.86-2.14-.73q-1.66 0-2.57 1.23t-.9 2.95q0 .84.2 1.77t.63 1.86 1 1.66 1.38 1.2 1.73.47q1.75 0 2.52-1.07t.78-2.86zM11.16 2.3h7.8l-2.4 1.4h-2.42q1.27.8 1.97 2.25t.7 3q0 1.34-.4 2.36t-1 1.66-1.2 1.16-1 1.1-.4 1.2q0 .45.3.9t.76.86 1.05.86 1.15 1 1.05 1.17.77 1.52.3 1.9q0 2.86-2.5 5.04Q12.94 32 8.16 32q-1.06 0-2.14-.18t-2.18-.6T1.9 30.2.55 28.6 0 26.43q0-1.1.66-2.4.57-1.16 1.7-2t2.6-1.25 2.77-.65 2.68-.24q-1.13-1.5-1.13-2.67 0-.2.03-.42t.1-.34.13-.38.13-.38q-.7.08-1.25.08-2.65 0-4.55-1.75t-1.9-4.4q0-2.5 1.7-4.46T7.8 2.64q1.68-.36 3.34-.36zM29.7 6.85v2.28h-4.56v4.57h-2.28V9.15H18.3V6.86h4.56V2.3h2.28v4.56h4.57z" class="path1"/><path id="r" d="M6.23 11.16v17.7H.33v-17.7h5.9zM6.6 5.7q.03 1.3-.9 2.17t-2.42.88h-.03Q1.8 8.75.9 7.87T0 5.7q0-1.33.92-2.2t2.4-.86 2.38.87.9 2.2zm20.83 13v10.16h-5.88V19.4q0-1.88-.72-2.94t-2.26-1.07q-1.12 0-1.88.6t-1.15 1.54q-.2.53-.2 1.44v9.88H9.5q.04-7.13.04-11.56t-.02-5.28l-.02-.86h5.88v2.57h-.04q.36-.57.73-1t1-.93 1.57-.78 2.04-.27q3.06 0 4.9 2.02t1.87 5.94z" class="path1"/><path id="s" d="M22.86 16q0-.66-.54-.96l-9.14-5.72q-.56-.36-1.16-.03-.6.3-.6 1v11.4q0 .7.6 1.02.28.14.55.14.36 0 .6-.18l9.15-5.7q.54-.32.54-.98zM32 16q0 1.7-.02 2.68t-.15 2.44-.4 2.63q-.3 1.3-1.23 2.2t-2.22 1.03q-3.96.45-11.98.45t-11.98-.45q-1.27-.14-2.22-1.03t-1.25-2.2Q.3 22.6.17 21.12t-.15-2.44T0 16t.02-2.68.15-2.44.4-2.63q.3-1.3 1.23-2.2t2.22-1.03Q7.98 4.57 16 4.57t11.98.45q1.27.14 2.22 1.03t1.25 2.2q.25 1.16.38 2.63t.15 2.44T32 16z" class="path1"/><path id="t" d="M16.57 25.02v2.7H3.95v-2.68zm4.3-6.18V32L0 31.98V18.84h2.16v11.03h16.57V18.84h2.15zM4.3 20.4l12.58 1.17-.24 2.68-12.6-1.16zm1.22-5.63l12.2 3.27-.7 2.6-12.2-3.26zm2.9-6.23l10.88 6.43-1.37 2.32-10.88-6.44zm6.44-5.9l7.1 10.43-2.2 1.52L12.6 4.15zm8.1-2.64l2.15 12.45-2.65.46L20.3.47z" class="path1"/><path id="u" d="M20.95 18.98q0-.9-.35-1.63t-.87-1.23-1.3-.87-1.47-.6-1.57-.42l-1.86-.43q-.54-.12-.8-.18t-.62-.2-.53-.3-.3-.37-.14-.54q0-1.36 2.57-1.36.77 0 1.38.2t.97.52.68.6.7.52.87.2q.84 0 1.35-.56t.5-1.37q0-1-1-1.78t-2.53-1.2-3.25-.42q-1.22 0-2.37.28t-2.13.84-1.6 1.55-.6 2.3q0 1.1.35 1.9t1 1.35 1.43.86 1.84.58l2.6.66q1.6.4 2 .64.58.36.58 1.07 0 .7-.72 1.15t-1.87.46q-.9 0-1.63-.3t-1.16-.68-.8-.8-.82-.7-.96-.27q-.9 0-1.35.53T6.7 20.3q0 1.64 2.2 2.8t5.2 1.18q1.3 0 2.5-.33t2.18-.95 1.58-1.67.58-2.35zm6.48 3.88q0 2.84-2 4.84t-4.86 2q-2.32 0-4.18-1.42-1.38.3-2.7.3-2.54 0-4.87-1T4.8 24.9t-2.67-4.02-1-4.88q0-1.3.3-2.68Q0 11.46 0 9.14 0 6.3 2 4.3t4.86-2.02q2.32 0 4.17 1.43 1.38-.27 2.68-.27 2.57 0 4.9 1t4.02 2.67 2.67 4.02 1 4.88q0 1.3-.3 2.68 1.43 1.86 1.43 4.18z" class="path1"/><path id="v" d="M34.23 9.3q.4 1.13-2.68 5.24-.43.57-1.16 1.5-1.4 1.8-1.6 2.35-.32.72.23 1.44.3.37 1.45 1.46h.02l.07.07q2.52 2.34 3.4 3.95.07.1.13.22t.12.48 0 .6-.45.5-1.06.22l-4.56.07q-.43.1-1-.08t-.93-.4l-.34-.2q-.54-.38-1.25-1.15t-1.22-1.4-1.1-1.02-1-.28q-.05.02-.14.06t-.3.26-.4.52-.3.93-.1 1.38q0 .27-.07.5t-.13.32l-.07.1q-.32.33-.95.4h-2.05q-1.27.06-2.6-.3t-2.36-.95-1.83-1.18T8.7 23.9l-.43-.44q-.18-.18-.5-.54T6.5 21.3t-1.9-2.7-2.18-3.76T.1 9.98q-.12-.3-.12-.48t.06-.3l.07-.1q.27-.34 1.02-.34l4.9-.03q.2.03.4.1t.3.17l.08.05q.3.2.43.57.36.9.82 1.85t.74 1.45l.27.52q.52 1.07 1 1.86t.87 1.22.74.7.6.24.5-.1q.02 0 .08-.08t.2-.4.25-.83.18-1.45 0-2.23q-.03-.7-.16-1.3t-.25-.82l-.1-.22q-.45-.6-1.52-.76-.24-.04.08-.43.3-.34.68-.54.96-.46 4.28-.43 1.47.02 2.4.23.37.1.6.24t.38.43.18.57.07.82 0 .98-.06 1.26-.02 1.47q0 .2-.02.75t0 .86.05.72.2.7.4.44q.15.03.3.07t.48-.2.68-.6.94-1.2 1.2-1.92q1.08-1.86 1.92-4.02.07-.18.18-.3t.2-.2l.07-.05.1-.04t.23-.05.35 0l5.15-.04q.7-.1 1.14.05t.55.3z" class="path1"/><path id="w" d="M4.13 8.96c-.43-.43-1.13-.43-1.56 0-.44.43-.44 1.12 0 1.55l12.65 12.54c.43.43 1.13.43 1.56 0L29.44 10.5c.43-.42.43-1.1 0-1.54s-1.14-.43-1.57 0L16 20.4 4.13 8.95z" class="path1"/><path id="x" d="M28 4.33H17.62l3.12 3.12-7.36 7.35v12.87h5.58V17.13l5.73-5.73 3.3 3.3V4.34zM12.82 17.1L4 8.3l3.96-3.95 7.63 7.63-2.76 2.75h-.02v2.4z" class="path1"/></defs><g fill="#464646"><use xlink:href="#a"/><use xlink:href="#b" transform="translate(48)"/><use xlink:href="#c" transform="translate(96)"/><use xlink:href="#d" transform="translate(144)"/><use xlink:href="#e" transform="translate(192)"/><use xlink:href="#f" transform="translate(240)"/><use xlink:href="#g" transform="translate(290)"/><use xlink:href="#h" transform="translate(338)"/><use xlink:href="#i" transform="translate(386)"/><use xlink:href="#j" transform="translate(434)"/><use xlink:href="#k" transform="translate(482)"/><use xlink:href="#l" transform="translate(528)"/><use xlink:href="#m" transform="translate(558)"/><use xlink:href="#n" transform="translate(606)"/><use xlink:href="#o" transform="translate(647)"/><use xlink:href="#p" transform="translate(693)"/><use xlink:href="#q" transform="translate(0 48)"/><use xlink:href="#r" transform="translate(48 48)"/><use xlink:href="#s" transform="translate(96 48)"/><use xlink:href="#t" transform="translate(144 48)"/><use xlink:href="#u" transform="translate(192 48)"/><use xlink:href="#v" transform="translate(240 48)"/><use xlink:href="#w" transform="translate(290 48)"/><use xlink:href="#x" transform="translate(338 48)"/></g></svg>