<?xml version="1.0" encoding="utf-8"?>
<!-- Generator: Adobe Illustrator 17.0.1, SVG Export Plug-In . SVG Version: 6.00 Build 0)  -->
<!DOCTYPE svg PUBLIC "-//W3C//DTD SVG 1.1//EN" "http://www.w3.org/Graphics/SVG/1.1/DTD/svg11.dtd">
<svg version="1.1" id="Layer_1" xmlns="http://www.w3.org/2000/svg" xmlns:xlink="http://www.w3.org/1999/xlink" x="0px" y="0px"
	 width="177.795px" height="60px" viewBox="0 0 177.795 60" enable-background="new 0 0 177.795 60" xml:space="preserve">
<g>
	<path fill-rule="evenodd" clip-rule="evenodd" fill="#6D6E71" d="M173.028,14.072h1.106c0.008,0.014,0.012,0.028,0.018,0.041
		c0.179,0.394,0.361,0.786,0.526,1.182c0.181,0.444,0.341,0.896,0.536,1.335c0.008,0.013,0.014,0.027,0.018,0.041
		c0.142-0.323,0.365-0.845,0.508-1.168c0.133-0.299,0.267-0.605,0.401-0.905c0.052-0.116,0.062-0.139,0.062-0.181
		c0-0.101-0.104-0.101-0.195-0.101l-0.406,0.018l0.406-0.264h1.483l-0.106,0.102c-0.108,0.097-0.163,0.166-0.163,0.356
		c0,0.065,0.006,0.128,0.016,0.198c0.026,0.291,0.05,0.582,0.072,0.873c0.034,0.384,0.07,0.767,0.139,1.145
		c0.06,0.31,0.126,0.421,0.347,0.587c-0.245,0.046-0.411,0.069-0.658,0.069c-0.1,0-0.275,0-0.436-0.12
		c-0.189-0.148-0.217-0.384-0.249-0.804c-0.028-0.287-0.056-0.573-0.08-0.86c-0.018-0.272-0.028-0.545-0.054-0.817l-0.006-0.055
		l-0.028,0.06c-0.161,0.35-0.309,0.711-0.466,1.062c-0.365,0.841-0.391,0.896-0.464,1.122l0.05,0.138
		c-0.134,0.033-0.662,0.207-0.855,0.282c-0.149-0.412-0.67-1.75-1.084-2.664c-0.042,0.388-0.08,0.776-0.116,1.163
		c-0.012,0.129-0.09,0.993-0.09,1.072c0,0.101,0.024,0.128,0.205,0.147l0.405,0.06l-0.235,0.143h-0.859l0.12-0.143
		c0.024-0.032,0.046-0.06,0.06-0.101c0.028-0.074,0.042-0.204,0.06-0.389c0.034-0.282,0.072-0.559,0.104-0.84
		c0.018-0.176,0.104-1.034,0.128-1.233c0.006-0.047,0.01-0.097,0.01-0.143c0-0.12-0.046-0.18-0.185-0.18
		c-0.064,0-0.361,0.008-0.428,0.008L173.028,14.072L173.028,14.072z"/>
	<path fill-rule="evenodd" clip-rule="evenodd" fill="#6D6E71" d="M172.825,14.072l-0.201,0.471l-0.207,0.093
		c0.012-0.046,0.05-0.217,0.05-0.235c0-0.106-0.124-0.111-0.253-0.111l-0.644,0.005c-0.056,1.801-0.056,1.957-0.056,2.202
		c0,0.13,0,0.236,0.01,0.393c0.014,0.2,0.078,0.241,0.291,0.254l0.393,0.042l-0.301,0.148h-1.538l0.104-0.148
		c0.102-0.152,0.116-0.175,0.116-0.278c0.004-0.102,0-0.577,0-0.683c0-0.194,0-0.392,0.004-0.586
		c0.014-0.397,0.038-0.795,0.038-1.187c0-0.065-0.006-0.139-0.006-0.156h-0.562c-0.283,0.009-0.287,0.017-0.44,0.249l-0.245,0.093
		l0.245-0.564H172.825L172.825,14.072z"/>
	<path fill-rule="evenodd" clip-rule="evenodd" fill="#EF3E35" d="M166.847,40.433c-0.65,0.355-1.299,0.768-1.949,1.064
		c-1.953,0.887-3.962,1.123-5.735,1.123c-1.891,0-4.847-0.119-7.862-2.305c-4.197-2.956-6.028-8.04-6.028-12.473
		c0-9.162,7.447-13.655,13.537-13.655c2.126,0,4.314,0.532,6.088,1.655c2.953,1.95,3.723,4.492,4.135,5.852l-13.89,5.615
		l-4.552,0.356c1.479,7.507,6.56,11.88,12.176,11.88c3.015,0,5.203-1.063,7.214-2.069L166.847,40.433L166.847,40.433z
		 M161.29,22.819c1.122-0.415,1.714-0.769,1.714-1.597c0-2.364-2.658-5.084-5.853-5.084c-2.363,0-6.796,1.833-6.796,8.218
		c0,1.005,0.116,2.069,0.175,3.133L161.29,22.819L161.29,22.819z"/>
	<path fill-rule="evenodd" clip-rule="evenodd" fill="#2FB457" d="M143.851,41.734h-10.462c1.359-1.773,1.596-1.951,1.596-3.133
		v-9.635c0-4.61,0.06-11.172,0.235-17.32c0.06-3.015,0.297-6.798,0.355-9.518h-4.609L135.399,0h8.452
		c-1.831,1.065-2.423,1.419-2.658,3.489c-0.472,4.551-0.532,11.762-0.532,20.156v13.655c0,2.306,0.413,2.66,2.366,2.838
		c1.004,0.119,2.009,0.177,3.013,0.295L143.851,41.734L143.851,41.734z"/>
	<path fill-rule="evenodd" clip-rule="evenodd" fill="#0075BF" d="M124.463,17.084c1.359,1.123,4.197,3.487,4.197,7.98
		c0,4.374-2.483,6.443-4.964,8.394c-0.769,0.768-1.656,1.597-1.656,2.897c0,1.3,0.887,2.009,1.537,2.541l2.128,1.656
		c2.603,2.186,4.964,4.197,4.964,8.276c0,5.556-5.379,11.172-15.546,11.172c-8.571,0-12.708-4.079-12.708-8.454
		c0-2.128,1.064-5.144,4.554-7.212c3.663-2.246,8.629-2.541,11.287-2.718c-0.827-1.064-1.772-2.187-1.772-4.02
		c0-1.005,0.295-1.596,0.592-2.306c-0.652,0.059-1.301,0.119-1.893,0.119c-6.265,0-9.813-4.67-9.813-9.281
		c0-2.72,1.242-5.734,3.784-7.921c3.37-2.779,7.388-3.251,10.58-3.251h12.176l-3.782,2.128H124.463L124.463,17.084z M120.266,43.33
		c-0.472-0.06-0.769-0.06-1.359-0.06c-0.532,0-3.725,0.119-6.208,0.947c-1.299,0.473-5.084,1.891-5.084,6.089
		c0,4.196,4.079,7.21,10.405,7.21c5.676,0,8.691-2.718,8.691-6.382C126.711,48.118,124.76,46.522,120.266,43.33L120.266,43.33z
		 M121.982,32.099c1.357-1.36,1.477-3.252,1.477-4.316c0-4.256-2.541-10.877-7.449-10.877c-1.537,0-3.191,0.769-4.137,1.951
		c-1.004,1.241-1.301,2.837-1.301,4.374c0,3.96,2.306,10.522,7.389,10.522C119.437,33.754,121.035,33.044,121.982,32.099
		L121.982,32.099z"/>
	<path fill-rule="evenodd" clip-rule="evenodd" fill="#FFDF1C" d="M87.813,42.502c-9.399,0-14.423-7.329-14.423-13.949
		c0-7.744,6.325-14.365,15.309-14.365c8.691,0,14.13,6.798,14.13,13.951C102.828,35.113,97.448,42.502,87.813,42.502L87.813,42.502z
		 M95.202,37.715c1.419-1.892,1.774-4.257,1.774-6.562c0-5.202-2.483-15.133-9.813-15.133c-1.95,0-3.901,0.769-5.32,2.01
		c-2.304,2.069-2.719,4.67-2.719,7.212c0,5.852,2.897,15.487,10.048,15.487C91.477,40.729,93.843,39.606,95.202,37.715
		L95.202,37.715z"/>
	<path fill-rule="evenodd" clip-rule="evenodd" fill="#EF3E35" d="M56.365,42.502c-9.399,0-14.424-7.329-14.424-13.949
		c0-7.744,6.325-14.365,15.31-14.365c8.689,0,14.127,6.798,14.127,13.951C71.379,35.113,66.001,42.502,56.365,42.502L56.365,42.502z
		 M63.753,37.715c1.419-1.892,1.774-4.257,1.774-6.562c0-5.202-2.482-15.133-9.812-15.133c-1.951,0-3.902,0.769-5.321,2.01
		c-2.305,2.069-2.719,4.67-2.719,7.212c0,5.852,2.897,15.487,10.05,15.487C60.03,40.729,62.394,39.606,63.753,37.715L63.753,37.715z
		"/>
	<path fill-rule="evenodd" clip-rule="evenodd" fill="#0075BF" d="M38.183,40.44l-7.925,1.827c-3.214,0.499-6.097,0.943-9.144,0.943
		C5.818,43.21,0,31.961,0,23.148C0,12.397,8.258,2.422,22.389,2.422c2.993,0,5.875,0.444,8.479,1.164
		c4.156,1.164,6.097,2.605,7.315,3.437L33.584,11.4l-1.939,0.443l1.385-2.217c-1.884-1.827-5.321-5.208-11.859-5.208
		c-8.758,0-15.352,6.65-15.352,16.349c0,10.418,7.538,20.227,19.618,20.227c3.548,0,5.376-0.72,7.038-1.385v-8.923l-8.368,0.444
		l4.434-2.383h11.749l-1.44,1.385c-0.389,0.332-0.444,0.443-0.555,0.887c-0.055,0.499-0.111,2.106-0.111,2.661V40.44L38.183,40.44z"
		/>
</g>
</svg>
